<?xml version="1.0" encoding="UTF-8" standalone="no"?>
<!DOCTYPE svg PUBLIC "-//W3C//DTD SVG 1.1//EN"
 "http://www.w3.org/Graphics/SVG/1.1/DTD/svg11.dtd">
<!-- Generated by graphviz version 2.40.1 (0)
 -->
<!-- Title: snakemake_dag Pages: 1 -->
<svg width="354pt" height="260pt"
 viewBox="0.00 0.00 354.00 260.00" xmlns="http://www.w3.org/2000/svg" xmlns:xlink="http://www.w3.org/1999/xlink">
<g id="graph0" class="graph" transform="scale(1 1) rotate(0) translate(4 256)">
<title>snakemake_dag</title>
<polygon fill="#ffffff" stroke="transparent" points="-4,4 -4,-256 350,-256 350,4 -4,4"/>
<!-- 0 -->
<g id="node1" class="node">
<title>0</title>
<path fill="none" stroke="#56d87b" stroke-width="2" d="M190.5,-36C190.5,-36 160.5,-36 160.5,-36 154.5,-36 148.5,-30 148.5,-24 148.5,-24 148.5,-12 148.5,-12 148.5,-6 154.5,0 160.5,0 160.5,0 190.5,0 190.5,0 196.5,0 202.5,-6 202.5,-12 202.5,-12 202.5,-24 202.5,-24 202.5,-30 196.5,-36 190.5,-36"/>
<text text-anchor="middle" x="175.5" y="-15.5" font-family="sans" font-size="10.00" fill="#000000">all</text>
</g>
<!-- 1 -->
<g id="node2" class="node">
<title>1</title>
<path fill="none" stroke="#d85656" stroke-width="2" d="M150,-108C150,-108 109,-108 109,-108 103,-108 97,-102 97,-96 97,-96 97,-84 97,-84 97,-78 103,-72 109,-72 109,-72 150,-72 150,-72 156,-72 162,-78 162,-84 162,-84 162,-96 162,-96 162,-102 156,-108 150,-108"/>
<text text-anchor="middle" x="129.5" y="-87.5" font-family="sans" font-size="10.00" fill="#000000">_copy_vcf</text>
</g>
<!-- 1&#45;&gt;0 -->
<g id="edge1" class="edge">
<title>1&#45;&gt;0</title>
<path fill="none" stroke="#c0c0c0" stroke-width="2" d="M141.1077,-71.8314C146.2978,-63.7079 152.5232,-53.9637 158.2425,-45.0118"/>
<polygon fill="#c0c0c0" stroke="#c0c0c0" stroke-width="2" points="161.3015,-46.7246 163.736,-36.4133 155.4026,-42.9559 161.3015,-46.7246"/>
</g>
<!-- 2 -->
<g id="node3" class="node">
<title>2</title>
<path fill="none" stroke="#56d8c9" stroke-width="2" d="M150.5,-180C150.5,-180 38.5,-180 38.5,-180 32.5,-180 26.5,-174 26.5,-168 26.5,-168 26.5,-156 26.5,-156 26.5,-150 32.5,-144 38.5,-144 38.5,-144 150.5,-144 150.5,-144 156.5,-144 162.5,-150 162.5,-156 162.5,-156 162.5,-168 162.5,-168 162.5,-174 156.5,-180 150.5,-180"/>
<text text-anchor="middle" x="94.5" y="-159.5" font-family="sans" font-size="10.00" fill="#000000">vcf_filter_include_region</text>
</g>
<!-- 2&#45;&gt;1 -->
<g id="edge3" class="edge">
<title>2&#45;&gt;1</title>
<path fill="none" stroke="#c0c0c0" stroke-width="2" d="M103.332,-143.8314C107.1986,-135.8771 111.8206,-126.369 116.0968,-117.5723"/>
<polygon fill="#c0c0c0" stroke="#c0c0c0" stroke-width="2" points="119.3249,-118.9371 120.5491,-108.4133 113.0293,-115.8768 119.3249,-118.9371"/>
</g>
<!-- 3 -->
<g id="node4" class="node">
<title>3</title>
<path fill="none" stroke="#d8a456" stroke-width="2" d="M157,-252C157,-252 12,-252 12,-252 6,-252 0,-246 0,-240 0,-240 0,-228 0,-228 0,-222 6,-216 12,-216 12,-216 157,-216 157,-216 163,-216 169,-222 169,-228 169,-228 169,-240 169,-240 169,-246 163,-252 157,-252"/>
<text text-anchor="middle" x="84.5" y="-237" font-family="sans" font-size="10.00" fill="#000000">deepsomatic_run_deepsomatic</text>
<text text-anchor="middle" x="84.5" y="-226" font-family="sans" font-size="10.00" fill="#000000">sample: 2022.MM.16</text>
</g>
<!-- 3&#45;&gt;2 -->
<g id="edge4" class="edge">
<title>3&#45;&gt;2</title>
<path fill="none" stroke="#c0c0c0" stroke-width="2" d="M87.0234,-215.8314C88.0929,-208.131 89.3647,-198.9743 90.5532,-190.4166"/>
<polygon fill="#c0c0c0" stroke="#c0c0c0" stroke-width="2" points="94.0336,-190.7997 91.9426,-180.4133 87.1001,-189.8367 94.0336,-190.7997"/>
</g>
<!-- 4 -->
<g id="node5" class="node">
<title>4</title>
<path fill="none" stroke="#56a2d8" stroke-width="2" d="M270.5,-108C270.5,-108 212.5,-108 212.5,-108 206.5,-108 200.5,-102 200.5,-96 200.5,-96 200.5,-84 200.5,-84 200.5,-78 206.5,-72 212.5,-72 212.5,-72 270.5,-72 270.5,-72 276.5,-72 282.5,-78 282.5,-84 282.5,-84 282.5,-96 282.5,-96 282.5,-102 276.5,-108 270.5,-108"/>
<text text-anchor="middle" x="241.5" y="-87.5" font-family="sans" font-size="10.00" fill="#000000">_copy_sv_vcf</text>
</g>
<!-- 4&#45;&gt;0 -->
<g id="edge2" class="edge">
<title>4&#45;&gt;0</title>
<path fill="none" stroke="#c0c0c0" stroke-width="2" d="M224.8454,-71.8314C217.0886,-63.3694 207.7198,-53.1489 199.239,-43.8971"/>
<polygon fill="#c0c0c0" stroke="#c0c0c0" stroke-width="2" points="201.7162,-41.4198 192.3788,-36.4133 196.5561,-46.1499 201.7162,-41.4198"/>
</g>
<!-- 5 -->
<g id="node6" class="node">
<title>5</title>
<path fill="none" stroke="#c6d856" stroke-width="2" d="M325.5,-180C325.5,-180 197.5,-180 197.5,-180 191.5,-180 185.5,-174 185.5,-168 185.5,-168 185.5,-156 185.5,-156 185.5,-150 191.5,-144 197.5,-144 197.5,-144 325.5,-144 325.5,-144 331.5,-144 337.5,-150 337.5,-156 337.5,-156 337.5,-168 337.5,-168 337.5,-174 331.5,-180 325.5,-180"/>
<text text-anchor="middle" x="261.5" y="-159.5" font-family="sans" font-size="10.00" fill="#000000">sv_vcf_filter_include_region</text>
</g>
<!-- 5&#45;&gt;4 -->
<g id="edge5" class="edge">
<title>5&#45;&gt;4</title>
<path fill="none" stroke="#c0c0c0" stroke-width="2" d="M256.4532,-143.8314C254.2906,-136.0463 251.7147,-126.7729 249.3152,-118.1347"/>
<polygon fill="#c0c0c0" stroke="#c0c0c0" stroke-width="2" points="252.6636,-117.1117 246.6148,-108.4133 245.919,-118.9852 252.6636,-117.1117"/>
</g>
<!-- 6 -->
<g id="node7" class="node">
<title>6</title>
<path fill="none" stroke="#78d856" stroke-width="2" d="M334,-252C334,-252 199,-252 199,-252 193,-252 187,-246 187,-240 187,-240 187,-228 187,-228 187,-222 193,-216 199,-216 199,-216 334,-216 334,-216 340,-216 346,-222 346,-228 346,-228 346,-240 346,-240 346,-246 340,-252 334,-252"/>
<text text-anchor="middle" x="266.5" y="-237" font-family="sans" font-size="10.00" fill="#000000">pbsv_call_structural_variants</text>
<text text-anchor="middle" x="266.5" y="-226" font-family="sans" font-size="10.00" fill="#000000">sample: 2022.MM.16</text>
</g>
<!-- 6&#45;&gt;5 -->
<g id="edge6" class="edge">
<title>6&#45;&gt;5</title>
<path fill="none" stroke="#c0c0c0" stroke-width="2" d="M265.2383,-215.8314C264.7035,-208.131 264.0677,-198.9743 263.4734,-190.4166"/>
<polygon fill="#c0c0c0" stroke="#c0c0c0" stroke-width="2" points="266.9632,-190.1467 262.7787,-180.4133 259.98,-190.6317 266.9632,-190.1467"/>
</g>
</g>
</svg>
