<?xml version="1.0" encoding="UTF-8" standalone="no"?>
<!DOCTYPE svg PUBLIC "-//W3C//DTD SVG 1.1//EN"
 "http://www.w3.org/Graphics/SVG/1.1/DTD/svg11.dtd">
<!-- Generated by graphviz version 12.2.1 (20241206.2353)
 -->
<!-- Title: snakemake_dag Pages: 1 -->
<svg width="1102pt" height="349pt"
 viewBox="0.00 0.00 1102.31 349.25" xmlns="http://www.w3.org/2000/svg" xmlns:xlink="http://www.w3.org/1999/xlink">
<g id="graph0" class="graph" transform="scale(1 1) rotate(0) translate(4 345.25)">
<title>snakemake_dag</title>
<polygon fill="white" stroke="none" points="-4,4 -4,-345.25 1098.31,-345.25 1098.31,4 -4,4"/>
<!-- 0 -->
<g id="node1" class="node">
<title>0</title>
<path fill="none" stroke="#d88d56" stroke-width="2" d="M582.31,-36C582.31,-36 552.31,-36 552.31,-36 546.31,-36 540.31,-30 540.31,-24 540.31,-24 540.31,-12 540.31,-12 540.31,-6 546.31,0 552.31,0 552.31,0 582.31,0 582.31,0 588.31,0 594.31,-6 594.31,-12 594.31,-12 594.31,-24 594.31,-24 594.31,-30 588.31,-36 582.31,-36"/>
<text text-anchor="middle" x="567.31" y="-14.12" font-family="sans" font-size="10.00">all</text>
</g>
<!-- 1 -->
<g id="node2" class="node">
<title>1</title>
<path fill="none" stroke="#5673d8" stroke-width="2" d="M175.06,-108C175.06,-108 91.56,-108 91.56,-108 85.56,-108 79.56,-102 79.56,-96 79.56,-96 79.56,-84 79.56,-84 79.56,-78 85.56,-72 91.56,-72 91.56,-72 175.06,-72 175.06,-72 181.06,-72 187.06,-78 187.06,-84 187.06,-84 187.06,-96 187.06,-96 187.06,-102 181.06,-108 175.06,-108"/>
<text text-anchor="middle" x="133.31" y="-91.75" font-family="sans" font-size="10.00">_copy_indel_vcf</text>
<text text-anchor="middle" x="133.31" y="-80.5" font-family="sans" font-size="10.00">sample: 2022.MM.16</text>
</g>
<!-- 1&#45;&gt;0 -->
<g id="edge1" class="edge">
<title>1&#45;&gt;0</title>
<path fill="none" stroke="grey" stroke-width="2" d="M187.69,-76.16C194.61,-74.68 201.62,-73.25 208.31,-72 323.32,-50.51 460.38,-32.31 526.99,-23.93"/>
<polygon fill="grey" stroke="grey" stroke-width="2" points="527.22,-27.43 536.71,-22.72 526.36,-20.48 527.22,-27.43"/>
</g>
<!-- 2 -->
<g id="node3" class="node">
<title>2</title>
<path fill="none" stroke="#59d856" stroke-width="2" d="M156.06,-182.88C156.06,-182.88 84.56,-182.88 84.56,-182.88 78.56,-182.88 72.56,-176.88 72.56,-170.88 72.56,-170.88 72.56,-158.88 72.56,-158.88 72.56,-152.88 78.56,-146.88 84.56,-146.88 84.56,-146.88 156.06,-146.88 156.06,-146.88 162.06,-146.88 168.06,-152.88 168.06,-158.88 168.06,-158.88 168.06,-170.88 168.06,-170.88 168.06,-176.88 162.06,-182.88 156.06,-182.88"/>
<text text-anchor="middle" x="120.31" y="-166.62" font-family="sans" font-size="10.00">filter_deepsomatic</text>
<text text-anchor="middle" x="120.31" y="-155.38" font-family="sans" font-size="10.00">tag: panel</text>
</g>
<!-- 2&#45;&gt;1 -->
<g id="edge9" class="edge">
<title>2&#45;&gt;1</title>
<path fill="none" stroke="grey" stroke-width="2" d="M123.46,-146.23C124.78,-138.83 126.35,-129.99 127.85,-121.58"/>
<polygon fill="grey" stroke="grey" stroke-width="2" points="131.26,-122.42 129.57,-111.96 124.37,-121.19 131.26,-122.42"/>
</g>
<!-- 3 -->
<g id="node4" class="node">
<title>3</title>
<path fill="none" stroke="#56d8c1" stroke-width="2" d="M96.06,-338.38C96.06,-338.38 12.56,-338.38 12.56,-338.38 6.56,-338.38 0.56,-332.38 0.56,-326.38 0.56,-326.38 0.56,-314.38 0.56,-314.38 0.56,-308.38 6.56,-302.38 12.56,-302.38 12.56,-302.38 96.06,-302.38 96.06,-302.38 102.06,-302.38 108.06,-308.38 108.06,-314.38 108.06,-314.38 108.06,-326.38 108.06,-326.38 108.06,-332.38 102.06,-338.38 96.06,-338.38"/>
<text text-anchor="middle" x="54.31" y="-322.12" font-family="sans" font-size="10.00">deepsomatic_tn</text>
<text text-anchor="middle" x="54.31" y="-310.88" font-family="sans" font-size="10.00">sample: 2022.MM.16</text>
</g>
<!-- 3&#45;&gt;2 -->
<g id="edge10" class="edge">
<title>3&#45;&gt;2</title>
<path fill="none" stroke="grey" stroke-width="2" d="M33.08,-301.5C22.89,-291.51 11.73,-278.13 6.31,-263.5 -0.14,-246.1 -3.51,-237.5 6.31,-221.75 18.3,-202.52 39.05,-189.72 59.59,-181.29"/>
<polygon fill="grey" stroke="grey" stroke-width="2" points="60.6,-184.65 68.75,-177.88 58.16,-178.09 60.6,-184.65"/>
</g>
<!-- 4 -->
<g id="node5" class="node">
<title>4</title>
<path fill="none" stroke="#d8a456" stroke-width="2" d="M213.44,-260.62C213.44,-260.62 27.19,-260.62 27.19,-260.62 21.19,-260.62 15.19,-254.62 15.19,-248.62 15.19,-248.62 15.19,-236.62 15.19,-236.62 15.19,-230.62 21.19,-224.62 27.19,-224.62 27.19,-224.62 213.44,-224.62 213.44,-224.62 219.44,-224.62 225.44,-230.62 225.44,-236.62 225.44,-236.62 225.44,-248.62 225.44,-248.62 225.44,-254.62 219.44,-260.62 213.44,-260.62"/>
<text text-anchor="middle" x="120.31" y="-244.38" font-family="sans" font-size="10.00">index_deepsomatic</text>
<text text-anchor="middle" x="120.31" y="-233.12" font-family="sans" font-size="10.00">file: snv_indels/deepsomatic_tn/2022.MM.16</text>
</g>
<!-- 3&#45;&gt;4 -->
<g id="edge12" class="edge">
<title>3&#45;&gt;4</title>
<path fill="none" stroke="grey" stroke-width="2" d="M69.95,-301.42C77.84,-292.37 87.58,-281.19 96.39,-271.08"/>
<polygon fill="grey" stroke="grey" stroke-width="2" points="98.86,-273.57 102.79,-263.73 93.58,-268.97 98.86,-273.57"/>
</g>
<!-- 4&#45;&gt;2 -->
<g id="edge11" class="edge">
<title>4&#45;&gt;2</title>
<path fill="none" stroke="grey" stroke-width="2" d="M120.31,-223.67C120.31,-215.56 120.31,-205.74 120.31,-196.52"/>
<polygon fill="grey" stroke="grey" stroke-width="2" points="123.81,-196.72 120.31,-186.72 116.81,-196.72 123.81,-196.72"/>
</g>
<!-- 5 -->
<g id="node6" class="node">
<title>5</title>
<path fill="none" stroke="#88d856" stroke-width="2" d="M313.06,-108C313.06,-108 229.56,-108 229.56,-108 223.56,-108 217.56,-102 217.56,-96 217.56,-96 217.56,-84 217.56,-84 217.56,-78 223.56,-72 229.56,-72 229.56,-72 313.06,-72 313.06,-72 319.06,-72 325.06,-78 325.06,-84 325.06,-84 325.06,-96 325.06,-96 325.06,-102 319.06,-108 313.06,-108"/>
<text text-anchor="middle" x="271.31" y="-91.75" font-family="sans" font-size="10.00">_copy_pbsv_vcf</text>
<text text-anchor="middle" x="271.31" y="-80.5" font-family="sans" font-size="10.00">sample: 2022.MM.16</text>
</g>
<!-- 5&#45;&gt;0 -->
<g id="edge2" class="edge">
<title>5&#45;&gt;0</title>
<path fill="none" stroke="grey" stroke-width="2" d="M325.91,-74.12C328.75,-73.39 331.56,-72.68 334.31,-72 401.69,-55.25 480.56,-37.75 527.1,-27.64"/>
<polygon fill="grey" stroke="grey" stroke-width="2" points="527.62,-31.11 536.65,-25.57 526.14,-24.26 527.62,-31.11"/>
</g>
<!-- 6 -->
<g id="node7" class="node">
<title>6</title>
<path fill="none" stroke="#56d88a" stroke-width="2" d="M343.06,-182.88C343.06,-182.88 199.56,-182.88 199.56,-182.88 193.56,-182.88 187.56,-176.88 187.56,-170.88 187.56,-170.88 187.56,-158.88 187.56,-158.88 187.56,-152.88 193.56,-146.88 199.56,-146.88 199.56,-146.88 343.06,-146.88 343.06,-146.88 349.06,-146.88 355.06,-152.88 355.06,-158.88 355.06,-158.88 355.06,-170.88 355.06,-170.88 355.06,-176.88 349.06,-182.88 343.06,-182.88"/>
<text text-anchor="middle" x="271.31" y="-166.62" font-family="sans" font-size="10.00">bgzip</text>
<text text-anchor="middle" x="271.31" y="-155.38" font-family="sans" font-size="10.00">file: cnv_sv/pbsv_call/2022.MM.16</text>
</g>
<!-- 6&#45;&gt;5 -->
<g id="edge13" class="edge">
<title>6&#45;&gt;5</title>
<path fill="none" stroke="grey" stroke-width="2" d="M271.31,-146.23C271.31,-138.91 271.31,-130.2 271.31,-121.88"/>
<polygon fill="grey" stroke="grey" stroke-width="2" points="274.81,-122.01 271.31,-112.01 267.81,-122.01 274.81,-122.01"/>
</g>
<!-- 7 -->
<g id="node8" class="node">
<title>7</title>
<path fill="none" stroke="#56a2d8" stroke-width="2" d="M288.94,-260.62C288.94,-260.62 255.69,-260.62 255.69,-260.62 249.69,-260.62 243.69,-254.62 243.69,-248.62 243.69,-248.62 243.69,-236.62 243.69,-236.62 243.69,-230.62 249.69,-224.62 255.69,-224.62 255.69,-224.62 288.94,-224.62 288.94,-224.62 294.94,-224.62 300.94,-230.62 300.94,-236.62 300.94,-236.62 300.94,-248.62 300.94,-248.62 300.94,-254.62 294.94,-260.62 288.94,-260.62"/>
<text text-anchor="middle" x="272.31" y="-238.75" font-family="sans" font-size="10.00">pbsv_call</text>
</g>
<!-- 7&#45;&gt;6 -->
<g id="edge14" class="edge">
<title>7&#45;&gt;6</title>
<path fill="none" stroke="grey" stroke-width="2" d="M272.07,-223.67C271.97,-215.56 271.84,-205.74 271.71,-196.52"/>
<polygon fill="grey" stroke="grey" stroke-width="2" points="275.22,-196.68 271.59,-186.72 268.22,-196.77 275.22,-196.68"/>
</g>
<!-- 8 -->
<g id="node9" class="node">
<title>8</title>
<path fill="none" stroke="#56d8d8" stroke-width="2" d="M314.06,-341.25C314.06,-341.25 230.56,-341.25 230.56,-341.25 224.56,-341.25 218.56,-335.25 218.56,-329.25 218.56,-329.25 218.56,-311.5 218.56,-311.5 218.56,-305.5 224.56,-299.5 230.56,-299.5 230.56,-299.5 314.06,-299.5 314.06,-299.5 320.06,-299.5 326.06,-305.5 326.06,-311.5 326.06,-311.5 326.06,-329.25 326.06,-329.25 326.06,-335.25 320.06,-341.25 314.06,-341.25"/>
<text text-anchor="middle" x="272.31" y="-327.75" font-family="sans" font-size="10.00">pbsv_discover</text>
<text text-anchor="middle" x="272.31" y="-316.5" font-family="sans" font-size="10.00">sample: 2022.MM.16</text>
<text text-anchor="middle" x="272.31" y="-305.25" font-family="sans" font-size="10.00">type: T</text>
</g>
<!-- 8&#45;&gt;7 -->
<g id="edge15" class="edge">
<title>8&#45;&gt;7</title>
<path fill="none" stroke="grey" stroke-width="2" d="M272.31,-298.68C272.31,-291.21 272.31,-282.62 272.31,-274.47"/>
<polygon fill="grey" stroke="grey" stroke-width="2" points="275.81,-274.5 272.31,-264.5 268.81,-274.5 275.81,-274.5"/>
</g>
<!-- 9 -->
<g id="node10" class="node">
<title>9</title>
<path fill="none" stroke="#568ad8" stroke-width="2" d="M425.69,-108C425.69,-108 354.94,-108 354.94,-108 348.94,-108 342.94,-102 342.94,-96 342.94,-96 342.94,-84 342.94,-84 342.94,-78 348.94,-72 354.94,-72 354.94,-72 425.69,-72 425.69,-72 431.69,-72 437.69,-78 437.69,-84 437.69,-84 437.69,-96 437.69,-96 437.69,-102 431.69,-108 425.69,-108"/>
<text text-anchor="middle" x="390.31" y="-86.12" font-family="sans" font-size="10.00">_copy_hificnv_vcf</text>
</g>
<!-- 9&#45;&gt;0 -->
<g id="edge3" class="edge">
<title>9&#45;&gt;0</title>
<path fill="none" stroke="grey" stroke-width="2" d="M435.43,-71.15C463.86,-59.91 500.21,-45.54 527.55,-34.73"/>
<polygon fill="grey" stroke="grey" stroke-width="2" points="528.58,-38.08 536.6,-31.15 526.01,-31.57 528.58,-38.08"/>
</g>
<!-- 10 -->
<g id="node11" class="node">
<title>10</title>
<path fill="none" stroke="#d85656" stroke-width="2" d="M469.06,-185.75C469.06,-185.75 385.56,-185.75 385.56,-185.75 379.56,-185.75 373.56,-179.75 373.56,-173.75 373.56,-173.75 373.56,-156 373.56,-156 373.56,-150 379.56,-144 385.56,-144 385.56,-144 469.06,-144 469.06,-144 475.06,-144 481.06,-150 481.06,-156 481.06,-156 481.06,-173.75 481.06,-173.75 481.06,-179.75 475.06,-185.75 469.06,-185.75"/>
<text text-anchor="middle" x="427.31" y="-172.25" font-family="sans" font-size="10.00">hificnv</text>
<text text-anchor="middle" x="427.31" y="-161" font-family="sans" font-size="10.00">sample: 2022.MM.16</text>
<text text-anchor="middle" x="427.31" y="-149.75" font-family="sans" font-size="10.00">type: T</text>
</g>
<!-- 10&#45;&gt;9 -->
<g id="edge16" class="edge">
<title>10&#45;&gt;9</title>
<path fill="none" stroke="grey" stroke-width="2" d="M416.81,-143.19C413.16,-136.01 409,-127.82 405.08,-120.09"/>
<polygon fill="grey" stroke="grey" stroke-width="2" points="408.23,-118.56 400.58,-111.23 401.99,-121.73 408.23,-118.56"/>
</g>
<!-- 11 -->
<g id="node12" class="node">
<title>11</title>
<path fill="none" stroke="#d86e56" stroke-width="2" d="M546.81,-108C546.81,-108 467.81,-108 467.81,-108 461.81,-108 455.81,-102 455.81,-96 455.81,-96 455.81,-84 455.81,-84 455.81,-78 461.81,-72 467.81,-72 467.81,-72 546.81,-72 546.81,-72 552.81,-72 558.81,-78 558.81,-84 558.81,-84 558.81,-96 558.81,-96 558.81,-102 552.81,-108 546.81,-108"/>
<text text-anchor="middle" x="507.31" y="-86.12" font-family="sans" font-size="10.00">_copy_sniffles2_vcf</text>
</g>
<!-- 11&#45;&gt;0 -->
<g id="edge4" class="edge">
<title>11&#45;&gt;0</title>
<path fill="none" stroke="grey" stroke-width="2" d="M522.45,-71.34C528.87,-63.85 536.5,-54.95 543.63,-46.63"/>
<polygon fill="grey" stroke="grey" stroke-width="2" points="546.15,-49.07 550,-39.2 540.83,-44.51 546.15,-49.07"/>
</g>
<!-- 12 -->
<g id="node13" class="node">
<title>12</title>
<path fill="none" stroke="#56d8a2" stroke-width="2" d="M633.06,-185.75C633.06,-185.75 549.56,-185.75 549.56,-185.75 543.56,-185.75 537.56,-179.75 537.56,-173.75 537.56,-173.75 537.56,-156 537.56,-156 537.56,-150 543.56,-144 549.56,-144 549.56,-144 633.06,-144 633.06,-144 639.06,-144 645.06,-150 645.06,-156 645.06,-156 645.06,-173.75 645.06,-173.75 645.06,-179.75 639.06,-185.75 633.06,-185.75"/>
<text text-anchor="middle" x="591.31" y="-172.25" font-family="sans" font-size="10.00">sniffles2</text>
<text text-anchor="middle" x="591.31" y="-161" font-family="sans" font-size="10.00">sample: 2022.MM.16</text>
<text text-anchor="middle" x="591.31" y="-149.75" font-family="sans" font-size="10.00">type: T</text>
</g>
<!-- 12&#45;&gt;11 -->
<g id="edge17" class="edge">
<title>12&#45;&gt;11</title>
<path fill="none" stroke="grey" stroke-width="2" d="M567.46,-143.19C558.18,-135.13 547.42,-125.8 537.6,-117.28"/>
<polygon fill="grey" stroke="grey" stroke-width="2" points="539.93,-114.67 530.08,-110.76 535.34,-119.95 539.93,-114.67"/>
</g>
<!-- 13 -->
<g id="node14" class="node">
<title>13</title>
<path fill="none" stroke="#a7d856" stroke-width="2" d="M667.81,-108C667.81,-108 588.81,-108 588.81,-108 582.81,-108 576.81,-102 576.81,-96 576.81,-96 576.81,-84 576.81,-84 576.81,-78 582.81,-72 588.81,-72 588.81,-72 667.81,-72 667.81,-72 673.81,-72 679.81,-78 679.81,-84 679.81,-84 679.81,-96 679.81,-96 679.81,-102 673.81,-108 667.81,-108"/>
<text text-anchor="middle" x="628.31" y="-86.12" font-family="sans" font-size="10.00">_copy_sniffles2_snf</text>
</g>
<!-- 12&#45;&gt;13 -->
<g id="edge18" class="edge">
<title>12&#45;&gt;13</title>
<path fill="none" stroke="grey" stroke-width="2" d="M601.81,-143.19C605.46,-136.01 609.62,-127.82 613.54,-120.09"/>
<polygon fill="grey" stroke="grey" stroke-width="2" points="616.63,-121.73 618.04,-111.23 610.39,-118.56 616.63,-121.73"/>
</g>
<!-- 13&#45;&gt;0 -->
<g id="edge5" class="edge">
<title>13&#45;&gt;0</title>
<path fill="none" stroke="grey" stroke-width="2" d="M612.92,-71.34C606.39,-63.85 598.64,-54.95 591.39,-46.63"/>
<polygon fill="grey" stroke="grey" stroke-width="2" points="594.11,-44.42 584.9,-39.18 588.83,-49.02 594.11,-44.42"/>
</g>
<!-- 14 -->
<g id="node15" class="node">
<title>14</title>
<path fill="none" stroke="#56c1d8" stroke-width="2" d="M867.19,-108C867.19,-108 709.44,-108 709.44,-108 703.44,-108 697.44,-102 697.44,-96 697.44,-96 697.44,-84 697.44,-84 697.44,-78 703.44,-72 709.44,-72 709.44,-72 867.19,-72 867.19,-72 873.19,-72 879.19,-78 879.19,-84 879.19,-84 879.19,-96 879.19,-96 879.19,-102 873.19,-108 867.19,-108"/>
<text text-anchor="middle" x="788.31" y="-86.12" font-family="sans" font-size="10.00">_copy_cnvkit_batch_segments_called</text>
</g>
<!-- 14&#45;&gt;0 -->
<g id="edge6" class="edge">
<title>14&#45;&gt;0</title>
<path fill="none" stroke="grey" stroke-width="2" d="M731.68,-71.06C692.73,-58.73 641.95,-42.64 607.2,-31.63"/>
<polygon fill="grey" stroke="grey" stroke-width="2" points="608.65,-28.42 598.06,-28.74 606.54,-35.1 608.65,-28.42"/>
</g>
<!-- 15 -->
<g id="node16" class="node">
<title>15</title>
<path fill="none" stroke="#bed856" stroke-width="2" d="M947.06,-263.5C947.06,-263.5 863.56,-263.5 863.56,-263.5 857.56,-263.5 851.56,-257.5 851.56,-251.5 851.56,-251.5 851.56,-233.75 851.56,-233.75 851.56,-227.75 857.56,-221.75 863.56,-221.75 863.56,-221.75 947.06,-221.75 947.06,-221.75 953.06,-221.75 959.06,-227.75 959.06,-233.75 959.06,-233.75 959.06,-251.5 959.06,-251.5 959.06,-257.5 953.06,-263.5 947.06,-263.5"/>
<text text-anchor="middle" x="905.31" y="-250" font-family="sans" font-size="10.00">cnvkit_batch</text>
<text text-anchor="middle" x="905.31" y="-238.75" font-family="sans" font-size="10.00">sample: 2022.MM.16</text>
<text text-anchor="middle" x="905.31" y="-227.5" font-family="sans" font-size="10.00">type: T</text>
</g>
<!-- 15&#45;&gt;14 -->
<g id="edge19" class="edge">
<title>15&#45;&gt;14</title>
<path fill="none" stroke="grey" stroke-width="2" d="M850.7,-221.02C834.5,-212.42 818.2,-200.84 807.31,-185.75 793.91,-167.18 789.39,-141.48 788.1,-121.52"/>
<polygon fill="grey" stroke="grey" stroke-width="2" points="791.61,-121.69 787.76,-111.81 784.62,-121.93 791.61,-121.69"/>
</g>
<!-- 16 -->
<g id="node17" class="node">
<title>16</title>
<path fill="none" stroke="#d8bc56" stroke-width="2" d="M982.31,-182.88C982.31,-182.88 828.31,-182.88 828.31,-182.88 822.31,-182.88 816.31,-176.88 816.31,-170.88 816.31,-170.88 816.31,-158.88 816.31,-158.88 816.31,-152.88 822.31,-146.88 828.31,-146.88 828.31,-146.88 982.31,-146.88 982.31,-146.88 988.31,-146.88 994.31,-152.88 994.31,-158.88 994.31,-158.88 994.31,-170.88 994.31,-170.88 994.31,-176.88 988.31,-182.88 982.31,-182.88"/>
<text text-anchor="middle" x="905.31" y="-161" font-family="sans" font-size="10.00">_copy_cnvkit_batch_target_coverage</text>
</g>
<!-- 15&#45;&gt;16 -->
<g id="edge20" class="edge">
<title>15&#45;&gt;16</title>
<path fill="none" stroke="grey" stroke-width="2" d="M905.31,-220.93C905.31,-213.46 905.31,-204.87 905.31,-196.72"/>
<polygon fill="grey" stroke="grey" stroke-width="2" points="908.81,-196.75 905.31,-186.75 901.81,-196.75 908.81,-196.75"/>
</g>
<!-- 18 -->
<g id="node19" class="node">
<title>18</title>
<path fill="none" stroke="#70d856" stroke-width="2" d="M1082.31,-182.88C1082.31,-182.88 1024.31,-182.88 1024.31,-182.88 1018.31,-182.88 1012.31,-176.88 1012.31,-170.88 1012.31,-170.88 1012.31,-158.88 1012.31,-158.88 1012.31,-152.88 1018.31,-146.88 1024.31,-146.88 1024.31,-146.88 1082.31,-146.88 1082.31,-146.88 1088.31,-146.88 1094.31,-152.88 1094.31,-158.88 1094.31,-158.88 1094.31,-170.88 1094.31,-170.88 1094.31,-176.88 1088.31,-182.88 1082.31,-182.88"/>
<text text-anchor="middle" x="1053.31" y="-161" font-family="sans" font-size="10.00">cnvkit_diagram</text>
</g>
<!-- 15&#45;&gt;18 -->
<g id="edge22" class="edge">
<title>15&#45;&gt;18</title>
<path fill="none" stroke="grey" stroke-width="2" d="M945.75,-220.93C964.69,-211.23 987.36,-199.63 1006.99,-189.58"/>
<polygon fill="grey" stroke="grey" stroke-width="2" points="1008.45,-192.77 1015.75,-185.1 1005.26,-186.54 1008.45,-192.77"/>
</g>
<!-- 16&#45;&gt;0 -->
<g id="edge7" class="edge">
<title>16&#45;&gt;0</title>
<path fill="none" stroke="grey" stroke-width="2" d="M907.54,-145.91C909.02,-125.09 907.88,-91.2 888.31,-72 849.27,-33.71 685.66,-23.02 608.24,-20.09"/>
<polygon fill="grey" stroke="grey" stroke-width="2" points="608.42,-16.59 598.3,-19.74 608.17,-23.59 608.42,-16.59"/>
</g>
<!-- 17 -->
<g id="node18" class="node">
<title>17</title>
<path fill="none" stroke="#d6d856" stroke-width="2" d="M1068.06,-108C1068.06,-108 978.56,-108 978.56,-108 972.56,-108 966.56,-102 966.56,-96 966.56,-96 966.56,-84 966.56,-84 966.56,-78 972.56,-72 978.56,-72 978.56,-72 1068.06,-72 1068.06,-72 1074.06,-72 1080.06,-78 1080.06,-84 1080.06,-84 1080.06,-96 1080.06,-96 1080.06,-102 1074.06,-108 1068.06,-108"/>
<text text-anchor="middle" x="1023.31" y="-86.12" font-family="sans" font-size="10.00">_copy_cnvkit_diagram</text>
</g>
<!-- 17&#45;&gt;0 -->
<g id="edge8" class="edge">
<title>17&#45;&gt;0</title>
<path fill="none" stroke="grey" stroke-width="2" d="M965.62,-79.21C951.16,-76.81 935.67,-74.27 921.31,-72 807.61,-54.01 673.11,-34.31 607.44,-24.79"/>
<polygon fill="grey" stroke="grey" stroke-width="2" points="608.27,-21.37 597.87,-23.4 607.27,-28.3 608.27,-21.37"/>
</g>
<!-- 18&#45;&gt;17 -->
<g id="edge21" class="edge">
<title>18&#45;&gt;17</title>
<path fill="none" stroke="grey" stroke-width="2" d="M1046.05,-146.23C1042.93,-138.65 1039.19,-129.57 1035.65,-120.98"/>
<polygon fill="grey" stroke="grey" stroke-width="2" points="1038.91,-119.7 1031.87,-111.78 1032.44,-122.36 1038.91,-119.7"/>
</g>
</g>
</svg>
