<?xml version="1.0" encoding="UTF-8" standalone="no"?>
<!DOCTYPE svg PUBLIC "-//W3C//DTD SVG 1.1//EN"
 "http://www.w3.org/Graphics/SVG/1.1/DTD/svg11.dtd">
<!-- Generated by graphviz version 12.2.1 (20241206.2353)
 -->
<!-- Title: snakemake_dag Pages: 1 -->
<svg width="1141pt" height="349pt"
 viewBox="0.00 0.00 1141.38 349.25" xmlns="http://www.w3.org/2000/svg" xmlns:xlink="http://www.w3.org/1999/xlink">
<g id="graph0" class="graph" transform="scale(1 1) rotate(0) translate(4 345.25)">
<title>snakemake_dag</title>
<polygon fill="white" stroke="none" points="-4,4 -4,-345.25 1137.38,-345.25 1137.38,4 -4,4"/>
<!-- 0 -->
<g id="node1" class="node">
<title>0</title>
<path fill="none" stroke="#56a2d8" stroke-width="2" d="M621.38,-36C621.38,-36 591.38,-36 591.38,-36 585.38,-36 579.38,-30 579.38,-24 579.38,-24 579.38,-12 579.38,-12 579.38,-6 585.38,0 591.38,0 591.38,0 621.38,0 621.38,0 627.38,0 633.38,-6 633.38,-12 633.38,-12 633.38,-24 633.38,-24 633.38,-30 627.38,-36 621.38,-36"/>
<text text-anchor="middle" x="606.38" y="-14.12" font-family="sans" font-size="10.00">all</text>
</g>
<!-- 1 -->
<g id="node2" class="node">
<title>1</title>
<path fill="none" stroke="#56c1d8" stroke-width="2" d="M210.12,-108C210.12,-108 126.62,-108 126.62,-108 120.62,-108 114.62,-102 114.62,-96 114.62,-96 114.62,-84 114.62,-84 114.62,-78 120.62,-72 126.62,-72 126.62,-72 210.12,-72 210.12,-72 216.12,-72 222.12,-78 222.12,-84 222.12,-84 222.12,-96 222.12,-96 222.12,-102 216.12,-108 210.12,-108"/>
<text text-anchor="middle" x="168.38" y="-91.75" font-family="sans" font-size="10.00">_copy_indel_vcf</text>
<text text-anchor="middle" x="168.38" y="-80.5" font-family="sans" font-size="10.00">sample: 2022.MM.64</text>
</g>
<!-- 1&#45;&gt;0 -->
<g id="edge1" class="edge">
<title>1&#45;&gt;0</title>
<path fill="none" stroke="grey" stroke-width="2" d="M223.11,-76.74C231.23,-75.06 239.51,-73.43 247.38,-72 362.5,-51.14 499.51,-32.65 566.08,-24.07"/>
<polygon fill="grey" stroke="grey" stroke-width="2" points="566.32,-27.57 575.8,-22.83 565.43,-20.63 566.32,-27.57"/>
</g>
<!-- 2 -->
<g id="node3" class="node">
<title>2</title>
<path fill="none" stroke="#56d873" stroke-width="2" d="M195,-182.88C195,-182.88 107.75,-182.88 107.75,-182.88 101.75,-182.88 95.75,-176.88 95.75,-170.88 95.75,-170.88 95.75,-158.88 95.75,-158.88 95.75,-152.88 101.75,-146.88 107.75,-146.88 107.75,-146.88 195,-146.88 195,-146.88 201,-146.88 207,-152.88 207,-158.88 207,-158.88 207,-170.88 207,-170.88 207,-176.88 201,-182.88 195,-182.88"/>
<text text-anchor="middle" x="151.38" y="-166.62" font-family="sans" font-size="10.00">filter_vcf_haplotagged</text>
<text text-anchor="middle" x="151.38" y="-155.38" font-family="sans" font-size="10.00">tag: panel</text>
</g>
<!-- 2&#45;&gt;1 -->
<g id="edge9" class="edge">
<title>2&#45;&gt;1</title>
<path fill="none" stroke="grey" stroke-width="2" d="M155.49,-146.23C157.22,-138.83 159.28,-129.99 161.24,-121.58"/>
<polygon fill="grey" stroke="grey" stroke-width="2" points="164.63,-122.47 163.49,-111.93 157.81,-120.88 164.63,-122.47"/>
</g>
<!-- 3 -->
<g id="node4" class="node">
<title>3</title>
<path fill="none" stroke="#568ad8" stroke-width="2" d="M148.75,-338.38C148.75,-338.38 12,-338.38 12,-338.38 6,-338.38 0,-332.38 0,-326.38 0,-326.38 0,-314.38 0,-314.38 0,-308.38 6,-302.38 12,-302.38 12,-302.38 148.75,-302.38 148.75,-302.38 154.75,-302.38 160.75,-308.38 160.75,-314.38 160.75,-314.38 160.75,-326.38 160.75,-326.38 160.75,-332.38 154.75,-338.38 148.75,-338.38"/>
<text text-anchor="middle" x="80.38" y="-322.12" font-family="sans" font-size="10.00">deepsomatic_t_only_haplotagged</text>
<text text-anchor="middle" x="80.38" y="-310.88" font-family="sans" font-size="10.00">sample: 2022.MM.64</text>
</g>
<!-- 3&#45;&gt;2 -->
<g id="edge10" class="edge">
<title>3&#45;&gt;2</title>
<path fill="none" stroke="grey" stroke-width="2" d="M57.14,-301.6C46.18,-291.72 34.24,-278.42 28.38,-263.5 21.58,-246.23 18.33,-237.35 28.38,-221.75 40.8,-202.46 61.7,-189.75 82.77,-181.41"/>
<polygon fill="grey" stroke="grey" stroke-width="2" points="83.71,-184.79 91.94,-178.13 81.35,-178.21 83.71,-184.79"/>
</g>
<!-- 4 -->
<g id="node5" class="node">
<title>4</title>
<path fill="none" stroke="#56d8d8" stroke-width="2" d="M253.5,-260.62C253.5,-260.62 49.25,-260.62 49.25,-260.62 43.25,-260.62 37.25,-254.62 37.25,-248.62 37.25,-248.62 37.25,-236.62 37.25,-236.62 37.25,-230.62 43.25,-224.62 49.25,-224.62 49.25,-224.62 253.5,-224.62 253.5,-224.62 259.5,-224.62 265.5,-230.62 265.5,-236.62 265.5,-236.62 265.5,-248.62 265.5,-248.62 265.5,-254.62 259.5,-260.62 253.5,-260.62"/>
<text text-anchor="middle" x="151.38" y="-244.38" font-family="sans" font-size="10.00">index_vcf_haplotagged</text>
<text text-anchor="middle" x="151.38" y="-233.12" font-family="sans" font-size="10.00">file: snv_indels/deepsomatic_t_only/2022.MM.64</text>
</g>
<!-- 3&#45;&gt;4 -->
<g id="edge12" class="edge">
<title>3&#45;&gt;4</title>
<path fill="none" stroke="grey" stroke-width="2" d="M97.2,-301.42C105.78,-292.27 116.39,-280.95 125.94,-270.76"/>
<polygon fill="grey" stroke="grey" stroke-width="2" points="128.31,-273.35 132.6,-263.66 123.21,-268.56 128.31,-273.35"/>
</g>
<!-- 4&#45;&gt;2 -->
<g id="edge11" class="edge">
<title>4&#45;&gt;2</title>
<path fill="none" stroke="grey" stroke-width="2" d="M151.38,-223.67C151.38,-215.56 151.38,-205.74 151.38,-196.52"/>
<polygon fill="grey" stroke="grey" stroke-width="2" points="154.88,-196.72 151.38,-186.72 147.88,-196.72 154.88,-196.72"/>
</g>
<!-- 5 -->
<g id="node6" class="node">
<title>5</title>
<path fill="none" stroke="#d6d856" stroke-width="2" d="M352.12,-108C352.12,-108 268.62,-108 268.62,-108 262.62,-108 256.62,-102 256.62,-96 256.62,-96 256.62,-84 256.62,-84 256.62,-78 262.62,-72 268.62,-72 268.62,-72 352.12,-72 352.12,-72 358.12,-72 364.12,-78 364.12,-84 364.12,-84 364.12,-96 364.12,-96 364.12,-102 358.12,-108 352.12,-108"/>
<text text-anchor="middle" x="310.38" y="-91.75" font-family="sans" font-size="10.00">_copy_pbsv_vcf</text>
<text text-anchor="middle" x="310.38" y="-80.5" font-family="sans" font-size="10.00">sample: 2022.MM.64</text>
</g>
<!-- 5&#45;&gt;0 -->
<g id="edge2" class="edge">
<title>5&#45;&gt;0</title>
<path fill="none" stroke="grey" stroke-width="2" d="M364.98,-74.12C367.81,-73.39 370.63,-72.68 373.38,-72 440.76,-55.25 519.63,-37.75 566.16,-27.64"/>
<polygon fill="grey" stroke="grey" stroke-width="2" points="566.68,-31.11 575.71,-25.57 565.2,-24.26 566.68,-31.11"/>
</g>
<!-- 6 -->
<g id="node7" class="node">
<title>6</title>
<path fill="none" stroke="#d8bc56" stroke-width="2" d="M382.12,-182.88C382.12,-182.88 238.62,-182.88 238.62,-182.88 232.62,-182.88 226.62,-176.88 226.62,-170.88 226.62,-170.88 226.62,-158.88 226.62,-158.88 226.62,-152.88 232.62,-146.88 238.62,-146.88 238.62,-146.88 382.12,-146.88 382.12,-146.88 388.12,-146.88 394.12,-152.88 394.12,-158.88 394.12,-158.88 394.12,-170.88 394.12,-170.88 394.12,-176.88 388.12,-182.88 382.12,-182.88"/>
<text text-anchor="middle" x="310.38" y="-166.62" font-family="sans" font-size="10.00">bgzip</text>
<text text-anchor="middle" x="310.38" y="-155.38" font-family="sans" font-size="10.00">file: cnv_sv/pbsv_call/2022.MM.64</text>
</g>
<!-- 6&#45;&gt;5 -->
<g id="edge13" class="edge">
<title>6&#45;&gt;5</title>
<path fill="none" stroke="grey" stroke-width="2" d="M310.38,-146.23C310.38,-138.91 310.38,-130.2 310.38,-121.88"/>
<polygon fill="grey" stroke="grey" stroke-width="2" points="313.88,-122.01 310.38,-112.01 306.88,-122.01 313.88,-122.01"/>
</g>
<!-- 7 -->
<g id="node8" class="node">
<title>7</title>
<path fill="none" stroke="#56d8c1" stroke-width="2" d="M329,-260.62C329,-260.62 295.75,-260.62 295.75,-260.62 289.75,-260.62 283.75,-254.62 283.75,-248.62 283.75,-248.62 283.75,-236.62 283.75,-236.62 283.75,-230.62 289.75,-224.62 295.75,-224.62 295.75,-224.62 329,-224.62 329,-224.62 335,-224.62 341,-230.62 341,-236.62 341,-236.62 341,-248.62 341,-248.62 341,-254.62 335,-260.62 329,-260.62"/>
<text text-anchor="middle" x="312.38" y="-238.75" font-family="sans" font-size="10.00">pbsv_call</text>
</g>
<!-- 7&#45;&gt;6 -->
<g id="edge14" class="edge">
<title>7&#45;&gt;6</title>
<path fill="none" stroke="grey" stroke-width="2" d="M311.9,-223.67C311.69,-215.56 311.43,-205.74 311.18,-196.52"/>
<polygon fill="grey" stroke="grey" stroke-width="2" points="314.69,-196.63 310.93,-186.72 307.69,-196.81 314.69,-196.63"/>
</g>
<!-- 8 -->
<g id="node9" class="node">
<title>8</title>
<path fill="none" stroke="#56d88a" stroke-width="2" d="M354.12,-341.25C354.12,-341.25 270.62,-341.25 270.62,-341.25 264.62,-341.25 258.62,-335.25 258.62,-329.25 258.62,-329.25 258.62,-311.5 258.62,-311.5 258.62,-305.5 264.62,-299.5 270.62,-299.5 270.62,-299.5 354.12,-299.5 354.12,-299.5 360.12,-299.5 366.12,-305.5 366.12,-311.5 366.12,-311.5 366.12,-329.25 366.12,-329.25 366.12,-335.25 360.12,-341.25 354.12,-341.25"/>
<text text-anchor="middle" x="312.38" y="-327.75" font-family="sans" font-size="10.00">pbsv_discover</text>
<text text-anchor="middle" x="312.38" y="-316.5" font-family="sans" font-size="10.00">sample: 2022.MM.64</text>
<text text-anchor="middle" x="312.38" y="-305.25" font-family="sans" font-size="10.00">type: T</text>
</g>
<!-- 8&#45;&gt;7 -->
<g id="edge15" class="edge">
<title>8&#45;&gt;7</title>
<path fill="none" stroke="grey" stroke-width="2" d="M312.38,-298.68C312.38,-291.21 312.38,-282.62 312.38,-274.47"/>
<polygon fill="grey" stroke="grey" stroke-width="2" points="315.88,-274.5 312.38,-264.5 308.88,-274.5 315.88,-274.5"/>
</g>
<!-- 9 -->
<g id="node10" class="node">
<title>9</title>
<path fill="none" stroke="#d85656" stroke-width="2" d="M464.75,-108C464.75,-108 394,-108 394,-108 388,-108 382,-102 382,-96 382,-96 382,-84 382,-84 382,-78 388,-72 394,-72 394,-72 464.75,-72 464.75,-72 470.75,-72 476.75,-78 476.75,-84 476.75,-84 476.75,-96 476.75,-96 476.75,-102 470.75,-108 464.75,-108"/>
<text text-anchor="middle" x="429.38" y="-86.12" font-family="sans" font-size="10.00">_copy_hificnv_vcf</text>
</g>
<!-- 9&#45;&gt;0 -->
<g id="edge3" class="edge">
<title>9&#45;&gt;0</title>
<path fill="none" stroke="grey" stroke-width="2" d="M474.5,-71.15C502.92,-59.91 539.27,-45.54 566.61,-34.73"/>
<polygon fill="grey" stroke="grey" stroke-width="2" points="567.65,-38.08 575.66,-31.15 565.07,-31.57 567.65,-38.08"/>
</g>
<!-- 10 -->
<g id="node11" class="node">
<title>10</title>
<path fill="none" stroke="#d86e56" stroke-width="2" d="M508.12,-185.75C508.12,-185.75 424.62,-185.75 424.62,-185.75 418.62,-185.75 412.62,-179.75 412.62,-173.75 412.62,-173.75 412.62,-156 412.62,-156 412.62,-150 418.62,-144 424.62,-144 424.62,-144 508.12,-144 508.12,-144 514.12,-144 520.12,-150 520.12,-156 520.12,-156 520.12,-173.75 520.12,-173.75 520.12,-179.75 514.12,-185.75 508.12,-185.75"/>
<text text-anchor="middle" x="466.38" y="-172.25" font-family="sans" font-size="10.00">hificnv</text>
<text text-anchor="middle" x="466.38" y="-161" font-family="sans" font-size="10.00">sample: 2022.MM.64</text>
<text text-anchor="middle" x="466.38" y="-149.75" font-family="sans" font-size="10.00">type: T</text>
</g>
<!-- 10&#45;&gt;9 -->
<g id="edge16" class="edge">
<title>10&#45;&gt;9</title>
<path fill="none" stroke="grey" stroke-width="2" d="M455.87,-143.19C452.23,-136.01 448.07,-127.82 444.14,-120.09"/>
<polygon fill="grey" stroke="grey" stroke-width="2" points="447.29,-118.56 439.65,-111.23 441.05,-121.73 447.29,-118.56"/>
</g>
<!-- 11 -->
<g id="node12" class="node">
<title>11</title>
<path fill="none" stroke="#59d856" stroke-width="2" d="M585.88,-108C585.88,-108 506.88,-108 506.88,-108 500.88,-108 494.88,-102 494.88,-96 494.88,-96 494.88,-84 494.88,-84 494.88,-78 500.88,-72 506.88,-72 506.88,-72 585.88,-72 585.88,-72 591.88,-72 597.88,-78 597.88,-84 597.88,-84 597.88,-96 597.88,-96 597.88,-102 591.88,-108 585.88,-108"/>
<text text-anchor="middle" x="546.38" y="-86.12" font-family="sans" font-size="10.00">_copy_sniffles2_vcf</text>
</g>
<!-- 11&#45;&gt;0 -->
<g id="edge4" class="edge">
<title>11&#45;&gt;0</title>
<path fill="none" stroke="grey" stroke-width="2" d="M561.52,-71.34C567.93,-63.85 575.56,-54.95 582.69,-46.63"/>
<polygon fill="grey" stroke="grey" stroke-width="2" points="585.21,-49.07 589.06,-39.2 579.9,-44.51 585.21,-49.07"/>
</g>
<!-- 12 -->
<g id="node13" class="node">
<title>12</title>
<path fill="none" stroke="#d8a456" stroke-width="2" d="M672.12,-185.75C672.12,-185.75 588.62,-185.75 588.62,-185.75 582.62,-185.75 576.62,-179.75 576.62,-173.75 576.62,-173.75 576.62,-156 576.62,-156 576.62,-150 582.62,-144 588.62,-144 588.62,-144 672.12,-144 672.12,-144 678.12,-144 684.12,-150 684.12,-156 684.12,-156 684.12,-173.75 684.12,-173.75 684.12,-179.75 678.12,-185.75 672.12,-185.75"/>
<text text-anchor="middle" x="630.38" y="-172.25" font-family="sans" font-size="10.00">sniffles2</text>
<text text-anchor="middle" x="630.38" y="-161" font-family="sans" font-size="10.00">sample: 2022.MM.64</text>
<text text-anchor="middle" x="630.38" y="-149.75" font-family="sans" font-size="10.00">type: T</text>
</g>
<!-- 12&#45;&gt;11 -->
<g id="edge17" class="edge">
<title>12&#45;&gt;11</title>
<path fill="none" stroke="grey" stroke-width="2" d="M606.53,-143.19C597.24,-135.13 586.49,-125.8 576.66,-117.28"/>
<polygon fill="grey" stroke="grey" stroke-width="2" points="578.99,-114.67 569.15,-110.76 574.41,-119.95 578.99,-114.67"/>
</g>
<!-- 13 -->
<g id="node14" class="node">
<title>13</title>
<path fill="none" stroke="#70d856" stroke-width="2" d="M706.88,-108C706.88,-108 627.88,-108 627.88,-108 621.88,-108 615.88,-102 615.88,-96 615.88,-96 615.88,-84 615.88,-84 615.88,-78 621.88,-72 627.88,-72 627.88,-72 706.88,-72 706.88,-72 712.88,-72 718.88,-78 718.88,-84 718.88,-84 718.88,-96 718.88,-96 718.88,-102 712.88,-108 706.88,-108"/>
<text text-anchor="middle" x="667.38" y="-86.12" font-family="sans" font-size="10.00">_copy_sniffles2_snf</text>
</g>
<!-- 12&#45;&gt;13 -->
<g id="edge18" class="edge">
<title>12&#45;&gt;13</title>
<path fill="none" stroke="grey" stroke-width="2" d="M640.88,-143.19C644.52,-136.01 648.68,-127.82 652.61,-120.09"/>
<polygon fill="grey" stroke="grey" stroke-width="2" points="655.7,-121.73 657.1,-111.23 649.46,-118.56 655.7,-121.73"/>
</g>
<!-- 13&#45;&gt;0 -->
<g id="edge5" class="edge">
<title>13&#45;&gt;0</title>
<path fill="none" stroke="grey" stroke-width="2" d="M651.98,-71.34C645.46,-63.85 637.7,-54.95 630.45,-46.63"/>
<polygon fill="grey" stroke="grey" stroke-width="2" points="633.17,-44.42 623.96,-39.18 627.89,-49.02 633.17,-44.42"/>
</g>
<!-- 14 -->
<g id="node15" class="node">
<title>14</title>
<path fill="none" stroke="#bed856" stroke-width="2" d="M906.25,-108C906.25,-108 748.5,-108 748.5,-108 742.5,-108 736.5,-102 736.5,-96 736.5,-96 736.5,-84 736.5,-84 736.5,-78 742.5,-72 748.5,-72 748.5,-72 906.25,-72 906.25,-72 912.25,-72 918.25,-78 918.25,-84 918.25,-84 918.25,-96 918.25,-96 918.25,-102 912.25,-108 906.25,-108"/>
<text text-anchor="middle" x="827.38" y="-86.12" font-family="sans" font-size="10.00">_copy_cnvkit_batch_segments_called</text>
</g>
<!-- 14&#45;&gt;0 -->
<g id="edge6" class="edge">
<title>14&#45;&gt;0</title>
<path fill="none" stroke="grey" stroke-width="2" d="M770.75,-71.06C731.79,-58.73 681.01,-42.64 646.27,-31.63"/>
<polygon fill="grey" stroke="grey" stroke-width="2" points="647.72,-28.42 637.13,-28.74 645.6,-35.1 647.72,-28.42"/>
</g>
<!-- 15 -->
<g id="node16" class="node">
<title>15</title>
<path fill="none" stroke="#5673d8" stroke-width="2" d="M986.12,-263.5C986.12,-263.5 902.62,-263.5 902.62,-263.5 896.62,-263.5 890.62,-257.5 890.62,-251.5 890.62,-251.5 890.62,-233.75 890.62,-233.75 890.62,-227.75 896.62,-221.75 902.62,-221.75 902.62,-221.75 986.12,-221.75 986.12,-221.75 992.12,-221.75 998.12,-227.75 998.12,-233.75 998.12,-233.75 998.12,-251.5 998.12,-251.5 998.12,-257.5 992.12,-263.5 986.12,-263.5"/>
<text text-anchor="middle" x="944.38" y="-250" font-family="sans" font-size="10.00">cnvkit_batch</text>
<text text-anchor="middle" x="944.38" y="-238.75" font-family="sans" font-size="10.00">sample: 2022.MM.64</text>
<text text-anchor="middle" x="944.38" y="-227.5" font-family="sans" font-size="10.00">type: T</text>
</g>
<!-- 15&#45;&gt;14 -->
<g id="edge19" class="edge">
<title>15&#45;&gt;14</title>
<path fill="none" stroke="grey" stroke-width="2" d="M889.77,-221.02C873.57,-212.42 857.27,-200.84 846.38,-185.75 832.97,-167.18 828.46,-141.48 827.17,-121.52"/>
<polygon fill="grey" stroke="grey" stroke-width="2" points="830.68,-121.69 826.83,-111.81 823.68,-121.93 830.68,-121.69"/>
</g>
<!-- 16 -->
<g id="node17" class="node">
<title>16</title>
<path fill="none" stroke="#d88d56" stroke-width="2" d="M1021.38,-182.88C1021.38,-182.88 867.38,-182.88 867.38,-182.88 861.38,-182.88 855.38,-176.88 855.38,-170.88 855.38,-170.88 855.38,-158.88 855.38,-158.88 855.38,-152.88 861.38,-146.88 867.38,-146.88 867.38,-146.88 1021.38,-146.88 1021.38,-146.88 1027.38,-146.88 1033.38,-152.88 1033.38,-158.88 1033.38,-158.88 1033.38,-170.88 1033.38,-170.88 1033.38,-176.88 1027.38,-182.88 1021.38,-182.88"/>
<text text-anchor="middle" x="944.38" y="-161" font-family="sans" font-size="10.00">_copy_cnvkit_batch_target_coverage</text>
</g>
<!-- 15&#45;&gt;16 -->
<g id="edge20" class="edge">
<title>15&#45;&gt;16</title>
<path fill="none" stroke="grey" stroke-width="2" d="M944.38,-220.93C944.38,-213.46 944.38,-204.87 944.38,-196.72"/>
<polygon fill="grey" stroke="grey" stroke-width="2" points="947.88,-196.75 944.38,-186.75 940.88,-196.75 947.88,-196.75"/>
</g>
<!-- 18 -->
<g id="node19" class="node">
<title>18</title>
<path fill="none" stroke="#a7d856" stroke-width="2" d="M1121.38,-182.88C1121.38,-182.88 1063.38,-182.88 1063.38,-182.88 1057.38,-182.88 1051.38,-176.88 1051.38,-170.88 1051.38,-170.88 1051.38,-158.88 1051.38,-158.88 1051.38,-152.88 1057.38,-146.88 1063.38,-146.88 1063.38,-146.88 1121.38,-146.88 1121.38,-146.88 1127.38,-146.88 1133.38,-152.88 1133.38,-158.88 1133.38,-158.88 1133.38,-170.88 1133.38,-170.88 1133.38,-176.88 1127.38,-182.88 1121.38,-182.88"/>
<text text-anchor="middle" x="1092.38" y="-161" font-family="sans" font-size="10.00">cnvkit_diagram</text>
</g>
<!-- 15&#45;&gt;18 -->
<g id="edge22" class="edge">
<title>15&#45;&gt;18</title>
<path fill="none" stroke="grey" stroke-width="2" d="M984.82,-220.93C1003.76,-211.23 1026.42,-199.63 1046.05,-189.58"/>
<polygon fill="grey" stroke="grey" stroke-width="2" points="1047.51,-192.77 1054.82,-185.1 1044.32,-186.54 1047.51,-192.77"/>
</g>
<!-- 16&#45;&gt;0 -->
<g id="edge7" class="edge">
<title>16&#45;&gt;0</title>
<path fill="none" stroke="grey" stroke-width="2" d="M946.6,-145.91C948.09,-125.09 946.95,-91.2 927.38,-72 888.34,-33.71 724.72,-23.02 647.31,-20.09"/>
<polygon fill="grey" stroke="grey" stroke-width="2" points="647.48,-16.59 637.37,-19.74 647.24,-23.59 647.48,-16.59"/>
</g>
<!-- 17 -->
<g id="node18" class="node">
<title>17</title>
<path fill="none" stroke="#88d856" stroke-width="2" d="M1107.12,-108C1107.12,-108 1017.62,-108 1017.62,-108 1011.62,-108 1005.62,-102 1005.62,-96 1005.62,-96 1005.62,-84 1005.62,-84 1005.62,-78 1011.62,-72 1017.62,-72 1017.62,-72 1107.12,-72 1107.12,-72 1113.12,-72 1119.12,-78 1119.12,-84 1119.12,-84 1119.12,-96 1119.12,-96 1119.12,-102 1113.12,-108 1107.12,-108"/>
<text text-anchor="middle" x="1062.38" y="-86.12" font-family="sans" font-size="10.00">_copy_cnvkit_diagram</text>
</g>
<!-- 17&#45;&gt;0 -->
<g id="edge8" class="edge">
<title>17&#45;&gt;0</title>
<path fill="none" stroke="grey" stroke-width="2" d="M1004.68,-79.21C990.22,-76.81 974.74,-74.27 960.38,-72 846.68,-54.01 712.17,-34.31 646.5,-24.79"/>
<polygon fill="grey" stroke="grey" stroke-width="2" points="647.33,-21.37 636.94,-23.4 646.33,-28.3 647.33,-21.37"/>
</g>
<!-- 18&#45;&gt;17 -->
<g id="edge21" class="edge">
<title>18&#45;&gt;17</title>
<path fill="none" stroke="grey" stroke-width="2" d="M1085.11,-146.23C1081.99,-138.65 1078.25,-129.57 1074.72,-120.98"/>
<polygon fill="grey" stroke="grey" stroke-width="2" points="1077.97,-119.7 1070.93,-111.78 1071.5,-122.36 1077.97,-119.7"/>
</g>
</g>
</svg>
