<?xml version="1.0" encoding="UTF-8" standalone="no"?>
<!DOCTYPE svg PUBLIC "-//W3C//DTD SVG 1.1//EN"
 "http://www.w3.org/Graphics/SVG/1.1/DTD/svg11.dtd">
<!-- Generated by graphviz version 2.40.1 (0)
 -->
<!-- Title: snakemake_dag Pages: 1 -->
<svg width="1173pt" height="1700pt"
 viewBox="0.00 0.00 1172.50 1700.00" xmlns="http://www.w3.org/2000/svg" xmlns:xlink="http://www.w3.org/1999/xlink">
<g id="graph0" class="graph" transform="scale(1 1) rotate(0) translate(4 1696)">
<title>snakemake_dag</title>
<polygon fill="#ffffff" stroke="transparent" points="-4,4 -4,-1696 1168.5,-1696 1168.5,4 -4,4"/>
<!-- 0 -->
<g id="node1" class="node">
<title>0</title>
<path fill="none" stroke="#80d856" stroke-width="2" d="M750,-36C750,-36 720,-36 720,-36 714,-36 708,-30 708,-24 708,-24 708,-12 708,-12 708,-6 714,0 720,0 720,0 750,0 750,0 756,0 762,-6 762,-12 762,-12 762,-24 762,-24 762,-30 756,-36 750,-36"/>
<text text-anchor="middle" x="735" y="-15.5" font-family="sans" font-size="10.00" fill="#000000">all</text>
</g>
<!-- 1 -->
<g id="node2" class="node">
<title>1</title>
<path fill="none" stroke="#d87556" stroke-width="2" d="M122,-972C122,-972 12,-972 12,-972 6,-972 0,-966 0,-960 0,-960 0,-948 0,-948 0,-942 6,-936 12,-936 12,-936 122,-936 122,-936 128,-936 134,-942 134,-948 134,-948 134,-960 134,-960 134,-966 128,-972 122,-972"/>
<text text-anchor="middle" x="67" y="-951.5" font-family="sans" font-size="10.00" fill="#000000">_copy_deepsomatic_vcf</text>
</g>
<!-- 1&#45;&gt;0 -->
<g id="edge5" class="edge">
<title>1&#45;&gt;0</title>
<path fill="none" stroke="#c0c0c0" stroke-width="2" d="M65.1352,-935.8374C62.499,-908.55 58,-855.3383 58,-810 58,-810 58,-810 58,-162 58,-64.5257 163.9999,-97.7918 258,-72 340.9865,-49.2301 600.4817,-28.0569 697.7145,-20.7213"/>
<polygon fill="#c0c0c0" stroke="#c0c0c0" stroke-width="2" points="698.2367,-24.1921 707.9475,-19.9553 697.7141,-17.2116 698.2367,-24.1921"/>
</g>
<!-- 2 -->
<g id="node3" class="node">
<title>2</title>
<path fill="none" stroke="#567bd8" stroke-width="2" d="M177.5,-1188C177.5,-1188 40.5,-1188 40.5,-1188 34.5,-1188 28.5,-1182 28.5,-1176 28.5,-1176 28.5,-1164 28.5,-1164 28.5,-1158 34.5,-1152 40.5,-1152 40.5,-1152 177.5,-1152 177.5,-1152 183.5,-1152 189.5,-1158 189.5,-1164 189.5,-1164 189.5,-1176 189.5,-1176 189.5,-1182 183.5,-1188 177.5,-1188"/>
<text text-anchor="middle" x="109" y="-1167.5" font-family="sans" font-size="10.00" fill="#000000">annotation_vep_deepsomatic</text>
</g>
<!-- 2&#45;&gt;1 -->
<g id="edge12" class="edge">
<title>2&#45;&gt;1</title>
<path fill="none" stroke="#c0c0c0" stroke-width="2" d="M105.4913,-1151.9555C98.1722,-1114.3144 81.2307,-1027.1867 72.4687,-982.1246"/>
<polygon fill="#c0c0c0" stroke="#c0c0c0" stroke-width="2" points="75.8726,-981.2932 70.5282,-972.1451 69.0013,-982.6293 75.8726,-981.2932"/>
</g>
<!-- 3 -->
<g id="node4" class="node">
<title>3</title>
<path fill="none" stroke="#d8d356" stroke-width="2" d="M171.5,-1260C171.5,-1260 46.5,-1260 46.5,-1260 40.5,-1260 34.5,-1254 34.5,-1248 34.5,-1248 34.5,-1236 34.5,-1236 34.5,-1230 40.5,-1224 46.5,-1224 46.5,-1224 171.5,-1224 171.5,-1224 177.5,-1224 183.5,-1230 183.5,-1236 183.5,-1236 183.5,-1248 183.5,-1248 183.5,-1254 177.5,-1260 171.5,-1260"/>
<text text-anchor="middle" x="109" y="-1239.5" font-family="sans" font-size="10.00" fill="#000000">cnv_sv_tabix_deepsomatic</text>
</g>
<!-- 3&#45;&gt;2 -->
<g id="edge13" class="edge">
<title>3&#45;&gt;2</title>
<path fill="none" stroke="#c0c0c0" stroke-width="2" d="M109,-1223.8314C109,-1216.131 109,-1206.9743 109,-1198.4166"/>
<polygon fill="#c0c0c0" stroke="#c0c0c0" stroke-width="2" points="112.5001,-1198.4132 109,-1188.4133 105.5001,-1198.4133 112.5001,-1198.4132"/>
</g>
<!-- 4 -->
<g id="node5" class="node">
<title>4</title>
<path fill="none" stroke="#d87d56" stroke-width="2" d="M312,-1332C312,-1332 112,-1332 112,-1332 106,-1332 100,-1326 100,-1320 100,-1320 100,-1308 100,-1308 100,-1302 106,-1296 112,-1296 112,-1296 312,-1296 312,-1296 318,-1296 324,-1302 324,-1308 324,-1308 324,-1320 324,-1320 324,-1326 318,-1332 312,-1332"/>
<text text-anchor="middle" x="212" y="-1311.5" font-family="sans" font-size="10.00" fill="#000000">snv_indels_whatshap_phase_deepsomatic</text>
</g>
<!-- 4&#45;&gt;2 -->
<g id="edge14" class="edge">
<title>4&#45;&gt;2</title>
<path fill="none" stroke="#c0c0c0" stroke-width="2" d="M211.9033,-1295.8415C210.9597,-1276.4401 206.9588,-1245.5708 192,-1224 183.4832,-1211.7187 171.1788,-1201.5511 158.6416,-1193.478"/>
<polygon fill="#c0c0c0" stroke="#c0c0c0" stroke-width="2" points="160.3348,-1190.4117 149.9684,-1188.2234 156.7076,-1196.3986 160.3348,-1190.4117"/>
</g>
<!-- 4&#45;&gt;3 -->
<g id="edge15" class="edge">
<title>4&#45;&gt;3</title>
<path fill="none" stroke="#c0c0c0" stroke-width="2" d="M186.0088,-1295.8314C173.0784,-1286.7927 157.2778,-1275.7476 143.3617,-1266.0198"/>
<polygon fill="#c0c0c0" stroke="#c0c0c0" stroke-width="2" points="145.1843,-1263.0235 134.9829,-1260.1628 141.1737,-1268.7608 145.1843,-1263.0235"/>
</g>
<!-- 5 -->
<g id="node6" class="node">
<title>5</title>
<path fill="none" stroke="#d8bc56" stroke-width="2" d="M318,-1404C318,-1404 170,-1404 170,-1404 164,-1404 158,-1398 158,-1392 158,-1392 158,-1380 158,-1380 158,-1374 164,-1368 170,-1368 170,-1368 318,-1368 318,-1368 324,-1368 330,-1374 330,-1380 330,-1380 330,-1392 330,-1392 330,-1398 324,-1404 318,-1404"/>
<text text-anchor="middle" x="244" y="-1383.5" font-family="sans" font-size="10.00" fill="#000000">snv_indels_deepsomatic_t_only</text>
</g>
<!-- 5&#45;&gt;4 -->
<g id="edge16" class="edge">
<title>5&#45;&gt;4</title>
<path fill="none" stroke="#c0c0c0" stroke-width="2" d="M235.925,-1367.8314C232.3898,-1359.8771 228.164,-1350.369 224.2544,-1341.5723"/>
<polygon fill="#c0c0c0" stroke="#c0c0c0" stroke-width="2" points="227.4435,-1340.1299 220.1837,-1332.4133 221.0468,-1342.9729 227.4435,-1340.1299"/>
</g>
<!-- 6 -->
<g id="node7" class="node">
<title>6</title>
<path fill="none" stroke="#88d856" stroke-width="2" d="M610,-1548C610,-1548 488,-1548 488,-1548 482,-1548 476,-1542 476,-1536 476,-1536 476,-1524 476,-1524 476,-1518 482,-1512 488,-1512 488,-1512 610,-1512 610,-1512 616,-1512 622,-1518 622,-1524 622,-1524 622,-1536 622,-1536 622,-1542 616,-1548 610,-1548"/>
<text text-anchor="middle" x="549" y="-1527.5" font-family="sans" font-size="10.00" fill="#000000">alignment_pbmm2_merge</text>
</g>
<!-- 6&#45;&gt;4 -->
<g id="edge18" class="edge">
<title>6&#45;&gt;4</title>
<path fill="none" stroke="#c0c0c0" stroke-width="2" d="M475.9144,-1518.4781C370.2815,-1500.0484 183.7369,-1460.2055 149,-1404 140.5883,-1390.3896 142.3143,-1382.5362 149,-1368 154.267,-1356.5483 163.2935,-1346.6164 172.8942,-1338.5032"/>
<polygon fill="#c0c0c0" stroke="#c0c0c0" stroke-width="2" points="175.3185,-1341.0498 181.0239,-1332.1224 170.9966,-1335.5433 175.3185,-1341.0498"/>
</g>
<!-- 6&#45;&gt;5 -->
<g id="edge20" class="edge">
<title>6&#45;&gt;5</title>
<path fill="none" stroke="#c0c0c0" stroke-width="2" d="M475.6639,-1519.4152C435.1015,-1511.4623 384.803,-1498.0366 344,-1476 313.7013,-1459.6365 285.1347,-1432.2712 266.354,-1412.003"/>
<polygon fill="#c0c0c0" stroke="#c0c0c0" stroke-width="2" points="268.7221,-1409.4043 259.4111,-1404.3491 263.5374,-1414.1074 268.7221,-1409.4043"/>
</g>
<!-- 10 -->
<g id="node11" class="node">
<title>10</title>
<path fill="none" stroke="#d8cb56" stroke-width="2" d="M632.5,-1476C632.5,-1476 465.5,-1476 465.5,-1476 459.5,-1476 453.5,-1470 453.5,-1464 453.5,-1464 453.5,-1452 453.5,-1452 453.5,-1446 459.5,-1440 465.5,-1440 465.5,-1440 632.5,-1440 632.5,-1440 638.5,-1440 644.5,-1446 644.5,-1452 644.5,-1452 644.5,-1464 644.5,-1464 644.5,-1470 638.5,-1476 632.5,-1476"/>
<text text-anchor="middle" x="549" y="-1455.5" font-family="sans" font-size="10.00" fill="#000000">alignment_samtools_index_pbmm2</text>
</g>
<!-- 6&#45;&gt;10 -->
<g id="edge24" class="edge">
<title>6&#45;&gt;10</title>
<path fill="none" stroke="#c0c0c0" stroke-width="2" d="M549,-1511.8314C549,-1504.131 549,-1494.9743 549,-1486.4166"/>
<polygon fill="#c0c0c0" stroke="#c0c0c0" stroke-width="2" points="552.5001,-1486.4132 549,-1476.4133 545.5001,-1486.4133 552.5001,-1486.4132"/>
</g>
<!-- 16 -->
<g id="node17" class="node">
<title>16</title>
<path fill="none" stroke="#5663d8" stroke-width="2" d="M562.5,-1260C562.5,-1260 399.5,-1260 399.5,-1260 393.5,-1260 387.5,-1254 387.5,-1248 387.5,-1248 387.5,-1236 387.5,-1236 387.5,-1230 393.5,-1224 399.5,-1224 399.5,-1224 562.5,-1224 562.5,-1224 568.5,-1224 574.5,-1230 574.5,-1236 574.5,-1236 574.5,-1248 574.5,-1248 574.5,-1254 568.5,-1260 562.5,-1260"/>
<text text-anchor="middle" x="481" y="-1239.5" font-family="sans" font-size="10.00" fill="#000000">snv_indels_whatshap_phase_clairs</text>
</g>
<!-- 6&#45;&gt;16 -->
<g id="edge34" class="edge">
<title>6&#45;&gt;16</title>
<path fill="none" stroke="#c0c0c0" stroke-width="2" d="M496.9139,-1511.9569C475.7787,-1503.1169 451.938,-1491.0877 433,-1476 401.2927,-1450.7392 390.1566,-1442.3453 377,-1404 361.3264,-1358.3187 361.6274,-1335.7893 389,-1296 397.7829,-1283.233 410.6526,-1273.043 423.9993,-1265.1093"/>
<polygon fill="#c0c0c0" stroke="#c0c0c0" stroke-width="2" points="425.7607,-1268.1347 432.8008,-1260.2171 422.3598,-1262.0163 425.7607,-1268.1347"/>
</g>
<!-- 18 -->
<g id="node19" class="node">
<title>18</title>
<path fill="none" stroke="#56a9d8" stroke-width="2" d="M511.5,-1404C511.5,-1404 398.5,-1404 398.5,-1404 392.5,-1404 386.5,-1398 386.5,-1392 386.5,-1392 386.5,-1380 386.5,-1380 386.5,-1374 392.5,-1368 398.5,-1368 398.5,-1368 511.5,-1368 511.5,-1368 517.5,-1368 523.5,-1374 523.5,-1380 523.5,-1380 523.5,-1392 523.5,-1392 523.5,-1398 517.5,-1404 511.5,-1404"/>
<text text-anchor="middle" x="455" y="-1383.5" font-family="sans" font-size="10.00" fill="#000000">snv_indels_clairs_to_call</text>
</g>
<!-- 6&#45;&gt;18 -->
<g id="edge37" class="edge">
<title>6&#45;&gt;18</title>
<path fill="none" stroke="#c0c0c0" stroke-width="2" d="M487.5808,-1511.9938C470.5025,-1503.8495 453.9301,-1492.2732 444,-1476 432.671,-1457.4342 436.7752,-1432.6924 442.9535,-1413.8493"/>
<polygon fill="#c0c0c0" stroke="#c0c0c0" stroke-width="2" points="446.2863,-1414.9255 446.4081,-1404.3313 439.7063,-1412.5372 446.2863,-1414.9255"/>
</g>
<!-- 23 -->
<g id="node24" class="node">
<title>23</title>
<path fill="none" stroke="#569ad8" stroke-width="2" d="M812.5,-1404C812.5,-1404 711.5,-1404 711.5,-1404 705.5,-1404 699.5,-1398 699.5,-1392 699.5,-1392 699.5,-1380 699.5,-1380 699.5,-1374 705.5,-1368 711.5,-1368 711.5,-1368 812.5,-1368 812.5,-1368 818.5,-1368 824.5,-1374 824.5,-1380 824.5,-1380 824.5,-1392 824.5,-1392 824.5,-1398 818.5,-1404 812.5,-1404"/>
<text text-anchor="middle" x="762" y="-1383.5" font-family="sans" font-size="10.00" fill="#000000">cnv_sv_pbsv_discover</text>
</g>
<!-- 6&#45;&gt;23 -->
<g id="edge43" class="edge">
<title>6&#45;&gt;23</title>
<path fill="none" stroke="#c0c0c0" stroke-width="2" d="M614.5719,-1511.9178C638.7069,-1503.3762 665.3985,-1491.5695 687,-1476 710.7523,-1458.8803 731.507,-1432.556 745.1248,-1412.7921"/>
<polygon fill="#c0c0c0" stroke="#c0c0c0" stroke-width="2" points="748.2036,-1414.4849 750.8645,-1404.2297 742.3891,-1410.5872 748.2036,-1414.4849"/>
</g>
<!-- 25 -->
<g id="node26" class="node">
<title>25</title>
<path fill="none" stroke="#78d856" stroke-width="2" d="M1061,-1476C1061,-1476 997,-1476 997,-1476 991,-1476 985,-1470 985,-1464 985,-1464 985,-1452 985,-1452 985,-1446 991,-1440 997,-1440 997,-1440 1061,-1440 1061,-1440 1067,-1440 1073,-1446 1073,-1452 1073,-1452 1073,-1464 1073,-1464 1073,-1470 1067,-1476 1061,-1476"/>
<text text-anchor="middle" x="1029" y="-1455.5" font-family="sans" font-size="10.00" fill="#000000">cnv_sv_hificnv</text>
</g>
<!-- 6&#45;&gt;25 -->
<g id="edge45" class="edge">
<title>6&#45;&gt;25</title>
<path fill="none" stroke="#c0c0c0" stroke-width="2" d="M622.1627,-1519.0256C719.2563,-1504.4616 888.4528,-1479.0821 974.8572,-1466.1214"/>
<polygon fill="#c0c0c0" stroke="#c0c0c0" stroke-width="2" points="975.6034,-1469.5487 984.9735,-1464.604 974.5649,-1462.6262 975.6034,-1469.5487"/>
</g>
<!-- 29 -->
<g id="node30" class="node">
<title>29</title>
<path fill="none" stroke="#56d892" stroke-width="2" d="M927.5,-1404C927.5,-1404 854.5,-1404 854.5,-1404 848.5,-1404 842.5,-1398 842.5,-1392 842.5,-1392 842.5,-1380 842.5,-1380 842.5,-1374 848.5,-1368 854.5,-1368 854.5,-1368 927.5,-1368 927.5,-1368 933.5,-1368 939.5,-1374 939.5,-1380 939.5,-1380 939.5,-1392 939.5,-1392 939.5,-1398 933.5,-1404 927.5,-1404"/>
<text text-anchor="middle" x="891" y="-1383.5" font-family="sans" font-size="10.00" fill="#000000">cnv_sv_sniffles2</text>
</g>
<!-- 6&#45;&gt;29 -->
<g id="edge51" class="edge">
<title>6&#45;&gt;29</title>
<path fill="none" stroke="#c0c0c0" stroke-width="2" d="M615.7613,-1511.9304C647.7751,-1502.5072 686.3822,-1490.0227 720,-1476 766.7554,-1456.4973 817.8501,-1428.6878 851.8967,-1409.157"/>
<polygon fill="#c0c0c0" stroke="#c0c0c0" stroke-width="2" points="853.6906,-1412.1628 860.6004,-1404.1313 850.1902,-1406.1008 853.6906,-1412.1628"/>
</g>
<!-- 37 -->
<g id="node38" class="node">
<title>37</title>
<path fill="none" stroke="#56c1d8" stroke-width="2" d="M698.5,-1116C698.5,-1116 553.5,-1116 553.5,-1116 547.5,-1116 541.5,-1110 541.5,-1104 541.5,-1104 541.5,-1092 541.5,-1092 541.5,-1086 547.5,-1080 553.5,-1080 553.5,-1080 698.5,-1080 698.5,-1080 704.5,-1080 710.5,-1086 710.5,-1092 710.5,-1092 710.5,-1104 710.5,-1104 710.5,-1110 704.5,-1116 698.5,-1116"/>
<text text-anchor="middle" x="626" y="-1095.5" font-family="sans" font-size="10.00" fill="#000000">snv_indels_whatshap_haplotag</text>
</g>
<!-- 6&#45;&gt;37 -->
<g id="edge65" class="edge">
<title>6&#45;&gt;37</title>
<path fill="none" stroke="#c0c0c0" stroke-width="2" d="M607.1466,-1511.9593C624.5647,-1503.7254 641.9517,-1492.1053 653,-1476 693.9803,-1416.2621 671,-1386.4431 671,-1314 671,-1314 671,-1314 671,-1242 671,-1199.8263 653.198,-1153.738 639.9878,-1125.3433"/>
<polygon fill="#c0c0c0" stroke="#c0c0c0" stroke-width="2" points="643.0226,-1123.5772 635.5433,-1116.0731 636.7105,-1126.6034 643.0226,-1123.5772"/>
</g>
<!-- 7 -->
<g id="node8" class="node">
<title>7</title>
<path fill="none" stroke="#d85656" stroke-width="2" d="M606,-1620C606,-1620 492,-1620 492,-1620 486,-1620 480,-1614 480,-1608 480,-1608 480,-1596 480,-1596 480,-1590 486,-1584 492,-1584 492,-1584 606,-1584 606,-1584 612,-1584 618,-1590 618,-1596 618,-1596 618,-1608 618,-1608 618,-1614 612,-1620 606,-1620"/>
<text text-anchor="middle" x="549" y="-1599.5" font-family="sans" font-size="10.00" fill="#000000">alignment_pbmm2_align</text>
</g>
<!-- 7&#45;&gt;6 -->
<g id="edge21" class="edge">
<title>7&#45;&gt;6</title>
<path fill="none" stroke="#c0c0c0" stroke-width="2" d="M549,-1583.8314C549,-1576.131 549,-1566.9743 549,-1558.4166"/>
<polygon fill="#c0c0c0" stroke="#c0c0c0" stroke-width="2" points="552.5001,-1558.4132 549,-1548.4133 545.5001,-1558.4133 552.5001,-1558.4132"/>
</g>
<!-- 8 -->
<g id="node9" class="node">
<title>8</title>
<path fill="none" stroke="#56d8c9" stroke-width="2" d="M528.5,-1692C528.5,-1692 409.5,-1692 409.5,-1692 403.5,-1692 397.5,-1686 397.5,-1680 397.5,-1680 397.5,-1668 397.5,-1668 397.5,-1662 403.5,-1656 409.5,-1656 409.5,-1656 528.5,-1656 528.5,-1656 534.5,-1656 540.5,-1662 540.5,-1668 540.5,-1668 540.5,-1680 540.5,-1680 540.5,-1686 534.5,-1692 528.5,-1692"/>
<text text-anchor="middle" x="469" y="-1671.5" font-family="sans" font-size="10.00" fill="#000000">prealignment_pbmarkdup</text>
</g>
<!-- 8&#45;&gt;7 -->
<g id="edge23" class="edge">
<title>8&#45;&gt;7</title>
<path fill="none" stroke="#c0c0c0" stroke-width="2" d="M489.1874,-1655.8314C498.8514,-1647.1337 510.5796,-1636.5783 521.0816,-1627.1265"/>
<polygon fill="#c0c0c0" stroke="#c0c0c0" stroke-width="2" points="523.7275,-1629.454 528.8191,-1620.1628 519.0447,-1624.251 523.7275,-1629.454"/>
</g>
<!-- 9 -->
<g id="node10" class="node">
<title>9</title>
<path fill="none" stroke="#b6d856" stroke-width="2" d="M687.5,-1692C687.5,-1692 570.5,-1692 570.5,-1692 564.5,-1692 558.5,-1686 558.5,-1680 558.5,-1680 558.5,-1668 558.5,-1668 558.5,-1662 564.5,-1656 570.5,-1656 570.5,-1656 687.5,-1656 687.5,-1656 693.5,-1656 699.5,-1662 699.5,-1668 699.5,-1668 699.5,-1680 699.5,-1680 699.5,-1686 693.5,-1692 687.5,-1692"/>
<text text-anchor="middle" x="629" y="-1671.5" font-family="sans" font-size="10.00" fill="#000000">alignment_pbmm2_index</text>
</g>
<!-- 9&#45;&gt;7 -->
<g id="edge22" class="edge">
<title>9&#45;&gt;7</title>
<path fill="none" stroke="#c0c0c0" stroke-width="2" d="M608.8126,-1655.8314C599.1486,-1647.1337 587.4204,-1636.5783 576.9184,-1627.1265"/>
<polygon fill="#c0c0c0" stroke="#c0c0c0" stroke-width="2" points="578.9553,-1624.251 569.1809,-1620.1628 574.2725,-1629.454 578.9553,-1624.251"/>
</g>
<!-- 10&#45;&gt;4 -->
<g id="edge17" class="edge">
<title>10&#45;&gt;4</title>
<path fill="none" stroke="#c0c0c0" stroke-width="2" d="M551.1392,-1439.6718C552.4173,-1419.2278 550.9597,-1386.5932 532,-1368 517.5528,-1353.8321 418.5477,-1338.56 334.4375,-1327.8848"/>
<polygon fill="#c0c0c0" stroke="#c0c0c0" stroke-width="2" points="334.619,-1324.3802 324.2606,-1326.6061 333.7463,-1331.3256 334.619,-1324.3802"/>
</g>
<!-- 10&#45;&gt;5 -->
<g id="edge19" class="edge">
<title>10&#45;&gt;5</title>
<path fill="none" stroke="#c0c0c0" stroke-width="2" d="M472.4293,-1439.9243C429.2017,-1429.7198 375.0463,-1416.9355 330.316,-1406.3762"/>
<polygon fill="#c0c0c0" stroke="#c0c0c0" stroke-width="2" points="330.8743,-1402.9119 320.3376,-1404.0207 329.266,-1409.7246 330.8743,-1402.9119"/>
</g>
<!-- 10&#45;&gt;16 -->
<g id="edge32" class="edge">
<title>10&#45;&gt;16</title>
<path fill="none" stroke="#c0c0c0" stroke-width="2" d="M555.9461,-1439.7143C566.6684,-1408.2964 583.5863,-1342.9247 559,-1296 552.5415,-1283.6735 541.8495,-1273.6013 530.4222,-1265.6382"/>
<polygon fill="#c0c0c0" stroke="#c0c0c0" stroke-width="2" points="532.3202,-1262.6975 522.0213,-1260.2105 528.5214,-1268.5771 532.3202,-1262.6975"/>
</g>
<!-- 10&#45;&gt;18 -->
<g id="edge36" class="edge">
<title>10&#45;&gt;18</title>
<path fill="none" stroke="#c0c0c0" stroke-width="2" d="M525.2798,-1439.8314C513.5906,-1430.8779 499.3312,-1419.9558 486.7191,-1410.2955"/>
<polygon fill="#c0c0c0" stroke="#c0c0c0" stroke-width="2" points="488.7797,-1407.4651 478.7126,-1404.1628 484.5231,-1413.0222 488.7797,-1407.4651"/>
</g>
<!-- 10&#45;&gt;23 -->
<g id="edge42" class="edge">
<title>10&#45;&gt;23</title>
<path fill="none" stroke="#c0c0c0" stroke-width="2" d="M602.474,-1439.9243C631.7189,-1430.0387 668.1259,-1417.7321 698.7726,-1407.3726"/>
<polygon fill="#c0c0c0" stroke="#c0c0c0" stroke-width="2" points="700.1514,-1410.6012 708.504,-1404.0831 697.9098,-1403.9698 700.1514,-1410.6012"/>
</g>
<!-- 10&#45;&gt;29 -->
<g id="edge50" class="edge">
<title>10&#45;&gt;29</title>
<path fill="none" stroke="#c0c0c0" stroke-width="2" d="M644.5754,-1442.6027C697.3493,-1433.4432 764.1815,-1420.7701 832.3175,-1404.0268"/>
<polygon fill="#c0c0c0" stroke="#c0c0c0" stroke-width="2" points="833.5175,-1407.3351 842.3783,-1401.5268 831.8294,-1400.5417 833.5175,-1407.3351"/>
</g>
<!-- 10&#45;&gt;37 -->
<g id="edge62" class="edge">
<title>10&#45;&gt;37</title>
<path fill="none" stroke="#c0c0c0" stroke-width="2" d="M566.9263,-1439.7434C590.2346,-1413.9886 628,-1364.4717 628,-1314 628,-1314 628,-1314 628,-1242 628,-1201.8721 627.2139,-1155.4602 626.6274,-1126.416"/>
<polygon fill="#c0c0c0" stroke="#c0c0c0" stroke-width="2" points="630.1218,-1126.1092 626.4144,-1116.1843 623.1234,-1126.255 630.1218,-1126.1092"/>
</g>
<!-- 11 -->
<g id="node12" class="node">
<title>11</title>
<path fill="none" stroke="#566bd8" stroke-width="2" d="M258,-756C258,-756 98,-756 98,-756 92,-756 86,-750 86,-744 86,-744 86,-732 86,-732 86,-726 92,-720 98,-720 98,-720 258,-720 258,-720 264,-720 270,-726 270,-732 270,-732 270,-744 270,-744 270,-750 264,-756 258,-756"/>
<text text-anchor="middle" x="178" y="-735.5" font-family="sans" font-size="10.00" fill="#000000">_copy_clairs_panel_annotated_vcf</text>
</g>
<!-- 11&#45;&gt;0 -->
<g id="edge9" class="edge">
<title>11&#45;&gt;0</title>
<path fill="none" stroke="#c0c0c0" stroke-width="2" d="M186.2709,-719.7881C197.719,-692.8727 217,-640.6212 217,-594 217,-594 217,-594 217,-162 217,-62.1067 579.1095,-28.5901 697.8134,-20.2866"/>
<polygon fill="#c0c0c0" stroke="#c0c0c0" stroke-width="2" points="698.1397,-23.7726 707.8794,-19.6026 697.6651,-16.7887 698.1397,-23.7726"/>
</g>
<!-- 12 -->
<g id="node13" class="node">
<title>12</title>
<path fill="none" stroke="#d86656" stroke-width="2" d="M338,-900C338,-900 276,-900 276,-900 270,-900 264,-894 264,-888 264,-888 264,-876 264,-876 264,-870 270,-864 276,-864 276,-864 338,-864 338,-864 344,-864 350,-870 350,-876 350,-876 350,-888 350,-888 350,-894 344,-900 338,-900"/>
<text text-anchor="middle" x="307" y="-879.5" font-family="sans" font-size="10.00" fill="#000000">bgzip_vep_vcf</text>
</g>
<!-- 12&#45;&gt;11 -->
<g id="edge25" class="edge">
<title>12&#45;&gt;11</title>
<path fill="none" stroke="#c0c0c0" stroke-width="2" d="M290.6621,-863.7623C267.9808,-838.4436 226.8392,-792.5182 201.0454,-763.7251"/>
<polygon fill="#c0c0c0" stroke="#c0c0c0" stroke-width="2" points="203.4847,-761.2026 194.2053,-756.0896 198.2709,-765.8734 203.4847,-761.2026"/>
</g>
<!-- 42 -->
<g id="node43" class="node">
<title>42</title>
<path fill="none" stroke="#56d87b" stroke-width="2" d="M456,-756C456,-756 300,-756 300,-756 294,-756 288,-750 288,-744 288,-744 288,-732 288,-732 288,-726 294,-720 300,-720 300,-720 456,-720 456,-720 462,-720 468,-726 468,-732 468,-732 468,-744 468,-744 468,-750 462,-756 456,-756"/>
<text text-anchor="middle" x="378" y="-735.5" font-family="sans" font-size="10.00" fill="#000000">filtering_filter_vep_annotated_vcf</text>
</g>
<!-- 12&#45;&gt;42 -->
<g id="edge71" class="edge">
<title>12&#45;&gt;42</title>
<path fill="none" stroke="#c0c0c0" stroke-width="2" d="M307.9042,-863.7541C309.4956,-844.8279 313.8865,-814.8592 326,-792 331.609,-781.4154 339.9063,-771.4616 348.2339,-763.0533"/>
<polygon fill="#c0c0c0" stroke="#c0c0c0" stroke-width="2" points="350.7027,-765.535 355.4931,-756.085 345.8552,-760.4851 350.7027,-765.535"/>
</g>
<!-- 43 -->
<g id="node44" class="node">
<title>43</title>
<path fill="none" stroke="#56d86b" stroke-width="2" d="M408.5,-828C408.5,-828 347.5,-828 347.5,-828 341.5,-828 335.5,-822 335.5,-816 335.5,-816 335.5,-804 335.5,-804 335.5,-798 341.5,-792 347.5,-792 347.5,-792 408.5,-792 408.5,-792 414.5,-792 420.5,-798 420.5,-804 420.5,-804 420.5,-816 420.5,-816 420.5,-822 414.5,-828 408.5,-828"/>
<text text-anchor="middle" x="378" y="-807.5" font-family="sans" font-size="10.00" fill="#000000">tabix_vep_vcf</text>
</g>
<!-- 12&#45;&gt;43 -->
<g id="edge72" class="edge">
<title>12&#45;&gt;43</title>
<path fill="none" stroke="#c0c0c0" stroke-width="2" d="M324.9163,-863.8314C333.3442,-855.2848 343.541,-844.9443 352.736,-835.6198"/>
<polygon fill="#c0c0c0" stroke="#c0c0c0" stroke-width="2" points="355.3131,-837.9912 359.8425,-828.4133 350.3289,-833.0761 355.3131,-837.9912"/>
</g>
<!-- 13 -->
<g id="node14" class="node">
<title>13</title>
<path fill="none" stroke="#afd856" stroke-width="2" d="M357,-972C357,-972 257,-972 257,-972 251,-972 245,-966 245,-960 245,-960 245,-948 245,-948 245,-942 251,-936 257,-936 257,-936 357,-936 357,-936 363,-936 369,-942 369,-948 369,-948 369,-960 369,-960 369,-966 363,-972 357,-972"/>
<text text-anchor="middle" x="307" y="-951.5" font-family="sans" font-size="10.00" fill="#000000">annotation_vep_clairs</text>
</g>
<!-- 13&#45;&gt;12 -->
<g id="edge26" class="edge">
<title>13&#45;&gt;12</title>
<path fill="none" stroke="#c0c0c0" stroke-width="2" d="M307,-935.8314C307,-928.131 307,-918.9743 307,-910.4166"/>
<polygon fill="#c0c0c0" stroke="#c0c0c0" stroke-width="2" points="310.5001,-910.4132 307,-900.4133 303.5001,-910.4133 310.5001,-910.4132"/>
</g>
<!-- 14 -->
<g id="node15" class="node">
<title>14</title>
<path fill="none" stroke="#56a2d8" stroke-width="2" d="M370.5,-1044C370.5,-1044 241.5,-1044 241.5,-1044 235.5,-1044 229.5,-1038 229.5,-1032 229.5,-1032 229.5,-1020 229.5,-1020 229.5,-1014 235.5,-1008 241.5,-1008 241.5,-1008 370.5,-1008 370.5,-1008 376.5,-1008 382.5,-1014 382.5,-1020 382.5,-1020 382.5,-1032 382.5,-1032 382.5,-1038 376.5,-1044 370.5,-1044"/>
<text text-anchor="middle" x="306" y="-1023.5" font-family="sans" font-size="10.00" fill="#000000">cnv_sv_tabix_include_panel</text>
</g>
<!-- 14&#45;&gt;13 -->
<g id="edge28" class="edge">
<title>14&#45;&gt;13</title>
<path fill="none" stroke="#c0c0c0" stroke-width="2" d="M306.2523,-1007.8314C306.3593,-1000.131 306.4865,-990.9743 306.6053,-982.4166"/>
<polygon fill="#c0c0c0" stroke="#c0c0c0" stroke-width="2" points="310.1049,-982.4609 306.7443,-972.4133 303.1056,-982.3637 310.1049,-982.4609"/>
</g>
<!-- 15 -->
<g id="node16" class="node">
<title>15</title>
<path fill="none" stroke="#d88d56" stroke-width="2" d="M511,-1116C511,-1116 301,-1116 301,-1116 295,-1116 289,-1110 289,-1104 289,-1104 289,-1092 289,-1092 289,-1086 295,-1080 301,-1080 301,-1080 511,-1080 511,-1080 517,-1080 523,-1086 523,-1092 523,-1092 523,-1104 523,-1104 523,-1110 517,-1116 511,-1116"/>
<text text-anchor="middle" x="406" y="-1095.5" font-family="sans" font-size="10.00" fill="#000000">filtering_bcftools_filter_include_region_clairs</text>
</g>
<!-- 15&#45;&gt;13 -->
<g id="edge27" class="edge">
<title>15&#45;&gt;13</title>
<path fill="none" stroke="#c0c0c0" stroke-width="2" d="M407.1161,-1079.8904C407.4247,-1060.5309 405.2868,-1029.6972 391,-1008 382.7885,-995.5294 370.5949,-985.3378 358.0278,-977.3033"/>
<polygon fill="#c0c0c0" stroke="#c0c0c0" stroke-width="2" points="359.6897,-974.2189 349.3122,-972.084 356.0933,-980.2245 359.6897,-974.2189"/>
</g>
<!-- 15&#45;&gt;14 -->
<g id="edge29" class="edge">
<title>15&#45;&gt;14</title>
<path fill="none" stroke="#c0c0c0" stroke-width="2" d="M380.7658,-1079.8314C368.212,-1070.7927 352.8717,-1059.7476 339.3609,-1050.0198"/>
<polygon fill="#c0c0c0" stroke="#c0c0c0" stroke-width="2" points="341.3866,-1047.1655 331.2261,-1044.1628 337.2964,-1052.8463 341.3866,-1047.1655"/>
</g>
<!-- 16&#45;&gt;15 -->
<g id="edge30" class="edge">
<title>16&#45;&gt;15</title>
<path fill="none" stroke="#c0c0c0" stroke-width="2" d="M456.4571,-1223.996C445.2231,-1214.5036 432.7219,-1201.9414 425,-1188 414.5217,-1169.082 409.8125,-1144.994 407.7009,-1126.4997"/>
<polygon fill="#c0c0c0" stroke="#c0c0c0" stroke-width="2" points="411.1656,-1125.9616 406.7338,-1116.3383 404.1971,-1126.6249 411.1656,-1125.9616"/>
</g>
<!-- 19 -->
<g id="node20" class="node">
<title>19</title>
<path fill="none" stroke="#d88556" stroke-width="2" d="M534,-1188C534,-1188 446,-1188 446,-1188 440,-1188 434,-1182 434,-1176 434,-1176 434,-1164 434,-1164 434,-1158 440,-1152 446,-1152 446,-1152 534,-1152 534,-1152 540,-1152 546,-1158 546,-1164 546,-1164 546,-1176 546,-1176 546,-1182 540,-1188 534,-1188"/>
<text text-anchor="middle" x="490" y="-1167.5" font-family="sans" font-size="10.00" fill="#000000">cnv_sv_tabix_clairs</text>
</g>
<!-- 16&#45;&gt;19 -->
<g id="edge38" class="edge">
<title>16&#45;&gt;19</title>
<path fill="none" stroke="#c0c0c0" stroke-width="2" d="M483.2711,-1223.8314C484.2336,-1216.131 485.3782,-1206.9743 486.4479,-1198.4166"/>
<polygon fill="#c0c0c0" stroke="#c0c0c0" stroke-width="2" points="489.9309,-1198.7702 487.6983,-1188.4133 482.9849,-1197.9019 489.9309,-1198.7702"/>
</g>
<!-- 16&#45;&gt;37 -->
<g id="edge63" class="edge">
<title>16&#45;&gt;37</title>
<path fill="none" stroke="#c0c0c0" stroke-width="2" d="M509.4687,-1223.9248C523.8496,-1214.1437 541.1395,-1201.3499 555,-1188 575.1704,-1168.5727 594.6183,-1143.3104 608.0438,-1124.4974"/>
<polygon fill="#c0c0c0" stroke="#c0c0c0" stroke-width="2" points="611.0634,-1126.2877 613.9483,-1116.0932 605.3357,-1122.2636 611.0634,-1126.2877"/>
</g>
<!-- 17 -->
<g id="node18" class="node">
<title>17</title>
<path fill="none" stroke="#9fd856" stroke-width="2" d="M538,-1332C538,-1332 410,-1332 410,-1332 404,-1332 398,-1326 398,-1320 398,-1320 398,-1308 398,-1308 398,-1302 404,-1296 410,-1296 410,-1296 538,-1296 538,-1296 544,-1296 550,-1302 550,-1308 550,-1308 550,-1320 550,-1320 550,-1326 544,-1332 538,-1332"/>
<text text-anchor="middle" x="474" y="-1311.5" font-family="sans" font-size="10.00" fill="#000000">snv_indels_clairs_to_concat</text>
</g>
<!-- 17&#45;&gt;16 -->
<g id="edge33" class="edge">
<title>17&#45;&gt;16</title>
<path fill="none" stroke="#c0c0c0" stroke-width="2" d="M475.7664,-1295.8314C476.515,-1288.131 477.4053,-1278.9743 478.2373,-1270.4166"/>
<polygon fill="#c0c0c0" stroke="#c0c0c0" stroke-width="2" points="481.7256,-1270.7051 479.2098,-1260.4133 474.7585,-1270.0276 481.7256,-1270.7051"/>
</g>
<!-- 18&#45;&gt;17 -->
<g id="edge35" class="edge">
<title>18&#45;&gt;17</title>
<path fill="none" stroke="#c0c0c0" stroke-width="2" d="M459.7945,-1367.8314C461.8489,-1360.0463 464.296,-1350.7729 466.5756,-1342.1347"/>
<polygon fill="#c0c0c0" stroke="#c0c0c0" stroke-width="2" points="469.9735,-1342.9753 469.1409,-1332.4133 463.2052,-1341.1892 469.9735,-1342.9753"/>
</g>
<!-- 19&#45;&gt;15 -->
<g id="edge31" class="edge">
<title>19&#45;&gt;15</title>
<path fill="none" stroke="#c0c0c0" stroke-width="2" d="M468.8033,-1151.8314C458.5566,-1143.0485 446.0997,-1132.3712 434.9903,-1122.8489"/>
<polygon fill="#c0c0c0" stroke="#c0c0c0" stroke-width="2" points="437.0603,-1120.0134 427.19,-1116.1628 432.5048,-1125.3282 437.0603,-1120.0134"/>
</g>
<!-- 19&#45;&gt;37 -->
<g id="edge64" class="edge">
<title>19&#45;&gt;37</title>
<path fill="none" stroke="#c0c0c0" stroke-width="2" d="M524.3185,-1151.8314C542.0359,-1142.4516 563.8345,-1130.9112 582.6984,-1120.9244"/>
<polygon fill="#c0c0c0" stroke="#c0c0c0" stroke-width="2" points="584.4922,-1123.935 591.6924,-1116.1628 581.2169,-1117.7485 584.4922,-1123.935"/>
</g>
<!-- 20 -->
<g id="node21" class="node">
<title>20</title>
<path fill="none" stroke="#d8a456" stroke-width="2" d="M807,-1044C807,-1044 737,-1044 737,-1044 731,-1044 725,-1038 725,-1032 725,-1032 725,-1020 725,-1020 725,-1014 731,-1008 737,-1008 737,-1008 807,-1008 807,-1008 813,-1008 819,-1014 819,-1020 819,-1020 819,-1032 819,-1032 819,-1038 813,-1044 807,-1044"/>
<text text-anchor="middle" x="772" y="-1023.5" font-family="sans" font-size="10.00" fill="#000000">_copy_pbsv_vcf</text>
</g>
<!-- 20&#45;&gt;0 -->
<g id="edge11" class="edge">
<title>20&#45;&gt;0</title>
<path fill="none" stroke="#c0c0c0" stroke-width="2" d="M780.2709,-1007.7881C791.719,-980.8727 811,-928.6212 811,-882 811,-882 811,-882 811,-162 811,-116.656 781.1616,-71.5999 758.8774,-44.2735"/>
<polygon fill="#c0c0c0" stroke="#c0c0c0" stroke-width="2" points="761.3585,-41.7856 752.2456,-36.3814 755.9994,-46.2889 761.3585,-41.7856"/>
</g>
<!-- 21 -->
<g id="node22" class="node">
<title>21</title>
<path fill="none" stroke="#56c9d8" stroke-width="2" d="M797,-1260C797,-1260 739,-1260 739,-1260 733,-1260 727,-1254 727,-1248 727,-1248 727,-1236 727,-1236 727,-1230 733,-1224 739,-1224 739,-1224 797,-1224 797,-1224 803,-1224 809,-1230 809,-1236 809,-1236 809,-1248 809,-1248 809,-1254 803,-1260 797,-1260"/>
<text text-anchor="middle" x="768" y="-1239.5" font-family="sans" font-size="10.00" fill="#000000">cnv_sv_bgzip</text>
</g>
<!-- 21&#45;&gt;20 -->
<g id="edge39" class="edge">
<title>21&#45;&gt;20</title>
<path fill="none" stroke="#c0c0c0" stroke-width="2" d="M768.3342,-1223.9555C769.0297,-1186.3938 770.6379,-1099.5541 771.4739,-1054.4103"/>
<polygon fill="#c0c0c0" stroke="#c0c0c0" stroke-width="2" points="774.9781,-1054.2082 771.664,-1044.1451 767.9793,-1054.0785 774.9781,-1054.2082"/>
</g>
<!-- 22 -->
<g id="node23" class="node">
<title>22</title>
<path fill="none" stroke="#56d8b9" stroke-width="2" d="M803.5,-1332C803.5,-1332 726.5,-1332 726.5,-1332 720.5,-1332 714.5,-1326 714.5,-1320 714.5,-1320 714.5,-1308 714.5,-1308 714.5,-1302 720.5,-1296 726.5,-1296 726.5,-1296 803.5,-1296 803.5,-1296 809.5,-1296 815.5,-1302 815.5,-1308 815.5,-1308 815.5,-1320 815.5,-1320 815.5,-1326 809.5,-1332 803.5,-1332"/>
<text text-anchor="middle" x="765" y="-1311.5" font-family="sans" font-size="10.00" fill="#000000">cnv_sv_pbsv_call</text>
</g>
<!-- 22&#45;&gt;21 -->
<g id="edge40" class="edge">
<title>22&#45;&gt;21</title>
<path fill="none" stroke="#c0c0c0" stroke-width="2" d="M765.757,-1295.8314C766.0779,-1288.131 766.4594,-1278.9743 766.816,-1270.4166"/>
<polygon fill="#c0c0c0" stroke="#c0c0c0" stroke-width="2" points="770.3133,-1270.5503 767.2328,-1260.4133 763.3194,-1270.2589 770.3133,-1270.5503"/>
</g>
<!-- 23&#45;&gt;22 -->
<g id="edge41" class="edge">
<title>23&#45;&gt;22</title>
<path fill="none" stroke="#c0c0c0" stroke-width="2" d="M762.757,-1367.8314C763.0779,-1360.131 763.4594,-1350.9743 763.816,-1342.4166"/>
<polygon fill="#c0c0c0" stroke="#c0c0c0" stroke-width="2" points="767.3133,-1342.5503 764.2328,-1332.4133 760.3194,-1342.2589 767.3133,-1342.5503"/>
</g>
<!-- 24 -->
<g id="node25" class="node">
<title>24</title>
<path fill="none" stroke="#56d0d8" stroke-width="2" d="M1152.5,-1116C1152.5,-1116 1073.5,-1116 1073.5,-1116 1067.5,-1116 1061.5,-1110 1061.5,-1104 1061.5,-1104 1061.5,-1092 1061.5,-1092 1061.5,-1086 1067.5,-1080 1073.5,-1080 1073.5,-1080 1152.5,-1080 1152.5,-1080 1158.5,-1080 1164.5,-1086 1164.5,-1092 1164.5,-1092 1164.5,-1104 1164.5,-1104 1164.5,-1110 1158.5,-1116 1152.5,-1116"/>
<text text-anchor="middle" x="1113" y="-1095.5" font-family="sans" font-size="10.00" fill="#000000">_copy_hificnv_vcf</text>
</g>
<!-- 24&#45;&gt;0 -->
<g id="edge4" class="edge">
<title>24&#45;&gt;0</title>
<path fill="none" stroke="#c0c0c0" stroke-width="2" d="M1105.1533,-1079.746C1094.2922,-1052.7781 1076,-1000.4617 1076,-954 1076,-954 1076,-954 1076,-162 1076,-96.7468 1018.8222,-100.2475 960,-72 898.0158,-42.2341 818.3323,-28.1315 772.3281,-22.0535"/>
<polygon fill="#c0c0c0" stroke="#c0c0c0" stroke-width="2" points="772.5748,-18.557 762.2149,-20.7757 771.6973,-25.5018 772.5748,-18.557"/>
</g>
<!-- 25&#45;&gt;24 -->
<g id="edge44" class="edge">
<title>25&#45;&gt;24</title>
<path fill="none" stroke="#c0c0c0" stroke-width="2" d="M1058.9715,-1439.9508C1094.5147,-1416.0025 1149,-1370.1362 1149,-1314 1149,-1314 1149,-1314 1149,-1242 1149,-1200.5072 1134.7584,-1154.2433 1124.1902,-1125.6245"/>
<polygon fill="#c0c0c0" stroke="#c0c0c0" stroke-width="2" points="1127.4605,-1124.3773 1120.6347,-1116.2743 1120.9176,-1126.8654 1127.4605,-1124.3773"/>
</g>
<!-- 26 -->
<g id="node27" class="node">
<title>26</title>
<path fill="none" stroke="#56d85b" stroke-width="2" d="M1035,-828C1035,-828 947,-828 947,-828 941,-828 935,-822 935,-816 935,-816 935,-804 935,-804 935,-798 941,-792 947,-792 947,-792 1035,-792 1035,-792 1041,-792 1047,-798 1047,-804 1047,-804 1047,-816 1047,-816 1047,-822 1041,-828 1035,-828"/>
<text text-anchor="middle" x="991" y="-807.5" font-family="sans" font-size="10.00" fill="#000000">_copy_sniffles2_vcf</text>
</g>
<!-- 26&#45;&gt;0 -->
<g id="edge2" class="edge">
<title>26&#45;&gt;0</title>
<path fill="none" stroke="#c0c0c0" stroke-width="2" d="M989.3424,-791.8326C986.9991,-764.5392 983,-711.3198 983,-666 983,-666 983,-666 983,-162 983,-65.6299 841.2188,-32.6675 772.06,-22.3214"/>
<polygon fill="#c0c0c0" stroke="#c0c0c0" stroke-width="2" points="772.4039,-18.8353 762.0124,-20.9013 771.4242,-25.7664 772.4039,-18.8353"/>
</g>
<!-- 27 -->
<g id="node28" class="node">
<title>27</title>
<path fill="none" stroke="#56d89a" stroke-width="2" d="M1108.5,-1188C1108.5,-1188 889.5,-1188 889.5,-1188 883.5,-1188 877.5,-1182 877.5,-1176 877.5,-1176 877.5,-1164 877.5,-1164 877.5,-1158 883.5,-1152 889.5,-1152 889.5,-1152 1108.5,-1152 1108.5,-1152 1114.5,-1152 1120.5,-1158 1120.5,-1164 1120.5,-1164 1120.5,-1176 1120.5,-1176 1120.5,-1182 1114.5,-1188 1108.5,-1188"/>
<text text-anchor="middle" x="999" y="-1167.5" font-family="sans" font-size="10.00" fill="#000000">filtering_bcftools_filter_include_region_sniffles</text>
</g>
<!-- 27&#45;&gt;26 -->
<g id="edge46" class="edge">
<title>27&#45;&gt;26</title>
<path fill="none" stroke="#c0c0c0" stroke-width="2" d="M998.5856,-1151.8157C997.9998,-1124.5008 997,-1071.2544 997,-1026 997,-1026 997,-1026 997,-954 997,-913.8412 994.6417,-867.4372 992.8821,-838.4031"/>
<polygon fill="#c0c0c0" stroke="#c0c0c0" stroke-width="2" points="996.3599,-837.9376 992.2432,-828.1753 989.3736,-838.3741 996.3599,-837.9376"/>
</g>
<!-- 28 -->
<g id="node29" class="node">
<title>28</title>
<path fill="none" stroke="#61d856" stroke-width="2" d="M987,-1332C987,-1332 889,-1332 889,-1332 883,-1332 877,-1326 877,-1320 877,-1320 877,-1308 877,-1308 877,-1302 883,-1296 889,-1296 889,-1296 987,-1296 987,-1296 993,-1296 999,-1302 999,-1308 999,-1308 999,-1320 999,-1320 999,-1326 993,-1332 987,-1332"/>
<text text-anchor="middle" x="938" y="-1311.5" font-family="sans" font-size="10.00" fill="#000000">cnv_sv_bgzip_sniffles</text>
</g>
<!-- 28&#45;&gt;27 -->
<g id="edge48" class="edge">
<title>28&#45;&gt;27</title>
<path fill="none" stroke="#c0c0c0" stroke-width="2" d="M972.9415,-1295.7767C986.1507,-1286.9077 999.7377,-1274.9055 1007,-1260 1016.3915,-1240.7245 1013.4734,-1216.3749 1008.7133,-1197.8649"/>
<polygon fill="#c0c0c0" stroke="#c0c0c0" stroke-width="2" points="1012.0758,-1196.8931 1005.9459,-1188.2517 1005.349,-1198.8297 1012.0758,-1196.8931"/>
</g>
<!-- 30 -->
<g id="node31" class="node">
<title>30</title>
<path fill="none" stroke="#59d856" stroke-width="2" d="M986.5,-1260C986.5,-1260 889.5,-1260 889.5,-1260 883.5,-1260 877.5,-1254 877.5,-1248 877.5,-1248 877.5,-1236 877.5,-1236 877.5,-1230 883.5,-1224 889.5,-1224 889.5,-1224 986.5,-1224 986.5,-1224 992.5,-1224 998.5,-1230 998.5,-1236 998.5,-1236 998.5,-1248 998.5,-1248 998.5,-1254 992.5,-1260 986.5,-1260"/>
<text text-anchor="middle" x="938" y="-1239.5" font-family="sans" font-size="10.00" fill="#000000">cnv_sv_tabix_sniffles</text>
</g>
<!-- 28&#45;&gt;30 -->
<g id="edge52" class="edge">
<title>28&#45;&gt;30</title>
<path fill="none" stroke="#c0c0c0" stroke-width="2" d="M938,-1295.8314C938,-1288.131 938,-1278.9743 938,-1270.4166"/>
<polygon fill="#c0c0c0" stroke="#c0c0c0" stroke-width="2" points="941.5001,-1270.4132 938,-1260.4133 934.5001,-1270.4133 941.5001,-1270.4132"/>
</g>
<!-- 29&#45;&gt;28 -->
<g id="edge49" class="edge">
<title>29&#45;&gt;28</title>
<path fill="none" stroke="#c0c0c0" stroke-width="2" d="M902.8601,-1367.8314C908.1629,-1359.7079 914.5237,-1349.9637 920.3673,-1341.0118"/>
<polygon fill="#c0c0c0" stroke="#c0c0c0" stroke-width="2" points="923.4448,-1342.7003 925.9802,-1332.4133 917.5831,-1338.8739 923.4448,-1342.7003"/>
</g>
<!-- 31 -->
<g id="node32" class="node">
<title>31</title>
<path fill="none" stroke="#56d8d8" stroke-width="2" d="M939,-324C939,-324 851,-324 851,-324 845,-324 839,-318 839,-312 839,-312 839,-300 839,-300 839,-294 845,-288 851,-288 851,-288 939,-288 939,-288 945,-288 951,-294 951,-300 951,-300 951,-312 951,-312 951,-318 945,-324 939,-324"/>
<text text-anchor="middle" x="895" y="-303.5" font-family="sans" font-size="10.00" fill="#000000">_copy_sniffles2_snf</text>
</g>
<!-- 29&#45;&gt;31 -->
<g id="edge53" class="edge">
<title>29&#45;&gt;31</title>
<path fill="none" stroke="#c0c0c0" stroke-width="2" d="M882.0929,-1367.8553C869.7642,-1341.0234 849,-1288.875 849,-1242 849,-1242 849,-1242 849,-450 849,-407.7421 867.1976,-361.6755 880.7014,-333.3085"/>
<polygon fill="#c0c0c0" stroke="#c0c0c0" stroke-width="2" points="883.9822,-334.5675 885.2446,-324.0482 877.6978,-331.4843 883.9822,-334.5675"/>
</g>
<!-- 30&#45;&gt;27 -->
<g id="edge47" class="edge">
<title>30&#45;&gt;27</title>
<path fill="none" stroke="#c0c0c0" stroke-width="2" d="M953.3929,-1223.8314C960.4904,-1215.454 969.048,-1205.3531 976.824,-1196.1749"/>
<polygon fill="#c0c0c0" stroke="#c0c0c0" stroke-width="2" points="979.6061,-1198.3056 983.3999,-1188.4133 974.2652,-1193.7807 979.6061,-1198.3056"/>
</g>
<!-- 31&#45;&gt;0 -->
<g id="edge7" class="edge">
<title>31&#45;&gt;0</title>
<path fill="none" stroke="#c0c0c0" stroke-width="2" d="M893.9608,-287.8733C890.6883,-245.7011 877.4223,-139.4723 825,-72 811.291,-54.3553 790.0653,-41.2243 771.6694,-32.3314"/>
<polygon fill="#c0c0c0" stroke="#c0c0c0" stroke-width="2" points="772.9113,-29.0505 762.3623,-28.0658 769.9948,-35.414 772.9113,-29.0505"/>
</g>
<!-- 32 -->
<g id="node33" class="node">
<title>32</title>
<path fill="none" stroke="#56d8b1" stroke-width="2" d="M694.5,-108C694.5,-108 575.5,-108 575.5,-108 569.5,-108 563.5,-102 563.5,-96 563.5,-96 563.5,-84 563.5,-84 563.5,-78 569.5,-72 575.5,-72 575.5,-72 694.5,-72 694.5,-72 700.5,-72 706.5,-78 706.5,-84 706.5,-84 706.5,-96 706.5,-96 706.5,-102 700.5,-108 694.5,-108"/>
<text text-anchor="middle" x="635" y="-87.5" font-family="sans" font-size="10.00" fill="#000000">_copy_cnvkit_html_report</text>
</g>
<!-- 32&#45;&gt;0 -->
<g id="edge6" class="edge">
<title>32&#45;&gt;0</title>
<path fill="none" stroke="#c0c0c0" stroke-width="2" d="M660.2342,-71.8314C672.788,-62.7927 688.1283,-51.7476 701.6391,-42.0198"/>
<polygon fill="#c0c0c0" stroke="#c0c0c0" stroke-width="2" points="703.7036,-44.8463 709.7739,-36.1628 699.6134,-39.1655 703.7036,-44.8463"/>
</g>
<!-- 33 -->
<g id="node34" class="node">
<title>33</title>
<path fill="none" stroke="#56d88a" stroke-width="2" d="M690,-180C690,-180 578,-180 578,-180 572,-180 566,-174 566,-168 566,-168 566,-156 566,-156 566,-150 572,-144 578,-144 578,-144 690,-144 690,-144 696,-144 702,-150 702,-156 702,-156 702,-168 702,-168 702,-174 696,-180 690,-180"/>
<text text-anchor="middle" x="634" y="-159.5" font-family="sans" font-size="10.00" fill="#000000">reports_cnv_html_report</text>
</g>
<!-- 33&#45;&gt;32 -->
<g id="edge54" class="edge">
<title>33&#45;&gt;32</title>
<path fill="none" stroke="#c0c0c0" stroke-width="2" d="M634.2523,-143.8314C634.3593,-136.131 634.4865,-126.9743 634.6053,-118.4166"/>
<polygon fill="#c0c0c0" stroke="#c0c0c0" stroke-width="2" points="638.1049,-118.4609 634.7443,-108.4133 631.1056,-118.3637 638.1049,-118.4609"/>
</g>
<!-- 34 -->
<g id="node35" class="node">
<title>34</title>
<path fill="none" stroke="#56d882" stroke-width="2" d="M687,-252C687,-252 575,-252 575,-252 569,-252 563,-246 563,-240 563,-240 563,-228 563,-228 563,-222 569,-216 575,-216 575,-216 687,-216 687,-216 693,-216 699,-222 699,-228 699,-228 699,-240 699,-240 699,-246 693,-252 687,-252"/>
<text text-anchor="middle" x="631" y="-231.5" font-family="sans" font-size="10.00" fill="#000000">reports_merge_cnv_json</text>
</g>
<!-- 34&#45;&gt;33 -->
<g id="edge55" class="edge">
<title>34&#45;&gt;33</title>
<path fill="none" stroke="#c0c0c0" stroke-width="2" d="M631.757,-215.8314C632.0779,-208.131 632.4594,-198.9743 632.816,-190.4166"/>
<polygon fill="#c0c0c0" stroke="#c0c0c0" stroke-width="2" points="636.3133,-190.5503 633.2328,-180.4133 629.3194,-190.2589 636.3133,-190.5503"/>
</g>
<!-- 35 -->
<g id="node36" class="node">
<title>35</title>
<path fill="none" stroke="#5682d8" stroke-width="2" d="M688.5,-396C688.5,-396 613.5,-396 613.5,-396 607.5,-396 601.5,-390 601.5,-384 601.5,-384 601.5,-372 601.5,-372 601.5,-366 607.5,-360 613.5,-360 613.5,-360 688.5,-360 688.5,-360 694.5,-360 700.5,-366 700.5,-372 700.5,-372 700.5,-384 700.5,-384 700.5,-390 694.5,-396 688.5,-396"/>
<text text-anchor="middle" x="651" y="-375.5" font-family="sans" font-size="10.00" fill="#000000">reports_cnv_json</text>
</g>
<!-- 35&#45;&gt;34 -->
<g id="edge57" class="edge">
<title>35&#45;&gt;34</title>
<path fill="none" stroke="#c0c0c0" stroke-width="2" d="M648.467,-359.7623C645.0557,-335.201 638.951,-291.2474 634.9381,-262.3541"/>
<polygon fill="#c0c0c0" stroke="#c0c0c0" stroke-width="2" points="638.3549,-261.513 633.5124,-252.0896 631.4215,-262.4761 638.3549,-261.513"/>
</g>
<!-- 36 -->
<g id="node37" class="node">
<title>36</title>
<path fill="none" stroke="#5692d8" stroke-width="2" d="M628,-612C628,-612 506,-612 506,-612 500,-612 494,-606 494,-600 494,-600 494,-588 494,-588 494,-582 500,-576 506,-576 506,-576 628,-576 628,-576 634,-576 640,-582 640,-588 640,-588 640,-600 640,-600 640,-606 634,-612 628,-612"/>
<text text-anchor="middle" x="567" y="-591.5" font-family="sans" font-size="10.00" fill="#000000">cnv_sv_cnvkit_batch_local</text>
</g>
<!-- 36&#45;&gt;35 -->
<g id="edge59" class="edge">
<title>36&#45;&gt;35</title>
<path fill="none" stroke="#c0c0c0" stroke-width="2" d="M569.395,-575.6779C572.1484,-557.2087 577.427,-528.0699 586,-504 598.7422,-468.2244 619.7356,-429.8042 634.4059,-404.9222"/>
<polygon fill="#c0c0c0" stroke="#c0c0c0" stroke-width="2" points="637.563,-406.462 639.6884,-396.0826 631.5542,-402.8711 637.563,-406.462"/>
</g>
<!-- 47 -->
<g id="node48" class="node">
<title>47</title>
<path fill="none" stroke="#d8ac56" stroke-width="2" d="M527,-540C527,-540 411,-540 411,-540 405,-540 399,-534 399,-528 399,-528 399,-516 399,-516 399,-510 405,-504 411,-504 411,-504 527,-504 527,-504 533,-504 539,-510 539,-516 539,-516 539,-528 539,-528 539,-534 533,-540 527,-540"/>
<text text-anchor="middle" x="469" y="-519.5" font-family="sans" font-size="10.00" fill="#000000">cnvkit_call_new_wrapper</text>
</g>
<!-- 36&#45;&gt;47 -->
<g id="edge77" class="edge">
<title>36&#45;&gt;47</title>
<path fill="none" stroke="#c0c0c0" stroke-width="2" d="M542.2705,-575.8314C530.0838,-566.8779 515.2177,-555.9558 502.0688,-546.2955"/>
<polygon fill="#c0c0c0" stroke="#c0c0c0" stroke-width="2" points="503.8527,-543.263 493.7216,-540.1628 499.7082,-548.9042 503.8527,-543.263"/>
</g>
<!-- 37&#45;&gt;36 -->
<g id="edge61" class="edge">
<title>37&#45;&gt;36</title>
<path fill="none" stroke="#c0c0c0" stroke-width="2" d="M592.5218,-1079.9646C554.0037,-1056.4961 496,-1011.5938 496,-954 496,-954 496,-954 496,-810 496,-737.9945 461.5856,-712.2969 494,-648 500.1074,-635.8853 510.3588,-625.8131 521.2776,-617.7793"/>
<polygon fill="#c0c0c0" stroke="#c0c0c0" stroke-width="2" points="523.4118,-620.5603 529.6998,-612.0331 519.4666,-614.7779 523.4118,-620.5603"/>
</g>
<!-- 38 -->
<g id="node39" class="node">
<title>38</title>
<path fill="none" stroke="#70d856" stroke-width="2" d="M733,-684C733,-684 515,-684 515,-684 509,-684 503,-678 503,-672 503,-672 503,-660 503,-660 503,-654 509,-648 515,-648 515,-648 733,-648 733,-648 739,-648 745,-654 745,-660 745,-660 745,-672 745,-672 745,-678 739,-684 733,-684"/>
<text text-anchor="middle" x="624" y="-663.5" font-family="sans" font-size="10.00" fill="#000000">alignment_samtools_index_haplotagged_bam</text>
</g>
<!-- 37&#45;&gt;38 -->
<g id="edge66" class="edge">
<title>37&#45;&gt;38</title>
<path fill="none" stroke="#c0c0c0" stroke-width="2" d="M625.7928,-1079.8149C625.4999,-1052.4989 625,-999.2511 625,-954 625,-954 625,-954 625,-810 625,-769.875 624.6069,-723.4624 624.3137,-694.4173"/>
<polygon fill="#c0c0c0" stroke="#c0c0c0" stroke-width="2" points="627.8112,-694.1481 624.2072,-684.1851 620.8115,-694.221 627.8112,-694.1481"/>
</g>
<!-- 48 -->
<g id="node49" class="node">
<title>48</title>
<path fill="none" stroke="#56d8c1" stroke-width="2" d="M764.5,-900C764.5,-900 671.5,-900 671.5,-900 665.5,-900 659.5,-894 659.5,-888 659.5,-888 659.5,-876 659.5,-876 659.5,-870 665.5,-864 671.5,-864 671.5,-864 764.5,-864 764.5,-864 770.5,-864 776.5,-870 776.5,-876 776.5,-876 776.5,-888 776.5,-888 776.5,-894 770.5,-900 764.5,-900"/>
<text text-anchor="middle" x="718" y="-879.5" font-family="sans" font-size="10.00" fill="#000000">_copy_mapped_bam</text>
</g>
<!-- 37&#45;&gt;48 -->
<g id="edge78" class="edge">
<title>37&#45;&gt;48</title>
<path fill="none" stroke="#c0c0c0" stroke-width="2" d="M633.6856,-1079.9555C649.7856,-1042.1556 687.1414,-954.4506 706.263,-909.5564"/>
<polygon fill="#c0c0c0" stroke="#c0c0c0" stroke-width="2" points="709.573,-910.7169 710.2715,-900.1451 703.1328,-907.9738 709.573,-910.7169"/>
</g>
<!-- 38&#45;&gt;36 -->
<g id="edge60" class="edge">
<title>38&#45;&gt;36</title>
<path fill="none" stroke="#c0c0c0" stroke-width="2" d="M609.6165,-647.8314C603.0514,-639.5386 595.1493,-629.557 587.9422,-620.4533"/>
<polygon fill="#c0c0c0" stroke="#c0c0c0" stroke-width="2" points="590.5284,-618.0813 581.5772,-612.4133 585.0401,-622.4262 590.5284,-618.0813"/>
</g>
<!-- 49 -->
<g id="node50" class="node">
<title>49</title>
<path fill="none" stroke="#56d863" stroke-width="2" d="M732.5,-540C732.5,-540 607.5,-540 607.5,-540 601.5,-540 595.5,-534 595.5,-528 595.5,-528 595.5,-516 595.5,-516 595.5,-510 601.5,-504 607.5,-504 607.5,-504 732.5,-504 732.5,-504 738.5,-504 744.5,-510 744.5,-516 744.5,-516 744.5,-528 744.5,-528 744.5,-534 738.5,-540 732.5,-540"/>
<text text-anchor="middle" x="670" y="-519.5" font-family="sans" font-size="10.00" fill="#000000">_copy_mapped_bam_index</text>
</g>
<!-- 38&#45;&gt;49 -->
<g id="edge79" class="edge">
<title>38&#45;&gt;49</title>
<path fill="none" stroke="#c0c0c0" stroke-width="2" d="M633.5164,-647.8895C638.6422,-637.5824 644.7646,-624.3087 649,-612 655.9825,-591.7079 661.4011,-568.0526 664.984,-550.0874"/>
<polygon fill="#c0c0c0" stroke="#c0c0c0" stroke-width="2" points="668.427,-550.7169 666.8793,-540.2357 661.553,-549.3943 668.427,-550.7169"/>
</g>
<!-- 39 -->
<g id="node40" class="node">
<title>39</title>
<path fill="none" stroke="#56d8a9" stroke-width="2" d="M386,-468C386,-468 356,-468 356,-468 350,-468 344,-462 344,-456 344,-456 344,-444 344,-444 344,-438 350,-432 356,-432 356,-432 386,-432 386,-432 392,-432 398,-438 398,-444 398,-444 398,-456 398,-456 398,-462 392,-468 386,-468"/>
<text text-anchor="middle" x="371" y="-447.5" font-family="sans" font-size="10.00" fill="#000000">fix_af</text>
</g>
<!-- 39&#45;&gt;34 -->
<g id="edge58" class="edge">
<title>39&#45;&gt;34</title>
<path fill="none" stroke="#c0c0c0" stroke-width="2" d="M398.2389,-435.5975C401.1577,-434.2908 404.1147,-433.0621 407,-432 469.7184,-408.9139 501.1134,-438.1231 553,-396 595.3499,-361.6191 616.2276,-298.6897 625.2141,-262.2075"/>
<polygon fill="#c0c0c0" stroke="#c0c0c0" stroke-width="2" points="628.6783,-262.7629 627.5369,-252.2297 621.8606,-261.1757 628.6783,-262.7629"/>
</g>
<!-- 40 -->
<g id="node41" class="node">
<title>40</title>
<path fill="none" stroke="#a7d856" stroke-width="2" d="M460.5,-612C460.5,-612 295.5,-612 295.5,-612 289.5,-612 283.5,-606 283.5,-600 283.5,-600 283.5,-588 283.5,-588 283.5,-582 289.5,-576 295.5,-576 295.5,-576 460.5,-576 460.5,-576 466.5,-576 472.5,-582 472.5,-588 472.5,-588 472.5,-600 472.5,-600 472.5,-606 466.5,-612 460.5,-612"/>
<text text-anchor="middle" x="378" y="-591.5" font-family="sans" font-size="10.00" fill="#000000">filtering_bcftools_view_nonsomatic</text>
</g>
<!-- 40&#45;&gt;39 -->
<g id="edge67" class="edge">
<title>40&#45;&gt;39</title>
<path fill="none" stroke="#c0c0c0" stroke-width="2" d="M377.1134,-575.7623C375.9195,-551.201 373.7829,-507.2474 372.3783,-478.3541"/>
<polygon fill="#c0c0c0" stroke="#c0c0c0" stroke-width="2" points="375.8609,-477.9079 371.8794,-468.0896 368.8691,-478.2478 375.8609,-477.9079"/>
</g>
<!-- 40&#45;&gt;47 -->
<g id="edge76" class="edge">
<title>40&#45;&gt;47</title>
<path fill="none" stroke="#c0c0c0" stroke-width="2" d="M400.9631,-575.8314C412.1715,-566.9632 425.8209,-556.1637 437.9439,-546.5718"/>
<polygon fill="#c0c0c0" stroke="#c0c0c0" stroke-width="2" points="440.3737,-549.1125 446.0442,-540.1628 436.0303,-543.6229 440.3737,-549.1125"/>
</g>
<!-- 41 -->
<g id="node42" class="node">
<title>41</title>
<path fill="none" stroke="#d89556" stroke-width="2" d="M429,-684C429,-684 327,-684 327,-684 321,-684 315,-678 315,-672 315,-672 315,-660 315,-660 315,-654 321,-648 327,-648 327,-648 429,-648 429,-648 435,-648 441,-654 441,-660 441,-660 441,-672 441,-672 441,-678 435,-684 429,-684"/>
<text text-anchor="middle" x="378" y="-663.5" font-family="sans" font-size="10.00" fill="#000000">bgzip_filtered_vep_vcf</text>
</g>
<!-- 41&#45;&gt;40 -->
<g id="edge68" class="edge">
<title>41&#45;&gt;40</title>
<path fill="none" stroke="#c0c0c0" stroke-width="2" d="M378,-647.8314C378,-640.131 378,-630.9743 378,-622.4166"/>
<polygon fill="#c0c0c0" stroke="#c0c0c0" stroke-width="2" points="381.5001,-622.4132 378,-612.4133 374.5001,-622.4133 381.5001,-622.4132"/>
</g>
<!-- 42&#45;&gt;41 -->
<g id="edge69" class="edge">
<title>42&#45;&gt;41</title>
<path fill="none" stroke="#c0c0c0" stroke-width="2" d="M378,-719.8314C378,-712.131 378,-702.9743 378,-694.4166"/>
<polygon fill="#c0c0c0" stroke="#c0c0c0" stroke-width="2" points="381.5001,-694.4132 378,-684.4133 374.5001,-694.4133 381.5001,-694.4132"/>
</g>
<!-- 43&#45;&gt;42 -->
<g id="edge70" class="edge">
<title>43&#45;&gt;42</title>
<path fill="none" stroke="#c0c0c0" stroke-width="2" d="M378,-791.8314C378,-784.131 378,-774.9743 378,-766.4166"/>
<polygon fill="#c0c0c0" stroke="#c0c0c0" stroke-width="2" points="381.5001,-766.4132 378,-756.4133 374.5001,-766.4133 381.5001,-766.4132"/>
</g>
<!-- 44 -->
<g id="node45" class="node">
<title>44</title>
<path fill="none" stroke="#5673d8" stroke-width="2" d="M532.5,-324C532.5,-324 419.5,-324 419.5,-324 413.5,-324 407.5,-318 407.5,-312 407.5,-312 407.5,-300 407.5,-300 407.5,-294 413.5,-288 419.5,-288 419.5,-288 532.5,-288 532.5,-288 538.5,-288 544.5,-294 544.5,-300 544.5,-300 544.5,-312 544.5,-312 544.5,-318 538.5,-324 532.5,-324"/>
<text text-anchor="middle" x="476" y="-303.5" font-family="sans" font-size="10.00" fill="#000000">cnv_sv_bgzip_cnvkit_vcf</text>
</g>
<!-- 44&#45;&gt;34 -->
<g id="edge56" class="edge">
<title>44&#45;&gt;34</title>
<path fill="none" stroke="#c0c0c0" stroke-width="2" d="M515.113,-287.8314C535.7512,-278.2446 561.2484,-266.4008 583.0673,-256.2655"/>
<polygon fill="#c0c0c0" stroke="#c0c0c0" stroke-width="2" points="584.5734,-259.4251 592.1682,-252.038 581.6244,-253.0766 584.5734,-259.4251"/>
</g>
<!-- 52 -->
<g id="node53" class="node">
<title>52</title>
<path fill="none" stroke="#c6d856" stroke-width="2" d="M532,-252C532,-252 420,-252 420,-252 414,-252 408,-246 408,-240 408,-240 408,-228 408,-228 408,-222 414,-216 420,-216 420,-216 532,-216 532,-216 538,-216 544,-222 544,-228 544,-228 544,-240 544,-240 544,-246 538,-252 532,-252"/>
<text text-anchor="middle" x="476" y="-231.5" font-family="sans" font-size="10.00" fill="#000000">cnv_sv_tabix_cnvkit_vcf</text>
</g>
<!-- 44&#45;&gt;52 -->
<g id="edge82" class="edge">
<title>44&#45;&gt;52</title>
<path fill="none" stroke="#c0c0c0" stroke-width="2" d="M476,-287.8314C476,-280.131 476,-270.9743 476,-262.4166"/>
<polygon fill="#c0c0c0" stroke="#c0c0c0" stroke-width="2" points="479.5001,-262.4132 476,-252.4133 472.5001,-262.4133 479.5001,-262.4132"/>
</g>
<!-- 45 -->
<g id="node46" class="node">
<title>45</title>
<path fill="none" stroke="#ced856" stroke-width="2" d="M532.5,-396C532.5,-396 383.5,-396 383.5,-396 377.5,-396 371.5,-390 371.5,-384 371.5,-384 371.5,-372 371.5,-372 371.5,-366 377.5,-360 383.5,-360 383.5,-360 532.5,-360 532.5,-360 538.5,-360 544.5,-366 544.5,-372 544.5,-372 544.5,-384 544.5,-384 544.5,-390 538.5,-396 532.5,-396"/>
<text text-anchor="middle" x="458" y="-375.5" font-family="sans" font-size="10.00" fill="#000000">annotation_annotate_cnvkit_vcf</text>
</g>
<!-- 45&#45;&gt;44 -->
<g id="edge73" class="edge">
<title>45&#45;&gt;44</title>
<path fill="none" stroke="#c0c0c0" stroke-width="2" d="M462.5422,-359.8314C464.4884,-352.0463 466.8068,-342.7729 468.9663,-334.1347"/>
<polygon fill="#c0c0c0" stroke="#c0c0c0" stroke-width="2" points="472.3668,-334.9636 471.3967,-324.4133 465.5758,-333.2658 472.3668,-334.9636"/>
</g>
<!-- 50 -->
<g id="node51" class="node">
<title>50</title>
<path fill="none" stroke="#d85e56" stroke-width="2" d="M443.5,-180C443.5,-180 312.5,-180 312.5,-180 306.5,-180 300.5,-174 300.5,-168 300.5,-168 300.5,-156 300.5,-156 300.5,-150 306.5,-144 312.5,-144 312.5,-144 443.5,-144 443.5,-144 449.5,-144 455.5,-150 455.5,-156 455.5,-156 455.5,-168 455.5,-168 455.5,-174 449.5,-180 443.5,-180"/>
<text text-anchor="middle" x="378" y="-159.5" font-family="sans" font-size="10.00" fill="#000000">_copy_annotated_cnvkit_vcf</text>
</g>
<!-- 45&#45;&gt;50 -->
<g id="edge80" class="edge">
<title>45&#45;&gt;50</title>
<path fill="none" stroke="#c0c0c0" stroke-width="2" d="M430.2237,-359.9078C418.3123,-350.6407 405.448,-338.2921 398,-324 375.7832,-281.368 374.2284,-224.1 375.7076,-190.3138"/>
<polygon fill="#c0c0c0" stroke="#c0c0c0" stroke-width="2" points="379.2083,-190.3976 376.2722,-180.2177 372.2192,-190.0067 379.2083,-190.3976"/>
</g>
<!-- 46 -->
<g id="node47" class="node">
<title>46</title>
<path fill="none" stroke="#d8b456" stroke-width="2" d="M510,-468C510,-468 428,-468 428,-468 422,-468 416,-462 416,-456 416,-456 416,-444 416,-444 416,-438 422,-432 428,-432 428,-432 510,-432 510,-432 516,-432 522,-438 522,-444 522,-444 522,-456 522,-456 522,-462 516,-468 510,-468"/>
<text text-anchor="middle" x="469" y="-447.5" font-family="sans" font-size="10.00" fill="#000000">cnv_sv_cnvkit_vcf</text>
</g>
<!-- 46&#45;&gt;45 -->
<g id="edge74" class="edge">
<title>46&#45;&gt;45</title>
<path fill="none" stroke="#c0c0c0" stroke-width="2" d="M466.2242,-431.8314C465.0478,-424.131 463.6489,-414.9743 462.3414,-406.4166"/>
<polygon fill="#c0c0c0" stroke="#c0c0c0" stroke-width="2" points="465.7833,-405.7699 460.8131,-396.4133 458.8636,-406.8272 465.7833,-405.7699"/>
</g>
<!-- 47&#45;&gt;46 -->
<g id="edge75" class="edge">
<title>47&#45;&gt;46</title>
<path fill="none" stroke="#c0c0c0" stroke-width="2" d="M469,-503.8314C469,-496.131 469,-486.9743 469,-478.4166"/>
<polygon fill="#c0c0c0" stroke="#c0c0c0" stroke-width="2" points="472.5001,-478.4132 469,-468.4133 465.5001,-478.4133 472.5001,-478.4132"/>
</g>
<!-- 48&#45;&gt;0 -->
<g id="edge8" class="edge">
<title>48&#45;&gt;0</title>
<path fill="none" stroke="#c0c0c0" stroke-width="2" d="M729.9342,-863.7554C746.1101,-837.2192 773,-785.903 773,-738 773,-738 773,-738 773,-162 773,-120.3681 757.9672,-74.14 746.8119,-45.567"/>
<polygon fill="#c0c0c0" stroke="#c0c0c0" stroke-width="2" points="750.0368,-44.2055 743.0588,-36.2332 743.5422,-46.817 750.0368,-44.2055"/>
</g>
<!-- 49&#45;&gt;0 -->
<g id="edge3" class="edge">
<title>49&#45;&gt;0</title>
<path fill="none" stroke="#c0c0c0" stroke-width="2" d="M684.4256,-503.6392C703.5751,-477.37 735,-426.8235 735,-378 735,-378 735,-378 735,-162 735,-121.876 735,-75.4631 735,-46.4177"/>
<polygon fill="#c0c0c0" stroke="#c0c0c0" stroke-width="2" points="738.5001,-46.1853 735,-36.1854 731.5001,-46.1854 738.5001,-46.1853"/>
</g>
<!-- 50&#45;&gt;0 -->
<g id="edge1" class="edge">
<title>50&#45;&gt;0</title>
<path fill="none" stroke="#c0c0c0" stroke-width="2" d="M377.6382,-143.8515C378.2829,-123.258 382.7084,-90.1792 403,-72 445.9424,-33.528 620.1659,-22.2779 697.5973,-19.1445"/>
<polygon fill="#c0c0c0" stroke="#c0c0c0" stroke-width="2" points="697.9974,-22.6319 707.8571,-18.7542 697.7312,-15.6369 697.9974,-22.6319"/>
</g>
<!-- 51 -->
<g id="node52" class="node">
<title>51</title>
<path fill="none" stroke="#97d856" stroke-width="2" d="M533.5,-108C533.5,-108 424.5,-108 424.5,-108 418.5,-108 412.5,-102 412.5,-96 412.5,-96 412.5,-84 412.5,-84 412.5,-78 418.5,-72 424.5,-72 424.5,-72 533.5,-72 533.5,-72 539.5,-72 545.5,-78 545.5,-84 545.5,-84 545.5,-96 545.5,-96 545.5,-102 539.5,-108 533.5,-108"/>
<text text-anchor="middle" x="479" y="-87.5" font-family="sans" font-size="10.00" fill="#000000">_copy_index_cnvkit_vcf</text>
</g>
<!-- 51&#45;&gt;0 -->
<g id="edge10" class="edge">
<title>51&#45;&gt;0</title>
<path fill="none" stroke="#c0c0c0" stroke-width="2" d="M543.2692,-71.9243C592.15,-58.1766 657.6784,-39.7467 698.0827,-28.383"/>
<polygon fill="#c0c0c0" stroke="#c0c0c0" stroke-width="2" points="699.1093,-31.7301 707.7882,-25.6533 697.2141,-24.9916 699.1093,-31.7301"/>
</g>
<!-- 52&#45;&gt;51 -->
<g id="edge81" class="edge">
<title>52&#45;&gt;51</title>
<path fill="none" stroke="#c0c0c0" stroke-width="2" d="M476.38,-215.7623C476.8916,-191.201 477.8073,-147.2474 478.4093,-118.3541"/>
<polygon fill="#c0c0c0" stroke="#c0c0c0" stroke-width="2" points="481.914,-118.1604 478.6231,-108.0896 474.9155,-118.0145 481.914,-118.1604"/>
</g>
</g>
</svg>
