<?xml version="1.0" encoding="UTF-8" standalone="no"?>
<!DOCTYPE svg PUBLIC "-//W3C//DTD SVG 1.1//EN"
 "http://www.w3.org/Graphics/SVG/1.1/DTD/svg11.dtd">
<!-- Generated by graphviz version 2.40.1 (0)
 -->
<!-- Title: snakemake_dag Pages: 1 -->
<svg width="1271pt" height="1700pt"
 viewBox="0.00 0.00 1270.50 1700.00" xmlns="http://www.w3.org/2000/svg" xmlns:xlink="http://www.w3.org/1999/xlink">
<g id="graph0" class="graph" transform="scale(1 1) rotate(0) translate(4 1696)">
<title>snakemake_dag</title>
<polygon fill="#ffffff" stroke="transparent" points="-4,4 -4,-1696 1266.5,-1696 1266.5,4 -4,4"/>
<!-- 0 -->
<g id="node1" class="node">
<title>0</title>
<path fill="none" stroke="#56d8d0" stroke-width="2" d="M754,-36C754,-36 724,-36 724,-36 718,-36 712,-30 712,-24 712,-24 712,-12 712,-12 712,-6 718,0 724,0 724,0 754,0 754,0 760,0 766,-6 766,-12 766,-12 766,-24 766,-24 766,-30 760,-36 754,-36"/>
<text text-anchor="middle" x="739" y="-15.5" font-family="sans" font-size="10.00" fill="#000000">all</text>
</g>
<!-- 1 -->
<g id="node2" class="node">
<title>1</title>
<path fill="none" stroke="#b6d856" stroke-width="2" d="M122,-468C122,-468 12,-468 12,-468 6,-468 0,-462 0,-456 0,-456 0,-444 0,-444 0,-438 6,-432 12,-432 12,-432 122,-432 122,-432 128,-432 134,-438 134,-444 134,-444 134,-456 134,-456 134,-462 128,-468 122,-468"/>
<text text-anchor="middle" x="67" y="-447.5" font-family="sans" font-size="10.00" fill="#000000">_copy_deepsomatic_vcf</text>
</g>
<!-- 1&#45;&gt;0 -->
<g id="edge4" class="edge">
<title>1&#45;&gt;0</title>
<path fill="none" stroke="#c0c0c0" stroke-width="2" d="M73.1502,-431.5984C81.6628,-404.4466 96,-351.9035 96,-306 96,-306 96,-306 96,-162 96,-115.8034 109.0821,-96.8901 148,-72 194.6505,-42.1644 579.7415,-24.357 701.9411,-19.4167"/>
<polygon fill="#c0c0c0" stroke="#c0c0c0" stroke-width="2" points="702.0887,-22.9137 711.9411,-19.0176 701.8094,-15.9193 702.0887,-22.9137"/>
</g>
<!-- 2 -->
<g id="node3" class="node">
<title>2</title>
<path fill="none" stroke="#8fd856" stroke-width="2" d="M267.5,-1188C267.5,-1188 130.5,-1188 130.5,-1188 124.5,-1188 118.5,-1182 118.5,-1176 118.5,-1176 118.5,-1164 118.5,-1164 118.5,-1158 124.5,-1152 130.5,-1152 130.5,-1152 267.5,-1152 267.5,-1152 273.5,-1152 279.5,-1158 279.5,-1164 279.5,-1164 279.5,-1176 279.5,-1176 279.5,-1182 273.5,-1188 267.5,-1188"/>
<text text-anchor="middle" x="199" y="-1167.5" font-family="sans" font-size="10.00" fill="#000000">annotation_vep_deepsomatic</text>
</g>
<!-- 2&#45;&gt;1 -->
<g id="edge15" class="edge">
<title>2&#45;&gt;1</title>
<path fill="none" stroke="#c0c0c0" stroke-width="2" d="M174.3289,-1151.8169C143.8573,-1127.0584 96,-1079.6361 96,-1026 96,-1026 96,-1026 96,-594 96,-553.1172 84.6276,-506.9678 76.126,-478.1802"/>
<polygon fill="#c0c0c0" stroke="#c0c0c0" stroke-width="2" points="79.41,-476.9494 73.1502,-468.4016 72.7133,-478.9874 79.41,-476.9494"/>
</g>
<!-- 3 -->
<g id="node4" class="node">
<title>3</title>
<path fill="none" stroke="#d6d856" stroke-width="2" d="M364.5,-1260C364.5,-1260 239.5,-1260 239.5,-1260 233.5,-1260 227.5,-1254 227.5,-1248 227.5,-1248 227.5,-1236 227.5,-1236 227.5,-1230 233.5,-1224 239.5,-1224 239.5,-1224 364.5,-1224 364.5,-1224 370.5,-1224 376.5,-1230 376.5,-1236 376.5,-1236 376.5,-1248 376.5,-1248 376.5,-1254 370.5,-1260 364.5,-1260"/>
<text text-anchor="middle" x="302" y="-1239.5" font-family="sans" font-size="10.00" fill="#000000">cnv_sv_tabix_deepsomatic</text>
</g>
<!-- 3&#45;&gt;2 -->
<g id="edge16" class="edge">
<title>3&#45;&gt;2</title>
<path fill="none" stroke="#c0c0c0" stroke-width="2" d="M276.0088,-1223.8314C263.0784,-1214.7927 247.2778,-1203.7476 233.3617,-1194.0198"/>
<polygon fill="#c0c0c0" stroke="#c0c0c0" stroke-width="2" points="235.1843,-1191.0235 224.9829,-1188.1628 231.1737,-1196.7608 235.1843,-1191.0235"/>
</g>
<!-- 4 -->
<g id="node5" class="node">
<title>4</title>
<path fill="none" stroke="#566bd8" stroke-width="2" d="M402,-1332C402,-1332 202,-1332 202,-1332 196,-1332 190,-1326 190,-1320 190,-1320 190,-1308 190,-1308 190,-1302 196,-1296 202,-1296 202,-1296 402,-1296 402,-1296 408,-1296 414,-1302 414,-1308 414,-1308 414,-1320 414,-1320 414,-1326 408,-1332 402,-1332"/>
<text text-anchor="middle" x="302" y="-1311.5" font-family="sans" font-size="10.00" fill="#000000">snv_indels_whatshap_phase_deepsomatic</text>
</g>
<!-- 4&#45;&gt;2 -->
<g id="edge17" class="edge">
<title>4&#45;&gt;2</title>
<path fill="none" stroke="#c0c0c0" stroke-width="2" d="M260.46,-1295.9345C244.9343,-1287.2099 228.5318,-1275.2708 218,-1260 205.5124,-1241.8933 200.9621,-1217.2179 199.423,-1198.2835"/>
<polygon fill="#c0c0c0" stroke="#c0c0c0" stroke-width="2" points="202.9093,-1197.9437 198.8369,-1188.1629 195.921,-1198.3485 202.9093,-1197.9437"/>
</g>
<!-- 4&#45;&gt;3 -->
<g id="edge18" class="edge">
<title>4&#45;&gt;3</title>
<path fill="none" stroke="#c0c0c0" stroke-width="2" d="M302,-1295.8314C302,-1288.131 302,-1278.9743 302,-1270.4166"/>
<polygon fill="#c0c0c0" stroke="#c0c0c0" stroke-width="2" points="305.5001,-1270.4132 302,-1260.4133 298.5001,-1270.4133 305.5001,-1270.4132"/>
</g>
<!-- 5 -->
<g id="node6" class="node">
<title>5</title>
<path fill="none" stroke="#97d856" stroke-width="2" d="M433,-1404C433,-1404 285,-1404 285,-1404 279,-1404 273,-1398 273,-1392 273,-1392 273,-1380 273,-1380 273,-1374 279,-1368 285,-1368 285,-1368 433,-1368 433,-1368 439,-1368 445,-1374 445,-1380 445,-1380 445,-1392 445,-1392 445,-1398 439,-1404 433,-1404"/>
<text text-anchor="middle" x="359" y="-1383.5" font-family="sans" font-size="10.00" fill="#000000">snv_indels_deepsomatic_t_only</text>
</g>
<!-- 5&#45;&gt;4 -->
<g id="edge20" class="edge">
<title>5&#45;&gt;4</title>
<path fill="none" stroke="#c0c0c0" stroke-width="2" d="M344.6165,-1367.8314C338.0514,-1359.5386 330.1493,-1349.557 322.9422,-1340.4533"/>
<polygon fill="#c0c0c0" stroke="#c0c0c0" stroke-width="2" points="325.5284,-1338.0813 316.5772,-1332.4133 320.0401,-1342.4262 325.5284,-1338.0813"/>
</g>
<!-- 6 -->
<g id="node7" class="node">
<title>6</title>
<path fill="none" stroke="#d8ac56" stroke-width="2" d="M820,-1548C820,-1548 698,-1548 698,-1548 692,-1548 686,-1542 686,-1536 686,-1536 686,-1524 686,-1524 686,-1518 692,-1512 698,-1512 698,-1512 820,-1512 820,-1512 826,-1512 832,-1518 832,-1524 832,-1524 832,-1536 832,-1536 832,-1542 826,-1548 820,-1548"/>
<text text-anchor="middle" x="759" y="-1527.5" font-family="sans" font-size="10.00" fill="#000000">alignment_pbmm2_merge</text>
</g>
<!-- 6&#45;&gt;4 -->
<g id="edge19" class="edge">
<title>6&#45;&gt;4</title>
<path fill="none" stroke="#c0c0c0" stroke-width="2" d="M685.9797,-1523.1843C559.8421,-1509.6293 310.1615,-1474.3385 264,-1404 250.8679,-1383.9899 263.7605,-1358.6927 277.9765,-1340.0177"/>
<polygon fill="#c0c0c0" stroke="#c0c0c0" stroke-width="2" points="280.7306,-1342.1781 284.2945,-1332.2006 275.2865,-1337.7779 280.7306,-1342.1781"/>
</g>
<!-- 6&#45;&gt;5 -->
<g id="edge22" class="edge">
<title>6&#45;&gt;5</title>
<path fill="none" stroke="#c0c0c0" stroke-width="2" d="M685.9686,-1522.3879C632.1835,-1515.0253 558.0886,-1501.1523 497,-1476 456.9049,-1459.4915 415.9048,-1430.9753 389.1312,-1410.4613"/>
<polygon fill="#c0c0c0" stroke="#c0c0c0" stroke-width="2" points="391.0007,-1407.4815 380.9575,-1404.1074 386.7046,-1413.0081 391.0007,-1407.4815"/>
</g>
<!-- 10 -->
<g id="node11" class="node">
<title>10</title>
<path fill="none" stroke="#5682d8" stroke-width="2" d="M718.5,-1476C718.5,-1476 551.5,-1476 551.5,-1476 545.5,-1476 539.5,-1470 539.5,-1464 539.5,-1464 539.5,-1452 539.5,-1452 539.5,-1446 545.5,-1440 551.5,-1440 551.5,-1440 718.5,-1440 718.5,-1440 724.5,-1440 730.5,-1446 730.5,-1452 730.5,-1452 730.5,-1464 730.5,-1464 730.5,-1470 724.5,-1476 718.5,-1476"/>
<text text-anchor="middle" x="635" y="-1455.5" font-family="sans" font-size="10.00" fill="#000000">alignment_samtools_index_pbmm2</text>
</g>
<!-- 6&#45;&gt;10 -->
<g id="edge27" class="edge">
<title>6&#45;&gt;10</title>
<path fill="none" stroke="#c0c0c0" stroke-width="2" d="M727.7096,-1511.8314C711.7023,-1502.5368 692.0414,-1491.1208 674.9506,-1481.1971"/>
<polygon fill="#c0c0c0" stroke="#c0c0c0" stroke-width="2" points="676.6858,-1478.1575 666.2804,-1476.1628 673.1708,-1484.211 676.6858,-1478.1575"/>
</g>
<!-- 16 -->
<g id="node17" class="node">
<title>16</title>
<path fill="none" stroke="#565bd8" stroke-width="2" d="M768.5,-1260C768.5,-1260 605.5,-1260 605.5,-1260 599.5,-1260 593.5,-1254 593.5,-1248 593.5,-1248 593.5,-1236 593.5,-1236 593.5,-1230 599.5,-1224 605.5,-1224 605.5,-1224 768.5,-1224 768.5,-1224 774.5,-1224 780.5,-1230 780.5,-1236 780.5,-1236 780.5,-1248 780.5,-1248 780.5,-1254 774.5,-1260 768.5,-1260"/>
<text text-anchor="middle" x="687" y="-1239.5" font-family="sans" font-size="10.00" fill="#000000">snv_indels_whatshap_phase_clairs</text>
</g>
<!-- 6&#45;&gt;16 -->
<g id="edge37" class="edge">
<title>6&#45;&gt;16</title>
<path fill="none" stroke="#c0c0c0" stroke-width="2" d="M768.8607,-1511.8551C790.3169,-1469.644 835.6385,-1363.3383 788,-1296 778.6329,-1282.7593 764.9808,-1272.474 750.7255,-1264.605"/>
<polygon fill="#c0c0c0" stroke="#c0c0c0" stroke-width="2" points="752.2976,-1261.4778 741.8045,-1260.0128 749.0938,-1267.7016 752.2976,-1261.4778"/>
</g>
<!-- 18 -->
<g id="node19" class="node">
<title>18</title>
<path fill="none" stroke="#d8d356" stroke-width="2" d="M778.5,-1404C778.5,-1404 665.5,-1404 665.5,-1404 659.5,-1404 653.5,-1398 653.5,-1392 653.5,-1392 653.5,-1380 653.5,-1380 653.5,-1374 659.5,-1368 665.5,-1368 665.5,-1368 778.5,-1368 778.5,-1368 784.5,-1368 790.5,-1374 790.5,-1380 790.5,-1380 790.5,-1392 790.5,-1392 790.5,-1398 784.5,-1404 778.5,-1404"/>
<text text-anchor="middle" x="722" y="-1383.5" font-family="sans" font-size="10.00" fill="#000000">snv_indels_clairs_to_call</text>
</g>
<!-- 6&#45;&gt;18 -->
<g id="edge39" class="edge">
<title>6&#45;&gt;18</title>
<path fill="none" stroke="#c0c0c0" stroke-width="2" d="M755.4685,-1511.9594C751.7843,-1493.709 745.6291,-1464.737 739,-1440 736.721,-1431.4958 733.9555,-1422.3313 731.3229,-1414.0099"/>
<polygon fill="#c0c0c0" stroke="#c0c0c0" stroke-width="2" points="734.6178,-1412.8233 728.2193,-1404.3787 727.9552,-1414.9703 734.6178,-1412.8233"/>
</g>
<!-- 23 -->
<g id="node24" class="node">
<title>23</title>
<path fill="none" stroke="#56d8c1" stroke-width="2" d="M998.5,-1404C998.5,-1404 897.5,-1404 897.5,-1404 891.5,-1404 885.5,-1398 885.5,-1392 885.5,-1392 885.5,-1380 885.5,-1380 885.5,-1374 891.5,-1368 897.5,-1368 897.5,-1368 998.5,-1368 998.5,-1368 1004.5,-1368 1010.5,-1374 1010.5,-1380 1010.5,-1380 1010.5,-1392 1010.5,-1392 1010.5,-1398 1004.5,-1404 998.5,-1404"/>
<text text-anchor="middle" x="948" y="-1383.5" font-family="sans" font-size="10.00" fill="#000000">cnv_sv_pbsv_discover</text>
</g>
<!-- 6&#45;&gt;23 -->
<g id="edge45" class="edge">
<title>6&#45;&gt;23</title>
<path fill="none" stroke="#c0c0c0" stroke-width="2" d="M807.2619,-1511.9649C828.0118,-1502.9297 851.8439,-1490.7501 871,-1476 894.4179,-1457.9685 915.8121,-1431.8144 930.0732,-1412.3425"/>
<polygon fill="#c0c0c0" stroke="#c0c0c0" stroke-width="2" points="932.939,-1414.352 935.9192,-1404.1849 927.2492,-1410.2745 932.939,-1414.352"/>
</g>
<!-- 25 -->
<g id="node26" class="node">
<title>25</title>
<path fill="none" stroke="#56d86b" stroke-width="2" d="M1134,-1476C1134,-1476 1070,-1476 1070,-1476 1064,-1476 1058,-1470 1058,-1464 1058,-1464 1058,-1452 1058,-1452 1058,-1446 1064,-1440 1070,-1440 1070,-1440 1134,-1440 1134,-1440 1140,-1440 1146,-1446 1146,-1452 1146,-1452 1146,-1464 1146,-1464 1146,-1470 1140,-1476 1134,-1476"/>
<text text-anchor="middle" x="1102" y="-1455.5" font-family="sans" font-size="10.00" fill="#000000">cnv_sv_hificnv</text>
</g>
<!-- 6&#45;&gt;25 -->
<g id="edge48" class="edge">
<title>6&#45;&gt;25</title>
<path fill="none" stroke="#c0c0c0" stroke-width="2" d="M832.1614,-1514.6425C896.7518,-1501.0842 989.45,-1481.6257 1047.6564,-1469.4074"/>
<polygon fill="#c0c0c0" stroke="#c0c0c0" stroke-width="2" points="1048.6866,-1472.7675 1057.7542,-1467.2877 1047.2485,-1465.9168 1048.6866,-1472.7675"/>
</g>
<!-- 29 -->
<g id="node30" class="node">
<title>29</title>
<path fill="none" stroke="#d8a456" stroke-width="2" d="M932.5,-1332C932.5,-1332 859.5,-1332 859.5,-1332 853.5,-1332 847.5,-1326 847.5,-1320 847.5,-1320 847.5,-1308 847.5,-1308 847.5,-1302 853.5,-1296 859.5,-1296 859.5,-1296 932.5,-1296 932.5,-1296 938.5,-1296 944.5,-1302 944.5,-1308 944.5,-1308 944.5,-1320 944.5,-1320 944.5,-1326 938.5,-1332 932.5,-1332"/>
<text text-anchor="middle" x="896" y="-1311.5" font-family="sans" font-size="10.00" fill="#000000">cnv_sv_sniffles2</text>
</g>
<!-- 6&#45;&gt;29 -->
<g id="edge53" class="edge">
<title>6&#45;&gt;29</title>
<path fill="none" stroke="#c0c0c0" stroke-width="2" d="M791.8431,-1511.8533C806.0628,-1502.6517 821.9463,-1490.3714 833,-1476 837.3081,-1470.3988 869.0465,-1386.2472 885.7632,-1341.5055"/>
<polygon fill="#c0c0c0" stroke="#c0c0c0" stroke-width="2" points="889.0628,-1342.6739 889.2799,-1332.0813 882.5046,-1340.2266 889.0628,-1342.6739"/>
</g>
<!-- 37 -->
<g id="node38" class="node">
<title>37</title>
<path fill="none" stroke="#d8cb56" stroke-width="2" d="M584.5,-1116C584.5,-1116 439.5,-1116 439.5,-1116 433.5,-1116 427.5,-1110 427.5,-1104 427.5,-1104 427.5,-1092 427.5,-1092 427.5,-1086 433.5,-1080 439.5,-1080 439.5,-1080 584.5,-1080 584.5,-1080 590.5,-1080 596.5,-1086 596.5,-1092 596.5,-1092 596.5,-1104 596.5,-1104 596.5,-1110 590.5,-1116 584.5,-1116"/>
<text text-anchor="middle" x="512" y="-1095.5" font-family="sans" font-size="10.00" fill="#000000">snv_indels_whatshap_haplotag</text>
</g>
<!-- 6&#45;&gt;37 -->
<g id="edge65" class="edge">
<title>6&#45;&gt;37</title>
<path fill="none" stroke="#c0c0c0" stroke-width="2" d="M685.9046,-1521.3333C627.3496,-1512.8851 551.549,-1498.0619 530,-1476 501.4343,-1446.7543 511,-1426.8816 511,-1386 511,-1386 511,-1386 511,-1242 511,-1201.875 511.3931,-1155.4624 511.6863,-1126.4173"/>
<polygon fill="#c0c0c0" stroke="#c0c0c0" stroke-width="2" points="515.1885,-1126.221 511.7928,-1116.1851 508.1888,-1126.1481 515.1885,-1126.221"/>
</g>
<!-- 7 -->
<g id="node8" class="node">
<title>7</title>
<path fill="none" stroke="#d87d56" stroke-width="2" d="M816,-1620C816,-1620 702,-1620 702,-1620 696,-1620 690,-1614 690,-1608 690,-1608 690,-1596 690,-1596 690,-1590 696,-1584 702,-1584 702,-1584 816,-1584 816,-1584 822,-1584 828,-1590 828,-1596 828,-1596 828,-1608 828,-1608 828,-1614 822,-1620 816,-1620"/>
<text text-anchor="middle" x="759" y="-1599.5" font-family="sans" font-size="10.00" fill="#000000">alignment_pbmm2_align</text>
</g>
<!-- 7&#45;&gt;6 -->
<g id="edge24" class="edge">
<title>7&#45;&gt;6</title>
<path fill="none" stroke="#c0c0c0" stroke-width="2" d="M759,-1583.8314C759,-1576.131 759,-1566.9743 759,-1558.4166"/>
<polygon fill="#c0c0c0" stroke="#c0c0c0" stroke-width="2" points="762.5001,-1558.4132 759,-1548.4133 755.5001,-1558.4133 762.5001,-1558.4132"/>
</g>
<!-- 8 -->
<g id="node9" class="node">
<title>8</title>
<path fill="none" stroke="#5673d8" stroke-width="2" d="M738.5,-1692C738.5,-1692 619.5,-1692 619.5,-1692 613.5,-1692 607.5,-1686 607.5,-1680 607.5,-1680 607.5,-1668 607.5,-1668 607.5,-1662 613.5,-1656 619.5,-1656 619.5,-1656 738.5,-1656 738.5,-1656 744.5,-1656 750.5,-1662 750.5,-1668 750.5,-1668 750.5,-1680 750.5,-1680 750.5,-1686 744.5,-1692 738.5,-1692"/>
<text text-anchor="middle" x="679" y="-1671.5" font-family="sans" font-size="10.00" fill="#000000">prealignment_pbmarkdup</text>
</g>
<!-- 8&#45;&gt;7 -->
<g id="edge26" class="edge">
<title>8&#45;&gt;7</title>
<path fill="none" stroke="#c0c0c0" stroke-width="2" d="M699.1874,-1655.8314C708.8514,-1647.1337 720.5796,-1636.5783 731.0816,-1627.1265"/>
<polygon fill="#c0c0c0" stroke="#c0c0c0" stroke-width="2" points="733.7275,-1629.454 738.8191,-1620.1628 729.0447,-1624.251 733.7275,-1629.454"/>
</g>
<!-- 9 -->
<g id="node10" class="node">
<title>9</title>
<path fill="none" stroke="#d85656" stroke-width="2" d="M897.5,-1692C897.5,-1692 780.5,-1692 780.5,-1692 774.5,-1692 768.5,-1686 768.5,-1680 768.5,-1680 768.5,-1668 768.5,-1668 768.5,-1662 774.5,-1656 780.5,-1656 780.5,-1656 897.5,-1656 897.5,-1656 903.5,-1656 909.5,-1662 909.5,-1668 909.5,-1668 909.5,-1680 909.5,-1680 909.5,-1686 903.5,-1692 897.5,-1692"/>
<text text-anchor="middle" x="839" y="-1671.5" font-family="sans" font-size="10.00" fill="#000000">alignment_pbmm2_index</text>
</g>
<!-- 9&#45;&gt;7 -->
<g id="edge25" class="edge">
<title>9&#45;&gt;7</title>
<path fill="none" stroke="#c0c0c0" stroke-width="2" d="M818.8126,-1655.8314C809.1486,-1647.1337 797.4204,-1636.5783 786.9184,-1627.1265"/>
<polygon fill="#c0c0c0" stroke="#c0c0c0" stroke-width="2" points="788.9553,-1624.251 779.1809,-1620.1628 784.2725,-1629.454 788.9553,-1624.251"/>
</g>
<!-- 10&#45;&gt;4 -->
<g id="edge21" class="edge">
<title>10&#45;&gt;4</title>
<path fill="none" stroke="#c0c0c0" stroke-width="2" d="M601.5417,-1439.8456C565.6375,-1420.7252 506.6564,-1390.3494 454,-1368 426.1045,-1356.1601 394.6333,-1344.6812 367.5935,-1335.3736"/>
<polygon fill="#c0c0c0" stroke="#c0c0c0" stroke-width="2" points="368.4413,-1331.9647 357.8468,-1332.0461 366.1796,-1338.5893 368.4413,-1331.9647"/>
</g>
<!-- 10&#45;&gt;5 -->
<g id="edge23" class="edge">
<title>10&#45;&gt;5</title>
<path fill="none" stroke="#c0c0c0" stroke-width="2" d="M565.7098,-1439.9243C526.9127,-1429.8033 478.388,-1417.1447 438.1049,-1406.6361"/>
<polygon fill="#c0c0c0" stroke="#c0c0c0" stroke-width="2" points="438.8784,-1403.2208 428.3187,-1404.0831 437.1114,-1409.9941 438.8784,-1403.2208"/>
</g>
<!-- 10&#45;&gt;16 -->
<g id="edge36" class="edge">
<title>10&#45;&gt;16</title>
<path fill="none" stroke="#c0c0c0" stroke-width="2" d="M627.1098,-1439.8984C614.7972,-1408.7584 594.7135,-1343.7942 618,-1296 623.7304,-1284.2386 633.3987,-1274.2849 643.7121,-1266.2518"/>
<polygon fill="#c0c0c0" stroke="#c0c0c0" stroke-width="2" points="646.0013,-1268.9159 652.0585,-1260.2233 641.9026,-1263.2412 646.0013,-1268.9159"/>
</g>
<!-- 10&#45;&gt;18 -->
<g id="edge40" class="edge">
<title>10&#45;&gt;18</title>
<path fill="none" stroke="#c0c0c0" stroke-width="2" d="M656.9538,-1439.8314C667.6695,-1430.9632 680.7189,-1420.1637 692.309,-1410.5718"/>
<polygon fill="#c0c0c0" stroke="#c0c0c0" stroke-width="2" points="694.5808,-1413.2349 700.0533,-1404.1628 690.1178,-1407.8422 694.5808,-1413.2349"/>
</g>
<!-- 10&#45;&gt;23 -->
<g id="edge46" class="edge">
<title>10&#45;&gt;23</title>
<path fill="none" stroke="#c0c0c0" stroke-width="2" d="M713.5791,-1439.9243C763.3026,-1428.4863 827.1155,-1413.8073 875.6046,-1402.6533"/>
<polygon fill="#c0c0c0" stroke="#c0c0c0" stroke-width="2" points="876.4376,-1406.0531 885.3985,-1400.4003 874.8684,-1399.2313 876.4376,-1406.0531"/>
</g>
<!-- 10&#45;&gt;29 -->
<g id="edge54" class="edge">
<title>10&#45;&gt;29</title>
<path fill="none" stroke="#c0c0c0" stroke-width="2" d="M631.1117,-1439.6547C627.9975,-1419.504 626.6229,-1387.4298 644,-1368 650.4987,-1360.7336 764.9698,-1338.3288 837.3711,-1324.7687"/>
<polygon fill="#c0c0c0" stroke="#c0c0c0" stroke-width="2" points="838.1046,-1328.1923 847.2924,-1322.9165 836.8199,-1321.3112 838.1046,-1328.1923"/>
</g>
<!-- 10&#45;&gt;37 -->
<g id="edge66" class="edge">
<title>10&#45;&gt;37</title>
<path fill="none" stroke="#c0c0c0" stroke-width="2" d="M615.0537,-1439.6161C589.6484,-1414.0935 549,-1365.2496 549,-1314 549,-1314 549,-1314 549,-1242 549,-1200.4385 534.3628,-1154.1923 523.501,-1125.5961"/>
<polygon fill="#c0c0c0" stroke="#c0c0c0" stroke-width="2" points="526.7492,-1124.2919 519.8467,-1116.254 520.2302,-1126.8419 526.7492,-1124.2919"/>
</g>
<!-- 11 -->
<g id="node12" class="node">
<title>11</title>
<path fill="none" stroke="#78d856" stroke-width="2" d="M973,-396C973,-396 813,-396 813,-396 807,-396 801,-390 801,-384 801,-384 801,-372 801,-372 801,-366 807,-360 813,-360 813,-360 973,-360 973,-360 979,-360 985,-366 985,-372 985,-372 985,-384 985,-384 985,-390 979,-396 973,-396"/>
<text text-anchor="middle" x="893" y="-375.5" font-family="sans" font-size="10.00" fill="#000000">_copy_clairs_panel_annotated_vcf</text>
</g>
<!-- 11&#45;&gt;0 -->
<g id="edge13" class="edge">
<title>11&#45;&gt;0</title>
<path fill="none" stroke="#c0c0c0" stroke-width="2" d="M893,-359.8146C893,-332.4983 893,-279.25 893,-234 893,-234 893,-234 893,-162 893,-97.9259 820.9956,-54.1487 775.4577,-32.8696"/>
<polygon fill="#c0c0c0" stroke="#c0c0c0" stroke-width="2" points="776.7313,-29.6043 766.1776,-28.6712 773.8459,-35.982 776.7313,-29.6043"/>
</g>
<!-- 12 -->
<g id="node13" class="node">
<title>12</title>
<path fill="none" stroke="#56a9d8" stroke-width="2" d="M755,-900C755,-900 693,-900 693,-900 687,-900 681,-894 681,-888 681,-888 681,-876 681,-876 681,-870 687,-864 693,-864 693,-864 755,-864 755,-864 761,-864 767,-870 767,-876 767,-876 767,-888 767,-888 767,-894 761,-900 755,-900"/>
<text text-anchor="middle" x="724" y="-879.5" font-family="sans" font-size="10.00" fill="#000000">bgzip_vep_vcf</text>
</g>
<!-- 12&#45;&gt;11 -->
<g id="edge28" class="edge">
<title>12&#45;&gt;11</title>
<path fill="none" stroke="#c0c0c0" stroke-width="2" d="M728.8642,-863.9127C737.0307,-833.8639 754.2533,-771.8314 771,-720 809.1217,-602.0126 860.6828,-463.4408 882.5278,-405.5657"/>
<polygon fill="#c0c0c0" stroke="#c0c0c0" stroke-width="2" points="885.8682,-406.6272 886.1319,-396.0357 879.3208,-404.1511 885.8682,-406.6272"/>
</g>
<!-- 42 -->
<g id="node43" class="node">
<title>42</title>
<path fill="none" stroke="#56d88a" stroke-width="2" d="M712,-756C712,-756 556,-756 556,-756 550,-756 544,-750 544,-744 544,-744 544,-732 544,-732 544,-726 550,-720 556,-720 556,-720 712,-720 712,-720 718,-720 724,-726 724,-732 724,-732 724,-744 724,-744 724,-750 718,-756 712,-756"/>
<text text-anchor="middle" x="634" y="-735.5" font-family="sans" font-size="10.00" fill="#000000">filtering_filter_vep_annotated_vcf</text>
</g>
<!-- 12&#45;&gt;42 -->
<g id="edge74" class="edge">
<title>12&#45;&gt;42</title>
<path fill="none" stroke="#c0c0c0" stroke-width="2" d="M718.7925,-863.749C712.8824,-844.8186 702.0681,-814.8465 687,-792 680.2315,-781.7375 671.3288,-771.7617 662.7567,-763.2345"/>
<polygon fill="#c0c0c0" stroke="#c0c0c0" stroke-width="2" points="665.0082,-760.5442 655.3708,-756.143 660.1601,-765.5935 665.0082,-760.5442"/>
</g>
<!-- 43 -->
<g id="node44" class="node">
<title>43</title>
<path fill="none" stroke="#56d8b1" stroke-width="2" d="M666.5,-828C666.5,-828 605.5,-828 605.5,-828 599.5,-828 593.5,-822 593.5,-816 593.5,-816 593.5,-804 593.5,-804 593.5,-798 599.5,-792 605.5,-792 605.5,-792 666.5,-792 666.5,-792 672.5,-792 678.5,-798 678.5,-804 678.5,-804 678.5,-816 678.5,-816 678.5,-822 672.5,-828 666.5,-828"/>
<text text-anchor="middle" x="636" y="-807.5" font-family="sans" font-size="10.00" fill="#000000">tabix_vep_vcf</text>
</g>
<!-- 12&#45;&gt;43 -->
<g id="edge75" class="edge">
<title>12&#45;&gt;43</title>
<path fill="none" stroke="#c0c0c0" stroke-width="2" d="M701.7939,-863.8314C690.955,-854.9632 677.7556,-844.1637 666.0322,-834.5718"/>
<polygon fill="#c0c0c0" stroke="#c0c0c0" stroke-width="2" points="668.155,-831.7864 658.199,-828.1628 663.7223,-837.2041 668.155,-831.7864"/>
</g>
<!-- 56 -->
<g id="node57" class="node">
<title>56</title>
<path fill="none" stroke="#d88d56" stroke-width="2" d="M930.5,-828C930.5,-828 799.5,-828 799.5,-828 793.5,-828 787.5,-822 787.5,-816 787.5,-816 787.5,-804 787.5,-804 787.5,-798 793.5,-792 799.5,-792 799.5,-792 930.5,-792 930.5,-792 936.5,-792 942.5,-798 942.5,-804 942.5,-804 942.5,-816 942.5,-816 942.5,-822 936.5,-828 930.5,-828"/>
<text text-anchor="middle" x="865" y="-807.5" font-family="sans" font-size="10.00" fill="#000000">reports_compile_xlsx_report</text>
</g>
<!-- 12&#45;&gt;56 -->
<g id="edge89" class="edge">
<title>12&#45;&gt;56</title>
<path fill="none" stroke="#c0c0c0" stroke-width="2" d="M759.5803,-863.8314C778.0325,-854.4089 800.7545,-842.8062 820.373,-832.7883"/>
<polygon fill="#c0c0c0" stroke="#c0c0c0" stroke-width="2" points="822.1168,-835.8278 829.4311,-828.1628 818.9333,-829.5935 822.1168,-835.8278"/>
</g>
<!-- 13 -->
<g id="node14" class="node">
<title>13</title>
<path fill="none" stroke="#a7d856" stroke-width="2" d="M774,-972C774,-972 674,-972 674,-972 668,-972 662,-966 662,-960 662,-960 662,-948 662,-948 662,-942 668,-936 674,-936 674,-936 774,-936 774,-936 780,-936 786,-942 786,-948 786,-948 786,-960 786,-960 786,-966 780,-972 774,-972"/>
<text text-anchor="middle" x="724" y="-951.5" font-family="sans" font-size="10.00" fill="#000000">annotation_vep_clairs</text>
</g>
<!-- 13&#45;&gt;12 -->
<g id="edge29" class="edge">
<title>13&#45;&gt;12</title>
<path fill="none" stroke="#c0c0c0" stroke-width="2" d="M724,-935.8314C724,-928.131 724,-918.9743 724,-910.4166"/>
<polygon fill="#c0c0c0" stroke="#c0c0c0" stroke-width="2" points="727.5001,-910.4132 724,-900.4133 720.5001,-910.4133 727.5001,-910.4132"/>
</g>
<!-- 14 -->
<g id="node15" class="node">
<title>14</title>
<path fill="none" stroke="#56d873" stroke-width="2" d="M800.5,-1044C800.5,-1044 671.5,-1044 671.5,-1044 665.5,-1044 659.5,-1038 659.5,-1032 659.5,-1032 659.5,-1020 659.5,-1020 659.5,-1014 665.5,-1008 671.5,-1008 671.5,-1008 800.5,-1008 800.5,-1008 806.5,-1008 812.5,-1014 812.5,-1020 812.5,-1020 812.5,-1032 812.5,-1032 812.5,-1038 806.5,-1044 800.5,-1044"/>
<text text-anchor="middle" x="736" y="-1023.5" font-family="sans" font-size="10.00" fill="#000000">cnv_sv_tabix_include_panel</text>
</g>
<!-- 14&#45;&gt;13 -->
<g id="edge30" class="edge">
<title>14&#45;&gt;13</title>
<path fill="none" stroke="#c0c0c0" stroke-width="2" d="M732.9719,-1007.8314C731.6885,-1000.131 730.1624,-990.9743 728.7361,-982.4166"/>
<polygon fill="#c0c0c0" stroke="#c0c0c0" stroke-width="2" points="732.1653,-981.7018 727.0689,-972.4133 725.2606,-982.8526 732.1653,-981.7018"/>
</g>
<!-- 15 -->
<g id="node16" class="node">
<title>15</title>
<path fill="none" stroke="#68d856" stroke-width="2" d="M839,-1116C839,-1116 629,-1116 629,-1116 623,-1116 617,-1110 617,-1104 617,-1104 617,-1092 617,-1092 617,-1086 623,-1080 629,-1080 629,-1080 839,-1080 839,-1080 845,-1080 851,-1086 851,-1092 851,-1092 851,-1104 851,-1104 851,-1110 845,-1116 839,-1116"/>
<text text-anchor="middle" x="734" y="-1095.5" font-family="sans" font-size="10.00" fill="#000000">filtering_bcftools_filter_include_region_clairs</text>
</g>
<!-- 15&#45;&gt;13 -->
<g id="edge31" class="edge">
<title>15&#45;&gt;13</title>
<path fill="none" stroke="#c0c0c0" stroke-width="2" d="M689.0211,-1079.9855C673.826,-1071.4759 658.5568,-1059.6732 650,-1044 642.333,-1029.9566 642.751,-1022.2637 650,-1008 656.1439,-995.9109 666.4043,-985.8843 677.3574,-977.8874"/>
<polygon fill="#c0c0c0" stroke="#c0c0c0" stroke-width="2" points="679.4907,-980.6699 685.8117,-972.1672 675.568,-974.8723 679.4907,-980.6699"/>
</g>
<!-- 15&#45;&gt;14 -->
<g id="edge32" class="edge">
<title>15&#45;&gt;14</title>
<path fill="none" stroke="#c0c0c0" stroke-width="2" d="M734.5047,-1079.8314C734.7186,-1072.131 734.9729,-1062.9743 735.2106,-1054.4166"/>
<polygon fill="#c0c0c0" stroke="#c0c0c0" stroke-width="2" points="738.7094,-1054.5066 735.4885,-1044.4133 731.7121,-1054.3122 738.7094,-1054.5066"/>
</g>
<!-- 16&#45;&gt;15 -->
<g id="edge34" class="edge">
<title>16&#45;&gt;15</title>
<path fill="none" stroke="#c0c0c0" stroke-width="2" d="M709.675,-1223.9909C719.7888,-1214.4972 730.6198,-1201.9355 736,-1188 743.5758,-1168.3774 742.6333,-1144.5121 740.0351,-1126.2886"/>
<polygon fill="#c0c0c0" stroke="#c0c0c0" stroke-width="2" points="743.4642,-1125.573 738.3659,-1116.2855 736.5596,-1126.7252 743.4642,-1125.573"/>
</g>
<!-- 19 -->
<g id="node20" class="node">
<title>19</title>
<path fill="none" stroke="#567bd8" stroke-width="2" d="M715,-1188C715,-1188 627,-1188 627,-1188 621,-1188 615,-1182 615,-1176 615,-1176 615,-1164 615,-1164 615,-1158 621,-1152 627,-1152 627,-1152 715,-1152 715,-1152 721,-1152 727,-1158 727,-1164 727,-1164 727,-1176 727,-1176 727,-1182 721,-1188 715,-1188"/>
<text text-anchor="middle" x="671" y="-1167.5" font-family="sans" font-size="10.00" fill="#000000">cnv_sv_tabix_clairs</text>
</g>
<!-- 16&#45;&gt;19 -->
<g id="edge41" class="edge">
<title>16&#45;&gt;19</title>
<path fill="none" stroke="#c0c0c0" stroke-width="2" d="M682.9625,-1223.8314C681.2513,-1216.131 679.2165,-1206.9743 677.3148,-1198.4166"/>
<polygon fill="#c0c0c0" stroke="#c0c0c0" stroke-width="2" points="680.6779,-1197.4159 675.0918,-1188.4133 673.8446,-1198.9344 680.6779,-1197.4159"/>
</g>
<!-- 16&#45;&gt;37 -->
<g id="edge68" class="edge">
<title>16&#45;&gt;37</title>
<path fill="none" stroke="#c0c0c0" stroke-width="2" d="M657.2611,-1223.9486C641.5511,-1213.9779 622.2187,-1201.004 606,-1188 581.0136,-1167.9661 554.8776,-1142.5245 536.5259,-1123.8062"/>
<polygon fill="#c0c0c0" stroke="#c0c0c0" stroke-width="2" points="538.6431,-1120.9628 529.1636,-1116.2311 533.6234,-1125.8415 538.6431,-1120.9628"/>
</g>
<!-- 17 -->
<g id="node18" class="node">
<title>17</title>
<path fill="none" stroke="#56d863" stroke-width="2" d="M767,-1332C767,-1332 639,-1332 639,-1332 633,-1332 627,-1326 627,-1320 627,-1320 627,-1308 627,-1308 627,-1302 633,-1296 639,-1296 639,-1296 767,-1296 767,-1296 773,-1296 779,-1302 779,-1308 779,-1308 779,-1320 779,-1320 779,-1326 773,-1332 767,-1332"/>
<text text-anchor="middle" x="703" y="-1311.5" font-family="sans" font-size="10.00" fill="#000000">snv_indels_clairs_to_concat</text>
</g>
<!-- 17&#45;&gt;16 -->
<g id="edge35" class="edge">
<title>17&#45;&gt;16</title>
<path fill="none" stroke="#c0c0c0" stroke-width="2" d="M698.9625,-1295.8314C697.2513,-1288.131 695.2165,-1278.9743 693.3148,-1270.4166"/>
<polygon fill="#c0c0c0" stroke="#c0c0c0" stroke-width="2" points="696.6779,-1269.4159 691.0918,-1260.4133 689.8446,-1270.9344 696.6779,-1269.4159"/>
</g>
<!-- 18&#45;&gt;17 -->
<g id="edge38" class="edge">
<title>18&#45;&gt;17</title>
<path fill="none" stroke="#c0c0c0" stroke-width="2" d="M717.2055,-1367.8314C715.1511,-1360.0463 712.704,-1350.7729 710.4244,-1342.1347"/>
<polygon fill="#c0c0c0" stroke="#c0c0c0" stroke-width="2" points="713.7948,-1341.1892 707.8591,-1332.4133 707.0265,-1342.9753 713.7948,-1341.1892"/>
</g>
<!-- 19&#45;&gt;15 -->
<g id="edge33" class="edge">
<title>19&#45;&gt;15</title>
<path fill="none" stroke="#c0c0c0" stroke-width="2" d="M686.8976,-1151.8314C694.2278,-1143.454 703.066,-1133.3531 711.0969,-1124.1749"/>
<polygon fill="#c0c0c0" stroke="#c0c0c0" stroke-width="2" points="713.9373,-1126.2438 717.8884,-1116.4133 708.6693,-1121.6343 713.9373,-1126.2438"/>
</g>
<!-- 19&#45;&gt;37 -->
<g id="edge67" class="edge">
<title>19&#45;&gt;37</title>
<path fill="none" stroke="#c0c0c0" stroke-width="2" d="M630.8776,-1151.8314C609.7068,-1142.2446 583.5517,-1130.4008 561.1697,-1120.2655"/>
<polygon fill="#c0c0c0" stroke="#c0c0c0" stroke-width="2" points="562.3872,-1116.9748 551.8339,-1116.038 559.4997,-1123.3515 562.3872,-1116.9748"/>
</g>
<!-- 20 -->
<g id="node21" class="node">
<title>20</title>
<path fill="none" stroke="#56d8d8" stroke-width="2" d="M1181,-1044C1181,-1044 1111,-1044 1111,-1044 1105,-1044 1099,-1038 1099,-1032 1099,-1032 1099,-1020 1099,-1020 1099,-1014 1105,-1008 1111,-1008 1111,-1008 1181,-1008 1181,-1008 1187,-1008 1193,-1014 1193,-1020 1193,-1020 1193,-1032 1193,-1032 1193,-1038 1187,-1044 1181,-1044"/>
<text text-anchor="middle" x="1146" y="-1023.5" font-family="sans" font-size="10.00" fill="#000000">_copy_pbsv_vcf</text>
</g>
<!-- 20&#45;&gt;0 -->
<g id="edge14" class="edge">
<title>20&#45;&gt;0</title>
<path fill="none" stroke="#c0c0c0" stroke-width="2" d="M1146,-1007.8146C1146,-980.4983 1146,-927.25 1146,-882 1146,-882 1146,-882 1146,-162 1146,-120.6022 1152.9826,-99.4564 1122,-72 1096.3181,-49.241 867.4688,-28.3991 776.2691,-20.9227"/>
<polygon fill="#c0c0c0" stroke="#c0c0c0" stroke-width="2" points="776.355,-17.4182 766.1048,-20.0982 775.789,-24.3953 776.355,-17.4182"/>
</g>
<!-- 21 -->
<g id="node22" class="node">
<title>21</title>
<path fill="none" stroke="#56b9d8" stroke-width="2" d="M1101,-1260C1101,-1260 1043,-1260 1043,-1260 1037,-1260 1031,-1254 1031,-1248 1031,-1248 1031,-1236 1031,-1236 1031,-1230 1037,-1224 1043,-1224 1043,-1224 1101,-1224 1101,-1224 1107,-1224 1113,-1230 1113,-1236 1113,-1236 1113,-1248 1113,-1248 1113,-1254 1107,-1260 1101,-1260"/>
<text text-anchor="middle" x="1072" y="-1239.5" font-family="sans" font-size="10.00" fill="#000000">cnv_sv_bgzip</text>
</g>
<!-- 21&#45;&gt;20 -->
<g id="edge42" class="edge">
<title>21&#45;&gt;20</title>
<path fill="none" stroke="#c0c0c0" stroke-width="2" d="M1078.1819,-1223.9555C1091.1047,-1186.235 1121.0528,-1098.8188 1136.4623,-1053.8399"/>
<polygon fill="#c0c0c0" stroke="#c0c0c0" stroke-width="2" points="1139.8536,-1054.7397 1139.7836,-1044.1451 1133.2315,-1052.4709 1139.8536,-1054.7397"/>
</g>
<!-- 22 -->
<g id="node23" class="node">
<title>22</title>
<path fill="none" stroke="#56c9d8" stroke-width="2" d="M1071.5,-1332C1071.5,-1332 994.5,-1332 994.5,-1332 988.5,-1332 982.5,-1326 982.5,-1320 982.5,-1320 982.5,-1308 982.5,-1308 982.5,-1302 988.5,-1296 994.5,-1296 994.5,-1296 1071.5,-1296 1071.5,-1296 1077.5,-1296 1083.5,-1302 1083.5,-1308 1083.5,-1308 1083.5,-1320 1083.5,-1320 1083.5,-1326 1077.5,-1332 1071.5,-1332"/>
<text text-anchor="middle" x="1033" y="-1311.5" font-family="sans" font-size="10.00" fill="#000000">cnv_sv_pbsv_call</text>
</g>
<!-- 22&#45;&gt;21 -->
<g id="edge43" class="edge">
<title>22&#45;&gt;21</title>
<path fill="none" stroke="#c0c0c0" stroke-width="2" d="M1042.8413,-1295.8314C1047.1957,-1287.7925 1052.4098,-1278.1666 1057.2169,-1269.2918"/>
<polygon fill="#c0c0c0" stroke="#c0c0c0" stroke-width="2" points="1060.3408,-1270.8732 1062.0261,-1260.4133 1054.1857,-1267.5392 1060.3408,-1270.8732"/>
</g>
<!-- 23&#45;&gt;22 -->
<g id="edge44" class="edge">
<title>23&#45;&gt;22</title>
<path fill="none" stroke="#c0c0c0" stroke-width="2" d="M969.4491,-1367.8314C979.8178,-1359.0485 992.4229,-1348.3712 1003.6646,-1338.8489"/>
<polygon fill="#c0c0c0" stroke="#c0c0c0" stroke-width="2" points="1006.1895,-1341.297 1011.5578,-1332.1628 1001.6651,-1335.9556 1006.1895,-1341.297"/>
</g>
<!-- 24 -->
<g id="node25" class="node">
<title>24</title>
<path fill="none" stroke="#9fd856" stroke-width="2" d="M1250.5,-1188C1250.5,-1188 1171.5,-1188 1171.5,-1188 1165.5,-1188 1159.5,-1182 1159.5,-1176 1159.5,-1176 1159.5,-1164 1159.5,-1164 1159.5,-1158 1165.5,-1152 1171.5,-1152 1171.5,-1152 1250.5,-1152 1250.5,-1152 1256.5,-1152 1262.5,-1158 1262.5,-1164 1262.5,-1164 1262.5,-1176 1262.5,-1176 1262.5,-1182 1256.5,-1188 1250.5,-1188"/>
<text text-anchor="middle" x="1211" y="-1167.5" font-family="sans" font-size="10.00" fill="#000000">_copy_hificnv_vcf</text>
</g>
<!-- 24&#45;&gt;0 -->
<g id="edge9" class="edge">
<title>24&#45;&gt;0</title>
<path fill="none" stroke="#c0c0c0" stroke-width="2" d="M1213.072,-1151.8427C1216.0011,-1124.5621 1221,-1071.359 1221,-1026 1221,-1026 1221,-1026 1221,-162 1221,-110.4962 1192.9423,-97.1562 1148,-72 1084.5647,-36.4925 864.5588,-23.3426 776.1785,-19.4196"/>
<polygon fill="#c0c0c0" stroke="#c0c0c0" stroke-width="2" points="776.2131,-15.9179 766.0722,-18.986 775.913,-22.9115 776.2131,-15.9179"/>
</g>
<!-- 25&#45;&gt;24 -->
<g id="edge47" class="edge">
<title>25&#45;&gt;24</title>
<path fill="none" stroke="#c0c0c0" stroke-width="2" d="M1108.8184,-1439.9843C1127.2846,-1391.1929 1178.3614,-1256.2377 1200.5191,-1197.6927"/>
<polygon fill="#c0c0c0" stroke="#c0c0c0" stroke-width="2" points="1203.9178,-1198.6004 1204.1841,-1188.0089 1197.371,-1196.1225 1203.9178,-1198.6004"/>
</g>
<!-- 26 -->
<g id="node27" class="node">
<title>26</title>
<path fill="none" stroke="#56d87b" stroke-width="2" d="M1068,-756C1068,-756 980,-756 980,-756 974,-756 968,-750 968,-744 968,-744 968,-732 968,-732 968,-726 974,-720 980,-720 980,-720 1068,-720 1068,-720 1074,-720 1080,-726 1080,-732 1080,-732 1080,-744 1080,-744 1080,-750 1074,-756 1068,-756"/>
<text text-anchor="middle" x="1024" y="-735.5" font-family="sans" font-size="10.00" fill="#000000">_copy_sniffles2_vcf</text>
</g>
<!-- 26&#45;&gt;0 -->
<g id="edge5" class="edge">
<title>26&#45;&gt;0</title>
<path fill="none" stroke="#c0c0c0" stroke-width="2" d="M1029.726,-719.5668C1037.6516,-692.3758 1051,-639.7842 1051,-594 1051,-594 1051,-594 1051,-162 1051,-114.1711 1031.464,-99.0222 992,-72 957.3189,-48.2528 838.1061,-30.3641 776.51,-22.4616"/>
<polygon fill="#c0c0c0" stroke="#c0c0c0" stroke-width="2" points="776.7849,-18.9686 766.4258,-21.1911 775.9098,-25.9137 776.7849,-18.9686"/>
</g>
<!-- 27 -->
<g id="node28" class="node">
<title>27</title>
<path fill="none" stroke="#d85e56" stroke-width="2" d="M1027.5,-900C1027.5,-900 808.5,-900 808.5,-900 802.5,-900 796.5,-894 796.5,-888 796.5,-888 796.5,-876 796.5,-876 796.5,-870 802.5,-864 808.5,-864 808.5,-864 1027.5,-864 1027.5,-864 1033.5,-864 1039.5,-870 1039.5,-876 1039.5,-876 1039.5,-888 1039.5,-888 1039.5,-894 1033.5,-900 1027.5,-900"/>
<text text-anchor="middle" x="918" y="-879.5" font-family="sans" font-size="10.00" fill="#000000">filtering_bcftools_filter_include_region_sniffles</text>
</g>
<!-- 27&#45;&gt;26 -->
<g id="edge49" class="edge">
<title>27&#45;&gt;26</title>
<path fill="none" stroke="#c0c0c0" stroke-width="2" d="M931.425,-863.7623C949.903,-838.66 983.2918,-793.3017 1004.5173,-764.4671"/>
<polygon fill="#c0c0c0" stroke="#c0c0c0" stroke-width="2" points="1007.5745,-766.2179 1010.684,-756.0896 1001.9371,-762.0681 1007.5745,-766.2179"/>
</g>
<!-- 27&#45;&gt;56 -->
<g id="edge90" class="edge">
<title>27&#45;&gt;56</title>
<path fill="none" stroke="#c0c0c0" stroke-width="2" d="M904.6259,-863.8314C898.5838,-855.6232 891.3237,-845.7606 884.6779,-836.7323"/>
<polygon fill="#c0c0c0" stroke="#c0c0c0" stroke-width="2" points="887.3011,-834.3918 878.5542,-828.4133 881.6637,-838.5415 887.3011,-834.3918"/>
</g>
<!-- 28 -->
<g id="node29" class="node">
<title>28</title>
<path fill="none" stroke="#56d89a" stroke-width="2" d="M945,-1044C945,-1044 847,-1044 847,-1044 841,-1044 835,-1038 835,-1032 835,-1032 835,-1020 835,-1020 835,-1014 841,-1008 847,-1008 847,-1008 945,-1008 945,-1008 951,-1008 957,-1014 957,-1020 957,-1020 957,-1032 957,-1032 957,-1038 951,-1044 945,-1044"/>
<text text-anchor="middle" x="896" y="-1023.5" font-family="sans" font-size="10.00" fill="#000000">cnv_sv_bgzip_sniffles</text>
</g>
<!-- 28&#45;&gt;27 -->
<g id="edge50" class="edge">
<title>28&#45;&gt;27</title>
<path fill="none" stroke="#c0c0c0" stroke-width="2" d="M898.7863,-1007.7623C902.5387,-983.201 909.2539,-939.2474 913.6681,-910.3541"/>
<polygon fill="#c0c0c0" stroke="#c0c0c0" stroke-width="2" points="917.1858,-910.5035 915.2363,-900.0896 910.2661,-909.4463 917.1858,-910.5035"/>
</g>
<!-- 30 -->
<g id="node31" class="node">
<title>30</title>
<path fill="none" stroke="#d89c56" stroke-width="2" d="M1029.5,-972C1029.5,-972 932.5,-972 932.5,-972 926.5,-972 920.5,-966 920.5,-960 920.5,-960 920.5,-948 920.5,-948 920.5,-942 926.5,-936 932.5,-936 932.5,-936 1029.5,-936 1029.5,-936 1035.5,-936 1041.5,-942 1041.5,-948 1041.5,-948 1041.5,-960 1041.5,-960 1041.5,-966 1035.5,-972 1029.5,-972"/>
<text text-anchor="middle" x="981" y="-951.5" font-family="sans" font-size="10.00" fill="#000000">cnv_sv_tabix_sniffles</text>
</g>
<!-- 28&#45;&gt;30 -->
<g id="edge55" class="edge">
<title>28&#45;&gt;30</title>
<path fill="none" stroke="#c0c0c0" stroke-width="2" d="M917.4491,-1007.8314C927.8178,-999.0485 940.4229,-988.3712 951.6646,-978.8489"/>
<polygon fill="#c0c0c0" stroke="#c0c0c0" stroke-width="2" points="954.1895,-981.297 959.5578,-972.1628 949.6651,-975.9556 954.1895,-981.297"/>
</g>
<!-- 29&#45;&gt;28 -->
<g id="edge52" class="edge">
<title>29&#45;&gt;28</title>
<path fill="none" stroke="#c0c0c0" stroke-width="2" d="M896,-1295.9843C896,-1247.2939 896,-1112.7961 896,-1054.0573"/>
<polygon fill="#c0c0c0" stroke="#c0c0c0" stroke-width="2" points="899.5001,-1054.0088 896,-1044.0089 892.5001,-1054.0089 899.5001,-1054.0088"/>
</g>
<!-- 31 -->
<g id="node32" class="node">
<title>31</title>
<path fill="none" stroke="#d88556" stroke-width="2" d="M1062,-1116C1062,-1116 974,-1116 974,-1116 968,-1116 962,-1110 962,-1104 962,-1104 962,-1092 962,-1092 962,-1086 968,-1080 974,-1080 974,-1080 1062,-1080 1062,-1080 1068,-1080 1074,-1086 1074,-1092 1074,-1092 1074,-1104 1074,-1104 1074,-1110 1068,-1116 1062,-1116"/>
<text text-anchor="middle" x="1018" y="-1095.5" font-family="sans" font-size="10.00" fill="#000000">_copy_sniffles2_snf</text>
</g>
<!-- 29&#45;&gt;31 -->
<g id="edge56" class="edge">
<title>29&#45;&gt;31</title>
<path fill="none" stroke="#c0c0c0" stroke-width="2" d="M906.1918,-1295.9555C927.6315,-1257.9967 977.4956,-1169.7127 1002.7541,-1124.9928"/>
<polygon fill="#c0c0c0" stroke="#c0c0c0" stroke-width="2" points="1005.8809,-1126.5735 1007.7514,-1116.1451 999.7859,-1123.1309 1005.8809,-1126.5735"/>
</g>
<!-- 30&#45;&gt;27 -->
<g id="edge51" class="edge">
<title>30&#45;&gt;27</title>
<path fill="none" stroke="#c0c0c0" stroke-width="2" d="M965.1024,-935.8314C957.7722,-927.454 948.934,-917.3531 940.9031,-908.1749"/>
<polygon fill="#c0c0c0" stroke="#c0c0c0" stroke-width="2" points="943.3307,-905.6343 934.1116,-900.4133 938.0627,-910.2438 943.3307,-905.6343"/>
</g>
<!-- 31&#45;&gt;0 -->
<g id="edge6" class="edge">
<title>31&#45;&gt;0</title>
<path fill="none" stroke="#c0c0c0" stroke-width="2" d="M1024.6179,-1079.758C1045.4023,-1020.777 1108,-829.563 1108,-666 1108,-666 1108,-666 1108,-162 1108,-108.4818 1074.5913,-98.3334 1028,-72 985.3991,-47.922 844.4875,-29.619 776.432,-21.9477"/>
<polygon fill="#c0c0c0" stroke="#c0c0c0" stroke-width="2" points="776.4861,-18.4323 766.1612,-20.8085 775.7144,-25.3897 776.4861,-18.4323"/>
</g>
<!-- 32 -->
<g id="node33" class="node">
<title>32</title>
<path fill="none" stroke="#d8b456" stroke-width="2" d="M595.5,-108C595.5,-108 476.5,-108 476.5,-108 470.5,-108 464.5,-102 464.5,-96 464.5,-96 464.5,-84 464.5,-84 464.5,-78 470.5,-72 476.5,-72 476.5,-72 595.5,-72 595.5,-72 601.5,-72 607.5,-78 607.5,-84 607.5,-84 607.5,-96 607.5,-96 607.5,-102 601.5,-108 595.5,-108"/>
<text text-anchor="middle" x="536" y="-87.5" font-family="sans" font-size="10.00" fill="#000000">_copy_cnvkit_html_report</text>
</g>
<!-- 32&#45;&gt;0 -->
<g id="edge11" class="edge">
<title>32&#45;&gt;0</title>
<path fill="none" stroke="#c0c0c0" stroke-width="2" d="M586.9634,-71.9243C622.8323,-59.2023 670.0057,-42.4709 702.235,-31.0398"/>
<polygon fill="#c0c0c0" stroke="#c0c0c0" stroke-width="2" points="703.4736,-34.3142 711.7283,-27.6727 701.1336,-27.7169 703.4736,-34.3142"/>
</g>
<!-- 33 -->
<g id="node34" class="node">
<title>33</title>
<path fill="none" stroke="#80d856" stroke-width="2" d="M592,-180C592,-180 480,-180 480,-180 474,-180 468,-174 468,-168 468,-168 468,-156 468,-156 468,-150 474,-144 480,-144 480,-144 592,-144 592,-144 598,-144 604,-150 604,-156 604,-156 604,-168 604,-168 604,-174 598,-180 592,-180"/>
<text text-anchor="middle" x="536" y="-159.5" font-family="sans" font-size="10.00" fill="#000000">reports_cnv_html_report</text>
</g>
<!-- 33&#45;&gt;32 -->
<g id="edge57" class="edge">
<title>33&#45;&gt;32</title>
<path fill="none" stroke="#c0c0c0" stroke-width="2" d="M536,-143.8314C536,-136.131 536,-126.9743 536,-118.4166"/>
<polygon fill="#c0c0c0" stroke="#c0c0c0" stroke-width="2" points="539.5001,-118.4132 536,-108.4133 532.5001,-118.4133 539.5001,-118.4132"/>
</g>
<!-- 34 -->
<g id="node35" class="node">
<title>34</title>
<path fill="none" stroke="#5692d8" stroke-width="2" d="M592,-252C592,-252 480,-252 480,-252 474,-252 468,-246 468,-240 468,-240 468,-228 468,-228 468,-222 474,-216 480,-216 480,-216 592,-216 592,-216 598,-216 604,-222 604,-228 604,-228 604,-240 604,-240 604,-246 598,-252 592,-252"/>
<text text-anchor="middle" x="536" y="-231.5" font-family="sans" font-size="10.00" fill="#000000">reports_merge_cnv_json</text>
</g>
<!-- 34&#45;&gt;33 -->
<g id="edge58" class="edge">
<title>34&#45;&gt;33</title>
<path fill="none" stroke="#c0c0c0" stroke-width="2" d="M536,-215.8314C536,-208.131 536,-198.9743 536,-190.4166"/>
<polygon fill="#c0c0c0" stroke="#c0c0c0" stroke-width="2" points="539.5001,-190.4132 536,-180.4133 532.5001,-190.4133 539.5001,-190.4132"/>
</g>
<!-- 35 -->
<g id="node36" class="node">
<title>35</title>
<path fill="none" stroke="#568ad8" stroke-width="2" d="M540.5,-396C540.5,-396 465.5,-396 465.5,-396 459.5,-396 453.5,-390 453.5,-384 453.5,-384 453.5,-372 453.5,-372 453.5,-366 459.5,-360 465.5,-360 465.5,-360 540.5,-360 540.5,-360 546.5,-360 552.5,-366 552.5,-372 552.5,-372 552.5,-384 552.5,-384 552.5,-390 546.5,-396 540.5,-396"/>
<text text-anchor="middle" x="503" y="-375.5" font-family="sans" font-size="10.00" fill="#000000">reports_cnv_json</text>
</g>
<!-- 35&#45;&gt;34 -->
<g id="edge59" class="edge">
<title>35&#45;&gt;34</title>
<path fill="none" stroke="#c0c0c0" stroke-width="2" d="M507.1795,-359.7623C512.8329,-335.0928 522.9696,-290.8598 529.5895,-261.9731"/>
<polygon fill="#c0c0c0" stroke="#c0c0c0" stroke-width="2" points="533.0322,-262.6188 531.8545,-252.0896 526.2091,-261.0551 533.0322,-262.6188"/>
</g>
<!-- 36 -->
<g id="node37" class="node">
<title>36</title>
<path fill="none" stroke="#56d8a2" stroke-width="2" d="M508,-612C508,-612 386,-612 386,-612 380,-612 374,-606 374,-600 374,-600 374,-588 374,-588 374,-582 380,-576 386,-576 386,-576 508,-576 508,-576 514,-576 520,-582 520,-588 520,-588 520,-600 520,-600 520,-606 514,-612 508,-612"/>
<text text-anchor="middle" x="447" y="-591.5" font-family="sans" font-size="10.00" fill="#000000">cnv_sv_cnvkit_batch_local</text>
</g>
<!-- 36&#45;&gt;35 -->
<g id="edge62" class="edge">
<title>36&#45;&gt;35</title>
<path fill="none" stroke="#c0c0c0" stroke-width="2" d="M476.2184,-575.8172C488.1119,-566.6828 500.5573,-554.4662 507,-540 526.3651,-496.5183 518.3864,-439.7514 510.7484,-406.2517"/>
<polygon fill="#c0c0c0" stroke="#c0c0c0" stroke-width="2" points="514.0778,-405.1299 508.3156,-396.239 507.2757,-406.7827 514.0778,-405.1299"/>
</g>
<!-- 47 -->
<g id="node48" class="node">
<title>47</title>
<path fill="none" stroke="#56d892" stroke-width="2" d="M682,-540C682,-540 566,-540 566,-540 560,-540 554,-534 554,-528 554,-528 554,-516 554,-516 554,-510 560,-504 566,-504 566,-504 682,-504 682,-504 688,-504 694,-510 694,-516 694,-516 694,-528 694,-528 694,-534 688,-540 682,-540"/>
<text text-anchor="middle" x="624" y="-519.5" font-family="sans" font-size="10.00" fill="#000000">cnvkit_call_new_wrapper</text>
</g>
<!-- 36&#45;&gt;47 -->
<g id="edge80" class="edge">
<title>36&#45;&gt;47</title>
<path fill="none" stroke="#c0c0c0" stroke-width="2" d="M491.6646,-575.8314C515.5477,-566.1162 545.129,-554.0831 570.2628,-543.8592"/>
<polygon fill="#c0c0c0" stroke="#c0c0c0" stroke-width="2" points="571.7125,-547.0481 579.6566,-540.038 569.0748,-540.564 571.7125,-547.0481"/>
</g>
<!-- 53 -->
<g id="node54" class="node">
<title>53</title>
<path fill="none" stroke="#d86656" stroke-width="2" d="M384.5,-324C384.5,-324 307.5,-324 307.5,-324 301.5,-324 295.5,-318 295.5,-312 295.5,-312 295.5,-300 295.5,-300 295.5,-294 301.5,-288 307.5,-288 307.5,-288 384.5,-288 384.5,-288 390.5,-288 396.5,-294 396.5,-300 396.5,-300 396.5,-312 396.5,-312 396.5,-318 390.5,-324 384.5,-324"/>
<text text-anchor="middle" x="346" y="-303.5" font-family="sans" font-size="10.00" fill="#000000">_copy_cnvkit_cnr</text>
</g>
<!-- 36&#45;&gt;53 -->
<g id="edge86" class="edge">
<title>36&#45;&gt;53</title>
<path fill="none" stroke="#c0c0c0" stroke-width="2" d="M419.8594,-575.9741C407.9328,-566.6423 394.8752,-554.2216 387,-540 349.9133,-473.0263 345.0528,-380.1528 345.1834,-334.1485"/>
<polygon fill="#c0c0c0" stroke="#c0c0c0" stroke-width="2" points="348.6845,-334.064 345.297,-324.0253 341.6849,-333.9854 348.6845,-334.064"/>
</g>
<!-- 54 -->
<g id="node55" class="node">
<title>54</title>
<path fill="none" stroke="#88d856" stroke-width="2" d="M486,-540C486,-540 408,-540 408,-540 402,-540 396,-534 396,-528 396,-528 396,-516 396,-516 396,-510 402,-504 408,-504 408,-504 486,-504 486,-504 492,-504 498,-510 498,-516 498,-516 498,-528 498,-528 498,-534 492,-540 486,-540"/>
<text text-anchor="middle" x="447" y="-519.5" font-family="sans" font-size="10.00" fill="#000000">_copy_cnvkit_cns</text>
</g>
<!-- 36&#45;&gt;54 -->
<g id="edge87" class="edge">
<title>36&#45;&gt;54</title>
<path fill="none" stroke="#c0c0c0" stroke-width="2" d="M447,-575.8314C447,-568.131 447,-558.9743 447,-550.4166"/>
<polygon fill="#c0c0c0" stroke="#c0c0c0" stroke-width="2" points="450.5001,-550.4132 447,-540.4133 443.5001,-550.4133 450.5001,-550.4132"/>
</g>
<!-- 37&#45;&gt;36 -->
<g id="edge64" class="edge">
<title>37&#45;&gt;36</title>
<path fill="none" stroke="#c0c0c0" stroke-width="2" d="M512,-1079.8146C512,-1052.4983 512,-999.25 512,-954 512,-954 512,-954 512,-738 512,-697.1184 511.0325,-684.6898 493,-648 488.0601,-637.949 480.8253,-628.2248 473.5493,-619.8635"/>
<polygon fill="#c0c0c0" stroke="#c0c0c0" stroke-width="2" points="475.9645,-617.3181 466.6343,-612.2983 470.7977,-622.0409 475.9645,-617.3181"/>
</g>
<!-- 38 -->
<g id="node39" class="node">
<title>38</title>
<path fill="none" stroke="#56d8a9" stroke-width="2" d="M472,-684C472,-684 254,-684 254,-684 248,-684 242,-678 242,-672 242,-672 242,-660 242,-660 242,-654 248,-648 254,-648 254,-648 472,-648 472,-648 478,-648 484,-654 484,-660 484,-660 484,-672 484,-672 484,-678 478,-684 472,-684"/>
<text text-anchor="middle" x="363" y="-663.5" font-family="sans" font-size="10.00" fill="#000000">alignment_samtools_index_haplotagged_bam</text>
</g>
<!-- 37&#45;&gt;38 -->
<g id="edge69" class="edge">
<title>37&#45;&gt;38</title>
<path fill="none" stroke="#c0c0c0" stroke-width="2" d="M490.1982,-1079.9956C462.4297,-1054.9031 418,-1006.5449 418,-954 418,-954 418,-954 418,-810 418,-766.9621 396.2948,-721.1692 380.1549,-693.0671"/>
<polygon fill="#c0c0c0" stroke="#c0c0c0" stroke-width="2" points="383.039,-691.0682 374.9342,-684.2446 377.0148,-694.6331 383.039,-691.0682"/>
</g>
<!-- 48 -->
<g id="node49" class="node">
<title>48</title>
<path fill="none" stroke="#569ad8" stroke-width="2" d="M345.5,-972C345.5,-972 252.5,-972 252.5,-972 246.5,-972 240.5,-966 240.5,-960 240.5,-960 240.5,-948 240.5,-948 240.5,-942 246.5,-936 252.5,-936 252.5,-936 345.5,-936 345.5,-936 351.5,-936 357.5,-942 357.5,-948 357.5,-948 357.5,-960 357.5,-960 357.5,-966 351.5,-972 345.5,-972"/>
<text text-anchor="middle" x="299" y="-951.5" font-family="sans" font-size="10.00" fill="#000000">_copy_mapped_bam</text>
</g>
<!-- 37&#45;&gt;48 -->
<g id="edge81" class="edge">
<title>37&#45;&gt;48</title>
<path fill="none" stroke="#c0c0c0" stroke-width="2" d="M469.9099,-1079.8918C449.3718,-1070.3312 424.6949,-1057.7409 404,-1044 374.9132,-1024.6871 344.9901,-998.274 324.5668,-979.0594"/>
<polygon fill="#c0c0c0" stroke="#c0c0c0" stroke-width="2" points="326.8842,-976.4331 317.2261,-972.0774 322.0599,-981.5053 326.8842,-976.4331"/>
</g>
<!-- 38&#45;&gt;36 -->
<g id="edge63" class="edge">
<title>38&#45;&gt;36</title>
<path fill="none" stroke="#c0c0c0" stroke-width="2" d="M384.1967,-647.8314C394.4434,-639.0485 406.9003,-628.3712 418.0097,-618.8489"/>
<polygon fill="#c0c0c0" stroke="#c0c0c0" stroke-width="2" points="420.4952,-621.3282 425.81,-612.1628 415.9397,-616.0134 420.4952,-621.3282"/>
</g>
<!-- 49 -->
<g id="node50" class="node">
<title>49</title>
<path fill="none" stroke="#d89556" stroke-width="2" d="M327.5,-540C327.5,-540 202.5,-540 202.5,-540 196.5,-540 190.5,-534 190.5,-528 190.5,-528 190.5,-516 190.5,-516 190.5,-510 196.5,-504 202.5,-504 202.5,-504 327.5,-504 327.5,-504 333.5,-504 339.5,-510 339.5,-516 339.5,-516 339.5,-528 339.5,-528 339.5,-534 333.5,-540 327.5,-540"/>
<text text-anchor="middle" x="265" y="-519.5" font-family="sans" font-size="10.00" fill="#000000">_copy_mapped_bam_index</text>
</g>
<!-- 38&#45;&gt;49 -->
<g id="edge82" class="edge">
<title>38&#45;&gt;49</title>
<path fill="none" stroke="#c0c0c0" stroke-width="2" d="M350.5882,-647.7623C333.5048,-622.66 302.6359,-577.3017 283.0123,-548.4671"/>
<polygon fill="#c0c0c0" stroke="#c0c0c0" stroke-width="2" points="285.8308,-546.3876 277.311,-540.0896 280.0438,-550.326 285.8308,-546.3876"/>
</g>
<!-- 39 -->
<g id="node40" class="node">
<title>39</title>
<path fill="none" stroke="#56d0d8" stroke-width="2" d="M596,-468C596,-468 566,-468 566,-468 560,-468 554,-462 554,-456 554,-456 554,-444 554,-444 554,-438 560,-432 566,-432 566,-432 596,-432 596,-432 602,-432 608,-438 608,-444 608,-444 608,-456 608,-456 608,-462 602,-468 596,-468"/>
<text text-anchor="middle" x="581" y="-447.5" font-family="sans" font-size="10.00" fill="#000000">fix_af</text>
</g>
<!-- 39&#45;&gt;34 -->
<g id="edge60" class="edge">
<title>39&#45;&gt;34</title>
<path fill="none" stroke="#c0c0c0" stroke-width="2" d="M577.2407,-431.9555C569.3988,-394.3144 551.2472,-307.1867 541.8593,-262.1246"/>
<polygon fill="#c0c0c0" stroke="#c0c0c0" stroke-width="2" points="545.2463,-261.221 539.7802,-252.1451 538.3934,-262.6487 545.2463,-261.221"/>
</g>
<!-- 40 -->
<g id="node41" class="node">
<title>40</title>
<path fill="none" stroke="#56b1d8" stroke-width="2" d="M716.5,-612C716.5,-612 551.5,-612 551.5,-612 545.5,-612 539.5,-606 539.5,-600 539.5,-600 539.5,-588 539.5,-588 539.5,-582 545.5,-576 551.5,-576 551.5,-576 716.5,-576 716.5,-576 722.5,-576 728.5,-582 728.5,-588 728.5,-588 728.5,-600 728.5,-600 728.5,-606 722.5,-612 716.5,-612"/>
<text text-anchor="middle" x="634" y="-591.5" font-family="sans" font-size="10.00" fill="#000000">filtering_bcftools_view_nonsomatic</text>
</g>
<!-- 40&#45;&gt;39 -->
<g id="edge70" class="edge">
<title>40&#45;&gt;39</title>
<path fill="none" stroke="#c0c0c0" stroke-width="2" d="M668.9415,-575.7767C682.1507,-566.9077 695.7377,-554.9055 703,-540 710.008,-525.6164 711.8642,-517.3201 703,-504 681.6132,-471.8624 658.1218,-483.3538 617.3036,-467.6776"/>
<polygon fill="#c0c0c0" stroke="#c0c0c0" stroke-width="2" points="618.6063,-464.4284 608.0326,-463.76 615.8816,-470.8764 618.6063,-464.4284"/>
</g>
<!-- 40&#45;&gt;47 -->
<g id="edge79" class="edge">
<title>40&#45;&gt;47</title>
<path fill="none" stroke="#c0c0c0" stroke-width="2" d="M631.4766,-575.8314C630.4071,-568.131 629.1353,-558.9743 627.9468,-550.4166"/>
<polygon fill="#c0c0c0" stroke="#c0c0c0" stroke-width="2" points="631.3999,-549.8367 626.5574,-540.4133 624.4664,-550.7997 631.3999,-549.8367"/>
</g>
<!-- 41 -->
<g id="node42" class="node">
<title>41</title>
<path fill="none" stroke="#56c1d8" stroke-width="2" d="M685,-684C685,-684 583,-684 583,-684 577,-684 571,-678 571,-672 571,-672 571,-660 571,-660 571,-654 577,-648 583,-648 583,-648 685,-648 685,-648 691,-648 697,-654 697,-660 697,-660 697,-672 697,-672 697,-678 691,-684 685,-684"/>
<text text-anchor="middle" x="634" y="-663.5" font-family="sans" font-size="10.00" fill="#000000">bgzip_filtered_vep_vcf</text>
</g>
<!-- 41&#45;&gt;40 -->
<g id="edge71" class="edge">
<title>41&#45;&gt;40</title>
<path fill="none" stroke="#c0c0c0" stroke-width="2" d="M634,-647.8314C634,-640.131 634,-630.9743 634,-622.4166"/>
<polygon fill="#c0c0c0" stroke="#c0c0c0" stroke-width="2" points="637.5001,-622.4132 634,-612.4133 630.5001,-622.4133 637.5001,-622.4132"/>
</g>
<!-- 42&#45;&gt;41 -->
<g id="edge72" class="edge">
<title>42&#45;&gt;41</title>
<path fill="none" stroke="#c0c0c0" stroke-width="2" d="M634,-719.8314C634,-712.131 634,-702.9743 634,-694.4166"/>
<polygon fill="#c0c0c0" stroke="#c0c0c0" stroke-width="2" points="637.5001,-694.4132 634,-684.4133 630.5001,-694.4133 637.5001,-694.4132"/>
</g>
<!-- 43&#45;&gt;42 -->
<g id="edge73" class="edge">
<title>43&#45;&gt;42</title>
<path fill="none" stroke="#c0c0c0" stroke-width="2" d="M635.4953,-791.8314C635.2814,-784.131 635.0271,-774.9743 634.7894,-766.4166"/>
<polygon fill="#c0c0c0" stroke="#c0c0c0" stroke-width="2" points="638.2879,-766.3122 634.5115,-756.4133 631.2906,-766.5066 638.2879,-766.3122"/>
</g>
<!-- 44 -->
<g id="node45" class="node">
<title>44</title>
<path fill="none" stroke="#59d856" stroke-width="2" d="M746.5,-324C746.5,-324 633.5,-324 633.5,-324 627.5,-324 621.5,-318 621.5,-312 621.5,-312 621.5,-300 621.5,-300 621.5,-294 627.5,-288 633.5,-288 633.5,-288 746.5,-288 746.5,-288 752.5,-288 758.5,-294 758.5,-300 758.5,-300 758.5,-312 758.5,-312 758.5,-318 752.5,-324 746.5,-324"/>
<text text-anchor="middle" x="690" y="-303.5" font-family="sans" font-size="10.00" fill="#000000">cnv_sv_bgzip_cnvkit_vcf</text>
</g>
<!-- 44&#45;&gt;34 -->
<g id="edge61" class="edge">
<title>44&#45;&gt;34</title>
<path fill="none" stroke="#c0c0c0" stroke-width="2" d="M651.1393,-287.8314C630.7258,-278.2874 605.5277,-266.5065 583.914,-256.4013"/>
<polygon fill="#c0c0c0" stroke="#c0c0c0" stroke-width="2" points="585.1225,-253.1027 574.5813,-252.038 582.1577,-259.4439 585.1225,-253.1027"/>
</g>
<!-- 52 -->
<g id="node53" class="node">
<title>52</title>
<path fill="none" stroke="#ced856" stroke-width="2" d="M746,-252C746,-252 634,-252 634,-252 628,-252 622,-246 622,-240 622,-240 622,-228 622,-228 622,-222 628,-216 634,-216 634,-216 746,-216 746,-216 752,-216 758,-222 758,-228 758,-228 758,-240 758,-240 758,-246 752,-252 746,-252"/>
<text text-anchor="middle" x="690" y="-231.5" font-family="sans" font-size="10.00" fill="#000000">cnv_sv_tabix_cnvkit_vcf</text>
</g>
<!-- 44&#45;&gt;52 -->
<g id="edge85" class="edge">
<title>44&#45;&gt;52</title>
<path fill="none" stroke="#c0c0c0" stroke-width="2" d="M690,-287.8314C690,-280.131 690,-270.9743 690,-262.4166"/>
<polygon fill="#c0c0c0" stroke="#c0c0c0" stroke-width="2" points="693.5001,-262.4132 690,-252.4133 686.5001,-262.4133 693.5001,-262.4132"/>
</g>
<!-- 45 -->
<g id="node46" class="node">
<title>45</title>
<path fill="none" stroke="#61d856" stroke-width="2" d="M770.5,-396C770.5,-396 621.5,-396 621.5,-396 615.5,-396 609.5,-390 609.5,-384 609.5,-384 609.5,-372 609.5,-372 609.5,-366 615.5,-360 621.5,-360 621.5,-360 770.5,-360 770.5,-360 776.5,-360 782.5,-366 782.5,-372 782.5,-372 782.5,-384 782.5,-384 782.5,-390 776.5,-396 770.5,-396"/>
<text text-anchor="middle" x="696" y="-375.5" font-family="sans" font-size="10.00" fill="#000000">annotation_annotate_cnvkit_vcf</text>
</g>
<!-- 45&#45;&gt;44 -->
<g id="edge76" class="edge">
<title>45&#45;&gt;44</title>
<path fill="none" stroke="#c0c0c0" stroke-width="2" d="M694.4859,-359.8314C693.8442,-352.131 693.0812,-342.9743 692.3681,-334.4166"/>
<polygon fill="#c0c0c0" stroke="#c0c0c0" stroke-width="2" points="695.8529,-334.088 691.5344,-324.4133 688.8771,-334.6694 695.8529,-334.088"/>
</g>
<!-- 50 -->
<g id="node51" class="node">
<title>50</title>
<path fill="none" stroke="#c6d856" stroke-width="2" d="M852.5,-180C852.5,-180 721.5,-180 721.5,-180 715.5,-180 709.5,-174 709.5,-168 709.5,-168 709.5,-156 709.5,-156 709.5,-150 715.5,-144 721.5,-144 721.5,-144 852.5,-144 852.5,-144 858.5,-144 864.5,-150 864.5,-156 864.5,-156 864.5,-168 864.5,-168 864.5,-174 858.5,-180 852.5,-180"/>
<text text-anchor="middle" x="787" y="-159.5" font-family="sans" font-size="10.00" fill="#000000">_copy_annotated_cnvkit_vcf</text>
</g>
<!-- 45&#45;&gt;50 -->
<g id="edge83" class="edge">
<title>45&#45;&gt;50</title>
<path fill="none" stroke="#c0c0c0" stroke-width="2" d="M730.2856,-359.9963C743.9472,-351.0348 758.4333,-338.9032 767,-324 790.9578,-282.3215 791.9463,-224.7433 789.8868,-190.6394"/>
<polygon fill="#c0c0c0" stroke="#c0c0c0" stroke-width="2" points="793.3609,-190.1575 789.1362,-180.4414 786.3797,-190.6713 793.3609,-190.1575"/>
</g>
<!-- 46 -->
<g id="node47" class="node">
<title>46</title>
<path fill="none" stroke="#56d85b" stroke-width="2" d="M720,-468C720,-468 638,-468 638,-468 632,-468 626,-462 626,-456 626,-456 626,-444 626,-444 626,-438 632,-432 638,-432 638,-432 720,-432 720,-432 726,-432 732,-438 732,-444 732,-444 732,-456 732,-456 732,-462 726,-468 720,-468"/>
<text text-anchor="middle" x="679" y="-447.5" font-family="sans" font-size="10.00" fill="#000000">cnv_sv_cnvkit_vcf</text>
</g>
<!-- 46&#45;&gt;45 -->
<g id="edge77" class="edge">
<title>46&#45;&gt;45</title>
<path fill="none" stroke="#c0c0c0" stroke-width="2" d="M683.2898,-431.8314C685.108,-424.131 687.2699,-414.9743 689.2905,-406.4166"/>
<polygon fill="#c0c0c0" stroke="#c0c0c0" stroke-width="2" points="692.7608,-406.95 691.6524,-396.4133 685.9481,-405.3414 692.7608,-406.95"/>
</g>
<!-- 47&#45;&gt;46 -->
<g id="edge78" class="edge">
<title>47&#45;&gt;46</title>
<path fill="none" stroke="#c0c0c0" stroke-width="2" d="M637.8788,-503.8314C644.2136,-495.5386 651.8384,-485.557 658.7926,-476.4533"/>
<polygon fill="#c0c0c0" stroke="#c0c0c0" stroke-width="2" points="661.6452,-478.4847 664.9343,-468.4133 656.0825,-474.2353 661.6452,-478.4847"/>
</g>
<!-- 48&#45;&gt;0 -->
<g id="edge7" class="edge">
<title>48&#45;&gt;0</title>
<path fill="none" stroke="#c0c0c0" stroke-width="2" d="M262.6462,-935.8217C222.0593,-912.6537 162,-868.4889 162,-810 162,-810 162,-810 162,-162 162,-50.2795 574.3582,-24.5395 701.88,-19.2506"/>
<polygon fill="#c0c0c0" stroke="#c0c0c0" stroke-width="2" points="702.0905,-22.7451 711.944,-18.8516 701.8132,-15.7506 702.0905,-22.7451"/>
</g>
<!-- 49&#45;&gt;0 -->
<g id="edge8" class="edge">
<title>49&#45;&gt;0</title>
<path fill="none" stroke="#c0c0c0" stroke-width="2" d="M265.2072,-503.8149C265.5001,-476.4989 266,-423.2511 266,-378 266,-378 266,-378 266,-162 266,-97.4468 320.766,-97.6601 380,-72 437.4938,-47.0938 622.2274,-28.3023 701.8787,-21.1507"/>
<polygon fill="#c0c0c0" stroke="#c0c0c0" stroke-width="2" points="702.2987,-24.6272 711.9508,-20.2583 701.6809,-17.6546 702.2987,-24.6272"/>
</g>
<!-- 50&#45;&gt;0 -->
<g id="edge1" class="edge">
<title>50&#45;&gt;0</title>
<path fill="none" stroke="#c0c0c0" stroke-width="2" d="M784.3615,-143.6781C781.3718,-125.2089 775.7457,-96.0702 767,-72 763.7509,-63.0578 759.3208,-53.7215 754.9434,-45.376"/>
<polygon fill="#c0c0c0" stroke="#c0c0c0" stroke-width="2" points="757.941,-43.562 750.0892,-36.4486 751.7913,-46.9058 757.941,-43.562"/>
</g>
<!-- 51 -->
<g id="node52" class="node">
<title>51</title>
<path fill="none" stroke="#d8c356" stroke-width="2" d="M746.5,-108C746.5,-108 637.5,-108 637.5,-108 631.5,-108 625.5,-102 625.5,-96 625.5,-96 625.5,-84 625.5,-84 625.5,-78 631.5,-72 637.5,-72 637.5,-72 746.5,-72 746.5,-72 752.5,-72 758.5,-78 758.5,-84 758.5,-84 758.5,-96 758.5,-96 758.5,-102 752.5,-108 746.5,-108"/>
<text text-anchor="middle" x="692" y="-87.5" font-family="sans" font-size="10.00" fill="#000000">_copy_index_cnvkit_vcf</text>
</g>
<!-- 51&#45;&gt;0 -->
<g id="edge12" class="edge">
<title>51&#45;&gt;0</title>
<path fill="none" stroke="#c0c0c0" stroke-width="2" d="M703.8601,-71.8314C709.1629,-63.7079 715.5237,-53.9637 721.3673,-45.0118"/>
<polygon fill="#c0c0c0" stroke="#c0c0c0" stroke-width="2" points="724.4448,-46.7003 726.9802,-36.4133 718.5831,-42.8739 724.4448,-46.7003"/>
</g>
<!-- 52&#45;&gt;51 -->
<g id="edge84" class="edge">
<title>52&#45;&gt;51</title>
<path fill="none" stroke="#c0c0c0" stroke-width="2" d="M690.2533,-215.7623C690.5944,-191.201 691.2049,-147.2474 691.6062,-118.3541"/>
<polygon fill="#c0c0c0" stroke="#c0c0c0" stroke-width="2" points="695.1094,-118.1373 691.7488,-108.0896 688.1101,-118.04 695.1094,-118.1373"/>
</g>
<!-- 53&#45;&gt;0 -->
<g id="edge2" class="edge">
<title>53&#45;&gt;0</title>
<path fill="none" stroke="#c0c0c0" stroke-width="2" d="M345.0237,-287.744C343.7375,-243.373 347.1489,-129.3153 411,-72 453.3504,-33.9845 625.1226,-22.4934 701.7663,-19.2207"/>
<polygon fill="#c0c0c0" stroke="#c0c0c0" stroke-width="2" points="702.0753,-22.7112 711.9264,-18.8116 701.7936,-15.7169 702.0753,-22.7112"/>
</g>
<!-- 54&#45;&gt;0 -->
<g id="edge10" class="edge">
<title>54&#45;&gt;0</title>
<path fill="none" stroke="#c0c0c0" stroke-width="2" d="M442.4416,-503.9498C435.9977,-476.8059 425,-423.775 425,-378 425,-378 425,-378 425,-162 425,-119.8363 423.2586,-99.7536 455,-72 491.3125,-40.2495 633.2057,-25.7349 701.6578,-20.4732"/>
<polygon fill="#c0c0c0" stroke="#c0c0c0" stroke-width="2" points="702.2724,-23.9373 711.986,-19.7069 701.7544,-16.9565 702.2724,-23.9373"/>
</g>
<!-- 55 -->
<g id="node56" class="node">
<title>55</title>
<path fill="none" stroke="#bed856" stroke-width="2" d="M937.5,-756C937.5,-756 792.5,-756 792.5,-756 786.5,-756 780.5,-750 780.5,-744 780.5,-744 780.5,-732 780.5,-732 780.5,-726 786.5,-720 792.5,-720 792.5,-720 937.5,-720 937.5,-720 943.5,-720 949.5,-726 949.5,-732 949.5,-732 949.5,-744 949.5,-744 949.5,-750 943.5,-756 937.5,-756"/>
<text text-anchor="middle" x="865" y="-735.5" font-family="sans" font-size="10.00" fill="#000000">_copy_combined_variants_xlsx</text>
</g>
<!-- 55&#45;&gt;0 -->
<g id="edge3" class="edge">
<title>55&#45;&gt;0</title>
<path fill="none" stroke="#c0c0c0" stroke-width="2" d="M905.8334,-719.7994C949.6405,-697.1648 1013,-654.0483 1013,-594 1013,-594 1013,-594 1013,-162 1013,-56.2711 851.1611,-28.0019 776.2425,-20.5797"/>
<polygon fill="#c0c0c0" stroke="#c0c0c0" stroke-width="2" points="776.5519,-17.0935 766.2739,-19.6649 775.9122,-24.0642 776.5519,-17.0935"/>
</g>
<!-- 56&#45;&gt;55 -->
<g id="edge88" class="edge">
<title>56&#45;&gt;55</title>
<path fill="none" stroke="#c0c0c0" stroke-width="2" d="M865,-791.8314C865,-784.131 865,-774.9743 865,-766.4166"/>
<polygon fill="#c0c0c0" stroke="#c0c0c0" stroke-width="2" points="868.5001,-766.4132 865,-756.4133 861.5001,-766.4133 868.5001,-766.4132"/>
</g>
</g>
</svg>
