<?xml version="1.0" encoding="UTF-8" standalone="no"?>
<!DOCTYPE svg PUBLIC "-//W3C//DTD SVG 1.1//EN"
 "http://www.w3.org/Graphics/SVG/1.1/DTD/svg11.dtd">
<!-- Generated by graphviz version 2.40.1 (0)
 -->
<!-- Title: snakemake_dag Pages: 1 -->
<svg width="1158pt" height="1700pt"
 viewBox="0.00 0.00 1157.50 1700.00" xmlns="http://www.w3.org/2000/svg" xmlns:xlink="http://www.w3.org/1999/xlink">
<g id="graph0" class="graph" transform="scale(1 1) rotate(0) translate(4 1696)">
<title>snakemake_dag</title>
<polygon fill="#ffffff" stroke="transparent" points="-4,4 -4,-1696 1153.5,-1696 1153.5,4 -4,4"/>
<!-- 0 -->
<g id="node1" class="node">
<title>0</title>
<path fill="none" stroke="#568ad8" stroke-width="2" d="M610.5,-36C610.5,-36 580.5,-36 580.5,-36 574.5,-36 568.5,-30 568.5,-24 568.5,-24 568.5,-12 568.5,-12 568.5,-6 574.5,0 580.5,0 580.5,0 610.5,0 610.5,0 616.5,0 622.5,-6 622.5,-12 622.5,-12 622.5,-24 622.5,-24 622.5,-30 616.5,-36 610.5,-36"/>
<text text-anchor="middle" x="595.5" y="-15.5" font-family="sans" font-size="10.00" fill="#000000">all</text>
</g>
<!-- 1 -->
<g id="node2" class="node">
<title>1</title>
<path fill="none" stroke="#78d856" stroke-width="2" d="M920.5,-756C920.5,-756 760.5,-756 760.5,-756 754.5,-756 748.5,-750 748.5,-744 748.5,-744 748.5,-732 748.5,-732 748.5,-726 754.5,-720 760.5,-720 760.5,-720 920.5,-720 920.5,-720 926.5,-720 932.5,-726 932.5,-732 932.5,-732 932.5,-744 932.5,-744 932.5,-750 926.5,-756 920.5,-756"/>
<text text-anchor="middle" x="840.5" y="-735.5" font-family="sans" font-size="10.00" fill="#000000">_copy_clairs_panel_annotated_vcf</text>
</g>
<!-- 1&#45;&gt;0 -->
<g id="edge2" class="edge">
<title>1&#45;&gt;0</title>
<path fill="none" stroke="#c0c0c0" stroke-width="2" d="M834.3498,-719.5984C825.8372,-692.4466 811.5,-639.9035 811.5,-594 811.5,-594 811.5,-594 811.5,-450 811.5,-409.0242 814.378,-397.227 831.5,-360 839.8571,-341.8297 851.6514,-342.7909 858.5,-324 885.9213,-248.7623 909.5642,-211.5138 866.5,-144 814.4063,-62.3303 694.1592,-32.7674 632.8735,-22.7467"/>
<polygon fill="#c0c0c0" stroke="#c0c0c0" stroke-width="2" points="633.2711,-19.2666 622.8537,-21.1974 632.2014,-26.1844 633.2711,-19.2666"/>
</g>
<!-- 2 -->
<g id="node3" class="node">
<title>2</title>
<path fill="none" stroke="#d8bc56" stroke-width="2" d="M698.5,-900C698.5,-900 636.5,-900 636.5,-900 630.5,-900 624.5,-894 624.5,-888 624.5,-888 624.5,-876 624.5,-876 624.5,-870 630.5,-864 636.5,-864 636.5,-864 698.5,-864 698.5,-864 704.5,-864 710.5,-870 710.5,-876 710.5,-876 710.5,-888 710.5,-888 710.5,-894 704.5,-900 698.5,-900"/>
<text text-anchor="middle" x="667.5" y="-879.5" font-family="sans" font-size="10.00" fill="#000000">bgzip_vep_vcf</text>
</g>
<!-- 2&#45;&gt;1 -->
<g id="edge13" class="edge">
<title>2&#45;&gt;1</title>
<path fill="none" stroke="#c0c0c0" stroke-width="2" d="M690.2562,-863.8965C703.2774,-853.4786 719.8809,-840.0942 734.5,-828 760.8903,-806.1677 790.5861,-780.892 811.8182,-762.695"/>
<polygon fill="#c0c0c0" stroke="#c0c0c0" stroke-width="2" points="814.2066,-765.2575 819.5167,-756.0894 809.6483,-759.9451 814.2066,-765.2575"/>
</g>
<!-- 35 -->
<g id="node36" class="node">
<title>35</title>
<path fill="none" stroke="#56c9d8" stroke-width="2" d="M665.5,-756C665.5,-756 509.5,-756 509.5,-756 503.5,-756 497.5,-750 497.5,-744 497.5,-744 497.5,-732 497.5,-732 497.5,-726 503.5,-720 509.5,-720 509.5,-720 665.5,-720 665.5,-720 671.5,-720 677.5,-726 677.5,-732 677.5,-732 677.5,-744 677.5,-744 677.5,-750 671.5,-756 665.5,-756"/>
<text text-anchor="middle" x="587.5" y="-735.5" font-family="sans" font-size="10.00" fill="#000000">filtering_filter_vep_annotated_vcf</text>
</g>
<!-- 2&#45;&gt;35 -->
<g id="edge61" class="edge">
<title>2&#45;&gt;35</title>
<path fill="none" stroke="#c0c0c0" stroke-width="2" d="M634.1599,-863.8022C620.8795,-854.8062 606.8044,-842.7015 598.5,-828 587.951,-809.3247 585.5153,-785.0328 585.5446,-766.3938"/>
<polygon fill="#c0c0c0" stroke="#c0c0c0" stroke-width="2" points="589.0495,-766.2434 585.8041,-756.1579 582.0517,-766.066 589.0495,-766.2434"/>
</g>
<!-- 36 -->
<g id="node37" class="node">
<title>36</title>
<path fill="none" stroke="#d8a456" stroke-width="2" d="M680,-828C680,-828 619,-828 619,-828 613,-828 607,-822 607,-816 607,-816 607,-804 607,-804 607,-798 613,-792 619,-792 619,-792 680,-792 680,-792 686,-792 692,-798 692,-804 692,-804 692,-816 692,-816 692,-822 686,-828 680,-828"/>
<text text-anchor="middle" x="649.5" y="-807.5" font-family="sans" font-size="10.00" fill="#000000">tabix_vep_vcf</text>
</g>
<!-- 2&#45;&gt;36 -->
<g id="edge62" class="edge">
<title>2&#45;&gt;36</title>
<path fill="none" stroke="#c0c0c0" stroke-width="2" d="M662.9578,-863.8314C661.0116,-856.0463 658.6932,-846.7729 656.5337,-838.1347"/>
<polygon fill="#c0c0c0" stroke="#c0c0c0" stroke-width="2" points="659.9242,-837.2658 654.1033,-828.4133 653.1332,-838.9636 659.9242,-837.2658"/>
</g>
<!-- 49 -->
<g id="node50" class="node">
<title>49</title>
<path fill="none" stroke="#d86656" stroke-width="2" d="M837,-324C837,-324 706,-324 706,-324 700,-324 694,-318 694,-312 694,-312 694,-300 694,-300 694,-294 700,-288 706,-288 706,-288 837,-288 837,-288 843,-288 849,-294 849,-300 849,-300 849,-312 849,-312 849,-318 843,-324 837,-324"/>
<text text-anchor="middle" x="771.5" y="-303.5" font-family="sans" font-size="10.00" fill="#000000">reports_compile_xlsx_report</text>
</g>
<!-- 2&#45;&gt;49 -->
<g id="edge77" class="edge">
<title>2&#45;&gt;49</title>
<path fill="none" stroke="#c0c0c0" stroke-width="2" d="M681.1817,-863.8898C688.2027,-853.7991 696.341,-840.7318 701.5,-828 716.8531,-790.1108 720.5,-778.8816 720.5,-738 720.5,-738 720.5,-738 720.5,-450 720.5,-407.3478 740.6267,-361.456 755.5927,-333.2271"/>
<polygon fill="#c0c0c0" stroke="#c0c0c0" stroke-width="2" points="758.7132,-334.8153 760.4338,-324.3611 752.5694,-331.4606 758.7132,-334.8153"/>
</g>
<!-- 3 -->
<g id="node4" class="node">
<title>3</title>
<path fill="none" stroke="#ced856" stroke-width="2" d="M717.5,-972C717.5,-972 617.5,-972 617.5,-972 611.5,-972 605.5,-966 605.5,-960 605.5,-960 605.5,-948 605.5,-948 605.5,-942 611.5,-936 617.5,-936 617.5,-936 717.5,-936 717.5,-936 723.5,-936 729.5,-942 729.5,-948 729.5,-948 729.5,-960 729.5,-960 729.5,-966 723.5,-972 717.5,-972"/>
<text text-anchor="middle" x="667.5" y="-951.5" font-family="sans" font-size="10.00" fill="#000000">annotation_vep_clairs</text>
</g>
<!-- 3&#45;&gt;2 -->
<g id="edge14" class="edge">
<title>3&#45;&gt;2</title>
<path fill="none" stroke="#c0c0c0" stroke-width="2" d="M667.5,-935.8314C667.5,-928.131 667.5,-918.9743 667.5,-910.4166"/>
<polygon fill="#c0c0c0" stroke="#c0c0c0" stroke-width="2" points="671.0001,-910.4132 667.5,-900.4133 664.0001,-910.4133 671.0001,-910.4132"/>
</g>
<!-- 4 -->
<g id="node5" class="node">
<title>4</title>
<path fill="none" stroke="#56d87b" stroke-width="2" d="M640,-1044C640,-1044 511,-1044 511,-1044 505,-1044 499,-1038 499,-1032 499,-1032 499,-1020 499,-1020 499,-1014 505,-1008 511,-1008 511,-1008 640,-1008 640,-1008 646,-1008 652,-1014 652,-1020 652,-1020 652,-1032 652,-1032 652,-1038 646,-1044 640,-1044"/>
<text text-anchor="middle" x="575.5" y="-1023.5" font-family="sans" font-size="10.00" fill="#000000">cnv_sv_tabix_include_panel</text>
</g>
<!-- 4&#45;&gt;3 -->
<g id="edge16" class="edge">
<title>4&#45;&gt;3</title>
<path fill="none" stroke="#c0c0c0" stroke-width="2" d="M598.7155,-1007.8314C610.047,-998.9632 623.8464,-988.1637 636.1027,-978.5718"/>
<polygon fill="#c0c0c0" stroke="#c0c0c0" stroke-width="2" points="638.574,-981.0822 644.2919,-972.1628 634.2598,-975.5697 638.574,-981.0822"/>
</g>
<!-- 5 -->
<g id="node6" class="node">
<title>5</title>
<path fill="none" stroke="#8fd856" stroke-width="2" d="M706.5,-1116C706.5,-1116 496.5,-1116 496.5,-1116 490.5,-1116 484.5,-1110 484.5,-1104 484.5,-1104 484.5,-1092 484.5,-1092 484.5,-1086 490.5,-1080 496.5,-1080 496.5,-1080 706.5,-1080 706.5,-1080 712.5,-1080 718.5,-1086 718.5,-1092 718.5,-1092 718.5,-1104 718.5,-1104 718.5,-1110 712.5,-1116 706.5,-1116"/>
<text text-anchor="middle" x="601.5" y="-1095.5" font-family="sans" font-size="10.00" fill="#000000">filtering_bcftools_filter_include_region_clairs</text>
</g>
<!-- 5&#45;&gt;3 -->
<g id="edge15" class="edge">
<title>5&#45;&gt;3</title>
<path fill="none" stroke="#c0c0c0" stroke-width="2" d="M629.9578,-1079.8519C641.8564,-1070.6499 654.5182,-1058.3699 661.5,-1044 670.7676,-1024.9256 671.9092,-1000.8467 670.9286,-982.3956"/>
<polygon fill="#c0c0c0" stroke="#c0c0c0" stroke-width="2" points="674.406,-981.9656 670.1514,-972.2626 667.4265,-982.501 674.406,-981.9656"/>
</g>
<!-- 5&#45;&gt;4 -->
<g id="edge17" class="edge">
<title>5&#45;&gt;4</title>
<path fill="none" stroke="#c0c0c0" stroke-width="2" d="M594.9391,-1079.8314C592.0973,-1071.9617 588.7063,-1062.5712 585.5581,-1053.8533"/>
<polygon fill="#c0c0c0" stroke="#c0c0c0" stroke-width="2" points="588.8377,-1052.63 582.1492,-1044.4133 582.2538,-1055.0076 588.8377,-1052.63"/>
</g>
<!-- 6 -->
<g id="node7" class="node">
<title>6</title>
<path fill="none" stroke="#56d8b1" stroke-width="2" d="M692,-1260C692,-1260 529,-1260 529,-1260 523,-1260 517,-1254 517,-1248 517,-1248 517,-1236 517,-1236 517,-1230 523,-1224 529,-1224 529,-1224 692,-1224 692,-1224 698,-1224 704,-1230 704,-1236 704,-1236 704,-1248 704,-1248 704,-1254 698,-1260 692,-1260"/>
<text text-anchor="middle" x="610.5" y="-1239.5" font-family="sans" font-size="10.00" fill="#000000">snv_indels_whatshap_phase_clairs</text>
</g>
<!-- 6&#45;&gt;5 -->
<g id="edge18" class="edge">
<title>6&#45;&gt;5</title>
<path fill="none" stroke="#c0c0c0" stroke-width="2" d="M628.6576,-1223.7286C637.049,-1213.9911 646.1123,-1201.2949 650.5,-1188 655.5144,-1172.8061 656.2627,-1166.9262 650.5,-1152 646.3808,-1141.3306 639.0664,-1131.4665 631.3251,-1123.1681"/>
<polygon fill="#c0c0c0" stroke="#c0c0c0" stroke-width="2" points="633.7181,-1120.6113 624.175,-1116.0091 628.7652,-1125.558 633.7181,-1120.6113"/>
</g>
<!-- 14 -->
<g id="node15" class="node">
<title>14</title>
<path fill="none" stroke="#b6d856" stroke-width="2" d="M629.5,-1188C629.5,-1188 541.5,-1188 541.5,-1188 535.5,-1188 529.5,-1182 529.5,-1176 529.5,-1176 529.5,-1164 529.5,-1164 529.5,-1158 535.5,-1152 541.5,-1152 541.5,-1152 629.5,-1152 629.5,-1152 635.5,-1152 641.5,-1158 641.5,-1164 641.5,-1164 641.5,-1176 641.5,-1176 641.5,-1182 635.5,-1188 629.5,-1188"/>
<text text-anchor="middle" x="585.5" y="-1167.5" font-family="sans" font-size="10.00" fill="#000000">cnv_sv_tabix_clairs</text>
</g>
<!-- 6&#45;&gt;14 -->
<g id="edge30" class="edge">
<title>6&#45;&gt;14</title>
<path fill="none" stroke="#c0c0c0" stroke-width="2" d="M604.1914,-1223.8314C601.4883,-1216.0463 598.2684,-1206.7729 595.269,-1198.1347"/>
<polygon fill="#c0c0c0" stroke="#c0c0c0" stroke-width="2" points="598.48,-1196.7119 591.8935,-1188.4133 591.8673,-1199.0081 598.48,-1196.7119"/>
</g>
<!-- 30 -->
<g id="node31" class="node">
<title>30</title>
<path fill="none" stroke="#56d89a" stroke-width="2" d="M454,-1116C454,-1116 309,-1116 309,-1116 303,-1116 297,-1110 297,-1104 297,-1104 297,-1092 297,-1092 297,-1086 303,-1080 309,-1080 309,-1080 454,-1080 454,-1080 460,-1080 466,-1086 466,-1092 466,-1092 466,-1104 466,-1104 466,-1110 460,-1116 454,-1116"/>
<text text-anchor="middle" x="381.5" y="-1095.5" font-family="sans" font-size="10.00" fill="#000000">snv_indels_whatshap_haplotag</text>
</g>
<!-- 6&#45;&gt;30 -->
<g id="edge55" class="edge">
<title>6&#45;&gt;30</title>
<path fill="none" stroke="#c0c0c0" stroke-width="2" d="M577.6487,-1223.9447C560.2476,-1213.9729 538.7579,-1200.9992 520.5,-1188 500.1959,-1173.5439 498.0047,-1166.1701 477.5,-1152 461.4392,-1140.9009 442.9203,-1130.0661 426.4583,-1121.0501"/>
<polygon fill="#c0c0c0" stroke="#c0c0c0" stroke-width="2" points="428.0148,-1117.9128 417.5531,-1116.2382 424.687,-1124.0713 428.0148,-1117.9128"/>
</g>
<!-- 7 -->
<g id="node8" class="node">
<title>7</title>
<path fill="none" stroke="#566bd8" stroke-width="2" d="M631.5,-1332C631.5,-1332 503.5,-1332 503.5,-1332 497.5,-1332 491.5,-1326 491.5,-1320 491.5,-1320 491.5,-1308 491.5,-1308 491.5,-1302 497.5,-1296 503.5,-1296 503.5,-1296 631.5,-1296 631.5,-1296 637.5,-1296 643.5,-1302 643.5,-1308 643.5,-1308 643.5,-1320 643.5,-1320 643.5,-1326 637.5,-1332 631.5,-1332"/>
<text text-anchor="middle" x="567.5" y="-1311.5" font-family="sans" font-size="10.00" fill="#000000">snv_indels_clairs_to_concat</text>
</g>
<!-- 7&#45;&gt;6 -->
<g id="edge21" class="edge">
<title>7&#45;&gt;6</title>
<path fill="none" stroke="#c0c0c0" stroke-width="2" d="M578.3507,-1295.8314C583.2023,-1287.7079 589.0217,-1277.9637 594.368,-1269.0118"/>
<polygon fill="#c0c0c0" stroke="#c0c0c0" stroke-width="2" points="597.3806,-1270.7933 599.5032,-1260.4133 591.3708,-1267.2041 597.3806,-1270.7933"/>
</g>
<!-- 8 -->
<g id="node9" class="node">
<title>8</title>
<path fill="none" stroke="#567bd8" stroke-width="2" d="M569,-1404C569,-1404 456,-1404 456,-1404 450,-1404 444,-1398 444,-1392 444,-1392 444,-1380 444,-1380 444,-1374 450,-1368 456,-1368 456,-1368 569,-1368 569,-1368 575,-1368 581,-1374 581,-1380 581,-1380 581,-1392 581,-1392 581,-1398 575,-1404 569,-1404"/>
<text text-anchor="middle" x="512.5" y="-1383.5" font-family="sans" font-size="10.00" fill="#000000">snv_indels_clairs_to_call</text>
</g>
<!-- 8&#45;&gt;7 -->
<g id="edge23" class="edge">
<title>8&#45;&gt;7</title>
<path fill="none" stroke="#c0c0c0" stroke-width="2" d="M526.3788,-1367.8314C532.7136,-1359.5386 540.3384,-1349.557 547.2926,-1340.4533"/>
<polygon fill="#c0c0c0" stroke="#c0c0c0" stroke-width="2" points="550.1452,-1342.4847 553.4343,-1332.4133 544.5825,-1338.2353 550.1452,-1342.4847"/>
</g>
<!-- 9 -->
<g id="node10" class="node">
<title>9</title>
<path fill="none" stroke="#d88d56" stroke-width="2" d="M783.5,-1548C783.5,-1548 661.5,-1548 661.5,-1548 655.5,-1548 649.5,-1542 649.5,-1536 649.5,-1536 649.5,-1524 649.5,-1524 649.5,-1518 655.5,-1512 661.5,-1512 661.5,-1512 783.5,-1512 783.5,-1512 789.5,-1512 795.5,-1518 795.5,-1524 795.5,-1524 795.5,-1536 795.5,-1536 795.5,-1542 789.5,-1548 783.5,-1548"/>
<text text-anchor="middle" x="722.5" y="-1527.5" font-family="sans" font-size="10.00" fill="#000000">alignment_pbmm2_merge</text>
</g>
<!-- 9&#45;&gt;6 -->
<g id="edge22" class="edge">
<title>9&#45;&gt;6</title>
<path fill="none" stroke="#c0c0c0" stroke-width="2" d="M741.9956,-1511.9663C751.0103,-1502.2894 760.7551,-1489.5757 765.5,-1476 770.779,-1460.896 770.0996,-1455.3246 765.5,-1440 743.5318,-1366.8079 679.1346,-1301.1339 640.6045,-1266.9183"/>
<polygon fill="#c0c0c0" stroke="#c0c0c0" stroke-width="2" points="642.6344,-1264.0442 632.7998,-1260.1032 638.0302,-1269.317 642.6344,-1264.0442"/>
</g>
<!-- 9&#45;&gt;8 -->
<g id="edge25" class="edge">
<title>9&#45;&gt;8</title>
<path fill="none" stroke="#c0c0c0" stroke-width="2" d="M649.1767,-1519.2996C617.7251,-1511.6129 582.3522,-1498.4596 556.5,-1476 537.8284,-1459.7787 526.3233,-1433.8062 519.7844,-1413.9222"/>
<polygon fill="#c0c0c0" stroke="#c0c0c0" stroke-width="2" points="523.0727,-1412.7059 516.8061,-1404.163 516.3775,-1414.7491 523.0727,-1412.7059"/>
</g>
<!-- 13 -->
<g id="node14" class="node">
<title>13</title>
<path fill="none" stroke="#56d8a2" stroke-width="2" d="M744,-1476C744,-1476 577,-1476 577,-1476 571,-1476 565,-1470 565,-1464 565,-1464 565,-1452 565,-1452 565,-1446 571,-1440 577,-1440 577,-1440 744,-1440 744,-1440 750,-1440 756,-1446 756,-1452 756,-1452 756,-1464 756,-1464 756,-1470 750,-1476 744,-1476"/>
<text text-anchor="middle" x="660.5" y="-1455.5" font-family="sans" font-size="10.00" fill="#000000">alignment_samtools_index_pbmm2</text>
</g>
<!-- 9&#45;&gt;13 -->
<g id="edge29" class="edge">
<title>9&#45;&gt;13</title>
<path fill="none" stroke="#c0c0c0" stroke-width="2" d="M706.8548,-1511.8314C699.6409,-1503.454 690.943,-1493.3531 683.0395,-1484.1749"/>
<polygon fill="#c0c0c0" stroke="#c0c0c0" stroke-width="2" points="685.5333,-1481.7071 676.3559,-1476.4133 680.2289,-1486.2748 685.5333,-1481.7071"/>
</g>
<!-- 18 -->
<g id="node19" class="node">
<title>18</title>
<path fill="none" stroke="#56d873" stroke-width="2" d="M926,-1404C926,-1404 825,-1404 825,-1404 819,-1404 813,-1398 813,-1392 813,-1392 813,-1380 813,-1380 813,-1374 819,-1368 825,-1368 825,-1368 926,-1368 926,-1368 932,-1368 938,-1374 938,-1380 938,-1380 938,-1392 938,-1392 938,-1398 932,-1404 926,-1404"/>
<text text-anchor="middle" x="875.5" y="-1383.5" font-family="sans" font-size="10.00" fill="#000000">cnv_sv_pbsv_discover</text>
</g>
<!-- 9&#45;&gt;18 -->
<g id="edge35" class="edge">
<title>9&#45;&gt;18</title>
<path fill="none" stroke="#c0c0c0" stroke-width="2" d="M751.5527,-1511.8098C766.2733,-1501.9983 784.0427,-1489.212 798.5,-1476 819.9564,-1456.3918 841.1936,-1430.9984 855.9122,-1412.1865"/>
<polygon fill="#c0c0c0" stroke="#c0c0c0" stroke-width="2" points="858.8527,-1414.1051 862.1935,-1404.0507 853.3119,-1409.8273 858.8527,-1414.1051"/>
</g>
<!-- 22 -->
<g id="node23" class="node">
<title>22</title>
<path fill="none" stroke="#d85656" stroke-width="2" d="M1003,-972C1003,-972 930,-972 930,-972 924,-972 918,-966 918,-960 918,-960 918,-948 918,-948 918,-942 924,-936 930,-936 930,-936 1003,-936 1003,-936 1009,-936 1015,-942 1015,-948 1015,-948 1015,-960 1015,-960 1015,-966 1009,-972 1003,-972"/>
<text text-anchor="middle" x="966.5" y="-951.5" font-family="sans" font-size="10.00" fill="#000000">cnv_sv_sniffles2</text>
</g>
<!-- 9&#45;&gt;22 -->
<g id="edge41" class="edge">
<title>9&#45;&gt;22</title>
<path fill="none" stroke="#c0c0c0" stroke-width="2" d="M795.708,-1518.5387C867.5798,-1502.6324 966.5,-1466.1765 966.5,-1386 966.5,-1386 966.5,-1386 966.5,-1098 966.5,-1057.876 966.5,-1011.4631 966.5,-982.4177"/>
<polygon fill="#c0c0c0" stroke="#c0c0c0" stroke-width="2" points="970.0001,-982.1853 966.5,-972.1854 963.0001,-982.1854 970.0001,-982.1853"/>
</g>
<!-- 9&#45;&gt;30 -->
<g id="edge53" class="edge">
<title>9&#45;&gt;30</title>
<path fill="none" stroke="#c0c0c0" stroke-width="2" d="M649.2937,-1516.888C611.3617,-1508.3684 565.0411,-1495.2042 526.5,-1476 467.7808,-1446.7416 409.5,-1451.6049 409.5,-1386 409.5,-1386 409.5,-1386 409.5,-1242 409.5,-1201.1713 398.5197,-1155.0082 390.3113,-1126.2028"/>
<polygon fill="#c0c0c0" stroke="#c0c0c0" stroke-width="2" points="393.6138,-1125.0265 387.4381,-1116.4177 386.8973,-1126.9987 393.6138,-1125.0265"/>
</g>
<!-- 10 -->
<g id="node11" class="node">
<title>10</title>
<path fill="none" stroke="#56a9d8" stroke-width="2" d="M779.5,-1620C779.5,-1620 665.5,-1620 665.5,-1620 659.5,-1620 653.5,-1614 653.5,-1608 653.5,-1608 653.5,-1596 653.5,-1596 653.5,-1590 659.5,-1584 665.5,-1584 665.5,-1584 779.5,-1584 779.5,-1584 785.5,-1584 791.5,-1590 791.5,-1596 791.5,-1596 791.5,-1608 791.5,-1608 791.5,-1614 785.5,-1620 779.5,-1620"/>
<text text-anchor="middle" x="722.5" y="-1599.5" font-family="sans" font-size="10.00" fill="#000000">alignment_pbmm2_align</text>
</g>
<!-- 10&#45;&gt;9 -->
<g id="edge26" class="edge">
<title>10&#45;&gt;9</title>
<path fill="none" stroke="#c0c0c0" stroke-width="2" d="M722.5,-1583.8314C722.5,-1576.131 722.5,-1566.9743 722.5,-1558.4166"/>
<polygon fill="#c0c0c0" stroke="#c0c0c0" stroke-width="2" points="726.0001,-1558.4132 722.5,-1548.4133 719.0001,-1558.4133 726.0001,-1558.4132"/>
</g>
<!-- 11 -->
<g id="node12" class="node">
<title>11</title>
<path fill="none" stroke="#56d8b9" stroke-width="2" d="M702,-1692C702,-1692 583,-1692 583,-1692 577,-1692 571,-1686 571,-1680 571,-1680 571,-1668 571,-1668 571,-1662 577,-1656 583,-1656 583,-1656 702,-1656 702,-1656 708,-1656 714,-1662 714,-1668 714,-1668 714,-1680 714,-1680 714,-1686 708,-1692 702,-1692"/>
<text text-anchor="middle" x="642.5" y="-1671.5" font-family="sans" font-size="10.00" fill="#000000">prealignment_pbmarkdup</text>
</g>
<!-- 11&#45;&gt;10 -->
<g id="edge27" class="edge">
<title>11&#45;&gt;10</title>
<path fill="none" stroke="#c0c0c0" stroke-width="2" d="M662.6874,-1655.8314C672.3514,-1647.1337 684.0796,-1636.5783 694.5816,-1627.1265"/>
<polygon fill="#c0c0c0" stroke="#c0c0c0" stroke-width="2" points="697.2275,-1629.454 702.3191,-1620.1628 692.5447,-1624.251 697.2275,-1629.454"/>
</g>
<!-- 12 -->
<g id="node13" class="node">
<title>12</title>
<path fill="none" stroke="#d8c356" stroke-width="2" d="M861,-1692C861,-1692 744,-1692 744,-1692 738,-1692 732,-1686 732,-1680 732,-1680 732,-1668 732,-1668 732,-1662 738,-1656 744,-1656 744,-1656 861,-1656 861,-1656 867,-1656 873,-1662 873,-1668 873,-1668 873,-1680 873,-1680 873,-1686 867,-1692 861,-1692"/>
<text text-anchor="middle" x="802.5" y="-1671.5" font-family="sans" font-size="10.00" fill="#000000">alignment_pbmm2_index</text>
</g>
<!-- 12&#45;&gt;10 -->
<g id="edge28" class="edge">
<title>12&#45;&gt;10</title>
<path fill="none" stroke="#c0c0c0" stroke-width="2" d="M782.3126,-1655.8314C772.6486,-1647.1337 760.9204,-1636.5783 750.4184,-1627.1265"/>
<polygon fill="#c0c0c0" stroke="#c0c0c0" stroke-width="2" points="752.4553,-1624.251 742.6809,-1620.1628 747.7725,-1629.454 752.4553,-1624.251"/>
</g>
<!-- 13&#45;&gt;6 -->
<g id="edge20" class="edge">
<title>13&#45;&gt;6</title>
<path fill="none" stroke="#c0c0c0" stroke-width="2" d="M663.0609,-1439.7976C666.6405,-1409.0547 670.8129,-1345.3709 652.5,-1296 648.7826,-1285.9781 642.488,-1276.3286 635.8877,-1268.0284"/>
<polygon fill="#c0c0c0" stroke="#c0c0c0" stroke-width="2" points="638.4033,-1265.5831 629.2696,-1260.2141 633.0616,-1270.1071 638.4033,-1265.5831"/>
</g>
<!-- 13&#45;&gt;8 -->
<g id="edge24" class="edge">
<title>13&#45;&gt;8</title>
<path fill="none" stroke="#c0c0c0" stroke-width="2" d="M623.1534,-1439.8314C603.6231,-1430.3302 579.5359,-1418.6121 558.8269,-1408.5374"/>
<polygon fill="#c0c0c0" stroke="#c0c0c0" stroke-width="2" points="560.1016,-1405.2654 549.5781,-1404.038 557.0393,-1411.56 560.1016,-1405.2654"/>
</g>
<!-- 13&#45;&gt;18 -->
<g id="edge34" class="edge">
<title>13&#45;&gt;18</title>
<path fill="none" stroke="#c0c0c0" stroke-width="2" d="M714.4761,-1439.9243C743.9956,-1430.0387 780.7444,-1417.7321 811.6789,-1407.3726"/>
<polygon fill="#c0c0c0" stroke="#c0c0c0" stroke-width="2" points="813.1308,-1410.5776 821.5017,-1404.0831 810.9079,-1403.9399 813.1308,-1410.5776"/>
</g>
<!-- 13&#45;&gt;22 -->
<g id="edge40" class="edge">
<title>13&#45;&gt;22</title>
<path fill="none" stroke="#c0c0c0" stroke-width="2" d="M680.4463,-1439.6161C705.8516,-1414.0935 746.5,-1365.2496 746.5,-1314 746.5,-1314 746.5,-1314 746.5,-1098 746.5,-1020.6041 842.9983,-982.5628 908.1751,-965.6958"/>
<polygon fill="#c0c0c0" stroke="#c0c0c0" stroke-width="2" points="909.0893,-969.0751 917.9477,-963.2632 907.3984,-962.2824 909.0893,-969.0751"/>
</g>
<!-- 13&#45;&gt;30 -->
<g id="edge52" class="edge">
<title>13&#45;&gt;30</title>
<path fill="none" stroke="#c0c0c0" stroke-width="2" d="M650.786,-1439.853C639.0523,-1419.5753 617.4859,-1387.0929 590.5,-1368 549.1961,-1338.7769 518.1874,-1367.8666 482.5,-1332 423.1194,-1272.3213 463.0387,-1226.3256 423.5,-1152 418.3962,-1142.4058 411.5753,-1132.7714 404.9168,-1124.3512"/>
<polygon fill="#c0c0c0" stroke="#c0c0c0" stroke-width="2" points="407.4294,-1121.8955 398.382,-1116.3823 402.0165,-1126.3342 407.4294,-1121.8955"/>
</g>
<!-- 14&#45;&gt;5 -->
<g id="edge19" class="edge">
<title>14&#45;&gt;5</title>
<path fill="none" stroke="#c0c0c0" stroke-width="2" d="M589.5375,-1151.8314C591.2487,-1144.131 593.2835,-1134.9743 595.1852,-1126.4166"/>
<polygon fill="#c0c0c0" stroke="#c0c0c0" stroke-width="2" points="598.6554,-1126.9344 597.4082,-1116.4133 591.8221,-1125.4159 598.6554,-1126.9344"/>
</g>
<!-- 14&#45;&gt;30 -->
<g id="edge54" class="edge">
<title>14&#45;&gt;30</title>
<path fill="none" stroke="#c0c0c0" stroke-width="2" d="M534.2855,-1151.9243C506.3975,-1142.0815 471.7094,-1129.8386 442.4373,-1119.5073"/>
<polygon fill="#c0c0c0" stroke="#c0c0c0" stroke-width="2" points="443.3304,-1116.1109 432.7356,-1116.0831 441.0006,-1122.7119 443.3304,-1116.1109"/>
</g>
<!-- 15 -->
<g id="node16" class="node">
<title>15</title>
<path fill="none" stroke="#56d86b" stroke-width="2" d="M1132.5,-1044C1132.5,-1044 1062.5,-1044 1062.5,-1044 1056.5,-1044 1050.5,-1038 1050.5,-1032 1050.5,-1032 1050.5,-1020 1050.5,-1020 1050.5,-1014 1056.5,-1008 1062.5,-1008 1062.5,-1008 1132.5,-1008 1132.5,-1008 1138.5,-1008 1144.5,-1014 1144.5,-1020 1144.5,-1020 1144.5,-1032 1144.5,-1032 1144.5,-1038 1138.5,-1044 1132.5,-1044"/>
<text text-anchor="middle" x="1097.5" y="-1023.5" font-family="sans" font-size="10.00" fill="#000000">_copy_pbsv_vcf</text>
</g>
<!-- 15&#45;&gt;0 -->
<g id="edge8" class="edge">
<title>15&#45;&gt;0</title>
<path fill="none" stroke="#c0c0c0" stroke-width="2" d="M1108.7832,-1007.6673C1124.0768,-981.0239 1149.5,-929.5783 1149.5,-882 1149.5,-882 1149.5,-882 1149.5,-162 1149.5,-99.1759 1098.2298,-96.7818 1040.5,-72 967.1649,-40.5193 725.7123,-24.8206 632.5888,-19.8221"/>
<polygon fill="#c0c0c0" stroke="#c0c0c0" stroke-width="2" points="632.671,-16.3217 622.501,-19.2915 632.3033,-23.312 632.671,-16.3217"/>
</g>
<!-- 16 -->
<g id="node17" class="node">
<title>16</title>
<path fill="none" stroke="#bed856" stroke-width="2" d="M918.5,-1260C918.5,-1260 860.5,-1260 860.5,-1260 854.5,-1260 848.5,-1254 848.5,-1248 848.5,-1248 848.5,-1236 848.5,-1236 848.5,-1230 854.5,-1224 860.5,-1224 860.5,-1224 918.5,-1224 918.5,-1224 924.5,-1224 930.5,-1230 930.5,-1236 930.5,-1236 930.5,-1248 930.5,-1248 930.5,-1254 924.5,-1260 918.5,-1260"/>
<text text-anchor="middle" x="889.5" y="-1239.5" font-family="sans" font-size="10.00" fill="#000000">cnv_sv_bgzip</text>
</g>
<!-- 16&#45;&gt;15 -->
<g id="edge31" class="edge">
<title>16&#45;&gt;15</title>
<path fill="none" stroke="#c0c0c0" stroke-width="2" d="M906.8762,-1223.9555C943.8114,-1185.5997 1030.2272,-1095.8602 1072.8444,-1051.6038"/>
<polygon fill="#c0c0c0" stroke="#c0c0c0" stroke-width="2" points="1075.6117,-1053.7761 1080.027,-1044.1451 1070.5694,-1048.9205 1075.6117,-1053.7761"/>
</g>
<!-- 17 -->
<g id="node18" class="node">
<title>17</title>
<path fill="none" stroke="#9fd856" stroke-width="2" d="M920,-1332C920,-1332 843,-1332 843,-1332 837,-1332 831,-1326 831,-1320 831,-1320 831,-1308 831,-1308 831,-1302 837,-1296 843,-1296 843,-1296 920,-1296 920,-1296 926,-1296 932,-1302 932,-1308 932,-1308 932,-1320 932,-1320 932,-1326 926,-1332 920,-1332"/>
<text text-anchor="middle" x="881.5" y="-1311.5" font-family="sans" font-size="10.00" fill="#000000">cnv_sv_pbsv_call</text>
</g>
<!-- 17&#45;&gt;16 -->
<g id="edge32" class="edge">
<title>17&#45;&gt;16</title>
<path fill="none" stroke="#c0c0c0" stroke-width="2" d="M883.5187,-1295.8314C884.3743,-1288.131 885.3917,-1278.9743 886.3426,-1270.4166"/>
<polygon fill="#c0c0c0" stroke="#c0c0c0" stroke-width="2" points="889.8283,-1270.7386 887.4541,-1260.4133 882.8711,-1269.9656 889.8283,-1270.7386"/>
</g>
<!-- 18&#45;&gt;17 -->
<g id="edge33" class="edge">
<title>18&#45;&gt;17</title>
<path fill="none" stroke="#c0c0c0" stroke-width="2" d="M877.0141,-1367.8314C877.6558,-1360.131 878.4188,-1350.9743 879.1319,-1342.4166"/>
<polygon fill="#c0c0c0" stroke="#c0c0c0" stroke-width="2" points="882.6229,-1342.6694 879.9656,-1332.4133 875.6471,-1342.088 882.6229,-1342.6694"/>
</g>
<!-- 19 -->
<g id="node20" class="node">
<title>19</title>
<path fill="none" stroke="#56d0d8" stroke-width="2" d="M1005.5,-252C1005.5,-252 917.5,-252 917.5,-252 911.5,-252 905.5,-246 905.5,-240 905.5,-240 905.5,-228 905.5,-228 905.5,-222 911.5,-216 917.5,-216 917.5,-216 1005.5,-216 1005.5,-216 1011.5,-216 1017.5,-222 1017.5,-228 1017.5,-228 1017.5,-240 1017.5,-240 1017.5,-246 1011.5,-252 1005.5,-252"/>
<text text-anchor="middle" x="961.5" y="-231.5" font-family="sans" font-size="10.00" fill="#000000">_copy_sniffles2_vcf</text>
</g>
<!-- 19&#45;&gt;0 -->
<g id="edge6" class="edge">
<title>19&#45;&gt;0</title>
<path fill="none" stroke="#c0c0c0" stroke-width="2" d="M960.1972,-215.8581C956.727,-181.9181 944.1894,-108.9242 899.5,-72 859.3258,-38.8065 704.8086,-24.8842 632.8157,-20.1078"/>
<polygon fill="#c0c0c0" stroke="#c0c0c0" stroke-width="2" points="633.0191,-16.6137 622.816,-19.4682 632.5722,-23.5994 633.0191,-16.6137"/>
</g>
<!-- 20 -->
<g id="node21" class="node">
<title>20</title>
<path fill="none" stroke="#d8ac56" stroke-width="2" d="M1071,-396C1071,-396 852,-396 852,-396 846,-396 840,-390 840,-384 840,-384 840,-372 840,-372 840,-366 846,-360 852,-360 852,-360 1071,-360 1071,-360 1077,-360 1083,-366 1083,-372 1083,-372 1083,-384 1083,-384 1083,-390 1077,-396 1071,-396"/>
<text text-anchor="middle" x="961.5" y="-375.5" font-family="sans" font-size="10.00" fill="#000000">filtering_bcftools_filter_include_region_sniffles</text>
</g>
<!-- 20&#45;&gt;19 -->
<g id="edge36" class="edge">
<title>20&#45;&gt;19</title>
<path fill="none" stroke="#c0c0c0" stroke-width="2" d="M961.5,-359.7623C961.5,-335.201 961.5,-291.2474 961.5,-262.3541"/>
<polygon fill="#c0c0c0" stroke="#c0c0c0" stroke-width="2" points="965.0001,-262.0896 961.5,-252.0896 958.0001,-262.0897 965.0001,-262.0896"/>
</g>
<!-- 20&#45;&gt;49 -->
<g id="edge78" class="edge">
<title>20&#45;&gt;49</title>
<path fill="none" stroke="#c0c0c0" stroke-width="2" d="M913.555,-359.8314C887.6918,-350.0306 855.6038,-337.8709 828.472,-327.5894"/>
<polygon fill="#c0c0c0" stroke="#c0c0c0" stroke-width="2" points="829.6916,-324.3087 819.1003,-324.038 827.2111,-330.8545 829.6916,-324.3087"/>
</g>
<!-- 21 -->
<g id="node22" class="node">
<title>21</title>
<path fill="none" stroke="#56b9d8" stroke-width="2" d="M1015.5,-540C1015.5,-540 917.5,-540 917.5,-540 911.5,-540 905.5,-534 905.5,-528 905.5,-528 905.5,-516 905.5,-516 905.5,-510 911.5,-504 917.5,-504 917.5,-504 1015.5,-504 1015.5,-504 1021.5,-504 1027.5,-510 1027.5,-516 1027.5,-516 1027.5,-528 1027.5,-528 1027.5,-534 1021.5,-540 1015.5,-540"/>
<text text-anchor="middle" x="966.5" y="-519.5" font-family="sans" font-size="10.00" fill="#000000">cnv_sv_bgzip_sniffles</text>
</g>
<!-- 21&#45;&gt;20 -->
<g id="edge38" class="edge">
<title>21&#45;&gt;20</title>
<path fill="none" stroke="#c0c0c0" stroke-width="2" d="M931.5585,-503.7767C918.3493,-494.9077 904.7623,-482.9055 897.5,-468 890.492,-453.6164 890.7579,-446.5101 897.5,-432 902.9138,-420.3486 912.2169,-410.3063 922.0788,-402.1507"/>
<polygon fill="#c0c0c0" stroke="#c0c0c0" stroke-width="2" points="924.2543,-404.8929 930.0439,-396.0198 919.9847,-399.3458 924.2543,-404.8929"/>
</g>
<!-- 23 -->
<g id="node24" class="node">
<title>23</title>
<path fill="none" stroke="#c6d856" stroke-width="2" d="M1015,-468C1015,-468 918,-468 918,-468 912,-468 906,-462 906,-456 906,-456 906,-444 906,-444 906,-438 912,-432 918,-432 918,-432 1015,-432 1015,-432 1021,-432 1027,-438 1027,-444 1027,-444 1027,-456 1027,-456 1027,-462 1021,-468 1015,-468"/>
<text text-anchor="middle" x="966.5" y="-447.5" font-family="sans" font-size="10.00" fill="#000000">cnv_sv_tabix_sniffles</text>
</g>
<!-- 21&#45;&gt;23 -->
<g id="edge42" class="edge">
<title>21&#45;&gt;23</title>
<path fill="none" stroke="#c0c0c0" stroke-width="2" d="M966.5,-503.8314C966.5,-496.131 966.5,-486.9743 966.5,-478.4166"/>
<polygon fill="#c0c0c0" stroke="#c0c0c0" stroke-width="2" points="970.0001,-478.4132 966.5,-468.4133 963.0001,-478.4133 970.0001,-478.4132"/>
</g>
<!-- 22&#45;&gt;21 -->
<g id="edge39" class="edge">
<title>22&#45;&gt;21</title>
<path fill="none" stroke="#c0c0c0" stroke-width="2" d="M966.5,-935.8146C966.5,-908.4983 966.5,-855.25 966.5,-810 966.5,-810 966.5,-810 966.5,-666 966.5,-625.876 966.5,-579.4631 966.5,-550.4177"/>
<polygon fill="#c0c0c0" stroke="#c0c0c0" stroke-width="2" points="970.0001,-550.1853 966.5,-540.1854 963.0001,-550.1854 970.0001,-550.1853"/>
</g>
<!-- 24 -->
<g id="node25" class="node">
<title>24</title>
<path fill="none" stroke="#88d856" stroke-width="2" d="M1104.5,-900C1104.5,-900 1016.5,-900 1016.5,-900 1010.5,-900 1004.5,-894 1004.5,-888 1004.5,-888 1004.5,-876 1004.5,-876 1004.5,-870 1010.5,-864 1016.5,-864 1016.5,-864 1104.5,-864 1104.5,-864 1110.5,-864 1116.5,-870 1116.5,-876 1116.5,-876 1116.5,-888 1116.5,-888 1116.5,-894 1110.5,-900 1104.5,-900"/>
<text text-anchor="middle" x="1060.5" y="-879.5" font-family="sans" font-size="10.00" fill="#000000">_copy_sniffles2_snf</text>
</g>
<!-- 22&#45;&gt;24 -->
<g id="edge43" class="edge">
<title>22&#45;&gt;24</title>
<path fill="none" stroke="#c0c0c0" stroke-width="2" d="M990.2202,-935.8314C1001.9094,-926.8779 1016.1688,-915.9558 1028.7809,-906.2955"/>
<polygon fill="#c0c0c0" stroke="#c0c0c0" stroke-width="2" points="1030.9769,-909.0222 1036.7874,-900.1628 1026.7203,-903.4651 1030.9769,-909.0222"/>
</g>
<!-- 23&#45;&gt;20 -->
<g id="edge37" class="edge">
<title>23&#45;&gt;20</title>
<path fill="none" stroke="#c0c0c0" stroke-width="2" d="M965.2383,-431.8314C964.7035,-424.131 964.0677,-414.9743 963.4734,-406.4166"/>
<polygon fill="#c0c0c0" stroke="#c0c0c0" stroke-width="2" points="966.9632,-406.1467 962.7787,-396.4133 959.98,-406.6317 966.9632,-406.1467"/>
</g>
<!-- 24&#45;&gt;0 -->
<g id="edge1" class="edge">
<title>24&#45;&gt;0</title>
<path fill="none" stroke="#c0c0c0" stroke-width="2" d="M1071.5662,-863.6389C1086.5658,-836.961 1111.5,-785.4737 1111.5,-738 1111.5,-738 1111.5,-738 1111.5,-162 1111.5,-62.4646 750.7886,-28.7075 632.5431,-20.3155"/>
<polygon fill="#c0c0c0" stroke="#c0c0c0" stroke-width="2" points="632.7331,-16.8204 622.5159,-19.6239 632.2513,-23.8038 632.7331,-16.8204"/>
</g>
<!-- 25 -->
<g id="node26" class="node">
<title>25</title>
<path fill="none" stroke="#5663d8" stroke-width="2" d="M605,-108C605,-108 486,-108 486,-108 480,-108 474,-102 474,-96 474,-96 474,-84 474,-84 474,-78 480,-72 486,-72 486,-72 605,-72 605,-72 611,-72 617,-78 617,-84 617,-84 617,-96 617,-96 617,-102 611,-108 605,-108"/>
<text text-anchor="middle" x="545.5" y="-87.5" font-family="sans" font-size="10.00" fill="#000000">_copy_cnvkit_html_report</text>
</g>
<!-- 25&#45;&gt;0 -->
<g id="edge12" class="edge">
<title>25&#45;&gt;0</title>
<path fill="none" stroke="#c0c0c0" stroke-width="2" d="M558.1171,-71.8314C563.8172,-63.6232 570.6663,-53.7606 576.9359,-44.7323"/>
<polygon fill="#c0c0c0" stroke="#c0c0c0" stroke-width="2" points="579.8838,-46.6234 582.713,-36.4133 574.1342,-42.6306 579.8838,-46.6234"/>
</g>
<!-- 26 -->
<g id="node27" class="node">
<title>26</title>
<path fill="none" stroke="#569ad8" stroke-width="2" d="M484.5,-180C484.5,-180 372.5,-180 372.5,-180 366.5,-180 360.5,-174 360.5,-168 360.5,-168 360.5,-156 360.5,-156 360.5,-150 366.5,-144 372.5,-144 372.5,-144 484.5,-144 484.5,-144 490.5,-144 496.5,-150 496.5,-156 496.5,-156 496.5,-168 496.5,-168 496.5,-174 490.5,-180 484.5,-180"/>
<text text-anchor="middle" x="428.5" y="-159.5" font-family="sans" font-size="10.00" fill="#000000">reports_cnv_html_report</text>
</g>
<!-- 26&#45;&gt;25 -->
<g id="edge44" class="edge">
<title>26&#45;&gt;25</title>
<path fill="none" stroke="#c0c0c0" stroke-width="2" d="M458.024,-143.8314C472.9891,-134.6221 491.3386,-123.3301 507.3603,-113.4706"/>
<polygon fill="#c0c0c0" stroke="#c0c0c0" stroke-width="2" points="509.3032,-116.3847 515.9854,-108.1628 505.6345,-110.423 509.3032,-116.3847"/>
</g>
<!-- 27 -->
<g id="node28" class="node">
<title>27</title>
<path fill="none" stroke="#d8cb56" stroke-width="2" d="M600.5,-252C600.5,-252 488.5,-252 488.5,-252 482.5,-252 476.5,-246 476.5,-240 476.5,-240 476.5,-228 476.5,-228 476.5,-222 482.5,-216 488.5,-216 488.5,-216 600.5,-216 600.5,-216 606.5,-216 612.5,-222 612.5,-228 612.5,-228 612.5,-240 612.5,-240 612.5,-246 606.5,-252 600.5,-252"/>
<text text-anchor="middle" x="544.5" y="-231.5" font-family="sans" font-size="10.00" fill="#000000">reports_merge_cnv_json</text>
</g>
<!-- 27&#45;&gt;26 -->
<g id="edge45" class="edge">
<title>27&#45;&gt;26</title>
<path fill="none" stroke="#c0c0c0" stroke-width="2" d="M515.2283,-215.8314C500.3912,-206.6221 482.1985,-195.3301 466.3138,-185.4706"/>
<polygon fill="#c0c0c0" stroke="#c0c0c0" stroke-width="2" points="468.1045,-182.4628 457.7623,-180.1628 464.413,-188.4102 468.1045,-182.4628"/>
</g>
<!-- 28 -->
<g id="node29" class="node">
<title>28</title>
<path fill="none" stroke="#56a2d8" stroke-width="2" d="M410,-396C410,-396 335,-396 335,-396 329,-396 323,-390 323,-384 323,-384 323,-372 323,-372 323,-366 329,-360 335,-360 335,-360 410,-360 410,-360 416,-360 422,-366 422,-372 422,-372 422,-384 422,-384 422,-390 416,-396 410,-396"/>
<text text-anchor="middle" x="372.5" y="-375.5" font-family="sans" font-size="10.00" fill="#000000">reports_cnv_json</text>
</g>
<!-- 28&#45;&gt;27 -->
<g id="edge46" class="edge">
<title>28&#45;&gt;27</title>
<path fill="none" stroke="#c0c0c0" stroke-width="2" d="M422.2261,-361.7464C465.4968,-347.402 521.8674,-328.1436 525.5,-324 540.2448,-307.181 544.5428,-281.8255 545.4115,-262.309"/>
<polygon fill="#c0c0c0" stroke="#c0c0c0" stroke-width="2" points="548.9135,-262.2172 545.5859,-252.1585 541.9145,-262.0969 548.9135,-262.2172"/>
</g>
<!-- 29 -->
<g id="node30" class="node">
<title>29</title>
<path fill="none" stroke="#a7d856" stroke-width="2" d="M305,-612C305,-612 250,-612 250,-612 244,-612 238,-606 238,-600 238,-600 238,-588 238,-588 238,-582 244,-576 250,-576 250,-576 305,-576 305,-576 311,-576 317,-582 317,-588 317,-588 317,-600 317,-600 317,-606 311,-612 305,-612"/>
<text text-anchor="middle" x="277.5" y="-591.5" font-family="sans" font-size="10.00" fill="#000000">cnvkit_batch</text>
</g>
<!-- 29&#45;&gt;28 -->
<g id="edge49" class="edge">
<title>29&#45;&gt;28</title>
<path fill="none" stroke="#c0c0c0" stroke-width="2" d="M292.6407,-575.8843C300.5322,-565.792 309.8889,-552.725 316.5,-540 339.6496,-495.4416 356.6115,-439.241 365.4851,-406.1044"/>
<polygon fill="#c0c0c0" stroke="#c0c0c0" stroke-width="2" points="368.9312,-406.7608 368.0796,-396.2003 362.1597,-404.9869 368.9312,-406.7608"/>
</g>
<!-- 40 -->
<g id="node41" class="node">
<title>40</title>
<path fill="none" stroke="#56d8c9" stroke-width="2" d="M561.5,-540C561.5,-540 477.5,-540 477.5,-540 471.5,-540 465.5,-534 465.5,-528 465.5,-528 465.5,-516 465.5,-516 465.5,-510 471.5,-504 477.5,-504 477.5,-504 561.5,-504 561.5,-504 567.5,-504 573.5,-510 573.5,-516 573.5,-516 573.5,-528 573.5,-528 573.5,-534 567.5,-540 561.5,-540"/>
<text text-anchor="middle" x="519.5" y="-519.5" font-family="sans" font-size="10.00" fill="#000000">cnv_sv_cnvkit_call</text>
</g>
<!-- 29&#45;&gt;40 -->
<g id="edge66" class="edge">
<title>29&#45;&gt;40</title>
<path fill="none" stroke="#c0c0c0" stroke-width="2" d="M317.1904,-582.1913C354.714,-571.0273 411.6545,-554.0863 455.578,-541.0181"/>
<polygon fill="#c0c0c0" stroke="#c0c0c0" stroke-width="2" points="456.7198,-544.3301 465.3064,-538.1237 454.7235,-537.6208 456.7198,-544.3301"/>
</g>
<!-- 46 -->
<g id="node47" class="node">
<title>46</title>
<path fill="none" stroke="#d6d856" stroke-width="2" d="M216,-108C216,-108 139,-108 139,-108 133,-108 127,-102 127,-96 127,-96 127,-84 127,-84 127,-78 133,-72 139,-72 139,-72 216,-72 216,-72 222,-72 228,-78 228,-84 228,-84 228,-96 228,-96 228,-102 222,-108 216,-108"/>
<text text-anchor="middle" x="177.5" y="-87.5" font-family="sans" font-size="10.00" fill="#000000">_copy_cnvkit_cnr</text>
</g>
<!-- 29&#45;&gt;46 -->
<g id="edge73" class="edge">
<title>29&#45;&gt;46</title>
<path fill="none" stroke="#c0c0c0" stroke-width="2" d="M237.85,-575.8759C222.7533,-567.084 206.7374,-555.1119 196.5,-540 173.5711,-506.1537 177.5,-490.8816 177.5,-450 177.5,-450 177.5,-450 177.5,-234 177.5,-193.876 177.5,-147.4631 177.5,-118.4177"/>
<polygon fill="#c0c0c0" stroke="#c0c0c0" stroke-width="2" points="181.0001,-118.1853 177.5,-108.1854 174.0001,-118.1854 181.0001,-118.1853"/>
</g>
<!-- 47 -->
<g id="node48" class="node">
<title>47</title>
<path fill="none" stroke="#d8b456" stroke-width="2" d="M295.5,-540C295.5,-540 217.5,-540 217.5,-540 211.5,-540 205.5,-534 205.5,-528 205.5,-528 205.5,-516 205.5,-516 205.5,-510 211.5,-504 217.5,-504 217.5,-504 295.5,-504 295.5,-504 301.5,-504 307.5,-510 307.5,-516 307.5,-516 307.5,-528 307.5,-528 307.5,-534 301.5,-540 295.5,-540"/>
<text text-anchor="middle" x="256.5" y="-519.5" font-family="sans" font-size="10.00" fill="#000000">_copy_cnvkit_cns</text>
</g>
<!-- 29&#45;&gt;47 -->
<g id="edge74" class="edge">
<title>29&#45;&gt;47</title>
<path fill="none" stroke="#c0c0c0" stroke-width="2" d="M272.2008,-575.8314C269.9302,-568.0463 267.2254,-558.7729 264.706,-550.1347"/>
<polygon fill="#c0c0c0" stroke="#c0c0c0" stroke-width="2" points="268.0306,-549.0332 261.8705,-540.4133 261.3106,-550.9933 268.0306,-549.0332"/>
</g>
<!-- 30&#45;&gt;29 -->
<g id="edge50" class="edge">
<title>30&#45;&gt;29</title>
<path fill="none" stroke="#c0c0c0" stroke-width="2" d="M361.3218,-1079.6622C335.6211,-1054.1918 294.5,-1005.4069 294.5,-954 294.5,-954 294.5,-954 294.5,-738 294.5,-697.5973 287.8181,-651.2552 282.8326,-622.3013"/>
<polygon fill="#c0c0c0" stroke="#c0c0c0" stroke-width="2" points="286.2165,-621.3387 281.0224,-612.1045 279.3243,-622.5623 286.2165,-621.3387"/>
</g>
<!-- 31 -->
<g id="node32" class="node">
<title>31</title>
<path fill="none" stroke="#d87556" stroke-width="2" d="M254.5,-684C254.5,-684 36.5,-684 36.5,-684 30.5,-684 24.5,-678 24.5,-672 24.5,-672 24.5,-660 24.5,-660 24.5,-654 30.5,-648 36.5,-648 36.5,-648 254.5,-648 254.5,-648 260.5,-648 266.5,-654 266.5,-660 266.5,-660 266.5,-672 266.5,-672 266.5,-678 260.5,-684 254.5,-684"/>
<text text-anchor="middle" x="145.5" y="-663.5" font-family="sans" font-size="10.00" fill="#000000">alignment_samtools_index_haplotagged_bam</text>
</g>
<!-- 30&#45;&gt;31 -->
<g id="edge56" class="edge">
<title>30&#45;&gt;31</title>
<path fill="none" stroke="#c0c0c0" stroke-width="2" d="M325.5336,-1079.8455C272.6942,-1058.7755 201.5,-1018.4314 201.5,-954 201.5,-954 201.5,-954 201.5,-810 201.5,-766.8617 179.4001,-721.0945 162.9668,-693.0255"/>
<polygon fill="#c0c0c0" stroke="#c0c0c0" stroke-width="2" points="165.8137,-690.9688 157.6512,-684.2143 159.82,-694.5847 165.8137,-690.9688"/>
</g>
<!-- 41 -->
<g id="node42" class="node">
<title>41</title>
<path fill="none" stroke="#56d8d0" stroke-width="2" d="M428,-828C428,-828 335,-828 335,-828 329,-828 323,-822 323,-816 323,-816 323,-804 323,-804 323,-798 329,-792 335,-792 335,-792 428,-792 428,-792 434,-792 440,-798 440,-804 440,-804 440,-816 440,-816 440,-822 434,-828 428,-828"/>
<text text-anchor="middle" x="381.5" y="-807.5" font-family="sans" font-size="10.00" fill="#000000">_copy_mapped_bam</text>
</g>
<!-- 30&#45;&gt;41 -->
<g id="edge68" class="edge">
<title>30&#45;&gt;41</title>
<path fill="none" stroke="#c0c0c0" stroke-width="2" d="M381.5,-1079.9843C381.5,-1031.2939 381.5,-896.7961 381.5,-838.0573"/>
<polygon fill="#c0c0c0" stroke="#c0c0c0" stroke-width="2" points="385.0001,-838.0088 381.5,-828.0089 378.0001,-838.0089 385.0001,-838.0088"/>
</g>
<!-- 31&#45;&gt;29 -->
<g id="edge51" class="edge">
<title>31&#45;&gt;29</title>
<path fill="none" stroke="#c0c0c0" stroke-width="2" d="M178.8092,-647.8314C195.9273,-638.4942 216.9706,-627.016 235.2222,-617.0606"/>
<polygon fill="#c0c0c0" stroke="#c0c0c0" stroke-width="2" points="237.0985,-620.024 244.2015,-612.1628 233.7465,-613.8788 237.0985,-620.024"/>
</g>
<!-- 42 -->
<g id="node43" class="node">
<title>42</title>
<path fill="none" stroke="#56d8d8" stroke-width="2" d="M137,-324C137,-324 12,-324 12,-324 6,-324 0,-318 0,-312 0,-312 0,-300 0,-300 0,-294 6,-288 12,-288 12,-288 137,-288 137,-288 143,-288 149,-294 149,-300 149,-300 149,-312 149,-312 149,-318 143,-324 137,-324"/>
<text text-anchor="middle" x="74.5" y="-303.5" font-family="sans" font-size="10.00" fill="#000000">_copy_mapped_bam_index</text>
</g>
<!-- 31&#45;&gt;42 -->
<g id="edge69" class="edge">
<title>31&#45;&gt;42</title>
<path fill="none" stroke="#c0c0c0" stroke-width="2" d="M137.4412,-647.7668C126.2866,-620.8248 107.5,-568.5405 107.5,-522 107.5,-522 107.5,-522 107.5,-450 107.5,-408.8829 94.559,-362.7926 84.8848,-334.082"/>
<polygon fill="#c0c0c0" stroke="#c0c0c0" stroke-width="2" points="88.0857,-332.6302 81.4985,-324.3321 81.4732,-334.9269 88.0857,-332.6302"/>
</g>
<!-- 32 -->
<g id="node33" class="node">
<title>32</title>
<path fill="none" stroke="#70d856" stroke-width="2" d="M680,-468C680,-468 603,-468 603,-468 597,-468 591,-462 591,-456 591,-456 591,-444 591,-444 591,-438 597,-432 603,-432 603,-432 680,-432 680,-432 686,-432 692,-438 692,-444 692,-444 692,-456 692,-456 692,-462 686,-468 680,-468"/>
<text text-anchor="middle" x="641.5" y="-447.5" font-family="sans" font-size="10.00" fill="#000000">snv_indels_fix_af</text>
</g>
<!-- 32&#45;&gt;27 -->
<g id="edge48" class="edge">
<title>32&#45;&gt;27</title>
<path fill="none" stroke="#c0c0c0" stroke-width="2" d="M639.544,-431.8763C637.1138,-413.3096 632.0648,-383.8653 622.5,-360 607.6885,-323.0437 582.2808,-284.724 564.5005,-260.1942"/>
<polygon fill="#c0c0c0" stroke="#c0c0c0" stroke-width="2" points="567.3043,-258.0991 558.5593,-252.1177 561.6656,-262.247 567.3043,-258.0991"/>
</g>
<!-- 33 -->
<g id="node34" class="node">
<title>33</title>
<path fill="none" stroke="#d85e56" stroke-width="2" d="M670,-612C670,-612 505,-612 505,-612 499,-612 493,-606 493,-600 493,-600 493,-588 493,-588 493,-582 499,-576 505,-576 505,-576 670,-576 670,-576 676,-576 682,-582 682,-588 682,-588 682,-600 682,-600 682,-606 676,-612 670,-612"/>
<text text-anchor="middle" x="587.5" y="-591.5" font-family="sans" font-size="10.00" fill="#000000">filtering_bcftools_view_nonsomatic</text>
</g>
<!-- 33&#45;&gt;32 -->
<g id="edge57" class="edge">
<title>33&#45;&gt;32</title>
<path fill="none" stroke="#c0c0c0" stroke-width="2" d="M594.3391,-575.7623C603.6308,-550.9846 620.3232,-506.4714 631.1523,-477.5939"/>
<polygon fill="#c0c0c0" stroke="#c0c0c0" stroke-width="2" points="634.4822,-478.6819 634.7164,-468.0896 627.9279,-476.224 634.4822,-478.6819"/>
</g>
<!-- 33&#45;&gt;40 -->
<g id="edge67" class="edge">
<title>33&#45;&gt;40</title>
<path fill="none" stroke="#c0c0c0" stroke-width="2" d="M570.3407,-575.8314C562.3489,-567.3694 552.6962,-557.1489 543.9584,-547.8971"/>
<polygon fill="#c0c0c0" stroke="#c0c0c0" stroke-width="2" points="546.3011,-545.2802 536.8903,-540.4133 541.212,-550.0866 546.3011,-545.2802"/>
</g>
<!-- 34 -->
<g id="node35" class="node">
<title>34</title>
<path fill="none" stroke="#59d856" stroke-width="2" d="M638.5,-684C638.5,-684 536.5,-684 536.5,-684 530.5,-684 524.5,-678 524.5,-672 524.5,-672 524.5,-660 524.5,-660 524.5,-654 530.5,-648 536.5,-648 536.5,-648 638.5,-648 638.5,-648 644.5,-648 650.5,-654 650.5,-660 650.5,-660 650.5,-672 650.5,-672 650.5,-678 644.5,-684 638.5,-684"/>
<text text-anchor="middle" x="587.5" y="-663.5" font-family="sans" font-size="10.00" fill="#000000">bgzip_filtered_vep_vcf</text>
</g>
<!-- 34&#45;&gt;33 -->
<g id="edge58" class="edge">
<title>34&#45;&gt;33</title>
<path fill="none" stroke="#c0c0c0" stroke-width="2" d="M587.5,-647.8314C587.5,-640.131 587.5,-630.9743 587.5,-622.4166"/>
<polygon fill="#c0c0c0" stroke="#c0c0c0" stroke-width="2" points="591.0001,-622.4132 587.5,-612.4133 584.0001,-622.4133 591.0001,-622.4132"/>
</g>
<!-- 35&#45;&gt;34 -->
<g id="edge59" class="edge">
<title>35&#45;&gt;34</title>
<path fill="none" stroke="#c0c0c0" stroke-width="2" d="M587.5,-719.8314C587.5,-712.131 587.5,-702.9743 587.5,-694.4166"/>
<polygon fill="#c0c0c0" stroke="#c0c0c0" stroke-width="2" points="591.0001,-694.4132 587.5,-684.4133 584.0001,-694.4133 591.0001,-694.4132"/>
</g>
<!-- 36&#45;&gt;35 -->
<g id="edge60" class="edge">
<title>36&#45;&gt;35</title>
<path fill="none" stroke="#c0c0c0" stroke-width="2" d="M633.8548,-791.8314C626.6409,-783.454 617.943,-773.3531 610.0395,-764.1749"/>
<polygon fill="#c0c0c0" stroke="#c0c0c0" stroke-width="2" points="612.5333,-761.7071 603.3559,-756.4133 607.2289,-766.2748 612.5333,-761.7071"/>
</g>
<!-- 37 -->
<g id="node38" class="node">
<title>37</title>
<path fill="none" stroke="#d87d56" stroke-width="2" d="M504,-324C504,-324 391,-324 391,-324 385,-324 379,-318 379,-312 379,-312 379,-300 379,-300 379,-294 385,-288 391,-288 391,-288 504,-288 504,-288 510,-288 516,-294 516,-300 516,-300 516,-312 516,-312 516,-318 510,-324 504,-324"/>
<text text-anchor="middle" x="447.5" y="-303.5" font-family="sans" font-size="10.00" fill="#000000">cnv_sv_bgzip_cnvkit_vcf</text>
</g>
<!-- 37&#45;&gt;27 -->
<g id="edge47" class="edge">
<title>37&#45;&gt;27</title>
<path fill="none" stroke="#c0c0c0" stroke-width="2" d="M471.9772,-287.8314C484.0395,-278.8779 498.754,-267.9558 511.7686,-258.2955"/>
<polygon fill="#c0c0c0" stroke="#c0c0c0" stroke-width="2" points="514.087,-260.9335 520.0306,-252.1628 509.9148,-255.3127 514.087,-260.9335"/>
</g>
<!-- 45 -->
<g id="node46" class="node">
<title>45</title>
<path fill="none" stroke="#56d8a9" stroke-width="2" d="M446.5,-252C446.5,-252 334.5,-252 334.5,-252 328.5,-252 322.5,-246 322.5,-240 322.5,-240 322.5,-228 322.5,-228 322.5,-222 328.5,-216 334.5,-216 334.5,-216 446.5,-216 446.5,-216 452.5,-216 458.5,-222 458.5,-228 458.5,-228 458.5,-240 458.5,-240 458.5,-246 452.5,-252 446.5,-252"/>
<text text-anchor="middle" x="390.5" y="-231.5" font-family="sans" font-size="10.00" fill="#000000">cnv_sv_tabix_cnvkit_vcf</text>
</g>
<!-- 37&#45;&gt;45 -->
<g id="edge72" class="edge">
<title>37&#45;&gt;45</title>
<path fill="none" stroke="#c0c0c0" stroke-width="2" d="M433.1165,-287.8314C426.5514,-279.5386 418.6493,-269.557 411.4422,-260.4533"/>
<polygon fill="#c0c0c0" stroke="#c0c0c0" stroke-width="2" points="414.0284,-258.0813 405.0772,-252.4133 408.5401,-262.4262 414.0284,-258.0813"/>
</g>
<!-- 38 -->
<g id="node39" class="node">
<title>38</title>
<path fill="none" stroke="#97d856" stroke-width="2" d="M601,-396C601,-396 452,-396 452,-396 446,-396 440,-390 440,-384 440,-384 440,-372 440,-372 440,-366 446,-360 452,-360 452,-360 601,-360 601,-360 607,-360 613,-366 613,-372 613,-372 613,-384 613,-384 613,-390 607,-396 601,-396"/>
<text text-anchor="middle" x="526.5" y="-375.5" font-family="sans" font-size="10.00" fill="#000000">annotation_annotate_cnvkit_vcf</text>
</g>
<!-- 38&#45;&gt;37 -->
<g id="edge63" class="edge">
<title>38&#45;&gt;37</title>
<path fill="none" stroke="#c0c0c0" stroke-width="2" d="M506.565,-359.8314C497.0217,-351.1337 485.4401,-340.5783 475.0694,-331.1265"/>
<polygon fill="#c0c0c0" stroke="#c0c0c0" stroke-width="2" points="477.1772,-328.3121 467.4287,-324.1628 472.462,-333.4857 477.1772,-328.3121"/>
</g>
<!-- 43 -->
<g id="node44" class="node">
<title>43</title>
<path fill="none" stroke="#56d88a" stroke-width="2" d="M658,-180C658,-180 527,-180 527,-180 521,-180 515,-174 515,-168 515,-168 515,-156 515,-156 515,-150 521,-144 527,-144 527,-144 658,-144 658,-144 664,-144 670,-150 670,-156 670,-156 670,-168 670,-168 670,-174 664,-180 658,-180"/>
<text text-anchor="middle" x="592.5" y="-159.5" font-family="sans" font-size="10.00" fill="#000000">_copy_annotated_cnvkit_vcf</text>
</g>
<!-- 38&#45;&gt;43 -->
<g id="edge70" class="edge">
<title>38&#45;&gt;43</title>
<path fill="none" stroke="#c0c0c0" stroke-width="2" d="M546.4549,-359.8474C569.6742,-337.2363 606.7163,-296.1644 621.5,-252 626.5789,-236.8275 625.4029,-231.5167 621.5,-216 619.1614,-206.7024 614.877,-197.2609 610.3062,-188.9283"/>
<polygon fill="#c0c0c0" stroke="#c0c0c0" stroke-width="2" points="613.1857,-186.9192 605.1122,-180.0585 607.1451,-190.4564 613.1857,-186.9192"/>
</g>
<!-- 38&#45;&gt;49 -->
<g id="edge76" class="edge">
<title>38&#45;&gt;49</title>
<path fill="none" stroke="#c0c0c0" stroke-width="2" d="M588.0076,-359.9243C622.083,-349.9103 664.6118,-337.412 700.1437,-326.97"/>
<polygon fill="#c0c0c0" stroke="#c0c0c0" stroke-width="2" points="701.3597,-330.2608 709.9671,-324.0831 699.3859,-323.5448 701.3597,-330.2608"/>
</g>
<!-- 39 -->
<g id="node40" class="node">
<title>39</title>
<path fill="none" stroke="#5682d8" stroke-width="2" d="M560.5,-468C560.5,-468 478.5,-468 478.5,-468 472.5,-468 466.5,-462 466.5,-456 466.5,-456 466.5,-444 466.5,-444 466.5,-438 472.5,-432 478.5,-432 478.5,-432 560.5,-432 560.5,-432 566.5,-432 572.5,-438 572.5,-444 572.5,-444 572.5,-456 572.5,-456 572.5,-462 566.5,-468 560.5,-468"/>
<text text-anchor="middle" x="519.5" y="-447.5" font-family="sans" font-size="10.00" fill="#000000">cnv_sv_cnvkit_vcf</text>
</g>
<!-- 39&#45;&gt;38 -->
<g id="edge64" class="edge">
<title>39&#45;&gt;38</title>
<path fill="none" stroke="#c0c0c0" stroke-width="2" d="M521.2664,-431.8314C522.015,-424.131 522.9053,-414.9743 523.7373,-406.4166"/>
<polygon fill="#c0c0c0" stroke="#c0c0c0" stroke-width="2" points="527.2256,-406.7051 524.7098,-396.4133 520.2585,-406.0276 527.2256,-406.7051"/>
</g>
<!-- 40&#45;&gt;39 -->
<g id="edge65" class="edge">
<title>40&#45;&gt;39</title>
<path fill="none" stroke="#c0c0c0" stroke-width="2" d="M519.5,-503.8314C519.5,-496.131 519.5,-486.9743 519.5,-478.4166"/>
<polygon fill="#c0c0c0" stroke="#c0c0c0" stroke-width="2" points="523.0001,-478.4132 519.5,-468.4133 516.0001,-478.4133 523.0001,-478.4132"/>
</g>
<!-- 41&#45;&gt;0 -->
<g id="edge4" class="edge">
<title>41&#45;&gt;0</title>
<path fill="none" stroke="#c0c0c0" stroke-width="2" d="M379.8424,-791.8326C377.4991,-764.5392 373.5,-711.3198 373.5,-666 373.5,-666 373.5,-666 373.5,-522 373.5,-459.9749 333.3779,-454.7536 313.5,-396 300.3982,-357.2747 294.5,-346.8816 294.5,-306 294.5,-306 294.5,-306 294.5,-162 294.5,-121.1184 284.321,-100.6338 313.5,-72 347.6939,-38.4448 489.5225,-24.8356 558.0739,-20.1371"/>
<polygon fill="#c0c0c0" stroke="#c0c0c0" stroke-width="2" points="558.6699,-23.6056 568.4191,-19.4578 558.2112,-16.6206 558.6699,-23.6056"/>
</g>
<!-- 42&#45;&gt;0 -->
<g id="edge5" class="edge">
<title>42&#45;&gt;0</title>
<path fill="none" stroke="#c0c0c0" stroke-width="2" d="M71.4293,-287.7476C65.1208,-243.3847 56.0417,-129.3438 117.5,-72 149.5955,-42.0533 451.3867,-24.8727 558.2313,-19.6883"/>
<polygon fill="#c0c0c0" stroke="#c0c0c0" stroke-width="2" points="558.4177,-23.1834 568.2393,-19.2102 558.0836,-16.1914 558.4177,-23.1834"/>
</g>
<!-- 43&#45;&gt;0 -->
<g id="edge10" class="edge">
<title>43&#45;&gt;0</title>
<path fill="none" stroke="#c0c0c0" stroke-width="2" d="M607.614,-143.7768C614.8549,-133.8586 622.7524,-120.9858 626.5,-108 630.9365,-92.6274 630.6221,-87.4599 626.5,-72 624.0048,-62.6419 619.4592,-53.2199 614.6039,-44.925"/>
<polygon fill="#c0c0c0" stroke="#c0c0c0" stroke-width="2" points="617.5608,-43.0521 609.2963,-36.4228 611.6229,-46.759 617.5608,-43.0521"/>
</g>
<!-- 44 -->
<g id="node45" class="node">
<title>44</title>
<path fill="none" stroke="#56d863" stroke-width="2" d="M444,-108C444,-108 335,-108 335,-108 329,-108 323,-102 323,-96 323,-96 323,-84 323,-84 323,-78 329,-72 335,-72 335,-72 444,-72 444,-72 450,-72 456,-78 456,-84 456,-84 456,-96 456,-96 456,-102 450,-108 444,-108"/>
<text text-anchor="middle" x="389.5" y="-87.5" font-family="sans" font-size="10.00" fill="#000000">_copy_index_cnvkit_vcf</text>
</g>
<!-- 44&#45;&gt;0 -->
<g id="edge7" class="edge">
<title>44&#45;&gt;0</title>
<path fill="none" stroke="#c0c0c0" stroke-width="2" d="M441.2166,-71.9243C477.8315,-59.1268 526.0547,-42.2722 558.7723,-30.8369"/>
<polygon fill="#c0c0c0" stroke="#c0c0c0" stroke-width="2" points="560.1131,-34.0759 568.3983,-27.4724 557.8034,-27.4679 560.1131,-34.0759"/>
</g>
<!-- 45&#45;&gt;44 -->
<g id="edge71" class="edge">
<title>45&#45;&gt;44</title>
<path fill="none" stroke="#c0c0c0" stroke-width="2" d="M372.7892,-215.6517C364.6058,-205.8946 355.7696,-193.2041 351.5,-180 346.5773,-164.7761 346.6708,-159.2538 351.5,-144 354.5815,-134.2664 360.1183,-124.7695 366.0289,-116.5228"/>
<polygon fill="#c0c0c0" stroke="#c0c0c0" stroke-width="2" points="368.931,-118.49 372.2365,-108.4239 363.3752,-114.2316 368.931,-118.49"/>
</g>
<!-- 46&#45;&gt;0 -->
<g id="edge3" class="edge">
<title>46&#45;&gt;0</title>
<path fill="none" stroke="#c0c0c0" stroke-width="2" d="M228.0988,-75.3646C232.9476,-74.1504 237.8056,-73.0054 242.5,-72 356.4907,-47.5875 493.4694,-29.9044 558.1696,-22.2356"/>
<polygon fill="#c0c0c0" stroke="#c0c0c0" stroke-width="2" points="558.7628,-25.6901 568.2868,-21.0485 557.947,-18.7378 558.7628,-25.6901"/>
</g>
<!-- 47&#45;&gt;0 -->
<g id="edge11" class="edge">
<title>47&#45;&gt;0</title>
<path fill="none" stroke="#c0c0c0" stroke-width="2" d="M256.5,-503.8146C256.5,-476.4983 256.5,-423.25 256.5,-378 256.5,-378 256.5,-378 256.5,-162 256.5,-120.6022 249.9286,-99.9136 280.5,-72 320.6279,-35.3606 483.7487,-23.1764 558.1667,-19.4739"/>
<polygon fill="#c0c0c0" stroke="#c0c0c0" stroke-width="2" points="558.6537,-22.9549 568.4776,-18.9873 558.3237,-15.9627 558.6537,-22.9549"/>
</g>
<!-- 48 -->
<g id="node49" class="node">
<title>48</title>
<path fill="none" stroke="#56b1d8" stroke-width="2" d="M845,-180C845,-180 700,-180 700,-180 694,-180 688,-174 688,-168 688,-168 688,-156 688,-156 688,-150 694,-144 700,-144 700,-144 845,-144 845,-144 851,-144 857,-150 857,-156 857,-156 857,-168 857,-168 857,-174 851,-180 845,-180"/>
<text text-anchor="middle" x="772.5" y="-159.5" font-family="sans" font-size="10.00" fill="#000000">_copy_combined_variants_xlsx</text>
</g>
<!-- 48&#45;&gt;0 -->
<g id="edge9" class="edge">
<title>48&#45;&gt;0</title>
<path fill="none" stroke="#c0c0c0" stroke-width="2" d="M750.0828,-143.7623C718.563,-118.119 661.0603,-71.3372 625.7697,-42.6262"/>
<polygon fill="#c0c0c0" stroke="#c0c0c0" stroke-width="2" points="627.7011,-39.6855 617.7352,-36.0896 623.2835,-45.1155 627.7011,-39.6855"/>
</g>
<!-- 49&#45;&gt;48 -->
<g id="edge75" class="edge">
<title>49&#45;&gt;48</title>
<path fill="none" stroke="#c0c0c0" stroke-width="2" d="M771.6267,-287.7623C771.7972,-263.201 772.1024,-219.2474 772.3031,-190.3541"/>
<polygon fill="#c0c0c0" stroke="#c0c0c0" stroke-width="2" points="775.8048,-190.1137 772.3744,-180.0896 768.8049,-190.065 775.8048,-190.1137"/>
</g>
</g>
</svg>
