<?xml version="1.0" encoding="UTF-8" standalone="no"?>
<!DOCTYPE svg PUBLIC "-//W3C//DTD SVG 1.1//EN"
 "http://www.w3.org/Graphics/SVG/1.1/DTD/svg11.dtd">
<!-- Generated by graphviz version 2.40.1 (0)
 -->
<!-- Title: snakemake_dag Pages: 1 -->
<svg width="1020pt" height="1484pt"
 viewBox="0.00 0.00 1019.50 1484.00" xmlns="http://www.w3.org/2000/svg" xmlns:xlink="http://www.w3.org/1999/xlink">
<g id="graph0" class="graph" transform="scale(1 1) rotate(0) translate(4 1480)">
<title>snakemake_dag</title>
<polygon fill="#ffffff" stroke="transparent" points="-4,4 -4,-1480 1015.5,-1480 1015.5,4 -4,4"/>
<!-- 0 -->
<g id="node1" class="node">
<title>0</title>
<path fill="none" stroke="#70d856" stroke-width="2" d="M654.5,-36C654.5,-36 624.5,-36 624.5,-36 618.5,-36 612.5,-30 612.5,-24 612.5,-24 612.5,-12 612.5,-12 612.5,-6 618.5,0 624.5,0 624.5,0 654.5,0 654.5,0 660.5,0 666.5,-6 666.5,-12 666.5,-12 666.5,-24 666.5,-24 666.5,-30 660.5,-36 654.5,-36"/>
<text text-anchor="middle" x="639.5" y="-15.5" font-family="sans" font-size="10.00" fill="#000000">all</text>
</g>
<!-- 1 -->
<g id="node2" class="node">
<title>1</title>
<path fill="none" stroke="#bed856" stroke-width="2" d="M135.5,-684C135.5,-684 25.5,-684 25.5,-684 19.5,-684 13.5,-678 13.5,-672 13.5,-672 13.5,-660 13.5,-660 13.5,-654 19.5,-648 25.5,-648 25.5,-648 135.5,-648 135.5,-648 141.5,-648 147.5,-654 147.5,-660 147.5,-660 147.5,-672 147.5,-672 147.5,-678 141.5,-684 135.5,-684"/>
<text text-anchor="middle" x="80.5" y="-663.5" font-family="sans" font-size="10.00" fill="#000000">_copy_deepsomatic_vcf</text>
</g>
<!-- 1&#45;&gt;0 -->
<g id="edge5" class="edge">
<title>1&#45;&gt;0</title>
<path fill="none" stroke="#c0c0c0" stroke-width="2" d="M82.9864,-647.855C86.5013,-620.5902 92.5,-567.4068 92.5,-522 92.5,-522 92.5,-522 92.5,-162 92.5,-56.3226 479.1349,-26.5544 602.2931,-19.7528"/>
<polygon fill="#c0c0c0" stroke="#c0c0c0" stroke-width="2" points="602.5747,-23.2428 612.3742,-19.2153 602.202,-16.2528 602.5747,-23.2428"/>
</g>
<!-- 2 -->
<g id="node3" class="node">
<title>2</title>
<path fill="none" stroke="#d8d356" stroke-width="2" d="M149,-972C149,-972 12,-972 12,-972 6,-972 0,-966 0,-960 0,-960 0,-948 0,-948 0,-942 6,-936 12,-936 12,-936 149,-936 149,-936 155,-936 161,-942 161,-948 161,-948 161,-960 161,-960 161,-966 155,-972 149,-972"/>
<text text-anchor="middle" x="80.5" y="-951.5" font-family="sans" font-size="10.00" fill="#000000">annotation_vep_deepsomatic</text>
</g>
<!-- 2&#45;&gt;1 -->
<g id="edge11" class="edge">
<title>2&#45;&gt;1</title>
<path fill="none" stroke="#c0c0c0" stroke-width="2" d="M80.5,-935.9843C80.5,-887.2939 80.5,-752.7961 80.5,-694.0573"/>
<polygon fill="#c0c0c0" stroke="#c0c0c0" stroke-width="2" points="84.0001,-694.0088 80.5,-684.0089 77.0001,-694.0089 84.0001,-694.0088"/>
</g>
<!-- 3 -->
<g id="node4" class="node">
<title>3</title>
<path fill="none" stroke="#d8cb56" stroke-width="2" d="M138,-1044C138,-1044 13,-1044 13,-1044 7,-1044 1,-1038 1,-1032 1,-1032 1,-1020 1,-1020 1,-1014 7,-1008 13,-1008 13,-1008 138,-1008 138,-1008 144,-1008 150,-1014 150,-1020 150,-1020 150,-1032 150,-1032 150,-1038 144,-1044 138,-1044"/>
<text text-anchor="middle" x="75.5" y="-1023.5" font-family="sans" font-size="10.00" fill="#000000">cnv_sv_tabix_deepsomatic</text>
</g>
<!-- 3&#45;&gt;2 -->
<g id="edge12" class="edge">
<title>3&#45;&gt;2</title>
<path fill="none" stroke="#c0c0c0" stroke-width="2" d="M76.7617,-1007.8314C77.2965,-1000.131 77.9323,-990.9743 78.5266,-982.4166"/>
<polygon fill="#c0c0c0" stroke="#c0c0c0" stroke-width="2" points="82.02,-982.6317 79.2213,-972.4133 75.0368,-982.1467 82.02,-982.6317"/>
</g>
<!-- 4 -->
<g id="node5" class="node">
<title>4</title>
<path fill="none" stroke="#569ad8" stroke-width="2" d="M276.5,-1116C276.5,-1116 76.5,-1116 76.5,-1116 70.5,-1116 64.5,-1110 64.5,-1104 64.5,-1104 64.5,-1092 64.5,-1092 64.5,-1086 70.5,-1080 76.5,-1080 76.5,-1080 276.5,-1080 276.5,-1080 282.5,-1080 288.5,-1086 288.5,-1092 288.5,-1092 288.5,-1104 288.5,-1104 288.5,-1110 282.5,-1116 276.5,-1116"/>
<text text-anchor="middle" x="176.5" y="-1095.5" font-family="sans" font-size="10.00" fill="#000000">snv_indels_whatshap_phase_deepsomatic</text>
</g>
<!-- 4&#45;&gt;2 -->
<g id="edge13" class="edge">
<title>4&#45;&gt;2</title>
<path fill="none" stroke="#c0c0c0" stroke-width="2" d="M176.7567,-1079.9457C176.2014,-1060.6334 172.8501,-1029.8399 158.5,-1008 150.5672,-995.9268 138.9139,-985.7877 127.0208,-977.6745"/>
<polygon fill="#c0c0c0" stroke="#c0c0c0" stroke-width="2" points="128.6755,-974.5778 118.3682,-972.1263 124.897,-980.4705 128.6755,-974.5778"/>
</g>
<!-- 4&#45;&gt;3 -->
<g id="edge14" class="edge">
<title>4&#45;&gt;3</title>
<path fill="none" stroke="#c0c0c0" stroke-width="2" d="M151.0134,-1079.8314C138.3341,-1070.7927 122.8404,-1059.7476 109.1945,-1050.0198"/>
<polygon fill="#c0c0c0" stroke="#c0c0c0" stroke-width="2" points="111.1529,-1047.1176 100.9784,-1044.1628 107.0895,-1052.8176 111.1529,-1047.1176"/>
</g>
<!-- 5 -->
<g id="node6" class="node">
<title>5</title>
<path fill="none" stroke="#d8ac56" stroke-width="2" d="M250.5,-1188C250.5,-1188 102.5,-1188 102.5,-1188 96.5,-1188 90.5,-1182 90.5,-1176 90.5,-1176 90.5,-1164 90.5,-1164 90.5,-1158 96.5,-1152 102.5,-1152 102.5,-1152 250.5,-1152 250.5,-1152 256.5,-1152 262.5,-1158 262.5,-1164 262.5,-1164 262.5,-1176 262.5,-1176 262.5,-1182 256.5,-1188 250.5,-1188"/>
<text text-anchor="middle" x="176.5" y="-1167.5" font-family="sans" font-size="10.00" fill="#000000">snv_indels_deepsomatic_t_only</text>
</g>
<!-- 5&#45;&gt;4 -->
<g id="edge15" class="edge">
<title>5&#45;&gt;4</title>
<path fill="none" stroke="#c0c0c0" stroke-width="2" d="M176.5,-1151.8314C176.5,-1144.131 176.5,-1134.9743 176.5,-1126.4166"/>
<polygon fill="#c0c0c0" stroke="#c0c0c0" stroke-width="2" points="180.0001,-1126.4132 176.5,-1116.4133 173.0001,-1126.4133 180.0001,-1126.4132"/>
</g>
<!-- 6 -->
<g id="node7" class="node">
<title>6</title>
<path fill="none" stroke="#56d892" stroke-width="2" d="M635.5,-1332C635.5,-1332 513.5,-1332 513.5,-1332 507.5,-1332 501.5,-1326 501.5,-1320 501.5,-1320 501.5,-1308 501.5,-1308 501.5,-1302 507.5,-1296 513.5,-1296 513.5,-1296 635.5,-1296 635.5,-1296 641.5,-1296 647.5,-1302 647.5,-1308 647.5,-1308 647.5,-1320 647.5,-1320 647.5,-1326 641.5,-1332 635.5,-1332"/>
<text text-anchor="middle" x="574.5" y="-1311.5" font-family="sans" font-size="10.00" fill="#000000">alignment_pbmm2_merge</text>
</g>
<!-- 6&#45;&gt;4 -->
<g id="edge16" class="edge">
<title>6&#45;&gt;4</title>
<path fill="none" stroke="#c0c0c0" stroke-width="2" d="M501.2642,-1307.0869C375.4575,-1293.4241 127.3484,-1258.03 81.5,-1188 72.736,-1174.6137 73.4535,-1165.8294 81.5,-1152 89.0194,-1139.0766 100.9129,-1128.9924 113.7746,-1121.224"/>
<polygon fill="#c0c0c0" stroke="#c0c0c0" stroke-width="2" points="115.7532,-1124.1286 122.7916,-1116.2095 112.351,-1118.0109 115.7532,-1124.1286"/>
</g>
<!-- 6&#45;&gt;5 -->
<g id="edge19" class="edge">
<title>6&#45;&gt;5</title>
<path fill="none" stroke="#c0c0c0" stroke-width="2" d="M501.4185,-1306.5091C447.6083,-1299.207 373.504,-1285.3568 312.5,-1260 272.8667,-1243.5261 232.4828,-1215.0035 206.1349,-1194.4785"/>
<polygon fill="#c0c0c0" stroke="#c0c0c0" stroke-width="2" points="208.1078,-1191.5766 198.0924,-1188.121 203.7669,-1197.0681 208.1078,-1191.5766"/>
</g>
<!-- 10 -->
<g id="node11" class="node">
<title>10</title>
<path fill="none" stroke="#56d863" stroke-width="2" d="M534,-1260C534,-1260 367,-1260 367,-1260 361,-1260 355,-1254 355,-1248 355,-1248 355,-1236 355,-1236 355,-1230 361,-1224 367,-1224 367,-1224 534,-1224 534,-1224 540,-1224 546,-1230 546,-1236 546,-1236 546,-1248 546,-1248 546,-1254 540,-1260 534,-1260"/>
<text text-anchor="middle" x="450.5" y="-1239.5" font-family="sans" font-size="10.00" fill="#000000">alignment_samtools_index_pbmm2</text>
</g>
<!-- 6&#45;&gt;10 -->
<g id="edge23" class="edge">
<title>6&#45;&gt;10</title>
<path fill="none" stroke="#c0c0c0" stroke-width="2" d="M543.2096,-1295.8314C527.2023,-1286.5368 507.5414,-1275.1208 490.4506,-1265.1971"/>
<polygon fill="#c0c0c0" stroke="#c0c0c0" stroke-width="2" points="492.1858,-1262.1575 481.7804,-1260.1628 488.6708,-1268.211 492.1858,-1262.1575"/>
</g>
<!-- 16 -->
<g id="node17" class="node">
<title>16</title>
<path fill="none" stroke="#5663d8" stroke-width="2" d="M586,-1044C586,-1044 423,-1044 423,-1044 417,-1044 411,-1038 411,-1032 411,-1032 411,-1020 411,-1020 411,-1014 417,-1008 423,-1008 423,-1008 586,-1008 586,-1008 592,-1008 598,-1014 598,-1020 598,-1020 598,-1032 598,-1032 598,-1038 592,-1044 586,-1044"/>
<text text-anchor="middle" x="504.5" y="-1023.5" font-family="sans" font-size="10.00" fill="#000000">snv_indels_whatshap_phase_clairs</text>
</g>
<!-- 6&#45;&gt;16 -->
<g id="edge31" class="edge">
<title>6&#45;&gt;16</title>
<path fill="none" stroke="#c0c0c0" stroke-width="2" d="M582.4444,-1295.8154C599.2272,-1254.4148 633.5881,-1151.2131 593.5,-1080 586.2966,-1067.2038 574.7006,-1057.0907 562.2258,-1049.2465"/>
<polygon fill="#c0c0c0" stroke="#c0c0c0" stroke-width="2" points="563.8972,-1046.1698 553.4922,-1044.1733 560.3811,-1052.2227 563.8972,-1046.1698"/>
</g>
<!-- 18 -->
<g id="node19" class="node">
<title>18</title>
<path fill="none" stroke="#56d86b" stroke-width="2" d="M565,-1188C565,-1188 452,-1188 452,-1188 446,-1188 440,-1182 440,-1176 440,-1176 440,-1164 440,-1164 440,-1158 446,-1152 452,-1152 452,-1152 565,-1152 565,-1152 571,-1152 577,-1158 577,-1164 577,-1164 577,-1176 577,-1176 577,-1182 571,-1188 565,-1188"/>
<text text-anchor="middle" x="508.5" y="-1167.5" font-family="sans" font-size="10.00" fill="#000000">snv_indels_clairs_to_call</text>
</g>
<!-- 6&#45;&gt;18 -->
<g id="edge36" class="edge">
<title>6&#45;&gt;18</title>
<path fill="none" stroke="#c0c0c0" stroke-width="2" d="M573.0668,-1295.8961C570.999,-1277.0856 566.0608,-1247.2102 554.5,-1224 549.5068,-1213.9754 542.2566,-1204.2588 534.9828,-1195.8963"/>
<polygon fill="#c0c0c0" stroke="#c0c0c0" stroke-width="2" points="537.4013,-1193.3543 528.0747,-1188.3278 532.2311,-1198.0733 537.4013,-1193.3543"/>
</g>
<!-- 23 -->
<g id="node24" class="node">
<title>23</title>
<path fill="none" stroke="#d8c356" stroke-width="2" d="M754,-1188C754,-1188 653,-1188 653,-1188 647,-1188 641,-1182 641,-1176 641,-1176 641,-1164 641,-1164 641,-1158 647,-1152 653,-1152 653,-1152 754,-1152 754,-1152 760,-1152 766,-1158 766,-1164 766,-1164 766,-1176 766,-1176 766,-1182 760,-1188 754,-1188"/>
<text text-anchor="middle" x="703.5" y="-1167.5" font-family="sans" font-size="10.00" fill="#000000">cnv_sv_pbsv_discover</text>
</g>
<!-- 6&#45;&gt;23 -->
<g id="edge42" class="edge">
<title>6&#45;&gt;23</title>
<path fill="none" stroke="#c0c0c0" stroke-width="2" d="M592.5819,-1295.7605C602.7081,-1285.413 615.4773,-1272.1419 626.5,-1260 645.6777,-1238.8751 666.6862,-1214.2113 681.9075,-1196.0502"/>
<polygon fill="#c0c0c0" stroke="#c0c0c0" stroke-width="2" points="684.7408,-1198.1178 688.4664,-1188.1996 679.3689,-1193.6297 684.7408,-1198.1178"/>
</g>
<!-- 25 -->
<g id="node26" class="node">
<title>25</title>
<path fill="none" stroke="#56d0d8" stroke-width="2" d="M960.5,-1260C960.5,-1260 896.5,-1260 896.5,-1260 890.5,-1260 884.5,-1254 884.5,-1248 884.5,-1248 884.5,-1236 884.5,-1236 884.5,-1230 890.5,-1224 896.5,-1224 896.5,-1224 960.5,-1224 960.5,-1224 966.5,-1224 972.5,-1230 972.5,-1236 972.5,-1236 972.5,-1248 972.5,-1248 972.5,-1254 966.5,-1260 960.5,-1260"/>
<text text-anchor="middle" x="928.5" y="-1239.5" font-family="sans" font-size="10.00" fill="#000000">cnv_sv_hificnv</text>
</g>
<!-- 6&#45;&gt;25 -->
<g id="edge44" class="edge">
<title>6&#45;&gt;25</title>
<path fill="none" stroke="#c0c0c0" stroke-width="2" d="M647.849,-1299.0816C715.2366,-1285.3756 813.5729,-1265.375 874.1679,-1253.0506"/>
<polygon fill="#c0c0c0" stroke="#c0c0c0" stroke-width="2" points="875.1904,-1256.4144 884.2922,-1250.9914 873.7952,-1249.5548 875.1904,-1256.4144"/>
</g>
<!-- 29 -->
<g id="node30" class="node">
<title>29</title>
<path fill="none" stroke="#566bd8" stroke-width="2" d="M869,-1188C869,-1188 796,-1188 796,-1188 790,-1188 784,-1182 784,-1176 784,-1176 784,-1164 784,-1164 784,-1158 790,-1152 796,-1152 796,-1152 869,-1152 869,-1152 875,-1152 881,-1158 881,-1164 881,-1164 881,-1176 881,-1176 881,-1182 875,-1188 869,-1188"/>
<text text-anchor="middle" x="832.5" y="-1167.5" font-family="sans" font-size="10.00" fill="#000000">cnv_sv_sniffles2</text>
</g>
<!-- 6&#45;&gt;29 -->
<g id="edge50" class="edge">
<title>6&#45;&gt;29</title>
<path fill="none" stroke="#c0c0c0" stroke-width="2" d="M606.9146,-1295.9081C653.643,-1269.8272 739.9343,-1221.6646 791.1797,-1193.0625"/>
<polygon fill="#c0c0c0" stroke="#c0c0c0" stroke-width="2" points="792.9888,-1196.0611 800.015,-1188.1311 789.5772,-1189.9487 792.9888,-1196.0611"/>
</g>
<!-- 33 -->
<g id="node34" class="node">
<title>33</title>
<path fill="none" stroke="#d88556" stroke-width="2" d="M437,-900C437,-900 292,-900 292,-900 286,-900 280,-894 280,-888 280,-888 280,-876 280,-876 280,-870 286,-864 292,-864 292,-864 437,-864 437,-864 443,-864 449,-870 449,-876 449,-876 449,-888 449,-888 449,-894 443,-900 437,-900"/>
<text text-anchor="middle" x="364.5" y="-879.5" font-family="sans" font-size="10.00" fill="#000000">snv_indels_whatshap_haplotag</text>
</g>
<!-- 6&#45;&gt;33 -->
<g id="edge58" class="edge">
<title>6&#45;&gt;33</title>
<path fill="none" stroke="#c0c0c0" stroke-width="2" d="M501.3989,-1305.9613C442.3938,-1297.8721 365.9465,-1283.2237 345.5,-1260 297.661,-1205.663 328.5,-1170.3953 328.5,-1098 328.5,-1098 328.5,-1098 328.5,-1026 328.5,-984.5072 342.7416,-938.2433 353.3098,-909.6245"/>
<polygon fill="#c0c0c0" stroke="#c0c0c0" stroke-width="2" points="356.5824,-910.8654 356.8653,-900.2743 350.0395,-908.3773 356.5824,-910.8654"/>
</g>
<!-- 7 -->
<g id="node8" class="node">
<title>7</title>
<path fill="none" stroke="#59d856" stroke-width="2" d="M631.5,-1404C631.5,-1404 517.5,-1404 517.5,-1404 511.5,-1404 505.5,-1398 505.5,-1392 505.5,-1392 505.5,-1380 505.5,-1380 505.5,-1374 511.5,-1368 517.5,-1368 517.5,-1368 631.5,-1368 631.5,-1368 637.5,-1368 643.5,-1374 643.5,-1380 643.5,-1380 643.5,-1392 643.5,-1392 643.5,-1398 637.5,-1404 631.5,-1404"/>
<text text-anchor="middle" x="574.5" y="-1383.5" font-family="sans" font-size="10.00" fill="#000000">alignment_pbmm2_align</text>
</g>
<!-- 7&#45;&gt;6 -->
<g id="edge20" class="edge">
<title>7&#45;&gt;6</title>
<path fill="none" stroke="#c0c0c0" stroke-width="2" d="M574.5,-1367.8314C574.5,-1360.131 574.5,-1350.9743 574.5,-1342.4166"/>
<polygon fill="#c0c0c0" stroke="#c0c0c0" stroke-width="2" points="578.0001,-1342.4132 574.5,-1332.4133 571.0001,-1342.4133 578.0001,-1342.4132"/>
</g>
<!-- 8 -->
<g id="node9" class="node">
<title>8</title>
<path fill="none" stroke="#d87d56" stroke-width="2" d="M554,-1476C554,-1476 435,-1476 435,-1476 429,-1476 423,-1470 423,-1464 423,-1464 423,-1452 423,-1452 423,-1446 429,-1440 435,-1440 435,-1440 554,-1440 554,-1440 560,-1440 566,-1446 566,-1452 566,-1452 566,-1464 566,-1464 566,-1470 560,-1476 554,-1476"/>
<text text-anchor="middle" x="494.5" y="-1455.5" font-family="sans" font-size="10.00" fill="#000000">prealignment_pbmarkdup</text>
</g>
<!-- 8&#45;&gt;7 -->
<g id="edge21" class="edge">
<title>8&#45;&gt;7</title>
<path fill="none" stroke="#c0c0c0" stroke-width="2" d="M514.6874,-1439.8314C524.3514,-1431.1337 536.0796,-1420.5783 546.5816,-1411.1265"/>
<polygon fill="#c0c0c0" stroke="#c0c0c0" stroke-width="2" points="549.2275,-1413.454 554.3191,-1404.1628 544.5447,-1408.251 549.2275,-1413.454"/>
</g>
<!-- 9 -->
<g id="node10" class="node">
<title>9</title>
<path fill="none" stroke="#567bd8" stroke-width="2" d="M713,-1476C713,-1476 596,-1476 596,-1476 590,-1476 584,-1470 584,-1464 584,-1464 584,-1452 584,-1452 584,-1446 590,-1440 596,-1440 596,-1440 713,-1440 713,-1440 719,-1440 725,-1446 725,-1452 725,-1452 725,-1464 725,-1464 725,-1470 719,-1476 713,-1476"/>
<text text-anchor="middle" x="654.5" y="-1455.5" font-family="sans" font-size="10.00" fill="#000000">alignment_pbmm2_index</text>
</g>
<!-- 9&#45;&gt;7 -->
<g id="edge22" class="edge">
<title>9&#45;&gt;7</title>
<path fill="none" stroke="#c0c0c0" stroke-width="2" d="M634.3126,-1439.8314C624.6486,-1431.1337 612.9204,-1420.5783 602.4184,-1411.1265"/>
<polygon fill="#c0c0c0" stroke="#c0c0c0" stroke-width="2" points="604.4553,-1408.251 594.6809,-1404.1628 599.7725,-1413.454 604.4553,-1408.251"/>
</g>
<!-- 10&#45;&gt;4 -->
<g id="edge17" class="edge">
<title>10&#45;&gt;4</title>
<path fill="none" stroke="#c0c0c0" stroke-width="2" d="M416.0752,-1223.9081C366.3462,-1197.7732 274.4266,-1149.4651 220.0453,-1120.8851"/>
<polygon fill="#c0c0c0" stroke="#c0c0c0" stroke-width="2" points="221.4798,-1117.6851 210.9995,-1116.1311 218.2233,-1123.8815 221.4798,-1117.6851"/>
</g>
<!-- 10&#45;&gt;5 -->
<g id="edge18" class="edge">
<title>10&#45;&gt;5</title>
<path fill="none" stroke="#c0c0c0" stroke-width="2" d="M381.7119,-1223.9243C343.1959,-1213.8033 295.0229,-1201.1447 255.0316,-1190.6361"/>
<polygon fill="#c0c0c0" stroke="#c0c0c0" stroke-width="2" points="255.8776,-1187.2396 245.3164,-1188.0831 254.0985,-1194.0098 255.8776,-1187.2396"/>
</g>
<!-- 10&#45;&gt;16 -->
<g id="edge32" class="edge">
<title>10&#45;&gt;16</title>
<path fill="none" stroke="#c0c0c0" stroke-width="2" d="M440.4431,-1223.7856C424.624,-1192.4754 398.2064,-1127.2616 423.5,-1080 430.174,-1067.5296 441.1406,-1057.4416 452.8801,-1049.5111"/>
<polygon fill="#c0c0c0" stroke="#c0c0c0" stroke-width="2" points="454.8896,-1052.3826 461.5146,-1044.1146 451.1796,-1046.4466 454.8896,-1052.3826"/>
</g>
<!-- 10&#45;&gt;18 -->
<g id="edge35" class="edge">
<title>10&#45;&gt;18</title>
<path fill="none" stroke="#c0c0c0" stroke-width="2" d="M465.1358,-1223.8314C471.8161,-1215.5386 479.8568,-1205.557 487.1904,-1196.4533"/>
<polygon fill="#c0c0c0" stroke="#c0c0c0" stroke-width="2" points="490.1194,-1198.3965 493.6671,-1188.4133 484.6681,-1194.0052 490.1194,-1198.3965"/>
</g>
<!-- 10&#45;&gt;23 -->
<g id="edge41" class="edge">
<title>10&#45;&gt;23</title>
<path fill="none" stroke="#c0c0c0" stroke-width="2" d="M514.016,-1223.9243C549.6232,-1213.791 594.169,-1201.114 631.1216,-1190.5978"/>
<polygon fill="#c0c0c0" stroke="#c0c0c0" stroke-width="2" points="632.1743,-1193.9373 640.8344,-1187.8337 630.2582,-1187.2046 632.1743,-1193.9373"/>
</g>
<!-- 10&#45;&gt;29 -->
<g id="edge49" class="edge">
<title>10&#45;&gt;29</title>
<path fill="none" stroke="#c0c0c0" stroke-width="2" d="M546.1671,-1229.5382C608.5691,-1220.5924 691.858,-1207.1159 774.1317,-1187.9161"/>
<polygon fill="#c0c0c0" stroke="#c0c0c0" stroke-width="2" points="774.971,-1191.3143 783.8982,-1185.6086 773.3613,-1184.5019 774.971,-1191.3143"/>
</g>
<!-- 10&#45;&gt;33 -->
<g id="edge57" class="edge">
<title>10&#45;&gt;33</title>
<path fill="none" stroke="#c0c0c0" stroke-width="2" d="M431.4391,-1223.9596C406.6556,-1198.4557 366.5,-1149.2284 366.5,-1098 366.5,-1098 366.5,-1098 366.5,-1026 366.5,-985.8721 365.7139,-939.4602 365.1274,-910.416"/>
<polygon fill="#c0c0c0" stroke="#c0c0c0" stroke-width="2" points="368.6218,-910.1092 364.9144,-900.1843 361.6234,-910.255 368.6218,-910.1092"/>
</g>
<!-- 11 -->
<g id="node12" class="node">
<title>11</title>
<path fill="none" stroke="#61d856" stroke-width="2" d="M743.5,-540C743.5,-540 583.5,-540 583.5,-540 577.5,-540 571.5,-534 571.5,-528 571.5,-528 571.5,-516 571.5,-516 571.5,-510 577.5,-504 583.5,-504 583.5,-504 743.5,-504 743.5,-504 749.5,-504 755.5,-510 755.5,-516 755.5,-516 755.5,-528 755.5,-528 755.5,-534 749.5,-540 743.5,-540"/>
<text text-anchor="middle" x="663.5" y="-519.5" font-family="sans" font-size="10.00" fill="#000000">_copy_clairs_panel_annotated_vcf</text>
</g>
<!-- 11&#45;&gt;0 -->
<g id="edge3" class="edge">
<title>11&#45;&gt;0</title>
<path fill="none" stroke="#c0c0c0" stroke-width="2" d="M664.1216,-503.8172C665.0003,-476.504 666.5,-423.2598 666.5,-378 666.5,-378 666.5,-378 666.5,-162 666.5,-121.2235 655.9119,-75.0472 647.9967,-46.2247"/>
<polygon fill="#c0c0c0" stroke="#c0c0c0" stroke-width="2" points="651.3166,-45.1024 645.226,-36.4332 644.581,-47.0083 651.3166,-45.1024"/>
</g>
<!-- 12 -->
<g id="node13" class="node">
<title>12</title>
<path fill="none" stroke="#d85e56" stroke-width="2" d="M565.5,-684C565.5,-684 503.5,-684 503.5,-684 497.5,-684 491.5,-678 491.5,-672 491.5,-672 491.5,-660 491.5,-660 491.5,-654 497.5,-648 503.5,-648 503.5,-648 565.5,-648 565.5,-648 571.5,-648 577.5,-654 577.5,-660 577.5,-660 577.5,-672 577.5,-672 577.5,-678 571.5,-684 565.5,-684"/>
<text text-anchor="middle" x="534.5" y="-663.5" font-family="sans" font-size="10.00" fill="#000000">bgzip_vep_vcf</text>
</g>
<!-- 12&#45;&gt;11 -->
<g id="edge24" class="edge">
<title>12&#45;&gt;11</title>
<path fill="none" stroke="#c0c0c0" stroke-width="2" d="M550.8379,-647.7623C573.5192,-622.4436 614.6608,-576.5182 640.4546,-547.7251"/>
<polygon fill="#c0c0c0" stroke="#c0c0c0" stroke-width="2" points="643.2291,-549.8734 647.2947,-540.0896 638.0153,-545.2026 643.2291,-549.8734"/>
</g>
<!-- 39 -->
<g id="node40" class="node">
<title>39</title>
<path fill="none" stroke="#80d856" stroke-width="2" d="M541.5,-540C541.5,-540 385.5,-540 385.5,-540 379.5,-540 373.5,-534 373.5,-528 373.5,-528 373.5,-516 373.5,-516 373.5,-510 379.5,-504 385.5,-504 385.5,-504 541.5,-504 541.5,-504 547.5,-504 553.5,-510 553.5,-516 553.5,-516 553.5,-528 553.5,-528 553.5,-534 547.5,-540 541.5,-540"/>
<text text-anchor="middle" x="463.5" y="-519.5" font-family="sans" font-size="10.00" fill="#000000">filtering_filter_vep_annotated_vcf</text>
</g>
<!-- 12&#45;&gt;39 -->
<g id="edge66" class="edge">
<title>12&#45;&gt;39</title>
<path fill="none" stroke="#c0c0c0" stroke-width="2" d="M533.3058,-647.7731C531.433,-628.8624 526.6518,-598.9062 514.5,-576 508.994,-565.6213 500.9474,-555.7903 492.866,-547.4318"/>
<polygon fill="#c0c0c0" stroke="#c0c0c0" stroke-width="2" points="495.091,-544.711 485.5063,-540.1961 490.1834,-549.7027 495.091,-544.711"/>
</g>
<!-- 40 -->
<g id="node41" class="node">
<title>40</title>
<path fill="none" stroke="#d8a456" stroke-width="2" d="M494,-612C494,-612 433,-612 433,-612 427,-612 421,-606 421,-600 421,-600 421,-588 421,-588 421,-582 427,-576 433,-576 433,-576 494,-576 494,-576 500,-576 506,-582 506,-588 506,-588 506,-600 506,-600 506,-606 500,-612 494,-612"/>
<text text-anchor="middle" x="463.5" y="-591.5" font-family="sans" font-size="10.00" fill="#000000">tabix_vep_vcf</text>
</g>
<!-- 12&#45;&gt;40 -->
<g id="edge67" class="edge">
<title>12&#45;&gt;40</title>
<path fill="none" stroke="#c0c0c0" stroke-width="2" d="M516.5837,-647.8314C508.1558,-639.2848 497.959,-628.9443 488.764,-619.6198"/>
<polygon fill="#c0c0c0" stroke="#c0c0c0" stroke-width="2" points="491.1711,-617.0761 481.6575,-612.4133 486.1869,-621.9912 491.1711,-617.0761"/>
</g>
<!-- 13 -->
<g id="node14" class="node">
<title>13</title>
<path fill="none" stroke="#56c9d8" stroke-width="2" d="M584.5,-756C584.5,-756 484.5,-756 484.5,-756 478.5,-756 472.5,-750 472.5,-744 472.5,-744 472.5,-732 472.5,-732 472.5,-726 478.5,-720 484.5,-720 484.5,-720 584.5,-720 584.5,-720 590.5,-720 596.5,-726 596.5,-732 596.5,-732 596.5,-744 596.5,-744 596.5,-750 590.5,-756 584.5,-756"/>
<text text-anchor="middle" x="534.5" y="-735.5" font-family="sans" font-size="10.00" fill="#000000">annotation_vep_clairs</text>
</g>
<!-- 13&#45;&gt;12 -->
<g id="edge25" class="edge">
<title>13&#45;&gt;12</title>
<path fill="none" stroke="#c0c0c0" stroke-width="2" d="M534.5,-719.8314C534.5,-712.131 534.5,-702.9743 534.5,-694.4166"/>
<polygon fill="#c0c0c0" stroke="#c0c0c0" stroke-width="2" points="538.0001,-694.4132 534.5,-684.4133 531.0001,-694.4133 538.0001,-694.4132"/>
</g>
<!-- 14 -->
<g id="node15" class="node">
<title>14</title>
<path fill="none" stroke="#56b9d8" stroke-width="2" d="M696,-828C696,-828 567,-828 567,-828 561,-828 555,-822 555,-816 555,-816 555,-804 555,-804 555,-798 561,-792 567,-792 567,-792 696,-792 696,-792 702,-792 708,-798 708,-804 708,-804 708,-816 708,-816 708,-822 702,-828 696,-828"/>
<text text-anchor="middle" x="631.5" y="-807.5" font-family="sans" font-size="10.00" fill="#000000">cnv_sv_tabix_include_panel</text>
</g>
<!-- 14&#45;&gt;13 -->
<g id="edge27" class="edge">
<title>14&#45;&gt;13</title>
<path fill="none" stroke="#c0c0c0" stroke-width="2" d="M607.0228,-791.8314C594.9605,-782.8779 580.246,-771.9558 567.2314,-762.2955"/>
<polygon fill="#c0c0c0" stroke="#c0c0c0" stroke-width="2" points="569.0852,-759.3127 558.9694,-756.1628 564.913,-764.9335 569.0852,-759.3127"/>
</g>
<!-- 15 -->
<g id="node16" class="node">
<title>15</title>
<path fill="none" stroke="#56d89a" stroke-width="2" d="M689.5,-900C689.5,-900 479.5,-900 479.5,-900 473.5,-900 467.5,-894 467.5,-888 467.5,-888 467.5,-876 467.5,-876 467.5,-870 473.5,-864 479.5,-864 479.5,-864 689.5,-864 689.5,-864 695.5,-864 701.5,-870 701.5,-876 701.5,-876 701.5,-888 701.5,-888 701.5,-894 695.5,-900 689.5,-900"/>
<text text-anchor="middle" x="584.5" y="-879.5" font-family="sans" font-size="10.00" fill="#000000">filtering_bcftools_filter_include_region_clairs</text>
</g>
<!-- 15&#45;&gt;13 -->
<g id="edge26" class="edge">
<title>15&#45;&gt;13</title>
<path fill="none" stroke="#c0c0c0" stroke-width="2" d="M567.8618,-863.8999C559.7473,-854.0153 550.6486,-841.1356 545.5,-828 537.805,-808.3676 535.1512,-784.6383 534.3698,-766.4752"/>
<polygon fill="#c0c0c0" stroke="#c0c0c0" stroke-width="2" points="537.8622,-766.1392 534.0993,-756.2351 530.8646,-766.324 537.8622,-766.1392"/>
</g>
<!-- 15&#45;&gt;14 -->
<g id="edge28" class="edge">
<title>15&#45;&gt;14</title>
<path fill="none" stroke="#c0c0c0" stroke-width="2" d="M596.3601,-863.8314C601.6629,-855.7079 608.0237,-845.9637 613.8673,-837.0118"/>
<polygon fill="#c0c0c0" stroke="#c0c0c0" stroke-width="2" points="616.9448,-838.7003 619.4802,-828.4133 611.0831,-834.8739 616.9448,-838.7003"/>
</g>
<!-- 16&#45;&gt;15 -->
<g id="edge30" class="edge">
<title>16&#45;&gt;15</title>
<path fill="none" stroke="#c0c0c0" stroke-width="2" d="M531.8714,-1007.9364C543.9482,-998.5964 557.2466,-986.1796 565.5,-972 576.4461,-953.1942 581.1226,-928.9106 583.1026,-910.3081"/>
<polygon fill="#c0c0c0" stroke="#c0c0c0" stroke-width="2" points="586.611,-910.36 583.9837,-900.0961 579.6369,-909.7581 586.611,-910.36"/>
</g>
<!-- 19 -->
<g id="node20" class="node">
<title>19</title>
<path fill="none" stroke="#d86656" stroke-width="2" d="M544.5,-972C544.5,-972 456.5,-972 456.5,-972 450.5,-972 444.5,-966 444.5,-960 444.5,-960 444.5,-948 444.5,-948 444.5,-942 450.5,-936 456.5,-936 456.5,-936 544.5,-936 544.5,-936 550.5,-936 556.5,-942 556.5,-948 556.5,-948 556.5,-960 556.5,-960 556.5,-966 550.5,-972 544.5,-972"/>
<text text-anchor="middle" x="500.5" y="-951.5" font-family="sans" font-size="10.00" fill="#000000">cnv_sv_tabix_clairs</text>
</g>
<!-- 16&#45;&gt;19 -->
<g id="edge37" class="edge">
<title>16&#45;&gt;19</title>
<path fill="none" stroke="#c0c0c0" stroke-width="2" d="M503.4906,-1007.8314C503.0628,-1000.131 502.5541,-990.9743 502.0787,-982.4166"/>
<polygon fill="#c0c0c0" stroke="#c0c0c0" stroke-width="2" points="505.5724,-982.2037 501.523,-972.4133 498.5831,-982.592 505.5724,-982.2037"/>
</g>
<!-- 16&#45;&gt;33 -->
<g id="edge55" class="edge">
<title>16&#45;&gt;33</title>
<path fill="none" stroke="#c0c0c0" stroke-width="2" d="M478.3831,-1007.8682C464.935,-997.975 448.648,-985.097 435.5,-972 415.781,-952.3574 396.4176,-927.3166 382.9063,-908.6378"/>
<polygon fill="#c0c0c0" stroke="#c0c0c0" stroke-width="2" points="385.6064,-906.3961 376.949,-900.2887 379.9082,-910.4619 385.6064,-906.3961"/>
</g>
<!-- 17 -->
<g id="node18" class="node">
<title>17</title>
<path fill="none" stroke="#afd856" stroke-width="2" d="M572.5,-1116C572.5,-1116 444.5,-1116 444.5,-1116 438.5,-1116 432.5,-1110 432.5,-1104 432.5,-1104 432.5,-1092 432.5,-1092 432.5,-1086 438.5,-1080 444.5,-1080 444.5,-1080 572.5,-1080 572.5,-1080 578.5,-1080 584.5,-1086 584.5,-1092 584.5,-1092 584.5,-1104 584.5,-1104 584.5,-1110 578.5,-1116 572.5,-1116"/>
<text text-anchor="middle" x="508.5" y="-1095.5" font-family="sans" font-size="10.00" fill="#000000">snv_indels_clairs_to_concat</text>
</g>
<!-- 17&#45;&gt;16 -->
<g id="edge33" class="edge">
<title>17&#45;&gt;16</title>
<path fill="none" stroke="#c0c0c0" stroke-width="2" d="M507.4906,-1079.8314C507.0628,-1072.131 506.5541,-1062.9743 506.0787,-1054.4166"/>
<polygon fill="#c0c0c0" stroke="#c0c0c0" stroke-width="2" points="509.5724,-1054.2037 505.523,-1044.4133 502.5831,-1054.592 509.5724,-1054.2037"/>
</g>
<!-- 18&#45;&gt;17 -->
<g id="edge34" class="edge">
<title>18&#45;&gt;17</title>
<path fill="none" stroke="#c0c0c0" stroke-width="2" d="M508.5,-1151.8314C508.5,-1144.131 508.5,-1134.9743 508.5,-1126.4166"/>
<polygon fill="#c0c0c0" stroke="#c0c0c0" stroke-width="2" points="512.0001,-1126.4132 508.5,-1116.4133 505.0001,-1126.4133 512.0001,-1126.4132"/>
</g>
<!-- 19&#45;&gt;15 -->
<g id="edge29" class="edge">
<title>19&#45;&gt;15</title>
<path fill="none" stroke="#c0c0c0" stroke-width="2" d="M521.6967,-935.8314C531.9434,-927.0485 544.4003,-916.3712 555.5097,-906.8489"/>
<polygon fill="#c0c0c0" stroke="#c0c0c0" stroke-width="2" points="557.9952,-909.3282 563.31,-900.1628 553.4397,-904.0134 557.9952,-909.3282"/>
</g>
<!-- 19&#45;&gt;33 -->
<g id="edge56" class="edge">
<title>19&#45;&gt;33</title>
<path fill="none" stroke="#c0c0c0" stroke-width="2" d="M466.1815,-935.8314C448.4641,-926.4516 426.6655,-914.9112 407.8016,-904.9244"/>
<polygon fill="#c0c0c0" stroke="#c0c0c0" stroke-width="2" points="409.2831,-901.7485 398.8076,-900.1628 406.0078,-907.935 409.2831,-901.7485"/>
</g>
<!-- 20 -->
<g id="node21" class="node">
<title>20</title>
<path fill="none" stroke="#5692d8" stroke-width="2" d="M780.5,-396C780.5,-396 710.5,-396 710.5,-396 704.5,-396 698.5,-390 698.5,-384 698.5,-384 698.5,-372 698.5,-372 698.5,-366 704.5,-360 710.5,-360 710.5,-360 780.5,-360 780.5,-360 786.5,-360 792.5,-366 792.5,-372 792.5,-372 792.5,-384 792.5,-384 792.5,-390 786.5,-396 780.5,-396"/>
<text text-anchor="middle" x="745.5" y="-375.5" font-family="sans" font-size="10.00" fill="#000000">_copy_pbsv_vcf</text>
</g>
<!-- 20&#45;&gt;0 -->
<g id="edge6" class="edge">
<title>20&#45;&gt;0</title>
<path fill="none" stroke="#c0c0c0" stroke-width="2" d="M739.774,-359.5668C731.8484,-332.3758 718.5,-279.7842 718.5,-234 718.5,-234 718.5,-234 718.5,-162 718.5,-116.2601 687.4837,-71.3042 664.3199,-44.1079"/>
<polygon fill="#c0c0c0" stroke="#c0c0c0" stroke-width="2" points="666.6543,-41.4618 657.4263,-36.2566 661.3942,-46.0804 666.6543,-41.4618"/>
</g>
<!-- 21 -->
<g id="node22" class="node">
<title>21</title>
<path fill="none" stroke="#56d873" stroke-width="2" d="M714.5,-1044C714.5,-1044 656.5,-1044 656.5,-1044 650.5,-1044 644.5,-1038 644.5,-1032 644.5,-1032 644.5,-1020 644.5,-1020 644.5,-1014 650.5,-1008 656.5,-1008 656.5,-1008 714.5,-1008 714.5,-1008 720.5,-1008 726.5,-1014 726.5,-1020 726.5,-1020 726.5,-1032 726.5,-1032 726.5,-1038 720.5,-1044 714.5,-1044"/>
<text text-anchor="middle" x="685.5" y="-1023.5" font-family="sans" font-size="10.00" fill="#000000">cnv_sv_bgzip</text>
</g>
<!-- 21&#45;&gt;20 -->
<g id="edge38" class="edge">
<title>21&#45;&gt;20</title>
<path fill="none" stroke="#c0c0c0" stroke-width="2" d="M684.8867,-1007.7171C684.7378,-989.2783 685.7962,-960.1628 692.5,-936 697.2824,-918.7626 705.1065,-917.0561 710.5,-900 759.2802,-745.7389 752.4667,-701.3419 764.5,-540 768.0007,-493.0631 758.9464,-438.7853 752.1643,-406.4847"/>
<polygon fill="#c0c0c0" stroke="#c0c0c0" stroke-width="2" points="755.5195,-405.4424 749.9729,-396.4155 748.6796,-406.9311 755.5195,-405.4424"/>
</g>
<!-- 22 -->
<g id="node23" class="node">
<title>22</title>
<path fill="none" stroke="#56d87b" stroke-width="2" d="M736,-1116C736,-1116 659,-1116 659,-1116 653,-1116 647,-1110 647,-1104 647,-1104 647,-1092 647,-1092 647,-1086 653,-1080 659,-1080 659,-1080 736,-1080 736,-1080 742,-1080 748,-1086 748,-1092 748,-1092 748,-1104 748,-1104 748,-1110 742,-1116 736,-1116"/>
<text text-anchor="middle" x="697.5" y="-1095.5" font-family="sans" font-size="10.00" fill="#000000">cnv_sv_pbsv_call</text>
</g>
<!-- 22&#45;&gt;21 -->
<g id="edge39" class="edge">
<title>22&#45;&gt;21</title>
<path fill="none" stroke="#c0c0c0" stroke-width="2" d="M694.4719,-1079.8314C693.1885,-1072.131 691.6624,-1062.9743 690.2361,-1054.4166"/>
<polygon fill="#c0c0c0" stroke="#c0c0c0" stroke-width="2" points="693.6653,-1053.7018 688.5689,-1044.4133 686.7606,-1054.8526 693.6653,-1053.7018"/>
</g>
<!-- 23&#45;&gt;22 -->
<g id="edge40" class="edge">
<title>23&#45;&gt;22</title>
<path fill="none" stroke="#c0c0c0" stroke-width="2" d="M701.9859,-1151.8314C701.3442,-1144.131 700.5812,-1134.9743 699.8681,-1126.4166"/>
<polygon fill="#c0c0c0" stroke="#c0c0c0" stroke-width="2" points="703.3529,-1126.088 699.0344,-1116.4133 696.3771,-1126.6694 703.3529,-1126.088"/>
</g>
<!-- 24 -->
<g id="node25" class="node">
<title>24</title>
<path fill="none" stroke="#56d8a9" stroke-width="2" d="M994,-108C994,-108 915,-108 915,-108 909,-108 903,-102 903,-96 903,-96 903,-84 903,-84 903,-78 909,-72 915,-72 915,-72 994,-72 994,-72 1000,-72 1006,-78 1006,-84 1006,-84 1006,-96 1006,-96 1006,-102 1000,-108 994,-108"/>
<text text-anchor="middle" x="954.5" y="-87.5" font-family="sans" font-size="10.00" fill="#000000">_copy_hificnv_vcf</text>
</g>
<!-- 24&#45;&gt;0 -->
<g id="edge1" class="edge">
<title>24&#45;&gt;0</title>
<path fill="none" stroke="#c0c0c0" stroke-width="2" d="M902.8369,-78.1913C839.2476,-63.6566 732.8187,-39.33 676.7144,-26.5062"/>
<polygon fill="#c0c0c0" stroke="#c0c0c0" stroke-width="2" points="677.3743,-23.0668 666.8458,-24.2505 675.8145,-29.8908 677.3743,-23.0668"/>
</g>
<!-- 25&#45;&gt;24 -->
<g id="edge43" class="edge">
<title>25&#45;&gt;24</title>
<path fill="none" stroke="#c0c0c0" stroke-width="2" d="M947.334,-1223.9156C971.8225,-1198.3605 1011.5,-1149.0742 1011.5,-1098 1011.5,-1098 1011.5,-1098 1011.5,-234 1011.5,-190.7597 989.0055,-145.0187 972.2788,-116.9832"/>
<polygon fill="#c0c0c0" stroke="#c0c0c0" stroke-width="2" points="975.0874,-114.8688 966.8682,-108.1834 969.1244,-118.5353 975.0874,-114.8688"/>
</g>
<!-- 26 -->
<g id="node27" class="node">
<title>26</title>
<path fill="none" stroke="#b6d856" stroke-width="2" d="M857.5,-324C857.5,-324 769.5,-324 769.5,-324 763.5,-324 757.5,-318 757.5,-312 757.5,-312 757.5,-300 757.5,-300 757.5,-294 763.5,-288 769.5,-288 769.5,-288 857.5,-288 857.5,-288 863.5,-288 869.5,-294 869.5,-300 869.5,-300 869.5,-312 869.5,-312 869.5,-318 863.5,-324 857.5,-324"/>
<text text-anchor="middle" x="813.5" y="-303.5" font-family="sans" font-size="10.00" fill="#000000">_copy_sniffles2_vcf</text>
</g>
<!-- 26&#45;&gt;0 -->
<g id="edge8" class="edge">
<title>26&#45;&gt;0</title>
<path fill="none" stroke="#c0c0c0" stroke-width="2" d="M811.5378,-287.7907C806.1316,-245.4425 787.5723,-138.865 732.5,-72 717.6749,-54.0004 695.1788,-40.7106 676.0256,-31.8193"/>
<polygon fill="#c0c0c0" stroke="#c0c0c0" stroke-width="2" points="677.2193,-28.5205 666.6572,-27.6879 674.3948,-34.9254 677.2193,-28.5205"/>
</g>
<!-- 27 -->
<g id="node28" class="node">
<title>27</title>
<path fill="none" stroke="#d8b456" stroke-width="2" d="M933,-972C933,-972 714,-972 714,-972 708,-972 702,-966 702,-960 702,-960 702,-948 702,-948 702,-942 708,-936 714,-936 714,-936 933,-936 933,-936 939,-936 945,-942 945,-948 945,-948 945,-960 945,-960 945,-966 939,-972 933,-972"/>
<text text-anchor="middle" x="823.5" y="-951.5" font-family="sans" font-size="10.00" fill="#000000">filtering_bcftools_filter_include_region_sniffles</text>
</g>
<!-- 27&#45;&gt;26 -->
<g id="edge45" class="edge">
<title>27&#45;&gt;26</title>
<path fill="none" stroke="#c0c0c0" stroke-width="2" d="M823.2928,-935.8149C822.9999,-908.4989 822.5,-855.2511 822.5,-810 822.5,-810 822.5,-810 822.5,-450 822.5,-409.7977 818.9625,-363.4047 816.3232,-334.385"/>
<polygon fill="#c0c0c0" stroke="#c0c0c0" stroke-width="2" points="819.783,-333.7923 815.3648,-324.1626 812.8136,-334.4457 819.783,-333.7923"/>
</g>
<!-- 28 -->
<g id="node29" class="node">
<title>28</title>
<path fill="none" stroke="#d88d56" stroke-width="2" d="M881.5,-1116C881.5,-1116 783.5,-1116 783.5,-1116 777.5,-1116 771.5,-1110 771.5,-1104 771.5,-1104 771.5,-1092 771.5,-1092 771.5,-1086 777.5,-1080 783.5,-1080 783.5,-1080 881.5,-1080 881.5,-1080 887.5,-1080 893.5,-1086 893.5,-1092 893.5,-1092 893.5,-1104 893.5,-1104 893.5,-1110 887.5,-1116 881.5,-1116"/>
<text text-anchor="middle" x="832.5" y="-1095.5" font-family="sans" font-size="10.00" fill="#000000">cnv_sv_bgzip_sniffles</text>
</g>
<!-- 28&#45;&gt;27 -->
<g id="edge47" class="edge">
<title>28&#45;&gt;27</title>
<path fill="none" stroke="#c0c0c0" stroke-width="2" d="M804.068,-1079.9601C792.2772,-1070.7801 779.8796,-1058.4872 773.5,-1044 767.0518,-1029.3569 767.6623,-1022.897 773.5,-1008 777.6758,-997.3439 785.0513,-987.5335 792.8759,-979.2816"/>
<polygon fill="#c0c0c0" stroke="#c0c0c0" stroke-width="2" points="795.4375,-981.6713 800.1091,-972.162 790.5271,-976.6825 795.4375,-981.6713"/>
</g>
<!-- 30 -->
<g id="node31" class="node">
<title>30</title>
<path fill="none" stroke="#5673d8" stroke-width="2" d="M892,-1044C892,-1044 795,-1044 795,-1044 789,-1044 783,-1038 783,-1032 783,-1032 783,-1020 783,-1020 783,-1014 789,-1008 795,-1008 795,-1008 892,-1008 892,-1008 898,-1008 904,-1014 904,-1020 904,-1020 904,-1032 904,-1032 904,-1038 898,-1044 892,-1044"/>
<text text-anchor="middle" x="843.5" y="-1023.5" font-family="sans" font-size="10.00" fill="#000000">cnv_sv_tabix_sniffles</text>
</g>
<!-- 28&#45;&gt;30 -->
<g id="edge51" class="edge">
<title>28&#45;&gt;30</title>
<path fill="none" stroke="#c0c0c0" stroke-width="2" d="M835.2758,-1079.8314C836.4522,-1072.131 837.8511,-1062.9743 839.1586,-1054.4166"/>
<polygon fill="#c0c0c0" stroke="#c0c0c0" stroke-width="2" points="842.6364,-1054.8272 840.6869,-1044.4133 835.7167,-1053.7699 842.6364,-1054.8272"/>
</g>
<!-- 29&#45;&gt;28 -->
<g id="edge48" class="edge">
<title>29&#45;&gt;28</title>
<path fill="none" stroke="#c0c0c0" stroke-width="2" d="M832.5,-1151.8314C832.5,-1144.131 832.5,-1134.9743 832.5,-1126.4166"/>
<polygon fill="#c0c0c0" stroke="#c0c0c0" stroke-width="2" points="836.0001,-1126.4132 832.5,-1116.4133 829.0001,-1126.4133 836.0001,-1126.4132"/>
</g>
<!-- 31 -->
<g id="node32" class="node">
<title>31</title>
<path fill="none" stroke="#568ad8" stroke-width="2" d="M961.5,-252C961.5,-252 873.5,-252 873.5,-252 867.5,-252 861.5,-246 861.5,-240 861.5,-240 861.5,-228 861.5,-228 861.5,-222 867.5,-216 873.5,-216 873.5,-216 961.5,-216 961.5,-216 967.5,-216 973.5,-222 973.5,-228 973.5,-228 973.5,-240 973.5,-240 973.5,-246 967.5,-252 961.5,-252"/>
<text text-anchor="middle" x="917.5" y="-231.5" font-family="sans" font-size="10.00" fill="#000000">_copy_sniffles2_snf</text>
</g>
<!-- 29&#45;&gt;31 -->
<g id="edge52" class="edge">
<title>29&#45;&gt;31</title>
<path fill="none" stroke="#c0c0c0" stroke-width="2" d="M870.2854,-1151.8986C912.0513,-1128.947 973.5,-1085.1314 973.5,-1026 973.5,-1026 973.5,-1026 973.5,-378 973.5,-334.8617 951.4001,-289.0945 934.9668,-261.0255"/>
<polygon fill="#c0c0c0" stroke="#c0c0c0" stroke-width="2" points="937.8137,-258.9688 929.6512,-252.2143 931.82,-262.5847 937.8137,-258.9688"/>
</g>
<!-- 30&#45;&gt;27 -->
<g id="edge46" class="edge">
<title>30&#45;&gt;27</title>
<path fill="none" stroke="#c0c0c0" stroke-width="2" d="M838.4532,-1007.8314C836.2906,-1000.0463 833.7147,-990.7729 831.3152,-982.1347"/>
<polygon fill="#c0c0c0" stroke="#c0c0c0" stroke-width="2" points="834.6636,-981.1117 828.6148,-972.4133 827.919,-982.9852 834.6636,-981.1117"/>
</g>
<!-- 31&#45;&gt;0 -->
<g id="edge7" class="edge">
<title>31&#45;&gt;0</title>
<path fill="none" stroke="#c0c0c0" stroke-width="2" d="M909.0307,-215.8412C892.5935,-182.5241 853.2079,-111.438 799.5,-72 762.6659,-44.9525 711.3685,-30.8226 676.8768,-23.9073"/>
<polygon fill="#c0c0c0" stroke="#c0c0c0" stroke-width="2" points="677.2237,-20.4107 666.7467,-21.9864 675.9195,-27.2882 677.2237,-20.4107"/>
</g>
<!-- 32 -->
<g id="node33" class="node">
<title>32</title>
<path fill="none" stroke="#56d8d0" stroke-width="2" d="M442.5,-756C442.5,-756 320.5,-756 320.5,-756 314.5,-756 308.5,-750 308.5,-744 308.5,-744 308.5,-732 308.5,-732 308.5,-726 314.5,-720 320.5,-720 320.5,-720 442.5,-720 442.5,-720 448.5,-720 454.5,-726 454.5,-732 454.5,-732 454.5,-744 454.5,-744 454.5,-750 448.5,-756 442.5,-756"/>
<text text-anchor="middle" x="381.5" y="-735.5" font-family="sans" font-size="10.00" fill="#000000">cnv_sv_cnvkit_batch_local</text>
</g>
<!-- 38 -->
<g id="node39" class="node">
<title>38</title>
<path fill="none" stroke="#56d8a2" stroke-width="2" d="M494.5,-468C494.5,-468 378.5,-468 378.5,-468 372.5,-468 366.5,-462 366.5,-456 366.5,-456 366.5,-444 366.5,-444 366.5,-438 372.5,-432 378.5,-432 378.5,-432 494.5,-432 494.5,-432 500.5,-432 506.5,-438 506.5,-444 506.5,-444 506.5,-456 506.5,-456 506.5,-462 500.5,-468 494.5,-468"/>
<text text-anchor="middle" x="436.5" y="-447.5" font-family="sans" font-size="10.00" fill="#000000">cnvkit_call_new_wrapper</text>
</g>
<!-- 32&#45;&gt;38 -->
<g id="edge64" class="edge">
<title>32&#45;&gt;38</title>
<path fill="none" stroke="#c0c0c0" stroke-width="2" d="M379.1243,-719.902C372.5027,-668.3352 354.9366,-523.1267 364.5,-504 370.5138,-491.9724 380.6214,-481.9287 391.3907,-473.8944"/>
<polygon fill="#c0c0c0" stroke="#c0c0c0" stroke-width="2" points="393.4688,-476.7127 399.6982,-468.1426 389.4841,-470.9575 393.4688,-476.7127"/>
</g>
<!-- 33&#45;&gt;32 -->
<g id="edge54" class="edge">
<title>33&#45;&gt;32</title>
<path fill="none" stroke="#c0c0c0" stroke-width="2" d="M414.0287,-863.9463C429.8254,-855.5649 445.5222,-843.8565 454.5,-828 462.3832,-814.0768 461.7027,-806.2871 454.5,-792 448.3926,-779.8853 438.1412,-769.8131 427.2224,-761.7793"/>
<polygon fill="#c0c0c0" stroke="#c0c0c0" stroke-width="2" points="429.0334,-758.7779 418.8002,-756.0331 425.0882,-764.5603 429.0334,-758.7779"/>
</g>
<!-- 34 -->
<g id="node35" class="node">
<title>34</title>
<path fill="none" stroke="#56d8c1" stroke-width="2" d="M433.5,-828C433.5,-828 215.5,-828 215.5,-828 209.5,-828 203.5,-822 203.5,-816 203.5,-816 203.5,-804 203.5,-804 203.5,-798 209.5,-792 215.5,-792 215.5,-792 433.5,-792 433.5,-792 439.5,-792 445.5,-798 445.5,-804 445.5,-804 445.5,-816 445.5,-816 445.5,-822 439.5,-828 433.5,-828"/>
<text text-anchor="middle" x="324.5" y="-807.5" font-family="sans" font-size="10.00" fill="#000000">alignment_samtools_index_haplotagged_bam</text>
</g>
<!-- 33&#45;&gt;34 -->
<g id="edge59" class="edge">
<title>33&#45;&gt;34</title>
<path fill="none" stroke="#c0c0c0" stroke-width="2" d="M354.4063,-863.8314C349.9403,-855.7925 344.5925,-846.1666 339.6621,-837.2918"/>
<polygon fill="#c0c0c0" stroke="#c0c0c0" stroke-width="2" points="342.6456,-835.4551 334.7296,-828.4133 336.5265,-838.8546 342.6456,-835.4551"/>
</g>
<!-- 41 -->
<g id="node42" class="node">
<title>41</title>
<path fill="none" stroke="#97d856" stroke-width="2" d="M248,-468C248,-468 155,-468 155,-468 149,-468 143,-462 143,-456 143,-456 143,-444 143,-444 143,-438 149,-432 155,-432 155,-432 248,-432 248,-432 254,-432 260,-438 260,-444 260,-444 260,-456 260,-456 260,-462 254,-468 248,-468"/>
<text text-anchor="middle" x="201.5" y="-447.5" font-family="sans" font-size="10.00" fill="#000000">_copy_mapped_bam</text>
</g>
<!-- 33&#45;&gt;41 -->
<g id="edge68" class="edge">
<title>33&#45;&gt;41</title>
<path fill="none" stroke="#c0c0c0" stroke-width="2" d="M281.1733,-863.8939C244.4676,-854.2894 206.8646,-841.6606 194.5,-828 167.0658,-797.6904 175.5,-778.8816 175.5,-738 175.5,-738 175.5,-738 175.5,-594 175.5,-553.2738 185.696,-507.0849 193.318,-478.2458"/>
<polygon fill="#c0c0c0" stroke="#c0c0c0" stroke-width="2" points="196.7356,-479.0164 195.9861,-468.4481 189.9815,-477.1771 196.7356,-479.0164"/>
</g>
<!-- 34&#45;&gt;32 -->
<g id="edge53" class="edge">
<title>34&#45;&gt;32</title>
<path fill="none" stroke="#c0c0c0" stroke-width="2" d="M338.8835,-791.8314C345.4486,-783.5386 353.3507,-773.557 360.5578,-764.4533"/>
<polygon fill="#c0c0c0" stroke="#c0c0c0" stroke-width="2" points="363.4599,-766.4262 366.9228,-756.4133 357.9716,-762.0813 363.4599,-766.4262"/>
</g>
<!-- 42 -->
<g id="node43" class="node">
<title>42</title>
<path fill="none" stroke="#d87556" stroke-width="2" d="M341,-612C341,-612 216,-612 216,-612 210,-612 204,-606 204,-600 204,-600 204,-588 204,-588 204,-582 210,-576 216,-576 216,-576 341,-576 341,-576 347,-576 353,-582 353,-588 353,-588 353,-600 353,-600 353,-606 347,-612 341,-612"/>
<text text-anchor="middle" x="278.5" y="-591.5" font-family="sans" font-size="10.00" fill="#000000">_copy_mapped_bam_index</text>
</g>
<!-- 34&#45;&gt;42 -->
<g id="edge69" class="edge">
<title>34&#45;&gt;42</title>
<path fill="none" stroke="#c0c0c0" stroke-width="2" d="M314.2502,-791.551C309.0322,-781.3611 303.0556,-768.3071 299.5,-756 286.346,-710.4693 281.4168,-655.351 279.5796,-622.5632"/>
<polygon fill="#c0c0c0" stroke="#c0c0c0" stroke-width="2" points="283.0638,-622.1584 279.0677,-612.3461 276.0726,-622.5087 283.0638,-622.1584"/>
</g>
<!-- 35 -->
<g id="node36" class="node">
<title>35</title>
<path fill="none" stroke="#56d88a" stroke-width="2" d="M470,-252C470,-252 357,-252 357,-252 351,-252 345,-246 345,-240 345,-240 345,-228 345,-228 345,-222 351,-216 357,-216 357,-216 470,-216 470,-216 476,-216 482,-222 482,-228 482,-228 482,-240 482,-240 482,-246 476,-252 470,-252"/>
<text text-anchor="middle" x="413.5" y="-231.5" font-family="sans" font-size="10.00" fill="#000000">cnv_sv_bgzip_cnvkit_vcf</text>
</g>
<!-- 45 -->
<g id="node46" class="node">
<title>45</title>
<path fill="none" stroke="#56a9d8" stroke-width="2" d="M452.5,-180C452.5,-180 340.5,-180 340.5,-180 334.5,-180 328.5,-174 328.5,-168 328.5,-168 328.5,-156 328.5,-156 328.5,-150 334.5,-144 340.5,-144 340.5,-144 452.5,-144 452.5,-144 458.5,-144 464.5,-150 464.5,-156 464.5,-156 464.5,-168 464.5,-168 464.5,-174 458.5,-180 452.5,-180"/>
<text text-anchor="middle" x="396.5" y="-159.5" font-family="sans" font-size="10.00" fill="#000000">cnv_sv_tabix_cnvkit_vcf</text>
</g>
<!-- 35&#45;&gt;45 -->
<g id="edge72" class="edge">
<title>35&#45;&gt;45</title>
<path fill="none" stroke="#c0c0c0" stroke-width="2" d="M409.2102,-215.8314C407.392,-208.131 405.2301,-198.9743 403.2095,-190.4166"/>
<polygon fill="#c0c0c0" stroke="#c0c0c0" stroke-width="2" points="406.5519,-189.3414 400.8476,-180.4133 399.7392,-190.95 406.5519,-189.3414"/>
</g>
<!-- 36 -->
<g id="node37" class="node">
<title>36</title>
<path fill="none" stroke="#d89c56" stroke-width="2" d="M511,-324C511,-324 362,-324 362,-324 356,-324 350,-318 350,-312 350,-312 350,-300 350,-300 350,-294 356,-288 362,-288 362,-288 511,-288 511,-288 517,-288 523,-294 523,-300 523,-300 523,-312 523,-312 523,-318 517,-324 511,-324"/>
<text text-anchor="middle" x="436.5" y="-303.5" font-family="sans" font-size="10.00" fill="#000000">annotation_annotate_cnvkit_vcf</text>
</g>
<!-- 36&#45;&gt;35 -->
<g id="edge60" class="edge">
<title>36&#45;&gt;35</title>
<path fill="none" stroke="#c0c0c0" stroke-width="2" d="M430.6961,-287.8314C428.2092,-280.0463 425.2469,-270.7729 422.4875,-262.1347"/>
<polygon fill="#c0c0c0" stroke="#c0c0c0" stroke-width="2" points="425.7591,-260.874 419.382,-252.4133 419.091,-263.0041 425.7591,-260.874"/>
</g>
<!-- 43 -->
<g id="node44" class="node">
<title>43</title>
<path fill="none" stroke="#56d8c9" stroke-width="2" d="M626,-180C626,-180 495,-180 495,-180 489,-180 483,-174 483,-168 483,-168 483,-156 483,-156 483,-150 489,-144 495,-144 495,-144 626,-144 626,-144 632,-144 638,-150 638,-156 638,-156 638,-168 638,-168 638,-174 632,-180 626,-180"/>
<text text-anchor="middle" x="560.5" y="-159.5" font-family="sans" font-size="10.00" fill="#000000">_copy_annotated_cnvkit_vcf</text>
</g>
<!-- 36&#45;&gt;43 -->
<g id="edge70" class="edge">
<title>36&#45;&gt;43</title>
<path fill="none" stroke="#c0c0c0" stroke-width="2" d="M455.833,-287.8111C466.4004,-277.5901 479.5321,-264.4243 490.5,-252 508.6253,-231.4679 527.6057,-206.8403 541.2223,-188.5416"/>
<polygon fill="#c0c0c0" stroke="#c0c0c0" stroke-width="2" points="544.3223,-190.2358 547.4488,-180.1127 538.6919,-186.0766 544.3223,-190.2358"/>
</g>
<!-- 37 -->
<g id="node38" class="node">
<title>37</title>
<path fill="none" stroke="#d6d856" stroke-width="2" d="M477.5,-396C477.5,-396 395.5,-396 395.5,-396 389.5,-396 383.5,-390 383.5,-384 383.5,-384 383.5,-372 383.5,-372 383.5,-366 389.5,-360 395.5,-360 395.5,-360 477.5,-360 477.5,-360 483.5,-360 489.5,-366 489.5,-372 489.5,-372 489.5,-384 489.5,-384 489.5,-390 483.5,-396 477.5,-396"/>
<text text-anchor="middle" x="436.5" y="-375.5" font-family="sans" font-size="10.00" fill="#000000">cnv_sv_cnvkit_vcf</text>
</g>
<!-- 37&#45;&gt;36 -->
<g id="edge61" class="edge">
<title>37&#45;&gt;36</title>
<path fill="none" stroke="#c0c0c0" stroke-width="2" d="M436.5,-359.8314C436.5,-352.131 436.5,-342.9743 436.5,-334.4166"/>
<polygon fill="#c0c0c0" stroke="#c0c0c0" stroke-width="2" points="440.0001,-334.4132 436.5,-324.4133 433.0001,-334.4133 440.0001,-334.4132"/>
</g>
<!-- 38&#45;&gt;37 -->
<g id="edge62" class="edge">
<title>38&#45;&gt;37</title>
<path fill="none" stroke="#c0c0c0" stroke-width="2" d="M436.5,-431.8314C436.5,-424.131 436.5,-414.9743 436.5,-406.4166"/>
<polygon fill="#c0c0c0" stroke="#c0c0c0" stroke-width="2" points="440.0001,-406.4132 436.5,-396.4133 433.0001,-406.4133 440.0001,-406.4132"/>
</g>
<!-- 39&#45;&gt;38 -->
<g id="edge63" class="edge">
<title>39&#45;&gt;38</title>
<path fill="none" stroke="#c0c0c0" stroke-width="2" d="M456.6868,-503.8314C453.7356,-495.9617 450.2142,-486.5712 446.945,-477.8533"/>
<polygon fill="#c0c0c0" stroke="#c0c0c0" stroke-width="2" points="450.1934,-476.5476 443.405,-468.4133 443.6391,-479.0055 450.1934,-476.5476"/>
</g>
<!-- 40&#45;&gt;39 -->
<g id="edge65" class="edge">
<title>40&#45;&gt;39</title>
<path fill="none" stroke="#c0c0c0" stroke-width="2" d="M463.5,-575.8314C463.5,-568.131 463.5,-558.9743 463.5,-550.4166"/>
<polygon fill="#c0c0c0" stroke="#c0c0c0" stroke-width="2" points="467.0001,-550.4132 463.5,-540.4133 460.0001,-550.4133 467.0001,-550.4132"/>
</g>
<!-- 41&#45;&gt;0 -->
<g id="edge10" class="edge">
<title>41&#45;&gt;0</title>
<path fill="none" stroke="#c0c0c0" stroke-width="2" d="M206.4728,-431.9753C213.5026,-404.864 225.5,-351.8742 225.5,-306 225.5,-306 225.5,-306 225.5,-162 225.5,-113.678 245.6483,-97.8098 286.5,-72 338.6049,-39.0805 522.7011,-24.7228 602.3365,-19.9515"/>
<polygon fill="#c0c0c0" stroke="#c0c0c0" stroke-width="2" points="602.6297,-23.4404 612.4097,-19.3659 602.2235,-16.4522 602.6297,-23.4404"/>
</g>
<!-- 42&#45;&gt;0 -->
<g id="edge4" class="edge">
<title>42&#45;&gt;0</title>
<path fill="none" stroke="#c0c0c0" stroke-width="2" d="M283.0584,-575.9498C289.5023,-548.8059 300.5,-495.775 300.5,-450 300.5,-450 300.5,-450 300.5,-162 300.5,-108.1855 334.8564,-98.8398 381.5,-72 418.714,-50.5862 539.9887,-31.5519 602.0995,-22.9138"/>
<polygon fill="#c0c0c0" stroke="#c0c0c0" stroke-width="2" points="602.8257,-26.3471 612.2573,-21.5206 601.8744,-19.412 602.8257,-26.3471"/>
</g>
<!-- 43&#45;&gt;0 -->
<g id="edge2" class="edge">
<title>43&#45;&gt;0</title>
<path fill="none" stroke="#c0c0c0" stroke-width="2" d="M570.5054,-143.7623C584.1581,-118.8764 608.7327,-74.0822 624.5687,-45.2165"/>
<polygon fill="#c0c0c0" stroke="#c0c0c0" stroke-width="2" points="627.8345,-46.5404 629.5758,-36.0896 621.6974,-43.1735 627.8345,-46.5404"/>
</g>
<!-- 44 -->
<g id="node45" class="node">
<title>44</title>
<path fill="none" stroke="#a7d856" stroke-width="2" d="M512,-108C512,-108 403,-108 403,-108 397,-108 391,-102 391,-96 391,-96 391,-84 391,-84 391,-78 397,-72 403,-72 403,-72 512,-72 512,-72 518,-72 524,-78 524,-84 524,-84 524,-96 524,-96 524,-102 518,-108 512,-108"/>
<text text-anchor="middle" x="457.5" y="-87.5" font-family="sans" font-size="10.00" fill="#000000">_copy_index_cnvkit_vcf</text>
</g>
<!-- 44&#45;&gt;0 -->
<g id="edge9" class="edge">
<title>44&#45;&gt;0</title>
<path fill="none" stroke="#c0c0c0" stroke-width="2" d="M503.4263,-71.8314C534.1349,-59.6829 574.0053,-43.91 602.639,-32.5824"/>
<polygon fill="#c0c0c0" stroke="#c0c0c0" stroke-width="2" points="604.2538,-35.7075 612.2651,-28.7743 601.6787,-29.1984 604.2538,-35.7075"/>
</g>
<!-- 45&#45;&gt;44 -->
<g id="edge71" class="edge">
<title>45&#45;&gt;44</title>
<path fill="none" stroke="#c0c0c0" stroke-width="2" d="M411.8929,-143.8314C418.9904,-135.454 427.548,-125.3531 435.324,-116.1749"/>
<polygon fill="#c0c0c0" stroke="#c0c0c0" stroke-width="2" points="438.1061,-118.3056 441.8999,-108.4133 432.7652,-113.7807 438.1061,-118.3056"/>
</g>
</g>
</svg>
