<?xml version="1.0" encoding="UTF-8" standalone="no"?>
<!DOCTYPE svg PUBLIC "-//W3C//DTD SVG 1.1//EN"
 "http://www.w3.org/Graphics/SVG/1.1/DTD/svg11.dtd">
<!-- Generated by graphviz version 2.40.1 (0)
 -->
<!-- Title: snakemake_dag Pages: 1 -->
<svg width="886pt" height="1484pt"
 viewBox="0.00 0.00 885.50 1484.00" xmlns="http://www.w3.org/2000/svg" xmlns:xlink="http://www.w3.org/1999/xlink">
<g id="graph0" class="graph" transform="scale(1 1) rotate(0) translate(4 1480)">
<title>snakemake_dag</title>
<polygon fill="#ffffff" stroke="transparent" points="-4,4 -4,-1480 881.5,-1480 881.5,4 -4,4"/>
<!-- 0 -->
<g id="node1" class="node">
<title>0</title>
<path fill="none" stroke="#88d856" stroke-width="2" d="M550,-36C550,-36 520,-36 520,-36 514,-36 508,-30 508,-24 508,-24 508,-12 508,-12 508,-6 514,0 520,0 520,0 550,0 550,0 556,0 562,-6 562,-12 562,-12 562,-24 562,-24 562,-30 556,-36 550,-36"/>
<text text-anchor="middle" x="535" y="-15.5" font-family="sans" font-size="10.00" fill="#000000">all</text>
</g>
<!-- 1 -->
<g id="node2" class="node">
<title>1</title>
<path fill="none" stroke="#56a9d8" stroke-width="2" d="M188,-900C188,-900 78,-900 78,-900 72,-900 66,-894 66,-888 66,-888 66,-876 66,-876 66,-870 72,-864 78,-864 78,-864 188,-864 188,-864 194,-864 200,-870 200,-876 200,-876 200,-888 200,-888 200,-894 194,-900 188,-900"/>
<text text-anchor="middle" x="133" y="-879.5" font-family="sans" font-size="10.00" fill="#000000">_copy_deepsomatic_vcf</text>
</g>
<!-- 1&#45;&gt;0 -->
<g id="edge7" class="edge">
<title>1&#45;&gt;0</title>
<path fill="none" stroke="#c0c0c0" stroke-width="2" d="M133.8288,-863.8191C135.0004,-836.5085 137,-783.2675 137,-738 137,-738 137,-738 137,-162 137,-99.518 188.4538,-98.5807 245,-72 289.4338,-51.113 429.9936,-31.221 497.7571,-22.5508"/>
<polygon fill="#c0c0c0" stroke="#c0c0c0" stroke-width="2" points="498.5002,-25.9848 507.9818,-21.2573 497.6216,-19.0402 498.5002,-25.9848"/>
</g>
<!-- 2 -->
<g id="node3" class="node">
<title>2</title>
<path fill="none" stroke="#568ad8" stroke-width="2" d="M212,-1116C212,-1116 12,-1116 12,-1116 6,-1116 0,-1110 0,-1104 0,-1104 0,-1092 0,-1092 0,-1086 6,-1080 12,-1080 12,-1080 212,-1080 212,-1080 218,-1080 224,-1086 224,-1092 224,-1092 224,-1104 224,-1104 224,-1110 218,-1116 212,-1116"/>
<text text-anchor="middle" x="112" y="-1095.5" font-family="sans" font-size="10.00" fill="#000000">snv_indels_whatshap_phase_deepsomatic</text>
</g>
<!-- 2&#45;&gt;1 -->
<g id="edge9" class="edge">
<title>2&#45;&gt;1</title>
<path fill="none" stroke="#c0c0c0" stroke-width="2" d="M113.7543,-1079.9555C117.4139,-1042.3144 125.8846,-955.1867 130.2657,-910.1246"/>
<polygon fill="#c0c0c0" stroke="#c0c0c0" stroke-width="2" points="133.7517,-910.4369 131.2359,-900.1451 126.7846,-909.7594 133.7517,-910.4369"/>
</g>
<!-- 3 -->
<g id="node4" class="node">
<title>3</title>
<path fill="none" stroke="#56d8b1" stroke-width="2" d="M196,-1188C196,-1188 48,-1188 48,-1188 42,-1188 36,-1182 36,-1176 36,-1176 36,-1164 36,-1164 36,-1158 42,-1152 48,-1152 48,-1152 196,-1152 196,-1152 202,-1152 208,-1158 208,-1164 208,-1164 208,-1176 208,-1176 208,-1182 202,-1188 196,-1188"/>
<text text-anchor="middle" x="122" y="-1167.5" font-family="sans" font-size="10.00" fill="#000000">snv_indels_deepsomatic_t_only</text>
</g>
<!-- 3&#45;&gt;2 -->
<g id="edge11" class="edge">
<title>3&#45;&gt;2</title>
<path fill="none" stroke="#c0c0c0" stroke-width="2" d="M119.4766,-1151.8314C118.4071,-1144.131 117.1353,-1134.9743 115.9468,-1126.4166"/>
<polygon fill="#c0c0c0" stroke="#c0c0c0" stroke-width="2" points="119.3999,-1125.8367 114.5574,-1116.4133 112.4664,-1126.7997 119.3999,-1125.8367"/>
</g>
<!-- 4 -->
<g id="node5" class="node">
<title>4</title>
<path fill="none" stroke="#c6d856" stroke-width="2" d="M536,-1332C536,-1332 414,-1332 414,-1332 408,-1332 402,-1326 402,-1320 402,-1320 402,-1308 402,-1308 402,-1302 408,-1296 414,-1296 414,-1296 536,-1296 536,-1296 542,-1296 548,-1302 548,-1308 548,-1308 548,-1320 548,-1320 548,-1326 542,-1332 536,-1332"/>
<text text-anchor="middle" x="475" y="-1311.5" font-family="sans" font-size="10.00" fill="#000000">alignment_pbmm2_merge</text>
</g>
<!-- 4&#45;&gt;2 -->
<g id="edge10" class="edge">
<title>4&#45;&gt;2</title>
<path fill="none" stroke="#c0c0c0" stroke-width="2" d="M401.8513,-1304.7532C286.0459,-1288.3729 69.2447,-1250.0177 27,-1188 17.9924,-1174.7764 19.2953,-1166.0228 27,-1152 33.91,-1139.4235 45.1267,-1129.3606 57.1782,-1121.4922"/>
<polygon fill="#c0c0c0" stroke="#c0c0c0" stroke-width="2" points="59.2922,-1124.3047 66.0514,-1116.1461 55.6797,-1118.3089 59.2922,-1124.3047"/>
</g>
<!-- 4&#45;&gt;3 -->
<g id="edge13" class="edge">
<title>4&#45;&gt;3</title>
<path fill="none" stroke="#c0c0c0" stroke-width="2" d="M401.8327,-1296.789C366.787,-1287.5614 324.5831,-1274.9935 288,-1260 242.1118,-1241.1928 192.4904,-1213.1855 159.5719,-1193.4185"/>
<polygon fill="#c0c0c0" stroke="#c0c0c0" stroke-width="2" points="161.1142,-1190.2609 150.747,-1188.0763 157.4891,-1196.2491 161.1142,-1190.2609"/>
</g>
<!-- 8 -->
<g id="node9" class="node">
<title>8</title>
<path fill="none" stroke="#d87556" stroke-width="2" d="M496.5,-1260C496.5,-1260 329.5,-1260 329.5,-1260 323.5,-1260 317.5,-1254 317.5,-1248 317.5,-1248 317.5,-1236 317.5,-1236 317.5,-1230 323.5,-1224 329.5,-1224 329.5,-1224 496.5,-1224 496.5,-1224 502.5,-1224 508.5,-1230 508.5,-1236 508.5,-1236 508.5,-1248 508.5,-1248 508.5,-1254 502.5,-1260 496.5,-1260"/>
<text text-anchor="middle" x="413" y="-1239.5" font-family="sans" font-size="10.00" fill="#000000">alignment_samtools_index_pbmm2</text>
</g>
<!-- 4&#45;&gt;8 -->
<g id="edge18" class="edge">
<title>4&#45;&gt;8</title>
<path fill="none" stroke="#c0c0c0" stroke-width="2" d="M459.3548,-1295.8314C452.1409,-1287.454 443.443,-1277.3531 435.5395,-1268.1749"/>
<polygon fill="#c0c0c0" stroke="#c0c0c0" stroke-width="2" points="438.0333,-1265.7071 428.8559,-1260.4133 432.7289,-1270.2748 438.0333,-1265.7071"/>
</g>
<!-- 14 -->
<g id="node15" class="node">
<title>14</title>
<path fill="none" stroke="#566bd8" stroke-width="2" d="M599.5,-1044C599.5,-1044 436.5,-1044 436.5,-1044 430.5,-1044 424.5,-1038 424.5,-1032 424.5,-1032 424.5,-1020 424.5,-1020 424.5,-1014 430.5,-1008 436.5,-1008 436.5,-1008 599.5,-1008 599.5,-1008 605.5,-1008 611.5,-1014 611.5,-1020 611.5,-1020 611.5,-1032 611.5,-1032 611.5,-1038 605.5,-1044 599.5,-1044"/>
<text text-anchor="middle" x="518" y="-1023.5" font-family="sans" font-size="10.00" fill="#000000">snv_indels_whatshap_phase_clairs</text>
</g>
<!-- 4&#45;&gt;14 -->
<g id="edge26" class="edge">
<title>4&#45;&gt;14</title>
<path fill="none" stroke="#c0c0c0" stroke-width="2" d="M500.9307,-1295.8975C529.7861,-1274.071 574.9809,-1234.4703 595,-1188 614.0429,-1143.7958 626.1774,-1122.1835 603,-1080 596.09,-1067.4235 584.8733,-1057.3606 572.8218,-1049.4922"/>
<polygon fill="#c0c0c0" stroke="#c0c0c0" stroke-width="2" points="574.3203,-1046.3089 563.9486,-1044.1461 570.7078,-1052.3047 574.3203,-1046.3089"/>
</g>
<!-- 16 -->
<g id="node17" class="node">
<title>16</title>
<path fill="none" stroke="#bed856" stroke-width="2" d="M574.5,-1188C574.5,-1188 461.5,-1188 461.5,-1188 455.5,-1188 449.5,-1182 449.5,-1176 449.5,-1176 449.5,-1164 449.5,-1164 449.5,-1158 455.5,-1152 461.5,-1152 461.5,-1152 574.5,-1152 574.5,-1152 580.5,-1152 586.5,-1158 586.5,-1164 586.5,-1164 586.5,-1176 586.5,-1176 586.5,-1182 580.5,-1188 574.5,-1188"/>
<text text-anchor="middle" x="518" y="-1167.5" font-family="sans" font-size="10.00" fill="#000000">snv_indels_clairs_to_call</text>
</g>
<!-- 4&#45;&gt;16 -->
<g id="edge30" class="edge">
<title>4&#45;&gt;16</title>
<path fill="none" stroke="#c0c0c0" stroke-width="2" d="M493.9866,-1295.864C502.7775,-1286.161 512.2998,-1273.4549 517,-1260 523.9355,-1240.1462 523.8551,-1216.2928 522.2187,-1198.1325"/>
<polygon fill="#c0c0c0" stroke="#c0c0c0" stroke-width="2" points="525.6951,-1197.7257 521.1167,-1188.1712 518.7376,-1198.4954 525.6951,-1197.7257"/>
</g>
<!-- 21 -->
<g id="node22" class="node">
<title>21</title>
<path fill="none" stroke="#5673d8" stroke-width="2" d="M339.5,-1188C339.5,-1188 238.5,-1188 238.5,-1188 232.5,-1188 226.5,-1182 226.5,-1176 226.5,-1176 226.5,-1164 226.5,-1164 226.5,-1158 232.5,-1152 238.5,-1152 238.5,-1152 339.5,-1152 339.5,-1152 345.5,-1152 351.5,-1158 351.5,-1164 351.5,-1164 351.5,-1176 351.5,-1176 351.5,-1182 345.5,-1188 339.5,-1188"/>
<text text-anchor="middle" x="289" y="-1167.5" font-family="sans" font-size="10.00" fill="#000000">cnv_sv_pbsv_discover</text>
</g>
<!-- 4&#45;&gt;21 -->
<g id="edge36" class="edge">
<title>4&#45;&gt;21</title>
<path fill="none" stroke="#c0c0c0" stroke-width="2" d="M401.7379,-1297.9847C363.1259,-1288.0977 321.1003,-1274.5488 308,-1260 293.0332,-1243.3782 288.7562,-1218.0041 287.952,-1198.4303"/>
<polygon fill="#c0c0c0" stroke="#c0c0c0" stroke-width="2" points="291.4493,-1198.1977 287.8166,-1188.2452 284.4499,-1198.2908 291.4493,-1198.1977"/>
</g>
<!-- 23 -->
<g id="node24" class="node">
<title>23</title>
<path fill="none" stroke="#d89c56" stroke-width="2" d="M821,-1260C821,-1260 757,-1260 757,-1260 751,-1260 745,-1254 745,-1248 745,-1248 745,-1236 745,-1236 745,-1230 751,-1224 757,-1224 757,-1224 821,-1224 821,-1224 827,-1224 833,-1230 833,-1236 833,-1236 833,-1248 833,-1248 833,-1254 827,-1260 821,-1260"/>
<text text-anchor="middle" x="789" y="-1239.5" font-family="sans" font-size="10.00" fill="#000000">cnv_sv_hificnv</text>
</g>
<!-- 4&#45;&gt;23 -->
<g id="edge39" class="edge">
<title>4&#45;&gt;23</title>
<path fill="none" stroke="#c0c0c0" stroke-width="2" d="M548.2228,-1297.2101C605.307,-1284.1207 683.2882,-1266.2396 734.8463,-1254.4174"/>
<polygon fill="#c0c0c0" stroke="#c0c0c0" stroke-width="2" points="735.8268,-1257.7835 744.7915,-1252.137 734.2622,-1250.9606 735.8268,-1257.7835"/>
</g>
<!-- 25 -->
<g id="node26" class="node">
<title>25</title>
<path fill="none" stroke="#a7d856" stroke-width="2" d="M735.5,-1188C735.5,-1188 662.5,-1188 662.5,-1188 656.5,-1188 650.5,-1182 650.5,-1176 650.5,-1176 650.5,-1164 650.5,-1164 650.5,-1158 656.5,-1152 662.5,-1152 662.5,-1152 735.5,-1152 735.5,-1152 741.5,-1152 747.5,-1158 747.5,-1164 747.5,-1164 747.5,-1176 747.5,-1176 747.5,-1182 741.5,-1188 735.5,-1188"/>
<text text-anchor="middle" x="699" y="-1167.5" font-family="sans" font-size="10.00" fill="#000000">cnv_sv_sniffles2</text>
</g>
<!-- 4&#45;&gt;25 -->
<g id="edge41" class="edge">
<title>4&#45;&gt;25</title>
<path fill="none" stroke="#c0c0c0" stroke-width="2" d="M548.2357,-1299.9498C577.5543,-1291.7675 610.3781,-1279.1501 636,-1260 658.0248,-1243.5385 675.2229,-1217.0747 686.0456,-1197.0951"/>
<polygon fill="#c0c0c0" stroke="#c0c0c0" stroke-width="2" points="689.1863,-1198.6418 690.7018,-1188.1559 682.978,-1195.408 689.1863,-1198.6418"/>
</g>
<!-- 5 -->
<g id="node6" class="node">
<title>5</title>
<path fill="none" stroke="#56b1d8" stroke-width="2" d="M532,-1404C532,-1404 418,-1404 418,-1404 412,-1404 406,-1398 406,-1392 406,-1392 406,-1380 406,-1380 406,-1374 412,-1368 418,-1368 418,-1368 532,-1368 532,-1368 538,-1368 544,-1374 544,-1380 544,-1380 544,-1392 544,-1392 544,-1398 538,-1404 532,-1404"/>
<text text-anchor="middle" x="475" y="-1383.5" font-family="sans" font-size="10.00" fill="#000000">alignment_pbmm2_align</text>
</g>
<!-- 5&#45;&gt;4 -->
<g id="edge15" class="edge">
<title>5&#45;&gt;4</title>
<path fill="none" stroke="#c0c0c0" stroke-width="2" d="M475,-1367.8314C475,-1360.131 475,-1350.9743 475,-1342.4166"/>
<polygon fill="#c0c0c0" stroke="#c0c0c0" stroke-width="2" points="478.5001,-1342.4132 475,-1332.4133 471.5001,-1342.4133 478.5001,-1342.4132"/>
</g>
<!-- 6 -->
<g id="node7" class="node">
<title>6</title>
<path fill="none" stroke="#56d0d8" stroke-width="2" d="M454.5,-1476C454.5,-1476 335.5,-1476 335.5,-1476 329.5,-1476 323.5,-1470 323.5,-1464 323.5,-1464 323.5,-1452 323.5,-1452 323.5,-1446 329.5,-1440 335.5,-1440 335.5,-1440 454.5,-1440 454.5,-1440 460.5,-1440 466.5,-1446 466.5,-1452 466.5,-1452 466.5,-1464 466.5,-1464 466.5,-1470 460.5,-1476 454.5,-1476"/>
<text text-anchor="middle" x="395" y="-1455.5" font-family="sans" font-size="10.00" fill="#000000">prealignment_pbmarkdup</text>
</g>
<!-- 6&#45;&gt;5 -->
<g id="edge16" class="edge">
<title>6&#45;&gt;5</title>
<path fill="none" stroke="#c0c0c0" stroke-width="2" d="M415.1874,-1439.8314C424.8514,-1431.1337 436.5796,-1420.5783 447.0816,-1411.1265"/>
<polygon fill="#c0c0c0" stroke="#c0c0c0" stroke-width="2" points="449.7275,-1413.454 454.8191,-1404.1628 445.0447,-1408.251 449.7275,-1413.454"/>
</g>
<!-- 7 -->
<g id="node8" class="node">
<title>7</title>
<path fill="none" stroke="#56d8d0" stroke-width="2" d="M613.5,-1476C613.5,-1476 496.5,-1476 496.5,-1476 490.5,-1476 484.5,-1470 484.5,-1464 484.5,-1464 484.5,-1452 484.5,-1452 484.5,-1446 490.5,-1440 496.5,-1440 496.5,-1440 613.5,-1440 613.5,-1440 619.5,-1440 625.5,-1446 625.5,-1452 625.5,-1452 625.5,-1464 625.5,-1464 625.5,-1470 619.5,-1476 613.5,-1476"/>
<text text-anchor="middle" x="555" y="-1455.5" font-family="sans" font-size="10.00" fill="#000000">alignment_pbmm2_index</text>
</g>
<!-- 7&#45;&gt;5 -->
<g id="edge17" class="edge">
<title>7&#45;&gt;5</title>
<path fill="none" stroke="#c0c0c0" stroke-width="2" d="M534.8126,-1439.8314C525.1486,-1431.1337 513.4204,-1420.5783 502.9184,-1411.1265"/>
<polygon fill="#c0c0c0" stroke="#c0c0c0" stroke-width="2" points="504.9553,-1408.251 495.1809,-1404.1628 500.2725,-1413.454 504.9553,-1408.251"/>
</g>
<!-- 8&#45;&gt;2 -->
<g id="edge12" class="edge">
<title>8&#45;&gt;2</title>
<path fill="none" stroke="#c0c0c0" stroke-width="2" d="M407.2657,-1223.7387C399.7914,-1203.0391 384.6781,-1169.8609 360,-1152 348.292,-1143.5263 283.4493,-1129.5553 223.0084,-1117.947"/>
<polygon fill="#c0c0c0" stroke="#c0c0c0" stroke-width="2" points="223.4437,-1114.467 212.965,-1116.0317 222.1323,-1121.3431 223.4437,-1114.467"/>
</g>
<!-- 8&#45;&gt;3 -->
<g id="edge14" class="edge">
<title>8&#45;&gt;3</title>
<path fill="none" stroke="#c0c0c0" stroke-width="2" d="M339.944,-1223.9243C298.7873,-1213.7412 247.2481,-1200.9892 204.623,-1190.4428"/>
<polygon fill="#c0c0c0" stroke="#c0c0c0" stroke-width="2" points="205.3815,-1187.025 194.8336,-1188.0207 203.7002,-1193.8201 205.3815,-1187.025"/>
</g>
<!-- 8&#45;&gt;14 -->
<g id="edge28" class="edge">
<title>8&#45;&gt;14</title>
<path fill="none" stroke="#c0c0c0" stroke-width="2" d="M410.5108,-1223.8213C407.116,-1191.9953 404.3761,-1125.2695 433,-1080 440.9711,-1067.3934 453.0693,-1057.1921 465.6586,-1049.193"/>
<polygon fill="#c0c0c0" stroke="#c0c0c0" stroke-width="2" points="467.5919,-1052.1157 474.408,-1044.0045 464.0214,-1046.0947 467.5919,-1052.1157"/>
</g>
<!-- 8&#45;&gt;16 -->
<g id="edge31" class="edge">
<title>8&#45;&gt;16</title>
<path fill="none" stroke="#c0c0c0" stroke-width="2" d="M439.4959,-1223.8314C452.6774,-1214.7927 468.7847,-1203.7476 482.9711,-1194.0198"/>
<polygon fill="#c0c0c0" stroke="#c0c0c0" stroke-width="2" points="485.2446,-1196.7047 491.5125,-1188.1628 481.2859,-1190.9316 485.2446,-1196.7047"/>
</g>
<!-- 8&#45;&gt;21 -->
<g id="edge37" class="edge">
<title>8&#45;&gt;21</title>
<path fill="none" stroke="#c0c0c0" stroke-width="2" d="M381.7096,-1223.8314C365.7023,-1214.5368 346.0414,-1203.1208 328.9506,-1193.1971"/>
<polygon fill="#c0c0c0" stroke="#c0c0c0" stroke-width="2" points="330.6858,-1190.1575 320.2804,-1188.1628 327.1708,-1196.211 330.6858,-1190.1575"/>
</g>
<!-- 8&#45;&gt;25 -->
<g id="edge42" class="edge">
<title>8&#45;&gt;25</title>
<path fill="none" stroke="#c0c0c0" stroke-width="2" d="M484.8007,-1223.9243C532.7963,-1211.8415 595.1583,-1196.142 640.2045,-1184.8017"/>
<polygon fill="#c0c0c0" stroke="#c0c0c0" stroke-width="2" points="641.2712,-1188.1424 650.1142,-1182.3069 639.5623,-1181.3542 641.2712,-1188.1424"/>
</g>
<!-- 9 -->
<g id="node10" class="node">
<title>9</title>
<path fill="none" stroke="#56d873" stroke-width="2" d="M420,-468C420,-468 260,-468 260,-468 254,-468 248,-462 248,-456 248,-456 248,-444 248,-444 248,-438 254,-432 260,-432 260,-432 420,-432 420,-432 426,-432 432,-438 432,-444 432,-444 432,-456 432,-456 432,-462 426,-468 420,-468"/>
<text text-anchor="middle" x="340" y="-447.5" font-family="sans" font-size="10.00" fill="#000000">_copy_clairs_panel_annotated_vcf</text>
</g>
<!-- 9&#45;&gt;0 -->
<g id="edge6" class="edge">
<title>9&#45;&gt;0</title>
<path fill="none" stroke="#c0c0c0" stroke-width="2" d="M340,-431.8146C340,-404.4983 340,-351.25 340,-306 340,-306 340,-306 340,-162 340,-118.7517 345.5046,-101.6388 377,-72 410.1932,-40.7635 462.2157,-27.5269 497.4159,-21.9628"/>
<polygon fill="#c0c0c0" stroke="#c0c0c0" stroke-width="2" points="498.3626,-25.3626 507.7606,-20.4709 497.3633,-18.4342 498.3626,-25.3626"/>
</g>
<!-- 10 -->
<g id="node11" class="node">
<title>10</title>
<path fill="none" stroke="#97d856" stroke-width="2" d="M389,-684C389,-684 327,-684 327,-684 321,-684 315,-678 315,-672 315,-672 315,-660 315,-660 315,-654 321,-648 327,-648 327,-648 389,-648 389,-648 395,-648 401,-654 401,-660 401,-660 401,-672 401,-672 401,-678 395,-684 389,-684"/>
<text text-anchor="middle" x="358" y="-663.5" font-family="sans" font-size="10.00" fill="#000000">bgzip_vep_vcf</text>
</g>
<!-- 10&#45;&gt;9 -->
<g id="edge19" class="edge">
<title>10&#45;&gt;9</title>
<path fill="none" stroke="#c0c0c0" stroke-width="2" d="M350.138,-647.67C338.2556,-617.7855 317.8284,-556.6133 325,-504 326.1772,-495.3639 328.3671,-486.1599 330.717,-477.8427"/>
<polygon fill="#c0c0c0" stroke="#c0c0c0" stroke-width="2" points="334.078,-478.8195 333.6052,-468.2353 327.3743,-476.8042 334.078,-478.8195"/>
</g>
<!-- 32 -->
<g id="node33" class="node">
<title>32</title>
<path fill="none" stroke="#56d882" stroke-width="2" d="M502,-540C502,-540 346,-540 346,-540 340,-540 334,-534 334,-528 334,-528 334,-516 334,-516 334,-510 340,-504 346,-504 346,-504 502,-504 502,-504 508,-504 514,-510 514,-516 514,-516 514,-528 514,-528 514,-534 508,-540 502,-540"/>
<text text-anchor="middle" x="424" y="-519.5" font-family="sans" font-size="10.00" fill="#000000">filtering_filter_vep_annotated_vcf</text>
</g>
<!-- 10&#45;&gt;32 -->
<g id="edge49" class="edge">
<title>10&#45;&gt;32</title>
<path fill="none" stroke="#c0c0c0" stroke-width="2" d="M358.2574,-647.8193C359.1864,-628.9463 362.553,-599.0204 374,-576 379.183,-565.5768 387.0098,-555.733 394.9422,-547.3764"/>
<polygon fill="#c0c0c0" stroke="#c0c0c0" stroke-width="2" points="397.5802,-549.6885 402.1839,-540.1461 392.6343,-544.7348 397.5802,-549.6885"/>
</g>
<!-- 33 -->
<g id="node34" class="node">
<title>33</title>
<path fill="none" stroke="#61d856" stroke-width="2" d="M456.5,-612C456.5,-612 395.5,-612 395.5,-612 389.5,-612 383.5,-606 383.5,-600 383.5,-600 383.5,-588 383.5,-588 383.5,-582 389.5,-576 395.5,-576 395.5,-576 456.5,-576 456.5,-576 462.5,-576 468.5,-582 468.5,-588 468.5,-588 468.5,-600 468.5,-600 468.5,-606 462.5,-612 456.5,-612"/>
<text text-anchor="middle" x="426" y="-591.5" font-family="sans" font-size="10.00" fill="#000000">tabix_vep_vcf</text>
</g>
<!-- 10&#45;&gt;33 -->
<g id="edge51" class="edge">
<title>10&#45;&gt;33</title>
<path fill="none" stroke="#c0c0c0" stroke-width="2" d="M375.1593,-647.8314C383.1511,-639.3694 392.8038,-629.1489 401.5416,-619.8971"/>
<polygon fill="#c0c0c0" stroke="#c0c0c0" stroke-width="2" points="404.288,-622.0866 408.6097,-612.4133 399.1989,-617.2802 404.288,-622.0866"/>
</g>
<!-- 11 -->
<g id="node12" class="node">
<title>11</title>
<path fill="none" stroke="#d8b456" stroke-width="2" d="M412,-756C412,-756 312,-756 312,-756 306,-756 300,-750 300,-744 300,-744 300,-732 300,-732 300,-726 306,-720 312,-720 312,-720 412,-720 412,-720 418,-720 424,-726 424,-732 424,-732 424,-744 424,-744 424,-750 418,-756 412,-756"/>
<text text-anchor="middle" x="362" y="-735.5" font-family="sans" font-size="10.00" fill="#000000">annotation_vep_clairs</text>
</g>
<!-- 11&#45;&gt;10 -->
<g id="edge20" class="edge">
<title>11&#45;&gt;10</title>
<path fill="none" stroke="#c0c0c0" stroke-width="2" d="M360.9906,-719.8314C360.5628,-712.131 360.0541,-702.9743 359.5787,-694.4166"/>
<polygon fill="#c0c0c0" stroke="#c0c0c0" stroke-width="2" points="363.0724,-694.2037 359.023,-684.4133 356.0831,-694.592 363.0724,-694.2037"/>
</g>
<!-- 12 -->
<g id="node13" class="node">
<title>12</title>
<path fill="none" stroke="#d85e56" stroke-width="2" d="M426.5,-828C426.5,-828 297.5,-828 297.5,-828 291.5,-828 285.5,-822 285.5,-816 285.5,-816 285.5,-804 285.5,-804 285.5,-798 291.5,-792 297.5,-792 297.5,-792 426.5,-792 426.5,-792 432.5,-792 438.5,-798 438.5,-804 438.5,-804 438.5,-816 438.5,-816 438.5,-822 432.5,-828 426.5,-828"/>
<text text-anchor="middle" x="362" y="-807.5" font-family="sans" font-size="10.00" fill="#000000">cnv_sv_tabix_include_panel</text>
</g>
<!-- 12&#45;&gt;11 -->
<g id="edge21" class="edge">
<title>12&#45;&gt;11</title>
<path fill="none" stroke="#c0c0c0" stroke-width="2" d="M362,-791.8314C362,-784.131 362,-774.9743 362,-766.4166"/>
<polygon fill="#c0c0c0" stroke="#c0c0c0" stroke-width="2" points="365.5001,-766.4132 362,-756.4133 358.5001,-766.4133 365.5001,-766.4132"/>
</g>
<!-- 13 -->
<g id="node14" class="node">
<title>13</title>
<path fill="none" stroke="#78d856" stroke-width="2" d="M564,-900C564,-900 354,-900 354,-900 348,-900 342,-894 342,-888 342,-888 342,-876 342,-876 342,-870 348,-864 354,-864 354,-864 564,-864 564,-864 570,-864 576,-870 576,-876 576,-876 576,-888 576,-888 576,-894 570,-900 564,-900"/>
<text text-anchor="middle" x="459" y="-879.5" font-family="sans" font-size="10.00" fill="#000000">filtering_bcftools_filter_include_region_clairs</text>
</g>
<!-- 13&#45;&gt;11 -->
<g id="edge22" class="edge">
<title>13&#45;&gt;11</title>
<path fill="none" stroke="#c0c0c0" stroke-width="2" d="M460.8586,-863.9236C461.9312,-844.5925 460.9219,-813.7829 447,-792 438.9677,-779.4323 426.8491,-769.244 414.2598,-761.2448"/>
<polygon fill="#c0c0c0" stroke="#c0c0c0" stroke-width="2" points="415.8994,-758.1479 405.5134,-756.0544 412.327,-764.1678 415.8994,-758.1479"/>
</g>
<!-- 13&#45;&gt;12 -->
<g id="edge23" class="edge">
<title>13&#45;&gt;12</title>
<path fill="none" stroke="#c0c0c0" stroke-width="2" d="M434.5228,-863.8314C422.4605,-854.8779 407.746,-843.9558 394.7314,-834.2955"/>
<polygon fill="#c0c0c0" stroke="#c0c0c0" stroke-width="2" points="396.5852,-831.3127 386.4694,-828.1628 392.413,-836.9335 396.5852,-831.3127"/>
</g>
<!-- 14&#45;&gt;13 -->
<g id="edge24" class="edge">
<title>14&#45;&gt;13</title>
<path fill="none" stroke="#c0c0c0" stroke-width="2" d="M496.2426,-1007.9553C486.2181,-998.3659 475.1946,-985.732 469,-972 460.2455,-952.5934 457.9548,-928.5337 457.7391,-910.1745"/>
<polygon fill="#c0c0c0" stroke="#c0c0c0" stroke-width="2" points="461.2395,-910.1292 457.8187,-900.1018 454.2397,-910.0738 461.2395,-910.1292"/>
</g>
<!-- 17 -->
<g id="node18" class="node">
<title>17</title>
<path fill="none" stroke="#68d856" stroke-width="2" d="M578,-972C578,-972 490,-972 490,-972 484,-972 478,-966 478,-960 478,-960 478,-948 478,-948 478,-942 484,-936 490,-936 490,-936 578,-936 578,-936 584,-936 590,-942 590,-948 590,-948 590,-960 590,-960 590,-966 584,-972 578,-972"/>
<text text-anchor="middle" x="534" y="-951.5" font-family="sans" font-size="10.00" fill="#000000">cnv_sv_tabix_clairs</text>
</g>
<!-- 14&#45;&gt;17 -->
<g id="edge32" class="edge">
<title>14&#45;&gt;17</title>
<path fill="none" stroke="#c0c0c0" stroke-width="2" d="M522.0375,-1007.8314C523.7487,-1000.131 525.7835,-990.9743 527.6852,-982.4166"/>
<polygon fill="#c0c0c0" stroke="#c0c0c0" stroke-width="2" points="531.1554,-982.9344 529.9082,-972.4133 524.3221,-981.4159 531.1554,-982.9344"/>
</g>
<!-- 15 -->
<g id="node16" class="node">
<title>15</title>
<path fill="none" stroke="#9fd856" stroke-width="2" d="M582,-1116C582,-1116 454,-1116 454,-1116 448,-1116 442,-1110 442,-1104 442,-1104 442,-1092 442,-1092 442,-1086 448,-1080 454,-1080 454,-1080 582,-1080 582,-1080 588,-1080 594,-1086 594,-1092 594,-1092 594,-1104 594,-1104 594,-1110 588,-1116 582,-1116"/>
<text text-anchor="middle" x="518" y="-1095.5" font-family="sans" font-size="10.00" fill="#000000">snv_indels_clairs_to_concat</text>
</g>
<!-- 15&#45;&gt;14 -->
<g id="edge27" class="edge">
<title>15&#45;&gt;14</title>
<path fill="none" stroke="#c0c0c0" stroke-width="2" d="M518,-1079.8314C518,-1072.131 518,-1062.9743 518,-1054.4166"/>
<polygon fill="#c0c0c0" stroke="#c0c0c0" stroke-width="2" points="521.5001,-1054.4132 518,-1044.4133 514.5001,-1054.4133 521.5001,-1054.4132"/>
</g>
<!-- 16&#45;&gt;15 -->
<g id="edge29" class="edge">
<title>16&#45;&gt;15</title>
<path fill="none" stroke="#c0c0c0" stroke-width="2" d="M518,-1151.8314C518,-1144.131 518,-1134.9743 518,-1126.4166"/>
<polygon fill="#c0c0c0" stroke="#c0c0c0" stroke-width="2" points="521.5001,-1126.4132 518,-1116.4133 514.5001,-1126.4133 521.5001,-1126.4132"/>
</g>
<!-- 17&#45;&gt;13 -->
<g id="edge25" class="edge">
<title>17&#45;&gt;13</title>
<path fill="none" stroke="#c0c0c0" stroke-width="2" d="M515.0743,-935.8314C506.0143,-927.1337 495.0191,-916.5783 485.1735,-907.1265"/>
<polygon fill="#c0c0c0" stroke="#c0c0c0" stroke-width="2" points="487.5574,-904.5633 477.9196,-900.1628 482.7096,-909.613 487.5574,-904.5633"/>
</g>
<!-- 18 -->
<g id="node19" class="node">
<title>18</title>
<path fill="none" stroke="#80d856" stroke-width="2" d="M255,-828C255,-828 185,-828 185,-828 179,-828 173,-822 173,-816 173,-816 173,-804 173,-804 173,-798 179,-792 185,-792 185,-792 255,-792 255,-792 261,-792 267,-798 267,-804 267,-804 267,-816 267,-816 267,-822 261,-828 255,-828"/>
<text text-anchor="middle" x="220" y="-807.5" font-family="sans" font-size="10.00" fill="#000000">_copy_pbsv_vcf</text>
</g>
<!-- 18&#45;&gt;0 -->
<g id="edge1" class="edge">
<title>18&#45;&gt;0</title>
<path fill="none" stroke="#c0c0c0" stroke-width="2" d="M220,-791.8146C220,-764.4983 220,-711.25 220,-666 220,-666 220,-666 220,-162 220,-93.5426 283.3716,-101.8053 345,-72 395.302,-47.6724 458.5422,-32.4371 497.8729,-24.5752"/>
<polygon fill="#c0c0c0" stroke="#c0c0c0" stroke-width="2" points="498.6689,-27.9861 507.8178,-22.643 497.3338,-21.1146 498.6689,-27.9861"/>
</g>
<!-- 19 -->
<g id="node20" class="node">
<title>19</title>
<path fill="none" stroke="#d89556" stroke-width="2" d="M292,-1044C292,-1044 234,-1044 234,-1044 228,-1044 222,-1038 222,-1032 222,-1032 222,-1020 222,-1020 222,-1014 228,-1008 234,-1008 234,-1008 292,-1008 292,-1008 298,-1008 304,-1014 304,-1020 304,-1020 304,-1032 304,-1032 304,-1038 298,-1044 292,-1044"/>
<text text-anchor="middle" x="263" y="-1023.5" font-family="sans" font-size="10.00" fill="#000000">cnv_sv_bgzip</text>
</g>
<!-- 19&#45;&gt;18 -->
<g id="edge33" class="edge">
<title>19&#45;&gt;18</title>
<path fill="none" stroke="#c0c0c0" stroke-width="2" d="M259.4078,-1007.9555C251.9144,-970.3144 234.5696,-883.1867 225.5989,-838.1246"/>
<polygon fill="#c0c0c0" stroke="#c0c0c0" stroke-width="2" points="228.9974,-837.2692 223.6122,-828.1451 222.1321,-838.636 228.9974,-837.2692"/>
</g>
<!-- 20 -->
<g id="node21" class="node">
<title>20</title>
<path fill="none" stroke="#5682d8" stroke-width="2" d="M331.5,-1116C331.5,-1116 254.5,-1116 254.5,-1116 248.5,-1116 242.5,-1110 242.5,-1104 242.5,-1104 242.5,-1092 242.5,-1092 242.5,-1086 248.5,-1080 254.5,-1080 254.5,-1080 331.5,-1080 331.5,-1080 337.5,-1080 343.5,-1086 343.5,-1092 343.5,-1092 343.5,-1104 343.5,-1104 343.5,-1110 337.5,-1116 331.5,-1116"/>
<text text-anchor="middle" x="293" y="-1095.5" font-family="sans" font-size="10.00" fill="#000000">cnv_sv_pbsv_call</text>
</g>
<!-- 20&#45;&gt;19 -->
<g id="edge34" class="edge">
<title>20&#45;&gt;19</title>
<path fill="none" stroke="#c0c0c0" stroke-width="2" d="M285.4297,-1079.8314C282.1507,-1071.9617 278.238,-1062.5712 274.6055,-1053.8533"/>
<polygon fill="#c0c0c0" stroke="#c0c0c0" stroke-width="2" points="277.7492,-1052.2979 270.6722,-1044.4133 271.2876,-1054.9902 277.7492,-1052.2979"/>
</g>
<!-- 21&#45;&gt;20 -->
<g id="edge35" class="edge">
<title>21&#45;&gt;20</title>
<path fill="none" stroke="#c0c0c0" stroke-width="2" d="M290.0094,-1151.8314C290.4372,-1144.131 290.9459,-1134.9743 291.4213,-1126.4166"/>
<polygon fill="#c0c0c0" stroke="#c0c0c0" stroke-width="2" points="294.9169,-1126.592 291.977,-1116.4133 287.9276,-1126.2037 294.9169,-1126.592"/>
</g>
<!-- 22 -->
<g id="node23" class="node">
<title>22</title>
<path fill="none" stroke="#d88d56" stroke-width="2" d="M865.5,-684C865.5,-684 786.5,-684 786.5,-684 780.5,-684 774.5,-678 774.5,-672 774.5,-672 774.5,-660 774.5,-660 774.5,-654 780.5,-648 786.5,-648 786.5,-648 865.5,-648 865.5,-648 871.5,-648 877.5,-654 877.5,-660 877.5,-660 877.5,-672 877.5,-672 877.5,-678 871.5,-684 865.5,-684"/>
<text text-anchor="middle" x="826" y="-663.5" font-family="sans" font-size="10.00" fill="#000000">_copy_hificnv_vcf</text>
</g>
<!-- 22&#45;&gt;0 -->
<g id="edge4" class="edge">
<title>22&#45;&gt;0</title>
<path fill="none" stroke="#c0c0c0" stroke-width="2" d="M821.2344,-647.9623C814.4975,-620.8344 803,-567.8236 803,-522 803,-522 803,-522 803,-162 803,-117.2786 792.9878,-99.8541 758,-72 729.5277,-49.3329 628.091,-31.5129 572.3541,-23.1686"/>
<polygon fill="#c0c0c0" stroke="#c0c0c0" stroke-width="2" points="572.5812,-19.6645 562.1788,-21.6746 571.5642,-26.5903 572.5812,-19.6645"/>
</g>
<!-- 23&#45;&gt;22 -->
<g id="edge38" class="edge">
<title>23&#45;&gt;22</title>
<path fill="none" stroke="#c0c0c0" stroke-width="2" d="M797.2709,-1223.7881C808.719,-1196.8727 828,-1144.6212 828,-1098 828,-1098 828,-1098 828,-810 828,-769.8721 827.2139,-723.4602 826.6274,-694.416"/>
<polygon fill="#c0c0c0" stroke="#c0c0c0" stroke-width="2" points="830.1218,-694.1092 826.4144,-684.1843 823.1234,-694.255 830.1218,-694.1092"/>
</g>
<!-- 24 -->
<g id="node25" class="node">
<title>24</title>
<path fill="none" stroke="#d8d356" stroke-width="2" d="M788,-972C788,-972 700,-972 700,-972 694,-972 688,-966 688,-960 688,-960 688,-948 688,-948 688,-942 694,-936 700,-936 700,-936 788,-936 788,-936 794,-936 800,-942 800,-948 800,-948 800,-960 800,-960 800,-966 794,-972 788,-972"/>
<text text-anchor="middle" x="744" y="-951.5" font-family="sans" font-size="10.00" fill="#000000">_copy_sniffles2_vcf</text>
</g>
<!-- 24&#45;&gt;0 -->
<g id="edge8" class="edge">
<title>24&#45;&gt;0</title>
<path fill="none" stroke="#c0c0c0" stroke-width="2" d="M744,-935.8146C744,-908.4983 744,-855.25 744,-810 744,-810 744,-810 744,-162 744,-79.5258 632.2757,-40.6745 572.1994,-25.7451"/>
<polygon fill="#c0c0c0" stroke="#c0c0c0" stroke-width="2" points="572.8622,-22.3051 562.3231,-23.3904 571.2387,-29.1142 572.8622,-22.3051"/>
</g>
<!-- 25&#45;&gt;24 -->
<g id="edge40" class="edge">
<title>25&#45;&gt;24</title>
<path fill="none" stroke="#c0c0c0" stroke-width="2" d="M702.7593,-1151.9555C710.6012,-1114.3144 728.7528,-1027.1867 738.1407,-982.1246"/>
<polygon fill="#c0c0c0" stroke="#c0c0c0" stroke-width="2" points="741.6066,-982.6487 740.2198,-972.1451 734.7537,-981.221 741.6066,-982.6487"/>
</g>
<!-- 26 -->
<g id="node27" class="node">
<title>26</title>
<path fill="none" stroke="#56d86b" stroke-width="2" d="M704,-756C704,-756 616,-756 616,-756 610,-756 604,-750 604,-744 604,-744 604,-732 604,-732 604,-726 610,-720 616,-720 616,-720 704,-720 704,-720 710,-720 716,-726 716,-732 716,-732 716,-744 716,-744 716,-750 710,-756 704,-756"/>
<text text-anchor="middle" x="660" y="-735.5" font-family="sans" font-size="10.00" fill="#000000">_copy_sniffles2_snf</text>
</g>
<!-- 25&#45;&gt;26 -->
<g id="edge43" class="edge">
<title>25&#45;&gt;26</title>
<path fill="none" stroke="#c0c0c0" stroke-width="2" d="M690.7291,-1151.7881C679.281,-1124.8727 660,-1072.6212 660,-1026 660,-1026 660,-1026 660,-882 660,-841.876 660,-795.4631 660,-766.4177"/>
<polygon fill="#c0c0c0" stroke="#c0c0c0" stroke-width="2" points="663.5001,-766.1853 660,-756.1854 656.5001,-766.1854 663.5001,-766.1853"/>
</g>
<!-- 26&#45;&gt;0 -->
<g id="edge5" class="edge">
<title>26&#45;&gt;0</title>
<path fill="none" stroke="#c0c0c0" stroke-width="2" d="M669.7554,-719.9518C683.2583,-693.2403 706,-641.2402 706,-594 706,-594 706,-594 706,-162 706,-92.3209 621.8999,-49.5517 571.6576,-30.2181"/>
<polygon fill="#c0c0c0" stroke="#c0c0c0" stroke-width="2" points="572.6883,-26.8673 562.0955,-26.6628 570.2488,-33.4285 572.6883,-26.8673"/>
</g>
<!-- 27 -->
<g id="node28" class="node">
<title>27</title>
<path fill="none" stroke="#d6d856" stroke-width="2" d="M666,-540C666,-540 544,-540 544,-540 538,-540 532,-534 532,-528 532,-528 532,-516 532,-516 532,-510 538,-504 544,-504 544,-504 666,-504 666,-504 672,-504 678,-510 678,-516 678,-516 678,-528 678,-528 678,-534 672,-540 666,-540"/>
<text text-anchor="middle" x="605" y="-519.5" font-family="sans" font-size="10.00" fill="#000000">cnv_sv_cnvkit_batch_local</text>
</g>
<!-- 31 -->
<g id="node32" class="node">
<title>31</title>
<path fill="none" stroke="#d87d56" stroke-width="2" d="M601,-468C601,-468 485,-468 485,-468 479,-468 473,-462 473,-456 473,-456 473,-444 473,-444 473,-438 479,-432 485,-432 485,-432 601,-432 601,-432 607,-432 613,-438 613,-444 613,-444 613,-456 613,-456 613,-462 607,-468 601,-468"/>
<text text-anchor="middle" x="543" y="-447.5" font-family="sans" font-size="10.00" fill="#000000">cnvkit_call_new_wrapper</text>
</g>
<!-- 27&#45;&gt;31 -->
<g id="edge48" class="edge">
<title>27&#45;&gt;31</title>
<path fill="none" stroke="#c0c0c0" stroke-width="2" d="M589.3548,-503.8314C582.1409,-495.454 573.443,-485.3531 565.5395,-476.1749"/>
<polygon fill="#c0c0c0" stroke="#c0c0c0" stroke-width="2" points="568.0333,-473.7071 558.8559,-468.4133 562.7289,-478.2748 568.0333,-473.7071"/>
</g>
<!-- 28 -->
<g id="node29" class="node">
<title>28</title>
<path fill="none" stroke="#d86e56" stroke-width="2" d="M665.5,-180C665.5,-180 534.5,-180 534.5,-180 528.5,-180 522.5,-174 522.5,-168 522.5,-168 522.5,-156 522.5,-156 522.5,-150 528.5,-144 534.5,-144 534.5,-144 665.5,-144 665.5,-144 671.5,-144 677.5,-150 677.5,-156 677.5,-156 677.5,-168 677.5,-168 677.5,-174 671.5,-180 665.5,-180"/>
<text text-anchor="middle" x="600" y="-159.5" font-family="sans" font-size="10.00" fill="#000000">_copy_annotated_cnvkit_vcf</text>
</g>
<!-- 28&#45;&gt;0 -->
<g id="edge2" class="edge">
<title>28&#45;&gt;0</title>
<path fill="none" stroke="#c0c0c0" stroke-width="2" d="M591.7677,-143.7623C580.5345,-118.8764 560.3149,-74.0822 547.2852,-45.2165"/>
<polygon fill="#c0c0c0" stroke="#c0c0c0" stroke-width="2" points="550.4698,-43.7641 543.1655,-36.0896 544.0896,-46.6441 550.4698,-43.7641"/>
</g>
<!-- 29 -->
<g id="node30" class="node">
<title>29</title>
<path fill="none" stroke="#56c9d8" stroke-width="2" d="M617.5,-324C617.5,-324 468.5,-324 468.5,-324 462.5,-324 456.5,-318 456.5,-312 456.5,-312 456.5,-300 456.5,-300 456.5,-294 462.5,-288 468.5,-288 468.5,-288 617.5,-288 617.5,-288 623.5,-288 629.5,-294 629.5,-300 629.5,-300 629.5,-312 629.5,-312 629.5,-318 623.5,-324 617.5,-324"/>
<text text-anchor="middle" x="543" y="-303.5" font-family="sans" font-size="10.00" fill="#000000">annotation_annotate_cnvkit_vcf</text>
</g>
<!-- 29&#45;&gt;28 -->
<g id="edge44" class="edge">
<title>29&#45;&gt;28</title>
<path fill="none" stroke="#c0c0c0" stroke-width="2" d="M550.2191,-287.7623C560.0269,-262.9846 577.6467,-218.4714 589.0774,-189.5939"/>
<polygon fill="#c0c0c0" stroke="#c0c0c0" stroke-width="2" points="592.4133,-190.6759 592.8395,-180.0896 585.9047,-188.0995 592.4133,-190.6759"/>
</g>
<!-- 36 -->
<g id="node37" class="node">
<title>36</title>
<path fill="none" stroke="#56d8a2" stroke-width="2" d="M510.5,-252C510.5,-252 397.5,-252 397.5,-252 391.5,-252 385.5,-246 385.5,-240 385.5,-240 385.5,-228 385.5,-228 385.5,-222 391.5,-216 397.5,-216 397.5,-216 510.5,-216 510.5,-216 516.5,-216 522.5,-222 522.5,-228 522.5,-228 522.5,-240 522.5,-240 522.5,-246 516.5,-252 510.5,-252"/>
<text text-anchor="middle" x="454" y="-231.5" font-family="sans" font-size="10.00" fill="#000000">cnv_sv_bgzip_cnvkit_vcf</text>
</g>
<!-- 29&#45;&gt;36 -->
<g id="edge54" class="edge">
<title>29&#45;&gt;36</title>
<path fill="none" stroke="#c0c0c0" stroke-width="2" d="M520.5415,-287.8314C509.5795,-278.9632 496.2301,-268.1637 484.3735,-258.5718"/>
<polygon fill="#c0c0c0" stroke="#c0c0c0" stroke-width="2" points="486.4271,-255.7313 476.4513,-252.1628 482.0245,-261.1734 486.4271,-255.7313"/>
</g>
<!-- 30 -->
<g id="node31" class="node">
<title>30</title>
<path fill="none" stroke="#56d8c1" stroke-width="2" d="M584,-396C584,-396 502,-396 502,-396 496,-396 490,-390 490,-384 490,-384 490,-372 490,-372 490,-366 496,-360 502,-360 502,-360 584,-360 584,-360 590,-360 596,-366 596,-372 596,-372 596,-384 596,-384 596,-390 590,-396 584,-396"/>
<text text-anchor="middle" x="543" y="-375.5" font-family="sans" font-size="10.00" fill="#000000">cnv_sv_cnvkit_vcf</text>
</g>
<!-- 30&#45;&gt;29 -->
<g id="edge45" class="edge">
<title>30&#45;&gt;29</title>
<path fill="none" stroke="#c0c0c0" stroke-width="2" d="M543,-359.8314C543,-352.131 543,-342.9743 543,-334.4166"/>
<polygon fill="#c0c0c0" stroke="#c0c0c0" stroke-width="2" points="546.5001,-334.4132 543,-324.4133 539.5001,-334.4133 546.5001,-334.4132"/>
</g>
<!-- 31&#45;&gt;30 -->
<g id="edge46" class="edge">
<title>31&#45;&gt;30</title>
<path fill="none" stroke="#c0c0c0" stroke-width="2" d="M543,-431.8314C543,-424.131 543,-414.9743 543,-406.4166"/>
<polygon fill="#c0c0c0" stroke="#c0c0c0" stroke-width="2" points="546.5001,-406.4132 543,-396.4133 539.5001,-406.4133 546.5001,-406.4132"/>
</g>
<!-- 32&#45;&gt;31 -->
<g id="edge47" class="edge">
<title>32&#45;&gt;31</title>
<path fill="none" stroke="#c0c0c0" stroke-width="2" d="M454.0287,-503.8314C469.2496,-494.6221 487.9128,-483.3301 504.2083,-473.4706"/>
<polygon fill="#c0c0c0" stroke="#c0c0c0" stroke-width="2" points="506.2369,-476.3341 512.9809,-468.1628 502.6132,-470.345 506.2369,-476.3341"/>
</g>
<!-- 33&#45;&gt;32 -->
<g id="edge50" class="edge">
<title>33&#45;&gt;32</title>
<path fill="none" stroke="#c0c0c0" stroke-width="2" d="M425.4953,-575.8314C425.2814,-568.131 425.0271,-558.9743 424.7894,-550.4166"/>
<polygon fill="#c0c0c0" stroke="#c0c0c0" stroke-width="2" points="428.2879,-550.3122 424.5115,-540.4133 421.2906,-550.5066 428.2879,-550.3122"/>
</g>
<!-- 34 -->
<g id="node35" class="node">
<title>34</title>
<path fill="none" stroke="#56d88a" stroke-width="2" d="M507.5,-108C507.5,-108 398.5,-108 398.5,-108 392.5,-108 386.5,-102 386.5,-96 386.5,-96 386.5,-84 386.5,-84 386.5,-78 392.5,-72 398.5,-72 398.5,-72 507.5,-72 507.5,-72 513.5,-72 519.5,-78 519.5,-84 519.5,-84 519.5,-96 519.5,-96 519.5,-102 513.5,-108 507.5,-108"/>
<text text-anchor="middle" x="453" y="-87.5" font-family="sans" font-size="10.00" fill="#000000">_copy_index_cnvkit_vcf</text>
</g>
<!-- 34&#45;&gt;0 -->
<g id="edge3" class="edge">
<title>34&#45;&gt;0</title>
<path fill="none" stroke="#c0c0c0" stroke-width="2" d="M473.6921,-71.8314C483.6948,-63.0485 495.855,-52.3712 506.6999,-42.8489"/>
<polygon fill="#c0c0c0" stroke="#c0c0c0" stroke-width="2" points="509.1094,-45.3909 514.3146,-36.1628 504.4908,-40.1308 509.1094,-45.3909"/>
</g>
<!-- 35 -->
<g id="node36" class="node">
<title>35</title>
<path fill="none" stroke="#56a2d8" stroke-width="2" d="M492,-180C492,-180 380,-180 380,-180 374,-180 368,-174 368,-168 368,-168 368,-156 368,-156 368,-150 374,-144 380,-144 380,-144 492,-144 492,-144 498,-144 504,-150 504,-156 504,-156 504,-168 504,-168 504,-174 498,-180 492,-180"/>
<text text-anchor="middle" x="436" y="-159.5" font-family="sans" font-size="10.00" fill="#000000">cnv_sv_tabix_cnvkit_vcf</text>
</g>
<!-- 35&#45;&gt;34 -->
<g id="edge52" class="edge">
<title>35&#45;&gt;34</title>
<path fill="none" stroke="#c0c0c0" stroke-width="2" d="M440.2898,-143.8314C442.108,-136.131 444.2699,-126.9743 446.2905,-118.4166"/>
<polygon fill="#c0c0c0" stroke="#c0c0c0" stroke-width="2" points="449.7608,-118.95 448.6524,-108.4133 442.9481,-117.3414 449.7608,-118.95"/>
</g>
<!-- 36&#45;&gt;35 -->
<g id="edge53" class="edge">
<title>36&#45;&gt;35</title>
<path fill="none" stroke="#c0c0c0" stroke-width="2" d="M449.4578,-215.8314C447.5116,-208.0463 445.1932,-198.7729 443.0337,-190.1347"/>
<polygon fill="#c0c0c0" stroke="#c0c0c0" stroke-width="2" points="446.4242,-189.2658 440.6033,-180.4133 439.6332,-190.9636 446.4242,-189.2658"/>
</g>
</g>
</svg>
