<?xml version="1.0" encoding="UTF-8" standalone="no"?>
<!DOCTYPE svg PUBLIC "-//W3C//DTD SVG 1.1//EN"
 "http://www.w3.org/Graphics/SVG/1.1/DTD/svg11.dtd">
<!-- Generated by graphviz version 2.40.1 (0)
 -->
<!-- Title: snakemake_dag Pages: 1 -->
<svg width="1038pt" height="1556pt"
 viewBox="0.00 0.00 1037.50 1556.00" xmlns="http://www.w3.org/2000/svg" xmlns:xlink="http://www.w3.org/1999/xlink">
<g id="graph0" class="graph" transform="scale(1 1) rotate(0) translate(4 1552)">
<title>snakemake_dag</title>
<polygon fill="#ffffff" stroke="transparent" points="-4,4 -4,-1552 1033.5,-1552 1033.5,4 -4,4"/>
<!-- 0 -->
<g id="node1" class="node">
<title>0</title>
<path fill="none" stroke="#d86e56" stroke-width="2" d="M665,-36C665,-36 635,-36 635,-36 629,-36 623,-30 623,-24 623,-24 623,-12 623,-12 623,-6 629,0 635,0 635,0 665,0 665,0 671,0 677,-6 677,-12 677,-12 677,-24 677,-24 677,-30 671,-36 665,-36"/>
<text text-anchor="middle" x="650" y="-15.5" font-family="sans" font-size="10.00" fill="#000000">all</text>
</g>
<!-- 1 -->
<g id="node2" class="node">
<title>1</title>
<path fill="none" stroke="#d8cb56" stroke-width="2" d="M122,-828C122,-828 12,-828 12,-828 6,-828 0,-822 0,-816 0,-816 0,-804 0,-804 0,-798 6,-792 12,-792 12,-792 122,-792 122,-792 128,-792 134,-798 134,-804 134,-804 134,-816 134,-816 134,-822 128,-828 122,-828"/>
<text text-anchor="middle" x="67" y="-807.5" font-family="sans" font-size="10.00" fill="#000000">_copy_deepsomatic_vcf</text>
</g>
<!-- 1&#45;&gt;0 -->
<g id="edge9" class="edge">
<title>1&#45;&gt;0</title>
<path fill="none" stroke="#c0c0c0" stroke-width="2" d="M60.8498,-791.5984C52.3372,-764.4466 38,-711.9035 38,-666 38,-666 38,-666 38,-162 38,-110.2151 66.3413,-96.4327 112,-72 155.9932,-48.4585 498.0029,-26.7732 612.6683,-20.0989"/>
<polygon fill="#c0c0c0" stroke="#c0c0c0" stroke-width="2" points="612.9451,-23.5889 622.7267,-19.5181 612.5415,-16.6005 612.9451,-23.5889"/>
</g>
<!-- 2 -->
<g id="node3" class="node">
<title>2</title>
<path fill="none" stroke="#56a2d8" stroke-width="2" d="M243,-1260C243,-1260 95,-1260 95,-1260 89,-1260 83,-1254 83,-1248 83,-1248 83,-1236 83,-1236 83,-1230 89,-1224 95,-1224 95,-1224 243,-1224 243,-1224 249,-1224 255,-1230 255,-1236 255,-1236 255,-1248 255,-1248 255,-1254 249,-1260 243,-1260"/>
<text text-anchor="middle" x="169" y="-1239.5" font-family="sans" font-size="10.00" fill="#000000">snv_indels_deepsomatic_t_only</text>
</g>
<!-- 2&#45;&gt;1 -->
<g id="edge13" class="edge">
<title>2&#45;&gt;1</title>
<path fill="none" stroke="#c0c0c0" stroke-width="2" d="M159.6687,-1223.9025C146.7529,-1197.1296 125,-1145.0538 125,-1098 125,-1098 125,-1098 125,-954 125,-910.6562 102.1108,-864.9417 85.0907,-836.9402"/>
<polygon fill="#c0c0c0" stroke="#c0c0c0" stroke-width="2" points="87.8602,-834.7684 79.5851,-828.1522 81.9281,-838.4847 87.8602,-834.7684"/>
</g>
<!-- 3 -->
<g id="node4" class="node">
<title>3</title>
<path fill="none" stroke="#5663d8" stroke-width="2" d="M658,-1404C658,-1404 536,-1404 536,-1404 530,-1404 524,-1398 524,-1392 524,-1392 524,-1380 524,-1380 524,-1374 530,-1368 536,-1368 536,-1368 658,-1368 658,-1368 664,-1368 670,-1374 670,-1380 670,-1380 670,-1392 670,-1392 670,-1398 664,-1404 658,-1404"/>
<text text-anchor="middle" x="597" y="-1383.5" font-family="sans" font-size="10.00" fill="#000000">alignment_pbmm2_merge</text>
</g>
<!-- 3&#45;&gt;2 -->
<g id="edge14" class="edge">
<title>3&#45;&gt;2</title>
<path fill="none" stroke="#c0c0c0" stroke-width="2" d="M523.7667,-1373.0294C477.3228,-1363.8278 416.3433,-1349.9332 364,-1332 309.7922,-1313.428 250.3946,-1284.7204 211.5733,-1264.739"/>
<polygon fill="#c0c0c0" stroke="#c0c0c0" stroke-width="2" points="213.1354,-1261.6065 202.6466,-1260.1113 209.9137,-1267.821 213.1354,-1261.6065"/>
</g>
<!-- 7 -->
<g id="node8" class="node">
<title>7</title>
<path fill="none" stroke="#59d856" stroke-width="2" d="M618.5,-1332C618.5,-1332 451.5,-1332 451.5,-1332 445.5,-1332 439.5,-1326 439.5,-1320 439.5,-1320 439.5,-1308 439.5,-1308 439.5,-1302 445.5,-1296 451.5,-1296 451.5,-1296 618.5,-1296 618.5,-1296 624.5,-1296 630.5,-1302 630.5,-1308 630.5,-1308 630.5,-1320 630.5,-1320 630.5,-1326 624.5,-1332 618.5,-1332"/>
<text text-anchor="middle" x="535" y="-1311.5" font-family="sans" font-size="10.00" fill="#000000">alignment_samtools_index_pbmm2</text>
</g>
<!-- 3&#45;&gt;7 -->
<g id="edge19" class="edge">
<title>3&#45;&gt;7</title>
<path fill="none" stroke="#c0c0c0" stroke-width="2" d="M581.3548,-1367.8314C574.1409,-1359.454 565.443,-1349.3531 557.5395,-1340.1749"/>
<polygon fill="#c0c0c0" stroke="#c0c0c0" stroke-width="2" points="560.0333,-1337.7071 550.8559,-1332.4133 554.7289,-1342.2748 560.0333,-1337.7071"/>
</g>
<!-- 13 -->
<g id="node14" class="node">
<title>13</title>
<path fill="none" stroke="#78d856" stroke-width="2" d="M504.5,-1116C504.5,-1116 373.5,-1116 373.5,-1116 367.5,-1116 361.5,-1110 361.5,-1104 361.5,-1104 361.5,-1092 361.5,-1092 361.5,-1086 367.5,-1080 373.5,-1080 373.5,-1080 504.5,-1080 504.5,-1080 510.5,-1080 516.5,-1086 516.5,-1092 516.5,-1092 516.5,-1104 516.5,-1104 516.5,-1110 510.5,-1116 504.5,-1116"/>
<text text-anchor="middle" x="439" y="-1095.5" font-family="sans" font-size="10.00" fill="#000000">snv_indels_whatshap_phase</text>
</g>
<!-- 3&#45;&gt;13 -->
<g id="edge27" class="edge">
<title>3&#45;&gt;13</title>
<path fill="none" stroke="#c0c0c0" stroke-width="2" d="M523.9258,-1371.2718C484.536,-1361.6902 441.6532,-1348.0153 430,-1332 418.178,-1315.7526 429.9823,-1185.0496 435.9724,-1126.3564"/>
<polygon fill="#c0c0c0" stroke="#c0c0c0" stroke-width="2" points="439.4673,-1126.5864 437.0163,-1116.279 432.5045,-1125.8651 439.4673,-1126.5864"/>
</g>
<!-- 15 -->
<g id="node16" class="node">
<title>15</title>
<path fill="none" stroke="#56d86b" stroke-width="2" d="M398.5,-1260C398.5,-1260 285.5,-1260 285.5,-1260 279.5,-1260 273.5,-1254 273.5,-1248 273.5,-1248 273.5,-1236 273.5,-1236 273.5,-1230 279.5,-1224 285.5,-1224 285.5,-1224 398.5,-1224 398.5,-1224 404.5,-1224 410.5,-1230 410.5,-1236 410.5,-1236 410.5,-1248 410.5,-1248 410.5,-1254 404.5,-1260 398.5,-1260"/>
<text text-anchor="middle" x="342" y="-1239.5" font-family="sans" font-size="10.00" fill="#000000">snv_indels_clairs_to_call</text>
</g>
<!-- 3&#45;&gt;15 -->
<g id="edge31" class="edge">
<title>3&#45;&gt;15</title>
<path fill="none" stroke="#c0c0c0" stroke-width="2" d="M523.9499,-1372.1935C475.4884,-1361.935 417.2206,-1347.1489 397,-1332 375.8418,-1316.1486 361.0554,-1289.5514 352.1835,-1269.3705"/>
<polygon fill="#c0c0c0" stroke="#c0c0c0" stroke-width="2" points="355.3785,-1267.9385 348.3012,-1260.0542 348.9171,-1270.6311 355.3785,-1267.9385"/>
</g>
<!-- 20 -->
<g id="node21" class="node">
<title>20</title>
<path fill="none" stroke="#61d856" stroke-width="2" d="M747.5,-1260C747.5,-1260 646.5,-1260 646.5,-1260 640.5,-1260 634.5,-1254 634.5,-1248 634.5,-1248 634.5,-1236 634.5,-1236 634.5,-1230 640.5,-1224 646.5,-1224 646.5,-1224 747.5,-1224 747.5,-1224 753.5,-1224 759.5,-1230 759.5,-1236 759.5,-1236 759.5,-1248 759.5,-1248 759.5,-1254 753.5,-1260 747.5,-1260"/>
<text text-anchor="middle" x="697" y="-1239.5" font-family="sans" font-size="10.00" fill="#000000">cnv_sv_pbsv_discover</text>
</g>
<!-- 3&#45;&gt;20 -->
<g id="edge37" class="edge">
<title>3&#45;&gt;20</title>
<path fill="none" stroke="#c0c0c0" stroke-width="2" d="M632.665,-1367.8572C647.1055,-1358.8711 662.7545,-1346.7587 673,-1332 685.7014,-1313.7035 691.6828,-1289.0426 694.4985,-1270.1619"/>
<polygon fill="#c0c0c0" stroke="#c0c0c0" stroke-width="2" points="697.9915,-1270.4386 695.7887,-1260.0753 691.0481,-1269.5504 697.9915,-1270.4386"/>
</g>
<!-- 22 -->
<g id="node23" class="node">
<title>22</title>
<path fill="none" stroke="#567bd8" stroke-width="2" d="M928,-1332C928,-1332 864,-1332 864,-1332 858,-1332 852,-1326 852,-1320 852,-1320 852,-1308 852,-1308 852,-1302 858,-1296 864,-1296 864,-1296 928,-1296 928,-1296 934,-1296 940,-1302 940,-1308 940,-1308 940,-1320 940,-1320 940,-1326 934,-1332 928,-1332"/>
<text text-anchor="middle" x="896" y="-1311.5" font-family="sans" font-size="10.00" fill="#000000">cnv_sv_hificnv</text>
</g>
<!-- 3&#45;&gt;22 -->
<g id="edge40" class="edge">
<title>3&#45;&gt;22</title>
<path fill="none" stroke="#c0c0c0" stroke-width="2" d="M670.1436,-1368.3868C723.2465,-1355.5995 793.9189,-1338.5814 841.9695,-1327.0107"/>
<polygon fill="#c0c0c0" stroke="#c0c0c0" stroke-width="2" points="842.9625,-1330.3717 851.8652,-1324.6278 841.3237,-1323.5662 842.9625,-1330.3717"/>
</g>
<!-- 24 -->
<g id="node25" class="node">
<title>24</title>
<path fill="none" stroke="#56d8d8" stroke-width="2" d="M862.5,-1260C862.5,-1260 789.5,-1260 789.5,-1260 783.5,-1260 777.5,-1254 777.5,-1248 777.5,-1248 777.5,-1236 777.5,-1236 777.5,-1230 783.5,-1224 789.5,-1224 789.5,-1224 862.5,-1224 862.5,-1224 868.5,-1224 874.5,-1230 874.5,-1236 874.5,-1236 874.5,-1248 874.5,-1248 874.5,-1254 868.5,-1260 862.5,-1260"/>
<text text-anchor="middle" x="826" y="-1239.5" font-family="sans" font-size="10.00" fill="#000000">cnv_sv_sniffles2</text>
</g>
<!-- 3&#45;&gt;24 -->
<g id="edge42" class="edge">
<title>3&#45;&gt;24</title>
<path fill="none" stroke="#c0c0c0" stroke-width="2" d="M631.9449,-1367.8228C650.8663,-1357.7125 674.4996,-1344.6479 695,-1332 728.9685,-1311.0429 766.3737,-1285.0351 792.4871,-1266.375"/>
<polygon fill="#c0c0c0" stroke="#c0c0c0" stroke-width="2" points="794.8044,-1269.0201 800.8887,-1260.3464 790.7235,-1263.3327 794.8044,-1269.0201"/>
</g>
<!-- 31 -->
<g id="node32" class="node">
<title>31</title>
<path fill="none" stroke="#afd856" stroke-width="2" d="M639.5,-972C639.5,-972 494.5,-972 494.5,-972 488.5,-972 482.5,-966 482.5,-960 482.5,-960 482.5,-948 482.5,-948 482.5,-942 488.5,-936 494.5,-936 494.5,-936 639.5,-936 639.5,-936 645.5,-936 651.5,-942 651.5,-948 651.5,-948 651.5,-960 651.5,-960 651.5,-966 645.5,-972 639.5,-972"/>
<text text-anchor="middle" x="567" y="-951.5" font-family="sans" font-size="10.00" fill="#000000">snv_indels_whatshap_haplotag</text>
</g>
<!-- 3&#45;&gt;31 -->
<g id="edge53" class="edge">
<title>3&#45;&gt;31</title>
<path fill="none" stroke="#c0c0c0" stroke-width="2" d="M616.05,-1367.8859C624.857,-1358.1885 634.3746,-1345.4808 639,-1332 644.1926,-1316.866 641.9502,-1311.7257 639,-1296 635.8346,-1279.1271 629.9004,-1276.453 625,-1260 613.3304,-1220.8193 606,-1210.8816 606,-1170 606,-1170 606,-1170 606,-1098 606,-1056.2959 590.5716,-1010.0864 579.1227,-981.5372"/>
<polygon fill="#c0c0c0" stroke="#c0c0c0" stroke-width="2" points="582.3235,-980.1183 575.2709,-972.2119 575.8537,-982.7907 582.3235,-980.1183"/>
</g>
<!-- 4 -->
<g id="node5" class="node">
<title>4</title>
<path fill="none" stroke="#56d8d0" stroke-width="2" d="M654,-1476C654,-1476 540,-1476 540,-1476 534,-1476 528,-1470 528,-1464 528,-1464 528,-1452 528,-1452 528,-1446 534,-1440 540,-1440 540,-1440 654,-1440 654,-1440 660,-1440 666,-1446 666,-1452 666,-1452 666,-1464 666,-1464 666,-1470 660,-1476 654,-1476"/>
<text text-anchor="middle" x="597" y="-1455.5" font-family="sans" font-size="10.00" fill="#000000">alignment_pbmm2_align</text>
</g>
<!-- 4&#45;&gt;3 -->
<g id="edge16" class="edge">
<title>4&#45;&gt;3</title>
<path fill="none" stroke="#c0c0c0" stroke-width="2" d="M597,-1439.8314C597,-1432.131 597,-1422.9743 597,-1414.4166"/>
<polygon fill="#c0c0c0" stroke="#c0c0c0" stroke-width="2" points="600.5001,-1414.4132 597,-1404.4133 593.5001,-1414.4133 600.5001,-1414.4132"/>
</g>
<!-- 5 -->
<g id="node6" class="node">
<title>5</title>
<path fill="none" stroke="#56d863" stroke-width="2" d="M576.5,-1548C576.5,-1548 457.5,-1548 457.5,-1548 451.5,-1548 445.5,-1542 445.5,-1536 445.5,-1536 445.5,-1524 445.5,-1524 445.5,-1518 451.5,-1512 457.5,-1512 457.5,-1512 576.5,-1512 576.5,-1512 582.5,-1512 588.5,-1518 588.5,-1524 588.5,-1524 588.5,-1536 588.5,-1536 588.5,-1542 582.5,-1548 576.5,-1548"/>
<text text-anchor="middle" x="517" y="-1527.5" font-family="sans" font-size="10.00" fill="#000000">prealignment_pbmarkdup</text>
</g>
<!-- 5&#45;&gt;4 -->
<g id="edge18" class="edge">
<title>5&#45;&gt;4</title>
<path fill="none" stroke="#c0c0c0" stroke-width="2" d="M537.1874,-1511.8314C546.8514,-1503.1337 558.5796,-1492.5783 569.0816,-1483.1265"/>
<polygon fill="#c0c0c0" stroke="#c0c0c0" stroke-width="2" points="571.7275,-1485.454 576.8191,-1476.1628 567.0447,-1480.251 571.7275,-1485.454"/>
</g>
<!-- 6 -->
<g id="node7" class="node">
<title>6</title>
<path fill="none" stroke="#d87556" stroke-width="2" d="M735.5,-1548C735.5,-1548 618.5,-1548 618.5,-1548 612.5,-1548 606.5,-1542 606.5,-1536 606.5,-1536 606.5,-1524 606.5,-1524 606.5,-1518 612.5,-1512 618.5,-1512 618.5,-1512 735.5,-1512 735.5,-1512 741.5,-1512 747.5,-1518 747.5,-1524 747.5,-1524 747.5,-1536 747.5,-1536 747.5,-1542 741.5,-1548 735.5,-1548"/>
<text text-anchor="middle" x="677" y="-1527.5" font-family="sans" font-size="10.00" fill="#000000">alignment_pbmm2_index</text>
</g>
<!-- 6&#45;&gt;4 -->
<g id="edge17" class="edge">
<title>6&#45;&gt;4</title>
<path fill="none" stroke="#c0c0c0" stroke-width="2" d="M656.8126,-1511.8314C647.1486,-1503.1337 635.4204,-1492.5783 624.9184,-1483.1265"/>
<polygon fill="#c0c0c0" stroke="#c0c0c0" stroke-width="2" points="626.9553,-1480.251 617.1809,-1476.1628 622.2725,-1485.454 626.9553,-1480.251"/>
</g>
<!-- 7&#45;&gt;2 -->
<g id="edge15" class="edge">
<title>7&#45;&gt;2</title>
<path fill="none" stroke="#c0c0c0" stroke-width="2" d="M443.1152,-1295.9243C388.8938,-1285.2578 320.3448,-1271.7727 265.3612,-1260.9563"/>
<polygon fill="#c0c0c0" stroke="#c0c0c0" stroke-width="2" points="265.7465,-1257.4651 255.259,-1258.969 264.3953,-1264.3335 265.7465,-1257.4651"/>
</g>
<!-- 7&#45;&gt;13 -->
<g id="edge28" class="edge">
<title>7&#45;&gt;13</title>
<path fill="none" stroke="#c0c0c0" stroke-width="2" d="M526.9802,-1295.9555C510.1803,-1258.1556 471.2002,-1170.4506 451.2473,-1125.5564"/>
<polygon fill="#c0c0c0" stroke="#c0c0c0" stroke-width="2" points="454.3243,-1123.8617 447.0645,-1116.1451 447.9276,-1126.7047 454.3243,-1123.8617"/>
</g>
<!-- 7&#45;&gt;15 -->
<g id="edge32" class="edge">
<title>7&#45;&gt;15</title>
<path fill="none" stroke="#c0c0c0" stroke-width="2" d="M486.298,-1295.8314C460.0264,-1286.0306 427.4317,-1273.8709 399.8716,-1263.5894"/>
<polygon fill="#c0c0c0" stroke="#c0c0c0" stroke-width="2" points="400.9445,-1260.2541 390.3518,-1260.038 398.4977,-1266.8126 400.9445,-1260.2541"/>
</g>
<!-- 7&#45;&gt;20 -->
<g id="edge38" class="edge">
<title>7&#45;&gt;20</title>
<path fill="none" stroke="#c0c0c0" stroke-width="2" d="M575.8794,-1295.8314C597.546,-1286.2018 624.3363,-1274.295 647.2078,-1264.1299"/>
<polygon fill="#c0c0c0" stroke="#c0c0c0" stroke-width="2" points="648.6979,-1267.2978 656.4145,-1260.038 645.8549,-1260.9011 648.6979,-1267.2978"/>
</g>
<!-- 7&#45;&gt;24 -->
<g id="edge43" class="edge">
<title>7&#45;&gt;24</title>
<path fill="none" stroke="#c0c0c0" stroke-width="2" d="M619.4922,-1295.9818C661.3767,-1286.6782 712.8813,-1274.6851 767.4755,-1260.0491"/>
<polygon fill="#c0c0c0" stroke="#c0c0c0" stroke-width="2" points="768.5999,-1263.3709 777.3412,-1257.3843 766.7745,-1256.6131 768.5999,-1263.3709"/>
</g>
<!-- 7&#45;&gt;31 -->
<g id="edge54" class="edge">
<title>7&#45;&gt;31</title>
<path fill="none" stroke="#c0c0c0" stroke-width="2" d="M539.9728,-1295.9753C547.0026,-1268.864 559,-1215.8742 559,-1170 559,-1170 559,-1170 559,-1098 559,-1057.8141 562.1444,-1011.417 564.4905,-982.3918"/>
<polygon fill="#c0c0c0" stroke="#c0c0c0" stroke-width="2" points="567.9999,-982.4235 565.3424,-972.1674 561.0241,-981.8422 567.9999,-982.4235"/>
</g>
<!-- 8 -->
<g id="node9" class="node">
<title>8</title>
<path fill="none" stroke="#b6d856" stroke-width="2" d="M238,-468C238,-468 78,-468 78,-468 72,-468 66,-462 66,-456 66,-456 66,-444 66,-444 66,-438 72,-432 78,-432 78,-432 238,-432 238,-432 244,-432 250,-438 250,-444 250,-444 250,-456 250,-456 250,-462 244,-468 238,-468"/>
<text text-anchor="middle" x="158" y="-447.5" font-family="sans" font-size="10.00" fill="#000000">_copy_clairs_panel_annotated_vcf</text>
</g>
<!-- 8&#45;&gt;0 -->
<g id="edge2" class="edge">
<title>8&#45;&gt;0</title>
<path fill="none" stroke="#c0c0c0" stroke-width="2" d="M139.3929,-431.8719C115.1995,-406.2662 76,-356.9215 76,-306 76,-306 76,-306 76,-162 76,-50.9511 485.293,-24.7674 612.6443,-19.3081"/>
<polygon fill="#c0c0c0" stroke="#c0c0c0" stroke-width="2" points="612.8529,-22.8026 622.7009,-18.8954 612.5658,-15.8085 612.8529,-22.8026"/>
</g>
<!-- 9 -->
<g id="node10" class="node">
<title>9</title>
<path fill="none" stroke="#d85e56" stroke-width="2" d="M286,-756C286,-756 224,-756 224,-756 218,-756 212,-750 212,-744 212,-744 212,-732 212,-732 212,-726 218,-720 224,-720 224,-720 286,-720 286,-720 292,-720 298,-726 298,-732 298,-732 298,-744 298,-744 298,-750 292,-756 286,-756"/>
<text text-anchor="middle" x="255" y="-735.5" font-family="sans" font-size="10.00" fill="#000000">bgzip_vep_vcf</text>
</g>
<!-- 9&#45;&gt;8 -->
<g id="edge20" class="edge">
<title>9&#45;&gt;8</title>
<path fill="none" stroke="#c0c0c0" stroke-width="2" d="M221.642,-719.8122C208.3585,-710.8181 194.2858,-698.712 186,-684 148.7316,-617.8274 150.7874,-524.5933 154.7347,-478.3301"/>
<polygon fill="#c0c0c0" stroke="#c0c0c0" stroke-width="2" points="158.2405,-478.4333 155.7012,-468.1473 151.2719,-477.7718 158.2405,-478.4333"/>
</g>
<!-- 34 -->
<g id="node35" class="node">
<title>34</title>
<path fill="none" stroke="#566bd8" stroke-width="2" d="M382,-612C382,-612 226,-612 226,-612 220,-612 214,-606 214,-600 214,-600 214,-588 214,-588 214,-582 220,-576 226,-576 226,-576 382,-576 382,-576 388,-576 394,-582 394,-588 394,-588 394,-600 394,-600 394,-606 388,-612 382,-612"/>
<text text-anchor="middle" x="304" y="-591.5" font-family="sans" font-size="10.00" fill="#000000">filtering_filter_vep_annotated_vcf</text>
</g>
<!-- 9&#45;&gt;34 -->
<g id="edge59" class="edge">
<title>9&#45;&gt;34</title>
<path fill="none" stroke="#c0c0c0" stroke-width="2" d="M268.9005,-719.9757C275.9856,-709.9102 284.1153,-696.8396 289,-684 296.5452,-664.1673 300.3013,-640.4473 302.1677,-622.3386"/>
<polygon fill="#c0c0c0" stroke="#c0c0c0" stroke-width="2" points="305.6754,-622.4083 303.0826,-612.1356 298.7033,-621.783 305.6754,-622.4083"/>
</g>
<!-- 35 -->
<g id="node36" class="node">
<title>35</title>
<path fill="none" stroke="#d8a456" stroke-width="2" d="M268.5,-684C268.5,-684 207.5,-684 207.5,-684 201.5,-684 195.5,-678 195.5,-672 195.5,-672 195.5,-660 195.5,-660 195.5,-654 201.5,-648 207.5,-648 207.5,-648 268.5,-648 268.5,-648 274.5,-648 280.5,-654 280.5,-660 280.5,-660 280.5,-672 280.5,-672 280.5,-678 274.5,-684 268.5,-684"/>
<text text-anchor="middle" x="238" y="-663.5" font-family="sans" font-size="10.00" fill="#000000">tabix_vep_vcf</text>
</g>
<!-- 9&#45;&gt;35 -->
<g id="edge61" class="edge">
<title>9&#45;&gt;35</title>
<path fill="none" stroke="#c0c0c0" stroke-width="2" d="M250.7102,-719.8314C248.892,-712.131 246.7301,-702.9743 244.7095,-694.4166"/>
<polygon fill="#c0c0c0" stroke="#c0c0c0" stroke-width="2" points="248.0519,-693.3414 242.3476,-684.4133 241.2392,-694.95 248.0519,-693.3414"/>
</g>
<!-- 10 -->
<g id="node11" class="node">
<title>10</title>
<path fill="none" stroke="#d8ac56" stroke-width="2" d="M308,-828C308,-828 208,-828 208,-828 202,-828 196,-822 196,-816 196,-816 196,-804 196,-804 196,-798 202,-792 208,-792 208,-792 308,-792 308,-792 314,-792 320,-798 320,-804 320,-804 320,-816 320,-816 320,-822 314,-828 308,-828"/>
<text text-anchor="middle" x="258" y="-807.5" font-family="sans" font-size="10.00" fill="#000000">annotation_vep_clairs</text>
</g>
<!-- 10&#45;&gt;9 -->
<g id="edge21" class="edge">
<title>10&#45;&gt;9</title>
<path fill="none" stroke="#c0c0c0" stroke-width="2" d="M257.243,-791.8314C256.9221,-784.131 256.5406,-774.9743 256.184,-766.4166"/>
<polygon fill="#c0c0c0" stroke="#c0c0c0" stroke-width="2" points="259.6806,-766.2589 255.7672,-756.4133 252.6867,-766.5503 259.6806,-766.2589"/>
</g>
<!-- 11 -->
<g id="node12" class="node">
<title>11</title>
<path fill="none" stroke="#d88556" stroke-width="2" d="M322.5,-900C322.5,-900 193.5,-900 193.5,-900 187.5,-900 181.5,-894 181.5,-888 181.5,-888 181.5,-876 181.5,-876 181.5,-870 187.5,-864 193.5,-864 193.5,-864 322.5,-864 322.5,-864 328.5,-864 334.5,-870 334.5,-876 334.5,-876 334.5,-888 334.5,-888 334.5,-894 328.5,-900 322.5,-900"/>
<text text-anchor="middle" x="258" y="-879.5" font-family="sans" font-size="10.00" fill="#000000">cnv_sv_tabix_include_panel</text>
</g>
<!-- 11&#45;&gt;10 -->
<g id="edge22" class="edge">
<title>11&#45;&gt;10</title>
<path fill="none" stroke="#c0c0c0" stroke-width="2" d="M258,-863.8314C258,-856.131 258,-846.9743 258,-838.4166"/>
<polygon fill="#c0c0c0" stroke="#c0c0c0" stroke-width="2" points="261.5001,-838.4132 258,-828.4133 254.5001,-838.4133 261.5001,-838.4132"/>
</g>
<!-- 12 -->
<g id="node13" class="node">
<title>12</title>
<path fill="none" stroke="#56d8a2" stroke-width="2" d="M452.5,-972C452.5,-972 273.5,-972 273.5,-972 267.5,-972 261.5,-966 261.5,-960 261.5,-960 261.5,-948 261.5,-948 261.5,-942 267.5,-936 273.5,-936 273.5,-936 452.5,-936 452.5,-936 458.5,-936 464.5,-942 464.5,-948 464.5,-948 464.5,-960 464.5,-960 464.5,-966 458.5,-972 452.5,-972"/>
<text text-anchor="middle" x="363" y="-951.5" font-family="sans" font-size="10.00" fill="#000000">filtering_bcftools_filter_include_region</text>
</g>
<!-- 12&#45;&gt;10 -->
<g id="edge23" class="edge">
<title>12&#45;&gt;10</title>
<path fill="none" stroke="#c0c0c0" stroke-width="2" d="M362.9485,-935.8099C362.0435,-916.3816 358.0754,-885.4895 343,-864 334.271,-851.5571 321.6679,-841.3377 308.8286,-833.2667"/>
<polygon fill="#c0c0c0" stroke="#c0c0c0" stroke-width="2" points="310.3372,-830.0928 299.9469,-828.0213 306.7775,-836.1202 310.3372,-830.0928"/>
</g>
<!-- 12&#45;&gt;11 -->
<g id="edge24" class="edge">
<title>12&#45;&gt;11</title>
<path fill="none" stroke="#c0c0c0" stroke-width="2" d="M336.5041,-935.8314C323.3226,-926.7927 307.2153,-915.7476 293.0289,-906.0198"/>
<polygon fill="#c0c0c0" stroke="#c0c0c0" stroke-width="2" points="294.7141,-902.9316 284.4875,-900.1628 290.7554,-908.7047 294.7141,-902.9316"/>
</g>
<!-- 13&#45;&gt;12 -->
<g id="edge25" class="edge">
<title>13&#45;&gt;12</title>
<path fill="none" stroke="#c0c0c0" stroke-width="2" d="M418.5319,-1079.671C408.7048,-1069.9189 397.4713,-1057.227 390,-1044 379.0843,-1024.6752 372.145,-1000.4704 368.0386,-982.0311"/>
<polygon fill="#c0c0c0" stroke="#c0c0c0" stroke-width="2" points="371.4537,-981.2626 365.9905,-972.1849 364.6004,-982.6882 371.4537,-981.2626"/>
</g>
<!-- 16 -->
<g id="node17" class="node">
<title>16</title>
<path fill="none" stroke="#97d856" stroke-width="2" d="M467,-1044C467,-1044 411,-1044 411,-1044 405,-1044 399,-1038 399,-1032 399,-1032 399,-1020 399,-1020 399,-1014 405,-1008 411,-1008 411,-1008 467,-1008 467,-1008 473,-1008 479,-1014 479,-1020 479,-1020 479,-1032 479,-1032 479,-1038 473,-1044 467,-1044"/>
<text text-anchor="middle" x="439" y="-1023.5" font-family="sans" font-size="10.00" fill="#000000">cnv_sv_tabix</text>
</g>
<!-- 13&#45;&gt;16 -->
<g id="edge33" class="edge">
<title>13&#45;&gt;16</title>
<path fill="none" stroke="#c0c0c0" stroke-width="2" d="M439,-1079.8314C439,-1072.131 439,-1062.9743 439,-1054.4166"/>
<polygon fill="#c0c0c0" stroke="#c0c0c0" stroke-width="2" points="442.5001,-1054.4132 439,-1044.4133 435.5001,-1054.4133 442.5001,-1054.4132"/>
</g>
<!-- 13&#45;&gt;31 -->
<g id="edge55" class="edge">
<title>13&#45;&gt;31</title>
<path fill="none" stroke="#c0c0c0" stroke-width="2" d="M455.8576,-1079.5737C465.3429,-1069.1678 477.379,-1055.9005 488,-1044 507.2081,-1022.478 528.8016,-997.8475 544.5523,-979.8003"/>
<polygon fill="#c0c0c0" stroke="#c0c0c0" stroke-width="2" points="547.4142,-981.8437 551.3484,-972.0064 542.1382,-977.2432 547.4142,-981.8437"/>
</g>
<!-- 14 -->
<g id="node15" class="node">
<title>14</title>
<path fill="none" stroke="#d89556" stroke-width="2" d="M399,-1188C399,-1188 271,-1188 271,-1188 265,-1188 259,-1182 259,-1176 259,-1176 259,-1164 259,-1164 259,-1158 265,-1152 271,-1152 271,-1152 399,-1152 399,-1152 405,-1152 411,-1158 411,-1164 411,-1164 411,-1176 411,-1176 411,-1182 405,-1188 399,-1188"/>
<text text-anchor="middle" x="335" y="-1167.5" font-family="sans" font-size="10.00" fill="#000000">snv_indels_clairs_to_concat</text>
</g>
<!-- 14&#45;&gt;13 -->
<g id="edge29" class="edge">
<title>14&#45;&gt;13</title>
<path fill="none" stroke="#c0c0c0" stroke-width="2" d="M361.2436,-1151.8314C374.2995,-1142.7927 390.2535,-1131.7476 404.3047,-1122.0198"/>
<polygon fill="#c0c0c0" stroke="#c0c0c0" stroke-width="2" points="406.5351,-1124.7326 412.7648,-1116.1628 402.5506,-1118.9773 406.5351,-1124.7326"/>
</g>
<!-- 15&#45;&gt;14 -->
<g id="edge30" class="edge">
<title>15&#45;&gt;14</title>
<path fill="none" stroke="#c0c0c0" stroke-width="2" d="M340.2336,-1223.8314C339.485,-1216.131 338.5947,-1206.9743 337.7627,-1198.4166"/>
<polygon fill="#c0c0c0" stroke="#c0c0c0" stroke-width="2" points="341.2415,-1198.0276 336.7902,-1188.4133 334.2744,-1198.7051 341.2415,-1198.0276"/>
</g>
<!-- 16&#45;&gt;12 -->
<g id="edge26" class="edge">
<title>16&#45;&gt;12</title>
<path fill="none" stroke="#c0c0c0" stroke-width="2" d="M419.822,-1007.8314C410.6412,-999.1337 399.4994,-988.5783 389.5224,-979.1265"/>
<polygon fill="#c0c0c0" stroke="#c0c0c0" stroke-width="2" points="391.8385,-976.4995 382.1719,-972.1628 387.0243,-981.5811 391.8385,-976.4995"/>
</g>
<!-- 16&#45;&gt;31 -->
<g id="edge56" class="edge">
<title>16&#45;&gt;31</title>
<path fill="none" stroke="#c0c0c0" stroke-width="2" d="M471.2998,-1007.8314C487.8234,-998.5368 508.1186,-987.1208 525.7607,-977.1971"/>
<polygon fill="#c0c0c0" stroke="#c0c0c0" stroke-width="2" points="527.7107,-980.116 534.7105,-972.1628 524.2788,-974.015 527.7107,-980.116"/>
</g>
<!-- 17 -->
<g id="node18" class="node">
<title>17</title>
<path fill="none" stroke="#56d8c1" stroke-width="2" d="M768,-900C768,-900 698,-900 698,-900 692,-900 686,-894 686,-888 686,-888 686,-876 686,-876 686,-870 692,-864 698,-864 698,-864 768,-864 768,-864 774,-864 780,-870 780,-876 780,-876 780,-888 780,-888 780,-894 774,-900 768,-900"/>
<text text-anchor="middle" x="733" y="-879.5" font-family="sans" font-size="10.00" fill="#000000">_copy_pbsv_vcf</text>
</g>
<!-- 17&#45;&gt;0 -->
<g id="edge7" class="edge">
<title>17&#45;&gt;0</title>
<path fill="none" stroke="#c0c0c0" stroke-width="2" d="M741.695,-863.8324C753.7302,-836.9721 774,-784.7885 774,-738 774,-738 774,-738 774,-162 774,-107.4807 722.3304,-63.3441 685.6983,-38.9035"/>
<polygon fill="#c0c0c0" stroke="#c0c0c0" stroke-width="2" points="687.5089,-35.9063 677.2123,-33.4099 683.7048,-41.7824 687.5089,-35.9063"/>
</g>
<!-- 18 -->
<g id="node19" class="node">
<title>18</title>
<path fill="none" stroke="#568ad8" stroke-width="2" d="M726,-1116C726,-1116 668,-1116 668,-1116 662,-1116 656,-1110 656,-1104 656,-1104 656,-1092 656,-1092 656,-1086 662,-1080 668,-1080 668,-1080 726,-1080 726,-1080 732,-1080 738,-1086 738,-1092 738,-1092 738,-1104 738,-1104 738,-1110 732,-1116 726,-1116"/>
<text text-anchor="middle" x="697" y="-1095.5" font-family="sans" font-size="10.00" fill="#000000">cnv_sv_bgzip</text>
</g>
<!-- 18&#45;&gt;17 -->
<g id="edge34" class="edge">
<title>18&#45;&gt;17</title>
<path fill="none" stroke="#c0c0c0" stroke-width="2" d="M700.0074,-1079.9555C706.2809,-1042.3144 720.8022,-955.1867 728.3126,-910.1246"/>
<polygon fill="#c0c0c0" stroke="#c0c0c0" stroke-width="2" points="731.7841,-910.5844 729.9758,-900.1451 724.8794,-909.4336 731.7841,-910.5844"/>
</g>
<!-- 19 -->
<g id="node20" class="node">
<title>19</title>
<path fill="none" stroke="#56b9d8" stroke-width="2" d="M735.5,-1188C735.5,-1188 658.5,-1188 658.5,-1188 652.5,-1188 646.5,-1182 646.5,-1176 646.5,-1176 646.5,-1164 646.5,-1164 646.5,-1158 652.5,-1152 658.5,-1152 658.5,-1152 735.5,-1152 735.5,-1152 741.5,-1152 747.5,-1158 747.5,-1164 747.5,-1164 747.5,-1176 747.5,-1176 747.5,-1182 741.5,-1188 735.5,-1188"/>
<text text-anchor="middle" x="697" y="-1167.5" font-family="sans" font-size="10.00" fill="#000000">cnv_sv_pbsv_call</text>
</g>
<!-- 19&#45;&gt;18 -->
<g id="edge35" class="edge">
<title>19&#45;&gt;18</title>
<path fill="none" stroke="#c0c0c0" stroke-width="2" d="M697,-1151.8314C697,-1144.131 697,-1134.9743 697,-1126.4166"/>
<polygon fill="#c0c0c0" stroke="#c0c0c0" stroke-width="2" points="700.5001,-1126.4132 697,-1116.4133 693.5001,-1126.4133 700.5001,-1126.4132"/>
</g>
<!-- 20&#45;&gt;19 -->
<g id="edge36" class="edge">
<title>20&#45;&gt;19</title>
<path fill="none" stroke="#c0c0c0" stroke-width="2" d="M697,-1223.8314C697,-1216.131 697,-1206.9743 697,-1198.4166"/>
<polygon fill="#c0c0c0" stroke="#c0c0c0" stroke-width="2" points="700.5001,-1198.4132 697,-1188.4133 693.5001,-1198.4133 700.5001,-1198.4132"/>
</g>
<!-- 21 -->
<g id="node22" class="node">
<title>21</title>
<path fill="none" stroke="#569ad8" stroke-width="2" d="M1017.5,-1188C1017.5,-1188 938.5,-1188 938.5,-1188 932.5,-1188 926.5,-1182 926.5,-1176 926.5,-1176 926.5,-1164 926.5,-1164 926.5,-1158 932.5,-1152 938.5,-1152 938.5,-1152 1017.5,-1152 1017.5,-1152 1023.5,-1152 1029.5,-1158 1029.5,-1164 1029.5,-1164 1029.5,-1176 1029.5,-1176 1029.5,-1182 1023.5,-1188 1017.5,-1188"/>
<text text-anchor="middle" x="978" y="-1167.5" font-family="sans" font-size="10.00" fill="#000000">_copy_hificnv_vcf</text>
</g>
<!-- 21&#45;&gt;0 -->
<g id="edge5" class="edge">
<title>21&#45;&gt;0</title>
<path fill="none" stroke="#c0c0c0" stroke-width="2" d="M978.4144,-1151.8157C979.0002,-1124.5008 980,-1071.2544 980,-1026 980,-1026 980,-1026 980,-162 980,-94.6201 918.8237,-100.9918 858,-72 801.5304,-45.0835 729.802,-30.2606 687.0286,-23.2363"/>
<polygon fill="#c0c0c0" stroke="#c0c0c0" stroke-width="2" points="687.4885,-19.7656 677.0636,-21.6555 686.3917,-26.6792 687.4885,-19.7656"/>
</g>
<!-- 22&#45;&gt;21 -->
<g id="edge39" class="edge">
<title>22&#45;&gt;21</title>
<path fill="none" stroke="#c0c0c0" stroke-width="2" d="M906.3854,-1295.7623C920.6181,-1270.7682 946.2863,-1225.6924 962.7156,-1196.8409"/>
<polygon fill="#c0c0c0" stroke="#c0c0c0" stroke-width="2" points="965.792,-1198.5114 967.699,-1188.0896 959.7091,-1195.0475 965.792,-1198.5114"/>
</g>
<!-- 23 -->
<g id="node24" class="node">
<title>23</title>
<path fill="none" stroke="#56d8a9" stroke-width="2" d="M940,-1044C940,-1044 852,-1044 852,-1044 846,-1044 840,-1038 840,-1032 840,-1032 840,-1020 840,-1020 840,-1014 846,-1008 852,-1008 852,-1008 940,-1008 940,-1008 946,-1008 952,-1014 952,-1020 952,-1020 952,-1032 952,-1032 952,-1038 946,-1044 940,-1044"/>
<text text-anchor="middle" x="896" y="-1023.5" font-family="sans" font-size="10.00" fill="#000000">_copy_sniffles2_vcf</text>
</g>
<!-- 23&#45;&gt;0 -->
<g id="edge6" class="edge">
<title>23&#45;&gt;0</title>
<path fill="none" stroke="#c0c0c0" stroke-width="2" d="M891.2344,-1007.9623C884.4975,-980.8344 873,-927.8236 873,-882 873,-882 873,-882 873,-162 873,-116.8741 860.6991,-100.8499 826,-72 786.1257,-38.8473 726.1002,-26.0271 687.4824,-21.0834"/>
<polygon fill="#c0c0c0" stroke="#c0c0c0" stroke-width="2" points="687.5296,-17.5654 677.1924,-19.8875 686.7215,-24.5186 687.5296,-17.5654"/>
</g>
<!-- 24&#45;&gt;23 -->
<g id="edge41" class="edge">
<title>24&#45;&gt;23</title>
<path fill="none" stroke="#c0c0c0" stroke-width="2" d="M834.6549,-1223.587C845.7577,-1199.3678 865.0093,-1155.2725 877,-1116 883.208,-1095.6673 888.0974,-1072.1436 891.3609,-1054.246"/>
<polygon fill="#c0c0c0" stroke="#c0c0c0" stroke-width="2" points="894.8483,-1054.6226 893.136,-1044.167 887.9544,-1053.4084 894.8483,-1054.6226"/>
</g>
<!-- 25 -->
<g id="node26" class="node">
<title>25</title>
<path fill="none" stroke="#80d856" stroke-width="2" d="M856,-1116C856,-1116 768,-1116 768,-1116 762,-1116 756,-1110 756,-1104 756,-1104 756,-1092 756,-1092 756,-1086 762,-1080 768,-1080 768,-1080 856,-1080 856,-1080 862,-1080 868,-1086 868,-1092 868,-1092 868,-1104 868,-1104 868,-1110 862,-1116 856,-1116"/>
<text text-anchor="middle" x="812" y="-1095.5" font-family="sans" font-size="10.00" fill="#000000">_copy_sniffles2_snf</text>
</g>
<!-- 24&#45;&gt;25 -->
<g id="edge44" class="edge">
<title>24&#45;&gt;25</title>
<path fill="none" stroke="#c0c0c0" stroke-width="2" d="M824.2269,-1223.7623C821.839,-1199.201 817.5657,-1155.2474 814.7566,-1126.3541"/>
<polygon fill="#c0c0c0" stroke="#c0c0c0" stroke-width="2" points="818.21,-1125.704 813.7587,-1116.0896 811.2429,-1126.3814 818.21,-1125.704"/>
</g>
<!-- 25&#45;&gt;0 -->
<g id="edge8" class="edge">
<title>25&#45;&gt;0</title>
<path fill="none" stroke="#c0c0c0" stroke-width="2" d="M812,-1079.8146C812,-1052.4983 812,-999.25 812,-954 812,-954 812,-954 812,-162 812,-95.2873 734.3065,-51.914 686.5287,-31.5486"/>
<polygon fill="#c0c0c0" stroke="#c0c0c0" stroke-width="2" points="687.6943,-28.2434 677.1152,-27.667 685.0258,-34.7148 687.6943,-28.2434"/>
</g>
<!-- 26 -->
<g id="node27" class="node">
<title>26</title>
<path fill="none" stroke="#68d856" stroke-width="2" d="M506.5,-108C506.5,-108 387.5,-108 387.5,-108 381.5,-108 375.5,-102 375.5,-96 375.5,-96 375.5,-84 375.5,-84 375.5,-78 381.5,-72 387.5,-72 387.5,-72 506.5,-72 506.5,-72 512.5,-72 518.5,-78 518.5,-84 518.5,-84 518.5,-96 518.5,-96 518.5,-102 512.5,-108 506.5,-108"/>
<text text-anchor="middle" x="447" y="-87.5" font-family="sans" font-size="10.00" fill="#000000">_copy_cnvkit_html_report</text>
</g>
<!-- 26&#45;&gt;0 -->
<g id="edge10" class="edge">
<title>26&#45;&gt;0</title>
<path fill="none" stroke="#c0c0c0" stroke-width="2" d="M497.9634,-71.9243C533.8323,-59.2023 581.0057,-42.4709 613.235,-31.0398"/>
<polygon fill="#c0c0c0" stroke="#c0c0c0" stroke-width="2" points="614.4736,-34.3142 622.7283,-27.6727 612.1336,-27.7169 614.4736,-34.3142"/>
</g>
<!-- 27 -->
<g id="node28" class="node">
<title>27</title>
<path fill="none" stroke="#ced856" stroke-width="2" d="M572,-180C572,-180 460,-180 460,-180 454,-180 448,-174 448,-168 448,-168 448,-156 448,-156 448,-150 454,-144 460,-144 460,-144 572,-144 572,-144 578,-144 584,-150 584,-156 584,-156 584,-168 584,-168 584,-174 578,-180 572,-180"/>
<text text-anchor="middle" x="516" y="-159.5" font-family="sans" font-size="10.00" fill="#000000">reports_cnv_html_report</text>
</g>
<!-- 27&#45;&gt;26 -->
<g id="edge45" class="edge">
<title>27&#45;&gt;26</title>
<path fill="none" stroke="#c0c0c0" stroke-width="2" d="M498.5884,-143.8314C490.479,-135.3694 480.6844,-125.1489 471.818,-115.8971"/>
<polygon fill="#c0c0c0" stroke="#c0c0c0" stroke-width="2" points="474.0921,-113.2115 464.646,-108.4133 469.0382,-118.0549 474.0921,-113.2115"/>
</g>
<!-- 28 -->
<g id="node29" class="node">
<title>28</title>
<path fill="none" stroke="#56d89a" stroke-width="2" d="M504,-252C504,-252 392,-252 392,-252 386,-252 380,-246 380,-240 380,-240 380,-228 380,-228 380,-222 386,-216 392,-216 392,-216 504,-216 504,-216 510,-216 516,-222 516,-228 516,-228 516,-240 516,-240 516,-246 510,-252 504,-252"/>
<text text-anchor="middle" x="448" y="-231.5" font-family="sans" font-size="10.00" fill="#000000">reports_merge_cnv_json</text>
</g>
<!-- 28&#45;&gt;27 -->
<g id="edge46" class="edge">
<title>28&#45;&gt;27</title>
<path fill="none" stroke="#c0c0c0" stroke-width="2" d="M465.1593,-215.8314C473.1511,-207.3694 482.8038,-197.1489 491.5416,-187.8971"/>
<polygon fill="#c0c0c0" stroke="#c0c0c0" stroke-width="2" points="494.288,-190.0866 498.6097,-180.4133 489.1989,-185.2802 494.288,-190.0866"/>
</g>
<!-- 29 -->
<g id="node30" class="node">
<title>29</title>
<path fill="none" stroke="#56d0d8" stroke-width="2" d="M584.5,-396C584.5,-396 509.5,-396 509.5,-396 503.5,-396 497.5,-390 497.5,-384 497.5,-384 497.5,-372 497.5,-372 497.5,-366 503.5,-360 509.5,-360 509.5,-360 584.5,-360 584.5,-360 590.5,-360 596.5,-366 596.5,-372 596.5,-372 596.5,-384 596.5,-384 596.5,-390 590.5,-396 584.5,-396"/>
<text text-anchor="middle" x="547" y="-375.5" font-family="sans" font-size="10.00" fill="#000000">reports_cnv_json</text>
</g>
<!-- 29&#45;&gt;28 -->
<g id="edge47" class="edge">
<title>29&#45;&gt;28</title>
<path fill="none" stroke="#c0c0c0" stroke-width="2" d="M546.5463,-359.9141C545.2542,-340.5748 540.7977,-309.7582 526,-288 517.8015,-275.945 505.9473,-265.7705 493.9457,-257.6174"/>
<polygon fill="#c0c0c0" stroke="#c0c0c0" stroke-width="2" points="495.5402,-254.4824 485.2307,-252.0398 491.7668,-260.3783 495.5402,-254.4824"/>
</g>
<!-- 30 -->
<g id="node31" class="node">
<title>30</title>
<path fill="none" stroke="#5682d8" stroke-width="2" d="M547,-612C547,-612 425,-612 425,-612 419,-612 413,-606 413,-600 413,-600 413,-588 413,-588 413,-582 419,-576 425,-576 425,-576 547,-576 547,-576 553,-576 559,-582 559,-588 559,-588 559,-600 559,-600 559,-606 553,-612 547,-612"/>
<text text-anchor="middle" x="486" y="-591.5" font-family="sans" font-size="10.00" fill="#000000">cnv_sv_cnvkit_batch_local</text>
</g>
<!-- 30&#45;&gt;29 -->
<g id="edge50" class="edge">
<title>30&#45;&gt;29</title>
<path fill="none" stroke="#c0c0c0" stroke-width="2" d="M491.0959,-575.9555C501.7485,-538.235 526.4354,-450.8188 539.1378,-405.8399"/>
<polygon fill="#c0c0c0" stroke="#c0c0c0" stroke-width="2" points="542.5261,-406.7199 541.8757,-396.1451 535.7896,-404.8174 542.5261,-406.7199"/>
</g>
<!-- 39 -->
<g id="node40" class="node">
<title>39</title>
<path fill="none" stroke="#56d88a" stroke-width="2" d="M451,-540C451,-540 335,-540 335,-540 329,-540 323,-534 323,-528 323,-528 323,-516 323,-516 323,-510 329,-504 335,-504 335,-504 451,-504 451,-504 457,-504 463,-510 463,-516 463,-516 463,-528 463,-528 463,-534 457,-540 451,-540"/>
<text text-anchor="middle" x="393" y="-519.5" font-family="sans" font-size="10.00" fill="#000000">cnvkit_call_new_wrapper</text>
</g>
<!-- 30&#45;&gt;39 -->
<g id="edge66" class="edge">
<title>30&#45;&gt;39</title>
<path fill="none" stroke="#c0c0c0" stroke-width="2" d="M462.5322,-575.8314C450.9673,-566.8779 436.8596,-555.9558 424.3817,-546.2955"/>
<polygon fill="#c0c0c0" stroke="#c0c0c0" stroke-width="2" points="426.5102,-543.5171 416.4603,-540.1628 422.225,-549.0521 426.5102,-543.5171"/>
</g>
<!-- 31&#45;&gt;30 -->
<g id="edge52" class="edge">
<title>31&#45;&gt;30</title>
<path fill="none" stroke="#c0c0c0" stroke-width="2" d="M533.7793,-935.899C495.5575,-912.3643 438,-867.3952 438,-810 438,-810 438,-810 438,-738 438,-697.1184 442.9646,-686.3968 457,-648 460.2915,-638.9955 464.858,-629.6408 469.3944,-621.2976"/>
<polygon fill="#c0c0c0" stroke="#c0c0c0" stroke-width="2" points="472.5609,-622.8082 474.4338,-612.3802 466.4667,-619.3642 472.5609,-622.8082"/>
</g>
<!-- 32 -->
<g id="node33" class="node">
<title>32</title>
<path fill="none" stroke="#c6d856" stroke-width="2" d="M696,-684C696,-684 478,-684 478,-684 472,-684 466,-678 466,-672 466,-672 466,-660 466,-660 466,-654 472,-648 478,-648 478,-648 696,-648 696,-648 702,-648 708,-654 708,-660 708,-660 708,-672 708,-672 708,-678 702,-684 696,-684"/>
<text text-anchor="middle" x="587" y="-663.5" font-family="sans" font-size="10.00" fill="#000000">alignment_samtools_index_haplotagged_bam</text>
</g>
<!-- 31&#45;&gt;32 -->
<g id="edge57" class="edge">
<title>31&#45;&gt;32</title>
<path fill="none" stroke="#c0c0c0" stroke-width="2" d="M568.2511,-935.9843C571.6324,-887.2939 580.9725,-752.7961 585.0516,-694.0573"/>
<polygon fill="#c0c0c0" stroke="#c0c0c0" stroke-width="2" points="588.5481,-694.2274 585.7494,-684.0089 581.5649,-693.7424 588.5481,-694.2274"/>
</g>
<!-- 40 -->
<g id="node41" class="node">
<title>40</title>
<path fill="none" stroke="#9fd856" stroke-width="2" d="M721.5,-756C721.5,-756 628.5,-756 628.5,-756 622.5,-756 616.5,-750 616.5,-744 616.5,-744 616.5,-732 616.5,-732 616.5,-726 622.5,-720 628.5,-720 628.5,-720 721.5,-720 721.5,-720 727.5,-720 733.5,-726 733.5,-732 733.5,-732 733.5,-744 733.5,-744 733.5,-750 727.5,-756 721.5,-756"/>
<text text-anchor="middle" x="675" y="-735.5" font-family="sans" font-size="10.00" fill="#000000">_copy_mapped_bam</text>
</g>
<!-- 31&#45;&gt;40 -->
<g id="edge67" class="edge">
<title>31&#45;&gt;40</title>
<path fill="none" stroke="#c0c0c0" stroke-width="2" d="M576.0223,-935.9555C594.9619,-898.0762 638.9591,-810.0818 661.363,-765.274"/>
<polygon fill="#c0c0c0" stroke="#c0c0c0" stroke-width="2" points="664.5858,-766.6546 665.9275,-756.1451 658.3248,-763.5241 664.5858,-766.6546"/>
</g>
<!-- 32&#45;&gt;30 -->
<g id="edge51" class="edge">
<title>32&#45;&gt;30</title>
<path fill="none" stroke="#c0c0c0" stroke-width="2" d="M561.5134,-647.8314C548.8341,-638.7927 533.3404,-627.7476 519.6945,-618.0198"/>
<polygon fill="#c0c0c0" stroke="#c0c0c0" stroke-width="2" points="521.6529,-615.1176 511.4784,-612.1628 517.5895,-620.8176 521.6529,-615.1176"/>
</g>
<!-- 41 -->
<g id="node42" class="node">
<title>41</title>
<path fill="none" stroke="#d88d56" stroke-width="2" d="M676.5,-540C676.5,-540 551.5,-540 551.5,-540 545.5,-540 539.5,-534 539.5,-528 539.5,-528 539.5,-516 539.5,-516 539.5,-510 545.5,-504 551.5,-504 551.5,-504 676.5,-504 676.5,-504 682.5,-504 688.5,-510 688.5,-516 688.5,-516 688.5,-528 688.5,-528 688.5,-534 682.5,-540 676.5,-540"/>
<text text-anchor="middle" x="614" y="-519.5" font-family="sans" font-size="10.00" fill="#000000">_copy_mapped_bam_index</text>
</g>
<!-- 32&#45;&gt;41 -->
<g id="edge68" class="edge">
<title>32&#45;&gt;41</title>
<path fill="none" stroke="#c0c0c0" stroke-width="2" d="M590.4196,-647.7623C595.0451,-623.0928 603.3388,-578.8598 608.755,-549.9731"/>
<polygon fill="#c0c0c0" stroke="#c0c0c0" stroke-width="2" points="612.2053,-550.5634 610.6082,-540.0896 605.3252,-549.2733 612.2053,-550.5634"/>
</g>
<!-- 33 -->
<g id="node34" class="node">
<title>33</title>
<path fill="none" stroke="#d8b456" stroke-width="2" d="M293,-324C293,-324 263,-324 263,-324 257,-324 251,-318 251,-312 251,-312 251,-300 251,-300 251,-294 257,-288 263,-288 263,-288 293,-288 293,-288 299,-288 305,-294 305,-300 305,-300 305,-312 305,-312 305,-318 299,-324 293,-324"/>
<text text-anchor="middle" x="278" y="-303.5" font-family="sans" font-size="10.00" fill="#000000">fix_af</text>
</g>
<!-- 33&#45;&gt;28 -->
<g id="edge49" class="edge">
<title>33&#45;&gt;28</title>
<path fill="none" stroke="#c0c0c0" stroke-width="2" d="M305.3134,-294.432C329.7047,-284.1016 366.0952,-268.6891 396.0203,-256.0149"/>
<polygon fill="#c0c0c0" stroke="#c0c0c0" stroke-width="2" points="397.6424,-259.129 405.4856,-252.0061 394.9124,-252.6832 397.6424,-259.129"/>
</g>
<!-- 42 -->
<g id="node43" class="node">
<title>42</title>
<path fill="none" stroke="#d6d856" stroke-width="2" d="M244,-180C244,-180 116,-180 116,-180 110,-180 104,-174 104,-168 104,-168 104,-156 104,-156 104,-150 110,-144 116,-144 116,-144 244,-144 244,-144 250,-144 256,-150 256,-156 256,-156 256,-168 256,-168 256,-174 250,-180 244,-180"/>
<text text-anchor="middle" x="180" y="-159.5" font-family="sans" font-size="10.00" fill="#000000">_copy_germline_claires_vcf</text>
</g>
<!-- 33&#45;&gt;42 -->
<g id="edge69" class="edge">
<title>33&#45;&gt;42</title>
<path fill="none" stroke="#c0c0c0" stroke-width="2" d="M265.5882,-287.7623C248.5048,-262.66 217.6359,-217.3017 198.0123,-188.4671"/>
<polygon fill="#c0c0c0" stroke="#c0c0c0" stroke-width="2" points="200.8308,-186.3876 192.311,-180.0896 195.0438,-190.326 200.8308,-186.3876"/>
</g>
<!-- 34&#45;&gt;33 -->
<g id="edge58" class="edge">
<title>34&#45;&gt;33</title>
<path fill="none" stroke="#c0c0c0" stroke-width="2" d="M302.3736,-575.9843C297.9779,-527.2939 285.8358,-392.7961 280.533,-334.0573"/>
<polygon fill="#c0c0c0" stroke="#c0c0c0" stroke-width="2" points="284.0108,-333.6537 279.6258,-324.0089 277.0392,-334.2831 284.0108,-333.6537"/>
</g>
<!-- 34&#45;&gt;39 -->
<g id="edge65" class="edge">
<title>34&#45;&gt;39</title>
<path fill="none" stroke="#c0c0c0" stroke-width="2" d="M326.4585,-575.8314C337.4205,-566.9632 350.7699,-556.1637 362.6265,-546.5718"/>
<polygon fill="#c0c0c0" stroke="#c0c0c0" stroke-width="2" points="364.9755,-549.1734 370.5487,-540.1628 360.5729,-543.7313 364.9755,-549.1734"/>
</g>
<!-- 35&#45;&gt;34 -->
<g id="edge60" class="edge">
<title>35&#45;&gt;34</title>
<path fill="none" stroke="#c0c0c0" stroke-width="2" d="M254.6546,-647.8314C262.4114,-639.3694 271.7802,-629.1489 280.261,-619.8971"/>
<polygon fill="#c0c0c0" stroke="#c0c0c0" stroke-width="2" points="282.9439,-622.1499 287.1212,-612.4133 277.7838,-617.4198 282.9439,-622.1499"/>
</g>
<!-- 36 -->
<g id="node37" class="node">
<title>36</title>
<path fill="none" stroke="#56d8b9" stroke-width="2" d="M505.5,-324C505.5,-324 392.5,-324 392.5,-324 386.5,-324 380.5,-318 380.5,-312 380.5,-312 380.5,-300 380.5,-300 380.5,-294 386.5,-288 392.5,-288 392.5,-288 505.5,-288 505.5,-288 511.5,-288 517.5,-294 517.5,-300 517.5,-300 517.5,-312 517.5,-312 517.5,-318 511.5,-324 505.5,-324"/>
<text text-anchor="middle" x="449" y="-303.5" font-family="sans" font-size="10.00" fill="#000000">cnv_sv_bgzip_cnvkit_vcf</text>
</g>
<!-- 36&#45;&gt;28 -->
<g id="edge48" class="edge">
<title>36&#45;&gt;28</title>
<path fill="none" stroke="#c0c0c0" stroke-width="2" d="M448.7477,-287.8314C448.6407,-280.131 448.5135,-270.9743 448.3947,-262.4166"/>
<polygon fill="#c0c0c0" stroke="#c0c0c0" stroke-width="2" points="451.8944,-262.3637 448.2557,-252.4133 444.8951,-262.4609 451.8944,-262.3637"/>
</g>
<!-- 45 -->
<g id="node46" class="node">
<title>45</title>
<path fill="none" stroke="#d85656" stroke-width="2" d="M658,-252C658,-252 546,-252 546,-252 540,-252 534,-246 534,-240 534,-240 534,-228 534,-228 534,-222 540,-216 546,-216 546,-216 658,-216 658,-216 664,-216 670,-222 670,-228 670,-228 670,-240 670,-240 670,-246 664,-252 658,-252"/>
<text text-anchor="middle" x="602" y="-231.5" font-family="sans" font-size="10.00" fill="#000000">cnv_sv_tabix_cnvkit_vcf</text>
</g>
<!-- 36&#45;&gt;45 -->
<g id="edge72" class="edge">
<title>36&#45;&gt;45</title>
<path fill="none" stroke="#c0c0c0" stroke-width="2" d="M487.6084,-287.8314C507.8893,-278.2874 532.9238,-266.5065 554.3971,-256.4013"/>
<polygon fill="#c0c0c0" stroke="#c0c0c0" stroke-width="2" points="556.1114,-259.4629 563.6693,-252.038 553.1308,-253.1291 556.1114,-259.4629"/>
</g>
<!-- 37 -->
<g id="node38" class="node">
<title>37</title>
<path fill="none" stroke="#d8c356" stroke-width="2" d="M467.5,-396C467.5,-396 318.5,-396 318.5,-396 312.5,-396 306.5,-390 306.5,-384 306.5,-384 306.5,-372 306.5,-372 306.5,-366 312.5,-360 318.5,-360 318.5,-360 467.5,-360 467.5,-360 473.5,-360 479.5,-366 479.5,-372 479.5,-372 479.5,-384 479.5,-384 479.5,-390 473.5,-396 467.5,-396"/>
<text text-anchor="middle" x="393" y="-375.5" font-family="sans" font-size="10.00" fill="#000000">annotation_annotate_cnvkit_vcf</text>
</g>
<!-- 37&#45;&gt;36 -->
<g id="edge62" class="edge">
<title>37&#45;&gt;36</title>
<path fill="none" stroke="#c0c0c0" stroke-width="2" d="M407.1312,-359.8314C413.5811,-351.5386 421.3445,-341.557 428.4252,-332.4533"/>
<polygon fill="#c0c0c0" stroke="#c0c0c0" stroke-width="2" points="431.3019,-334.4556 434.6786,-324.4133 425.7764,-330.158 431.3019,-334.4556"/>
</g>
<!-- 43 -->
<g id="node44" class="node">
<title>43</title>
<path fill="none" stroke="#56c1d8" stroke-width="2" d="M417.5,-180C417.5,-180 286.5,-180 286.5,-180 280.5,-180 274.5,-174 274.5,-168 274.5,-168 274.5,-156 274.5,-156 274.5,-150 280.5,-144 286.5,-144 286.5,-144 417.5,-144 417.5,-144 423.5,-144 429.5,-150 429.5,-156 429.5,-156 429.5,-168 429.5,-168 429.5,-174 423.5,-180 417.5,-180"/>
<text text-anchor="middle" x="352" y="-159.5" font-family="sans" font-size="10.00" fill="#000000">_copy_annotated_cnvkit_vcf</text>
</g>
<!-- 37&#45;&gt;43 -->
<g id="edge70" class="edge">
<title>37&#45;&gt;43</title>
<path fill="none" stroke="#c0c0c0" stroke-width="2" d="M384.2008,-359.9237C379.5572,-349.6274 374.1781,-336.3529 371,-324 359.2093,-278.1708 354.7158,-223.1437 353.0168,-190.4553"/>
<polygon fill="#c0c0c0" stroke="#c0c0c0" stroke-width="2" points="356.504,-190.0974 352.5412,-180.2716 349.5116,-190.424 356.504,-190.0974"/>
</g>
<!-- 38 -->
<g id="node39" class="node">
<title>38</title>
<path fill="none" stroke="#56d87b" stroke-width="2" d="M434,-468C434,-468 352,-468 352,-468 346,-468 340,-462 340,-456 340,-456 340,-444 340,-444 340,-438 346,-432 352,-432 352,-432 434,-432 434,-432 440,-432 446,-438 446,-444 446,-444 446,-456 446,-456 446,-462 440,-468 434,-468"/>
<text text-anchor="middle" x="393" y="-447.5" font-family="sans" font-size="10.00" fill="#000000">cnv_sv_cnvkit_vcf</text>
</g>
<!-- 38&#45;&gt;37 -->
<g id="edge63" class="edge">
<title>38&#45;&gt;37</title>
<path fill="none" stroke="#c0c0c0" stroke-width="2" d="M393,-431.8314C393,-424.131 393,-414.9743 393,-406.4166"/>
<polygon fill="#c0c0c0" stroke="#c0c0c0" stroke-width="2" points="396.5001,-406.4132 393,-396.4133 389.5001,-406.4133 396.5001,-406.4132"/>
</g>
<!-- 39&#45;&gt;38 -->
<g id="edge64" class="edge">
<title>39&#45;&gt;38</title>
<path fill="none" stroke="#c0c0c0" stroke-width="2" d="M393,-503.8314C393,-496.131 393,-486.9743 393,-478.4166"/>
<polygon fill="#c0c0c0" stroke="#c0c0c0" stroke-width="2" points="396.5001,-478.4132 393,-468.4133 389.5001,-478.4133 396.5001,-478.4132"/>
</g>
<!-- 40&#45;&gt;0 -->
<g id="edge3" class="edge">
<title>40&#45;&gt;0</title>
<path fill="none" stroke="#c0c0c0" stroke-width="2" d="M692.4614,-719.906C701.0752,-710.0232 710.8998,-697.1431 717,-684 734.2113,-646.9179 736,-634.8816 736,-594 736,-594 736,-594 736,-162 736,-115.3549 702.3275,-70.7026 677.1224,-43.8126"/>
<polygon fill="#c0c0c0" stroke="#c0c0c0" stroke-width="2" points="679.4114,-41.1445 669.9463,-36.3839 674.3767,-46.0079 679.4114,-41.1445"/>
</g>
<!-- 41&#45;&gt;0 -->
<g id="edge4" class="edge">
<title>41&#45;&gt;0</title>
<path fill="none" stroke="#c0c0c0" stroke-width="2" d="M633.0609,-503.9596C657.8444,-478.4557 698,-429.2284 698,-378 698,-378 698,-378 698,-162 698,-121.0242 691.9932,-110.5124 678,-72 674.7509,-63.0578 670.3208,-53.7215 665.9434,-45.376"/>
<polygon fill="#c0c0c0" stroke="#c0c0c0" stroke-width="2" points="668.941,-43.562 661.0892,-36.4486 662.7913,-46.9058 668.941,-43.562"/>
</g>
<!-- 42&#45;&gt;0 -->
<g id="edge11" class="edge">
<title>42&#45;&gt;0</title>
<path fill="none" stroke="#c0c0c0" stroke-width="2" d="M207.1114,-143.8619C239.1576,-123.2782 294.7505,-90.2086 347,-72 439.3883,-39.8033 554.6242,-26.0385 612.7603,-20.8101"/>
<polygon fill="#c0c0c0" stroke="#c0c0c0" stroke-width="2" points="613.2713,-24.279 622.9327,-19.9306 612.6684,-17.3051 613.2713,-24.279"/>
</g>
<!-- 43&#45;&gt;0 -->
<g id="edge12" class="edge">
<title>43&#45;&gt;0</title>
<path fill="none" stroke="#c0c0c0" stroke-width="2" d="M349.2437,-143.8134C347.2785,-123.4994 347.6432,-90.9838 366,-72 399.5994,-37.253 543.4095,-24.2237 612.5667,-19.9017"/>
<polygon fill="#c0c0c0" stroke="#c0c0c0" stroke-width="2" points="612.8281,-23.3924 622.6019,-19.3031 612.4113,-16.4048 612.8281,-23.3924"/>
</g>
<!-- 44 -->
<g id="node45" class="node">
<title>44</title>
<path fill="none" stroke="#56a9d8" stroke-width="2" d="M657.5,-108C657.5,-108 548.5,-108 548.5,-108 542.5,-108 536.5,-102 536.5,-96 536.5,-96 536.5,-84 536.5,-84 536.5,-78 542.5,-72 548.5,-72 548.5,-72 657.5,-72 657.5,-72 663.5,-72 669.5,-78 669.5,-84 669.5,-84 669.5,-96 669.5,-96 669.5,-102 663.5,-108 657.5,-108"/>
<text text-anchor="middle" x="603" y="-87.5" font-family="sans" font-size="10.00" fill="#000000">_copy_index_cnvkit_vcf</text>
</g>
<!-- 44&#45;&gt;0 -->
<g id="edge1" class="edge">
<title>44&#45;&gt;0</title>
<path fill="none" stroke="#c0c0c0" stroke-width="2" d="M614.8601,-71.8314C620.1629,-63.7079 626.5237,-53.9637 632.3673,-45.0118"/>
<polygon fill="#c0c0c0" stroke="#c0c0c0" stroke-width="2" points="635.4448,-46.7003 637.9802,-36.4133 629.5831,-42.8739 635.4448,-46.7003"/>
</g>
<!-- 45&#45;&gt;44 -->
<g id="edge71" class="edge">
<title>45&#45;&gt;44</title>
<path fill="none" stroke="#c0c0c0" stroke-width="2" d="M602.1267,-215.7623C602.2972,-191.201 602.6024,-147.2474 602.8031,-118.3541"/>
<polygon fill="#c0c0c0" stroke="#c0c0c0" stroke-width="2" points="606.3048,-118.1137 602.8744,-108.0896 599.3049,-118.065 606.3048,-118.1137"/>
</g>
</g>
</svg>
