<?xml version="1.0" encoding="UTF-8" standalone="no"?>
<!DOCTYPE svg PUBLIC "-//W3C//DTD SVG 1.1//EN"
 "http://www.w3.org/Graphics/SVG/1.1/DTD/svg11.dtd">
<!-- Generated by graphviz version 2.42.3 (20191010.1750)
 -->
<!-- Title: snakemake_dag Pages: 1 -->
<svg width="2006pt" height="1700pt"
 viewBox="0.00 0.00 2006.03 1700.00" xmlns="http://www.w3.org/2000/svg" xmlns:xlink="http://www.w3.org/1999/xlink">
<g id="graph0" class="graph" transform="scale(1 1) rotate(0) translate(4 1696)">
<title>snakemake_dag</title>
<polygon fill="white" stroke="transparent" points="-4,4 -4,-1696 2002.03,-1696 2002.03,4 -4,4"/>
<!-- 0 -->
<g id="node1" class="node">
<title>0</title>
<path fill="none" stroke="#565bd8" stroke-width="2" d="M1104,-36C1104,-36 1074,-36 1074,-36 1068,-36 1062,-30 1062,-24 1062,-24 1062,-12 1062,-12 1062,-6 1068,0 1074,0 1074,0 1104,0 1104,0 1110,0 1116,-6 1116,-12 1116,-12 1116,-24 1116,-24 1116,-30 1110,-36 1104,-36"/>
<text text-anchor="middle" x="1089" y="-15.5" font-family="sans" font-size="10.00">all</text>
</g>
<!-- 1 -->
<g id="node2" class="node">
<title>1</title>
<path fill="none" stroke="#d8a456" stroke-width="2" d="M1421,-756C1421,-756 1279,-756 1279,-756 1273,-756 1267,-750 1267,-744 1267,-744 1267,-732 1267,-732 1267,-726 1273,-720 1279,-720 1279,-720 1421,-720 1421,-720 1427,-720 1433,-726 1433,-732 1433,-732 1433,-744 1433,-744 1433,-750 1427,-756 1421,-756"/>
<text text-anchor="middle" x="1350" y="-735.5" font-family="sans" font-size="10.00">_copy_snv_vep_annotated_vcf</text>
</g>
<!-- 1&#45;&gt;0 -->
<g id="edge10" class="edge">
<title>1&#45;&gt;0</title>
<path fill="none" stroke="grey" stroke-width="2" d="M1353.64,-719.6C1358.9,-692.92 1368,-640.23 1368,-595 1368,-595 1368,-595 1368,-377 1368,-336.46 1360.61,-317.89 1388,-288 1423.61,-249.14 1469.9,-294.55 1501,-252 1532,-209.59 1483.9,-186.48 1453,-144 1428.99,-110.99 1431.09,-92.85 1396,-72 1351,-45.26 1198.54,-28.66 1126.85,-22.15"/>
<polygon fill="grey" stroke="grey" stroke-width="2" points="1126.74,-18.63 1116.47,-21.23 1126.12,-25.6 1126.74,-18.63"/>
</g>
<!-- 2 -->
<g id="node3" class="node">
<title>2</title>
<path fill="none" stroke="#d88d56" stroke-width="2" d="M1252,-900C1252,-900 1190,-900 1190,-900 1184,-900 1178,-894 1178,-888 1178,-888 1178,-876 1178,-876 1178,-870 1184,-864 1190,-864 1190,-864 1252,-864 1252,-864 1258,-864 1264,-870 1264,-876 1264,-876 1264,-888 1264,-888 1264,-894 1258,-900 1252,-900"/>
<text text-anchor="middle" x="1221" y="-879.5" font-family="sans" font-size="10.00">bgzip_vep_vcf</text>
</g>
<!-- 2&#45;&gt;1 -->
<g id="edge18" class="edge">
<title>2&#45;&gt;1</title>
<path fill="none" stroke="grey" stroke-width="2" d="M1236.56,-863.87C1259.22,-838.92 1301.44,-792.45 1327.5,-763.77"/>
<polygon fill="grey" stroke="grey" stroke-width="2" points="1330.25,-765.94 1334.38,-756.19 1325.07,-761.24 1330.25,-765.94"/>
</g>
<!-- 33 -->
<g id="node34" class="node">
<title>33</title>
<path fill="none" stroke="#d86656" stroke-width="2" d="M1157,-756C1157,-756 1001,-756 1001,-756 995,-756 989,-750 989,-744 989,-744 989,-732 989,-732 989,-726 995,-720 1001,-720 1001,-720 1157,-720 1157,-720 1163,-720 1169,-726 1169,-732 1169,-732 1169,-744 1169,-744 1169,-750 1163,-756 1157,-756"/>
<text text-anchor="middle" x="1079" y="-735.5" font-family="sans" font-size="10.00">filtering_filter_vep_annotated_vcf</text>
</g>
<!-- 2&#45;&gt;33 -->
<g id="edge61" class="edge">
<title>2&#45;&gt;33</title>
<path fill="none" stroke="grey" stroke-width="2" d="M1177.72,-872.61C1151.22,-865.25 1118.72,-851.85 1099,-828 1084.76,-810.78 1080.14,-785.51 1078.86,-766.29"/>
<polygon fill="grey" stroke="grey" stroke-width="2" points="1082.35,-765.9 1078.45,-756.05 1075.36,-766.18 1082.35,-765.9"/>
</g>
<!-- 34 -->
<g id="node35" class="node">
<title>34</title>
<path fill="none" stroke="#56d87b" stroke-width="2" d="M1180.5,-828C1180.5,-828 1119.5,-828 1119.5,-828 1113.5,-828 1107.5,-822 1107.5,-816 1107.5,-816 1107.5,-804 1107.5,-804 1107.5,-798 1113.5,-792 1119.5,-792 1119.5,-792 1180.5,-792 1180.5,-792 1186.5,-792 1192.5,-798 1192.5,-804 1192.5,-804 1192.5,-816 1192.5,-816 1192.5,-822 1186.5,-828 1180.5,-828"/>
<text text-anchor="middle" x="1150" y="-807.5" font-family="sans" font-size="10.00">tabix_vep_vcf</text>
</g>
<!-- 2&#45;&gt;34 -->
<g id="edge63" class="edge">
<title>2&#45;&gt;34</title>
<path fill="none" stroke="grey" stroke-width="2" d="M1203.45,-863.7C1194.77,-855.14 1184.14,-844.66 1174.65,-835.3"/>
<polygon fill="grey" stroke="grey" stroke-width="2" points="1176.93,-832.63 1167.35,-828.1 1172.01,-837.62 1176.93,-832.63"/>
</g>
<!-- 47 -->
<g id="node48" class="node">
<title>47</title>
<path fill="none" stroke="#56d8b1" stroke-width="2" d="M1260.5,-180C1260.5,-180 1129.5,-180 1129.5,-180 1123.5,-180 1117.5,-174 1117.5,-168 1117.5,-168 1117.5,-156 1117.5,-156 1117.5,-150 1123.5,-144 1129.5,-144 1129.5,-144 1260.5,-144 1260.5,-144 1266.5,-144 1272.5,-150 1272.5,-156 1272.5,-156 1272.5,-168 1272.5,-168 1272.5,-174 1266.5,-180 1260.5,-180"/>
<text text-anchor="middle" x="1195" y="-159.5" font-family="sans" font-size="10.00">reports_compile_xlsx_report</text>
</g>
<!-- 2&#45;&gt;47 -->
<g id="edge79" class="edge">
<title>2&#45;&gt;47</title>
<path fill="none" stroke="grey" stroke-width="2" d="M1221,-863.95C1221,-837.29 1221,-784.11 1221,-739 1221,-739 1221,-739 1221,-449 1221,-353.55 1206.46,-240.91 1199.13,-190.17"/>
<polygon fill="grey" stroke="grey" stroke-width="2" points="1202.55,-189.42 1197.64,-180.04 1195.63,-190.44 1202.55,-189.42"/>
</g>
<!-- 3 -->
<g id="node4" class="node">
<title>3</title>
<path fill="none" stroke="#d85656" stroke-width="2" d="M1402,-972C1402,-972 1334,-972 1334,-972 1328,-972 1322,-966 1322,-960 1322,-960 1322,-948 1322,-948 1322,-942 1328,-936 1334,-936 1334,-936 1402,-936 1402,-936 1408,-936 1414,-942 1414,-948 1414,-948 1414,-960 1414,-960 1414,-966 1408,-972 1402,-972"/>
<text text-anchor="middle" x="1368" y="-951.5" font-family="sans" font-size="10.00">annotation_vep</text>
</g>
<!-- 3&#45;&gt;2 -->
<g id="edge19" class="edge">
<title>3&#45;&gt;2</title>
<path fill="none" stroke="grey" stroke-width="2" d="M1332.04,-935.88C1312.12,-926.39 1287.18,-914.51 1265.98,-904.42"/>
<polygon fill="grey" stroke="grey" stroke-width="2" points="1267.38,-901.21 1256.84,-900.07 1264.37,-907.53 1267.38,-901.21"/>
</g>
<!-- 4 -->
<g id="node5" class="node">
<title>4</title>
<path fill="none" stroke="#569ad8" stroke-width="2" d="M1537.5,-1044C1537.5,-1044 1408.5,-1044 1408.5,-1044 1402.5,-1044 1396.5,-1038 1396.5,-1032 1396.5,-1032 1396.5,-1020 1396.5,-1020 1396.5,-1014 1402.5,-1008 1408.5,-1008 1408.5,-1008 1537.5,-1008 1537.5,-1008 1543.5,-1008 1549.5,-1014 1549.5,-1020 1549.5,-1020 1549.5,-1032 1549.5,-1032 1549.5,-1038 1543.5,-1044 1537.5,-1044"/>
<text text-anchor="middle" x="1473" y="-1023.5" font-family="sans" font-size="10.00">cnv_sv_tabix_include_panel</text>
</g>
<!-- 4&#45;&gt;3 -->
<g id="edge21" class="edge">
<title>4&#45;&gt;3</title>
<path fill="none" stroke="grey" stroke-width="2" d="M1447.31,-1007.88C1433.71,-998.81 1416.83,-987.55 1402.14,-977.76"/>
<polygon fill="grey" stroke="grey" stroke-width="2" points="1404.05,-974.82 1393.78,-972.19 1400.16,-980.65 1404.05,-974.82"/>
</g>
<!-- 5 -->
<g id="node6" class="node">
<title>5</title>
<path fill="none" stroke="#56c1d8" stroke-width="2" d="M1583.5,-1116C1583.5,-1116 1362.5,-1116 1362.5,-1116 1356.5,-1116 1350.5,-1110 1350.5,-1104 1350.5,-1104 1350.5,-1092 1350.5,-1092 1350.5,-1086 1356.5,-1080 1362.5,-1080 1362.5,-1080 1583.5,-1080 1583.5,-1080 1589.5,-1080 1595.5,-1086 1595.5,-1092 1595.5,-1092 1595.5,-1104 1595.5,-1104 1595.5,-1110 1589.5,-1116 1583.5,-1116"/>
<text text-anchor="middle" x="1473" y="-1095.5" font-family="sans" font-size="10.00">filtering_bcftools_filter_include_region_snv_vcf</text>
</g>
<!-- 5&#45;&gt;3 -->
<g id="edge20" class="edge">
<title>5&#45;&gt;3</title>
<path fill="none" stroke="grey" stroke-width="2" d="M1431.96,-1079.93C1416.01,-1071.36 1398.97,-1059.46 1388,-1044 1375.22,-1025.99 1370.43,-1001.2 1368.72,-982.36"/>
<polygon fill="grey" stroke="grey" stroke-width="2" points="1372.2,-982.06 1368.04,-972.32 1365.22,-982.53 1372.2,-982.06"/>
</g>
<!-- 5&#45;&gt;4 -->
<g id="edge22" class="edge">
<title>5&#45;&gt;4</title>
<path fill="none" stroke="grey" stroke-width="2" d="M1473,-1079.7C1473,-1071.98 1473,-1062.71 1473,-1054.11"/>
<polygon fill="grey" stroke="grey" stroke-width="2" points="1476.5,-1054.1 1473,-1044.1 1469.5,-1054.1 1476.5,-1054.1"/>
</g>
<!-- 6 -->
<g id="node7" class="node">
<title>6</title>
<path fill="none" stroke="#d8ac56" stroke-width="2" d="M1626.5,-1260C1626.5,-1260 1495.5,-1260 1495.5,-1260 1489.5,-1260 1483.5,-1254 1483.5,-1248 1483.5,-1248 1483.5,-1236 1483.5,-1236 1483.5,-1230 1489.5,-1224 1495.5,-1224 1495.5,-1224 1626.5,-1224 1626.5,-1224 1632.5,-1224 1638.5,-1230 1638.5,-1236 1638.5,-1236 1638.5,-1248 1638.5,-1248 1638.5,-1254 1632.5,-1260 1626.5,-1260"/>
<text text-anchor="middle" x="1561" y="-1239.5" font-family="sans" font-size="10.00">snv_indels_whatshap_phase</text>
</g>
<!-- 6&#45;&gt;5 -->
<g id="edge24" class="edge">
<title>6&#45;&gt;5</title>
<path fill="none" stroke="grey" stroke-width="2" d="M1530.57,-1223.94C1517.13,-1214.92 1502.29,-1202.67 1493,-1188 1481.24,-1169.44 1476.35,-1144.85 1474.34,-1126.22"/>
<polygon fill="grey" stroke="grey" stroke-width="2" points="1477.81,-1125.69 1473.46,-1116.03 1470.83,-1126.3 1477.81,-1125.69"/>
</g>
<!-- 13 -->
<g id="node14" class="node">
<title>13</title>
<path fill="none" stroke="#b6d856" stroke-width="2" d="M1612.5,-1188C1612.5,-1188 1513.5,-1188 1513.5,-1188 1507.5,-1188 1501.5,-1182 1501.5,-1176 1501.5,-1176 1501.5,-1164 1501.5,-1164 1501.5,-1158 1507.5,-1152 1513.5,-1152 1513.5,-1152 1612.5,-1152 1612.5,-1152 1618.5,-1152 1624.5,-1158 1624.5,-1164 1624.5,-1164 1624.5,-1176 1624.5,-1176 1624.5,-1182 1618.5,-1188 1612.5,-1188"/>
<text text-anchor="middle" x="1563" y="-1167.5" font-family="sans" font-size="10.00">cnv_sv_tabix_snv_vcf</text>
</g>
<!-- 6&#45;&gt;13 -->
<g id="edge34" class="edge">
<title>6&#45;&gt;13</title>
<path fill="none" stroke="grey" stroke-width="2" d="M1561.49,-1223.7C1561.71,-1215.98 1561.98,-1206.71 1562.23,-1198.11"/>
<polygon fill="grey" stroke="grey" stroke-width="2" points="1565.72,-1198.2 1562.51,-1188.1 1558.73,-1198 1565.72,-1198.2"/>
</g>
<!-- 18 -->
<g id="node19" class="node">
<title>18</title>
<path fill="none" stroke="#afd856" stroke-width="2" d="M1771.5,-1116C1771.5,-1116 1626.5,-1116 1626.5,-1116 1620.5,-1116 1614.5,-1110 1614.5,-1104 1614.5,-1104 1614.5,-1092 1614.5,-1092 1614.5,-1086 1620.5,-1080 1626.5,-1080 1626.5,-1080 1771.5,-1080 1771.5,-1080 1777.5,-1080 1783.5,-1086 1783.5,-1092 1783.5,-1092 1783.5,-1104 1783.5,-1104 1783.5,-1110 1777.5,-1116 1771.5,-1116"/>
<text text-anchor="middle" x="1699" y="-1095.5" font-family="sans" font-size="10.00">snv_indels_whatshap_haplotag</text>
</g>
<!-- 6&#45;&gt;18 -->
<g id="edge42" class="edge">
<title>6&#45;&gt;18</title>
<path fill="none" stroke="grey" stroke-width="2" d="M1588.59,-1223.96C1602.97,-1214.37 1620.36,-1201.6 1634,-1188 1653.21,-1168.84 1671.08,-1143.6 1683.2,-1124.9"/>
<polygon fill="grey" stroke="grey" stroke-width="2" points="1686.26,-1126.61 1688.67,-1116.29 1680.35,-1122.85 1686.26,-1126.61"/>
</g>
<!-- 7 -->
<g id="node8" class="node">
<title>7</title>
<path fill="none" stroke="#56d8c9" stroke-width="2" d="M1761.5,-1620C1761.5,-1620 1638.5,-1620 1638.5,-1620 1632.5,-1620 1626.5,-1614 1626.5,-1608 1626.5,-1608 1626.5,-1596 1626.5,-1596 1626.5,-1590 1632.5,-1584 1638.5,-1584 1638.5,-1584 1761.5,-1584 1761.5,-1584 1767.5,-1584 1773.5,-1590 1773.5,-1596 1773.5,-1596 1773.5,-1608 1773.5,-1608 1773.5,-1614 1767.5,-1620 1761.5,-1620"/>
<text text-anchor="middle" x="1700" y="-1599.5" font-family="sans" font-size="10.00">alignment_vacmap_merge</text>
</g>
<!-- 7&#45;&gt;6 -->
<g id="edge26" class="edge">
<title>7&#45;&gt;6</title>
<path fill="none" stroke="grey" stroke-width="2" d="M1626.38,-1584.86C1606.94,-1576.98 1588.04,-1565.29 1576,-1548 1545.16,-1503.69 1553.9,-1336.84 1558.76,-1270.48"/>
<polygon fill="grey" stroke="grey" stroke-width="2" points="1562.26,-1270.6 1559.53,-1260.36 1555.28,-1270.07 1562.26,-1270.6"/>
</g>
<!-- 9 -->
<g id="node10" class="node">
<title>9</title>
<path fill="none" stroke="#d8c356" stroke-width="2" d="M1803,-1548C1803,-1548 1597,-1548 1597,-1548 1591,-1548 1585,-1542 1585,-1536 1585,-1536 1585,-1524 1585,-1524 1585,-1518 1591,-1512 1597,-1512 1597,-1512 1803,-1512 1803,-1512 1809,-1512 1815,-1518 1815,-1524 1815,-1524 1815,-1536 1815,-1536 1815,-1542 1809,-1548 1803,-1548"/>
<text text-anchor="middle" x="1700" y="-1527.5" font-family="sans" font-size="10.00">alignment_samtools_index_vacmap_merge</text>
</g>
<!-- 7&#45;&gt;9 -->
<g id="edge29" class="edge">
<title>7&#45;&gt;9</title>
<path fill="none" stroke="grey" stroke-width="2" d="M1700,-1583.7C1700,-1575.98 1700,-1566.71 1700,-1558.11"/>
<polygon fill="grey" stroke="grey" stroke-width="2" points="1703.5,-1558.1 1700,-1548.1 1696.5,-1558.1 1703.5,-1558.1"/>
</g>
<!-- 12 -->
<g id="node13" class="node">
<title>12</title>
<path fill="none" stroke="#9fd856" stroke-width="2" d="M1520.5,-1476C1520.5,-1476 1407.5,-1476 1407.5,-1476 1401.5,-1476 1395.5,-1470 1395.5,-1464 1395.5,-1464 1395.5,-1452 1395.5,-1452 1395.5,-1446 1401.5,-1440 1407.5,-1440 1407.5,-1440 1520.5,-1440 1520.5,-1440 1526.5,-1440 1532.5,-1446 1532.5,-1452 1532.5,-1452 1532.5,-1464 1532.5,-1464 1532.5,-1470 1526.5,-1476 1520.5,-1476"/>
<text text-anchor="middle" x="1464" y="-1455.5" font-family="sans" font-size="10.00">snv_indels_clairs_to_call</text>
</g>
<!-- 7&#45;&gt;12 -->
<g id="edge32" class="edge">
<title>7&#45;&gt;12</title>
<path fill="none" stroke="grey" stroke-width="2" d="M1626.45,-1584.73C1598.82,-1576.49 1568.06,-1564.61 1543,-1548 1517.65,-1531.2 1495.33,-1504.29 1480.94,-1484.45"/>
<polygon fill="grey" stroke="grey" stroke-width="2" points="1483.71,-1482.32 1475.09,-1476.17 1478,-1486.36 1483.71,-1482.32"/>
</g>
<!-- 7&#45;&gt;18 -->
<g id="edge43" class="edge">
<title>7&#45;&gt;18</title>
<path fill="none" stroke="grey" stroke-width="2" d="M1770.94,-1583.96C1790.66,-1576.03 1810.39,-1564.54 1824,-1548 1849.7,-1516.77 1843,-1499.45 1843,-1459 1843,-1459 1843,-1459 1843,-1241 1843,-1185.39 1787.88,-1144.24 1745.85,-1120.94"/>
<polygon fill="grey" stroke="grey" stroke-width="2" points="1747.3,-1117.75 1736.83,-1116.1 1743.99,-1123.91 1747.3,-1117.75"/>
</g>
<!-- 62 -->
<g id="node63" class="node">
<title>62</title>
<path fill="none" stroke="#56b1d8" stroke-width="2" d="M1980,-1476C1980,-1476 1888,-1476 1888,-1476 1882,-1476 1876,-1470 1876,-1464 1876,-1464 1876,-1452 1876,-1452 1876,-1446 1882,-1440 1888,-1440 1888,-1440 1980,-1440 1980,-1440 1986,-1440 1992,-1446 1992,-1452 1992,-1452 1992,-1464 1992,-1464 1992,-1470 1986,-1476 1980,-1476"/>
<text text-anchor="middle" x="1934" y="-1455.5" font-family="sans" font-size="10.00">_copy_vacmap_bam</text>
</g>
<!-- 7&#45;&gt;62 -->
<g id="edge101" class="edge">
<title>7&#45;&gt;62</title>
<path fill="none" stroke="grey" stroke-width="2" d="M1773.66,-1584.9C1801.3,-1576.67 1832.05,-1564.76 1857,-1548 1881.97,-1531.23 1903.68,-1504.31 1917.63,-1484.47"/>
<polygon fill="grey" stroke="grey" stroke-width="2" points="1920.54,-1486.41 1923.3,-1476.18 1914.76,-1482.46 1920.54,-1486.41"/>
</g>
<!-- 8 -->
<g id="node9" class="node">
<title>8</title>
<path fill="none" stroke="#56d8d8" stroke-width="2" d="M1758,-1692C1758,-1692 1642,-1692 1642,-1692 1636,-1692 1630,-1686 1630,-1680 1630,-1680 1630,-1668 1630,-1668 1630,-1662 1636,-1656 1642,-1656 1642,-1656 1758,-1656 1758,-1656 1764,-1656 1770,-1662 1770,-1668 1770,-1668 1770,-1680 1770,-1680 1770,-1686 1764,-1692 1758,-1692"/>
<text text-anchor="middle" x="1700" y="-1671.5" font-family="sans" font-size="10.00">alignment_vacmap_align</text>
</g>
<!-- 8&#45;&gt;7 -->
<g id="edge28" class="edge">
<title>8&#45;&gt;7</title>
<path fill="none" stroke="grey" stroke-width="2" d="M1700,-1655.7C1700,-1647.98 1700,-1638.71 1700,-1630.11"/>
<polygon fill="grey" stroke="grey" stroke-width="2" points="1703.5,-1630.1 1700,-1620.1 1696.5,-1630.1 1703.5,-1630.1"/>
</g>
<!-- 9&#45;&gt;6 -->
<g id="edge27" class="edge">
<title>9&#45;&gt;6</title>
<path fill="none" stroke="grey" stroke-width="2" d="M1691.72,-1511.97C1668.41,-1463.99 1602.07,-1327.5 1573.9,-1269.54"/>
<polygon fill="grey" stroke="grey" stroke-width="2" points="1576.93,-1267.77 1569.41,-1260.31 1570.63,-1270.83 1576.93,-1267.77"/>
</g>
<!-- 9&#45;&gt;12 -->
<g id="edge33" class="edge">
<title>9&#45;&gt;12</title>
<path fill="none" stroke="grey" stroke-width="2" d="M1642.57,-1511.97C1609.02,-1502.01 1566.51,-1489.41 1531.39,-1478.99"/>
<polygon fill="grey" stroke="grey" stroke-width="2" points="1532.27,-1475.6 1521.69,-1476.11 1530.28,-1482.31 1532.27,-1475.6"/>
</g>
<!-- 9&#45;&gt;18 -->
<g id="edge44" class="edge">
<title>9&#45;&gt;18</title>
<path fill="none" stroke="grey" stroke-width="2" d="M1699.8,-1511.95C1699.51,-1485.29 1699,-1432.12 1699,-1387 1699,-1387 1699,-1387 1699,-1241 1699,-1201 1699,-1154.65 1699,-1126.08"/>
<polygon fill="grey" stroke="grey" stroke-width="2" points="1702.5,-1126.05 1699,-1116.05 1695.5,-1126.05 1702.5,-1126.05"/>
</g>
<!-- 10 -->
<g id="node11" class="node">
<title>10</title>
<path fill="none" stroke="#d8d356" stroke-width="2" d="M1508.5,-1332C1508.5,-1332 1431.5,-1332 1431.5,-1332 1425.5,-1332 1419.5,-1326 1419.5,-1320 1419.5,-1320 1419.5,-1308 1419.5,-1308 1419.5,-1302 1425.5,-1296 1431.5,-1296 1431.5,-1296 1508.5,-1296 1508.5,-1296 1514.5,-1296 1520.5,-1302 1520.5,-1308 1520.5,-1308 1520.5,-1320 1520.5,-1320 1520.5,-1326 1514.5,-1332 1508.5,-1332"/>
<text text-anchor="middle" x="1470" y="-1311.5" font-family="sans" font-size="10.00">snv_indels_fix_af</text>
</g>
<!-- 10&#45;&gt;6 -->
<g id="edge25" class="edge">
<title>10&#45;&gt;6</title>
<path fill="none" stroke="grey" stroke-width="2" d="M1492.49,-1295.7C1503.96,-1286.88 1518.06,-1276.03 1530.48,-1266.47"/>
<polygon fill="grey" stroke="grey" stroke-width="2" points="1532.97,-1268.98 1538.76,-1260.1 1528.7,-1263.43 1532.97,-1268.98"/>
</g>
<!-- 11 -->
<g id="node12" class="node">
<title>11</title>
<path fill="none" stroke="#61d856" stroke-width="2" d="M1521,-1404C1521,-1404 1393,-1404 1393,-1404 1387,-1404 1381,-1398 1381,-1392 1381,-1392 1381,-1380 1381,-1380 1381,-1374 1387,-1368 1393,-1368 1393,-1368 1521,-1368 1521,-1368 1527,-1368 1533,-1374 1533,-1380 1533,-1380 1533,-1392 1533,-1392 1533,-1398 1527,-1404 1521,-1404"/>
<text text-anchor="middle" x="1457" y="-1383.5" font-family="sans" font-size="10.00">snv_indels_clairs_to_concat</text>
</g>
<!-- 11&#45;&gt;10 -->
<g id="edge30" class="edge">
<title>11&#45;&gt;10</title>
<path fill="none" stroke="grey" stroke-width="2" d="M1460.21,-1367.7C1461.65,-1359.98 1463.37,-1350.71 1464.96,-1342.11"/>
<polygon fill="grey" stroke="grey" stroke-width="2" points="1468.44,-1342.58 1466.82,-1332.1 1461.56,-1341.3 1468.44,-1342.58"/>
</g>
<!-- 12&#45;&gt;11 -->
<g id="edge31" class="edge">
<title>12&#45;&gt;11</title>
<path fill="none" stroke="grey" stroke-width="2" d="M1462.27,-1439.7C1461.5,-1431.98 1460.57,-1422.71 1459.71,-1414.11"/>
<polygon fill="grey" stroke="grey" stroke-width="2" points="1463.19,-1413.71 1458.71,-1404.1 1456.22,-1414.4 1463.19,-1413.71"/>
</g>
<!-- 13&#45;&gt;5 -->
<g id="edge23" class="edge">
<title>13&#45;&gt;5</title>
<path fill="none" stroke="grey" stroke-width="2" d="M1540.75,-1151.7C1529.42,-1142.88 1515.47,-1132.03 1503.18,-1122.47"/>
<polygon fill="grey" stroke="grey" stroke-width="2" points="1505.03,-1119.48 1494.99,-1116.1 1500.74,-1125.01 1505.03,-1119.48"/>
</g>
<!-- 13&#45;&gt;18 -->
<g id="edge41" class="edge">
<title>13&#45;&gt;18</title>
<path fill="none" stroke="grey" stroke-width="2" d="M1596.27,-1151.88C1614.46,-1142.51 1637.19,-1130.81 1656.64,-1120.8"/>
<polygon fill="grey" stroke="grey" stroke-width="2" points="1658.31,-1123.88 1665.6,-1116.19 1655.11,-1117.65 1658.31,-1123.88"/>
</g>
<!-- 14 -->
<g id="node15" class="node">
<title>14</title>
<path fill="none" stroke="#56d88a" stroke-width="2" d="M1648,-252C1648,-252 1560,-252 1560,-252 1554,-252 1548,-246 1548,-240 1548,-240 1548,-228 1548,-228 1548,-222 1554,-216 1560,-216 1560,-216 1648,-216 1648,-216 1654,-216 1660,-222 1660,-228 1660,-228 1660,-240 1660,-240 1660,-246 1654,-252 1648,-252"/>
<text text-anchor="middle" x="1604" y="-231.5" font-family="sans" font-size="10.00">_copy_sniffles2_vcf</text>
</g>
<!-- 14&#45;&gt;0 -->
<g id="edge11" class="edge">
<title>14&#45;&gt;0</title>
<path fill="none" stroke="grey" stroke-width="2" d="M1602.09,-215.98C1597.34,-182.32 1581.69,-107.47 1534,-72 1469.77,-24.22 1221.25,-19.01 1126.23,-18.8"/>
<polygon fill="grey" stroke="grey" stroke-width="2" points="1126.21,-15.3 1116.21,-18.8 1126.21,-22.3 1126.21,-15.3"/>
</g>
<!-- 15 -->
<g id="node16" class="node">
<title>15</title>
<path fill="none" stroke="#567bd8" stroke-width="2" d="M1627.5,-324C1627.5,-324 1408.5,-324 1408.5,-324 1402.5,-324 1396.5,-318 1396.5,-312 1396.5,-312 1396.5,-300 1396.5,-300 1396.5,-294 1402.5,-288 1408.5,-288 1408.5,-288 1627.5,-288 1627.5,-288 1633.5,-288 1639.5,-294 1639.5,-300 1639.5,-300 1639.5,-312 1639.5,-312 1639.5,-318 1633.5,-324 1627.5,-324"/>
<text text-anchor="middle" x="1518" y="-303.5" font-family="sans" font-size="10.00">filtering_bcftools_filter_include_region_sniffles</text>
</g>
<!-- 15&#45;&gt;14 -->
<g id="edge35" class="edge">
<title>15&#45;&gt;14</title>
<path fill="none" stroke="grey" stroke-width="2" d="M1539.26,-287.7C1550.09,-278.88 1563.42,-268.03 1575.16,-258.47"/>
<polygon fill="grey" stroke="grey" stroke-width="2" points="1577.44,-261.13 1582.99,-252.1 1573.02,-255.7 1577.44,-261.13"/>
</g>
<!-- 16 -->
<g id="node17" class="node">
<title>16</title>
<path fill="none" stroke="#56d85b" stroke-width="2" d="M1616,-468C1616,-468 1518,-468 1518,-468 1512,-468 1506,-462 1506,-456 1506,-456 1506,-444 1506,-444 1506,-438 1512,-432 1518,-432 1518,-432 1616,-432 1616,-432 1622,-432 1628,-438 1628,-444 1628,-444 1628,-456 1628,-456 1628,-462 1622,-468 1616,-468"/>
<text text-anchor="middle" x="1567" y="-447.5" font-family="sans" font-size="10.00">cnv_sv_bgzip_sniffles</text>
</g>
<!-- 16&#45;&gt;15 -->
<g id="edge37" class="edge">
<title>16&#45;&gt;15</title>
<path fill="none" stroke="grey" stroke-width="2" d="M1561.09,-431.87C1552.7,-407.56 1537.26,-362.82 1527.32,-334.01"/>
<polygon fill="grey" stroke="grey" stroke-width="2" points="1530.5,-332.5 1523.93,-324.19 1523.88,-334.78 1530.5,-332.5"/>
</g>
<!-- 20 -->
<g id="node21" class="node">
<title>20</title>
<path fill="none" stroke="#d8cb56" stroke-width="2" d="M1679.5,-396C1679.5,-396 1582.5,-396 1582.5,-396 1576.5,-396 1570.5,-390 1570.5,-384 1570.5,-384 1570.5,-372 1570.5,-372 1570.5,-366 1576.5,-360 1582.5,-360 1582.5,-360 1679.5,-360 1679.5,-360 1685.5,-360 1691.5,-366 1691.5,-372 1691.5,-372 1691.5,-384 1691.5,-384 1691.5,-390 1685.5,-396 1679.5,-396"/>
<text text-anchor="middle" x="1631" y="-375.5" font-family="sans" font-size="10.00">cnv_sv_tabix_sniffles</text>
</g>
<!-- 16&#45;&gt;20 -->
<g id="edge46" class="edge">
<title>16&#45;&gt;20</title>
<path fill="none" stroke="grey" stroke-width="2" d="M1582.82,-431.7C1590.57,-423.22 1600.04,-412.86 1608.52,-403.58"/>
<polygon fill="grey" stroke="grey" stroke-width="2" points="1611.2,-405.85 1615.36,-396.1 1606.03,-401.12 1611.2,-405.85"/>
</g>
<!-- 53 -->
<g id="node54" class="node">
<title>53</title>
<path fill="none" stroke="#70d856" stroke-width="2" d="M1501.5,-396C1501.5,-396 1408.5,-396 1408.5,-396 1402.5,-396 1396.5,-390 1396.5,-384 1396.5,-384 1396.5,-372 1396.5,-372 1396.5,-366 1402.5,-360 1408.5,-360 1408.5,-360 1501.5,-360 1501.5,-360 1507.5,-360 1513.5,-366 1513.5,-372 1513.5,-372 1513.5,-384 1513.5,-384 1513.5,-390 1507.5,-396 1501.5,-396"/>
<text text-anchor="middle" x="1455" y="-375.5" font-family="sans" font-size="10.00">cnv_sv_sniffles2_vcf</text>
</g>
<!-- 16&#45;&gt;53 -->
<g id="edge87" class="edge">
<title>16&#45;&gt;53</title>
<path fill="none" stroke="grey" stroke-width="2" d="M1539.6,-431.88C1525.09,-422.81 1507.08,-411.55 1491.41,-401.76"/>
<polygon fill="grey" stroke="grey" stroke-width="2" points="1492.84,-398.52 1482.5,-396.19 1489.13,-404.46 1492.84,-398.52"/>
</g>
<!-- 17 -->
<g id="node18" class="node">
<title>17</title>
<path fill="none" stroke="#56d8b9" stroke-width="2" d="M1627.5,-540C1627.5,-540 1554.5,-540 1554.5,-540 1548.5,-540 1542.5,-534 1542.5,-528 1542.5,-528 1542.5,-516 1542.5,-516 1542.5,-510 1548.5,-504 1554.5,-504 1554.5,-504 1627.5,-504 1627.5,-504 1633.5,-504 1639.5,-510 1639.5,-516 1639.5,-516 1639.5,-528 1639.5,-528 1639.5,-534 1633.5,-540 1627.5,-540"/>
<text text-anchor="middle" x="1591" y="-519.5" font-family="sans" font-size="10.00">cnv_sv_sniffles2</text>
</g>
<!-- 17&#45;&gt;16 -->
<g id="edge38" class="edge">
<title>17&#45;&gt;16</title>
<path fill="none" stroke="grey" stroke-width="2" d="M1585.07,-503.7C1582.39,-495.9 1579.17,-486.51 1576.2,-477.83"/>
<polygon fill="grey" stroke="grey" stroke-width="2" points="1579.42,-476.43 1572.86,-468.1 1572.8,-478.7 1579.42,-476.43"/>
</g>
<!-- 18&#45;&gt;17 -->
<g id="edge39" class="edge">
<title>18&#45;&gt;17</title>
<path fill="none" stroke="grey" stroke-width="2" d="M1673.68,-1079.83C1641.76,-1055.92 1591,-1009.36 1591,-955 1591,-955 1591,-955 1591,-665 1591,-625 1591,-578.65 1591,-550.08"/>
<polygon fill="grey" stroke="grey" stroke-width="2" points="1594.5,-550.05 1591,-540.05 1587.5,-550.05 1594.5,-550.05"/>
</g>
<!-- 19 -->
<g id="node20" class="node">
<title>19</title>
<path fill="none" stroke="#78d856" stroke-width="2" d="M1849,-612C1849,-612 1631,-612 1631,-612 1625,-612 1619,-606 1619,-600 1619,-600 1619,-588 1619,-588 1619,-582 1625,-576 1631,-576 1631,-576 1849,-576 1849,-576 1855,-576 1861,-582 1861,-588 1861,-588 1861,-600 1861,-600 1861,-606 1855,-612 1849,-612"/>
<text text-anchor="middle" x="1740" y="-591.5" font-family="sans" font-size="10.00">alignment_samtools_index_haplotagged_bam</text>
</g>
<!-- 18&#45;&gt;19 -->
<g id="edge45" class="edge">
<title>18&#45;&gt;19</title>
<path fill="none" stroke="grey" stroke-width="2" d="M1699,-1079.95C1699,-1053.29 1699,-1000.11 1699,-955 1699,-955 1699,-955 1699,-737 1699,-695.41 1715.44,-649.56 1727.5,-621.51"/>
<polygon fill="grey" stroke="grey" stroke-width="2" points="1730.85,-622.59 1731.7,-612.03 1724.45,-619.75 1730.85,-622.59"/>
</g>
<!-- 39 -->
<g id="node40" class="node">
<title>39</title>
<path fill="none" stroke="#d89c56" stroke-width="2" d="M1898.5,-972C1898.5,-972 1739.5,-972 1739.5,-972 1733.5,-972 1727.5,-966 1727.5,-960 1727.5,-960 1727.5,-948 1727.5,-948 1727.5,-942 1733.5,-936 1739.5,-936 1739.5,-936 1898.5,-936 1898.5,-936 1904.5,-936 1910.5,-942 1910.5,-948 1910.5,-948 1910.5,-960 1910.5,-960 1910.5,-966 1904.5,-972 1898.5,-972"/>
<text text-anchor="middle" x="1819" y="-951.5" font-family="sans" font-size="10.00">_copy_mapped_haplotagged_bam</text>
</g>
<!-- 18&#45;&gt;39 -->
<g id="edge69" class="edge">
<title>18&#45;&gt;39</title>
<path fill="none" stroke="grey" stroke-width="2" d="M1713.47,-1079.87C1734.47,-1055.03 1773.5,-1008.85 1797.75,-980.14"/>
<polygon fill="grey" stroke="grey" stroke-width="2" points="1800.69,-982.09 1804.47,-972.19 1795.35,-977.57 1800.69,-982.09"/>
</g>
<!-- 19&#45;&gt;17 -->
<g id="edge40" class="edge">
<title>19&#45;&gt;17</title>
<path fill="none" stroke="grey" stroke-width="2" d="M1703.55,-575.88C1683.36,-566.39 1658.08,-554.51 1636.59,-544.42"/>
<polygon fill="grey" stroke="grey" stroke-width="2" points="1637.87,-541.15 1627.33,-540.07 1634.89,-547.49 1637.87,-541.15"/>
</g>
<!-- 40 -->
<g id="node41" class="node">
<title>40</title>
<path fill="none" stroke="#56a2d8" stroke-width="2" d="M1860.5,-324C1860.5,-324 1669.5,-324 1669.5,-324 1663.5,-324 1657.5,-318 1657.5,-312 1657.5,-312 1657.5,-300 1657.5,-300 1657.5,-294 1663.5,-288 1669.5,-288 1669.5,-288 1860.5,-288 1860.5,-288 1866.5,-288 1872.5,-294 1872.5,-300 1872.5,-300 1872.5,-312 1872.5,-312 1872.5,-318 1866.5,-324 1860.5,-324"/>
<text text-anchor="middle" x="1765" y="-303.5" font-family="sans" font-size="10.00">_copy_mapped_haplotagged_bam_index</text>
</g>
<!-- 19&#45;&gt;40 -->
<g id="edge70" class="edge">
<title>19&#45;&gt;40</title>
<path fill="none" stroke="grey" stroke-width="2" d="M1741.49,-575.97C1745.66,-528.29 1757.47,-393.18 1762.58,-334.63"/>
<polygon fill="grey" stroke="grey" stroke-width="2" points="1766.1,-334.57 1763.49,-324.31 1759.13,-333.96 1766.1,-334.57"/>
</g>
<!-- 20&#45;&gt;15 -->
<g id="edge36" class="edge">
<title>20&#45;&gt;15</title>
<path fill="none" stroke="grey" stroke-width="2" d="M1603.36,-359.88C1588.58,-350.72 1570.21,-339.34 1554.3,-329.48"/>
<polygon fill="grey" stroke="grey" stroke-width="2" points="1556.09,-326.48 1545.75,-324.19 1552.41,-332.43 1556.09,-326.48"/>
</g>
<!-- 21 -->
<g id="node22" class="node">
<title>21</title>
<path fill="none" stroke="#56d882" stroke-width="2" d="M887,-108C887,-108 763,-108 763,-108 757,-108 751,-102 751,-96 751,-96 751,-84 751,-84 751,-78 757,-72 763,-72 763,-72 887,-72 887,-72 893,-72 899,-78 899,-84 899,-84 899,-96 899,-96 899,-102 893,-108 887,-108"/>
<text text-anchor="middle" x="825" y="-87.5" font-family="sans" font-size="10.00">_copy_cnvkit_html_reports</text>
</g>
<!-- 21&#45;&gt;0 -->
<g id="edge9" class="edge">
<title>21&#45;&gt;0</title>
<path fill="none" stroke="grey" stroke-width="2" d="M889.24,-71.97C940.29,-58.43 1009.87,-39.98 1052,-28.81"/>
<polygon fill="grey" stroke="grey" stroke-width="2" points="1053.07,-32.15 1061.84,-26.2 1051.27,-25.38 1053.07,-32.15"/>
</g>
<!-- 22 -->
<g id="node23" class="node">
<title>22</title>
<path fill="none" stroke="#68d856" stroke-width="2" d="M852,-180C852,-180 740,-180 740,-180 734,-180 728,-174 728,-168 728,-168 728,-156 728,-156 728,-150 734,-144 740,-144 740,-144 852,-144 852,-144 858,-144 864,-150 864,-156 864,-156 864,-168 864,-168 864,-174 858,-180 852,-180"/>
<text text-anchor="middle" x="796" y="-159.5" font-family="sans" font-size="10.00">reports_cnv_html_report</text>
</g>
<!-- 22&#45;&gt;21 -->
<g id="edge47" class="edge">
<title>22&#45;&gt;21</title>
<path fill="none" stroke="grey" stroke-width="2" d="M803.17,-143.7C806.43,-135.81 810.37,-126.3 814,-117.55"/>
<polygon fill="grey" stroke="grey" stroke-width="2" points="817.32,-118.68 817.91,-108.1 810.85,-116 817.32,-118.68"/>
</g>
<!-- 23 -->
<g id="node24" class="node">
<title>23</title>
<path fill="none" stroke="#566bd8" stroke-width="2" d="M845,-252C845,-252 733,-252 733,-252 727,-252 721,-246 721,-240 721,-240 721,-228 721,-228 721,-222 727,-216 733,-216 733,-216 845,-216 845,-216 851,-216 857,-222 857,-228 857,-228 857,-240 857,-240 857,-246 851,-252 845,-252"/>
<text text-anchor="middle" x="789" y="-231.5" font-family="sans" font-size="10.00">reports_merge_cnv_json</text>
</g>
<!-- 23&#45;&gt;22 -->
<g id="edge48" class="edge">
<title>23&#45;&gt;22</title>
<path fill="none" stroke="grey" stroke-width="2" d="M790.73,-215.7C791.5,-207.98 792.43,-198.71 793.29,-190.11"/>
<polygon fill="grey" stroke="grey" stroke-width="2" points="796.78,-190.4 794.29,-180.1 789.81,-189.71 796.78,-190.4"/>
</g>
<!-- 24 -->
<g id="node25" class="node">
<title>24</title>
<path fill="none" stroke="#c6d856" stroke-width="2" d="M792.5,-468C792.5,-468 717.5,-468 717.5,-468 711.5,-468 705.5,-462 705.5,-456 705.5,-456 705.5,-444 705.5,-444 705.5,-438 711.5,-432 717.5,-432 717.5,-432 792.5,-432 792.5,-432 798.5,-432 804.5,-438 804.5,-444 804.5,-444 804.5,-456 804.5,-456 804.5,-462 798.5,-468 792.5,-468"/>
<text text-anchor="middle" x="755" y="-447.5" font-family="sans" font-size="10.00">reports_cnv_json</text>
</g>
<!-- 24&#45;&gt;23 -->
<g id="edge50" class="edge">
<title>24&#45;&gt;23</title>
<path fill="none" stroke="grey" stroke-width="2" d="M748.26,-431.83C737.46,-401.58 719.4,-337.34 739,-288 743.29,-277.2 750.94,-267.32 758.99,-259.1"/>
<polygon fill="grey" stroke="grey" stroke-width="2" points="761.58,-261.47 766.4,-252.04 756.75,-256.4 761.58,-261.47"/>
</g>
<!-- 25 -->
<g id="node26" class="node">
<title>25</title>
<path fill="none" stroke="#56d8d0" stroke-width="2" d="M764,-612C764,-612 670,-612 670,-612 664,-612 658,-606 658,-600 658,-600 658,-588 658,-588 658,-582 664,-576 670,-576 670,-576 764,-576 764,-576 770,-576 776,-582 776,-588 776,-588 776,-600 776,-600 776,-606 770,-612 764,-612"/>
<text text-anchor="middle" x="717" y="-591.5" font-family="sans" font-size="10.00">cnv_sv_cnvkit_batch</text>
</g>
<!-- 25&#45;&gt;24 -->
<g id="edge52" class="edge">
<title>25&#45;&gt;24</title>
<path fill="none" stroke="grey" stroke-width="2" d="M724.39,-575.57C728.52,-565.35 733.52,-552.1 737,-540 742.88,-519.58 747.55,-495.99 750.67,-478.23"/>
<polygon fill="grey" stroke="grey" stroke-width="2" points="754.14,-478.7 752.36,-468.26 747.24,-477.53 754.14,-478.7"/>
</g>
<!-- 38 -->
<g id="node39" class="node">
<title>38</title>
<path fill="none" stroke="#8fd856" stroke-width="2" d="M880,-540C880,-540 796,-540 796,-540 790,-540 784,-534 784,-528 784,-528 784,-516 784,-516 784,-510 790,-504 796,-504 796,-504 880,-504 880,-504 886,-504 892,-510 892,-516 892,-516 892,-528 892,-528 892,-534 886,-540 880,-540"/>
<text text-anchor="middle" x="838" y="-519.5" font-family="sans" font-size="10.00">cnv_sv_cnvkit_call</text>
</g>
<!-- 25&#45;&gt;38 -->
<g id="edge67" class="edge">
<title>25&#45;&gt;38</title>
<path fill="none" stroke="grey" stroke-width="2" d="M746.6,-575.88C762.57,-566.64 782.46,-555.13 799.61,-545.21"/>
<polygon fill="grey" stroke="grey" stroke-width="2" points="801.38,-548.23 808.29,-540.19 797.88,-542.17 801.38,-548.23"/>
</g>
<!-- 44 -->
<g id="node45" class="node">
<title>44</title>
<path fill="none" stroke="#d8bc56" stroke-width="2" d="M651.5,-180C651.5,-180 574.5,-180 574.5,-180 568.5,-180 562.5,-174 562.5,-168 562.5,-168 562.5,-156 562.5,-156 562.5,-150 568.5,-144 574.5,-144 574.5,-144 651.5,-144 651.5,-144 657.5,-144 663.5,-150 663.5,-156 663.5,-156 663.5,-168 663.5,-168 663.5,-174 657.5,-180 651.5,-180"/>
<text text-anchor="middle" x="613" y="-159.5" font-family="sans" font-size="10.00">_copy_cnvkit_cnr</text>
</g>
<!-- 25&#45;&gt;44 -->
<g id="edge74" class="edge">
<title>25&#45;&gt;44</title>
<path fill="none" stroke="grey" stroke-width="2" d="M665.09,-575.9C647.41,-567.66 629.08,-555.99 617,-540 592.62,-507.72 598,-491.45 598,-451 598,-451 598,-451 598,-305 598,-264.99 603.96,-219 608.37,-190.46"/>
<polygon fill="grey" stroke="grey" stroke-width="2" points="611.85,-190.85 609.96,-180.43 604.94,-189.75 611.85,-190.85"/>
</g>
<!-- 45 -->
<g id="node46" class="node">
<title>45</title>
<path fill="none" stroke="#56c9d8" stroke-width="2" d="M716,-540C716,-540 638,-540 638,-540 632,-540 626,-534 626,-528 626,-528 626,-516 626,-516 626,-510 632,-504 638,-504 638,-504 716,-504 716,-504 722,-504 728,-510 728,-516 728,-516 728,-528 728,-528 728,-534 722,-540 716,-540"/>
<text text-anchor="middle" x="677" y="-519.5" font-family="sans" font-size="10.00">_copy_cnvkit_cns</text>
</g>
<!-- 25&#45;&gt;45 -->
<g id="edge75" class="edge">
<title>25&#45;&gt;45</title>
<path fill="none" stroke="grey" stroke-width="2" d="M707.11,-575.7C702.51,-567.64 696.94,-557.89 691.85,-548.98"/>
<polygon fill="grey" stroke="grey" stroke-width="2" points="694.77,-547.05 686.77,-540.1 688.7,-550.52 694.77,-547.05"/>
</g>
<!-- 26 -->
<g id="node27" class="node">
<title>26</title>
<path fill="none" stroke="#5682d8" stroke-width="2" d="M536,-756C536,-756 414,-756 414,-756 408,-756 402,-750 402,-744 402,-744 402,-732 402,-732 402,-726 408,-720 414,-720 414,-720 536,-720 536,-720 542,-720 548,-726 548,-732 548,-732 548,-744 548,-744 548,-750 542,-756 536,-756"/>
<text text-anchor="middle" x="475" y="-735.5" font-family="sans" font-size="10.00">alignment_pbmm2_merge</text>
</g>
<!-- 26&#45;&gt;25 -->
<g id="edge53" class="edge">
<title>26&#45;&gt;25</title>
<path fill="none" stroke="grey" stroke-width="2" d="M523.65,-719.9C547.64,-710.64 576.58,-698.19 601,-684 633.64,-665.03 667.51,-638.06 690.16,-618.79"/>
<polygon fill="grey" stroke="grey" stroke-width="2" points="692.68,-621.25 697.98,-612.07 688.11,-615.94 692.68,-621.25"/>
</g>
<!-- 30 -->
<g id="node31" class="node">
<title>30</title>
<path fill="none" stroke="#80d856" stroke-width="2" d="M558.5,-684C558.5,-684 391.5,-684 391.5,-684 385.5,-684 379.5,-678 379.5,-672 379.5,-672 379.5,-660 379.5,-660 379.5,-654 385.5,-648 391.5,-648 391.5,-648 558.5,-648 558.5,-648 564.5,-648 570.5,-654 570.5,-660 570.5,-660 570.5,-672 570.5,-672 570.5,-678 564.5,-684 558.5,-684"/>
<text text-anchor="middle" x="475" y="-663.5" font-family="sans" font-size="10.00">alignment_samtools_index_pbmm2</text>
</g>
<!-- 26&#45;&gt;30 -->
<g id="edge58" class="edge">
<title>26&#45;&gt;30</title>
<path fill="none" stroke="grey" stroke-width="2" d="M475,-719.7C475,-711.98 475,-702.71 475,-694.11"/>
<polygon fill="grey" stroke="grey" stroke-width="2" points="478.5,-694.1 475,-684.1 471.5,-694.1 478.5,-694.1"/>
</g>
<!-- 52 -->
<g id="node53" class="node">
<title>52</title>
<path fill="none" stroke="#d89556" stroke-width="2" d="M907.5,-612C907.5,-612 806.5,-612 806.5,-612 800.5,-612 794.5,-606 794.5,-600 794.5,-600 794.5,-588 794.5,-588 794.5,-582 800.5,-576 806.5,-576 806.5,-576 907.5,-576 907.5,-576 913.5,-576 919.5,-582 919.5,-588 919.5,-588 919.5,-600 919.5,-600 919.5,-606 913.5,-612 907.5,-612"/>
<text text-anchor="middle" x="857" y="-591.5" font-family="sans" font-size="10.00">cnv_sv_pbsv_discover</text>
</g>
<!-- 26&#45;&gt;52 -->
<g id="edge85" class="edge">
<title>26&#45;&gt;52</title>
<path fill="none" stroke="grey" stroke-width="2" d="M532.99,-719.93C565.3,-710.08 606.14,-697.09 642,-684 700.22,-662.76 765.86,-635.02 809.13,-616.19"/>
<polygon fill="grey" stroke="grey" stroke-width="2" points="810.78,-619.29 818.55,-612.08 807.98,-612.87 810.78,-619.29"/>
</g>
<!-- 56 -->
<g id="node57" class="node">
<title>56</title>
<path fill="none" stroke="#a7d856" stroke-width="2" d="M628,-612C628,-612 570,-612 570,-612 564,-612 558,-606 558,-600 558,-600 558,-588 558,-588 558,-582 564,-576 570,-576 570,-576 628,-576 628,-576 634,-576 640,-582 640,-588 640,-588 640,-600 640,-600 640,-606 634,-612 628,-612"/>
<text text-anchor="middle" x="599" y="-591.5" font-family="sans" font-size="10.00">qc_mosdepth</text>
</g>
<!-- 26&#45;&gt;56 -->
<g id="edge93" class="edge">
<title>26&#45;&gt;56</title>
<path fill="none" stroke="grey" stroke-width="2" d="M529.67,-719.9C547.8,-711.71 566.51,-700.09 579,-684 592.62,-666.46 597.32,-641.42 598.79,-622.37"/>
<polygon fill="grey" stroke="grey" stroke-width="2" points="602.29,-622.38 599.31,-612.22 595.3,-622.02 602.29,-622.38"/>
</g>
<!-- 58 -->
<g id="node59" class="node">
<title>58</title>
<path fill="none" stroke="#56d86b" stroke-width="2" d="M174.5,-612C174.5,-612 39.5,-612 39.5,-612 33.5,-612 27.5,-606 27.5,-600 27.5,-600 27.5,-588 27.5,-588 27.5,-582 33.5,-576 39.5,-576 39.5,-576 174.5,-576 174.5,-576 180.5,-576 186.5,-582 186.5,-588 186.5,-588 186.5,-600 186.5,-600 186.5,-606 180.5,-612 174.5,-612"/>
<text text-anchor="middle" x="107" y="-591.5" font-family="sans" font-size="10.00">qc_picard_collect_hs_metrics</text>
</g>
<!-- 26&#45;&gt;58 -->
<g id="edge95" class="edge">
<title>26&#45;&gt;58</title>
<path fill="none" stroke="grey" stroke-width="2" d="M430.61,-719.87C362.83,-693.72 233.72,-643.9 160.74,-615.74"/>
<polygon fill="grey" stroke="grey" stroke-width="2" points="161.85,-612.41 151.26,-612.08 159.33,-618.94 161.85,-612.41"/>
</g>
<!-- 59 -->
<g id="node60" class="node">
<title>59</title>
<path fill="none" stroke="#56d0d8" stroke-width="2" d="M441.5,-612C441.5,-612 216.5,-612 216.5,-612 210.5,-612 204.5,-606 204.5,-600 204.5,-600 204.5,-588 204.5,-588 204.5,-582 210.5,-576 216.5,-576 216.5,-576 441.5,-576 441.5,-576 447.5,-576 453.5,-582 453.5,-588 453.5,-588 453.5,-600 453.5,-600 453.5,-606 447.5,-612 441.5,-612"/>
<text text-anchor="middle" x="329" y="-591.5" font-family="sans" font-size="10.00">qc_picard_collect_alignment_summary_metrics</text>
</g>
<!-- 26&#45;&gt;59 -->
<g id="edge97" class="edge">
<title>26&#45;&gt;59</title>
<path fill="none" stroke="grey" stroke-width="2" d="M424.85,-719.9C405.81,-711.45 385.1,-699.65 370,-684 353.18,-666.57 342.38,-640.99 336.12,-621.72"/>
<polygon fill="grey" stroke="grey" stroke-width="2" points="339.43,-620.58 333.17,-612.03 332.73,-622.61 339.43,-620.58"/>
</g>
<!-- 61 -->
<g id="node62" class="node">
<title>61</title>
<path fill="none" stroke="#56d8c1" stroke-width="2" d="M156.5,-108C156.5,-108 65.5,-108 65.5,-108 59.5,-108 53.5,-102 53.5,-96 53.5,-96 53.5,-84 53.5,-84 53.5,-78 59.5,-72 65.5,-72 65.5,-72 156.5,-72 156.5,-72 162.5,-72 168.5,-78 168.5,-84 168.5,-84 168.5,-96 168.5,-96 168.5,-102 162.5,-108 156.5,-108"/>
<text text-anchor="middle" x="111" y="-87.5" font-family="sans" font-size="10.00">_copy_pbmm2_bam</text>
</g>
<!-- 26&#45;&gt;61 -->
<g id="edge100" class="edge">
<title>26&#45;&gt;61</title>
<path fill="none" stroke="grey" stroke-width="2" d="M401.82,-730.42C268.58,-716.39 0,-677.84 0,-595 0,-595 0,-595 0,-233 0,-182.59 43.96,-139.39 76.55,-114.29"/>
<polygon fill="grey" stroke="grey" stroke-width="2" points="79.05,-116.79 84.98,-108 74.87,-111.18 79.05,-116.79"/>
</g>
<!-- 27 -->
<g id="node28" class="node">
<title>27</title>
<path fill="none" stroke="#56d863" stroke-width="2" d="M532,-828C532,-828 418,-828 418,-828 412,-828 406,-822 406,-816 406,-816 406,-804 406,-804 406,-798 412,-792 418,-792 418,-792 532,-792 532,-792 538,-792 544,-798 544,-804 544,-804 544,-816 544,-816 544,-822 538,-828 532,-828"/>
<text text-anchor="middle" x="475" y="-807.5" font-family="sans" font-size="10.00">alignment_pbmm2_align</text>
</g>
<!-- 27&#45;&gt;26 -->
<g id="edge55" class="edge">
<title>27&#45;&gt;26</title>
<path fill="none" stroke="grey" stroke-width="2" d="M475,-791.7C475,-783.98 475,-774.71 475,-766.11"/>
<polygon fill="grey" stroke="grey" stroke-width="2" points="478.5,-766.1 475,-756.1 471.5,-766.1 478.5,-766.1"/>
</g>
<!-- 28 -->
<g id="node29" class="node">
<title>28</title>
<path fill="none" stroke="#59d856" stroke-width="2" d="M454.5,-900C454.5,-900 335.5,-900 335.5,-900 329.5,-900 323.5,-894 323.5,-888 323.5,-888 323.5,-876 323.5,-876 323.5,-870 329.5,-864 335.5,-864 335.5,-864 454.5,-864 454.5,-864 460.5,-864 466.5,-870 466.5,-876 466.5,-876 466.5,-888 466.5,-888 466.5,-894 460.5,-900 454.5,-900"/>
<text text-anchor="middle" x="395" y="-879.5" font-family="sans" font-size="10.00">prealignment_pbmarkdup</text>
</g>
<!-- 28&#45;&gt;27 -->
<g id="edge57" class="edge">
<title>28&#45;&gt;27</title>
<path fill="none" stroke="grey" stroke-width="2" d="M414.78,-863.7C424.75,-854.97 437.01,-844.24 447.86,-834.75"/>
<polygon fill="grey" stroke="grey" stroke-width="2" points="450.23,-837.32 455.45,-828.1 445.62,-832.06 450.23,-837.32"/>
</g>
<!-- 29 -->
<g id="node30" class="node">
<title>29</title>
<path fill="none" stroke="#56d892" stroke-width="2" d="M613.5,-900C613.5,-900 496.5,-900 496.5,-900 490.5,-900 484.5,-894 484.5,-888 484.5,-888 484.5,-876 484.5,-876 484.5,-870 490.5,-864 496.5,-864 496.5,-864 613.5,-864 613.5,-864 619.5,-864 625.5,-870 625.5,-876 625.5,-876 625.5,-888 625.5,-888 625.5,-894 619.5,-900 613.5,-900"/>
<text text-anchor="middle" x="555" y="-879.5" font-family="sans" font-size="10.00">alignment_pbmm2_index</text>
</g>
<!-- 29&#45;&gt;27 -->
<g id="edge56" class="edge">
<title>29&#45;&gt;27</title>
<path fill="none" stroke="grey" stroke-width="2" d="M535.22,-863.7C525.25,-854.97 512.99,-844.24 502.14,-834.75"/>
<polygon fill="grey" stroke="grey" stroke-width="2" points="504.38,-832.06 494.55,-828.1 499.77,-837.32 504.38,-832.06"/>
</g>
<!-- 30&#45;&gt;25 -->
<g id="edge54" class="edge">
<title>30&#45;&gt;25</title>
<path fill="none" stroke="grey" stroke-width="2" d="M533.89,-647.97C568.29,-638.01 611.88,-625.41 647.9,-614.99"/>
<polygon fill="grey" stroke="grey" stroke-width="2" points="649.21,-618.25 657.85,-612.11 647.27,-611.53 649.21,-618.25"/>
</g>
<!-- 30&#45;&gt;52 -->
<g id="edge86" class="edge">
<title>30&#45;&gt;52</title>
<path fill="none" stroke="grey" stroke-width="2" d="M570.6,-650.24C629.51,-640.77 706.79,-627.68 784.28,-612.08"/>
<polygon fill="grey" stroke="grey" stroke-width="2" points="785.12,-615.48 794.22,-610.07 783.73,-608.62 785.12,-615.48"/>
</g>
<!-- 30&#45;&gt;56 -->
<g id="edge94" class="edge">
<title>30&#45;&gt;56</title>
<path fill="none" stroke="grey" stroke-width="2" d="M505.33,-647.88C521.7,-638.64 542.08,-627.13 559.65,-617.21"/>
<polygon fill="grey" stroke="grey" stroke-width="2" points="561.56,-620.15 568.55,-612.19 558.12,-614.06 561.56,-620.15"/>
</g>
<!-- 30&#45;&gt;58 -->
<g id="edge96" class="edge">
<title>30&#45;&gt;58</title>
<path fill="none" stroke="grey" stroke-width="2" d="M384.51,-647.96C332.23,-638.1 264.95,-625.36 196.7,-612.32"/>
<polygon fill="grey" stroke="grey" stroke-width="2" points="197.1,-608.84 186.62,-610.4 195.79,-615.71 197.1,-608.84"/>
</g>
<!-- 30&#45;&gt;59 -->
<g id="edge98" class="edge">
<title>30&#45;&gt;59</title>
<path fill="none" stroke="grey" stroke-width="2" d="M439.28,-647.88C419.5,-638.39 394.73,-626.51 373.67,-616.42"/>
<polygon fill="grey" stroke="grey" stroke-width="2" points="375.13,-613.24 364.6,-612.07 372.1,-619.55 375.13,-613.24"/>
</g>
<!-- 31 -->
<g id="node32" class="node">
<title>31</title>
<path fill="none" stroke="#5673d8" stroke-width="2" d="M1114.5,-612C1114.5,-612 949.5,-612 949.5,-612 943.5,-612 937.5,-606 937.5,-600 937.5,-600 937.5,-588 937.5,-588 937.5,-582 943.5,-576 949.5,-576 949.5,-576 1114.5,-576 1114.5,-576 1120.5,-576 1126.5,-582 1126.5,-588 1126.5,-588 1126.5,-600 1126.5,-600 1126.5,-606 1120.5,-612 1114.5,-612"/>
<text text-anchor="middle" x="1032" y="-591.5" font-family="sans" font-size="10.00">filtering_bcftools_view_nonsomatic</text>
</g>
<!-- 31&#45;&gt;23 -->
<g id="edge51" class="edge">
<title>31&#45;&gt;23</title>
<path fill="none" stroke="grey" stroke-width="2" d="M1027.04,-575.78C1016.5,-542.46 988.62,-469.15 938,-432 879.94,-389.38 827.96,-449.73 780,-396 747.25,-359.31 763.68,-297.17 777.22,-261.78"/>
<polygon fill="grey" stroke="grey" stroke-width="2" points="780.62,-262.71 781.1,-252.13 774.12,-260.1 780.62,-262.71"/>
</g>
<!-- 31&#45;&gt;38 -->
<g id="edge68" class="edge">
<title>31&#45;&gt;38</title>
<path fill="none" stroke="grey" stroke-width="2" d="M984.54,-575.88C957.43,-566.09 923.26,-553.77 894.74,-543.47"/>
<polygon fill="grey" stroke="grey" stroke-width="2" points="895.9,-540.17 885.3,-540.07 893.52,-546.75 895.9,-540.17"/>
</g>
<!-- 32 -->
<g id="node33" class="node">
<title>32</title>
<path fill="none" stroke="#56d8a2" stroke-width="2" d="M1087,-684C1087,-684 985,-684 985,-684 979,-684 973,-678 973,-672 973,-672 973,-660 973,-660 973,-654 979,-648 985,-648 985,-648 1087,-648 1087,-648 1093,-648 1099,-654 1099,-660 1099,-660 1099,-672 1099,-672 1099,-678 1093,-684 1087,-684"/>
<text text-anchor="middle" x="1036" y="-663.5" font-family="sans" font-size="10.00">bgzip_filtered_vep_vcf</text>
</g>
<!-- 32&#45;&gt;31 -->
<g id="edge59" class="edge">
<title>32&#45;&gt;31</title>
<path fill="none" stroke="grey" stroke-width="2" d="M1035.01,-647.7C1034.57,-639.98 1034.04,-630.71 1033.55,-622.11"/>
<polygon fill="grey" stroke="grey" stroke-width="2" points="1037.04,-621.89 1032.98,-612.1 1030.05,-622.29 1037.04,-621.89"/>
</g>
<!-- 33&#45;&gt;32 -->
<g id="edge60" class="edge">
<title>33&#45;&gt;32</title>
<path fill="none" stroke="grey" stroke-width="2" d="M1068.37,-719.7C1063.37,-711.56 1057.31,-701.69 1051.79,-692.7"/>
<polygon fill="grey" stroke="grey" stroke-width="2" points="1054.72,-690.79 1046.51,-684.1 1048.76,-694.46 1054.72,-690.79"/>
</g>
<!-- 34&#45;&gt;33 -->
<g id="edge62" class="edge">
<title>34&#45;&gt;33</title>
<path fill="none" stroke="grey" stroke-width="2" d="M1132.45,-791.7C1123.77,-783.14 1113.14,-772.66 1103.65,-763.3"/>
<polygon fill="grey" stroke="grey" stroke-width="2" points="1105.93,-760.63 1096.35,-756.1 1101.01,-765.62 1105.93,-760.63"/>
</g>
<!-- 35 -->
<g id="node36" class="node">
<title>35</title>
<path fill="none" stroke="#d87556" stroke-width="2" d="M906.5,-324C906.5,-324 793.5,-324 793.5,-324 787.5,-324 781.5,-318 781.5,-312 781.5,-312 781.5,-300 781.5,-300 781.5,-294 787.5,-288 793.5,-288 793.5,-288 906.5,-288 906.5,-288 912.5,-288 918.5,-294 918.5,-300 918.5,-300 918.5,-312 918.5,-312 918.5,-318 912.5,-324 906.5,-324"/>
<text text-anchor="middle" x="850" y="-303.5" font-family="sans" font-size="10.00">cnv_sv_bgzip_cnvkit_vcf</text>
</g>
<!-- 35&#45;&gt;23 -->
<g id="edge49" class="edge">
<title>35&#45;&gt;23</title>
<path fill="none" stroke="grey" stroke-width="2" d="M834.92,-287.7C827.61,-279.3 818.69,-269.07 810.66,-259.86"/>
<polygon fill="grey" stroke="grey" stroke-width="2" points="813.11,-257.34 803.91,-252.1 807.84,-261.94 813.11,-257.34"/>
</g>
<!-- 43 -->
<g id="node44" class="node">
<title>43</title>
<path fill="none" stroke="#ced856" stroke-width="2" d="M1006,-252C1006,-252 894,-252 894,-252 888,-252 882,-246 882,-240 882,-240 882,-228 882,-228 882,-222 888,-216 894,-216 894,-216 1006,-216 1006,-216 1012,-216 1018,-222 1018,-228 1018,-228 1018,-240 1018,-240 1018,-246 1012,-252 1006,-252"/>
<text text-anchor="middle" x="950" y="-231.5" font-family="sans" font-size="10.00">cnv_sv_tabix_cnvkit_vcf</text>
</g>
<!-- 35&#45;&gt;43 -->
<g id="edge73" class="edge">
<title>35&#45;&gt;43</title>
<path fill="none" stroke="grey" stroke-width="2" d="M874.46,-287.88C887.3,-278.89 903.2,-267.76 917.09,-258.03"/>
<polygon fill="grey" stroke="grey" stroke-width="2" points="919.26,-260.79 925.44,-252.19 915.24,-255.06 919.26,-260.79"/>
</g>
<!-- 36 -->
<g id="node37" class="node">
<title>36</title>
<path fill="none" stroke="#d88556" stroke-width="2" d="M950.5,-396C950.5,-396 801.5,-396 801.5,-396 795.5,-396 789.5,-390 789.5,-384 789.5,-384 789.5,-372 789.5,-372 789.5,-366 795.5,-360 801.5,-360 801.5,-360 950.5,-360 950.5,-360 956.5,-360 962.5,-366 962.5,-372 962.5,-372 962.5,-384 962.5,-384 962.5,-390 956.5,-396 950.5,-396"/>
<text text-anchor="middle" x="876" y="-375.5" font-family="sans" font-size="10.00">annotation_annotate_cnvkit_vcf</text>
</g>
<!-- 36&#45;&gt;35 -->
<g id="edge64" class="edge">
<title>36&#45;&gt;35</title>
<path fill="none" stroke="grey" stroke-width="2" d="M869.57,-359.7C866.64,-351.81 863.11,-342.3 859.86,-333.55"/>
<polygon fill="grey" stroke="grey" stroke-width="2" points="863.12,-332.26 856.35,-324.1 856.55,-334.7 863.12,-332.26"/>
</g>
<!-- 41 -->
<g id="node42" class="node">
<title>41</title>
<path fill="none" stroke="#5692d8" stroke-width="2" d="M1079.5,-324C1079.5,-324 948.5,-324 948.5,-324 942.5,-324 936.5,-318 936.5,-312 936.5,-312 936.5,-300 936.5,-300 936.5,-294 942.5,-288 948.5,-288 948.5,-288 1079.5,-288 1079.5,-288 1085.5,-288 1091.5,-294 1091.5,-300 1091.5,-300 1091.5,-312 1091.5,-312 1091.5,-318 1085.5,-324 1079.5,-324"/>
<text text-anchor="middle" x="1014" y="-303.5" font-family="sans" font-size="10.00">_copy_annotated_cnvkit_vcf</text>
</g>
<!-- 36&#45;&gt;41 -->
<g id="edge71" class="edge">
<title>36&#45;&gt;41</title>
<path fill="none" stroke="grey" stroke-width="2" d="M909.76,-359.88C928.22,-350.51 951.28,-338.81 971.02,-328.8"/>
<polygon fill="grey" stroke="grey" stroke-width="2" points="972.78,-331.83 980.11,-324.19 969.61,-325.59 972.78,-331.83"/>
</g>
<!-- 36&#45;&gt;47 -->
<g id="edge77" class="edge">
<title>36&#45;&gt;47</title>
<path fill="none" stroke="grey" stroke-width="2" d="M962.69,-360C1021.09,-347.96 1089.51,-332.5 1101,-324 1146.95,-290.02 1174.23,-226.32 1186.74,-190.06"/>
<polygon fill="grey" stroke="grey" stroke-width="2" points="1190.19,-190.78 1190.01,-180.19 1183.54,-188.58 1190.19,-190.78"/>
</g>
<!-- 37 -->
<g id="node38" class="node">
<title>37</title>
<path fill="none" stroke="#56d873" stroke-width="2" d="M917,-468C917,-468 835,-468 835,-468 829,-468 823,-462 823,-456 823,-456 823,-444 823,-444 823,-438 829,-432 835,-432 835,-432 917,-432 917,-432 923,-432 929,-438 929,-444 929,-444 929,-456 929,-456 929,-462 923,-468 917,-468"/>
<text text-anchor="middle" x="876" y="-447.5" font-family="sans" font-size="10.00">cnv_sv_cnvkit_vcf</text>
</g>
<!-- 37&#45;&gt;36 -->
<g id="edge65" class="edge">
<title>37&#45;&gt;36</title>
<path fill="none" stroke="grey" stroke-width="2" d="M876,-431.7C876,-423.98 876,-414.71 876,-406.11"/>
<polygon fill="grey" stroke="grey" stroke-width="2" points="879.5,-406.1 876,-396.1 872.5,-406.1 879.5,-406.1"/>
</g>
<!-- 38&#45;&gt;37 -->
<g id="edge66" class="edge">
<title>38&#45;&gt;37</title>
<path fill="none" stroke="grey" stroke-width="2" d="M847.39,-503.7C851.76,-495.64 857.06,-485.89 861.9,-476.98"/>
<polygon fill="grey" stroke="grey" stroke-width="2" points="865.02,-478.56 866.71,-468.1 858.87,-475.22 865.02,-478.56"/>
</g>
<!-- 39&#45;&gt;0 -->
<g id="edge8" class="edge">
<title>39&#45;&gt;0</title>
<path fill="none" stroke="grey" stroke-width="2" d="M1837.2,-935.6C1861.36,-910.53 1901,-861.67 1901,-811 1901,-811 1901,-811 1901,-161 1901,-81.26 1285.52,-32.73 1126.26,-21.51"/>
<polygon fill="grey" stroke="grey" stroke-width="2" points="1126.24,-18 1116.02,-20.8 1125.75,-24.98 1126.24,-18"/>
</g>
<!-- 40&#45;&gt;0 -->
<g id="edge6" class="edge">
<title>40&#45;&gt;0</title>
<path fill="none" stroke="grey" stroke-width="2" d="M1756.06,-287.68C1731.93,-242.92 1660.62,-123.31 1563,-72 1487.15,-32.13 1224.15,-22.09 1126.17,-19.7"/>
<polygon fill="grey" stroke="grey" stroke-width="2" points="1126.21,-16.2 1116.13,-19.47 1126.05,-23.2 1126.21,-16.2"/>
</g>
<!-- 41&#45;&gt;0 -->
<g id="edge12" class="edge">
<title>41&#45;&gt;0</title>
<path fill="none" stroke="grey" stroke-width="2" d="M1018.5,-287.75C1028.59,-249.11 1053.78,-152.68 1075,-72 1077.21,-63.59 1079.63,-54.42 1081.82,-46.12"/>
<polygon fill="grey" stroke="grey" stroke-width="2" points="1085.28,-46.75 1084.45,-36.18 1078.51,-44.96 1085.28,-46.75"/>
</g>
<!-- 42 -->
<g id="node43" class="node">
<title>42</title>
<path fill="none" stroke="#56d8a9" stroke-width="2" d="M1007.5,-180C1007.5,-180 898.5,-180 898.5,-180 892.5,-180 886.5,-174 886.5,-168 886.5,-168 886.5,-156 886.5,-156 886.5,-150 892.5,-144 898.5,-144 898.5,-144 1007.5,-144 1007.5,-144 1013.5,-144 1019.5,-150 1019.5,-156 1019.5,-156 1019.5,-168 1019.5,-168 1019.5,-174 1013.5,-180 1007.5,-180"/>
<text text-anchor="middle" x="953" y="-159.5" font-family="sans" font-size="10.00">_copy_index_cnvkit_vcf</text>
</g>
<!-- 42&#45;&gt;0 -->
<g id="edge13" class="edge">
<title>42&#45;&gt;0</title>
<path fill="none" stroke="grey" stroke-width="2" d="M968.74,-143.77C985.3,-125.72 1012.22,-96.62 1036,-72 1045.18,-62.49 1055.42,-52.19 1064.43,-43.21"/>
<polygon fill="grey" stroke="grey" stroke-width="2" points="1067.03,-45.56 1071.66,-36.04 1062.1,-40.6 1067.03,-45.56"/>
</g>
<!-- 43&#45;&gt;42 -->
<g id="edge72" class="edge">
<title>43&#45;&gt;42</title>
<path fill="none" stroke="grey" stroke-width="2" d="M950.74,-215.7C951.07,-207.98 951.47,-198.71 951.84,-190.11"/>
<polygon fill="grey" stroke="grey" stroke-width="2" points="955.34,-190.25 952.27,-180.1 948.34,-189.95 955.34,-190.25"/>
</g>
<!-- 44&#45;&gt;0 -->
<g id="edge16" class="edge">
<title>44&#45;&gt;0</title>
<path fill="none" stroke="grey" stroke-width="2" d="M620.25,-143.95C630.07,-123.17 649.67,-88.75 678,-72 740.93,-34.78 962.98,-23.25 1051.84,-20.08"/>
<polygon fill="grey" stroke="grey" stroke-width="2" points="1052.12,-23.58 1062,-19.74 1051.88,-16.58 1052.12,-23.58"/>
</g>
<!-- 45&#45;&gt;0 -->
<g id="edge1" class="edge">
<title>45&#45;&gt;0</title>
<path fill="none" stroke="grey" stroke-width="2" d="M672.78,-504C657.14,-436.38 609.91,-184.76 742,-72 788.08,-32.67 971.89,-22.46 1051.7,-19.86"/>
<polygon fill="grey" stroke="grey" stroke-width="2" points="1051.91,-23.36 1061.8,-19.56 1051.7,-16.36 1051.91,-23.36"/>
</g>
<!-- 46 -->
<g id="node47" class="node">
<title>46</title>
<path fill="none" stroke="#97d856" stroke-width="2" d="M1227.5,-108C1227.5,-108 1140.5,-108 1140.5,-108 1134.5,-108 1128.5,-102 1128.5,-96 1128.5,-96 1128.5,-84 1128.5,-84 1128.5,-78 1134.5,-72 1140.5,-72 1140.5,-72 1227.5,-72 1227.5,-72 1233.5,-72 1239.5,-78 1239.5,-84 1239.5,-84 1239.5,-96 1239.5,-96 1239.5,-102 1233.5,-108 1227.5,-108"/>
<text text-anchor="middle" x="1184" y="-87.5" font-family="sans" font-size="10.00">_copy_excel_report</text>
</g>
<!-- 46&#45;&gt;0 -->
<g id="edge14" class="edge">
<title>46&#45;&gt;0</title>
<path fill="none" stroke="grey" stroke-width="2" d="M1160.52,-71.7C1148.44,-62.8 1133.55,-51.82 1120.48,-42.2"/>
<polygon fill="grey" stroke="grey" stroke-width="2" points="1122.34,-39.22 1112.21,-36.1 1118.19,-44.85 1122.34,-39.22"/>
</g>
<!-- 47&#45;&gt;46 -->
<g id="edge76" class="edge">
<title>47&#45;&gt;46</title>
<path fill="none" stroke="grey" stroke-width="2" d="M1192.28,-143.7C1191.07,-135.98 1189.61,-126.71 1188.26,-118.11"/>
<polygon fill="grey" stroke="grey" stroke-width="2" points="1191.7,-117.44 1186.69,-108.1 1184.78,-118.53 1191.7,-117.44"/>
</g>
<!-- 48 -->
<g id="node49" class="node">
<title>48</title>
<path fill="none" stroke="#d85e56" stroke-width="2" d="M1324,-252C1324,-252 1236,-252 1236,-252 1230,-252 1224,-246 1224,-240 1224,-240 1224,-228 1224,-228 1224,-222 1230,-216 1236,-216 1236,-216 1324,-216 1324,-216 1330,-216 1336,-222 1336,-228 1336,-228 1336,-240 1336,-240 1336,-246 1330,-252 1324,-252"/>
<text text-anchor="middle" x="1280" y="-231.5" font-family="sans" font-size="10.00">cnv_sv_svdb_query</text>
</g>
<!-- 48&#45;&gt;47 -->
<g id="edge78" class="edge">
<title>48&#45;&gt;47</title>
<path fill="none" stroke="grey" stroke-width="2" d="M1258.99,-215.7C1248.28,-206.88 1235.11,-196.03 1223.5,-186.47"/>
<polygon fill="grey" stroke="grey" stroke-width="2" points="1225.71,-183.76 1215.77,-180.1 1221.26,-189.16 1225.71,-183.76"/>
</g>
<!-- 65 -->
<g id="node66" class="node">
<title>65</title>
<path fill="none" stroke="#5663d8" stroke-width="2" d="M1415,-180C1415,-180 1303,-180 1303,-180 1297,-180 1291,-174 1291,-168 1291,-168 1291,-156 1291,-156 1291,-150 1297,-144 1303,-144 1303,-144 1415,-144 1415,-144 1421,-144 1427,-150 1427,-156 1427,-156 1427,-168 1427,-168 1427,-174 1421,-180 1415,-180"/>
<text text-anchor="middle" x="1359" y="-159.5" font-family="sans" font-size="10.00">_copy_svdb_queried_vcf</text>
</g>
<!-- 48&#45;&gt;65 -->
<g id="edge104" class="edge">
<title>48&#45;&gt;65</title>
<path fill="none" stroke="grey" stroke-width="2" d="M1299.53,-215.7C1309.38,-206.97 1321.49,-196.24 1332.2,-186.75"/>
<polygon fill="grey" stroke="grey" stroke-width="2" points="1334.53,-189.36 1339.7,-180.1 1329.89,-184.12 1334.53,-189.36"/>
</g>
<!-- 49 -->
<g id="node50" class="node">
<title>49</title>
<path fill="none" stroke="#d87d56" stroke-width="2" d="M1328,-324C1328,-324 1236,-324 1236,-324 1230,-324 1224,-318 1224,-312 1224,-312 1224,-300 1224,-300 1224,-294 1230,-288 1236,-288 1236,-288 1328,-288 1328,-288 1334,-288 1340,-294 1340,-300 1340,-300 1340,-312 1340,-312 1340,-318 1334,-324 1328,-324"/>
<text text-anchor="middle" x="1282" y="-303.5" font-family="sans" font-size="10.00">cnv_sv_svdb_merge</text>
</g>
<!-- 49&#45;&gt;48 -->
<g id="edge80" class="edge">
<title>49&#45;&gt;48</title>
<path fill="none" stroke="grey" stroke-width="2" d="M1281.51,-287.7C1281.29,-279.98 1281.02,-270.71 1280.77,-262.11"/>
<polygon fill="grey" stroke="grey" stroke-width="2" points="1284.27,-262 1280.49,-252.1 1277.28,-262.2 1284.27,-262"/>
</g>
<!-- 64 -->
<g id="node65" class="node">
<title>64</title>
<path fill="none" stroke="#56a9d8" stroke-width="2" d="M1479.5,-252C1479.5,-252 1366.5,-252 1366.5,-252 1360.5,-252 1354.5,-246 1354.5,-240 1354.5,-240 1354.5,-228 1354.5,-228 1354.5,-222 1360.5,-216 1366.5,-216 1366.5,-216 1479.5,-216 1479.5,-216 1485.5,-216 1491.5,-222 1491.5,-228 1491.5,-228 1491.5,-240 1491.5,-240 1491.5,-246 1485.5,-252 1479.5,-252"/>
<text text-anchor="middle" x="1423" y="-231.5" font-family="sans" font-size="10.00">_copy_svdb_merged_vcf</text>
</g>
<!-- 49&#45;&gt;64 -->
<g id="edge103" class="edge">
<title>49&#45;&gt;64</title>
<path fill="none" stroke="grey" stroke-width="2" d="M1316.49,-287.88C1335.44,-278.47 1359.13,-266.71 1379.36,-256.67"/>
<polygon fill="grey" stroke="grey" stroke-width="2" points="1380.97,-259.77 1388.37,-252.19 1377.86,-253.5 1380.97,-259.77"/>
</g>
<!-- 50 -->
<g id="node51" class="node">
<title>50</title>
<path fill="none" stroke="#d6d856" stroke-width="2" d="M1180.5,-396C1180.5,-396 1105.5,-396 1105.5,-396 1099.5,-396 1093.5,-390 1093.5,-384 1093.5,-384 1093.5,-372 1093.5,-372 1093.5,-366 1099.5,-360 1105.5,-360 1105.5,-360 1180.5,-360 1180.5,-360 1186.5,-360 1192.5,-366 1192.5,-372 1192.5,-372 1192.5,-384 1192.5,-384 1192.5,-390 1186.5,-396 1180.5,-396"/>
<text text-anchor="middle" x="1143" y="-375.5" font-family="sans" font-size="10.00">cnv_sv_pbsv_vcf</text>
</g>
<!-- 50&#45;&gt;49 -->
<g id="edge81" class="edge">
<title>50&#45;&gt;49</title>
<path fill="none" stroke="grey" stroke-width="2" d="M1177,-359.88C1195.6,-350.51 1218.83,-338.81 1238.71,-328.8"/>
<polygon fill="grey" stroke="grey" stroke-width="2" points="1240.51,-331.81 1247.87,-324.19 1237.36,-325.56 1240.51,-331.81"/>
</g>
<!-- 51 -->
<g id="node52" class="node">
<title>51</title>
<path fill="none" stroke="#56d89a" stroke-width="2" d="M1074.5,-468C1074.5,-468 997.5,-468 997.5,-468 991.5,-468 985.5,-462 985.5,-456 985.5,-456 985.5,-444 985.5,-444 985.5,-438 991.5,-432 997.5,-432 997.5,-432 1074.5,-432 1074.5,-432 1080.5,-432 1086.5,-438 1086.5,-444 1086.5,-444 1086.5,-456 1086.5,-456 1086.5,-462 1080.5,-468 1074.5,-468"/>
<text text-anchor="middle" x="1036" y="-447.5" font-family="sans" font-size="10.00">cnv_sv_pbsv_call</text>
</g>
<!-- 51&#45;&gt;50 -->
<g id="edge83" class="edge">
<title>51&#45;&gt;50</title>
<path fill="none" stroke="grey" stroke-width="2" d="M1062.18,-431.88C1076.04,-422.81 1093.24,-411.55 1108.21,-401.76"/>
<polygon fill="grey" stroke="grey" stroke-width="2" points="1110.27,-404.59 1116.72,-396.19 1106.44,-398.74 1110.27,-404.59"/>
</g>
<!-- 63 -->
<g id="node64" class="node">
<title>63</title>
<path fill="none" stroke="#88d856" stroke-width="2" d="M1063,-396C1063,-396 993,-396 993,-396 987,-396 981,-390 981,-384 981,-384 981,-372 981,-372 981,-366 987,-360 993,-360 993,-360 1063,-360 1063,-360 1069,-360 1075,-366 1075,-372 1075,-372 1075,-384 1075,-384 1075,-390 1069,-396 1063,-396"/>
<text text-anchor="middle" x="1028" y="-375.5" font-family="sans" font-size="10.00">_copy_pbsv_vcf</text>
</g>
<!-- 51&#45;&gt;63 -->
<g id="edge102" class="edge">
<title>51&#45;&gt;63</title>
<path fill="none" stroke="grey" stroke-width="2" d="M1034.02,-431.7C1033.14,-423.98 1032.08,-414.71 1031.1,-406.11"/>
<polygon fill="grey" stroke="grey" stroke-width="2" points="1034.57,-405.64 1029.95,-396.1 1027.61,-406.44 1034.57,-405.64"/>
</g>
<!-- 52&#45;&gt;51 -->
<g id="edge84" class="edge">
<title>52&#45;&gt;51</title>
<path fill="none" stroke="grey" stroke-width="2" d="M878.59,-575.87C910.44,-550.6 970.13,-503.25 1006.15,-474.68"/>
<polygon fill="grey" stroke="grey" stroke-width="2" points="1008.67,-477.15 1014.33,-468.19 1004.32,-471.66 1008.67,-477.15"/>
</g>
<!-- 53&#45;&gt;49 -->
<g id="edge82" class="edge">
<title>53&#45;&gt;49</title>
<path fill="none" stroke="grey" stroke-width="2" d="M1412.68,-359.88C1388.82,-350.22 1358.83,-338.09 1333.6,-327.88"/>
<polygon fill="grey" stroke="grey" stroke-width="2" points="1334.77,-324.57 1324.18,-324.07 1332.14,-331.06 1334.77,-324.57"/>
</g>
<!-- 54 -->
<g id="node55" class="node">
<title>54</title>
<path fill="none" stroke="#56b9d8" stroke-width="2" d="M458.5,-108C458.5,-108 333.5,-108 333.5,-108 327.5,-108 321.5,-102 321.5,-96 321.5,-96 321.5,-84 321.5,-84 321.5,-78 327.5,-72 333.5,-72 333.5,-72 458.5,-72 458.5,-72 464.5,-72 470.5,-78 470.5,-84 470.5,-84 470.5,-96 470.5,-96 470.5,-102 464.5,-108 458.5,-108"/>
<text text-anchor="middle" x="396" y="-87.5" font-family="sans" font-size="10.00">_copy_multiqc_html_report</text>
</g>
<!-- 54&#45;&gt;0 -->
<g id="edge3" class="edge">
<title>54&#45;&gt;0</title>
<path fill="none" stroke="grey" stroke-width="2" d="M470.59,-73.3C473.42,-72.84 476.23,-72.4 479,-72 694.72,-40.64 956.25,-25.51 1051.78,-20.74"/>
<polygon fill="grey" stroke="grey" stroke-width="2" points="1052,-24.23 1061.81,-20.24 1051.65,-17.24 1052,-24.23"/>
</g>
<!-- 55 -->
<g id="node56" class="node">
<title>55</title>
<path fill="none" stroke="#568ad8" stroke-width="2" d="M443,-540C443,-540 349,-540 349,-540 343,-540 337,-534 337,-528 337,-528 337,-516 337,-516 337,-510 343,-504 349,-504 349,-504 443,-504 443,-504 449,-504 455,-510 455,-516 455,-516 455,-528 455,-528 455,-534 449,-540 443,-540"/>
<text text-anchor="middle" x="396" y="-519.5" font-family="sans" font-size="10.00">qc_multiqc_longread</text>
</g>
<!-- 55&#45;&gt;54 -->
<g id="edge88" class="edge">
<title>55&#45;&gt;54</title>
<path fill="none" stroke="grey" stroke-width="2" d="M396,-503.95C396,-477.29 396,-424.11 396,-379 396,-379 396,-379 396,-233 396,-193 396,-146.65 396,-118.08"/>
<polygon fill="grey" stroke="grey" stroke-width="2" points="399.5,-118.05 396,-108.05 392.5,-118.05 399.5,-118.05"/>
</g>
<!-- 56&#45;&gt;55 -->
<g id="edge91" class="edge">
<title>56&#45;&gt;55</title>
<path fill="none" stroke="grey" stroke-width="2" d="M557.92,-578.83C528.4,-568.65 488.15,-554.77 455.16,-543.4"/>
<polygon fill="grey" stroke="grey" stroke-width="2" points="456.22,-540.06 445.63,-540.11 453.94,-546.68 456.22,-540.06"/>
</g>
<!-- 60 -->
<g id="node61" class="node">
<title>60</title>
<path fill="none" stroke="#d86e56" stroke-width="2" d="M613.5,-108C613.5,-108 500.5,-108 500.5,-108 494.5,-108 488.5,-102 488.5,-96 488.5,-96 488.5,-84 488.5,-84 488.5,-78 494.5,-72 500.5,-72 500.5,-72 613.5,-72 613.5,-72 619.5,-72 625.5,-78 625.5,-84 625.5,-84 625.5,-96 625.5,-96 625.5,-102 619.5,-108 613.5,-108"/>
<text text-anchor="middle" x="557" y="-87.5" font-family="sans" font-size="10.00">_copy_coverage_regions</text>
</g>
<!-- 56&#45;&gt;60 -->
<g id="edge99" class="edge">
<title>56&#45;&gt;60</title>
<path fill="none" stroke="grey" stroke-width="2" d="M585.22,-575.79C566.14,-550.18 534,-499.8 534,-451 534,-451 534,-451 534,-233 534,-192.7 543.14,-146.78 549.9,-118.34"/>
<polygon fill="grey" stroke="grey" stroke-width="2" points="553.37,-118.89 552.35,-108.34 546.57,-117.22 553.37,-118.89"/>
</g>
<!-- 57 -->
<g id="node58" class="node">
<title>57</title>
<path fill="none" stroke="#bed856" stroke-width="2" d="M528,-612C528,-612 484,-612 484,-612 478,-612 472,-606 472,-600 472,-600 472,-588 472,-588 472,-582 478,-576 484,-576 484,-576 528,-576 528,-576 534,-576 540,-582 540,-588 540,-588 540,-600 540,-600 540,-606 534,-612 528,-612"/>
<text text-anchor="middle" x="506" y="-591.5" font-family="sans" font-size="10.00">qc_sequali</text>
</g>
<!-- 57&#45;&gt;55 -->
<g id="edge92" class="edge">
<title>57&#45;&gt;55</title>
<path fill="none" stroke="grey" stroke-width="2" d="M479.09,-575.88C464.84,-566.81 447.15,-555.55 431.76,-545.76"/>
<polygon fill="grey" stroke="grey" stroke-width="2" points="433.33,-542.61 423.01,-540.19 429.57,-548.51 433.33,-542.61"/>
</g>
<!-- 58&#45;&gt;55 -->
<g id="edge90" class="edge">
<title>58&#45;&gt;55</title>
<path fill="none" stroke="grey" stroke-width="2" d="M177.33,-575.97C222.78,-564.96 281.67,-550.69 326.88,-539.74"/>
<polygon fill="grey" stroke="grey" stroke-width="2" points="327.7,-543.14 336.6,-537.39 326.06,-536.34 327.7,-543.14"/>
</g>
<!-- 59&#45;&gt;55 -->
<g id="edge89" class="edge">
<title>59&#45;&gt;55</title>
<path fill="none" stroke="grey" stroke-width="2" d="M345.56,-575.7C353.68,-567.22 363.59,-556.86 372.47,-547.58"/>
<polygon fill="grey" stroke="grey" stroke-width="2" points="375.24,-549.75 379.63,-540.1 370.19,-544.91 375.24,-549.75"/>
</g>
<!-- 60&#45;&gt;0 -->
<g id="edge2" class="edge">
<title>60&#45;&gt;0</title>
<path fill="none" stroke="grey" stroke-width="2" d="M625.76,-74.45C630.57,-73.58 635.35,-72.75 640,-72 791.91,-47.52 974.45,-29.45 1051.63,-22.33"/>
<polygon fill="grey" stroke="grey" stroke-width="2" points="1052.17,-25.8 1061.81,-21.4 1051.53,-18.83 1052.17,-25.8"/>
</g>
<!-- 61&#45;&gt;0 -->
<g id="edge15" class="edge">
<title>61&#45;&gt;0</title>
<path fill="none" stroke="grey" stroke-width="2" d="M168.6,-83.88C208.77,-80.37 263.64,-75.69 312,-72 596.39,-50.28 939.67,-28.37 1051.7,-21.33"/>
<polygon fill="grey" stroke="grey" stroke-width="2" points="1052.04,-24.81 1061.81,-20.69 1051.61,-17.83 1052.04,-24.81"/>
</g>
<!-- 62&#45;&gt;0 -->
<g id="edge4" class="edge">
<title>62&#45;&gt;0</title>
<path fill="none" stroke="grey" stroke-width="2" d="M1934.99,-1439.96C1936.44,-1413.31 1939,-1360.14 1939,-1315 1939,-1315 1939,-1315 1939,-161 1939,-118.31 2163.52,-172.54 1733,-72 1507.17,-19.26 1226.14,-17.14 1126.3,-18.27"/>
<polygon fill="grey" stroke="grey" stroke-width="2" points="1126.08,-14.78 1116.12,-18.41 1126.17,-21.78 1126.08,-14.78"/>
</g>
<!-- 63&#45;&gt;0 -->
<g id="edge7" class="edge">
<title>63&#45;&gt;0</title>
<path fill="none" stroke="grey" stroke-width="2" d="M1064.51,-359.92C1078.6,-351.29 1093.18,-339.35 1101,-324 1113.39,-299.69 1098.07,-117.04 1091.61,-46.6"/>
<polygon fill="grey" stroke="grey" stroke-width="2" points="1095.07,-45.93 1090.66,-36.3 1088.1,-46.58 1095.07,-45.93"/>
</g>
<!-- 64&#45;&gt;0 -->
<g id="edge5" class="edge">
<title>64&#45;&gt;0</title>
<path fill="none" stroke="grey" stroke-width="2" d="M1431.79,-215.88C1440.2,-196.87 1449.75,-165.98 1436,-144 1369.48,-37.67 1201.62,-20.88 1126.43,-18.85"/>
<polygon fill="grey" stroke="grey" stroke-width="2" points="1126.1,-15.34 1116.03,-18.65 1125.97,-22.34 1126.1,-15.34"/>
</g>
<!-- 65&#45;&gt;0 -->
<g id="edge17" class="edge">
<title>65&#45;&gt;0</title>
<path fill="none" stroke="grey" stroke-width="2" d="M1341.78,-143.7C1321.27,-123.93 1285.22,-91.79 1249,-72 1209.44,-50.38 1159.55,-35.59 1126.09,-27.24"/>
<polygon fill="grey" stroke="grey" stroke-width="2" points="1126.8,-23.81 1116.26,-24.85 1125.15,-30.61 1126.8,-23.81"/>
</g>
</g>
</svg>
