<?xml version="1.0" encoding="UTF-8" standalone="no"?>
<!DOCTYPE svg PUBLIC "-//W3C//DTD SVG 1.1//EN"
 "http://www.w3.org/Graphics/SVG/1.1/DTD/svg11.dtd">
<!-- Generated by graphviz version 12.2.1 (20241206.2353)
 -->
<!-- Title: snakemake_dag Pages: 1 -->
<svg width="934pt" height="1086pt"
 viewBox="0.00 0.00 933.75 1086.00" xmlns="http://www.w3.org/2000/svg" xmlns:xlink="http://www.w3.org/1999/xlink">
<g id="graph0" class="graph" transform="scale(1 1) rotate(0) translate(4 1082)">
<title>snakemake_dag</title>
<polygon fill="white" stroke="none" points="-4,4 -4,-1082 929.75,-1082 929.75,4 -4,4"/>
<!-- 0 -->
<g id="node1" class="node">
<title>0</title>
<path fill="none" stroke="#56d8c9" stroke-width="2" d="M547.75,-36C547.75,-36 517.75,-36 517.75,-36 511.75,-36 505.75,-30 505.75,-24 505.75,-24 505.75,-12 505.75,-12 505.75,-6 511.75,0 517.75,0 517.75,0 547.75,0 547.75,0 553.75,0 559.75,-6 559.75,-12 559.75,-12 559.75,-24 559.75,-24 559.75,-30 553.75,-36 547.75,-36"/>
<text text-anchor="middle" x="532.75" y="-14.12" font-family="sans" font-size="10.00">all</text>
</g>
<!-- 1 -->
<g id="node2" class="node">
<title>1</title>
<path fill="none" stroke="#d8a456" stroke-width="2" d="M95.5,-108C95.5,-108 12,-108 12,-108 6,-108 0,-102 0,-96 0,-96 0,-84 0,-84 0,-78 6,-72 12,-72 12,-72 95.5,-72 95.5,-72 101.5,-72 107.5,-78 107.5,-84 107.5,-84 107.5,-96 107.5,-96 107.5,-102 101.5,-108 95.5,-108"/>
<text text-anchor="middle" x="53.75" y="-91.75" font-family="sans" font-size="10.00">_copy_indel_vcf</text>
<text text-anchor="middle" x="53.75" y="-80.5" font-family="sans" font-size="10.00">sample: 2022.MM.16</text>
</g>
<!-- 1&#45;&gt;0 -->
<g id="edge1" class="edge">
<title>1&#45;&gt;0</title>
<path fill="none" stroke="grey" stroke-width="2" d="M108.23,-81.04C205.29,-66.85 406,-37.52 492.09,-24.94"/>
<polygon fill="grey" stroke="grey" stroke-width="2" points="492.5,-28.42 501.89,-23.51 491.49,-21.49 492.5,-28.42"/>
</g>
<!-- 2 -->
<g id="node3" class="node">
<title>2</title>
<path fill="none" stroke="#56c9d8" stroke-width="2" d="M294.12,-545.75C294.12,-545.75 139.38,-545.75 139.38,-545.75 133.38,-545.75 127.38,-539.75 127.38,-533.75 127.38,-533.75 127.38,-521.75 127.38,-521.75 127.38,-515.75 133.38,-509.75 139.38,-509.75 139.38,-509.75 294.12,-509.75 294.12,-509.75 300.12,-509.75 306.12,-515.75 306.12,-521.75 306.12,-521.75 306.12,-533.75 306.12,-533.75 306.12,-539.75 300.12,-545.75 294.12,-545.75"/>
<text text-anchor="middle" x="216.75" y="-529.5" font-family="sans" font-size="10.00">filtering_bcftools_filter_include_region</text>
<text text-anchor="middle" x="216.75" y="-518.25" font-family="sans" font-size="10.00">tag: panel</text>
</g>
<!-- 2&#45;&gt;1 -->
<g id="edge11" class="edge">
<title>2&#45;&gt;1</title>
<path fill="none" stroke="grey" stroke-width="2" d="M157.77,-508.77C103.95,-488.27 32.75,-449.01 32.75,-384.75 32.75,-384.75 32.75,-384.75 32.75,-233 32.75,-194.06 40.57,-149.75 46.67,-121.14"/>
<polygon fill="grey" stroke="grey" stroke-width="2" points="50,-122.28 48.74,-111.76 43.17,-120.77 50,-122.28"/>
</g>
<!-- 3 -->
<g id="node4" class="node">
<title>3</title>
<path fill="none" stroke="#a7d856" stroke-width="2" d="M431.62,-689.75C431.62,-689.75 315.88,-689.75 315.88,-689.75 309.88,-689.75 303.88,-683.75 303.88,-677.75 303.88,-677.75 303.88,-665.75 303.88,-665.75 303.88,-659.75 309.88,-653.75 315.88,-653.75 315.88,-653.75 431.62,-653.75 431.62,-653.75 437.62,-653.75 443.62,-659.75 443.62,-665.75 443.62,-665.75 443.62,-677.75 443.62,-677.75 443.62,-683.75 437.62,-689.75 431.62,-689.75"/>
<text text-anchor="middle" x="373.75" y="-667.88" font-family="sans" font-size="10.00">annotation_whatshap_phase</text>
</g>
<!-- 3&#45;&gt;2 -->
<g id="edge12" class="edge">
<title>3&#45;&gt;2</title>
<path fill="none" stroke="grey" stroke-width="2" d="M303.2,-658.12C278.62,-650.35 252.93,-637.84 235.75,-617.75 222.1,-601.78 217.51,-578.4 216.24,-559.61"/>
<polygon fill="grey" stroke="grey" stroke-width="2" points="219.74,-559.53 215.92,-549.65 212.74,-559.76 219.74,-559.53"/>
</g>
<!-- 10 -->
<g id="node11" class="node">
<title>10</title>
<path fill="none" stroke="#d8cb56" stroke-width="2" d="M490.5,-617.75C490.5,-617.75 257,-617.75 257,-617.75 251,-617.75 245,-611.75 245,-605.75 245,-605.75 245,-593.75 245,-593.75 245,-587.75 251,-581.75 257,-581.75 257,-581.75 490.5,-581.75 490.5,-581.75 496.5,-581.75 502.5,-587.75 502.5,-593.75 502.5,-593.75 502.5,-605.75 502.5,-605.75 502.5,-611.75 496.5,-617.75 490.5,-617.75"/>
<text text-anchor="middle" x="373.75" y="-601.5" font-family="sans" font-size="10.00">cnv_sv_tabix</text>
<text text-anchor="middle" x="373.75" y="-590.25" font-family="sans" font-size="10.00">file: annotation/whatshap_phase/2022.MM.16_T.phased</text>
</g>
<!-- 3&#45;&gt;10 -->
<g id="edge23" class="edge">
<title>3&#45;&gt;10</title>
<path fill="none" stroke="grey" stroke-width="2" d="M373.75,-653.09C373.75,-646.5 373.75,-638.83 373.75,-631.42"/>
<polygon fill="grey" stroke="grey" stroke-width="2" points="377.25,-631.68 373.75,-621.68 370.25,-631.68 377.25,-631.68"/>
</g>
<!-- 15 -->
<g id="node16" class="node">
<title>15</title>
<path fill="none" stroke="#56d88a" stroke-width="2" d="M631.88,-545.75C631.88,-545.75 505.62,-545.75 505.62,-545.75 499.62,-545.75 493.62,-539.75 493.62,-533.75 493.62,-533.75 493.62,-521.75 493.62,-521.75 493.62,-515.75 499.62,-509.75 505.62,-509.75 505.62,-509.75 631.88,-509.75 631.88,-509.75 637.88,-509.75 643.88,-515.75 643.88,-521.75 643.88,-521.75 643.88,-533.75 643.88,-533.75 643.88,-539.75 637.88,-545.75 631.88,-545.75"/>
<text text-anchor="middle" x="568.75" y="-523.88" font-family="sans" font-size="10.00">annotation_whatshap_haplotag</text>
</g>
<!-- 3&#45;&gt;15 -->
<g id="edge32" class="edge">
<title>3&#45;&gt;15</title>
<path fill="none" stroke="grey" stroke-width="2" d="M444.29,-653.26C467.46,-645.13 492.26,-633.64 511.75,-617.75 531.23,-601.87 546.19,-577.5 555.88,-558.27"/>
<polygon fill="grey" stroke="grey" stroke-width="2" points="559.03,-559.79 560.18,-549.25 552.72,-556.77 559.03,-559.79"/>
</g>
<!-- 4 -->
<g id="node5" class="node">
<title>4</title>
<path fill="none" stroke="#5663d8" stroke-width="2" d="M567.62,-833.75C567.62,-833.75 385.88,-833.75 385.88,-833.75 379.88,-833.75 373.88,-827.75 373.88,-821.75 373.88,-821.75 373.88,-809.75 373.88,-809.75 373.88,-803.75 379.88,-797.75 385.88,-797.75 385.88,-797.75 567.62,-797.75 567.62,-797.75 573.62,-797.75 579.62,-803.75 579.62,-809.75 579.62,-809.75 579.62,-821.75 579.62,-821.75 579.62,-827.75 573.62,-833.75 567.62,-833.75"/>
<text text-anchor="middle" x="476.75" y="-817.5" font-family="sans" font-size="10.00">alignment_samtools_index_pbmm2</text>
<text text-anchor="middle" x="476.75" y="-806.25" font-family="sans" font-size="10.00">file: alignment/pbmm2_align/2022.MM.16_T</text>
</g>
<!-- 4&#45;&gt;3 -->
<g id="edge14" class="edge">
<title>4&#45;&gt;3</title>
<path fill="none" stroke="grey" stroke-width="2" d="M477.42,-796.76C477.25,-777.54 474.39,-746.99 459.75,-725.75 451.82,-714.25 440.51,-704.78 428.68,-697.19"/>
<polygon fill="grey" stroke="grey" stroke-width="2" points="430.75,-694.34 420.36,-692.27 427.19,-700.37 430.75,-694.34"/>
</g>
<!-- 9 -->
<g id="node10" class="node">
<title>9</title>
<path fill="none" stroke="#59d856" stroke-width="2" d="M439.12,-761.75C439.12,-761.75 308.38,-761.75 308.38,-761.75 302.38,-761.75 296.38,-755.75 296.38,-749.75 296.38,-749.75 296.38,-737.75 296.38,-737.75 296.38,-731.75 302.38,-725.75 308.38,-725.75 308.38,-725.75 439.12,-725.75 439.12,-725.75 445.12,-725.75 451.12,-731.75 451.12,-737.75 451.12,-737.75 451.12,-749.75 451.12,-749.75 451.12,-755.75 445.12,-761.75 439.12,-761.75"/>
<text text-anchor="middle" x="373.75" y="-739.88" font-family="sans" font-size="10.00">snv_indels_deepsomatic_t_only</text>
</g>
<!-- 4&#45;&gt;9 -->
<g id="edge22" class="edge">
<title>4&#45;&gt;9</title>
<path fill="none" stroke="grey" stroke-width="2" d="M450.49,-796.9C438.39,-788.68 423.81,-778.77 410.62,-769.81"/>
<polygon fill="grey" stroke="grey" stroke-width="2" points="412.7,-766.99 402.46,-764.26 408.77,-772.78 412.7,-766.99"/>
</g>
<!-- 4&#45;&gt;15 -->
<g id="edge30" class="edge">
<title>4&#45;&gt;15</title>
<path fill="none" stroke="grey" stroke-width="2" d="M482.63,-796.84C493.97,-762.26 519.61,-683.86 540.75,-617.75 547.01,-598.17 553.94,-576.14 559.34,-558.9"/>
<polygon fill="grey" stroke="grey" stroke-width="2" points="562.67,-559.97 562.32,-549.38 555.99,-557.88 562.67,-559.97"/>
</g>
<!-- 5 -->
<g id="node6" class="node">
<title>5</title>
<path fill="none" stroke="#56a9d8" stroke-width="2" d="M462.62,-905.75C462.62,-905.75 358.88,-905.75 358.88,-905.75 352.88,-905.75 346.88,-899.75 346.88,-893.75 346.88,-893.75 346.88,-881.75 346.88,-881.75 346.88,-875.75 352.88,-869.75 358.88,-869.75 358.88,-869.75 462.62,-869.75 462.62,-869.75 468.62,-869.75 474.62,-875.75 474.62,-881.75 474.62,-881.75 474.62,-893.75 474.62,-893.75 474.62,-899.75 468.62,-905.75 462.62,-905.75"/>
<text text-anchor="middle" x="410.75" y="-883.88" font-family="sans" font-size="10.00">alignment_pbmm2_merge</text>
</g>
<!-- 5&#45;&gt;3 -->
<g id="edge15" class="edge">
<title>5&#45;&gt;3</title>
<path fill="none" stroke="grey" stroke-width="2" d="M383.09,-868.85C353,-847.52 306.65,-808.79 287.75,-761.75 281.78,-746.9 279.95,-739.72 287.75,-725.75 294.23,-714.15 304.41,-704.77 315.53,-697.31"/>
<polygon fill="grey" stroke="grey" stroke-width="2" points="317.05,-700.48 323.8,-692.31 313.43,-694.49 317.05,-700.48"/>
</g>
<!-- 5&#45;&gt;4 -->
<g id="edge17" class="edge">
<title>5&#45;&gt;4</title>
<path fill="none" stroke="grey" stroke-width="2" d="M427.4,-869.09C434.54,-861.52 443.04,-852.5 450.96,-844.1"/>
<polygon fill="grey" stroke="grey" stroke-width="2" points="453.48,-846.53 457.79,-836.85 448.39,-841.73 453.48,-846.53"/>
</g>
<!-- 5&#45;&gt;9 -->
<g id="edge21" class="edge">
<title>5&#45;&gt;9</title>
<path fill="none" stroke="grey" stroke-width="2" d="M389.44,-868.89C379.95,-859.53 369.78,-847.22 364.75,-833.75 357.78,-815.08 360.06,-792.77 364.06,-775.16"/>
<polygon fill="grey" stroke="grey" stroke-width="2" points="367.4,-776.23 366.57,-765.67 360.63,-774.45 367.4,-776.23"/>
</g>
<!-- 5&#45;&gt;15 -->
<g id="edge31" class="edge">
<title>5&#45;&gt;15</title>
<path fill="none" stroke="grey" stroke-width="2" d="M475.25,-883.5C513.45,-878.13 559.87,-865.01 588.75,-833.75 616.2,-804.04 607.75,-785.2 607.75,-744.75 607.75,-744.75 607.75,-744.75 607.75,-670.75 607.75,-630.84 593.25,-586.81 581.93,-558.52"/>
<polygon fill="grey" stroke="grey" stroke-width="2" points="585.25,-557.38 578.18,-549.49 578.79,-560.07 585.25,-557.38"/>
</g>
<!-- 6 -->
<g id="node7" class="node">
<title>6</title>
<path fill="none" stroke="#d87556" stroke-width="2" d="M459.25,-977.75C459.25,-977.75 362.25,-977.75 362.25,-977.75 356.25,-977.75 350.25,-971.75 350.25,-965.75 350.25,-965.75 350.25,-953.75 350.25,-953.75 350.25,-947.75 356.25,-941.75 362.25,-941.75 362.25,-941.75 459.25,-941.75 459.25,-941.75 465.25,-941.75 471.25,-947.75 471.25,-953.75 471.25,-953.75 471.25,-965.75 471.25,-965.75 471.25,-971.75 465.25,-977.75 459.25,-977.75"/>
<text text-anchor="middle" x="410.75" y="-955.88" font-family="sans" font-size="10.00">alignment_pbmm2_align</text>
</g>
<!-- 6&#45;&gt;5 -->
<g id="edge18" class="edge">
<title>6&#45;&gt;5</title>
<path fill="none" stroke="grey" stroke-width="2" d="M410.75,-941.09C410.75,-934.5 410.75,-926.83 410.75,-919.42"/>
<polygon fill="grey" stroke="grey" stroke-width="2" points="414.25,-919.68 410.75,-909.68 407.25,-919.68 414.25,-919.68"/>
</g>
<!-- 7 -->
<g id="node8" class="node">
<title>7</title>
<path fill="none" stroke="#568ad8" stroke-width="2" d="M412.75,-1078C412.75,-1078 222.75,-1078 222.75,-1078 216.75,-1078 210.75,-1072 210.75,-1066 210.75,-1066 210.75,-1025.75 210.75,-1025.75 210.75,-1019.75 216.75,-1013.75 222.75,-1013.75 222.75,-1013.75 412.75,-1013.75 412.75,-1013.75 418.75,-1013.75 424.75,-1019.75 424.75,-1025.75 424.75,-1025.75 424.75,-1066 424.75,-1066 424.75,-1072 418.75,-1078 412.75,-1078"/>
<text text-anchor="middle" x="317.75" y="-1064.5" font-family="sans" font-size="10.00">prealignment_pbmarkdup</text>
<text text-anchor="middle" x="317.75" y="-1053.25" font-family="sans" font-size="10.00">barcode: NAS</text>
<text text-anchor="middle" x="317.75" y="-1042" font-family="sans" font-size="10.00">processing_unit: m84045_231122_151755_s3</text>
<text text-anchor="middle" x="317.75" y="-1030.75" font-family="sans" font-size="10.00">sample: 2022.MM.16</text>
<text text-anchor="middle" x="317.75" y="-1019.5" font-family="sans" font-size="10.00">type: T</text>
</g>
<!-- 7&#45;&gt;6 -->
<g id="edge19" class="edge">
<title>7&#45;&gt;6</title>
<path fill="none" stroke="grey" stroke-width="2" d="M353.17,-1012.83C362.5,-1004.4 372.45,-995.39 381.42,-987.28"/>
<polygon fill="grey" stroke="grey" stroke-width="2" points="383.72,-989.92 388.79,-980.62 379.02,-984.73 383.72,-989.92"/>
</g>
<!-- 8 -->
<g id="node9" class="node">
<title>8</title>
<path fill="none" stroke="#68d856" stroke-width="2" d="M554.75,-1063.88C554.75,-1063.88 454.75,-1063.88 454.75,-1063.88 448.75,-1063.88 442.75,-1057.88 442.75,-1051.88 442.75,-1051.88 442.75,-1039.88 442.75,-1039.88 442.75,-1033.88 448.75,-1027.88 454.75,-1027.88 454.75,-1027.88 554.75,-1027.88 554.75,-1027.88 560.75,-1027.88 566.75,-1033.88 566.75,-1039.88 566.75,-1039.88 566.75,-1051.88 566.75,-1051.88 566.75,-1057.88 560.75,-1063.88 554.75,-1063.88"/>
<text text-anchor="middle" x="504.75" y="-1042" font-family="sans" font-size="10.00">alignment_pbmm2_index</text>
</g>
<!-- 8&#45;&gt;6 -->
<g id="edge20" class="edge">
<title>8&#45;&gt;6</title>
<path fill="none" stroke="grey" stroke-width="2" d="M484.82,-1027.03C471.85,-1015.43 454.73,-1000.11 440.21,-987.11"/>
<polygon fill="grey" stroke="grey" stroke-width="2" points="442.7,-984.64 432.91,-980.58 438.03,-989.86 442.7,-984.64"/>
</g>
<!-- 9&#45;&gt;3 -->
<g id="edge16" class="edge">
<title>9&#45;&gt;3</title>
<path fill="none" stroke="grey" stroke-width="2" d="M373.75,-725.09C373.75,-718.5 373.75,-710.83 373.75,-703.42"/>
<polygon fill="grey" stroke="grey" stroke-width="2" points="377.25,-703.68 373.75,-693.68 370.25,-703.68 377.25,-703.68"/>
</g>
<!-- 10&#45;&gt;2 -->
<g id="edge13" class="edge">
<title>10&#45;&gt;2</title>
<path fill="none" stroke="grey" stroke-width="2" d="M333.73,-580.9C313.96,-572.09 289.88,-561.36 268.71,-551.92"/>
<polygon fill="grey" stroke="grey" stroke-width="2" points="270.3,-548.79 259.74,-547.92 267.45,-555.19 270.3,-548.79"/>
</g>
<!-- 10&#45;&gt;15 -->
<g id="edge29" class="edge">
<title>10&#45;&gt;15</title>
<path fill="none" stroke="grey" stroke-width="2" d="M423.71,-580.81C449.06,-571.72 480.08,-560.58 506.91,-550.95"/>
<polygon fill="grey" stroke="grey" stroke-width="2" points="507.84,-554.33 516.07,-547.66 505.47,-547.75 507.84,-554.33"/>
</g>
<!-- 11 -->
<g id="node12" class="node">
<title>11</title>
<path fill="none" stroke="#56d89a" stroke-width="2" d="M533.5,-108C533.5,-108 450,-108 450,-108 444,-108 438,-102 438,-96 438,-96 438,-84 438,-84 438,-78 444,-72 450,-72 450,-72 533.5,-72 533.5,-72 539.5,-72 545.5,-78 545.5,-84 545.5,-84 545.5,-96 545.5,-96 545.5,-102 539.5,-108 533.5,-108"/>
<text text-anchor="middle" x="491.75" y="-91.75" font-family="sans" font-size="10.00">_copy_pbsv_vcf</text>
<text text-anchor="middle" x="491.75" y="-80.5" font-family="sans" font-size="10.00">sample: 2022.MM.16</text>
</g>
<!-- 11&#45;&gt;0 -->
<g id="edge2" class="edge">
<title>11&#45;&gt;0</title>
<path fill="none" stroke="grey" stroke-width="2" d="M502.1,-71.34C506.24,-64.26 511.12,-55.92 515.76,-48"/>
<polygon fill="grey" stroke="grey" stroke-width="2" points="518.7,-49.91 520.73,-39.51 512.66,-46.37 518.7,-49.91"/>
</g>
<!-- 12 -->
<g id="node13" class="node">
<title>12</title>
<path fill="none" stroke="#d86656" stroke-width="2" d="M493.5,-252C493.5,-252 350,-252 350,-252 344,-252 338,-246 338,-240 338,-240 338,-228 338,-228 338,-222 344,-216 350,-216 350,-216 493.5,-216 493.5,-216 499.5,-216 505.5,-222 505.5,-228 505.5,-228 505.5,-240 505.5,-240 505.5,-246 499.5,-252 493.5,-252"/>
<text text-anchor="middle" x="421.75" y="-235.75" font-family="sans" font-size="10.00">cnv_sv_bgzip</text>
<text text-anchor="middle" x="421.75" y="-224.5" font-family="sans" font-size="10.00">file: cnv_sv/pbsv_call/2022.MM.16</text>
</g>
<!-- 12&#45;&gt;11 -->
<g id="edge24" class="edge">
<title>12&#45;&gt;11</title>
<path fill="none" stroke="grey" stroke-width="2" d="M430.62,-215.02C442.34,-191.22 463.17,-148.97 477.22,-120.48"/>
<polygon fill="grey" stroke="grey" stroke-width="2" points="480.34,-122.07 481.62,-111.55 474.06,-118.98 480.34,-122.07"/>
</g>
<!-- 13 -->
<g id="node14" class="node">
<title>13</title>
<path fill="none" stroke="#d85656" stroke-width="2" d="M532.75,-326.88C532.75,-326.88 462.75,-326.88 462.75,-326.88 456.75,-326.88 450.75,-320.88 450.75,-314.88 450.75,-314.88 450.75,-302.88 450.75,-302.88 450.75,-296.88 456.75,-290.88 462.75,-290.88 462.75,-290.88 532.75,-290.88 532.75,-290.88 538.75,-290.88 544.75,-296.88 544.75,-302.88 544.75,-302.88 544.75,-314.88 544.75,-314.88 544.75,-320.88 538.75,-326.88 532.75,-326.88"/>
<text text-anchor="middle" x="497.75" y="-305" font-family="sans" font-size="10.00">cnv_sv_pbsv_call</text>
</g>
<!-- 13&#45;&gt;12 -->
<g id="edge25" class="edge">
<title>13&#45;&gt;12</title>
<path fill="none" stroke="grey" stroke-width="2" d="M479.35,-290.23C470.43,-281.68 459.52,-271.22 449.61,-261.71"/>
<polygon fill="grey" stroke="grey" stroke-width="2" points="452.33,-259.47 442.69,-255.08 447.49,-264.53 452.33,-259.47"/>
</g>
<!-- 14 -->
<g id="node15" class="node">
<title>14</title>
<path fill="none" stroke="#88d856" stroke-width="2" d="M543.62,-401.75C543.62,-401.75 451.88,-401.75 451.88,-401.75 445.88,-401.75 439.88,-395.75 439.88,-389.75 439.88,-389.75 439.88,-377.75 439.88,-377.75 439.88,-371.75 445.88,-365.75 451.88,-365.75 451.88,-365.75 543.62,-365.75 543.62,-365.75 549.62,-365.75 555.62,-371.75 555.62,-377.75 555.62,-377.75 555.62,-389.75 555.62,-389.75 555.62,-395.75 549.62,-401.75 543.62,-401.75"/>
<text text-anchor="middle" x="497.75" y="-379.88" font-family="sans" font-size="10.00">cnv_sv_pbsv_discover</text>
</g>
<!-- 14&#45;&gt;13 -->
<g id="edge26" class="edge">
<title>14&#45;&gt;13</title>
<path fill="none" stroke="grey" stroke-width="2" d="M497.75,-365.11C497.75,-357.79 497.75,-349.07 497.75,-340.76"/>
<polygon fill="grey" stroke="grey" stroke-width="2" points="501.25,-340.89 497.75,-330.89 494.25,-340.89 501.25,-340.89"/>
</g>
<!-- 15&#45;&gt;14 -->
<g id="edge27" class="edge">
<title>15&#45;&gt;14</title>
<path fill="none" stroke="grey" stroke-width="2" d="M492.92,-519.08C463.9,-512.03 433.52,-498.71 415.75,-473.75 406.47,-460.72 408.1,-451.8 415.75,-437.75 421.95,-426.36 431.77,-417.05 442.49,-409.58"/>
<polygon fill="grey" stroke="grey" stroke-width="2" points="444.23,-412.62 450.84,-404.34 440.51,-406.69 444.23,-412.62"/>
</g>
<!-- 16 -->
<g id="node17" class="node">
<title>16</title>
<path fill="none" stroke="#569ad8" stroke-width="2" d="M701.25,-473.75C701.25,-473.75 436.25,-473.75 436.25,-473.75 430.25,-473.75 424.25,-467.75 424.25,-461.75 424.25,-461.75 424.25,-449.75 424.25,-449.75 424.25,-443.75 430.25,-437.75 436.25,-437.75 436.25,-437.75 701.25,-437.75 701.25,-437.75 707.25,-437.75 713.25,-443.75 713.25,-449.75 713.25,-449.75 713.25,-461.75 713.25,-461.75 713.25,-467.75 707.25,-473.75 701.25,-473.75"/>
<text text-anchor="middle" x="568.75" y="-457.5" font-family="sans" font-size="10.00">alignment_samtools_index_whatshap</text>
<text text-anchor="middle" x="568.75" y="-446.25" font-family="sans" font-size="10.00">file: annotation/whatshap_haplotag/2022.MM.16_T.haplotagged</text>
</g>
<!-- 15&#45;&gt;16 -->
<g id="edge33" class="edge">
<title>15&#45;&gt;16</title>
<path fill="none" stroke="grey" stroke-width="2" d="M568.75,-509.09C568.75,-502.5 568.75,-494.83 568.75,-487.42"/>
<polygon fill="grey" stroke="grey" stroke-width="2" points="572.25,-487.68 568.75,-477.68 565.25,-487.68 572.25,-487.68"/>
</g>
<!-- 18 -->
<g id="node19" class="node">
<title>18</title>
<path fill="none" stroke="#56d8a9" stroke-width="2" d="M705.38,-401.75C705.38,-401.75 648.12,-401.75 648.12,-401.75 642.12,-401.75 636.12,-395.75 636.12,-389.75 636.12,-389.75 636.12,-377.75 636.12,-377.75 636.12,-371.75 642.12,-365.75 648.12,-365.75 648.12,-365.75 705.38,-365.75 705.38,-365.75 711.38,-365.75 717.38,-371.75 717.38,-377.75 717.38,-377.75 717.38,-389.75 717.38,-389.75 717.38,-395.75 711.38,-401.75 705.38,-401.75"/>
<text text-anchor="middle" x="676.75" y="-379.88" font-family="sans" font-size="10.00">cnv_sv_hificnv</text>
</g>
<!-- 15&#45;&gt;18 -->
<g id="edge35" class="edge">
<title>15&#45;&gt;18</title>
<path fill="none" stroke="grey" stroke-width="2" d="M644.66,-519.31C673.99,-512.29 704.77,-498.95 722.75,-473.75 736.62,-454.31 722.38,-430.11 706.19,-411.86"/>
<polygon fill="grey" stroke="grey" stroke-width="2" points="708.94,-409.68 699.51,-404.85 703.87,-414.51 708.94,-409.68"/>
</g>
<!-- 20 -->
<g id="node21" class="node">
<title>20</title>
<path fill="none" stroke="#56d8b9" stroke-width="2" d="M812.5,-401.75C812.5,-401.75 747,-401.75 747,-401.75 741,-401.75 735,-395.75 735,-389.75 735,-389.75 735,-377.75 735,-377.75 735,-371.75 741,-365.75 747,-365.75 747,-365.75 812.5,-365.75 812.5,-365.75 818.5,-365.75 824.5,-371.75 824.5,-377.75 824.5,-377.75 824.5,-389.75 824.5,-389.75 824.5,-395.75 818.5,-401.75 812.5,-401.75"/>
<text text-anchor="middle" x="779.75" y="-379.88" font-family="sans" font-size="10.00">cnv_sv_sniffles2</text>
</g>
<!-- 15&#45;&gt;20 -->
<g id="edge38" class="edge">
<title>15&#45;&gt;20</title>
<path fill="none" stroke="grey" stroke-width="2" d="M644.59,-517.4C677.05,-510.08 713.45,-497.03 739.75,-473.75 756.96,-458.52 767.17,-434.43 772.96,-415.15"/>
<polygon fill="grey" stroke="grey" stroke-width="2" points="776.29,-416.23 775.5,-405.67 769.53,-414.42 776.29,-416.23"/>
</g>
<!-- 23 -->
<g id="node24" class="node">
<title>23</title>
<path fill="none" stroke="#78d856" stroke-width="2" d="M385.88,-401.75C385.88,-401.75 301.62,-401.75 301.62,-401.75 295.62,-401.75 289.62,-395.75 289.62,-389.75 289.62,-389.75 289.62,-377.75 289.62,-377.75 289.62,-371.75 295.62,-365.75 301.62,-365.75 301.62,-365.75 385.88,-365.75 385.88,-365.75 391.88,-365.75 397.88,-371.75 397.88,-377.75 397.88,-377.75 397.88,-389.75 397.88,-389.75 397.88,-395.75 391.88,-401.75 385.88,-401.75"/>
<text text-anchor="middle" x="343.75" y="-379.88" font-family="sans" font-size="10.00">cnv_sv_cnvkit_batch</text>
</g>
<!-- 15&#45;&gt;23 -->
<g id="edge42" class="edge">
<title>15&#45;&gt;23</title>
<path fill="none" stroke="grey" stroke-width="2" d="M492.95,-512.96C463.69,-504.98 431.2,-492.63 405.75,-473.75 384.84,-458.23 368.42,-433.51 357.75,-414.05"/>
<polygon fill="grey" stroke="grey" stroke-width="2" points="360.99,-412.68 353.26,-405.43 354.78,-415.92 360.99,-412.68"/>
</g>
<!-- 29 -->
<g id="node30" class="node">
<title>29</title>
<path fill="none" stroke="#567bd8" stroke-width="2" d="M913.75,-473.75C913.75,-473.75 831.75,-473.75 831.75,-473.75 825.75,-473.75 819.75,-467.75 819.75,-461.75 819.75,-461.75 819.75,-449.75 819.75,-449.75 819.75,-443.75 825.75,-437.75 831.75,-437.75 831.75,-437.75 913.75,-437.75 913.75,-437.75 919.75,-437.75 925.75,-443.75 925.75,-449.75 925.75,-449.75 925.75,-461.75 925.75,-461.75 925.75,-467.75 919.75,-473.75 913.75,-473.75"/>
<text text-anchor="middle" x="872.75" y="-451.88" font-family="sans" font-size="10.00">_copy_mapped_bam</text>
</g>
<!-- 15&#45;&gt;29 -->
<g id="edge49" class="edge">
<title>15&#45;&gt;29</title>
<path fill="none" stroke="grey" stroke-width="2" d="M644.68,-509.27C694.3,-497.84 758.48,-483.06 806.12,-472.09"/>
<polygon fill="grey" stroke="grey" stroke-width="2" points="806.87,-475.51 815.83,-469.86 805.3,-468.69 806.87,-475.51"/>
</g>
<!-- 16&#45;&gt;14 -->
<g id="edge28" class="edge">
<title>16&#45;&gt;14</title>
<path fill="none" stroke="grey" stroke-width="2" d="M550.83,-437.09C542.99,-429.35 533.61,-420.11 524.94,-411.56"/>
<polygon fill="grey" stroke="grey" stroke-width="2" points="527.64,-409.31 518.06,-404.78 522.73,-414.29 527.64,-409.31"/>
</g>
<!-- 16&#45;&gt;18 -->
<g id="edge36" class="edge">
<title>16&#45;&gt;18</title>
<path fill="none" stroke="grey" stroke-width="2" d="M596.28,-436.9C609.1,-428.59 624.57,-418.57 638.5,-409.54"/>
<polygon fill="grey" stroke="grey" stroke-width="2" points="640.24,-412.58 646.73,-404.21 636.43,-406.71 640.24,-412.58"/>
</g>
<!-- 16&#45;&gt;20 -->
<g id="edge39" class="edge">
<title>16&#45;&gt;20</title>
<path fill="none" stroke="grey" stroke-width="2" d="M622.81,-436.81C653.08,-426.77 690.82,-414.25 721.7,-404.01"/>
<polygon fill="grey" stroke="grey" stroke-width="2" points="722.78,-407.34 731.17,-400.87 720.57,-400.69 722.78,-407.34"/>
</g>
<!-- 16&#45;&gt;23 -->
<g id="edge43" class="edge">
<title>16&#45;&gt;23</title>
<path fill="none" stroke="grey" stroke-width="2" d="M511.1,-436.81C480.52,-427.3 442.79,-415.56 410.9,-405.64"/>
<polygon fill="grey" stroke="grey" stroke-width="2" points="412.02,-402.32 401.43,-402.69 409.94,-409.01 412.02,-402.32"/>
</g>
<!-- 30 -->
<g id="node31" class="node">
<title>30</title>
<path fill="none" stroke="#56b9d8" stroke-width="2" d="M646,-252C646,-252 535.5,-252 535.5,-252 529.5,-252 523.5,-246 523.5,-240 523.5,-240 523.5,-228 523.5,-228 523.5,-222 529.5,-216 535.5,-216 535.5,-216 646,-216 646,-216 652,-216 658,-222 658,-228 658,-228 658,-240 658,-240 658,-246 652,-252 646,-252"/>
<text text-anchor="middle" x="590.75" y="-235.75" font-family="sans" font-size="10.00">_copy_mapped_bam_index</text>
<text text-anchor="middle" x="590.75" y="-224.5" font-family="sans" font-size="10.00">sample: 2022.MM.16</text>
</g>
<!-- 16&#45;&gt;30 -->
<g id="edge50" class="edge">
<title>16&#45;&gt;30</title>
<path fill="none" stroke="grey" stroke-width="2" d="M570.55,-436.77C574.31,-399.25 583.01,-312.26 587.68,-265.71"/>
<polygon fill="grey" stroke="grey" stroke-width="2" points="591.14,-266.23 588.65,-255.94 584.18,-265.54 591.14,-266.23"/>
</g>
<!-- 17 -->
<g id="node18" class="node">
<title>17</title>
<path fill="none" stroke="#d8b456" stroke-width="2" d="M684.12,-108C684.12,-108 613.38,-108 613.38,-108 607.38,-108 601.38,-102 601.38,-96 601.38,-96 601.38,-84 601.38,-84 601.38,-78 607.38,-72 613.38,-72 613.38,-72 684.12,-72 684.12,-72 690.12,-72 696.12,-78 696.12,-84 696.12,-84 696.12,-96 696.12,-96 696.12,-102 690.12,-108 684.12,-108"/>
<text text-anchor="middle" x="648.75" y="-86.12" font-family="sans" font-size="10.00">_copy_hificnv_vcf</text>
</g>
<!-- 17&#45;&gt;0 -->
<g id="edge3" class="edge">
<title>17&#45;&gt;0</title>
<path fill="none" stroke="grey" stroke-width="2" d="M619.18,-71.15C604.7,-62.42 587.09,-51.79 571.55,-42.41"/>
<polygon fill="grey" stroke="grey" stroke-width="2" points="573.63,-39.58 563.26,-37.41 570.02,-45.58 573.63,-39.58"/>
</g>
<!-- 18&#45;&gt;17 -->
<g id="edge34" class="edge">
<title>18&#45;&gt;17</title>
<path fill="none" stroke="grey" stroke-width="2" d="M676.18,-365.19C675.08,-334.75 672.27,-270.24 666.75,-216 663.45,-183.61 657.92,-146.73 653.86,-121.48"/>
<polygon fill="grey" stroke="grey" stroke-width="2" points="657.34,-121.04 652.27,-111.73 650.43,-122.17 657.34,-121.04"/>
</g>
<!-- 19 -->
<g id="node20" class="node">
<title>19</title>
<path fill="none" stroke="#56d8d8" stroke-width="2" d="M805.25,-252C805.25,-252 726.25,-252 726.25,-252 720.25,-252 714.25,-246 714.25,-240 714.25,-240 714.25,-228 714.25,-228 714.25,-222 720.25,-216 726.25,-216 726.25,-216 805.25,-216 805.25,-216 811.25,-216 817.25,-222 817.25,-228 817.25,-228 817.25,-240 817.25,-240 817.25,-246 811.25,-252 805.25,-252"/>
<text text-anchor="middle" x="765.75" y="-230.12" font-family="sans" font-size="10.00">_copy_sniffles2_vcf</text>
</g>
<!-- 19&#45;&gt;0 -->
<g id="edge4" class="edge">
<title>19&#45;&gt;0</title>
<path fill="none" stroke="grey" stroke-width="2" d="M758.21,-215.42C753.86,-205.14 748.36,-191.89 743.75,-180 725.3,-132.42 741.69,-107.22 704.75,-72 669.05,-37.96 611.96,-25.75 573.44,-21.39"/>
<polygon fill="grey" stroke="grey" stroke-width="2" points="573.97,-17.92 563.68,-20.44 573.29,-24.89 573.97,-17.92"/>
</g>
<!-- 20&#45;&gt;19 -->
<g id="edge37" class="edge">
<title>20&#45;&gt;19</title>
<path fill="none" stroke="grey" stroke-width="2" d="M778.06,-364.93C775.73,-340.3 771.48,-295.51 768.64,-265.51"/>
<polygon fill="grey" stroke="grey" stroke-width="2" points="772.16,-265.52 767.73,-255.9 765.19,-266.18 772.16,-265.52"/>
</g>
<!-- 21 -->
<g id="node22" class="node">
<title>21</title>
<path fill="none" stroke="#d89556" stroke-width="2" d="M843.25,-180C843.25,-180 764.25,-180 764.25,-180 758.25,-180 752.25,-174 752.25,-168 752.25,-168 752.25,-156 752.25,-156 752.25,-150 758.25,-144 764.25,-144 764.25,-144 843.25,-144 843.25,-144 849.25,-144 855.25,-150 855.25,-156 855.25,-156 855.25,-168 855.25,-168 855.25,-174 849.25,-180 843.25,-180"/>
<text text-anchor="middle" x="803.75" y="-158.12" font-family="sans" font-size="10.00">_copy_sniffles2_snf</text>
</g>
<!-- 20&#45;&gt;21 -->
<g id="edge40" class="edge">
<title>20&#45;&gt;21</title>
<path fill="none" stroke="grey" stroke-width="2" d="M788.32,-365.1C799.76,-340.46 819.42,-294.06 826.75,-252 829.5,-236.24 830,-231.67 826.75,-216 825.08,-207.98 822.14,-199.68 818.9,-192.09"/>
<polygon fill="grey" stroke="grey" stroke-width="2" points="822.2,-190.88 814.81,-183.29 815.85,-193.84 822.2,-190.88"/>
</g>
<!-- 21&#45;&gt;0 -->
<g id="edge5" class="edge">
<title>21&#45;&gt;0</title>
<path fill="none" stroke="grey" stroke-width="2" d="M795.22,-143.08C784.6,-122.74 764.55,-90.06 737.75,-72 687.6,-38.22 617.27,-25.97 573.39,-21.52"/>
<polygon fill="grey" stroke="grey" stroke-width="2" points="573.96,-18.06 563.69,-20.65 573.33,-25.03 573.96,-18.06"/>
</g>
<!-- 22 -->
<g id="node23" class="node">
<title>22</title>
<path fill="none" stroke="#c6d856" stroke-width="2" d="M369.62,-180C369.62,-180 211.88,-180 211.88,-180 205.88,-180 199.88,-174 199.88,-168 199.88,-168 199.88,-156 199.88,-156 199.88,-150 205.88,-144 211.88,-144 211.88,-144 369.62,-144 369.62,-144 375.62,-144 381.62,-150 381.62,-156 381.62,-156 381.62,-168 381.62,-168 381.62,-174 375.62,-180 369.62,-180"/>
<text text-anchor="middle" x="290.75" y="-158.12" font-family="sans" font-size="10.00">_copy_cnvkit_batch_segments_called</text>
</g>
<!-- 22&#45;&gt;0 -->
<g id="edge6" class="edge">
<title>22&#45;&gt;0</title>
<path fill="none" stroke="grey" stroke-width="2" d="M307.91,-143.25C327.62,-123.67 361.65,-92.26 395.75,-72 426.46,-53.76 464.57,-39.61 492.79,-30.54"/>
<polygon fill="grey" stroke="grey" stroke-width="2" points="493.61,-33.95 502.11,-27.63 491.52,-27.27 493.61,-33.95"/>
</g>
<!-- 23&#45;&gt;22 -->
<g id="edge41" class="edge">
<title>23&#45;&gt;22</title>
<path fill="none" stroke="grey" stroke-width="2" d="M288.67,-365.59C271.92,-357.5 255.41,-345.95 245.75,-329.75 219.54,-285.78 248.29,-226.31 270.36,-191.56"/>
<polygon fill="grey" stroke="grey" stroke-width="2" points="273.23,-193.57 275.83,-183.3 267.39,-189.71 273.23,-193.57"/>
</g>
<!-- 24 -->
<g id="node25" class="node">
<title>24</title>
<path fill="none" stroke="#d88556" stroke-width="2" d="M420.75,-326.88C420.75,-326.88 266.75,-326.88 266.75,-326.88 260.75,-326.88 254.75,-320.88 254.75,-314.88 254.75,-314.88 254.75,-302.88 254.75,-302.88 254.75,-296.88 260.75,-290.88 266.75,-290.88 266.75,-290.88 420.75,-290.88 420.75,-290.88 426.75,-290.88 432.75,-296.88 432.75,-302.88 432.75,-302.88 432.75,-314.88 432.75,-314.88 432.75,-320.88 426.75,-326.88 420.75,-326.88"/>
<text text-anchor="middle" x="343.75" y="-305" font-family="sans" font-size="10.00">_copy_cnvkit_batch_target_coverage</text>
</g>
<!-- 23&#45;&gt;24 -->
<g id="edge44" class="edge">
<title>23&#45;&gt;24</title>
<path fill="none" stroke="grey" stroke-width="2" d="M343.75,-365.11C343.75,-357.79 343.75,-349.07 343.75,-340.76"/>
<polygon fill="grey" stroke="grey" stroke-width="2" points="347.25,-340.89 343.75,-330.89 340.25,-340.89 347.25,-340.89"/>
</g>
<!-- 28 -->
<g id="node29" class="node">
<title>28</title>
<path fill="none" stroke="#d6d856" stroke-width="2" d="M177.62,-329.75C177.62,-329.75 91.88,-329.75 91.88,-329.75 85.88,-329.75 79.88,-323.75 79.88,-317.75 79.88,-317.75 79.88,-300 79.88,-300 79.88,-294 85.88,-288 91.88,-288 91.88,-288 177.62,-288 177.62,-288 183.62,-288 189.62,-294 189.62,-300 189.62,-300 189.62,-317.75 189.62,-317.75 189.62,-323.75 183.62,-329.75 177.62,-329.75"/>
<text text-anchor="middle" x="134.75" y="-316.25" font-family="sans" font-size="10.00">reports_cnv_json</text>
<text text-anchor="middle" x="134.75" y="-305" font-family="sans" font-size="10.00">caller: cnvkit</text>
<text text-anchor="middle" x="134.75" y="-293.75" font-family="sans" font-size="10.00">tc_method: pathology</text>
</g>
<!-- 23&#45;&gt;28 -->
<g id="edge48" class="edge">
<title>23&#45;&gt;28</title>
<path fill="none" stroke="grey" stroke-width="2" d="M292.36,-364.83C265.28,-355.39 231.73,-343.69 202.55,-333.52"/>
<polygon fill="grey" stroke="grey" stroke-width="2" points="203.8,-330.24 193.2,-330.26 201.49,-336.85 203.8,-330.24"/>
</g>
<!-- 24&#45;&gt;0 -->
<g id="edge7" class="edge">
<title>24&#45;&gt;0</title>
<path fill="none" stroke="grey" stroke-width="2" d="M334.37,-290.06C325.52,-270.6 315.45,-239.11 328.75,-216 344.65,-188.39 370.43,-204.54 390.75,-180 423.2,-140.81 395.24,-110.29 428.75,-72 445.6,-52.75 471.11,-39.6 492.66,-31.21"/>
<polygon fill="grey" stroke="grey" stroke-width="2" points="493.73,-34.54 501.94,-27.84 491.35,-27.96 493.73,-34.54"/>
</g>
<!-- 25 -->
<g id="node26" class="node">
<title>25</title>
<path fill="none" stroke="#56d863" stroke-width="2" d="M268.88,-108C268.88,-108 220.62,-108 220.62,-108 214.62,-108 208.62,-102 208.62,-96 208.62,-96 208.62,-84 208.62,-84 208.62,-78 214.62,-72 220.62,-72 220.62,-72 268.88,-72 268.88,-72 274.88,-72 280.88,-78 280.88,-84 280.88,-84 280.88,-96 280.88,-96 280.88,-102 274.88,-108 268.88,-108"/>
<text text-anchor="middle" x="244.75" y="-86.12" font-family="sans" font-size="10.00">_copy_report</text>
</g>
<!-- 25&#45;&gt;0 -->
<g id="edge8" class="edge">
<title>25&#45;&gt;0</title>
<path fill="none" stroke="grey" stroke-width="2" d="M281.81,-79.99C335.96,-66.83 436.33,-42.44 492.32,-28.83"/>
<polygon fill="grey" stroke="grey" stroke-width="2" points="493.06,-32.25 501.95,-26.49 491.4,-25.45 493.06,-32.25"/>
</g>
<!-- 26 -->
<g id="node27" class="node">
<title>26</title>
<path fill="none" stroke="#97d856" stroke-width="2" d="M170.25,-180C170.25,-180 73.25,-180 73.25,-180 67.25,-180 61.25,-174 61.25,-168 61.25,-168 61.25,-156 61.25,-156 61.25,-150 67.25,-144 73.25,-144 73.25,-144 170.25,-144 170.25,-144 176.25,-144 182.25,-150 182.25,-156 182.25,-156 182.25,-168 182.25,-168 182.25,-174 176.25,-180 170.25,-180"/>
<text text-anchor="middle" x="121.75" y="-158.12" font-family="sans" font-size="10.00">reports_cnv_html_report</text>
</g>
<!-- 26&#45;&gt;25 -->
<g id="edge45" class="edge">
<title>26&#45;&gt;25</title>
<path fill="none" stroke="grey" stroke-width="2" d="M153.11,-143.15C168,-134.68 186.02,-124.42 202.13,-115.25"/>
<polygon fill="grey" stroke="grey" stroke-width="2" points="203.86,-118.3 210.82,-110.31 200.4,-112.21 203.86,-118.3"/>
</g>
<!-- 27 -->
<g id="node28" class="node">
<title>27</title>
<path fill="none" stroke="#b6d856" stroke-width="2" d="M176,-252C176,-252 77.5,-252 77.5,-252 71.5,-252 65.5,-246 65.5,-240 65.5,-240 65.5,-228 65.5,-228 65.5,-222 71.5,-216 77.5,-216 77.5,-216 176,-216 176,-216 182,-216 188,-222 188,-228 188,-228 188,-240 188,-240 188,-246 182,-252 176,-252"/>
<text text-anchor="middle" x="126.75" y="-230.12" font-family="sans" font-size="10.00">reports_merge_cnv_json</text>
</g>
<!-- 27&#45;&gt;26 -->
<g id="edge46" class="edge">
<title>27&#45;&gt;26</title>
<path fill="none" stroke="grey" stroke-width="2" d="M125.49,-215.34C125.02,-208.75 124.47,-201.08 123.94,-193.67"/>
<polygon fill="grey" stroke="grey" stroke-width="2" points="127.45,-193.65 123.24,-183.92 120.47,-194.15 127.45,-193.65"/>
</g>
<!-- 28&#45;&gt;27 -->
<g id="edge47" class="edge">
<title>28&#45;&gt;27</title>
<path fill="none" stroke="grey" stroke-width="2" d="M132.48,-287.19C131.74,-280.43 130.9,-272.79 130.1,-265.47"/>
<polygon fill="grey" stroke="grey" stroke-width="2" points="133.58,-265.1 129,-255.54 126.62,-265.86 133.58,-265.1"/>
</g>
<!-- 29&#45;&gt;0 -->
<g id="edge9" class="edge">
<title>29&#45;&gt;0</title>
<path fill="none" stroke="grey" stroke-width="2" d="M874.98,-436.94C878.19,-409.64 883.75,-355.78 883.75,-309.88 883.75,-309.88 883.75,-309.88 883.75,-161 883.75,-141.2 938,-150.07 768.75,-72 704.1,-42.18 621.56,-28.61 573.19,-22.85"/>
<polygon fill="grey" stroke="grey" stroke-width="2" points="573.83,-19.4 563.5,-21.76 573.05,-26.35 573.83,-19.4"/>
</g>
<!-- 30&#45;&gt;0 -->
<g id="edge10" class="edge">
<title>30&#45;&gt;0</title>
<path fill="none" stroke="grey" stroke-width="2" d="M587.84,-215.34C582.68,-185.43 570.92,-123.06 554.75,-72 552.32,-64.33 549.24,-56.23 546.15,-48.73"/>
<polygon fill="grey" stroke="grey" stroke-width="2" points="549.42,-47.46 542.27,-39.65 542.98,-50.22 549.42,-47.46"/>
</g>
</g>
</svg>
