<?xml version="1.0" encoding="UTF-8" standalone="no"?>
<!DOCTYPE svg PUBLIC "-//W3C//DTD SVG 1.1//EN"
 "http://www.w3.org/Graphics/SVG/1.1/DTD/svg11.dtd">
<!-- Generated by graphviz version 12.2.1 (20241206.2353)
 -->
<!-- Title: snakemake_dag Pages: 1 -->
<svg width="687pt" height="338pt"
 viewBox="0.00 0.00 687.25 337.75" xmlns="http://www.w3.org/2000/svg" xmlns:xlink="http://www.w3.org/1999/xlink">
<g id="graph0" class="graph" transform="scale(1 1) rotate(0) translate(4 333.75)">
<title>snakemake_dag</title>
<polygon fill="white" stroke="none" points="-4,4 -4,-333.75 683.25,-333.75 683.25,4 -4,4"/>
<!-- 0 -->
<g id="node1" class="node">
<title>0</title>
<path fill="none" stroke="#569ad8" stroke-width="2" d="M404.75,-36C404.75,-36 374.75,-36 374.75,-36 368.75,-36 362.75,-30 362.75,-24 362.75,-24 362.75,-12 362.75,-12 362.75,-6 368.75,0 374.75,0 374.75,0 404.75,0 404.75,0 410.75,0 416.75,-6 416.75,-12 416.75,-12 416.75,-24 416.75,-24 416.75,-30 410.75,-36 404.75,-36"/>
<text text-anchor="middle" x="389.75" y="-14.12" font-family="sans" font-size="10.00">all</text>
</g>
<!-- 1 -->
<g id="node2" class="node">
<title>1</title>
<path fill="none" stroke="#88d856" stroke-width="2" d="M174.5,-108C174.5,-108 91,-108 91,-108 85,-108 79,-102 79,-96 79,-96 79,-84 79,-84 79,-78 85,-72 91,-72 91,-72 174.5,-72 174.5,-72 180.5,-72 186.5,-78 186.5,-84 186.5,-84 186.5,-96 186.5,-96 186.5,-102 180.5,-108 174.5,-108"/>
<text text-anchor="middle" x="132.75" y="-91.75" font-family="sans" font-size="10.00">_copy_indel_vcf</text>
<text text-anchor="middle" x="132.75" y="-80.5" font-family="sans" font-size="10.00">sample: 2022.MM.16</text>
</g>
<!-- 1&#45;&gt;0 -->
<g id="edge1" class="edge">
<title>1&#45;&gt;0</title>
<path fill="none" stroke="grey" stroke-width="2" d="M187.25,-74.15C235.83,-60.92 305.81,-41.86 349.48,-29.97"/>
<polygon fill="grey" stroke="grey" stroke-width="2" points="350.22,-33.39 358.95,-27.39 348.38,-26.64 350.22,-33.39"/>
</g>
<!-- 2 -->
<g id="node3" class="node">
<title>2</title>
<path fill="none" stroke="#56d8d0" stroke-width="2" d="M155.5,-182.88C155.5,-182.88 84,-182.88 84,-182.88 78,-182.88 72,-176.88 72,-170.88 72,-170.88 72,-158.88 72,-158.88 72,-152.88 78,-146.88 84,-146.88 84,-146.88 155.5,-146.88 155.5,-146.88 161.5,-146.88 167.5,-152.88 167.5,-158.88 167.5,-158.88 167.5,-170.88 167.5,-170.88 167.5,-176.88 161.5,-182.88 155.5,-182.88"/>
<text text-anchor="middle" x="119.75" y="-166.62" font-family="sans" font-size="10.00">filter_deepsomatic</text>
<text text-anchor="middle" x="119.75" y="-155.38" font-family="sans" font-size="10.00">tag: panel</text>
</g>
<!-- 2&#45;&gt;1 -->
<g id="edge6" class="edge">
<title>2&#45;&gt;1</title>
<path fill="none" stroke="grey" stroke-width="2" d="M122.9,-146.23C124.22,-138.83 125.79,-129.99 127.29,-121.58"/>
<polygon fill="grey" stroke="grey" stroke-width="2" points="130.7,-122.42 129.01,-111.96 123.81,-121.19 130.7,-122.42"/>
</g>
<!-- 3 -->
<g id="node4" class="node">
<title>3</title>
<path fill="none" stroke="#d8bc56" stroke-width="2" d="M95.5,-329.75C95.5,-329.75 12,-329.75 12,-329.75 6,-329.75 0,-323.75 0,-317.75 0,-317.75 0,-305.75 0,-305.75 0,-299.75 6,-293.75 12,-293.75 12,-293.75 95.5,-293.75 95.5,-293.75 101.5,-293.75 107.5,-299.75 107.5,-305.75 107.5,-305.75 107.5,-317.75 107.5,-317.75 107.5,-323.75 101.5,-329.75 95.5,-329.75"/>
<text text-anchor="middle" x="53.75" y="-313.5" font-family="sans" font-size="10.00">deepsomatic_tn</text>
<text text-anchor="middle" x="53.75" y="-302.25" font-family="sans" font-size="10.00">sample: 2022.MM.16</text>
</g>
<!-- 3&#45;&gt;2 -->
<g id="edge7" class="edge">
<title>3&#45;&gt;2</title>
<path fill="none" stroke="grey" stroke-width="2" d="M32.65,-292.99C13.64,-274.75 -9.2,-245.73 5.75,-221.75 17.74,-202.52 38.49,-189.72 59.03,-181.29"/>
<polygon fill="grey" stroke="grey" stroke-width="2" points="60.04,-184.65 68.19,-177.88 57.6,-178.09 60.04,-184.65"/>
</g>
<!-- 4 -->
<g id="node5" class="node">
<title>4</title>
<path fill="none" stroke="#56d88a" stroke-width="2" d="M212.88,-257.75C212.88,-257.75 26.62,-257.75 26.62,-257.75 20.62,-257.75 14.62,-251.75 14.62,-245.75 14.62,-245.75 14.62,-233.75 14.62,-233.75 14.62,-227.75 20.62,-221.75 26.62,-221.75 26.62,-221.75 212.88,-221.75 212.88,-221.75 218.88,-221.75 224.88,-227.75 224.88,-233.75 224.88,-233.75 224.88,-245.75 224.88,-245.75 224.88,-251.75 218.88,-257.75 212.88,-257.75"/>
<text text-anchor="middle" x="119.75" y="-241.5" font-family="sans" font-size="10.00">index_deepsomatic</text>
<text text-anchor="middle" x="119.75" y="-230.25" font-family="sans" font-size="10.00">file: snv_indels/deepsomatic_tn/2022.MM.16</text>
</g>
<!-- 3&#45;&gt;4 -->
<g id="edge9" class="edge">
<title>3&#45;&gt;4</title>
<path fill="none" stroke="grey" stroke-width="2" d="M70.4,-293.09C77.54,-285.52 86.04,-276.5 93.96,-268.1"/>
<polygon fill="grey" stroke="grey" stroke-width="2" points="96.48,-270.53 100.79,-260.85 91.39,-265.73 96.48,-270.53"/>
</g>
<!-- 4&#45;&gt;2 -->
<g id="edge8" class="edge">
<title>4&#45;&gt;2</title>
<path fill="none" stroke="grey" stroke-width="2" d="M119.75,-221.11C119.75,-213.79 119.75,-205.07 119.75,-196.76"/>
<polygon fill="grey" stroke="grey" stroke-width="2" points="123.25,-196.89 119.75,-186.89 116.25,-196.89 123.25,-196.89"/>
</g>
<!-- 5 -->
<g id="node6" class="node">
<title>5</title>
<path fill="none" stroke="#56d86b" stroke-width="2" d="M312.5,-108C312.5,-108 229,-108 229,-108 223,-108 217,-102 217,-96 217,-96 217,-84 217,-84 217,-78 223,-72 229,-72 229,-72 312.5,-72 312.5,-72 318.5,-72 324.5,-78 324.5,-84 324.5,-84 324.5,-96 324.5,-96 324.5,-102 318.5,-108 312.5,-108"/>
<text text-anchor="middle" x="270.75" y="-91.75" font-family="sans" font-size="10.00">_copy_pbsv_vcf</text>
<text text-anchor="middle" x="270.75" y="-80.5" font-family="sans" font-size="10.00">sample: 2022.MM.16</text>
</g>
<!-- 5&#45;&gt;0 -->
<g id="edge2" class="edge">
<title>5&#45;&gt;0</title>
<path fill="none" stroke="grey" stroke-width="2" d="M301.09,-71.15C316.3,-62.2 334.9,-51.26 351.13,-41.72"/>
<polygon fill="grey" stroke="grey" stroke-width="2" points="352.46,-45 359.31,-36.91 348.91,-38.96 352.46,-45"/>
</g>
<!-- 6 -->
<g id="node7" class="node">
<title>6</title>
<path fill="none" stroke="#56c1d8" stroke-width="2" d="M342.5,-182.88C342.5,-182.88 199,-182.88 199,-182.88 193,-182.88 187,-176.88 187,-170.88 187,-170.88 187,-158.88 187,-158.88 187,-152.88 193,-146.88 199,-146.88 199,-146.88 342.5,-146.88 342.5,-146.88 348.5,-146.88 354.5,-152.88 354.5,-158.88 354.5,-158.88 354.5,-170.88 354.5,-170.88 354.5,-176.88 348.5,-182.88 342.5,-182.88"/>
<text text-anchor="middle" x="270.75" y="-166.62" font-family="sans" font-size="10.00">bgzip</text>
<text text-anchor="middle" x="270.75" y="-155.38" font-family="sans" font-size="10.00">file: cnv_sv/pbsv_call/2022.MM.16</text>
</g>
<!-- 6&#45;&gt;5 -->
<g id="edge10" class="edge">
<title>6&#45;&gt;5</title>
<path fill="none" stroke="grey" stroke-width="2" d="M270.75,-146.23C270.75,-138.91 270.75,-130.2 270.75,-121.88"/>
<polygon fill="grey" stroke="grey" stroke-width="2" points="274.25,-122.01 270.75,-112.01 267.25,-122.01 274.25,-122.01"/>
</g>
<!-- 7 -->
<g id="node8" class="node">
<title>7</title>
<path fill="none" stroke="#567bd8" stroke-width="2" d="M288.38,-257.75C288.38,-257.75 255.12,-257.75 255.12,-257.75 249.12,-257.75 243.12,-251.75 243.12,-245.75 243.12,-245.75 243.12,-233.75 243.12,-233.75 243.12,-227.75 249.12,-221.75 255.12,-221.75 255.12,-221.75 288.38,-221.75 288.38,-221.75 294.38,-221.75 300.38,-227.75 300.38,-233.75 300.38,-233.75 300.38,-245.75 300.38,-245.75 300.38,-251.75 294.38,-257.75 288.38,-257.75"/>
<text text-anchor="middle" x="271.75" y="-235.88" font-family="sans" font-size="10.00">pbsv_call</text>
</g>
<!-- 7&#45;&gt;6 -->
<g id="edge11" class="edge">
<title>7&#45;&gt;6</title>
<path fill="none" stroke="grey" stroke-width="2" d="M271.51,-221.11C271.41,-213.79 271.29,-205.07 271.17,-196.76"/>
<polygon fill="grey" stroke="grey" stroke-width="2" points="274.68,-196.84 271.04,-186.89 267.68,-196.93 274.68,-196.84"/>
</g>
<!-- 8 -->
<g id="node9" class="node">
<title>8</title>
<path fill="none" stroke="#56d8a9" stroke-width="2" d="M313.5,-329.75C313.5,-329.75 230,-329.75 230,-329.75 224,-329.75 218,-323.75 218,-317.75 218,-317.75 218,-305.75 218,-305.75 218,-299.75 224,-293.75 230,-293.75 230,-293.75 313.5,-293.75 313.5,-293.75 319.5,-293.75 325.5,-299.75 325.5,-305.75 325.5,-305.75 325.5,-317.75 325.5,-317.75 325.5,-323.75 319.5,-329.75 313.5,-329.75"/>
<text text-anchor="middle" x="271.75" y="-313.5" font-family="sans" font-size="10.00">pbsv_discover</text>
<text text-anchor="middle" x="271.75" y="-302.25" font-family="sans" font-size="10.00">sample: 2022.MM.16</text>
</g>
<!-- 8&#45;&gt;7 -->
<g id="edge12" class="edge">
<title>8&#45;&gt;7</title>
<path fill="none" stroke="grey" stroke-width="2" d="M271.75,-293.09C271.75,-286.5 271.75,-278.83 271.75,-271.42"/>
<polygon fill="grey" stroke="grey" stroke-width="2" points="275.25,-271.68 271.75,-261.68 268.25,-271.68 275.25,-271.68"/>
</g>
<!-- 9 -->
<g id="node10" class="node">
<title>9</title>
<path fill="none" stroke="#d85656" stroke-width="2" d="M425.12,-108C425.12,-108 354.38,-108 354.38,-108 348.38,-108 342.38,-102 342.38,-96 342.38,-96 342.38,-84 342.38,-84 342.38,-78 348.38,-72 354.38,-72 354.38,-72 425.12,-72 425.12,-72 431.12,-72 437.12,-78 437.12,-84 437.12,-84 437.12,-96 437.12,-96 437.12,-102 431.12,-108 425.12,-108"/>
<text text-anchor="middle" x="389.75" y="-86.12" font-family="sans" font-size="10.00">_copy_hificnv_vcf</text>
</g>
<!-- 9&#45;&gt;0 -->
<g id="edge3" class="edge">
<title>9&#45;&gt;0</title>
<path fill="none" stroke="grey" stroke-width="2" d="M389.75,-71.34C389.75,-64.75 389.75,-57.08 389.75,-49.67"/>
<polygon fill="grey" stroke="grey" stroke-width="2" points="393.25,-49.93 389.75,-39.93 386.25,-49.93 393.25,-49.93"/>
</g>
<!-- 10 -->
<g id="node11" class="node">
<title>10</title>
<path fill="none" stroke="#d87556" stroke-width="2" d="M468.5,-182.88C468.5,-182.88 385,-182.88 385,-182.88 379,-182.88 373,-176.88 373,-170.88 373,-170.88 373,-158.88 373,-158.88 373,-152.88 379,-146.88 385,-146.88 385,-146.88 468.5,-146.88 468.5,-146.88 474.5,-146.88 480.5,-152.88 480.5,-158.88 480.5,-158.88 480.5,-170.88 480.5,-170.88 480.5,-176.88 474.5,-182.88 468.5,-182.88"/>
<text text-anchor="middle" x="426.75" y="-166.62" font-family="sans" font-size="10.00">hificnv</text>
<text text-anchor="middle" x="426.75" y="-155.38" font-family="sans" font-size="10.00">sample: 2022.MM.16</text>
</g>
<!-- 10&#45;&gt;9 -->
<g id="edge13" class="edge">
<title>10&#45;&gt;9</title>
<path fill="none" stroke="grey" stroke-width="2" d="M417.79,-146.23C413.85,-138.47 409.12,-129.14 404.67,-120.38"/>
<polygon fill="grey" stroke="grey" stroke-width="2" points="407.9,-119.02 400.25,-111.68 401.66,-122.19 407.9,-119.02"/>
</g>
<!-- 11 -->
<g id="node12" class="node">
<title>11</title>
<path fill="none" stroke="#d89c56" stroke-width="2" d="M546.25,-108C546.25,-108 467.25,-108 467.25,-108 461.25,-108 455.25,-102 455.25,-96 455.25,-96 455.25,-84 455.25,-84 455.25,-78 461.25,-72 467.25,-72 467.25,-72 546.25,-72 546.25,-72 552.25,-72 558.25,-78 558.25,-84 558.25,-84 558.25,-96 558.25,-96 558.25,-102 552.25,-108 546.25,-108"/>
<text text-anchor="middle" x="506.75" y="-86.12" font-family="sans" font-size="10.00">_copy_sniffles2_vcf</text>
</g>
<!-- 11&#45;&gt;0 -->
<g id="edge4" class="edge">
<title>11&#45;&gt;0</title>
<path fill="none" stroke="grey" stroke-width="2" d="M476.92,-71.15C462.21,-62.35 444.29,-51.63 428.53,-42.2"/>
<polygon fill="grey" stroke="grey" stroke-width="2" points="430.49,-39.3 420.11,-37.16 426.9,-45.3 430.49,-39.3"/>
</g>
<!-- 12 -->
<g id="node13" class="node">
<title>12</title>
<path fill="none" stroke="#68d856" stroke-width="2" d="M631.5,-185.75C631.5,-185.75 548,-185.75 548,-185.75 542,-185.75 536,-179.75 536,-173.75 536,-173.75 536,-156 536,-156 536,-150 542,-144 548,-144 548,-144 631.5,-144 631.5,-144 637.5,-144 643.5,-150 643.5,-156 643.5,-156 643.5,-173.75 643.5,-173.75 643.5,-179.75 637.5,-185.75 631.5,-185.75"/>
<text text-anchor="middle" x="589.75" y="-172.25" font-family="sans" font-size="10.00">sniffles2</text>
<text text-anchor="middle" x="589.75" y="-161" font-family="sans" font-size="10.00">sample: 2022.MM.16</text>
<text text-anchor="middle" x="589.75" y="-149.75" font-family="sans" font-size="10.00">type: T</text>
</g>
<!-- 12&#45;&gt;11 -->
<g id="edge14" class="edge">
<title>12&#45;&gt;11</title>
<path fill="none" stroke="grey" stroke-width="2" d="M566.19,-143.19C557.01,-135.13 546.38,-125.8 536.68,-117.28"/>
<polygon fill="grey" stroke="grey" stroke-width="2" points="539.09,-114.74 529.27,-110.77 534.47,-120 539.09,-114.74"/>
</g>
<!-- 13 -->
<g id="node14" class="node">
<title>13</title>
<path fill="none" stroke="#afd856" stroke-width="2" d="M667.25,-108C667.25,-108 588.25,-108 588.25,-108 582.25,-108 576.25,-102 576.25,-96 576.25,-96 576.25,-84 576.25,-84 576.25,-78 582.25,-72 588.25,-72 588.25,-72 667.25,-72 667.25,-72 673.25,-72 679.25,-78 679.25,-84 679.25,-84 679.25,-96 679.25,-96 679.25,-102 673.25,-108 667.25,-108"/>
<text text-anchor="middle" x="627.75" y="-86.12" font-family="sans" font-size="10.00">_copy_sniffles2_snf</text>
</g>
<!-- 12&#45;&gt;13 -->
<g id="edge15" class="edge">
<title>12&#45;&gt;13</title>
<path fill="none" stroke="grey" stroke-width="2" d="M600.54,-143.19C604.33,-135.92 608.65,-127.62 612.73,-119.81"/>
<polygon fill="grey" stroke="grey" stroke-width="2" points="615.69,-121.7 617.21,-111.21 609.48,-118.46 615.69,-121.7"/>
</g>
<!-- 13&#45;&gt;0 -->
<g id="edge5" class="edge">
<title>13&#45;&gt;0</title>
<path fill="none" stroke="grey" stroke-width="2" d="M575.52,-73.64C531.78,-60.77 470.25,-42.68 430.19,-30.89"/>
<polygon fill="grey" stroke="grey" stroke-width="2" points="431.22,-27.55 420.64,-28.09 429.25,-34.27 431.22,-27.55"/>
</g>
</g>
</svg>
