<?xml version="1.0" encoding="UTF-8" standalone="no"?>
<!DOCTYPE svg PUBLIC "-//W3C//DTD SVG 1.1//EN"
 "http://www.w3.org/Graphics/SVG/1.1/DTD/svg11.dtd">
<!-- Generated by graphviz version 2.40.1 (0)
 -->
<!-- Title: snakemake_dag Pages: 1 -->
<svg width="1574pt" height="1772pt"
 viewBox="0.00 0.00 1573.50 1772.00" xmlns="http://www.w3.org/2000/svg" xmlns:xlink="http://www.w3.org/1999/xlink">
<g id="graph0" class="graph" transform="scale(1 1) rotate(0) translate(4 1768)">
<title>snakemake_dag</title>
<polygon fill="#ffffff" stroke="transparent" points="-4,4 -4,-1768 1569.5,-1768 1569.5,4 -4,4"/>
<!-- 0 -->
<g id="node1" class="node">
<title>0</title>
<path fill="none" stroke="#d8bc56" stroke-width="2" d="M823.5,-36C823.5,-36 793.5,-36 793.5,-36 787.5,-36 781.5,-30 781.5,-24 781.5,-24 781.5,-12 781.5,-12 781.5,-6 787.5,0 793.5,0 793.5,0 823.5,0 823.5,0 829.5,0 835.5,-6 835.5,-12 835.5,-12 835.5,-24 835.5,-24 835.5,-30 829.5,-36 823.5,-36"/>
<text text-anchor="middle" x="808.5" y="-15.5" font-family="sans" font-size="10.00" fill="#000000">all</text>
</g>
<!-- 1 -->
<g id="node2" class="node">
<title>1</title>
<path fill="none" stroke="#56d89a" stroke-width="2" d="M634.5,-756C634.5,-756 492.5,-756 492.5,-756 486.5,-756 480.5,-750 480.5,-744 480.5,-744 480.5,-732 480.5,-732 480.5,-726 486.5,-720 492.5,-720 492.5,-720 634.5,-720 634.5,-720 640.5,-720 646.5,-726 646.5,-732 646.5,-732 646.5,-744 646.5,-744 646.5,-750 640.5,-756 634.5,-756"/>
<text text-anchor="middle" x="563.5" y="-735.5" font-family="sans" font-size="10.00" fill="#000000">_copy_snv_vep_annotated_vcf</text>
</g>
<!-- 1&#45;&gt;0 -->
<g id="edge8" class="edge">
<title>1&#45;&gt;0</title>
<path fill="none" stroke="#c0c0c0" stroke-width="2" d="M549.5183,-719.5693C530.9579,-693.217 500.5,-642.5724 500.5,-594 500.5,-594 500.5,-594 500.5,-162 500.5,-139.4043 456.6892,-150.7336 618.5,-72 668.7438,-47.5525 731.9999,-32.3498 771.3498,-24.5276"/>
<polygon fill="#c0c0c0" stroke="#c0c0c0" stroke-width="2" points="772.145,-27.9388 781.2999,-22.6061 770.8176,-21.0658 772.145,-27.9388"/>
</g>
<!-- 2 -->
<g id="node3" class="node">
<title>2</title>
<path fill="none" stroke="#569ad8" stroke-width="2" d="M474.5,-900C474.5,-900 412.5,-900 412.5,-900 406.5,-900 400.5,-894 400.5,-888 400.5,-888 400.5,-876 400.5,-876 400.5,-870 406.5,-864 412.5,-864 412.5,-864 474.5,-864 474.5,-864 480.5,-864 486.5,-870 486.5,-876 486.5,-876 486.5,-888 486.5,-888 486.5,-894 480.5,-900 474.5,-900"/>
<text text-anchor="middle" x="443.5" y="-879.5" font-family="sans" font-size="10.00" fill="#000000">bgzip_vep_vcf</text>
</g>
<!-- 2&#45;&gt;1 -->
<g id="edge13" class="edge">
<title>2&#45;&gt;1</title>
<path fill="none" stroke="#c0c0c0" stroke-width="2" d="M458.6981,-863.7623C479.7068,-838.5518 517.7414,-792.9103 541.754,-764.0952"/>
<polygon fill="#c0c0c0" stroke="#c0c0c0" stroke-width="2" points="544.7122,-766.0125 548.4253,-756.0896 539.3347,-761.5312 544.7122,-766.0125"/>
</g>
<!-- 28 -->
<g id="node29" class="node">
<title>28</title>
<path fill="none" stroke="#5692d8" stroke-width="2" d="M450.5,-756C450.5,-756 294.5,-756 294.5,-756 288.5,-756 282.5,-750 282.5,-744 282.5,-744 282.5,-732 282.5,-732 282.5,-726 288.5,-720 294.5,-720 294.5,-720 450.5,-720 450.5,-720 456.5,-720 462.5,-726 462.5,-732 462.5,-732 462.5,-744 462.5,-744 462.5,-750 456.5,-756 450.5,-756"/>
<text text-anchor="middle" x="372.5" y="-735.5" font-family="sans" font-size="10.00" fill="#000000">filtering_filter_vep_annotated_vcf</text>
</g>
<!-- 2&#45;&gt;28 -->
<g id="edge50" class="edge">
<title>2&#45;&gt;28</title>
<path fill="none" stroke="#c0c0c0" stroke-width="2" d="M442.5958,-863.7541C441.0044,-844.8279 436.6135,-814.8592 424.5,-792 418.891,-781.4154 410.5937,-771.4616 402.2661,-763.0533"/>
<polygon fill="#c0c0c0" stroke="#c0c0c0" stroke-width="2" points="404.6448,-760.4851 395.0069,-756.085 399.7973,-765.535 404.6448,-760.4851"/>
</g>
<!-- 29 -->
<g id="node30" class="node">
<title>29</title>
<path fill="none" stroke="#61d856" stroke-width="2" d="M403,-828C403,-828 342,-828 342,-828 336,-828 330,-822 330,-816 330,-816 330,-804 330,-804 330,-798 336,-792 342,-792 342,-792 403,-792 403,-792 409,-792 415,-798 415,-804 415,-804 415,-816 415,-816 415,-822 409,-828 403,-828"/>
<text text-anchor="middle" x="372.5" y="-807.5" font-family="sans" font-size="10.00" fill="#000000">tabix_vep_vcf</text>
</g>
<!-- 2&#45;&gt;29 -->
<g id="edge51" class="edge">
<title>2&#45;&gt;29</title>
<path fill="none" stroke="#c0c0c0" stroke-width="2" d="M425.5837,-863.8314C417.1558,-855.2848 406.959,-844.9443 397.764,-835.6198"/>
<polygon fill="#c0c0c0" stroke="#c0c0c0" stroke-width="2" points="400.1711,-833.0761 390.6575,-828.4133 395.1869,-837.9912 400.1711,-833.0761"/>
</g>
<!-- 3 -->
<g id="node4" class="node">
<title>3</title>
<path fill="none" stroke="#d87556" stroke-width="2" d="M477.5,-972C477.5,-972 409.5,-972 409.5,-972 403.5,-972 397.5,-966 397.5,-960 397.5,-960 397.5,-948 397.5,-948 397.5,-942 403.5,-936 409.5,-936 409.5,-936 477.5,-936 477.5,-936 483.5,-936 489.5,-942 489.5,-948 489.5,-948 489.5,-960 489.5,-960 489.5,-966 483.5,-972 477.5,-972"/>
<text text-anchor="middle" x="443.5" y="-951.5" font-family="sans" font-size="10.00" fill="#000000">annotation_vep</text>
</g>
<!-- 3&#45;&gt;2 -->
<g id="edge14" class="edge">
<title>3&#45;&gt;2</title>
<path fill="none" stroke="#c0c0c0" stroke-width="2" d="M443.5,-935.8314C443.5,-928.131 443.5,-918.9743 443.5,-910.4166"/>
<polygon fill="#c0c0c0" stroke="#c0c0c0" stroke-width="2" points="447.0001,-910.4132 443.5,-900.4133 440.0001,-910.4133 447.0001,-910.4132"/>
</g>
<!-- 4 -->
<g id="node5" class="node">
<title>4</title>
<path fill="none" stroke="#bed856" stroke-width="2" d="M447,-1044C447,-1044 318,-1044 318,-1044 312,-1044 306,-1038 306,-1032 306,-1032 306,-1020 306,-1020 306,-1014 312,-1008 318,-1008 318,-1008 447,-1008 447,-1008 453,-1008 459,-1014 459,-1020 459,-1020 459,-1032 459,-1032 459,-1038 453,-1044 447,-1044"/>
<text text-anchor="middle" x="382.5" y="-1023.5" font-family="sans" font-size="10.00" fill="#000000">cnv_sv_tabix_include_panel</text>
</g>
<!-- 4&#45;&gt;3 -->
<g id="edge15" class="edge">
<title>4&#45;&gt;3</title>
<path fill="none" stroke="#c0c0c0" stroke-width="2" d="M397.8929,-1007.8314C404.9904,-999.454 413.548,-989.3531 421.324,-980.1749"/>
<polygon fill="#c0c0c0" stroke="#c0c0c0" stroke-width="2" points="424.1061,-982.3056 427.8999,-972.4133 418.7652,-977.7807 424.1061,-982.3056"/>
</g>
<!-- 5 -->
<g id="node6" class="node">
<title>5</title>
<path fill="none" stroke="#56d892" stroke-width="2" d="M550,-1116C550,-1116 329,-1116 329,-1116 323,-1116 317,-1110 317,-1104 317,-1104 317,-1092 317,-1092 317,-1086 323,-1080 329,-1080 329,-1080 550,-1080 550,-1080 556,-1080 562,-1086 562,-1092 562,-1092 562,-1104 562,-1104 562,-1110 556,-1116 550,-1116"/>
<text text-anchor="middle" x="439.5" y="-1095.5" font-family="sans" font-size="10.00" fill="#000000">filtering_bcftools_filter_include_region_snv_vcf</text>
</g>
<!-- 5&#45;&gt;3 -->
<g id="edge16" class="edge">
<title>5&#45;&gt;3</title>
<path fill="none" stroke="#c0c0c0" stroke-width="2" d="M452.1122,-1079.9415C458.3767,-1069.866 465.2812,-1056.7967 468.5,-1044 472.4029,-1028.4833 471.9415,-1023.6255 468.5,-1008 466.5195,-999.0081 462.8879,-989.7321 458.9949,-981.4596"/>
<polygon fill="#c0c0c0" stroke="#c0c0c0" stroke-width="2" points="462.0038,-979.6522 454.388,-972.2867 455.7484,-982.7939 462.0038,-979.6522"/>
</g>
<!-- 5&#45;&gt;4 -->
<g id="edge17" class="edge">
<title>5&#45;&gt;4</title>
<path fill="none" stroke="#c0c0c0" stroke-width="2" d="M425.1165,-1079.8314C418.5514,-1071.5386 410.6493,-1061.557 403.4422,-1052.4533"/>
<polygon fill="#c0c0c0" stroke="#c0c0c0" stroke-width="2" points="406.0284,-1050.0813 397.0772,-1044.4133 400.5401,-1054.4262 406.0284,-1050.0813"/>
</g>
<!-- 6 -->
<g id="node7" class="node">
<title>6</title>
<path fill="none" stroke="#d86656" stroke-width="2" d="M522,-1260C522,-1260 391,-1260 391,-1260 385,-1260 379,-1254 379,-1248 379,-1248 379,-1236 379,-1236 379,-1230 385,-1224 391,-1224 391,-1224 522,-1224 522,-1224 528,-1224 534,-1230 534,-1236 534,-1236 534,-1248 534,-1248 534,-1254 528,-1260 522,-1260"/>
<text text-anchor="middle" x="456.5" y="-1239.5" font-family="sans" font-size="10.00" fill="#000000">snv_indels_whatshap_phase</text>
</g>
<!-- 6&#45;&gt;5 -->
<g id="edge19" class="edge">
<title>6&#45;&gt;5</title>
<path fill="none" stroke="#c0c0c0" stroke-width="2" d="M431.9199,-1223.7772C421.3518,-1214.4022 410.1457,-1202.0021 404.5,-1188 398.5168,-1173.1608 399.9626,-1167.3431 404.5,-1152 407.3688,-1142.2994 412.5868,-1132.7055 418.1333,-1124.3563"/>
<polygon fill="#c0c0c0" stroke="#c0c0c0" stroke-width="2" points="421.0199,-1126.3362 423.9475,-1116.1538 415.3091,-1122.2881 421.0199,-1126.3362"/>
</g>
<!-- 15 -->
<g id="node16" class="node">
<title>15</title>
<path fill="none" stroke="#56d8a2" stroke-width="2" d="M524,-1188C524,-1188 425,-1188 425,-1188 419,-1188 413,-1182 413,-1176 413,-1176 413,-1164 413,-1164 413,-1158 419,-1152 425,-1152 425,-1152 524,-1152 524,-1152 530,-1152 536,-1158 536,-1164 536,-1164 536,-1176 536,-1176 536,-1182 530,-1188 524,-1188"/>
<text text-anchor="middle" x="474.5" y="-1167.5" font-family="sans" font-size="10.00" fill="#000000">cnv_sv_tabix_snv_vcf</text>
</g>
<!-- 6&#45;&gt;15 -->
<g id="edge31" class="edge">
<title>6&#45;&gt;15</title>
<path fill="none" stroke="#c0c0c0" stroke-width="2" d="M461.0422,-1223.8314C462.9884,-1216.0463 465.3068,-1206.7729 467.4663,-1198.1347"/>
<polygon fill="#c0c0c0" stroke="#c0c0c0" stroke-width="2" points="470.8668,-1198.9636 469.8967,-1188.4133 464.0758,-1197.2658 470.8668,-1198.9636"/>
</g>
<!-- 7 -->
<g id="node8" class="node">
<title>7</title>
<path fill="none" stroke="#56d8b9" stroke-width="2" d="M495,-1332C495,-1332 418,-1332 418,-1332 412,-1332 406,-1326 406,-1320 406,-1320 406,-1308 406,-1308 406,-1302 412,-1296 418,-1296 418,-1296 495,-1296 495,-1296 501,-1296 507,-1302 507,-1308 507,-1308 507,-1320 507,-1320 507,-1326 501,-1332 495,-1332"/>
<text text-anchor="middle" x="456.5" y="-1311.5" font-family="sans" font-size="10.00" fill="#000000">snv_indels_fix_af</text>
</g>
<!-- 7&#45;&gt;6 -->
<g id="edge22" class="edge">
<title>7&#45;&gt;6</title>
<path fill="none" stroke="#c0c0c0" stroke-width="2" d="M456.5,-1295.8314C456.5,-1288.131 456.5,-1278.9743 456.5,-1270.4166"/>
<polygon fill="#c0c0c0" stroke="#c0c0c0" stroke-width="2" points="460.0001,-1270.4132 456.5,-1260.4133 453.0001,-1270.4133 460.0001,-1270.4132"/>
</g>
<!-- 8 -->
<g id="node9" class="node">
<title>8</title>
<path fill="none" stroke="#56b9d8" stroke-width="2" d="M520.5,-1404C520.5,-1404 392.5,-1404 392.5,-1404 386.5,-1404 380.5,-1398 380.5,-1392 380.5,-1392 380.5,-1380 380.5,-1380 380.5,-1374 386.5,-1368 392.5,-1368 392.5,-1368 520.5,-1368 520.5,-1368 526.5,-1368 532.5,-1374 532.5,-1380 532.5,-1380 532.5,-1392 532.5,-1392 532.5,-1398 526.5,-1404 520.5,-1404"/>
<text text-anchor="middle" x="456.5" y="-1383.5" font-family="sans" font-size="10.00" fill="#000000">snv_indels_clairs_to_concat</text>
</g>
<!-- 8&#45;&gt;7 -->
<g id="edge23" class="edge">
<title>8&#45;&gt;7</title>
<path fill="none" stroke="#c0c0c0" stroke-width="2" d="M456.5,-1367.8314C456.5,-1360.131 456.5,-1350.9743 456.5,-1342.4166"/>
<polygon fill="#c0c0c0" stroke="#c0c0c0" stroke-width="2" points="460.0001,-1342.4132 456.5,-1332.4133 453.0001,-1342.4133 460.0001,-1342.4132"/>
</g>
<!-- 9 -->
<g id="node10" class="node">
<title>9</title>
<path fill="none" stroke="#566bd8" stroke-width="2" d="M520,-1476C520,-1476 407,-1476 407,-1476 401,-1476 395,-1470 395,-1464 395,-1464 395,-1452 395,-1452 395,-1446 401,-1440 407,-1440 407,-1440 520,-1440 520,-1440 526,-1440 532,-1446 532,-1452 532,-1452 532,-1464 532,-1464 532,-1470 526,-1476 520,-1476"/>
<text text-anchor="middle" x="463.5" y="-1455.5" font-family="sans" font-size="10.00" fill="#000000">snv_indels_clairs_to_call</text>
</g>
<!-- 9&#45;&gt;8 -->
<g id="edge24" class="edge">
<title>9&#45;&gt;8</title>
<path fill="none" stroke="#c0c0c0" stroke-width="2" d="M461.7336,-1439.8314C460.985,-1432.131 460.0947,-1422.9743 459.2627,-1414.4166"/>
<polygon fill="#c0c0c0" stroke="#c0c0c0" stroke-width="2" points="462.7415,-1414.0276 458.2902,-1404.4133 455.7744,-1414.7051 462.7415,-1414.0276"/>
</g>
<!-- 10 -->
<g id="node11" class="node">
<title>10</title>
<path fill="none" stroke="#a7d856" stroke-width="2" d="M880.5,-1620C880.5,-1620 758.5,-1620 758.5,-1620 752.5,-1620 746.5,-1614 746.5,-1608 746.5,-1608 746.5,-1596 746.5,-1596 746.5,-1590 752.5,-1584 758.5,-1584 758.5,-1584 880.5,-1584 880.5,-1584 886.5,-1584 892.5,-1590 892.5,-1596 892.5,-1596 892.5,-1608 892.5,-1608 892.5,-1614 886.5,-1620 880.5,-1620"/>
<text text-anchor="middle" x="819.5" y="-1599.5" font-family="sans" font-size="10.00" fill="#000000">alignment_pbmm2_merge</text>
</g>
<!-- 10&#45;&gt;6 -->
<g id="edge20" class="edge">
<title>10&#45;&gt;6</title>
<path fill="none" stroke="#c0c0c0" stroke-width="2" d="M746.2746,-1594.7424C614.8456,-1579.6723 352.5,-1539.3965 352.5,-1458 352.5,-1458 352.5,-1458 352.5,-1386 352.5,-1336.6014 393.2193,-1292.6421 423.6997,-1266.6562"/>
<polygon fill="#c0c0c0" stroke="#c0c0c0" stroke-width="2" points="426.1152,-1269.2004 431.5894,-1260.1293 421.6533,-1263.8068 426.1152,-1269.2004"/>
</g>
<!-- 10&#45;&gt;9 -->
<g id="edge25" class="edge">
<title>10&#45;&gt;9</title>
<path fill="none" stroke="#c0c0c0" stroke-width="2" d="M746.3458,-1584.4679C711.5917,-1575.206 669.8096,-1562.7019 633.5,-1548 586.4741,-1528.959 535.3918,-1500.8211 501.6296,-1481.0895"/>
<polygon fill="#c0c0c0" stroke="#c0c0c0" stroke-width="2" points="503.4018,-1478.0713 493.0087,-1476.0136 499.8502,-1484.1034 503.4018,-1478.0713"/>
</g>
<!-- 14 -->
<g id="node15" class="node">
<title>14</title>
<path fill="none" stroke="#56d8d0" stroke-width="2" d="M841,-1548C841,-1548 674,-1548 674,-1548 668,-1548 662,-1542 662,-1536 662,-1536 662,-1524 662,-1524 662,-1518 668,-1512 674,-1512 674,-1512 841,-1512 841,-1512 847,-1512 853,-1518 853,-1524 853,-1524 853,-1536 853,-1536 853,-1542 847,-1548 841,-1548"/>
<text text-anchor="middle" x="757.5" y="-1527.5" font-family="sans" font-size="10.00" fill="#000000">alignment_samtools_index_pbmm2</text>
</g>
<!-- 10&#45;&gt;14 -->
<g id="edge30" class="edge">
<title>10&#45;&gt;14</title>
<path fill="none" stroke="#c0c0c0" stroke-width="2" d="M803.8548,-1583.8314C796.6409,-1575.454 787.943,-1565.3531 780.0395,-1556.1749"/>
<polygon fill="#c0c0c0" stroke="#c0c0c0" stroke-width="2" points="782.5333,-1553.7071 773.3559,-1548.4133 777.2289,-1558.2748 782.5333,-1553.7071"/>
</g>
<!-- 19 -->
<g id="node20" class="node">
<title>19</title>
<path fill="none" stroke="#c6d856" stroke-width="2" d="M674,-1476C674,-1476 601,-1476 601,-1476 595,-1476 589,-1470 589,-1464 589,-1464 589,-1452 589,-1452 589,-1446 595,-1440 601,-1440 601,-1440 674,-1440 674,-1440 680,-1440 686,-1446 686,-1452 686,-1452 686,-1464 686,-1464 686,-1470 680,-1476 674,-1476"/>
<text text-anchor="middle" x="637.5" y="-1455.5" font-family="sans" font-size="10.00" fill="#000000">cnv_sv_sniffles2</text>
</g>
<!-- 10&#45;&gt;19 -->
<g id="edge36" class="edge">
<title>10&#45;&gt;19</title>
<path fill="none" stroke="#c0c0c0" stroke-width="2" d="M746.4983,-1586.0888C708.0572,-1576.2369 666.2823,-1562.6886 653.5,-1548 638.9083,-1531.2321 635.4939,-1505.8718 635.3942,-1486.3404"/>
<polygon fill="#c0c0c0" stroke="#c0c0c0" stroke-width="2" points="638.8969,-1486.2595 635.6298,-1476.181 631.8988,-1486.0971 638.8969,-1486.2595"/>
</g>
<!-- 25 -->
<g id="node26" class="node">
<title>25</title>
<path fill="none" stroke="#d85656" stroke-width="2" d="M312.5,-1332C312.5,-1332 218.5,-1332 218.5,-1332 212.5,-1332 206.5,-1326 206.5,-1320 206.5,-1320 206.5,-1308 206.5,-1308 206.5,-1302 212.5,-1296 218.5,-1296 218.5,-1296 312.5,-1296 312.5,-1296 318.5,-1296 324.5,-1302 324.5,-1308 324.5,-1308 324.5,-1320 324.5,-1320 324.5,-1326 318.5,-1332 312.5,-1332"/>
<text text-anchor="middle" x="265.5" y="-1311.5" font-family="sans" font-size="10.00" fill="#000000">cnv_sv_cnvkit_batch</text>
</g>
<!-- 10&#45;&gt;25 -->
<g id="edge45" class="edge">
<title>10&#45;&gt;25</title>
<path fill="none" stroke="#c0c0c0" stroke-width="2" d="M746.2106,-1598.1499C619.327,-1590.8477 369.2818,-1573.4104 338.5,-1548 276.127,-1496.511 266.1309,-1392.5017 265.1199,-1342.333"/>
<polygon fill="#c0c0c0" stroke="#c0c0c0" stroke-width="2" points="268.6186,-1342.168 265.0253,-1332.2012 261.6189,-1342.2335 268.6186,-1342.168"/>
</g>
<!-- 40 -->
<g id="node41" class="node">
<title>40</title>
<path fill="none" stroke="#80d856" stroke-width="2" d="M1425,-1476C1425,-1476 1200,-1476 1200,-1476 1194,-1476 1188,-1470 1188,-1464 1188,-1464 1188,-1452 1188,-1452 1188,-1446 1194,-1440 1200,-1440 1200,-1440 1425,-1440 1425,-1440 1431,-1440 1437,-1446 1437,-1452 1437,-1452 1437,-1464 1437,-1464 1437,-1470 1431,-1476 1425,-1476"/>
<text text-anchor="middle" x="1312.5" y="-1455.5" font-family="sans" font-size="10.00" fill="#000000">qc_picard_collect_alignment_summary_metrics</text>
</g>
<!-- 10&#45;&gt;40 -->
<g id="edge65" class="edge">
<title>10&#45;&gt;40</title>
<path fill="none" stroke="#c0c0c0" stroke-width="2" d="M881.4396,-1583.9081C973.0741,-1557.1427 1144.3276,-1507.1214 1241.1118,-1478.8517"/>
<polygon fill="#c0c0c0" stroke="#c0c0c0" stroke-width="2" points="1242.1962,-1482.1813 1250.8138,-1476.0179 1240.2335,-1475.4621 1242.1962,-1482.1813"/>
</g>
<!-- 41 -->
<g id="node42" class="node">
<title>41</title>
<path fill="none" stroke="#8fd856" stroke-width="2" d="M1525.5,-1476C1525.5,-1476 1467.5,-1476 1467.5,-1476 1461.5,-1476 1455.5,-1470 1455.5,-1464 1455.5,-1464 1455.5,-1452 1455.5,-1452 1455.5,-1446 1461.5,-1440 1467.5,-1440 1467.5,-1440 1525.5,-1440 1525.5,-1440 1531.5,-1440 1537.5,-1446 1537.5,-1452 1537.5,-1452 1537.5,-1464 1537.5,-1464 1537.5,-1470 1531.5,-1476 1525.5,-1476"/>
<text text-anchor="middle" x="1496.5" y="-1455.5" font-family="sans" font-size="10.00" fill="#000000">qc_mosdepth</text>
</g>
<!-- 10&#45;&gt;41 -->
<g id="edge67" class="edge">
<title>10&#45;&gt;41</title>
<path fill="none" stroke="#c0c0c0" stroke-width="2" d="M892.7321,-1590.8801C1008.7627,-1572.4733 1241.7507,-1532.303 1445.762,-1476.011"/>
<polygon fill="#c0c0c0" stroke="#c0c0c0" stroke-width="2" points="1446.7561,-1479.3674 1455.4543,-1473.3183 1444.8823,-1472.6229 1446.7561,-1479.3674"/>
</g>
<!-- 42 -->
<g id="node43" class="node">
<title>42</title>
<path fill="none" stroke="#56d8c9" stroke-width="2" d="M1158,-1476C1158,-1476 1023,-1476 1023,-1476 1017,-1476 1011,-1470 1011,-1464 1011,-1464 1011,-1452 1011,-1452 1011,-1446 1017,-1440 1023,-1440 1023,-1440 1158,-1440 1158,-1440 1164,-1440 1170,-1446 1170,-1452 1170,-1452 1170,-1464 1170,-1464 1170,-1470 1164,-1476 1158,-1476"/>
<text text-anchor="middle" x="1090.5" y="-1455.5" font-family="sans" font-size="10.00" fill="#000000">qc_picard_collect_hs_metrics</text>
</g>
<!-- 10&#45;&gt;42 -->
<g id="edge69" class="edge">
<title>10&#45;&gt;42</title>
<path fill="none" stroke="#c0c0c0" stroke-width="2" d="M853.5479,-1583.9081C902.7325,-1557.7732 993.6456,-1509.4651 1047.4315,-1480.8851"/>
<polygon fill="#c0c0c0" stroke="#c0c0c0" stroke-width="2" points="1049.1898,-1483.9143 1056.3782,-1476.1311 1045.9051,-1477.7328 1049.1898,-1483.9143"/>
</g>
<!-- 43 -->
<g id="node44" class="node">
<title>43</title>
<path fill="none" stroke="#5673d8" stroke-width="2" d="M1538,-972C1538,-972 1445,-972 1445,-972 1439,-972 1433,-966 1433,-960 1433,-960 1433,-948 1433,-948 1433,-942 1439,-936 1445,-936 1445,-936 1538,-936 1538,-936 1544,-936 1550,-942 1550,-948 1550,-948 1550,-960 1550,-960 1550,-966 1544,-972 1538,-972"/>
<text text-anchor="middle" x="1491.5" y="-951.5" font-family="sans" font-size="10.00" fill="#000000">_copy_mapped_bam</text>
</g>
<!-- 10&#45;&gt;43 -->
<g id="edge71" class="edge">
<title>10&#45;&gt;43</title>
<path fill="none" stroke="#c0c0c0" stroke-width="2" d="M892.7291,-1595.5365C1080.6883,-1577.9674 1565.5,-1526.0546 1565.5,-1458 1565.5,-1458 1565.5,-1458 1565.5,-1098 1565.5,-1052.6585 1536.1176,-1007.2822 1514.382,-979.9182"/>
<polygon fill="#c0c0c0" stroke="#c0c0c0" stroke-width="2" points="1516.9644,-977.5472 1507.923,-972.0242 1511.5468,-981.9801 1516.9644,-977.5472"/>
</g>
<!-- 48 -->
<g id="node49" class="node">
<title>48</title>
<path fill="none" stroke="#9fd856" stroke-width="2" d="M894,-1476C894,-1476 793,-1476 793,-1476 787,-1476 781,-1470 781,-1464 781,-1464 781,-1452 781,-1452 781,-1446 787,-1440 793,-1440 793,-1440 894,-1440 894,-1440 900,-1440 906,-1446 906,-1452 906,-1452 906,-1464 906,-1464 906,-1470 900,-1476 894,-1476"/>
<text text-anchor="middle" x="843.5" y="-1455.5" font-family="sans" font-size="10.00" fill="#000000">cnv_sv_pbsv_discover</text>
</g>
<!-- 10&#45;&gt;48 -->
<g id="edge76" class="edge">
<title>10&#45;&gt;48</title>
<path fill="none" stroke="#c0c0c0" stroke-width="2" d="M838.9956,-1583.9663C848.0103,-1574.2894 857.7551,-1561.5757 862.5,-1548 869.6131,-1527.6486 863.9403,-1503.7333 856.9887,-1485.6725"/>
<polygon fill="#c0c0c0" stroke="#c0c0c0" stroke-width="2" points="860.1564,-1484.1754 853.0682,-1476.3008 853.6987,-1486.8769 860.1564,-1484.1754"/>
</g>
<!-- 11 -->
<g id="node12" class="node">
<title>11</title>
<path fill="none" stroke="#56a2d8" stroke-width="2" d="M876.5,-1692C876.5,-1692 762.5,-1692 762.5,-1692 756.5,-1692 750.5,-1686 750.5,-1680 750.5,-1680 750.5,-1668 750.5,-1668 750.5,-1662 756.5,-1656 762.5,-1656 762.5,-1656 876.5,-1656 876.5,-1656 882.5,-1656 888.5,-1662 888.5,-1668 888.5,-1668 888.5,-1680 888.5,-1680 888.5,-1686 882.5,-1692 876.5,-1692"/>
<text text-anchor="middle" x="819.5" y="-1671.5" font-family="sans" font-size="10.00" fill="#000000">alignment_pbmm2_align</text>
</g>
<!-- 11&#45;&gt;10 -->
<g id="edge27" class="edge">
<title>11&#45;&gt;10</title>
<path fill="none" stroke="#c0c0c0" stroke-width="2" d="M819.5,-1655.8314C819.5,-1648.131 819.5,-1638.9743 819.5,-1630.4166"/>
<polygon fill="#c0c0c0" stroke="#c0c0c0" stroke-width="2" points="823.0001,-1630.4132 819.5,-1620.4133 816.0001,-1630.4133 823.0001,-1630.4132"/>
</g>
<!-- 12 -->
<g id="node13" class="node">
<title>12</title>
<path fill="none" stroke="#68d856" stroke-width="2" d="M799,-1764C799,-1764 680,-1764 680,-1764 674,-1764 668,-1758 668,-1752 668,-1752 668,-1740 668,-1740 668,-1734 674,-1728 680,-1728 680,-1728 799,-1728 799,-1728 805,-1728 811,-1734 811,-1740 811,-1740 811,-1752 811,-1752 811,-1758 805,-1764 799,-1764"/>
<text text-anchor="middle" x="739.5" y="-1743.5" font-family="sans" font-size="10.00" fill="#000000">prealignment_pbmarkdup</text>
</g>
<!-- 12&#45;&gt;11 -->
<g id="edge29" class="edge">
<title>12&#45;&gt;11</title>
<path fill="none" stroke="#c0c0c0" stroke-width="2" d="M759.6874,-1727.8314C769.3514,-1719.1337 781.0796,-1708.5783 791.5816,-1699.1265"/>
<polygon fill="#c0c0c0" stroke="#c0c0c0" stroke-width="2" points="794.2275,-1701.454 799.3191,-1692.1628 789.5447,-1696.251 794.2275,-1701.454"/>
</g>
<!-- 13 -->
<g id="node14" class="node">
<title>13</title>
<path fill="none" stroke="#d8b456" stroke-width="2" d="M958,-1764C958,-1764 841,-1764 841,-1764 835,-1764 829,-1758 829,-1752 829,-1752 829,-1740 829,-1740 829,-1734 835,-1728 841,-1728 841,-1728 958,-1728 958,-1728 964,-1728 970,-1734 970,-1740 970,-1740 970,-1752 970,-1752 970,-1758 964,-1764 958,-1764"/>
<text text-anchor="middle" x="899.5" y="-1743.5" font-family="sans" font-size="10.00" fill="#000000">alignment_pbmm2_index</text>
</g>
<!-- 13&#45;&gt;11 -->
<g id="edge28" class="edge">
<title>13&#45;&gt;11</title>
<path fill="none" stroke="#c0c0c0" stroke-width="2" d="M879.3126,-1727.8314C869.6486,-1719.1337 857.9204,-1708.5783 847.4184,-1699.1265"/>
<polygon fill="#c0c0c0" stroke="#c0c0c0" stroke-width="2" points="849.4553,-1696.251 839.6809,-1692.1628 844.7725,-1701.454 849.4553,-1696.251"/>
</g>
<!-- 14&#45;&gt;6 -->
<g id="edge21" class="edge">
<title>14&#45;&gt;6</title>
<path fill="none" stroke="#c0c0c0" stroke-width="2" d="M746.9543,-1511.68C735.5667,-1492.6934 716.2506,-1462.6761 695.5,-1440 630.6443,-1369.1261 540.198,-1300.9321 491.266,-1266.0633"/>
<polygon fill="#c0c0c0" stroke="#c0c0c0" stroke-width="2" points="493.0993,-1263.0729 482.9157,-1260.1497 489.0537,-1268.7854 493.0993,-1263.0729"/>
</g>
<!-- 14&#45;&gt;9 -->
<g id="edge26" class="edge">
<title>14&#45;&gt;9</title>
<path fill="none" stroke="#c0c0c0" stroke-width="2" d="M683.6909,-1511.9243C640.52,-1501.3518 586.0422,-1488.0103 542.0758,-1477.243"/>
<polygon fill="#c0c0c0" stroke="#c0c0c0" stroke-width="2" points="542.8355,-1473.8258 532.29,-1474.8465 541.1704,-1480.6248 542.8355,-1473.8258"/>
</g>
<!-- 14&#45;&gt;19 -->
<g id="edge37" class="edge">
<title>14&#45;&gt;19</title>
<path fill="none" stroke="#c0c0c0" stroke-width="2" d="M727.2189,-1511.8314C711.8702,-1502.6221 693.0502,-1491.3301 676.6177,-1481.4706"/>
<polygon fill="#c0c0c0" stroke="#c0c0c0" stroke-width="2" points="678.1471,-1478.3066 667.7714,-1476.1628 674.5456,-1484.3091 678.1471,-1478.3066"/>
</g>
<!-- 14&#45;&gt;25 -->
<g id="edge46" class="edge">
<title>14&#45;&gt;25</title>
<path fill="none" stroke="#c0c0c0" stroke-width="2" d="M673.4992,-1511.961C634.8991,-1502.1895 594.5862,-1489.3933 580.5,-1476 543.5154,-1440.8349 580.2441,-1401.2165 541.5,-1368 525.8912,-1354.6181 411.3391,-1335.4685 334.8022,-1323.9342"/>
<polygon fill="#c0c0c0" stroke="#c0c0c0" stroke-width="2" points="335.1433,-1320.4464 324.7355,-1322.4279 334.1074,-1327.3693 335.1433,-1320.4464"/>
</g>
<!-- 14&#45;&gt;40 -->
<g id="edge66" class="edge">
<title>14&#45;&gt;40</title>
<path fill="none" stroke="#c0c0c0" stroke-width="2" d="M853.0579,-1517.9728C936.1838,-1507.4639 1060.1954,-1491.6749 1177.6522,-1476.2391"/>
<polygon fill="#c0c0c0" stroke="#c0c0c0" stroke-width="2" points="1178.4464,-1479.6648 1187.9044,-1474.8904 1177.5333,-1472.7246 1178.4464,-1479.6648"/>
</g>
<!-- 14&#45;&gt;41 -->
<g id="edge68" class="edge">
<title>14&#45;&gt;41</title>
<path fill="none" stroke="#c0c0c0" stroke-width="2" d="M853.2067,-1525.6617C1010.7955,-1518.0026 1319.2019,-1500.7102 1445.43,-1475.8378"/>
<polygon fill="#c0c0c0" stroke="#c0c0c0" stroke-width="2" points="1446.1943,-1479.2539 1455.2778,-1473.8005 1444.7761,-1472.3991 1446.1943,-1479.2539"/>
</g>
<!-- 14&#45;&gt;42 -->
<g id="edge70" class="edge">
<title>14&#45;&gt;42</title>
<path fill="none" stroke="#c0c0c0" stroke-width="2" d="M841.1001,-1511.9243C889.8668,-1501.3802 951.3718,-1488.0818 1001.1006,-1477.3296"/>
<polygon fill="#c0c0c0" stroke="#c0c0c0" stroke-width="2" points="1001.8476,-1480.749 1010.8821,-1475.2147 1000.3682,-1473.9071 1001.8476,-1480.749"/>
</g>
<!-- 44 -->
<g id="node45" class="node">
<title>44</title>
<path fill="none" stroke="#56d0d8" stroke-width="2" d="M878,-1044C878,-1044 753,-1044 753,-1044 747,-1044 741,-1038 741,-1032 741,-1032 741,-1020 741,-1020 741,-1014 747,-1008 753,-1008 753,-1008 878,-1008 878,-1008 884,-1008 890,-1014 890,-1020 890,-1020 890,-1032 890,-1032 890,-1038 884,-1044 878,-1044"/>
<text text-anchor="middle" x="815.5" y="-1023.5" font-family="sans" font-size="10.00" fill="#000000">_copy_mapped_bam_index</text>
</g>
<!-- 14&#45;&gt;44 -->
<g id="edge72" class="edge">
<title>14&#45;&gt;44</title>
<path fill="none" stroke="#c0c0c0" stroke-width="2" d="M756.464,-1511.8216C754.9995,-1484.5143 752.5,-1431.2773 752.5,-1386 752.5,-1386 752.5,-1386 752.5,-1170 752.5,-1126.171 777.2996,-1080.6548 795.7797,-1052.8215"/>
<polygon fill="#c0c0c0" stroke="#c0c0c0" stroke-width="2" points="798.7621,-1054.6608 801.5183,-1044.4307 792.9841,-1050.7091 798.7621,-1054.6608"/>
</g>
<!-- 14&#45;&gt;48 -->
<g id="edge77" class="edge">
<title>14&#45;&gt;48</title>
<path fill="none" stroke="#c0c0c0" stroke-width="2" d="M779.2014,-1511.8314C789.6921,-1503.0485 802.4455,-1492.3712 813.8194,-1482.8489"/>
<polygon fill="#c0c0c0" stroke="#c0c0c0" stroke-width="2" points="816.3847,-1485.2659 821.8055,-1476.1628 811.8911,-1479.8986 816.3847,-1485.2659"/>
</g>
<!-- 15&#45;&gt;5 -->
<g id="edge18" class="edge">
<title>15&#45;&gt;5</title>
<path fill="none" stroke="#c0c0c0" stroke-width="2" d="M465.668,-1151.8314C461.8014,-1143.8771 457.1794,-1134.369 452.9032,-1125.5723"/>
<polygon fill="#c0c0c0" stroke="#c0c0c0" stroke-width="2" points="455.9707,-1123.8768 448.4509,-1116.4133 449.6751,-1126.9371 455.9707,-1123.8768"/>
</g>
<!-- 16 -->
<g id="node17" class="node">
<title>16</title>
<path fill="none" stroke="#568ad8" stroke-width="2" d="M628.5,-180C628.5,-180 540.5,-180 540.5,-180 534.5,-180 528.5,-174 528.5,-168 528.5,-168 528.5,-156 528.5,-156 528.5,-150 534.5,-144 540.5,-144 540.5,-144 628.5,-144 628.5,-144 634.5,-144 640.5,-150 640.5,-156 640.5,-156 640.5,-168 640.5,-168 640.5,-174 634.5,-180 628.5,-180"/>
<text text-anchor="middle" x="584.5" y="-159.5" font-family="sans" font-size="10.00" fill="#000000">_copy_sniffles2_vcf</text>
</g>
<!-- 16&#45;&gt;0 -->
<g id="edge7" class="edge">
<title>16&#45;&gt;0</title>
<path fill="none" stroke="#c0c0c0" stroke-width="2" d="M595.7556,-143.6583C608.9751,-123.5107 632.6685,-91.4394 660.5,-72 694.4922,-48.2576 740.1238,-33.6984 771.6904,-25.772"/>
<polygon fill="#c0c0c0" stroke="#c0c0c0" stroke-width="2" points="772.5112,-29.1745 781.4124,-23.4284 770.8706,-22.3695 772.5112,-29.1745"/>
</g>
<!-- 17 -->
<g id="node18" class="node">
<title>17</title>
<path fill="none" stroke="#56d8c1" stroke-width="2" d="M760,-252C760,-252 541,-252 541,-252 535,-252 529,-246 529,-240 529,-240 529,-228 529,-228 529,-222 535,-216 541,-216 541,-216 760,-216 760,-216 766,-216 772,-222 772,-228 772,-228 772,-240 772,-240 772,-246 766,-252 760,-252"/>
<text text-anchor="middle" x="650.5" y="-231.5" font-family="sans" font-size="10.00" fill="#000000">filtering_bcftools_filter_include_region_sniffles</text>
</g>
<!-- 17&#45;&gt;16 -->
<g id="edge32" class="edge">
<title>17&#45;&gt;16</title>
<path fill="none" stroke="#c0c0c0" stroke-width="2" d="M633.8454,-215.8314C626.0886,-207.3694 616.7198,-197.1489 608.239,-187.8971"/>
<polygon fill="#c0c0c0" stroke="#c0c0c0" stroke-width="2" points="610.7162,-185.4198 601.3788,-180.4133 605.5561,-190.1499 610.7162,-185.4198"/>
</g>
<!-- 18 -->
<g id="node19" class="node">
<title>18</title>
<path fill="none" stroke="#56c1d8" stroke-width="2" d="M723.5,-396C723.5,-396 625.5,-396 625.5,-396 619.5,-396 613.5,-390 613.5,-384 613.5,-384 613.5,-372 613.5,-372 613.5,-366 619.5,-360 625.5,-360 625.5,-360 723.5,-360 723.5,-360 729.5,-360 735.5,-366 735.5,-372 735.5,-372 735.5,-384 735.5,-384 735.5,-390 729.5,-396 723.5,-396"/>
<text text-anchor="middle" x="674.5" y="-375.5" font-family="sans" font-size="10.00" fill="#000000">cnv_sv_bgzip_sniffles</text>
</g>
<!-- 18&#45;&gt;17 -->
<g id="edge34" class="edge">
<title>18&#45;&gt;17</title>
<path fill="none" stroke="#c0c0c0" stroke-width="2" d="M639.5585,-359.7767C626.3493,-350.9077 612.7623,-338.9055 605.5,-324 598.492,-309.6164 600.0532,-303.0443 605.5,-288 609.2149,-277.7392 615.8252,-268.0579 622.8548,-259.8033"/>
<polygon fill="#c0c0c0" stroke="#c0c0c0" stroke-width="2" points="625.4944,-262.1031 629.6422,-252.3539 620.32,-257.3886 625.4944,-262.1031"/>
</g>
<!-- 20 -->
<g id="node21" class="node">
<title>20</title>
<path fill="none" stroke="#59d856" stroke-width="2" d="M723,-324C723,-324 626,-324 626,-324 620,-324 614,-318 614,-312 614,-312 614,-300 614,-300 614,-294 620,-288 626,-288 626,-288 723,-288 723,-288 729,-288 735,-294 735,-300 735,-300 735,-312 735,-312 735,-318 729,-324 723,-324"/>
<text text-anchor="middle" x="674.5" y="-303.5" font-family="sans" font-size="10.00" fill="#000000">cnv_sv_tabix_sniffles</text>
</g>
<!-- 18&#45;&gt;20 -->
<g id="edge38" class="edge">
<title>18&#45;&gt;20</title>
<path fill="none" stroke="#c0c0c0" stroke-width="2" d="M674.5,-359.8314C674.5,-352.131 674.5,-342.9743 674.5,-334.4166"/>
<polygon fill="#c0c0c0" stroke="#c0c0c0" stroke-width="2" points="678.0001,-334.4132 674.5,-324.4133 671.0001,-334.4133 678.0001,-334.4132"/>
</g>
<!-- 52 -->
<g id="node53" class="node">
<title>52</title>
<path fill="none" stroke="#d8c356" stroke-width="2" d="M858,-324C858,-324 765,-324 765,-324 759,-324 753,-318 753,-312 753,-312 753,-300 753,-300 753,-294 759,-288 765,-288 765,-288 858,-288 858,-288 864,-288 870,-294 870,-300 870,-300 870,-312 870,-312 870,-318 864,-324 858,-324"/>
<text text-anchor="middle" x="811.5" y="-303.5" font-family="sans" font-size="10.00" fill="#000000">cnv_sv_sniffles2_vcf</text>
</g>
<!-- 18&#45;&gt;52 -->
<g id="edge82" class="edge">
<title>18&#45;&gt;52</title>
<path fill="none" stroke="#c0c0c0" stroke-width="2" d="M709.0709,-359.8314C726.9185,-350.4516 748.8774,-338.9112 767.88,-328.9244"/>
<polygon fill="#c0c0c0" stroke="#c0c0c0" stroke-width="2" points="769.7164,-331.9132 776.9402,-324.1628 766.4599,-325.7168 769.7164,-331.9132"/>
</g>
<!-- 19&#45;&gt;18 -->
<g id="edge35" class="edge">
<title>19&#45;&gt;18</title>
<path fill="none" stroke="#c0c0c0" stroke-width="2" d="M645.3467,-1439.746C656.2078,-1412.7781 674.5,-1360.4617 674.5,-1314 674.5,-1314 674.5,-1314 674.5,-522 674.5,-481.876 674.5,-435.4631 674.5,-406.4177"/>
<polygon fill="#c0c0c0" stroke="#c0c0c0" stroke-width="2" points="678.0001,-406.1853 674.5,-396.1854 671.0001,-406.1854 678.0001,-406.1853"/>
</g>
<!-- 20&#45;&gt;17 -->
<g id="edge33" class="edge">
<title>20&#45;&gt;17</title>
<path fill="none" stroke="#c0c0c0" stroke-width="2" d="M668.4438,-287.8314C665.8488,-280.0463 662.7576,-270.7729 659.8782,-262.1347"/>
<polygon fill="#c0c0c0" stroke="#c0c0c0" stroke-width="2" points="663.1205,-260.7933 656.6378,-252.4133 656.4797,-263.0069 663.1205,-260.7933"/>
</g>
<!-- 21 -->
<g id="node22" class="node">
<title>21</title>
<path fill="none" stroke="#56a9d8" stroke-width="2" d="M460.5,-108C460.5,-108 336.5,-108 336.5,-108 330.5,-108 324.5,-102 324.5,-96 324.5,-96 324.5,-84 324.5,-84 324.5,-78 330.5,-72 336.5,-72 336.5,-72 460.5,-72 460.5,-72 466.5,-72 472.5,-78 472.5,-84 472.5,-84 472.5,-96 472.5,-96 472.5,-102 466.5,-108 460.5,-108"/>
<text text-anchor="middle" x="398.5" y="-87.5" font-family="sans" font-size="10.00" fill="#000000">_copy_cnvkit_html_reports</text>
</g>
<!-- 21&#45;&gt;0 -->
<g id="edge6" class="edge">
<title>21&#45;&gt;0</title>
<path fill="none" stroke="#c0c0c0" stroke-width="2" d="M472.8808,-74.5919C477.486,-73.698 482.054,-72.8272 486.5,-72 589.2755,-52.8773 711.0868,-33.2812 771.1659,-23.8185"/>
<polygon fill="#c0c0c0" stroke="#c0c0c0" stroke-width="2" points="771.9669,-27.2357 781.3025,-22.2259 770.8804,-20.3205 771.9669,-27.2357"/>
</g>
<!-- 22 -->
<g id="node23" class="node">
<title>22</title>
<path fill="none" stroke="#56d86b" stroke-width="2" d="M435.5,-180C435.5,-180 323.5,-180 323.5,-180 317.5,-180 311.5,-174 311.5,-168 311.5,-168 311.5,-156 311.5,-156 311.5,-150 317.5,-144 323.5,-144 323.5,-144 435.5,-144 435.5,-144 441.5,-144 447.5,-150 447.5,-156 447.5,-156 447.5,-168 447.5,-168 447.5,-174 441.5,-180 435.5,-180"/>
<text text-anchor="middle" x="379.5" y="-159.5" font-family="sans" font-size="10.00" fill="#000000">reports_cnv_html_report</text>
</g>
<!-- 22&#45;&gt;21 -->
<g id="edge39" class="edge">
<title>22&#45;&gt;21</title>
<path fill="none" stroke="#c0c0c0" stroke-width="2" d="M384.2945,-143.8314C386.3489,-136.0463 388.796,-126.7729 391.0756,-118.1347"/>
<polygon fill="#c0c0c0" stroke="#c0c0c0" stroke-width="2" points="394.4735,-118.9753 393.6409,-108.4133 387.7052,-117.1892 394.4735,-118.9753"/>
</g>
<!-- 23 -->
<g id="node24" class="node">
<title>23</title>
<path fill="none" stroke="#d8a456" stroke-width="2" d="M415.5,-252C415.5,-252 303.5,-252 303.5,-252 297.5,-252 291.5,-246 291.5,-240 291.5,-240 291.5,-228 291.5,-228 291.5,-222 297.5,-216 303.5,-216 303.5,-216 415.5,-216 415.5,-216 421.5,-216 427.5,-222 427.5,-228 427.5,-228 427.5,-240 427.5,-240 427.5,-246 421.5,-252 415.5,-252"/>
<text text-anchor="middle" x="359.5" y="-231.5" font-family="sans" font-size="10.00" fill="#000000">reports_merge_cnv_json</text>
</g>
<!-- 23&#45;&gt;22 -->
<g id="edge40" class="edge">
<title>23&#45;&gt;22</title>
<path fill="none" stroke="#c0c0c0" stroke-width="2" d="M364.5468,-215.8314C366.7094,-208.0463 369.2853,-198.7729 371.6848,-190.1347"/>
<polygon fill="#c0c0c0" stroke="#c0c0c0" stroke-width="2" points="375.081,-190.9852 374.3852,-180.4133 368.3364,-189.1117 375.081,-190.9852"/>
</g>
<!-- 24 -->
<g id="node25" class="node">
<title>24</title>
<path fill="none" stroke="#d86e56" stroke-width="2" d="M303,-1260C303,-1260 228,-1260 228,-1260 222,-1260 216,-1254 216,-1248 216,-1248 216,-1236 216,-1236 216,-1230 222,-1224 228,-1224 228,-1224 303,-1224 303,-1224 309,-1224 315,-1230 315,-1236 315,-1236 315,-1248 315,-1248 315,-1254 309,-1260 303,-1260"/>
<text text-anchor="middle" x="265.5" y="-1239.5" font-family="sans" font-size="10.00" fill="#000000">reports_cnv_json</text>
</g>
<!-- 24&#45;&gt;23 -->
<g id="edge43" class="edge">
<title>24&#45;&gt;23</title>
<path fill="none" stroke="#c0c0c0" stroke-width="2" d="M263.2208,-1223.8486C259.9988,-1196.5755 254.5,-1143.3818 254.5,-1098 254.5,-1098 254.5,-1098 254.5,-666 254.5,-509.2593 320.5729,-329.349 347.8923,-261.6597"/>
<polygon fill="#c0c0c0" stroke="#c0c0c0" stroke-width="2" points="351.2391,-262.7219 351.7791,-252.1408 344.7585,-260.0757 351.2391,-262.7219"/>
</g>
<!-- 25&#45;&gt;24 -->
<g id="edge44" class="edge">
<title>25&#45;&gt;24</title>
<path fill="none" stroke="#c0c0c0" stroke-width="2" d="M265.5,-1295.8314C265.5,-1288.131 265.5,-1278.9743 265.5,-1270.4166"/>
<polygon fill="#c0c0c0" stroke="#c0c0c0" stroke-width="2" points="269.0001,-1270.4132 265.5,-1260.4133 262.0001,-1270.4133 269.0001,-1270.4132"/>
</g>
<!-- 33 -->
<g id="node34" class="node">
<title>33</title>
<path fill="none" stroke="#d6d856" stroke-width="2" d="M229.5,-540C229.5,-540 145.5,-540 145.5,-540 139.5,-540 133.5,-534 133.5,-528 133.5,-528 133.5,-516 133.5,-516 133.5,-510 139.5,-504 145.5,-504 145.5,-504 229.5,-504 229.5,-504 235.5,-504 241.5,-510 241.5,-516 241.5,-516 241.5,-528 241.5,-528 241.5,-534 235.5,-540 229.5,-540"/>
<text text-anchor="middle" x="187.5" y="-519.5" font-family="sans" font-size="10.00" fill="#000000">cnv_sv_cnvkit_call</text>
</g>
<!-- 25&#45;&gt;33 -->
<g id="edge56" class="edge">
<title>25&#45;&gt;33</title>
<path fill="none" stroke="#c0c0c0" stroke-width="2" d="M239.0299,-1295.7641C227.35,-1286.3863 214.4871,-1273.9876 206.5,-1260 186.228,-1224.4985 187.5,-1210.8816 187.5,-1170 187.5,-1170 187.5,-1170 187.5,-666 187.5,-625.876 187.5,-579.4631 187.5,-550.4177"/>
<polygon fill="#c0c0c0" stroke="#c0c0c0" stroke-width="2" points="191.0001,-550.1853 187.5,-540.1854 184.0001,-550.1854 191.0001,-550.1853"/>
</g>
<!-- 26 -->
<g id="node27" class="node">
<title>26</title>
<path fill="none" stroke="#5682d8" stroke-width="2" d="M460,-612C460,-612 295,-612 295,-612 289,-612 283,-606 283,-600 283,-600 283,-588 283,-588 283,-582 289,-576 295,-576 295,-576 460,-576 460,-576 466,-576 472,-582 472,-588 472,-588 472,-600 472,-600 472,-606 466,-612 460,-612"/>
<text text-anchor="middle" x="377.5" y="-591.5" font-family="sans" font-size="10.00" fill="#000000">filtering_bcftools_view_nonsomatic</text>
</g>
<!-- 26&#45;&gt;23 -->
<g id="edge42" class="edge">
<title>26&#45;&gt;23</title>
<path fill="none" stroke="#c0c0c0" stroke-width="2" d="M375.0136,-575.855C371.4987,-548.5902 365.5,-495.4068 365.5,-450 365.5,-450 365.5,-450 365.5,-378 365.5,-337.8412 363.1417,-291.4372 361.3821,-262.4031"/>
<polygon fill="#c0c0c0" stroke="#c0c0c0" stroke-width="2" points="364.8599,-261.9376 360.7432,-252.1753 357.8736,-262.3741 364.8599,-261.9376"/>
</g>
<!-- 26&#45;&gt;33 -->
<g id="edge55" class="edge">
<title>26&#45;&gt;33</title>
<path fill="none" stroke="#c0c0c0" stroke-width="2" d="M329.555,-575.8314C303.6918,-566.0306 271.6038,-553.8709 244.472,-543.5894"/>
<polygon fill="#c0c0c0" stroke="#c0c0c0" stroke-width="2" points="245.6916,-540.3087 235.1003,-540.038 243.2111,-546.8545 245.6916,-540.3087"/>
</g>
<!-- 27 -->
<g id="node28" class="node">
<title>27</title>
<path fill="none" stroke="#afd856" stroke-width="2" d="M425.5,-684C425.5,-684 323.5,-684 323.5,-684 317.5,-684 311.5,-678 311.5,-672 311.5,-672 311.5,-660 311.5,-660 311.5,-654 317.5,-648 323.5,-648 323.5,-648 425.5,-648 425.5,-648 431.5,-648 437.5,-654 437.5,-660 437.5,-660 437.5,-672 437.5,-672 437.5,-678 431.5,-684 425.5,-684"/>
<text text-anchor="middle" x="374.5" y="-663.5" font-family="sans" font-size="10.00" fill="#000000">bgzip_filtered_vep_vcf</text>
</g>
<!-- 27&#45;&gt;26 -->
<g id="edge47" class="edge">
<title>27&#45;&gt;26</title>
<path fill="none" stroke="#c0c0c0" stroke-width="2" d="M375.257,-647.8314C375.5779,-640.131 375.9594,-630.9743 376.316,-622.4166"/>
<polygon fill="#c0c0c0" stroke="#c0c0c0" stroke-width="2" points="379.8133,-622.5503 376.7328,-612.4133 372.8194,-622.2589 379.8133,-622.5503"/>
</g>
<!-- 28&#45;&gt;27 -->
<g id="edge48" class="edge">
<title>28&#45;&gt;27</title>
<path fill="none" stroke="#c0c0c0" stroke-width="2" d="M373.0047,-719.8314C373.2186,-712.131 373.4729,-702.9743 373.7106,-694.4166"/>
<polygon fill="#c0c0c0" stroke="#c0c0c0" stroke-width="2" points="377.2094,-694.5066 373.9885,-684.4133 370.2121,-694.3122 377.2094,-694.5066"/>
</g>
<!-- 29&#45;&gt;28 -->
<g id="edge49" class="edge">
<title>29&#45;&gt;28</title>
<path fill="none" stroke="#c0c0c0" stroke-width="2" d="M372.5,-791.8314C372.5,-784.131 372.5,-774.9743 372.5,-766.4166"/>
<polygon fill="#c0c0c0" stroke="#c0c0c0" stroke-width="2" points="376.0001,-766.4132 372.5,-756.4133 369.0001,-766.4133 376.0001,-766.4132"/>
</g>
<!-- 30 -->
<g id="node31" class="node">
<title>30</title>
<path fill="none" stroke="#565bd8" stroke-width="2" d="M231,-324C231,-324 118,-324 118,-324 112,-324 106,-318 106,-312 106,-312 106,-300 106,-300 106,-294 112,-288 118,-288 118,-288 231,-288 231,-288 237,-288 243,-294 243,-300 243,-300 243,-312 243,-312 243,-318 237,-324 231,-324"/>
<text text-anchor="middle" x="174.5" y="-303.5" font-family="sans" font-size="10.00" fill="#000000">cnv_sv_bgzip_cnvkit_vcf</text>
</g>
<!-- 30&#45;&gt;23 -->
<g id="edge41" class="edge">
<title>30&#45;&gt;23</title>
<path fill="none" stroke="#c0c0c0" stroke-width="2" d="M221.1833,-287.8314C246.2559,-278.0734 277.3367,-265.977 303.6809,-255.7242"/>
<polygon fill="#c0c0c0" stroke="#c0c0c0" stroke-width="2" points="305.1027,-258.9266 313.1524,-252.038 302.5638,-252.4033 305.1027,-258.9266"/>
</g>
<!-- 36 -->
<g id="node37" class="node">
<title>36</title>
<path fill="none" stroke="#d89556" stroke-width="2" d="M237.5,-252C237.5,-252 125.5,-252 125.5,-252 119.5,-252 113.5,-246 113.5,-240 113.5,-240 113.5,-228 113.5,-228 113.5,-222 119.5,-216 125.5,-216 125.5,-216 237.5,-216 237.5,-216 243.5,-216 249.5,-222 249.5,-228 249.5,-228 249.5,-240 249.5,-240 249.5,-246 243.5,-252 237.5,-252"/>
<text text-anchor="middle" x="181.5" y="-231.5" font-family="sans" font-size="10.00" fill="#000000">cnv_sv_tabix_cnvkit_vcf</text>
</g>
<!-- 30&#45;&gt;36 -->
<g id="edge59" class="edge">
<title>30&#45;&gt;36</title>
<path fill="none" stroke="#c0c0c0" stroke-width="2" d="M176.2664,-287.8314C177.015,-280.131 177.9053,-270.9743 178.7373,-262.4166"/>
<polygon fill="#c0c0c0" stroke="#c0c0c0" stroke-width="2" points="182.2256,-262.7051 179.7098,-252.4133 175.2585,-262.0276 182.2256,-262.7051"/>
</g>
<!-- 31 -->
<g id="node32" class="node">
<title>31</title>
<path fill="none" stroke="#56d882" stroke-width="2" d="M231,-396C231,-396 82,-396 82,-396 76,-396 70,-390 70,-384 70,-384 70,-372 70,-372 70,-366 76,-360 82,-360 82,-360 231,-360 231,-360 237,-360 243,-366 243,-372 243,-372 243,-384 243,-384 243,-390 237,-396 231,-396"/>
<text text-anchor="middle" x="156.5" y="-375.5" font-family="sans" font-size="10.00" fill="#000000">annotation_annotate_cnvkit_vcf</text>
</g>
<!-- 31&#45;&gt;30 -->
<g id="edge52" class="edge">
<title>31&#45;&gt;30</title>
<path fill="none" stroke="#c0c0c0" stroke-width="2" d="M161.0422,-359.8314C162.9884,-352.0463 165.3068,-342.7729 167.4663,-334.1347"/>
<polygon fill="#c0c0c0" stroke="#c0c0c0" stroke-width="2" points="170.8668,-334.9636 169.8967,-324.4133 164.0758,-333.2658 170.8668,-334.9636"/>
</g>
<!-- 34 -->
<g id="node35" class="node">
<title>34</title>
<path fill="none" stroke="#d88556" stroke-width="2" d="M143,-108C143,-108 12,-108 12,-108 6,-108 0,-102 0,-96 0,-96 0,-84 0,-84 0,-78 6,-72 12,-72 12,-72 143,-72 143,-72 149,-72 155,-78 155,-84 155,-84 155,-96 155,-96 155,-102 149,-108 143,-108"/>
<text text-anchor="middle" x="77.5" y="-87.5" font-family="sans" font-size="10.00" fill="#000000">_copy_annotated_cnvkit_vcf</text>
</g>
<!-- 31&#45;&gt;34 -->
<g id="edge57" class="edge">
<title>31&#45;&gt;34</title>
<path fill="none" stroke="#c0c0c0" stroke-width="2" d="M128.1379,-359.8049C116.2586,-350.5936 103.5854,-338.319 96.5,-324 63.0303,-256.3606 68.0364,-164.155 73.3703,-118.3022"/>
<polygon fill="#c0c0c0" stroke="#c0c0c0" stroke-width="2" points="76.865,-118.5631 74.6398,-108.2046 69.9197,-117.6899 76.865,-118.5631"/>
</g>
<!-- 32 -->
<g id="node33" class="node">
<title>32</title>
<path fill="none" stroke="#b6d856" stroke-width="2" d="M213.5,-468C213.5,-468 131.5,-468 131.5,-468 125.5,-468 119.5,-462 119.5,-456 119.5,-456 119.5,-444 119.5,-444 119.5,-438 125.5,-432 131.5,-432 131.5,-432 213.5,-432 213.5,-432 219.5,-432 225.5,-438 225.5,-444 225.5,-444 225.5,-456 225.5,-456 225.5,-462 219.5,-468 213.5,-468"/>
<text text-anchor="middle" x="172.5" y="-447.5" font-family="sans" font-size="10.00" fill="#000000">cnv_sv_cnvkit_vcf</text>
</g>
<!-- 32&#45;&gt;31 -->
<g id="edge53" class="edge">
<title>32&#45;&gt;31</title>
<path fill="none" stroke="#c0c0c0" stroke-width="2" d="M168.4625,-431.8314C166.7513,-424.131 164.7165,-414.9743 162.8148,-406.4166"/>
<polygon fill="#c0c0c0" stroke="#c0c0c0" stroke-width="2" points="166.1779,-405.4159 160.5918,-396.4133 159.3446,-406.9344 166.1779,-405.4159"/>
</g>
<!-- 33&#45;&gt;32 -->
<g id="edge54" class="edge">
<title>33&#45;&gt;32</title>
<path fill="none" stroke="#c0c0c0" stroke-width="2" d="M183.7149,-503.8314C182.1106,-496.131 180.203,-486.9743 178.4201,-478.4166"/>
<polygon fill="#c0c0c0" stroke="#c0c0c0" stroke-width="2" points="181.8021,-477.4892 176.3361,-468.4133 174.9493,-478.9169 181.8021,-477.4892"/>
</g>
<!-- 34&#45;&gt;0 -->
<g id="edge4" class="edge">
<title>34&#45;&gt;0</title>
<path fill="none" stroke="#c0c0c0" stroke-width="2" d="M155.2393,-73.2826C158.023,-72.8263 160.783,-72.3965 163.5,-72 393.0873,-38.4921 671.9141,-23.9076 771.2007,-19.5188"/>
<polygon fill="#c0c0c0" stroke="#c0c0c0" stroke-width="2" points="771.489,-23.0097 781.3278,-19.0792 771.1854,-16.0162 771.489,-23.0097"/>
</g>
<!-- 35 -->
<g id="node36" class="node">
<title>35</title>
<path fill="none" stroke="#56c9d8" stroke-width="2" d="M294,-108C294,-108 185,-108 185,-108 179,-108 173,-102 173,-96 173,-96 173,-84 173,-84 173,-78 179,-72 185,-72 185,-72 294,-72 294,-72 300,-72 306,-78 306,-84 306,-84 306,-96 306,-96 306,-102 300,-108 294,-108"/>
<text text-anchor="middle" x="239.5" y="-87.5" font-family="sans" font-size="10.00" fill="#000000">_copy_index_cnvkit_vcf</text>
</g>
<!-- 35&#45;&gt;0 -->
<g id="edge3" class="edge">
<title>35&#45;&gt;0</title>
<path fill="none" stroke="#c0c0c0" stroke-width="2" d="M306.1323,-73.7273C309.2922,-73.1104 312.4267,-72.5302 315.5,-72 484.3715,-42.8681 688.6462,-26.3944 771.2063,-20.5047"/>
<polygon fill="#c0c0c0" stroke="#c0c0c0" stroke-width="2" points="771.6184,-23.9844 781.348,-19.791 771.1269,-17.0017 771.6184,-23.9844"/>
</g>
<!-- 36&#45;&gt;35 -->
<g id="edge58" class="edge">
<title>36&#45;&gt;35</title>
<path fill="none" stroke="#c0c0c0" stroke-width="2" d="M188.8457,-215.7623C198.8256,-190.9846 216.7546,-146.4714 228.3858,-117.5939"/>
<polygon fill="#c0c0c0" stroke="#c0c0c0" stroke-width="2" points="231.7243,-118.6731 232.2139,-108.0896 225.2312,-116.0578 231.7243,-118.6731"/>
</g>
<!-- 37 -->
<g id="node38" class="node">
<title>37</title>
<path fill="none" stroke="#d8ac56" stroke-width="2" d="M1155,-1188C1155,-1188 1030,-1188 1030,-1188 1024,-1188 1018,-1182 1018,-1176 1018,-1176 1018,-1164 1018,-1164 1018,-1158 1024,-1152 1030,-1152 1030,-1152 1155,-1152 1155,-1152 1161,-1152 1167,-1158 1167,-1164 1167,-1164 1167,-1176 1167,-1176 1167,-1182 1161,-1188 1155,-1188"/>
<text text-anchor="middle" x="1092.5" y="-1167.5" font-family="sans" font-size="10.00" fill="#000000">_copy_multiqc_html_report</text>
</g>
<!-- 37&#45;&gt;0 -->
<g id="edge10" class="edge">
<title>37&#45;&gt;0</title>
<path fill="none" stroke="#c0c0c0" stroke-width="2" d="M1092.5,-1151.8146C1092.5,-1124.4983 1092.5,-1071.25 1092.5,-1026 1092.5,-1026 1092.5,-1026 1092.5,-162 1092.5,-52.7079 923.122,-26.3401 845.9772,-19.9986"/>
<polygon fill="#c0c0c0" stroke="#c0c0c0" stroke-width="2" points="845.9649,-16.4879 835.7311,-19.2301 845.4413,-23.4683 845.9649,-16.4879"/>
</g>
<!-- 38 -->
<g id="node39" class="node">
<title>38</title>
<path fill="none" stroke="#d88d56" stroke-width="2" d="M1139.5,-1404C1139.5,-1404 1045.5,-1404 1045.5,-1404 1039.5,-1404 1033.5,-1398 1033.5,-1392 1033.5,-1392 1033.5,-1380 1033.5,-1380 1033.5,-1374 1039.5,-1368 1045.5,-1368 1045.5,-1368 1139.5,-1368 1139.5,-1368 1145.5,-1368 1151.5,-1374 1151.5,-1380 1151.5,-1380 1151.5,-1392 1151.5,-1392 1151.5,-1398 1145.5,-1404 1139.5,-1404"/>
<text text-anchor="middle" x="1092.5" y="-1383.5" font-family="sans" font-size="10.00" fill="#000000">qc_multiqc_longread</text>
</g>
<!-- 38&#45;&gt;37 -->
<g id="edge60" class="edge">
<title>38&#45;&gt;37</title>
<path fill="none" stroke="#c0c0c0" stroke-width="2" d="M1092.5,-1367.9555C1092.5,-1330.3938 1092.5,-1243.5541 1092.5,-1198.4103"/>
<polygon fill="#c0c0c0" stroke="#c0c0c0" stroke-width="2" points="1096.0001,-1198.145 1092.5,-1188.1451 1089.0001,-1198.1451 1096.0001,-1198.145"/>
</g>
<!-- 39 -->
<g id="node40" class="node">
<title>39</title>
<path fill="none" stroke="#70d856" stroke-width="2" d="M980.5,-1476C980.5,-1476 936.5,-1476 936.5,-1476 930.5,-1476 924.5,-1470 924.5,-1464 924.5,-1464 924.5,-1452 924.5,-1452 924.5,-1446 930.5,-1440 936.5,-1440 936.5,-1440 980.5,-1440 980.5,-1440 986.5,-1440 992.5,-1446 992.5,-1452 992.5,-1452 992.5,-1464 992.5,-1464 992.5,-1470 986.5,-1476 980.5,-1476"/>
<text text-anchor="middle" x="958.5" y="-1455.5" font-family="sans" font-size="10.00" fill="#000000">qc_sequali</text>
</g>
<!-- 39&#45;&gt;38 -->
<g id="edge63" class="edge">
<title>39&#45;&gt;38</title>
<path fill="none" stroke="#c0c0c0" stroke-width="2" d="M992.3139,-1439.8314C1009.7707,-1430.4516 1031.2487,-1418.9112 1049.8352,-1408.9244"/>
<polygon fill="#c0c0c0" stroke="#c0c0c0" stroke-width="2" points="1051.5446,-1411.9792 1058.697,-1404.1628 1048.2314,-1405.8129 1051.5446,-1411.9792"/>
</g>
<!-- 40&#45;&gt;38 -->
<g id="edge62" class="edge">
<title>40&#45;&gt;38</title>
<path fill="none" stroke="#c0c0c0" stroke-width="2" d="M1257.2687,-1439.9243C1226.9319,-1429.9959 1189.1335,-1417.6255 1157.3945,-1407.2382"/>
<polygon fill="#c0c0c0" stroke="#c0c0c0" stroke-width="2" points="1158.3467,-1403.8672 1147.754,-1404.0831 1156.1694,-1410.52 1158.3467,-1403.8672"/>
</g>
<!-- 41&#45;&gt;38 -->
<g id="edge64" class="edge">
<title>41&#45;&gt;38</title>
<path fill="none" stroke="#c0c0c0" stroke-width="2" d="M1455.4962,-1442.5246C1452.4721,-1441.6035 1449.4511,-1440.7487 1446.5,-1440 1349.2906,-1415.3372 1234.0266,-1400.3143 1162.0618,-1392.5753"/>
<polygon fill="#c0c0c0" stroke="#c0c0c0" stroke-width="2" points="1162.0783,-1389.0576 1151.7656,-1391.4861 1161.3418,-1396.0188 1162.0783,-1389.0576"/>
</g>
<!-- 45 -->
<g id="node46" class="node">
<title>45</title>
<path fill="none" stroke="#d8d356" stroke-width="2" d="M1386,-1116C1386,-1116 1273,-1116 1273,-1116 1267,-1116 1261,-1110 1261,-1104 1261,-1104 1261,-1092 1261,-1092 1261,-1086 1267,-1080 1273,-1080 1273,-1080 1386,-1080 1386,-1080 1392,-1080 1398,-1086 1398,-1092 1398,-1092 1398,-1104 1398,-1104 1398,-1110 1392,-1116 1386,-1116"/>
<text text-anchor="middle" x="1329.5" y="-1095.5" font-family="sans" font-size="10.00" fill="#000000">_copy_coverage_regions</text>
</g>
<!-- 41&#45;&gt;45 -->
<g id="edge73" class="edge">
<title>41&#45;&gt;45</title>
<path fill="none" stroke="#c0c0c0" stroke-width="2" d="M1493.5992,-1439.8696C1489.4985,-1412.6233 1482.5,-1359.4634 1482.5,-1314 1482.5,-1314 1482.5,-1314 1482.5,-1242 1482.5,-1185.0098 1425.513,-1143.9468 1381.0972,-1120.5972"/>
<polygon fill="#c0c0c0" stroke="#c0c0c0" stroke-width="2" points="1382.6183,-1117.4441 1372.119,-1116.024 1379.4411,-1123.6816 1382.6183,-1117.4441"/>
</g>
<!-- 42&#45;&gt;38 -->
<g id="edge61" class="edge">
<title>42&#45;&gt;38</title>
<path fill="none" stroke="#c0c0c0" stroke-width="2" d="M1091.0047,-1439.8314C1091.2186,-1432.131 1091.4729,-1422.9743 1091.7106,-1414.4166"/>
<polygon fill="#c0c0c0" stroke="#c0c0c0" stroke-width="2" points="1095.2094,-1414.5066 1091.9885,-1404.4133 1088.2121,-1414.3122 1095.2094,-1414.5066"/>
</g>
<!-- 43&#45;&gt;0 -->
<g id="edge11" class="edge">
<title>43&#45;&gt;0</title>
<path fill="none" stroke="#c0c0c0" stroke-width="2" d="M1432.7671,-937.6815C1375.6679,-917.8107 1297.5,-878.1606 1297.5,-810 1297.5,-810 1297.5,-810 1297.5,-162 1297.5,-115.5795 1283.306,-97.4747 1244.5,-72 1179.114,-29.0764 938.6503,-20.2699 845.6056,-18.4647"/>
<polygon fill="#c0c0c0" stroke="#c0c0c0" stroke-width="2" points="845.5839,-14.9639 835.5233,-18.2857 845.4595,-21.9628 845.5839,-14.9639"/>
</g>
<!-- 44&#45;&gt;0 -->
<g id="edge2" class="edge">
<title>44&#45;&gt;0</title>
<path fill="none" stroke="#c0c0c0" stroke-width="2" d="M834.334,-1007.9156C858.8225,-982.3605 898.5,-933.0742 898.5,-882 898.5,-882 898.5,-882 898.5,-378 898.5,-325.354 955.7428,-192.5987 935.5,-144 917.0518,-99.7098 874.6244,-62.9919 843.8745,-40.8347"/>
<polygon fill="#c0c0c0" stroke="#c0c0c0" stroke-width="2" points="845.7347,-37.8641 835.5407,-34.9772 841.7094,-43.5911 845.7347,-37.8641"/>
</g>
<!-- 45&#45;&gt;0 -->
<g id="edge12" class="edge">
<title>45&#45;&gt;0</title>
<path fill="none" stroke="#c0c0c0" stroke-width="2" d="M1306.0384,-1079.8196C1276.7627,-1054.8885 1230.5,-1007.092 1230.5,-954 1230.5,-954 1230.5,-954 1230.5,-162 1230.5,-93.9028 1169.1272,-98.7408 1106.5,-72 1017.96,-34.1949 903.6253,-22.8445 845.6905,-19.4458"/>
<polygon fill="#c0c0c0" stroke="#c0c0c0" stroke-width="2" points="845.7219,-15.9425 835.548,-18.8992 845.3451,-22.9324 845.7219,-15.9425"/>
</g>
<!-- 46 -->
<g id="node47" class="node">
<title>46</title>
<path fill="none" stroke="#88d856" stroke-width="2" d="M1051.5,-252C1051.5,-252 981.5,-252 981.5,-252 975.5,-252 969.5,-246 969.5,-240 969.5,-240 969.5,-228 969.5,-228 969.5,-222 975.5,-216 981.5,-216 981.5,-216 1051.5,-216 1051.5,-216 1057.5,-216 1063.5,-222 1063.5,-228 1063.5,-228 1063.5,-240 1063.5,-240 1063.5,-246 1057.5,-252 1051.5,-252"/>
<text text-anchor="middle" x="1016.5" y="-231.5" font-family="sans" font-size="10.00" fill="#000000">_copy_pbsv_vcf</text>
</g>
<!-- 46&#45;&gt;0 -->
<g id="edge9" class="edge">
<title>46&#45;&gt;0</title>
<path fill="none" stroke="#c0c0c0" stroke-width="2" d="M1016.3054,-215.7762C1014.9575,-182.6694 1007.3687,-112.3519 968.5,-72 951.3077,-54.1516 887.0437,-36.3267 845.3776,-26.2783"/>
<polygon fill="#c0c0c0" stroke="#c0c0c0" stroke-width="2" points="846.1086,-22.8547 835.5711,-23.9557 844.4953,-29.6662 846.1086,-22.8547"/>
</g>
<!-- 47 -->
<g id="node48" class="node">
<title>47</title>
<path fill="none" stroke="#56d8a9" stroke-width="2" d="M1016,-396C1016,-396 939,-396 939,-396 933,-396 927,-390 927,-384 927,-384 927,-372 927,-372 927,-366 933,-360 939,-360 939,-360 1016,-360 1016,-360 1022,-360 1028,-366 1028,-372 1028,-372 1028,-384 1028,-384 1028,-390 1022,-396 1016,-396"/>
<text text-anchor="middle" x="977.5" y="-375.5" font-family="sans" font-size="10.00" fill="#000000">cnv_sv_pbsv_call</text>
</g>
<!-- 47&#45;&gt;46 -->
<g id="edge74" class="edge">
<title>47&#45;&gt;46</title>
<path fill="none" stroke="#c0c0c0" stroke-width="2" d="M1005.4609,-359.862C1017.054,-350.6621 1029.2402,-338.3809 1035.5,-324 1044.1982,-304.0172 1038.2228,-279.7626 1030.7467,-261.4698"/>
<polygon fill="#c0c0c0" stroke="#c0c0c0" stroke-width="2" points="1033.9063,-259.9609 1026.6469,-252.244 1027.5095,-262.8036 1033.9063,-259.9609"/>
</g>
<!-- 51 -->
<g id="node52" class="node">
<title>51</title>
<path fill="none" stroke="#56d88a" stroke-width="2" d="M1014,-324C1014,-324 939,-324 939,-324 933,-324 927,-318 927,-312 927,-312 927,-300 927,-300 927,-294 933,-288 939,-288 939,-288 1014,-288 1014,-288 1020,-288 1026,-294 1026,-300 1026,-300 1026,-312 1026,-312 1026,-318 1020,-324 1014,-324"/>
<text text-anchor="middle" x="976.5" y="-303.5" font-family="sans" font-size="10.00" fill="#000000">cnv_sv_pbsv_vcf</text>
</g>
<!-- 47&#45;&gt;51 -->
<g id="edge81" class="edge">
<title>47&#45;&gt;51</title>
<path fill="none" stroke="#c0c0c0" stroke-width="2" d="M977.2477,-359.8314C977.1407,-352.131 977.0135,-342.9743 976.8947,-334.4166"/>
<polygon fill="#c0c0c0" stroke="#c0c0c0" stroke-width="2" points="980.3944,-334.3637 976.7557,-324.4133 973.3951,-334.4609 980.3944,-334.3637"/>
</g>
<!-- 48&#45;&gt;47 -->
<g id="edge75" class="edge">
<title>48&#45;&gt;47</title>
<path fill="none" stroke="#c0c0c0" stroke-width="2" d="M871.1429,-1439.952C904.5964,-1415.6792 956.5,-1369.1356 956.5,-1314 956.5,-1314 956.5,-1314 956.5,-522 956.5,-481.2729 964.827,-434.7384 970.9939,-405.8595"/>
<polygon fill="#c0c0c0" stroke="#c0c0c0" stroke-width="2" points="974.4189,-406.5806 973.1488,-396.0621 967.5823,-405.0768 974.4189,-406.5806"/>
</g>
<!-- 49 -->
<g id="node50" class="node">
<title>49</title>
<path fill="none" stroke="#56d87b" stroke-width="2" d="M914,-180C914,-180 801,-180 801,-180 795,-180 789,-174 789,-168 789,-168 789,-156 789,-156 789,-150 795,-144 801,-144 801,-144 914,-144 914,-144 920,-144 926,-150 926,-156 926,-156 926,-168 926,-168 926,-174 920,-180 914,-180"/>
<text text-anchor="middle" x="857.5" y="-159.5" font-family="sans" font-size="10.00" fill="#000000">_copy_svdb_merged_vcf</text>
</g>
<!-- 49&#45;&gt;0 -->
<g id="edge5" class="edge">
<title>49&#45;&gt;0</title>
<path fill="none" stroke="#c0c0c0" stroke-width="2" d="M851.2941,-143.7623C842.8628,-118.9846 827.716,-74.4714 817.8896,-45.5939"/>
<polygon fill="#c0c0c0" stroke="#c0c0c0" stroke-width="2" points="821.1904,-44.429 814.6555,-36.0896 814.5635,-46.6841 821.1904,-44.429"/>
</g>
<!-- 50 -->
<g id="node51" class="node">
<title>50</title>
<path fill="none" stroke="#ced856" stroke-width="2" d="M895.5,-252C895.5,-252 803.5,-252 803.5,-252 797.5,-252 791.5,-246 791.5,-240 791.5,-240 791.5,-228 791.5,-228 791.5,-222 797.5,-216 803.5,-216 803.5,-216 895.5,-216 895.5,-216 901.5,-216 907.5,-222 907.5,-228 907.5,-228 907.5,-240 907.5,-240 907.5,-246 901.5,-252 895.5,-252"/>
<text text-anchor="middle" x="849.5" y="-231.5" font-family="sans" font-size="10.00" fill="#000000">cnv_sv_svdb_merge</text>
</g>
<!-- 50&#45;&gt;49 -->
<g id="edge78" class="edge">
<title>50&#45;&gt;49</title>
<path fill="none" stroke="#c0c0c0" stroke-width="2" d="M851.5187,-215.8314C852.3743,-208.131 853.3917,-198.9743 854.3426,-190.4166"/>
<polygon fill="#c0c0c0" stroke="#c0c0c0" stroke-width="2" points="857.8283,-190.7386 855.4541,-180.4133 850.8711,-189.9656 857.8283,-190.7386"/>
</g>
<!-- 54 -->
<g id="node55" class="node">
<title>54</title>
<path fill="none" stroke="#56d873" stroke-width="2" d="M758.5,-180C758.5,-180 670.5,-180 670.5,-180 664.5,-180 658.5,-174 658.5,-168 658.5,-168 658.5,-156 658.5,-156 658.5,-150 664.5,-144 670.5,-144 670.5,-144 758.5,-144 758.5,-144 764.5,-144 770.5,-150 770.5,-156 770.5,-156 770.5,-168 770.5,-168 770.5,-174 764.5,-180 758.5,-180"/>
<text text-anchor="middle" x="714.5" y="-159.5" font-family="sans" font-size="10.00" fill="#000000">cnv_sv_svdb_query</text>
</g>
<!-- 50&#45;&gt;54 -->
<g id="edge84" class="edge">
<title>50&#45;&gt;54</title>
<path fill="none" stroke="#c0c0c0" stroke-width="2" d="M815.4338,-215.8314C797.8467,-206.4516 776.2084,-194.9112 757.4832,-184.9244"/>
<polygon fill="#c0c0c0" stroke="#c0c0c0" stroke-width="2" points="759.0259,-181.7805 748.5553,-180.1628 755.7318,-187.957 759.0259,-181.7805"/>
</g>
<!-- 51&#45;&gt;50 -->
<g id="edge80" class="edge">
<title>51&#45;&gt;50</title>
<path fill="none" stroke="#c0c0c0" stroke-width="2" d="M944.4525,-287.8314C928.058,-278.5368 907.9214,-267.1208 890.4171,-257.1971"/>
<polygon fill="#c0c0c0" stroke="#c0c0c0" stroke-width="2" points="891.9626,-254.05 881.5372,-252.1628 888.5103,-260.1395 891.9626,-254.05"/>
</g>
<!-- 52&#45;&gt;50 -->
<g id="edge79" class="edge">
<title>52&#45;&gt;50</title>
<path fill="none" stroke="#c0c0c0" stroke-width="2" d="M821.089,-287.8314C825.3317,-279.7925 830.4121,-270.1666 835.096,-261.2918"/>
<polygon fill="#c0c0c0" stroke="#c0c0c0" stroke-width="2" points="838.2096,-262.8908 839.7819,-252.4133 832.0189,-259.6235 838.2096,-262.8908"/>
</g>
<!-- 53 -->
<g id="node54" class="node">
<title>53</title>
<path fill="none" stroke="#56d8d8" stroke-width="2" d="M793.5,-108C793.5,-108 681.5,-108 681.5,-108 675.5,-108 669.5,-102 669.5,-96 669.5,-96 669.5,-84 669.5,-84 669.5,-78 675.5,-72 681.5,-72 681.5,-72 793.5,-72 793.5,-72 799.5,-72 805.5,-78 805.5,-84 805.5,-84 805.5,-96 805.5,-96 805.5,-102 799.5,-108 793.5,-108"/>
<text text-anchor="middle" x="737.5" y="-87.5" font-family="sans" font-size="10.00" fill="#000000">_copy_svdb_queried_vcf</text>
</g>
<!-- 53&#45;&gt;0 -->
<g id="edge1" class="edge">
<title>53&#45;&gt;0</title>
<path fill="none" stroke="#c0c0c0" stroke-width="2" d="M755.4163,-71.8314C763.8442,-63.2848 774.041,-52.9443 783.236,-43.6198"/>
<polygon fill="#c0c0c0" stroke="#c0c0c0" stroke-width="2" points="785.8131,-45.9912 790.3425,-36.4133 780.8289,-41.0761 785.8131,-45.9912"/>
</g>
<!-- 54&#45;&gt;53 -->
<g id="edge83" class="edge">
<title>54&#45;&gt;53</title>
<path fill="none" stroke="#c0c0c0" stroke-width="2" d="M720.3039,-143.8314C722.7908,-136.0463 725.7531,-126.7729 728.5125,-118.1347"/>
<polygon fill="#c0c0c0" stroke="#c0c0c0" stroke-width="2" points="731.909,-119.0041 731.618,-108.4133 725.2409,-116.874 731.909,-119.0041"/>
</g>
</g>
</svg>
