<?xml version="1.0" encoding="UTF-8" standalone="no"?>
<!DOCTYPE svg PUBLIC "-//W3C//DTD SVG 1.1//EN"
 "http://www.w3.org/Graphics/SVG/1.1/DTD/svg11.dtd">
<!-- Generated by graphviz version 12.2.1 (20241206.2353)
 -->
<!-- Title: snakemake_dag Pages: 1 -->
<svg width="1201pt" height="349pt"
 viewBox="0.00 0.00 1200.75 349.25" xmlns="http://www.w3.org/2000/svg" xmlns:xlink="http://www.w3.org/1999/xlink">
<g id="graph0" class="graph" transform="scale(1 1) rotate(0) translate(4 345.25)">
<title>snakemake_dag</title>
<polygon fill="white" stroke="none" points="-4,4 -4,-345.25 1196.75,-345.25 1196.75,4 -4,4"/>
<!-- 0 -->
<g id="node1" class="node">
<title>0</title>
<path fill="none" stroke="#d85656" stroke-width="2" d="M644.38,-36C644.38,-36 614.38,-36 614.38,-36 608.38,-36 602.38,-30 602.38,-24 602.38,-24 602.38,-12 602.38,-12 602.38,-6 608.38,0 614.38,0 614.38,0 644.38,0 644.38,0 650.38,0 656.38,-6 656.38,-12 656.38,-12 656.38,-24 656.38,-24 656.38,-30 650.38,-36 644.38,-36"/>
<text text-anchor="middle" x="629.38" y="-14.12" font-family="sans" font-size="10.00">all</text>
</g>
<!-- 1 -->
<g id="node2" class="node">
<title>1</title>
<path fill="none" stroke="#56d8c1" stroke-width="2" d="M217.12,-108C217.12,-108 133.62,-108 133.62,-108 127.62,-108 121.62,-102 121.62,-96 121.62,-96 121.62,-84 121.62,-84 121.62,-78 127.62,-72 133.62,-72 133.62,-72 217.12,-72 217.12,-72 223.12,-72 229.12,-78 229.12,-84 229.12,-84 229.12,-96 229.12,-96 229.12,-102 223.12,-108 217.12,-108"/>
<text text-anchor="middle" x="175.38" y="-91.75" font-family="sans" font-size="10.00">_copy_indel_vcf</text>
<text text-anchor="middle" x="175.38" y="-80.5" font-family="sans" font-size="10.00">sample: 2022.MM.16</text>
</g>
<!-- 1&#45;&gt;0 -->
<g id="edge1" class="edge">
<title>1&#45;&gt;0</title>
<path fill="none" stroke="grey" stroke-width="2" d="M230.08,-78.92C243.26,-76.57 257.31,-74.13 270.38,-72 385.55,-53.2 522.01,-33.86 588.65,-24.6"/>
<polygon fill="grey" stroke="grey" stroke-width="2" points="588.98,-28.09 598.4,-23.25 588.02,-21.15 588.98,-28.09"/>
</g>
<!-- 2 -->
<g id="node3" class="node">
<title>2</title>
<path fill="none" stroke="#bed856" stroke-width="2" d="M219.75,-182.88C219.75,-182.88 65,-182.88 65,-182.88 59,-182.88 53,-176.88 53,-170.88 53,-170.88 53,-158.88 53,-158.88 53,-152.88 59,-146.88 65,-146.88 65,-146.88 219.75,-146.88 219.75,-146.88 225.75,-146.88 231.75,-152.88 231.75,-158.88 231.75,-158.88 231.75,-170.88 231.75,-170.88 231.75,-176.88 225.75,-182.88 219.75,-182.88"/>
<text text-anchor="middle" x="142.38" y="-166.62" font-family="sans" font-size="10.00">filtering_bcftools_filter_include_region</text>
<text text-anchor="middle" x="142.38" y="-155.38" font-family="sans" font-size="10.00">tag: panel</text>
</g>
<!-- 2&#45;&gt;1 -->
<g id="edge9" class="edge">
<title>2&#45;&gt;1</title>
<path fill="none" stroke="grey" stroke-width="2" d="M150.36,-146.23C153.84,-138.56 158.01,-129.36 161.93,-120.68"/>
<polygon fill="grey" stroke="grey" stroke-width="2" points="165.05,-122.3 165.98,-111.74 158.67,-119.41 165.05,-122.3"/>
</g>
<!-- 3 -->
<g id="node4" class="node">
<title>3</title>
<path fill="none" stroke="#56d8a2" stroke-width="2" d="M142.75,-338.38C142.75,-338.38 12,-338.38 12,-338.38 6,-338.38 0,-332.38 0,-326.38 0,-326.38 0,-314.38 0,-314.38 0,-308.38 6,-302.38 12,-302.38 12,-302.38 142.75,-302.38 142.75,-302.38 148.75,-302.38 154.75,-308.38 154.75,-314.38 154.75,-314.38 154.75,-326.38 154.75,-326.38 154.75,-332.38 148.75,-338.38 142.75,-338.38"/>
<text text-anchor="middle" x="77.38" y="-322.12" font-family="sans" font-size="10.00">snv_indels_deepsomatic_t_only</text>
<text text-anchor="middle" x="77.38" y="-310.88" font-family="sans" font-size="10.00">sample: 2022.MM.16</text>
</g>
<!-- 3&#45;&gt;2 -->
<g id="edge10" class="edge">
<title>3&#45;&gt;2</title>
<path fill="none" stroke="grey" stroke-width="2" d="M54.14,-301.6C43.18,-291.72 31.24,-278.42 25.38,-263.5 18.58,-246.23 15.48,-237.45 25.38,-221.75 34.13,-207.87 47.39,-197.36 61.88,-189.43"/>
<polygon fill="grey" stroke="grey" stroke-width="2" points="63.02,-192.77 70.43,-185.2 59.91,-186.5 63.02,-192.77"/>
</g>
<!-- 4 -->
<g id="node5" class="node">
<title>4</title>
<path fill="none" stroke="#56d8d8" stroke-width="2" d="M250.5,-260.62C250.5,-260.62 46.25,-260.62 46.25,-260.62 40.25,-260.62 34.25,-254.62 34.25,-248.62 34.25,-248.62 34.25,-236.62 34.25,-236.62 34.25,-230.62 40.25,-224.62 46.25,-224.62 46.25,-224.62 250.5,-224.62 250.5,-224.62 256.5,-224.62 262.5,-230.62 262.5,-236.62 262.5,-236.62 262.5,-248.62 262.5,-248.62 262.5,-254.62 256.5,-260.62 250.5,-260.62"/>
<text text-anchor="middle" x="148.38" y="-244.38" font-family="sans" font-size="10.00">cnv_sv_tabix</text>
<text text-anchor="middle" x="148.38" y="-233.12" font-family="sans" font-size="10.00">file: snv_indels/deepsomatic_t_only/2022.MM.16</text>
</g>
<!-- 3&#45;&gt;4 -->
<g id="edge12" class="edge">
<title>3&#45;&gt;4</title>
<path fill="none" stroke="grey" stroke-width="2" d="M94.2,-301.42C102.78,-292.27 113.39,-280.95 122.94,-270.76"/>
<polygon fill="grey" stroke="grey" stroke-width="2" points="125.31,-273.35 129.6,-263.66 120.21,-268.56 125.31,-273.35"/>
</g>
<!-- 4&#45;&gt;2 -->
<g id="edge11" class="edge">
<title>4&#45;&gt;2</title>
<path fill="none" stroke="grey" stroke-width="2" d="M146.95,-223.67C146.31,-215.56 145.53,-205.74 144.8,-196.52"/>
<polygon fill="grey" stroke="grey" stroke-width="2" points="148.3,-196.41 144.03,-186.72 141.33,-196.96 148.3,-196.41"/>
</g>
<!-- 5 -->
<g id="node6" class="node">
<title>5</title>
<path fill="none" stroke="#d8bc56" stroke-width="2" d="M375.12,-108C375.12,-108 291.62,-108 291.62,-108 285.62,-108 279.62,-102 279.62,-96 279.62,-96 279.62,-84 279.62,-84 279.62,-78 285.62,-72 291.62,-72 291.62,-72 375.12,-72 375.12,-72 381.12,-72 387.12,-78 387.12,-84 387.12,-84 387.12,-96 387.12,-96 387.12,-102 381.12,-108 375.12,-108"/>
<text text-anchor="middle" x="333.38" y="-91.75" font-family="sans" font-size="10.00">_copy_pbsv_vcf</text>
<text text-anchor="middle" x="333.38" y="-80.5" font-family="sans" font-size="10.00">sample: 2022.MM.16</text>
</g>
<!-- 5&#45;&gt;0 -->
<g id="edge2" class="edge">
<title>5&#45;&gt;0</title>
<path fill="none" stroke="grey" stroke-width="2" d="M387.98,-74.12C390.81,-73.39 393.63,-72.68 396.38,-72 463.76,-55.25 542.63,-37.75 589.16,-27.64"/>
<polygon fill="grey" stroke="grey" stroke-width="2" points="589.68,-31.11 598.71,-25.57 588.2,-24.26 589.68,-31.11"/>
</g>
<!-- 6 -->
<g id="node7" class="node">
<title>6</title>
<path fill="none" stroke="#56a2d8" stroke-width="2" d="M405.12,-182.88C405.12,-182.88 261.62,-182.88 261.62,-182.88 255.62,-182.88 249.62,-176.88 249.62,-170.88 249.62,-170.88 249.62,-158.88 249.62,-158.88 249.62,-152.88 255.62,-146.88 261.62,-146.88 261.62,-146.88 405.12,-146.88 405.12,-146.88 411.12,-146.88 417.12,-152.88 417.12,-158.88 417.12,-158.88 417.12,-170.88 417.12,-170.88 417.12,-176.88 411.12,-182.88 405.12,-182.88"/>
<text text-anchor="middle" x="333.38" y="-166.62" font-family="sans" font-size="10.00">cnv_sv_bgzip</text>
<text text-anchor="middle" x="333.38" y="-155.38" font-family="sans" font-size="10.00">file: cnv_sv/pbsv_call/2022.MM.16</text>
</g>
<!-- 6&#45;&gt;5 -->
<g id="edge13" class="edge">
<title>6&#45;&gt;5</title>
<path fill="none" stroke="grey" stroke-width="2" d="M333.38,-146.23C333.38,-138.91 333.38,-130.2 333.38,-121.88"/>
<polygon fill="grey" stroke="grey" stroke-width="2" points="336.88,-122.01 333.38,-112.01 329.88,-122.01 336.88,-122.01"/>
</g>
<!-- 7 -->
<g id="node8" class="node">
<title>7</title>
<path fill="none" stroke="#d8a456" stroke-width="2" d="M368.38,-260.62C368.38,-260.62 298.38,-260.62 298.38,-260.62 292.38,-260.62 286.38,-254.62 286.38,-248.62 286.38,-248.62 286.38,-236.62 286.38,-236.62 286.38,-230.62 292.38,-224.62 298.38,-224.62 298.38,-224.62 368.38,-224.62 368.38,-224.62 374.38,-224.62 380.38,-230.62 380.38,-236.62 380.38,-236.62 380.38,-248.62 380.38,-248.62 380.38,-254.62 374.38,-260.62 368.38,-260.62"/>
<text text-anchor="middle" x="333.38" y="-238.75" font-family="sans" font-size="10.00">cnv_sv_pbsv_call</text>
</g>
<!-- 7&#45;&gt;6 -->
<g id="edge14" class="edge">
<title>7&#45;&gt;6</title>
<path fill="none" stroke="grey" stroke-width="2" d="M333.38,-223.67C333.38,-215.56 333.38,-205.74 333.38,-196.52"/>
<polygon fill="grey" stroke="grey" stroke-width="2" points="336.88,-196.72 333.38,-186.72 329.88,-196.72 336.88,-196.72"/>
</g>
<!-- 8 -->
<g id="node9" class="node">
<title>8</title>
<path fill="none" stroke="#70d856" stroke-width="2" d="M379.25,-341.25C379.25,-341.25 287.5,-341.25 287.5,-341.25 281.5,-341.25 275.5,-335.25 275.5,-329.25 275.5,-329.25 275.5,-311.5 275.5,-311.5 275.5,-305.5 281.5,-299.5 287.5,-299.5 287.5,-299.5 379.25,-299.5 379.25,-299.5 385.25,-299.5 391.25,-305.5 391.25,-311.5 391.25,-311.5 391.25,-329.25 391.25,-329.25 391.25,-335.25 385.25,-341.25 379.25,-341.25"/>
<text text-anchor="middle" x="333.38" y="-327.75" font-family="sans" font-size="10.00">cnv_sv_pbsv_discover</text>
<text text-anchor="middle" x="333.38" y="-316.5" font-family="sans" font-size="10.00">sample: 2022.MM.16</text>
<text text-anchor="middle" x="333.38" y="-305.25" font-family="sans" font-size="10.00">type: T</text>
</g>
<!-- 8&#45;&gt;7 -->
<g id="edge15" class="edge">
<title>8&#45;&gt;7</title>
<path fill="none" stroke="grey" stroke-width="2" d="M333.38,-298.68C333.38,-291.21 333.38,-282.62 333.38,-274.47"/>
<polygon fill="grey" stroke="grey" stroke-width="2" points="336.88,-274.5 333.38,-264.5 329.88,-274.5 336.88,-274.5"/>
</g>
<!-- 9 -->
<g id="node10" class="node">
<title>9</title>
<path fill="none" stroke="#88d856" stroke-width="2" d="M487.75,-108C487.75,-108 417,-108 417,-108 411,-108 405,-102 405,-96 405,-96 405,-84 405,-84 405,-78 411,-72 417,-72 417,-72 487.75,-72 487.75,-72 493.75,-72 499.75,-78 499.75,-84 499.75,-84 499.75,-96 499.75,-96 499.75,-102 493.75,-108 487.75,-108"/>
<text text-anchor="middle" x="452.38" y="-86.12" font-family="sans" font-size="10.00">_copy_hificnv_vcf</text>
</g>
<!-- 9&#45;&gt;0 -->
<g id="edge3" class="edge">
<title>9&#45;&gt;0</title>
<path fill="none" stroke="grey" stroke-width="2" d="M497.5,-71.15C525.92,-59.91 562.27,-45.54 589.61,-34.73"/>
<polygon fill="grey" stroke="grey" stroke-width="2" points="590.65,-38.08 598.66,-31.15 588.07,-31.57 590.65,-38.08"/>
</g>
<!-- 10 -->
<g id="node11" class="node">
<title>10</title>
<path fill="none" stroke="#d88d56" stroke-width="2" d="M531.12,-185.75C531.12,-185.75 447.62,-185.75 447.62,-185.75 441.62,-185.75 435.62,-179.75 435.62,-173.75 435.62,-173.75 435.62,-156 435.62,-156 435.62,-150 441.62,-144 447.62,-144 447.62,-144 531.12,-144 531.12,-144 537.12,-144 543.12,-150 543.12,-156 543.12,-156 543.12,-173.75 543.12,-173.75 543.12,-179.75 537.12,-185.75 531.12,-185.75"/>
<text text-anchor="middle" x="489.38" y="-172.25" font-family="sans" font-size="10.00">cnv_sv_hificnv</text>
<text text-anchor="middle" x="489.38" y="-161" font-family="sans" font-size="10.00">sample: 2022.MM.16</text>
<text text-anchor="middle" x="489.38" y="-149.75" font-family="sans" font-size="10.00">type: T</text>
</g>
<!-- 10&#45;&gt;9 -->
<g id="edge16" class="edge">
<title>10&#45;&gt;9</title>
<path fill="none" stroke="grey" stroke-width="2" d="M478.87,-143.19C475.23,-136.01 471.07,-127.82 467.14,-120.09"/>
<polygon fill="grey" stroke="grey" stroke-width="2" points="470.29,-118.56 462.65,-111.23 464.05,-121.73 470.29,-118.56"/>
</g>
<!-- 11 -->
<g id="node12" class="node">
<title>11</title>
<path fill="none" stroke="#568ad8" stroke-width="2" d="M608.88,-108C608.88,-108 529.88,-108 529.88,-108 523.88,-108 517.88,-102 517.88,-96 517.88,-96 517.88,-84 517.88,-84 517.88,-78 523.88,-72 529.88,-72 529.88,-72 608.88,-72 608.88,-72 614.88,-72 620.88,-78 620.88,-84 620.88,-84 620.88,-96 620.88,-96 620.88,-102 614.88,-108 608.88,-108"/>
<text text-anchor="middle" x="569.38" y="-86.12" font-family="sans" font-size="10.00">_copy_sniffles2_vcf</text>
</g>
<!-- 11&#45;&gt;0 -->
<g id="edge4" class="edge">
<title>11&#45;&gt;0</title>
<path fill="none" stroke="grey" stroke-width="2" d="M584.52,-71.34C590.93,-63.85 598.56,-54.95 605.69,-46.63"/>
<polygon fill="grey" stroke="grey" stroke-width="2" points="608.21,-49.07 612.06,-39.2 602.9,-44.51 608.21,-49.07"/>
</g>
<!-- 12 -->
<g id="node13" class="node">
<title>12</title>
<path fill="none" stroke="#d6d856" stroke-width="2" d="M695.12,-185.75C695.12,-185.75 611.62,-185.75 611.62,-185.75 605.62,-185.75 599.62,-179.75 599.62,-173.75 599.62,-173.75 599.62,-156 599.62,-156 599.62,-150 605.62,-144 611.62,-144 611.62,-144 695.12,-144 695.12,-144 701.12,-144 707.12,-150 707.12,-156 707.12,-156 707.12,-173.75 707.12,-173.75 707.12,-179.75 701.12,-185.75 695.12,-185.75"/>
<text text-anchor="middle" x="653.38" y="-172.25" font-family="sans" font-size="10.00">cnv_sv_sniffles2</text>
<text text-anchor="middle" x="653.38" y="-161" font-family="sans" font-size="10.00">sample: 2022.MM.16</text>
<text text-anchor="middle" x="653.38" y="-149.75" font-family="sans" font-size="10.00">type: T</text>
</g>
<!-- 12&#45;&gt;11 -->
<g id="edge17" class="edge">
<title>12&#45;&gt;11</title>
<path fill="none" stroke="grey" stroke-width="2" d="M629.53,-143.19C620.24,-135.13 609.49,-125.8 599.66,-117.28"/>
<polygon fill="grey" stroke="grey" stroke-width="2" points="601.99,-114.67 592.15,-110.76 597.41,-119.95 601.99,-114.67"/>
</g>
<!-- 13 -->
<g id="node14" class="node">
<title>13</title>
<path fill="none" stroke="#59d856" stroke-width="2" d="M729.88,-108C729.88,-108 650.88,-108 650.88,-108 644.88,-108 638.88,-102 638.88,-96 638.88,-96 638.88,-84 638.88,-84 638.88,-78 644.88,-72 650.88,-72 650.88,-72 729.88,-72 729.88,-72 735.88,-72 741.88,-78 741.88,-84 741.88,-84 741.88,-96 741.88,-96 741.88,-102 735.88,-108 729.88,-108"/>
<text text-anchor="middle" x="690.38" y="-86.12" font-family="sans" font-size="10.00">_copy_sniffles2_snf</text>
</g>
<!-- 12&#45;&gt;13 -->
<g id="edge18" class="edge">
<title>12&#45;&gt;13</title>
<path fill="none" stroke="grey" stroke-width="2" d="M663.88,-143.19C667.52,-136.01 671.68,-127.82 675.61,-120.09"/>
<polygon fill="grey" stroke="grey" stroke-width="2" points="678.7,-121.73 680.1,-111.23 672.46,-118.56 678.7,-121.73"/>
</g>
<!-- 13&#45;&gt;0 -->
<g id="edge5" class="edge">
<title>13&#45;&gt;0</title>
<path fill="none" stroke="grey" stroke-width="2" d="M674.98,-71.34C668.46,-63.85 660.7,-54.95 653.45,-46.63"/>
<polygon fill="grey" stroke="grey" stroke-width="2" points="656.17,-44.42 646.96,-39.18 650.89,-49.02 656.17,-44.42"/>
</g>
<!-- 14 -->
<g id="node15" class="node">
<title>14</title>
<path fill="none" stroke="#5673d8" stroke-width="2" d="M929.25,-108C929.25,-108 771.5,-108 771.5,-108 765.5,-108 759.5,-102 759.5,-96 759.5,-96 759.5,-84 759.5,-84 759.5,-78 765.5,-72 771.5,-72 771.5,-72 929.25,-72 929.25,-72 935.25,-72 941.25,-78 941.25,-84 941.25,-84 941.25,-96 941.25,-96 941.25,-102 935.25,-108 929.25,-108"/>
<text text-anchor="middle" x="850.38" y="-86.12" font-family="sans" font-size="10.00">_copy_cnvkit_batch_segments_called</text>
</g>
<!-- 14&#45;&gt;0 -->
<g id="edge6" class="edge">
<title>14&#45;&gt;0</title>
<path fill="none" stroke="grey" stroke-width="2" d="M793.75,-71.06C754.79,-58.73 704.01,-42.64 669.27,-31.63"/>
<polygon fill="grey" stroke="grey" stroke-width="2" points="670.72,-28.42 660.13,-28.74 668.6,-35.1 670.72,-28.42"/>
</g>
<!-- 15 -->
<g id="node16" class="node">
<title>15</title>
<path fill="none" stroke="#a7d856" stroke-width="2" d="M1009.5,-263.5C1009.5,-263.5 925.25,-263.5 925.25,-263.5 919.25,-263.5 913.25,-257.5 913.25,-251.5 913.25,-251.5 913.25,-233.75 913.25,-233.75 913.25,-227.75 919.25,-221.75 925.25,-221.75 925.25,-221.75 1009.5,-221.75 1009.5,-221.75 1015.5,-221.75 1021.5,-227.75 1021.5,-233.75 1021.5,-233.75 1021.5,-251.5 1021.5,-251.5 1021.5,-257.5 1015.5,-263.5 1009.5,-263.5"/>
<text text-anchor="middle" x="967.38" y="-250" font-family="sans" font-size="10.00">cnv_sv_cnvkit_batch</text>
<text text-anchor="middle" x="967.38" y="-238.75" font-family="sans" font-size="10.00">sample: 2022.MM.16</text>
<text text-anchor="middle" x="967.38" y="-227.5" font-family="sans" font-size="10.00">type: T</text>
</g>
<!-- 15&#45;&gt;14 -->
<g id="edge19" class="edge">
<title>15&#45;&gt;14</title>
<path fill="none" stroke="grey" stroke-width="2" d="M912.26,-220.75C896.23,-212.18 880.15,-200.68 869.38,-185.75 855.97,-167.18 851.46,-141.48 850.17,-121.52"/>
<polygon fill="grey" stroke="grey" stroke-width="2" points="853.68,-121.69 849.83,-111.81 846.68,-121.93 853.68,-121.69"/>
</g>
<!-- 16 -->
<g id="node17" class="node">
<title>16</title>
<path fill="none" stroke="#56c1d8" stroke-width="2" d="M1044.38,-182.88C1044.38,-182.88 890.38,-182.88 890.38,-182.88 884.38,-182.88 878.38,-176.88 878.38,-170.88 878.38,-170.88 878.38,-158.88 878.38,-158.88 878.38,-152.88 884.38,-146.88 890.38,-146.88 890.38,-146.88 1044.38,-146.88 1044.38,-146.88 1050.38,-146.88 1056.38,-152.88 1056.38,-158.88 1056.38,-158.88 1056.38,-170.88 1056.38,-170.88 1056.38,-176.88 1050.38,-182.88 1044.38,-182.88"/>
<text text-anchor="middle" x="967.38" y="-161" font-family="sans" font-size="10.00">_copy_cnvkit_batch_target_coverage</text>
</g>
<!-- 15&#45;&gt;16 -->
<g id="edge20" class="edge">
<title>15&#45;&gt;16</title>
<path fill="none" stroke="grey" stroke-width="2" d="M967.38,-220.93C967.38,-213.46 967.38,-204.87 967.38,-196.72"/>
<polygon fill="grey" stroke="grey" stroke-width="2" points="970.88,-196.75 967.38,-186.75 963.88,-196.75 970.88,-196.75"/>
</g>
<!-- 18 -->
<g id="node19" class="node">
<title>18</title>
<path fill="none" stroke="#d86e56" stroke-width="2" d="M1180.75,-182.88C1180.75,-182.88 1086,-182.88 1086,-182.88 1080,-182.88 1074,-176.88 1074,-170.88 1074,-170.88 1074,-158.88 1074,-158.88 1074,-152.88 1080,-146.88 1086,-146.88 1086,-146.88 1180.75,-146.88 1180.75,-146.88 1186.75,-146.88 1192.75,-152.88 1192.75,-158.88 1192.75,-158.88 1192.75,-170.88 1192.75,-170.88 1192.75,-176.88 1186.75,-182.88 1180.75,-182.88"/>
<text text-anchor="middle" x="1133.38" y="-161" font-family="sans" font-size="10.00">cnv_sv_cnvkit_diagram</text>
</g>
<!-- 15&#45;&gt;18 -->
<g id="edge22" class="edge">
<title>15&#45;&gt;18</title>
<path fill="none" stroke="grey" stroke-width="2" d="M1012.74,-220.93C1034.3,-211.09 1060.16,-199.28 1082.4,-189.14"/>
<polygon fill="grey" stroke="grey" stroke-width="2" points="1083.6,-192.44 1091.24,-185.1 1080.69,-186.07 1083.6,-192.44"/>
</g>
<!-- 16&#45;&gt;0 -->
<g id="edge7" class="edge">
<title>16&#45;&gt;0</title>
<path fill="none" stroke="grey" stroke-width="2" d="M969.6,-145.91C971.09,-125.09 969.95,-91.2 950.38,-72 911.34,-33.71 747.72,-23.02 670.31,-20.09"/>
<polygon fill="grey" stroke="grey" stroke-width="2" points="670.48,-16.59 660.37,-19.74 670.24,-23.59 670.48,-16.59"/>
</g>
<!-- 17 -->
<g id="node18" class="node">
<title>17</title>
<path fill="none" stroke="#56d88a" stroke-width="2" d="M1139.12,-108C1139.12,-108 1049.62,-108 1049.62,-108 1043.62,-108 1037.62,-102 1037.62,-96 1037.62,-96 1037.62,-84 1037.62,-84 1037.62,-78 1043.62,-72 1049.62,-72 1049.62,-72 1139.12,-72 1139.12,-72 1145.12,-72 1151.12,-78 1151.12,-84 1151.12,-84 1151.12,-96 1151.12,-96 1151.12,-102 1145.12,-108 1139.12,-108"/>
<text text-anchor="middle" x="1094.38" y="-86.12" font-family="sans" font-size="10.00">_copy_cnvkit_diagram</text>
</g>
<!-- 17&#45;&gt;0 -->
<g id="edge8" class="edge">
<title>17&#45;&gt;0</title>
<path fill="none" stroke="grey" stroke-width="2" d="M1036.77,-80.14C1019.59,-77.51 1000.72,-74.63 983.38,-72 869.85,-54.81 735.79,-34.82 669.97,-25.03"/>
<polygon fill="grey" stroke="grey" stroke-width="2" points="670.77,-21.61 660.37,-23.6 669.74,-28.54 670.77,-21.61"/>
</g>
<!-- 18&#45;&gt;17 -->
<g id="edge21" class="edge">
<title>18&#45;&gt;17</title>
<path fill="none" stroke="grey" stroke-width="2" d="M1123.93,-146.23C1119.78,-138.47 1114.79,-129.14 1110.1,-120.38"/>
<polygon fill="grey" stroke="grey" stroke-width="2" points="1113.23,-118.82 1105.43,-111.65 1107.06,-122.12 1113.23,-118.82"/>
</g>
</g>
</svg>
