<?xml version="1.0" encoding="UTF-8" standalone="no"?>
<!DOCTYPE svg PUBLIC "-//W3C//DTD SVG 1.1//EN"
 "http://www.w3.org/Graphics/SVG/1.1/DTD/svg11.dtd">
<!-- Generated by graphviz version 2.40.1 (0)
 -->
<!-- Title: snakemake_dag Pages: 1 -->
<svg width="1289pt" height="1700pt"
 viewBox="0.00 0.00 1288.50 1700.00" xmlns="http://www.w3.org/2000/svg" xmlns:xlink="http://www.w3.org/1999/xlink">
<g id="graph0" class="graph" transform="scale(1 1) rotate(0) translate(4 1696)">
<title>snakemake_dag</title>
<polygon fill="#ffffff" stroke="transparent" points="-4,4 -4,-1696 1284.5,-1696 1284.5,4 -4,4"/>
<!-- 0 -->
<g id="node1" class="node">
<title>0</title>
<path fill="none" stroke="#56c9d8" stroke-width="2" d="M765,-36C765,-36 735,-36 735,-36 729,-36 723,-30 723,-24 723,-24 723,-12 723,-12 723,-6 729,0 735,0 735,0 765,0 765,0 771,0 777,-6 777,-12 777,-12 777,-24 777,-24 777,-30 771,-36 765,-36"/>
<text text-anchor="middle" x="750" y="-15.5" font-family="sans" font-size="10.00" fill="#000000">all</text>
</g>
<!-- 1 -->
<g id="node2" class="node">
<title>1</title>
<path fill="none" stroke="#b6d856" stroke-width="2" d="M122,-972C122,-972 12,-972 12,-972 6,-972 0,-966 0,-960 0,-960 0,-948 0,-948 0,-942 6,-936 12,-936 12,-936 122,-936 122,-936 128,-936 134,-942 134,-948 134,-948 134,-960 134,-960 134,-966 128,-972 122,-972"/>
<text text-anchor="middle" x="67" y="-951.5" font-family="sans" font-size="10.00" fill="#000000">_copy_deepsomatic_vcf</text>
</g>
<!-- 1&#45;&gt;0 -->
<g id="edge3" class="edge">
<title>1&#45;&gt;0</title>
<path fill="none" stroke="#c0c0c0" stroke-width="2" d="M73.1502,-935.5984C81.6628,-908.4466 96,-855.9035 96,-810 96,-810 96,-810 96,-162 96,-115.8034 109.0615,-96.8579 148,-72 195.5905,-41.6187 588.6699,-24.1537 712.6737,-19.3611"/>
<polygon fill="#c0c0c0" stroke="#c0c0c0" stroke-width="2" points="712.956,-22.8529 722.8153,-18.9743 712.6891,-15.858 712.956,-22.8529"/>
</g>
<!-- 2 -->
<g id="node3" class="node">
<title>2</title>
<path fill="none" stroke="#56d8a9" stroke-width="2" d="M319.5,-1188C319.5,-1188 182.5,-1188 182.5,-1188 176.5,-1188 170.5,-1182 170.5,-1176 170.5,-1176 170.5,-1164 170.5,-1164 170.5,-1158 176.5,-1152 182.5,-1152 182.5,-1152 319.5,-1152 319.5,-1152 325.5,-1152 331.5,-1158 331.5,-1164 331.5,-1164 331.5,-1176 331.5,-1176 331.5,-1182 325.5,-1188 319.5,-1188"/>
<text text-anchor="middle" x="251" y="-1167.5" font-family="sans" font-size="10.00" fill="#000000">annotation_vep_deepsomatic</text>
</g>
<!-- 2&#45;&gt;1 -->
<g id="edge15" class="edge">
<title>2&#45;&gt;1</title>
<path fill="none" stroke="#c0c0c0" stroke-width="2" d="M235.6287,-1151.9555C203.0229,-1113.6791 126.8269,-1024.2316 89.0453,-979.8793"/>
<polygon fill="#c0c0c0" stroke="#c0c0c0" stroke-width="2" points="91.606,-977.4879 82.4569,-972.1451 86.2772,-982.0272 91.606,-977.4879"/>
</g>
<!-- 3 -->
<g id="node4" class="node">
<title>3</title>
<path fill="none" stroke="#d86e56" stroke-width="2" d="M416.5,-1260C416.5,-1260 291.5,-1260 291.5,-1260 285.5,-1260 279.5,-1254 279.5,-1248 279.5,-1248 279.5,-1236 279.5,-1236 279.5,-1230 285.5,-1224 291.5,-1224 291.5,-1224 416.5,-1224 416.5,-1224 422.5,-1224 428.5,-1230 428.5,-1236 428.5,-1236 428.5,-1248 428.5,-1248 428.5,-1254 422.5,-1260 416.5,-1260"/>
<text text-anchor="middle" x="354" y="-1239.5" font-family="sans" font-size="10.00" fill="#000000">cnv_sv_tabix_deepsomatic</text>
</g>
<!-- 3&#45;&gt;2 -->
<g id="edge17" class="edge">
<title>3&#45;&gt;2</title>
<path fill="none" stroke="#c0c0c0" stroke-width="2" d="M328.0088,-1223.8314C315.0784,-1214.7927 299.2778,-1203.7476 285.3617,-1194.0198"/>
<polygon fill="#c0c0c0" stroke="#c0c0c0" stroke-width="2" points="287.1843,-1191.0235 276.9829,-1188.1628 283.1737,-1196.7608 287.1843,-1191.0235"/>
</g>
<!-- 4 -->
<g id="node5" class="node">
<title>4</title>
<path fill="none" stroke="#d6d856" stroke-width="2" d="M454,-1332C454,-1332 254,-1332 254,-1332 248,-1332 242,-1326 242,-1320 242,-1320 242,-1308 242,-1308 242,-1302 248,-1296 254,-1296 254,-1296 454,-1296 454,-1296 460,-1296 466,-1302 466,-1308 466,-1308 466,-1320 466,-1320 466,-1326 460,-1332 454,-1332"/>
<text text-anchor="middle" x="354" y="-1311.5" font-family="sans" font-size="10.00" fill="#000000">snv_indels_whatshap_phase_deepsomatic</text>
</g>
<!-- 4&#45;&gt;2 -->
<g id="edge16" class="edge">
<title>4&#45;&gt;2</title>
<path fill="none" stroke="#c0c0c0" stroke-width="2" d="M312.46,-1295.9345C296.9343,-1287.2099 280.5318,-1275.2708 270,-1260 257.5124,-1241.8933 252.9621,-1217.2179 251.423,-1198.2835"/>
<polygon fill="#c0c0c0" stroke="#c0c0c0" stroke-width="2" points="254.9093,-1197.9437 250.8369,-1188.1629 247.921,-1198.3485 254.9093,-1197.9437"/>
</g>
<!-- 4&#45;&gt;3 -->
<g id="edge18" class="edge">
<title>4&#45;&gt;3</title>
<path fill="none" stroke="#c0c0c0" stroke-width="2" d="M354,-1295.8314C354,-1288.131 354,-1278.9743 354,-1270.4166"/>
<polygon fill="#c0c0c0" stroke="#c0c0c0" stroke-width="2" points="357.5001,-1270.4132 354,-1260.4133 350.5001,-1270.4133 357.5001,-1270.4132"/>
</g>
<!-- 5 -->
<g id="node6" class="node">
<title>5</title>
<path fill="none" stroke="#d86656" stroke-width="2" d="M498,-1404C498,-1404 350,-1404 350,-1404 344,-1404 338,-1398 338,-1392 338,-1392 338,-1380 338,-1380 338,-1374 344,-1368 350,-1368 350,-1368 498,-1368 498,-1368 504,-1368 510,-1374 510,-1380 510,-1380 510,-1392 510,-1392 510,-1398 504,-1404 498,-1404"/>
<text text-anchor="middle" x="424" y="-1383.5" font-family="sans" font-size="10.00" fill="#000000">snv_indels_deepsomatic_t_only</text>
</g>
<!-- 5&#45;&gt;4 -->
<g id="edge19" class="edge">
<title>5&#45;&gt;4</title>
<path fill="none" stroke="#c0c0c0" stroke-width="2" d="M406.336,-1367.8314C398.0268,-1359.2848 387.9736,-1348.9443 378.9082,-1339.6198"/>
<polygon fill="#c0c0c0" stroke="#c0c0c0" stroke-width="2" points="381.3821,-1337.1435 371.9018,-1332.4133 376.3631,-1342.023 381.3821,-1337.1435"/>
</g>
<!-- 6 -->
<g id="node7" class="node">
<title>6</title>
<path fill="none" stroke="#56b1d8" stroke-width="2" d="M847,-1548C847,-1548 725,-1548 725,-1548 719,-1548 713,-1542 713,-1536 713,-1536 713,-1524 713,-1524 713,-1518 719,-1512 725,-1512 725,-1512 847,-1512 847,-1512 853,-1512 859,-1518 859,-1524 859,-1524 859,-1536 859,-1536 859,-1542 853,-1548 847,-1548"/>
<text text-anchor="middle" x="786" y="-1527.5" font-family="sans" font-size="10.00" fill="#000000">alignment_pbmm2_merge</text>
</g>
<!-- 6&#45;&gt;4 -->
<g id="edge21" class="edge">
<title>6&#45;&gt;4</title>
<path fill="none" stroke="#c0c0c0" stroke-width="2" d="M712.7458,-1523.4858C648.3619,-1516.3279 552.7658,-1502.1899 473,-1476 405.0165,-1453.6787 366.6183,-1464.8676 329,-1404 317.0575,-1384.6767 325.6696,-1359.5535 335.9177,-1340.7631"/>
<polygon fill="#c0c0c0" stroke="#c0c0c0" stroke-width="2" points="338.9581,-1342.4974 340.9972,-1332.1006 332.9197,-1338.9565 338.9581,-1342.4974"/>
</g>
<!-- 6&#45;&gt;5 -->
<g id="edge23" class="edge">
<title>6&#45;&gt;5</title>
<path fill="none" stroke="#c0c0c0" stroke-width="2" d="M712.852,-1525.2682C658.337,-1519.346 583.3736,-1506.0134 524,-1476 492.9474,-1460.3029 464.1725,-1432.3987 445.5395,-1411.8096"/>
<polygon fill="#c0c0c0" stroke="#c0c0c0" stroke-width="2" points="448.1588,-1409.488 438.9112,-1404.3175 442.916,-1414.1263 448.1588,-1409.488"/>
</g>
<!-- 10 -->
<g id="node11" class="node">
<title>10</title>
<path fill="none" stroke="#56d8b1" stroke-width="2" d="M745.5,-1476C745.5,-1476 578.5,-1476 578.5,-1476 572.5,-1476 566.5,-1470 566.5,-1464 566.5,-1464 566.5,-1452 566.5,-1452 566.5,-1446 572.5,-1440 578.5,-1440 578.5,-1440 745.5,-1440 745.5,-1440 751.5,-1440 757.5,-1446 757.5,-1452 757.5,-1452 757.5,-1464 757.5,-1464 757.5,-1470 751.5,-1476 745.5,-1476"/>
<text text-anchor="middle" x="662" y="-1455.5" font-family="sans" font-size="10.00" fill="#000000">alignment_samtools_index_pbmm2</text>
</g>
<!-- 6&#45;&gt;10 -->
<g id="edge27" class="edge">
<title>6&#45;&gt;10</title>
<path fill="none" stroke="#c0c0c0" stroke-width="2" d="M754.7096,-1511.8314C738.7023,-1502.5368 719.0414,-1491.1208 701.9506,-1481.1971"/>
<polygon fill="#c0c0c0" stroke="#c0c0c0" stroke-width="2" points="703.6858,-1478.1575 693.2804,-1476.1628 700.1708,-1484.211 703.6858,-1478.1575"/>
</g>
<!-- 16 -->
<g id="node17" class="node">
<title>16</title>
<path fill="none" stroke="#d8b456" stroke-width="2" d="M820.5,-1260C820.5,-1260 657.5,-1260 657.5,-1260 651.5,-1260 645.5,-1254 645.5,-1248 645.5,-1248 645.5,-1236 645.5,-1236 645.5,-1230 651.5,-1224 657.5,-1224 657.5,-1224 820.5,-1224 820.5,-1224 826.5,-1224 832.5,-1230 832.5,-1236 832.5,-1236 832.5,-1248 832.5,-1248 832.5,-1254 826.5,-1260 820.5,-1260"/>
<text text-anchor="middle" x="739" y="-1239.5" font-family="sans" font-size="10.00" fill="#000000">snv_indels_whatshap_phase_clairs</text>
</g>
<!-- 6&#45;&gt;16 -->
<g id="edge37" class="edge">
<title>6&#45;&gt;16</title>
<path fill="none" stroke="#c0c0c0" stroke-width="2" d="M783.0599,-1511.9843C775.1139,-1463.2939 753.1646,-1328.7961 743.5788,-1270.0573"/>
<polygon fill="#c0c0c0" stroke="#c0c0c0" stroke-width="2" points="747.004,-1269.3146 741.9389,-1260.0089 740.0954,-1270.4421 747.004,-1269.3146"/>
</g>
<!-- 18 -->
<g id="node19" class="node">
<title>18</title>
<path fill="none" stroke="#56c1d8" stroke-width="2" d="M977.5,-1404C977.5,-1404 864.5,-1404 864.5,-1404 858.5,-1404 852.5,-1398 852.5,-1392 852.5,-1392 852.5,-1380 852.5,-1380 852.5,-1374 858.5,-1368 864.5,-1368 864.5,-1368 977.5,-1368 977.5,-1368 983.5,-1368 989.5,-1374 989.5,-1380 989.5,-1380 989.5,-1392 989.5,-1392 989.5,-1398 983.5,-1404 977.5,-1404"/>
<text text-anchor="middle" x="921" y="-1383.5" font-family="sans" font-size="10.00" fill="#000000">snv_indels_clairs_to_call</text>
</g>
<!-- 6&#45;&gt;18 -->
<g id="edge40" class="edge">
<title>6&#45;&gt;18</title>
<path fill="none" stroke="#c0c0c0" stroke-width="2" d="M803.0978,-1511.7623C826.8341,-1486.4436 869.8892,-1440.5182 896.8827,-1411.7251"/>
<polygon fill="#c0c0c0" stroke="#c0c0c0" stroke-width="2" points="899.7549,-1413.7788 904.041,-1404.0896 894.6482,-1408.9912 899.7549,-1413.7788"/>
</g>
<!-- 23 -->
<g id="node24" class="node">
<title>23</title>
<path fill="none" stroke="#5673d8" stroke-width="2" d="M1173.5,-1404C1173.5,-1404 1072.5,-1404 1072.5,-1404 1066.5,-1404 1060.5,-1398 1060.5,-1392 1060.5,-1392 1060.5,-1380 1060.5,-1380 1060.5,-1374 1066.5,-1368 1072.5,-1368 1072.5,-1368 1173.5,-1368 1173.5,-1368 1179.5,-1368 1185.5,-1374 1185.5,-1380 1185.5,-1380 1185.5,-1392 1185.5,-1392 1185.5,-1398 1179.5,-1404 1173.5,-1404"/>
<text text-anchor="middle" x="1123" y="-1383.5" font-family="sans" font-size="10.00" fill="#000000">cnv_sv_pbsv_discover</text>
</g>
<!-- 6&#45;&gt;23 -->
<g id="edge46" class="edge">
<title>6&#45;&gt;23</title>
<path fill="none" stroke="#c0c0c0" stroke-width="2" d="M859.226,-1520.189C924.6928,-1510.4525 1014.9463,-1494.3594 1046,-1476 1071.9044,-1460.685 1093.3548,-1433.4687 1106.9783,-1412.9628"/>
<polygon fill="#c0c0c0" stroke="#c0c0c0" stroke-width="2" points="1110.0438,-1414.6664 1112.5012,-1404.3604 1104.1533,-1410.8845 1110.0438,-1414.6664"/>
</g>
<!-- 25 -->
<g id="node26" class="node">
<title>25</title>
<path fill="none" stroke="#56d89a" stroke-width="2" d="M1228,-1476C1228,-1476 1164,-1476 1164,-1476 1158,-1476 1152,-1470 1152,-1464 1152,-1464 1152,-1452 1152,-1452 1152,-1446 1158,-1440 1164,-1440 1164,-1440 1228,-1440 1228,-1440 1234,-1440 1240,-1446 1240,-1452 1240,-1452 1240,-1464 1240,-1464 1240,-1470 1234,-1476 1228,-1476"/>
<text text-anchor="middle" x="1196" y="-1455.5" font-family="sans" font-size="10.00" fill="#000000">cnv_sv_hificnv</text>
</g>
<!-- 6&#45;&gt;25 -->
<g id="edge48" class="edge">
<title>6&#45;&gt;25</title>
<path fill="none" stroke="#c0c0c0" stroke-width="2" d="M859.1772,-1518.6853C924.9448,-1508.3066 1024.1109,-1492.1387 1110,-1476 1120.3384,-1474.0574 1131.3475,-1471.8552 1141.9158,-1469.6743"/>
<polygon fill="#c0c0c0" stroke="#c0c0c0" stroke-width="2" points="1142.801,-1473.0651 1151.8768,-1467.5989 1141.3732,-1466.2122 1142.801,-1473.0651"/>
</g>
<!-- 29 -->
<g id="node30" class="node">
<title>29</title>
<path fill="none" stroke="#5692d8" stroke-width="2" d="M1068.5,-900C1068.5,-900 995.5,-900 995.5,-900 989.5,-900 983.5,-894 983.5,-888 983.5,-888 983.5,-876 983.5,-876 983.5,-870 989.5,-864 995.5,-864 995.5,-864 1068.5,-864 1068.5,-864 1074.5,-864 1080.5,-870 1080.5,-876 1080.5,-876 1080.5,-888 1080.5,-888 1080.5,-894 1074.5,-900 1068.5,-900"/>
<text text-anchor="middle" x="1032" y="-879.5" font-family="sans" font-size="10.00" fill="#000000">cnv_sv_sniffles2</text>
</g>
<!-- 6&#45;&gt;29 -->
<g id="edge54" class="edge">
<title>6&#45;&gt;29</title>
<path fill="none" stroke="#c0c0c0" stroke-width="2" d="M859.1421,-1518.8762C931.6562,-1503.2093 1032,-1466.9119 1032,-1386 1032,-1386 1032,-1386 1032,-1026 1032,-985.876 1032,-939.4631 1032,-910.4177"/>
<polygon fill="#c0c0c0" stroke="#c0c0c0" stroke-width="2" points="1035.5001,-910.1853 1032,-900.1854 1028.5001,-910.1854 1035.5001,-910.1853"/>
</g>
<!-- 37 -->
<g id="node38" class="node">
<title>37</title>
<path fill="none" stroke="#d85e56" stroke-width="2" d="M588.5,-1116C588.5,-1116 443.5,-1116 443.5,-1116 437.5,-1116 431.5,-1110 431.5,-1104 431.5,-1104 431.5,-1092 431.5,-1092 431.5,-1086 437.5,-1080 443.5,-1080 443.5,-1080 588.5,-1080 588.5,-1080 594.5,-1080 600.5,-1086 600.5,-1092 600.5,-1092 600.5,-1104 600.5,-1104 600.5,-1110 594.5,-1116 588.5,-1116"/>
<text text-anchor="middle" x="516" y="-1095.5" font-family="sans" font-size="10.00" fill="#000000">snv_indels_whatshap_haplotag</text>
</g>
<!-- 6&#45;&gt;37 -->
<g id="edge68" class="edge">
<title>6&#45;&gt;37</title>
<path fill="none" stroke="#c0c0c0" stroke-width="2" d="M712.9046,-1521.3333C654.3496,-1512.8851 578.549,-1498.0619 557,-1476 528.4343,-1446.7543 538,-1426.8816 538,-1386 538,-1386 538,-1386 538,-1242 538,-1201.2316 529.2765,-1154.7078 522.8159,-1125.8425"/>
<polygon fill="#c0c0c0" stroke="#c0c0c0" stroke-width="2" points="526.2155,-1125.0083 520.5584,-1116.0502 519.3944,-1126.5809 526.2155,-1125.0083"/>
</g>
<!-- 7 -->
<g id="node8" class="node">
<title>7</title>
<path fill="none" stroke="#68d856" stroke-width="2" d="M843,-1620C843,-1620 729,-1620 729,-1620 723,-1620 717,-1614 717,-1608 717,-1608 717,-1596 717,-1596 717,-1590 723,-1584 729,-1584 729,-1584 843,-1584 843,-1584 849,-1584 855,-1590 855,-1596 855,-1596 855,-1608 855,-1608 855,-1614 849,-1620 843,-1620"/>
<text text-anchor="middle" x="786" y="-1599.5" font-family="sans" font-size="10.00" fill="#000000">alignment_pbmm2_align</text>
</g>
<!-- 7&#45;&gt;6 -->
<g id="edge24" class="edge">
<title>7&#45;&gt;6</title>
<path fill="none" stroke="#c0c0c0" stroke-width="2" d="M786,-1583.8314C786,-1576.131 786,-1566.9743 786,-1558.4166"/>
<polygon fill="#c0c0c0" stroke="#c0c0c0" stroke-width="2" points="789.5001,-1558.4132 786,-1548.4133 782.5001,-1558.4133 789.5001,-1558.4132"/>
</g>
<!-- 8 -->
<g id="node9" class="node">
<title>8</title>
<path fill="none" stroke="#566bd8" stroke-width="2" d="M765.5,-1692C765.5,-1692 646.5,-1692 646.5,-1692 640.5,-1692 634.5,-1686 634.5,-1680 634.5,-1680 634.5,-1668 634.5,-1668 634.5,-1662 640.5,-1656 646.5,-1656 646.5,-1656 765.5,-1656 765.5,-1656 771.5,-1656 777.5,-1662 777.5,-1668 777.5,-1668 777.5,-1680 777.5,-1680 777.5,-1686 771.5,-1692 765.5,-1692"/>
<text text-anchor="middle" x="706" y="-1671.5" font-family="sans" font-size="10.00" fill="#000000">prealignment_pbmarkdup</text>
</g>
<!-- 8&#45;&gt;7 -->
<g id="edge25" class="edge">
<title>8&#45;&gt;7</title>
<path fill="none" stroke="#c0c0c0" stroke-width="2" d="M726.1874,-1655.8314C735.8514,-1647.1337 747.5796,-1636.5783 758.0816,-1627.1265"/>
<polygon fill="#c0c0c0" stroke="#c0c0c0" stroke-width="2" points="760.7275,-1629.454 765.8191,-1620.1628 756.0447,-1624.251 760.7275,-1629.454"/>
</g>
<!-- 9 -->
<g id="node10" class="node">
<title>9</title>
<path fill="none" stroke="#78d856" stroke-width="2" d="M924.5,-1692C924.5,-1692 807.5,-1692 807.5,-1692 801.5,-1692 795.5,-1686 795.5,-1680 795.5,-1680 795.5,-1668 795.5,-1668 795.5,-1662 801.5,-1656 807.5,-1656 807.5,-1656 924.5,-1656 924.5,-1656 930.5,-1656 936.5,-1662 936.5,-1668 936.5,-1668 936.5,-1680 936.5,-1680 936.5,-1686 930.5,-1692 924.5,-1692"/>
<text text-anchor="middle" x="866" y="-1671.5" font-family="sans" font-size="10.00" fill="#000000">alignment_pbmm2_index</text>
</g>
<!-- 9&#45;&gt;7 -->
<g id="edge26" class="edge">
<title>9&#45;&gt;7</title>
<path fill="none" stroke="#c0c0c0" stroke-width="2" d="M845.8126,-1655.8314C836.1486,-1647.1337 824.4204,-1636.5783 813.9184,-1627.1265"/>
<polygon fill="#c0c0c0" stroke="#c0c0c0" stroke-width="2" points="815.9553,-1624.251 806.1809,-1620.1628 811.2725,-1629.454 815.9553,-1624.251"/>
</g>
<!-- 10&#45;&gt;4 -->
<g id="edge20" class="edge">
<title>10&#45;&gt;4</title>
<path fill="none" stroke="#c0c0c0" stroke-width="2" d="M637.4975,-1439.9461C609.8357,-1420.2044 562.9443,-1388.635 519,-1368 491.3,-1354.9928 459.6187,-1343.8092 431.4709,-1335.0487"/>
<polygon fill="#c0c0c0" stroke="#c0c0c0" stroke-width="2" points="432.2608,-1331.6303 421.6744,-1332.052 430.2132,-1338.3241 432.2608,-1331.6303"/>
</g>
<!-- 10&#45;&gt;5 -->
<g id="edge22" class="edge">
<title>10&#45;&gt;5</title>
<path fill="none" stroke="#c0c0c0" stroke-width="2" d="M602.2498,-1439.9243C569.2894,-1429.9531 528.1872,-1417.5188 493.7605,-1407.104"/>
<polygon fill="#c0c0c0" stroke="#c0c0c0" stroke-width="2" points="494.3599,-1403.6288 483.7748,-1404.0831 492.3329,-1410.3289 494.3599,-1403.6288"/>
</g>
<!-- 10&#45;&gt;16 -->
<g id="edge36" class="edge">
<title>10&#45;&gt;16</title>
<path fill="none" stroke="#c0c0c0" stroke-width="2" d="M668.4325,-1439.9555C681.8792,-1402.235 713.0414,-1314.8188 729.0756,-1269.8399"/>
<polygon fill="#c0c0c0" stroke="#c0c0c0" stroke-width="2" points="732.4705,-1270.7397 732.5316,-1260.1451 725.8769,-1268.3892 732.4705,-1270.7397"/>
</g>
<!-- 10&#45;&gt;18 -->
<g id="edge39" class="edge">
<title>10&#45;&gt;18</title>
<path fill="none" stroke="#c0c0c0" stroke-width="2" d="M727.0223,-1439.9243C763.1989,-1429.8675 808.3884,-1417.3052 846.0473,-1406.8363"/>
<polygon fill="#c0c0c0" stroke="#c0c0c0" stroke-width="2" points="847.2537,-1410.1337 855.9509,-1404.0831 845.3788,-1403.3894 847.2537,-1410.1337"/>
</g>
<!-- 10&#45;&gt;23 -->
<g id="edge45" class="edge">
<title>10&#45;&gt;23</title>
<path fill="none" stroke="#c0c0c0" stroke-width="2" d="M757.5195,-1443.0816C844.4705,-1429.5013 970.9887,-1409.7415 1050.0614,-1397.3917"/>
<polygon fill="#c0c0c0" stroke="#c0c0c0" stroke-width="2" points="1051.077,-1400.7756 1060.4171,-1395.7743 1049.9968,-1393.8594 1051.077,-1400.7756"/>
</g>
<!-- 10&#45;&gt;29 -->
<g id="edge53" class="edge">
<title>10&#45;&gt;29</title>
<path fill="none" stroke="#c0c0c0" stroke-width="2" d="M681.624,-1439.7799C716.7107,-1406.4984 791.1798,-1332.5948 841,-1260 924.7232,-1138.004 994.8421,-974.2337 1021.0113,-909.7467"/>
<polygon fill="#c0c0c0" stroke="#c0c0c0" stroke-width="2" points="1024.3383,-910.8544 1024.8293,-900.271 1017.8456,-908.2383 1024.3383,-910.8544"/>
</g>
<!-- 10&#45;&gt;37 -->
<g id="edge66" class="edge">
<title>10&#45;&gt;37</title>
<path fill="none" stroke="#c0c0c0" stroke-width="2" d="M651.5847,-1439.5566C637.4675,-1412.7787 614,-1361.1706 614,-1314 614,-1314 614,-1314 614,-1242 614,-1193.6274 575.7374,-1149.4833 547.0288,-1123.1696"/>
<polygon fill="#c0c0c0" stroke="#c0c0c0" stroke-width="2" points="549.0239,-1120.2601 539.2246,-1116.2319 544.3731,-1125.4918 549.0239,-1120.2601"/>
</g>
<!-- 11 -->
<g id="node12" class="node">
<title>11</title>
<path fill="none" stroke="#568ad8" stroke-width="2" d="M992,-756C992,-756 832,-756 832,-756 826,-756 820,-750 820,-744 820,-744 820,-732 820,-732 820,-726 826,-720 832,-720 832,-720 992,-720 992,-720 998,-720 1004,-726 1004,-732 1004,-732 1004,-744 1004,-744 1004,-750 998,-756 992,-756"/>
<text text-anchor="middle" x="912" y="-735.5" font-family="sans" font-size="10.00" fill="#000000">_copy_clairs_panel_annotated_vcf</text>
</g>
<!-- 11&#45;&gt;0 -->
<g id="edge10" class="edge">
<title>11&#45;&gt;0</title>
<path fill="none" stroke="#c0c0c0" stroke-width="2" d="M901.1507,-719.611C886.4453,-692.8991 862,-641.3709 862,-594 862,-594 862,-594 862,-450 862,-409.1184 856.8082,-392.9555 881,-360 900.3122,-333.6918 925.5484,-350.2054 945,-324 969.2147,-291.3777 997.6097,-179.0115 977,-144 935.8423,-74.0818 840.3373,-40.1936 787.2586,-26.2347"/>
<polygon fill="#c0c0c0" stroke="#c0c0c0" stroke-width="2" points="787.7898,-22.759 777.2372,-23.7039 786.0758,-29.5459 787.7898,-22.759"/>
</g>
<!-- 12 -->
<g id="node13" class="node">
<title>12</title>
<path fill="none" stroke="#56d8c1" stroke-width="2" d="M795,-900C795,-900 733,-900 733,-900 727,-900 721,-894 721,-888 721,-888 721,-876 721,-876 721,-870 727,-864 733,-864 733,-864 795,-864 795,-864 801,-864 807,-870 807,-876 807,-876 807,-888 807,-888 807,-894 801,-900 795,-900"/>
<text text-anchor="middle" x="764" y="-879.5" font-family="sans" font-size="10.00" fill="#000000">bgzip_vep_vcf</text>
</g>
<!-- 12&#45;&gt;11 -->
<g id="edge28" class="edge">
<title>12&#45;&gt;11</title>
<path fill="none" stroke="#c0c0c0" stroke-width="2" d="M782.7443,-863.7623C808.8775,-838.3354 856.3713,-792.1253 885.9388,-763.3569"/>
<polygon fill="#c0c0c0" stroke="#c0c0c0" stroke-width="2" points="888.6814,-765.5717 893.4079,-756.0896 883.7999,-760.5546 888.6814,-765.5717"/>
</g>
<!-- 42 -->
<g id="node43" class="node">
<title>42</title>
<path fill="none" stroke="#56d892" stroke-width="2" d="M728,-756C728,-756 572,-756 572,-756 566,-756 560,-750 560,-744 560,-744 560,-732 560,-732 560,-726 566,-720 572,-720 572,-720 728,-720 728,-720 734,-720 740,-726 740,-732 740,-732 740,-744 740,-744 740,-750 734,-756 728,-756"/>
<text text-anchor="middle" x="650" y="-735.5" font-family="sans" font-size="10.00" fill="#000000">filtering_filter_vep_annotated_vcf</text>
</g>
<!-- 12&#45;&gt;42 -->
<g id="edge74" class="edge">
<title>12&#45;&gt;42</title>
<path fill="none" stroke="#c0c0c0" stroke-width="2" d="M720.515,-866.7068C701.9932,-858.0812 681.7589,-845.4629 669,-828 656.024,-810.24 651.5109,-785.5382 650.1103,-766.5054"/>
<polygon fill="#c0c0c0" stroke="#c0c0c0" stroke-width="2" points="653.5967,-766.1396 649.6116,-756.3228 646.6051,-766.4821 653.5967,-766.1396"/>
</g>
<!-- 43 -->
<g id="node44" class="node">
<title>43</title>
<path fill="none" stroke="#9fd856" stroke-width="2" d="M751.5,-828C751.5,-828 690.5,-828 690.5,-828 684.5,-828 678.5,-822 678.5,-816 678.5,-816 678.5,-804 678.5,-804 678.5,-798 684.5,-792 690.5,-792 690.5,-792 751.5,-792 751.5,-792 757.5,-792 763.5,-798 763.5,-804 763.5,-804 763.5,-816 763.5,-816 763.5,-822 757.5,-828 751.5,-828"/>
<text text-anchor="middle" x="721" y="-807.5" font-family="sans" font-size="10.00" fill="#000000">tabix_vep_vcf</text>
</g>
<!-- 12&#45;&gt;43 -->
<g id="edge75" class="edge">
<title>12&#45;&gt;43</title>
<path fill="none" stroke="#c0c0c0" stroke-width="2" d="M753.1493,-863.8314C748.2977,-855.7079 742.4783,-845.9637 737.132,-837.0118"/>
<polygon fill="#c0c0c0" stroke="#c0c0c0" stroke-width="2" points="740.1292,-835.2041 731.9968,-828.4133 734.1194,-838.7933 740.1292,-835.2041"/>
</g>
<!-- 56 -->
<g id="node57" class="node">
<title>56</title>
<path fill="none" stroke="#56d863" stroke-width="2" d="M924.5,-324C924.5,-324 793.5,-324 793.5,-324 787.5,-324 781.5,-318 781.5,-312 781.5,-312 781.5,-300 781.5,-300 781.5,-294 787.5,-288 793.5,-288 793.5,-288 924.5,-288 924.5,-288 930.5,-288 936.5,-294 936.5,-300 936.5,-300 936.5,-312 936.5,-312 936.5,-318 930.5,-324 924.5,-324"/>
<text text-anchor="middle" x="859" y="-303.5" font-family="sans" font-size="10.00" fill="#000000">reports_compile_xlsx_report</text>
</g>
<!-- 12&#45;&gt;56 -->
<g id="edge91" class="edge">
<title>12&#45;&gt;56</title>
<path fill="none" stroke="#c0c0c0" stroke-width="2" d="M769.9381,-863.5823C778.1572,-836.4106 792,-783.8428 792,-738 792,-738 792,-738 792,-450 792,-405.7121 818.3742,-360.3128 838.0276,-332.6304"/>
<polygon fill="#c0c0c0" stroke="#c0c0c0" stroke-width="2" points="841.0504,-334.4263 844.1305,-324.2891 835.401,-330.293 841.0504,-334.4263"/>
</g>
<!-- 13 -->
<g id="node14" class="node">
<title>13</title>
<path fill="none" stroke="#bed856" stroke-width="2" d="M814,-972C814,-972 714,-972 714,-972 708,-972 702,-966 702,-960 702,-960 702,-948 702,-948 702,-942 708,-936 714,-936 714,-936 814,-936 814,-936 820,-936 826,-942 826,-948 826,-948 826,-960 826,-960 826,-966 820,-972 814,-972"/>
<text text-anchor="middle" x="764" y="-951.5" font-family="sans" font-size="10.00" fill="#000000">annotation_vep_clairs</text>
</g>
<!-- 13&#45;&gt;12 -->
<g id="edge29" class="edge">
<title>13&#45;&gt;12</title>
<path fill="none" stroke="#c0c0c0" stroke-width="2" d="M764,-935.8314C764,-928.131 764,-918.9743 764,-910.4166"/>
<polygon fill="#c0c0c0" stroke="#c0c0c0" stroke-width="2" points="767.5001,-910.4132 764,-900.4133 760.5001,-910.4133 767.5001,-910.4132"/>
</g>
<!-- 14 -->
<g id="node15" class="node">
<title>14</title>
<path fill="none" stroke="#56d8d8" stroke-width="2" d="M762.5,-1044C762.5,-1044 633.5,-1044 633.5,-1044 627.5,-1044 621.5,-1038 621.5,-1032 621.5,-1032 621.5,-1020 621.5,-1020 621.5,-1014 627.5,-1008 633.5,-1008 633.5,-1008 762.5,-1008 762.5,-1008 768.5,-1008 774.5,-1014 774.5,-1020 774.5,-1020 774.5,-1032 774.5,-1032 774.5,-1038 768.5,-1044 762.5,-1044"/>
<text text-anchor="middle" x="698" y="-1023.5" font-family="sans" font-size="10.00" fill="#000000">cnv_sv_tabix_include_panel</text>
</g>
<!-- 14&#45;&gt;13 -->
<g id="edge30" class="edge">
<title>14&#45;&gt;13</title>
<path fill="none" stroke="#c0c0c0" stroke-width="2" d="M714.6546,-1007.8314C722.4114,-999.3694 731.7802,-989.1489 740.261,-979.8971"/>
<polygon fill="#c0c0c0" stroke="#c0c0c0" stroke-width="2" points="742.9439,-982.1499 747.1212,-972.4133 737.7838,-977.4198 742.9439,-982.1499"/>
</g>
<!-- 15 -->
<g id="node16" class="node">
<title>15</title>
<path fill="none" stroke="#565bd8" stroke-width="2" d="M841,-1116C841,-1116 631,-1116 631,-1116 625,-1116 619,-1110 619,-1104 619,-1104 619,-1092 619,-1092 619,-1086 625,-1080 631,-1080 631,-1080 841,-1080 841,-1080 847,-1080 853,-1086 853,-1092 853,-1092 853,-1104 853,-1104 853,-1110 847,-1116 841,-1116"/>
<text text-anchor="middle" x="736" y="-1095.5" font-family="sans" font-size="10.00" fill="#000000">filtering_bcftools_filter_include_region_clairs</text>
</g>
<!-- 15&#45;&gt;13 -->
<g id="edge31" class="edge">
<title>15&#45;&gt;13</title>
<path fill="none" stroke="#c0c0c0" stroke-width="2" d="M757.7672,-1079.8165C767.4723,-1070.2816 777.8597,-1057.7355 783,-1044 790.6035,-1023.6827 784.7875,-999.5857 777.653,-981.4412"/>
<polygon fill="#c0c0c0" stroke="#c0c0c0" stroke-width="2" points="780.7807,-979.8534 773.6305,-972.0351 774.3445,-982.6059 780.7807,-979.8534"/>
</g>
<!-- 15&#45;&gt;14 -->
<g id="edge32" class="edge">
<title>15&#45;&gt;14</title>
<path fill="none" stroke="#c0c0c0" stroke-width="2" d="M726.411,-1079.8314C722.1683,-1071.7925 717.0879,-1062.1666 712.404,-1053.2918"/>
<polygon fill="#c0c0c0" stroke="#c0c0c0" stroke-width="2" points="715.4811,-1051.6235 707.7181,-1044.4133 709.2904,-1054.8908 715.4811,-1051.6235"/>
</g>
<!-- 16&#45;&gt;15 -->
<g id="edge34" class="edge">
<title>16&#45;&gt;15</title>
<path fill="none" stroke="#c0c0c0" stroke-width="2" d="M769.4958,-1223.7757C781.6822,-1214.7056 794.3772,-1202.5508 801,-1188 807.6281,-1173.4374 807.7975,-1166.4843 801,-1152 795.5409,-1140.3676 786.2088,-1130.3739 776.2927,-1122.2592"/>
<polygon fill="#c0c0c0" stroke="#c0c0c0" stroke-width="2" points="778.355,-1119.4304 768.2779,-1116.1588 774.1154,-1125.0005 778.355,-1119.4304"/>
</g>
<!-- 19 -->
<g id="node20" class="node">
<title>19</title>
<path fill="none" stroke="#d8a456" stroke-width="2" d="M780,-1188C780,-1188 692,-1188 692,-1188 686,-1188 680,-1182 680,-1176 680,-1176 680,-1164 680,-1164 680,-1158 686,-1152 692,-1152 692,-1152 780,-1152 780,-1152 786,-1152 792,-1158 792,-1164 792,-1164 792,-1176 792,-1176 792,-1182 786,-1188 780,-1188"/>
<text text-anchor="middle" x="736" y="-1167.5" font-family="sans" font-size="10.00" fill="#000000">cnv_sv_tabix_clairs</text>
</g>
<!-- 16&#45;&gt;19 -->
<g id="edge41" class="edge">
<title>16&#45;&gt;19</title>
<path fill="none" stroke="#c0c0c0" stroke-width="2" d="M738.243,-1223.8314C737.9221,-1216.131 737.5406,-1206.9743 737.184,-1198.4166"/>
<polygon fill="#c0c0c0" stroke="#c0c0c0" stroke-width="2" points="740.6806,-1198.2589 736.7672,-1188.4133 733.6867,-1198.5503 740.6806,-1198.2589"/>
</g>
<!-- 16&#45;&gt;37 -->
<g id="edge67" class="edge">
<title>16&#45;&gt;37</title>
<path fill="none" stroke="#c0c0c0" stroke-width="2" d="M715.9044,-1223.9004C702.6891,-1213.4837 685.8378,-1200.0992 671,-1188 651.6835,-1172.2486 648.9417,-1165.5159 628,-1152 609.6079,-1140.1296 588.2128,-1129.1902 569.0797,-1120.3069"/>
<polygon fill="#c0c0c0" stroke="#c0c0c0" stroke-width="2" points="570.4427,-1117.0817 559.8919,-1116.1161 567.5376,-1123.4505 570.4427,-1117.0817"/>
</g>
<!-- 17 -->
<g id="node18" class="node">
<title>17</title>
<path fill="none" stroke="#56a9d8" stroke-width="2" d="M992,-1332C992,-1332 864,-1332 864,-1332 858,-1332 852,-1326 852,-1320 852,-1320 852,-1308 852,-1308 852,-1302 858,-1296 864,-1296 864,-1296 992,-1296 992,-1296 998,-1296 1004,-1302 1004,-1308 1004,-1308 1004,-1320 1004,-1320 1004,-1326 998,-1332 992,-1332"/>
<text text-anchor="middle" x="928" y="-1311.5" font-family="sans" font-size="10.00" fill="#000000">snv_indels_clairs_to_concat</text>
</g>
<!-- 17&#45;&gt;16 -->
<g id="edge35" class="edge">
<title>17&#45;&gt;16</title>
<path fill="none" stroke="#c0c0c0" stroke-width="2" d="M880.3073,-1295.8314C854.6927,-1286.0734 822.9398,-1273.977 796.026,-1263.7242"/>
<polygon fill="#c0c0c0" stroke="#c0c0c0" stroke-width="2" points="796.9406,-1260.3273 786.3497,-1260.038 794.4486,-1266.8687 796.9406,-1260.3273"/>
</g>
<!-- 18&#45;&gt;17 -->
<g id="edge38" class="edge">
<title>18&#45;&gt;17</title>
<path fill="none" stroke="#c0c0c0" stroke-width="2" d="M922.7664,-1367.8314C923.515,-1360.131 924.4053,-1350.9743 925.2373,-1342.4166"/>
<polygon fill="#c0c0c0" stroke="#c0c0c0" stroke-width="2" points="928.7256,-1342.7051 926.2098,-1332.4133 921.7585,-1342.0276 928.7256,-1342.7051"/>
</g>
<!-- 19&#45;&gt;15 -->
<g id="edge33" class="edge">
<title>19&#45;&gt;15</title>
<path fill="none" stroke="#c0c0c0" stroke-width="2" d="M736,-1151.8314C736,-1144.131 736,-1134.9743 736,-1126.4166"/>
<polygon fill="#c0c0c0" stroke="#c0c0c0" stroke-width="2" points="739.5001,-1126.4132 736,-1116.4133 732.5001,-1126.4133 739.5001,-1126.4132"/>
</g>
<!-- 19&#45;&gt;37 -->
<g id="edge65" class="edge">
<title>19&#45;&gt;37</title>
<path fill="none" stroke="#c0c0c0" stroke-width="2" d="M680.7687,-1151.9243C650.4319,-1141.9959 612.6335,-1129.6255 580.8945,-1119.2382"/>
<polygon fill="#c0c0c0" stroke="#c0c0c0" stroke-width="2" points="581.8467,-1115.8672 571.254,-1116.0831 579.6694,-1122.52 581.8467,-1115.8672"/>
</g>
<!-- 20 -->
<g id="node21" class="node">
<title>20</title>
<path fill="none" stroke="#56d85b" stroke-width="2" d="M1184,-1116C1184,-1116 1114,-1116 1114,-1116 1108,-1116 1102,-1110 1102,-1104 1102,-1104 1102,-1092 1102,-1092 1102,-1086 1108,-1080 1114,-1080 1114,-1080 1184,-1080 1184,-1080 1190,-1080 1196,-1086 1196,-1092 1196,-1092 1196,-1104 1196,-1104 1196,-1110 1190,-1116 1184,-1116"/>
<text text-anchor="middle" x="1149" y="-1095.5" font-family="sans" font-size="10.00" fill="#000000">_copy_pbsv_vcf</text>
</g>
<!-- 20&#45;&gt;0 -->
<g id="edge1" class="edge">
<title>20&#45;&gt;0</title>
<path fill="none" stroke="#c0c0c0" stroke-width="2" d="M1160.0662,-1079.6389C1175.0658,-1052.961 1200,-1001.4737 1200,-954 1200,-954 1200,-954 1200,-162 1200,-102.2061 1154.0233,-97.6279 1100,-72 1045.0892,-45.9511 866.2499,-27.9301 787.6436,-21.0732"/>
<polygon fill="#c0c0c0" stroke="#c0c0c0" stroke-width="2" points="787.5032,-17.5484 777.2404,-20.1801 786.9044,-24.5227 787.5032,-17.5484"/>
</g>
<!-- 21 -->
<g id="node22" class="node">
<title>21</title>
<path fill="none" stroke="#88d856" stroke-width="2" d="M1167,-1260C1167,-1260 1109,-1260 1109,-1260 1103,-1260 1097,-1254 1097,-1248 1097,-1248 1097,-1236 1097,-1236 1097,-1230 1103,-1224 1109,-1224 1109,-1224 1167,-1224 1167,-1224 1173,-1224 1179,-1230 1179,-1236 1179,-1236 1179,-1248 1179,-1248 1179,-1254 1173,-1260 1167,-1260"/>
<text text-anchor="middle" x="1138" y="-1239.5" font-family="sans" font-size="10.00" fill="#000000">cnv_sv_bgzip</text>
</g>
<!-- 21&#45;&gt;20 -->
<g id="edge42" class="edge">
<title>21&#45;&gt;20</title>
<path fill="none" stroke="#c0c0c0" stroke-width="2" d="M1139.3932,-1223.7623C1141.2694,-1199.201 1144.6269,-1155.2474 1146.8341,-1126.3541"/>
<polygon fill="#c0c0c0" stroke="#c0c0c0" stroke-width="2" points="1150.3462,-1126.3272 1147.6182,-1116.0896 1143.3666,-1125.794 1150.3462,-1126.3272"/>
</g>
<!-- 22 -->
<g id="node23" class="node">
<title>22</title>
<path fill="none" stroke="#97d856" stroke-width="2" d="M1173.5,-1332C1173.5,-1332 1096.5,-1332 1096.5,-1332 1090.5,-1332 1084.5,-1326 1084.5,-1320 1084.5,-1320 1084.5,-1308 1084.5,-1308 1084.5,-1302 1090.5,-1296 1096.5,-1296 1096.5,-1296 1173.5,-1296 1173.5,-1296 1179.5,-1296 1185.5,-1302 1185.5,-1308 1185.5,-1308 1185.5,-1320 1185.5,-1320 1185.5,-1326 1179.5,-1332 1173.5,-1332"/>
<text text-anchor="middle" x="1135" y="-1311.5" font-family="sans" font-size="10.00" fill="#000000">cnv_sv_pbsv_call</text>
</g>
<!-- 22&#45;&gt;21 -->
<g id="edge43" class="edge">
<title>22&#45;&gt;21</title>
<path fill="none" stroke="#c0c0c0" stroke-width="2" d="M1135.757,-1295.8314C1136.0779,-1288.131 1136.4594,-1278.9743 1136.816,-1270.4166"/>
<polygon fill="#c0c0c0" stroke="#c0c0c0" stroke-width="2" points="1140.3133,-1270.5503 1137.2328,-1260.4133 1133.3194,-1270.2589 1140.3133,-1270.5503"/>
</g>
<!-- 23&#45;&gt;22 -->
<g id="edge44" class="edge">
<title>23&#45;&gt;22</title>
<path fill="none" stroke="#c0c0c0" stroke-width="2" d="M1126.0281,-1367.8314C1127.3115,-1360.131 1128.8376,-1350.9743 1130.2639,-1342.4166"/>
<polygon fill="#c0c0c0" stroke="#c0c0c0" stroke-width="2" points="1133.7394,-1342.8526 1131.9311,-1332.4133 1126.8347,-1341.7018 1133.7394,-1342.8526"/>
</g>
<!-- 24 -->
<g id="node25" class="node">
<title>24</title>
<path fill="none" stroke="#d8ac56" stroke-width="2" d="M1268.5,-1188C1268.5,-1188 1189.5,-1188 1189.5,-1188 1183.5,-1188 1177.5,-1182 1177.5,-1176 1177.5,-1176 1177.5,-1164 1177.5,-1164 1177.5,-1158 1183.5,-1152 1189.5,-1152 1189.5,-1152 1268.5,-1152 1268.5,-1152 1274.5,-1152 1280.5,-1158 1280.5,-1164 1280.5,-1164 1280.5,-1176 1280.5,-1176 1280.5,-1182 1274.5,-1188 1268.5,-1188"/>
<text text-anchor="middle" x="1229" y="-1167.5" font-family="sans" font-size="10.00" fill="#000000">_copy_hificnv_vcf</text>
</g>
<!-- 24&#45;&gt;0 -->
<g id="edge11" class="edge">
<title>24&#45;&gt;0</title>
<path fill="none" stroke="#c0c0c0" stroke-width="2" d="M1230.8648,-1151.8374C1233.501,-1124.55 1238,-1071.3383 1238,-1026 1238,-1026 1238,-1026 1238,-162 1238,-106.6743 1201.306,-97.097 1152,-72 1088.518,-39.6874 874.3069,-24.7215 787.2504,-19.8654"/>
<polygon fill="#c0c0c0" stroke="#c0c0c0" stroke-width="2" points="787.2164,-16.3585 777.041,-19.31 786.8361,-23.3481 787.2164,-16.3585"/>
</g>
<!-- 25&#45;&gt;24 -->
<g id="edge47" class="edge">
<title>25&#45;&gt;24</title>
<path fill="none" stroke="#c0c0c0" stroke-width="2" d="M1198.0643,-1439.9843C1203.6434,-1391.2939 1219.0546,-1256.7961 1225.7851,-1198.0573"/>
<polygon fill="#c0c0c0" stroke="#c0c0c0" stroke-width="2" points="1229.2753,-1198.3423 1226.9365,-1188.0089 1222.3208,-1197.5454 1229.2753,-1198.3423"/>
</g>
<!-- 26 -->
<g id="node27" class="node">
<title>26</title>
<path fill="none" stroke="#a7d856" stroke-width="2" d="M1093,-252C1093,-252 1005,-252 1005,-252 999,-252 993,-246 993,-240 993,-240 993,-228 993,-228 993,-222 999,-216 1005,-216 1005,-216 1093,-216 1093,-216 1099,-216 1105,-222 1105,-228 1105,-228 1105,-240 1105,-240 1105,-246 1099,-252 1093,-252"/>
<text text-anchor="middle" x="1049" y="-231.5" font-family="sans" font-size="10.00" fill="#000000">_copy_sniffles2_vcf</text>
</g>
<!-- 26&#45;&gt;0 -->
<g id="edge4" class="edge">
<title>26&#45;&gt;0</title>
<path fill="none" stroke="#c0c0c0" stroke-width="2" d="M1050.5127,-215.9436C1052.2421,-182.4747 1050.7341,-110.6994 1011,-72 979.5999,-41.4176 851.7318,-26.5258 787.3753,-20.8501"/>
<polygon fill="#c0c0c0" stroke="#c0c0c0" stroke-width="2" points="787.5063,-17.3487 777.2452,-19.9868 786.9118,-24.3234 787.5063,-17.3487"/>
</g>
<!-- 27 -->
<g id="node28" class="node">
<title>27</title>
<path fill="none" stroke="#c6d856" stroke-width="2" d="M1121.5,-396C1121.5,-396 902.5,-396 902.5,-396 896.5,-396 890.5,-390 890.5,-384 890.5,-384 890.5,-372 890.5,-372 890.5,-366 896.5,-360 902.5,-360 902.5,-360 1121.5,-360 1121.5,-360 1127.5,-360 1133.5,-366 1133.5,-372 1133.5,-372 1133.5,-384 1133.5,-384 1133.5,-390 1127.5,-396 1121.5,-396"/>
<text text-anchor="middle" x="1012" y="-375.5" font-family="sans" font-size="10.00" fill="#000000">filtering_bcftools_filter_include_region_sniffles</text>
</g>
<!-- 27&#45;&gt;26 -->
<g id="edge49" class="edge">
<title>27&#45;&gt;26</title>
<path fill="none" stroke="#c0c0c0" stroke-width="2" d="M1016.6861,-359.7623C1023.0248,-335.0928 1034.3902,-290.8598 1041.8125,-261.9731"/>
<polygon fill="#c0c0c0" stroke="#c0c0c0" stroke-width="2" points="1045.2532,-262.6461 1044.352,-252.0896 1038.4734,-260.904 1045.2532,-262.6461"/>
</g>
<!-- 27&#45;&gt;56 -->
<g id="edge89" class="edge">
<title>27&#45;&gt;56</title>
<path fill="none" stroke="#c0c0c0" stroke-width="2" d="M973.3916,-359.8314C953.1107,-350.2874 928.0762,-338.5065 906.6029,-328.4013"/>
<polygon fill="#c0c0c0" stroke="#c0c0c0" stroke-width="2" points="907.8692,-325.1291 897.3307,-324.038 904.8886,-331.4629 907.8692,-325.1291"/>
</g>
<!-- 28 -->
<g id="node29" class="node">
<title>28</title>
<path fill="none" stroke="#56d87b" stroke-width="2" d="M1081,-540C1081,-540 983,-540 983,-540 977,-540 971,-534 971,-528 971,-528 971,-516 971,-516 971,-510 977,-504 983,-504 983,-504 1081,-504 1081,-504 1087,-504 1093,-510 1093,-516 1093,-516 1093,-528 1093,-528 1093,-534 1087,-540 1081,-540"/>
<text text-anchor="middle" x="1032" y="-519.5" font-family="sans" font-size="10.00" fill="#000000">cnv_sv_bgzip_sniffles</text>
</g>
<!-- 28&#45;&gt;27 -->
<g id="edge50" class="edge">
<title>28&#45;&gt;27</title>
<path fill="none" stroke="#c0c0c0" stroke-width="2" d="M1009.325,-503.9909C999.2112,-494.4972 988.3802,-481.9355 983,-468 974.9442,-447.1341 983.6781,-422.9851 993.6118,-404.9583"/>
<polygon fill="#c0c0c0" stroke="#c0c0c0" stroke-width="2" points="996.7502,-406.5274 998.8333,-396.1393 990.7268,-402.9611 996.7502,-406.5274"/>
</g>
<!-- 30 -->
<g id="node31" class="node">
<title>30</title>
<path fill="none" stroke="#d87d56" stroke-width="2" d="M1101.5,-468C1101.5,-468 1004.5,-468 1004.5,-468 998.5,-468 992.5,-462 992.5,-456 992.5,-456 992.5,-444 992.5,-444 992.5,-438 998.5,-432 1004.5,-432 1004.5,-432 1101.5,-432 1101.5,-432 1107.5,-432 1113.5,-438 1113.5,-444 1113.5,-444 1113.5,-456 1113.5,-456 1113.5,-462 1107.5,-468 1101.5,-468"/>
<text text-anchor="middle" x="1053" y="-447.5" font-family="sans" font-size="10.00" fill="#000000">cnv_sv_tabix_sniffles</text>
</g>
<!-- 28&#45;&gt;30 -->
<g id="edge55" class="edge">
<title>28&#45;&gt;30</title>
<path fill="none" stroke="#c0c0c0" stroke-width="2" d="M1037.2992,-503.8314C1039.5698,-496.0463 1042.2746,-486.7729 1044.794,-478.1347"/>
<polygon fill="#c0c0c0" stroke="#c0c0c0" stroke-width="2" points="1048.1894,-478.9933 1047.6295,-468.4133 1041.4694,-477.0332 1048.1894,-478.9933"/>
</g>
<!-- 29&#45;&gt;28 -->
<g id="edge52" class="edge">
<title>29&#45;&gt;28</title>
<path fill="none" stroke="#c0c0c0" stroke-width="2" d="M1032,-863.8146C1032,-836.4983 1032,-783.25 1032,-738 1032,-738 1032,-738 1032,-666 1032,-625.876 1032,-579.4631 1032,-550.4177"/>
<polygon fill="#c0c0c0" stroke="#c0c0c0" stroke-width="2" points="1035.5001,-550.1853 1032,-540.1854 1028.5001,-550.1854 1035.5001,-550.1853"/>
</g>
<!-- 31 -->
<g id="node32" class="node">
<title>31</title>
<path fill="none" stroke="#8fd856" stroke-width="2" d="M1160,-828C1160,-828 1072,-828 1072,-828 1066,-828 1060,-822 1060,-816 1060,-816 1060,-804 1060,-804 1060,-798 1066,-792 1072,-792 1072,-792 1160,-792 1160,-792 1166,-792 1172,-798 1172,-804 1172,-804 1172,-816 1172,-816 1172,-822 1166,-828 1160,-828"/>
<text text-anchor="middle" x="1116" y="-807.5" font-family="sans" font-size="10.00" fill="#000000">_copy_sniffles2_snf</text>
</g>
<!-- 29&#45;&gt;31 -->
<g id="edge56" class="edge">
<title>29&#45;&gt;31</title>
<path fill="none" stroke="#c0c0c0" stroke-width="2" d="M1053.1967,-863.8314C1063.4434,-855.0485 1075.9003,-844.3712 1087.0097,-834.8489"/>
<polygon fill="#c0c0c0" stroke="#c0c0c0" stroke-width="2" points="1089.4952,-837.3282 1094.81,-828.1628 1084.9397,-832.0134 1089.4952,-837.3282"/>
</g>
<!-- 30&#45;&gt;27 -->
<g id="edge51" class="edge">
<title>30&#45;&gt;27</title>
<path fill="none" stroke="#c0c0c0" stroke-width="2" d="M1042.654,-431.8314C1038.0763,-423.7925 1032.5948,-414.1666 1027.5412,-405.2918"/>
<polygon fill="#c0c0c0" stroke="#c0c0c0" stroke-width="2" points="1030.4752,-403.3712 1022.4853,-396.4133 1024.3923,-406.8351 1030.4752,-403.3712"/>
</g>
<!-- 31&#45;&gt;0 -->
<g id="edge7" class="edge">
<title>31&#45;&gt;0</title>
<path fill="none" stroke="#c0c0c0" stroke-width="2" d="M1125.7554,-791.9518C1139.2583,-765.2403 1162,-713.2402 1162,-666 1162,-666 1162,-666 1162,-162 1162,-93.5426 1099.9194,-98.9736 1037,-72 952.5091,-35.7787 843.7329,-23.7774 787.4553,-19.8578"/>
<polygon fill="#c0c0c0" stroke="#c0c0c0" stroke-width="2" points="787.4544,-16.3505 777.2489,-19.1964 787.0016,-23.3359 787.4544,-16.3505"/>
</g>
<!-- 32 -->
<g id="node33" class="node">
<title>32</title>
<path fill="none" stroke="#56d88a" stroke-width="2" d="M606.5,-108C606.5,-108 487.5,-108 487.5,-108 481.5,-108 475.5,-102 475.5,-96 475.5,-96 475.5,-84 475.5,-84 475.5,-78 481.5,-72 487.5,-72 487.5,-72 606.5,-72 606.5,-72 612.5,-72 618.5,-78 618.5,-84 618.5,-84 618.5,-96 618.5,-96 618.5,-102 612.5,-108 606.5,-108"/>
<text text-anchor="middle" x="547" y="-87.5" font-family="sans" font-size="10.00" fill="#000000">_copy_cnvkit_html_report</text>
</g>
<!-- 32&#45;&gt;0 -->
<g id="edge6" class="edge">
<title>32&#45;&gt;0</title>
<path fill="none" stroke="#c0c0c0" stroke-width="2" d="M597.9634,-71.9243C633.8323,-59.2023 681.0057,-42.4709 713.235,-31.0398"/>
<polygon fill="#c0c0c0" stroke="#c0c0c0" stroke-width="2" points="714.4736,-34.3142 722.7283,-27.6727 712.1336,-27.7169 714.4736,-34.3142"/>
</g>
<!-- 33 -->
<g id="node34" class="node">
<title>33</title>
<path fill="none" stroke="#59d856" stroke-width="2" d="M558,-180C558,-180 446,-180 446,-180 440,-180 434,-174 434,-168 434,-168 434,-156 434,-156 434,-150 440,-144 446,-144 446,-144 558,-144 558,-144 564,-144 570,-150 570,-156 570,-156 570,-168 570,-168 570,-174 564,-180 558,-180"/>
<text text-anchor="middle" x="502" y="-159.5" font-family="sans" font-size="10.00" fill="#000000">reports_cnv_html_report</text>
</g>
<!-- 33&#45;&gt;32 -->
<g id="edge57" class="edge">
<title>33&#45;&gt;32</title>
<path fill="none" stroke="#c0c0c0" stroke-width="2" d="M513.3554,-143.8314C518.4326,-135.7079 524.5227,-125.9637 530.1176,-117.0118"/>
<polygon fill="#c0c0c0" stroke="#c0c0c0" stroke-width="2" points="533.1597,-118.7483 535.4917,-108.4133 527.2237,-115.0383 533.1597,-118.7483"/>
</g>
<!-- 34 -->
<g id="node35" class="node">
<title>34</title>
<path fill="none" stroke="#d8c356" stroke-width="2" d="M558,-252C558,-252 446,-252 446,-252 440,-252 434,-246 434,-240 434,-240 434,-228 434,-228 434,-222 440,-216 446,-216 446,-216 558,-216 558,-216 564,-216 570,-222 570,-228 570,-228 570,-240 570,-240 570,-246 564,-252 558,-252"/>
<text text-anchor="middle" x="502" y="-231.5" font-family="sans" font-size="10.00" fill="#000000">reports_merge_cnv_json</text>
</g>
<!-- 34&#45;&gt;33 -->
<g id="edge58" class="edge">
<title>34&#45;&gt;33</title>
<path fill="none" stroke="#c0c0c0" stroke-width="2" d="M502,-215.8314C502,-208.131 502,-198.9743 502,-190.4166"/>
<polygon fill="#c0c0c0" stroke="#c0c0c0" stroke-width="2" points="505.5001,-190.4132 502,-180.4133 498.5001,-190.4133 505.5001,-190.4132"/>
</g>
<!-- 35 -->
<g id="node36" class="node">
<title>35</title>
<path fill="none" stroke="#56d0d8" stroke-width="2" d="M521.5,-396C521.5,-396 446.5,-396 446.5,-396 440.5,-396 434.5,-390 434.5,-384 434.5,-384 434.5,-372 434.5,-372 434.5,-366 440.5,-360 446.5,-360 446.5,-360 521.5,-360 521.5,-360 527.5,-360 533.5,-366 533.5,-372 533.5,-372 533.5,-384 533.5,-384 533.5,-390 527.5,-396 521.5,-396"/>
<text text-anchor="middle" x="484" y="-375.5" font-family="sans" font-size="10.00" fill="#000000">reports_cnv_json</text>
</g>
<!-- 35&#45;&gt;34 -->
<g id="edge59" class="edge">
<title>35&#45;&gt;34</title>
<path fill="none" stroke="#c0c0c0" stroke-width="2" d="M486.2797,-359.7623C489.3499,-335.201 494.8441,-291.2474 498.4557,-262.3541"/>
<polygon fill="#c0c0c0" stroke="#c0c0c0" stroke-width="2" points="501.9713,-262.4465 499.7388,-252.0896 495.0254,-261.5782 501.9713,-262.4465"/>
</g>
<!-- 36 -->
<g id="node37" class="node">
<title>36</title>
<path fill="none" stroke="#56d8d0" stroke-width="2" d="M491,-612C491,-612 369,-612 369,-612 363,-612 357,-606 357,-600 357,-600 357,-588 357,-588 357,-582 363,-576 369,-576 369,-576 491,-576 491,-576 497,-576 503,-582 503,-588 503,-588 503,-600 503,-600 503,-606 497,-612 491,-612"/>
<text text-anchor="middle" x="430" y="-591.5" font-family="sans" font-size="10.00" fill="#000000">cnv_sv_cnvkit_batch_local</text>
</g>
<!-- 36&#45;&gt;35 -->
<g id="edge62" class="edge">
<title>36&#45;&gt;35</title>
<path fill="none" stroke="#c0c0c0" stroke-width="2" d="M434.5111,-575.9555C443.9214,-538.3144 465.7033,-451.1867 476.9689,-406.1246"/>
<polygon fill="#c0c0c0" stroke="#c0c0c0" stroke-width="2" points="480.4338,-406.6954 479.4637,-396.1451 473.6428,-404.9976 480.4338,-406.6954"/>
</g>
<!-- 47 -->
<g id="node48" class="node">
<title>47</title>
<path fill="none" stroke="#d88556" stroke-width="2" d="M607,-540C607,-540 491,-540 491,-540 485,-540 479,-534 479,-528 479,-528 479,-516 479,-516 479,-510 485,-504 491,-504 491,-504 607,-504 607,-504 613,-504 619,-510 619,-516 619,-516 619,-528 619,-528 619,-534 613,-540 607,-540"/>
<text text-anchor="middle" x="549" y="-519.5" font-family="sans" font-size="10.00" fill="#000000">cnvkit_call_new_wrapper</text>
</g>
<!-- 36&#45;&gt;47 -->
<g id="edge79" class="edge">
<title>36&#45;&gt;47</title>
<path fill="none" stroke="#c0c0c0" stroke-width="2" d="M460.0287,-575.8314C475.2496,-566.6221 493.9128,-555.3301 510.2083,-545.4706"/>
<polygon fill="#c0c0c0" stroke="#c0c0c0" stroke-width="2" points="512.2369,-548.3341 518.9809,-540.1628 508.6132,-542.345 512.2369,-548.3341"/>
</g>
<!-- 53 -->
<g id="node54" class="node">
<title>53</title>
<path fill="none" stroke="#56d873" stroke-width="2" d="M365.5,-324C365.5,-324 288.5,-324 288.5,-324 282.5,-324 276.5,-318 276.5,-312 276.5,-312 276.5,-300 276.5,-300 276.5,-294 282.5,-288 288.5,-288 288.5,-288 365.5,-288 365.5,-288 371.5,-288 377.5,-294 377.5,-300 377.5,-300 377.5,-312 377.5,-312 377.5,-318 371.5,-324 365.5,-324"/>
<text text-anchor="middle" x="327" y="-303.5" font-family="sans" font-size="10.00" fill="#000000">_copy_cnvkit_cnr</text>
</g>
<!-- 36&#45;&gt;53 -->
<g id="edge86" class="edge">
<title>36&#45;&gt;53</title>
<path fill="none" stroke="#c0c0c0" stroke-width="2" d="M414.9602,-575.9827C407.1869,-565.9193 398.0814,-552.8483 392,-540 358.6847,-469.6137 339.608,-378.9914 331.5654,-333.9683"/>
<polygon fill="#c0c0c0" stroke="#c0c0c0" stroke-width="2" points="335.0029,-333.306 329.8422,-324.053 328.1062,-334.5047 335.0029,-333.306"/>
</g>
<!-- 54 -->
<g id="node55" class="node">
<title>54</title>
<path fill="none" stroke="#d8cb56" stroke-width="2" d="M445,-108C445,-108 367,-108 367,-108 361,-108 355,-102 355,-96 355,-96 355,-84 355,-84 355,-78 361,-72 367,-72 367,-72 445,-72 445,-72 451,-72 457,-78 457,-84 457,-84 457,-96 457,-96 457,-102 451,-108 445,-108"/>
<text text-anchor="middle" x="406" y="-87.5" font-family="sans" font-size="10.00" fill="#000000">_copy_cnvkit_cns</text>
</g>
<!-- 36&#45;&gt;54 -->
<g id="edge87" class="edge">
<title>36&#45;&gt;54</title>
<path fill="none" stroke="#c0c0c0" stroke-width="2" d="M425.0272,-575.9753C417.9974,-548.864 406,-495.8742 406,-450 406,-450 406,-450 406,-234 406,-193.876 406,-147.4631 406,-118.4177"/>
<polygon fill="#c0c0c0" stroke="#c0c0c0" stroke-width="2" points="409.5001,-118.1853 406,-108.1854 402.5001,-118.1854 409.5001,-118.1853"/>
</g>
<!-- 37&#45;&gt;36 -->
<g id="edge63" class="edge">
<title>37&#45;&gt;36</title>
<path fill="none" stroke="#c0c0c0" stroke-width="2" d="M516,-1079.8146C516,-1052.4983 516,-999.25 516,-954 516,-954 516,-954 516,-738 516,-697.1184 518.3767,-682.8475 497,-648 489.9034,-636.4315 479.4065,-626.2734 468.8161,-617.9815"/>
<polygon fill="#c0c0c0" stroke="#c0c0c0" stroke-width="2" points="470.8736,-615.15 460.7541,-612.012 466.708,-620.7757 470.8736,-615.15"/>
</g>
<!-- 38 -->
<g id="node39" class="node">
<title>38</title>
<path fill="none" stroke="#5682d8" stroke-width="2" d="M476,-684C476,-684 258,-684 258,-684 252,-684 246,-678 246,-672 246,-672 246,-660 246,-660 246,-654 252,-648 258,-648 258,-648 476,-648 476,-648 482,-648 488,-654 488,-660 488,-660 488,-672 488,-672 488,-678 482,-684 476,-684"/>
<text text-anchor="middle" x="367" y="-663.5" font-family="sans" font-size="10.00" fill="#000000">alignment_samtools_index_haplotagged_bam</text>
</g>
<!-- 37&#45;&gt;38 -->
<g id="edge69" class="edge">
<title>37&#45;&gt;38</title>
<path fill="none" stroke="#c0c0c0" stroke-width="2" d="M503.1979,-1079.8796C485.8455,-1053.4944 457,-1002.3605 457,-954 457,-954 457,-954 457,-810 457,-762.5721 421.4582,-717.8864 395.0448,-691.2261"/>
<polygon fill="#c0c0c0" stroke="#c0c0c0" stroke-width="2" points="397.4654,-688.6978 387.874,-684.1972 392.5654,-693.6968 397.4654,-688.6978"/>
</g>
<!-- 48 -->
<g id="node49" class="node">
<title>48</title>
<path fill="none" stroke="#569ad8" stroke-width="2" d="M375.5,-1044C375.5,-1044 282.5,-1044 282.5,-1044 276.5,-1044 270.5,-1038 270.5,-1032 270.5,-1032 270.5,-1020 270.5,-1020 270.5,-1014 276.5,-1008 282.5,-1008 282.5,-1008 375.5,-1008 375.5,-1008 381.5,-1008 387.5,-1014 387.5,-1020 387.5,-1020 387.5,-1032 387.5,-1032 387.5,-1038 381.5,-1044 375.5,-1044"/>
<text text-anchor="middle" x="329" y="-1023.5" font-family="sans" font-size="10.00" fill="#000000">_copy_mapped_bam</text>
</g>
<!-- 37&#45;&gt;48 -->
<g id="edge81" class="edge">
<title>37&#45;&gt;48</title>
<path fill="none" stroke="#c0c0c0" stroke-width="2" d="M468.812,-1079.8314C443.4684,-1070.0734 412.0515,-1057.977 385.4226,-1047.7242"/>
<polygon fill="#c0c0c0" stroke="#c0c0c0" stroke-width="2" points="386.4385,-1044.3649 375.8487,-1044.038 383.9232,-1050.8974 386.4385,-1044.3649"/>
</g>
<!-- 38&#45;&gt;36 -->
<g id="edge64" class="edge">
<title>38&#45;&gt;36</title>
<path fill="none" stroke="#c0c0c0" stroke-width="2" d="M382.8976,-647.8314C390.2278,-639.454 399.066,-629.3531 407.0969,-620.1749"/>
<polygon fill="#c0c0c0" stroke="#c0c0c0" stroke-width="2" points="409.9373,-622.2438 413.8884,-612.4133 404.6693,-617.6343 409.9373,-622.2438"/>
</g>
<!-- 49 -->
<g id="node50" class="node">
<title>49</title>
<path fill="none" stroke="#56d8b9" stroke-width="2" d="M327.5,-540C327.5,-540 202.5,-540 202.5,-540 196.5,-540 190.5,-534 190.5,-528 190.5,-528 190.5,-516 190.5,-516 190.5,-510 196.5,-504 202.5,-504 202.5,-504 327.5,-504 327.5,-504 333.5,-504 339.5,-510 339.5,-516 339.5,-516 339.5,-528 339.5,-528 339.5,-534 333.5,-540 327.5,-540"/>
<text text-anchor="middle" x="265" y="-519.5" font-family="sans" font-size="10.00" fill="#000000">_copy_mapped_bam_index</text>
</g>
<!-- 38&#45;&gt;49 -->
<g id="edge82" class="edge">
<title>38&#45;&gt;49</title>
<path fill="none" stroke="#c0c0c0" stroke-width="2" d="M354.0816,-647.7623C336.3009,-622.66 304.172,-577.3017 283.7475,-548.4671"/>
<polygon fill="#c0c0c0" stroke="#c0c0c0" stroke-width="2" points="286.4498,-546.2268 277.8135,-540.0896 280.7376,-550.273 286.4498,-546.2268"/>
</g>
<!-- 39 -->
<g id="node40" class="node">
<title>39</title>
<path fill="none" stroke="#56d86b" stroke-width="2" d="M662,-468C662,-468 632,-468 632,-468 626,-468 620,-462 620,-456 620,-456 620,-444 620,-444 620,-438 626,-432 632,-432 632,-432 662,-432 662,-432 668,-432 674,-438 674,-444 674,-444 674,-456 674,-456 674,-462 668,-468 662,-468"/>
<text text-anchor="middle" x="647" y="-447.5" font-family="sans" font-size="10.00" fill="#000000">fix_af</text>
</g>
<!-- 39&#45;&gt;34 -->
<g id="edge61" class="edge">
<title>39&#45;&gt;34</title>
<path fill="none" stroke="#c0c0c0" stroke-width="2" d="M619.9178,-432.0273C606.962,-422.4556 591.932,-409.8158 581,-396 547.9193,-354.1929 523.8796,-296.2792 511.4992,-262.2152"/>
<polygon fill="#c0c0c0" stroke="#c0c0c0" stroke-width="2" points="514.6777,-260.7066 508.0342,-252.4535 508.081,-263.0482 514.6777,-260.7066"/>
</g>
<!-- 40 -->
<g id="node41" class="node">
<title>40</title>
<path fill="none" stroke="#61d856" stroke-width="2" d="M729.5,-612C729.5,-612 564.5,-612 564.5,-612 558.5,-612 552.5,-606 552.5,-600 552.5,-600 552.5,-588 552.5,-588 552.5,-582 558.5,-576 564.5,-576 564.5,-576 729.5,-576 729.5,-576 735.5,-576 741.5,-582 741.5,-588 741.5,-588 741.5,-600 741.5,-600 741.5,-606 735.5,-612 729.5,-612"/>
<text text-anchor="middle" x="647" y="-591.5" font-family="sans" font-size="10.00" fill="#000000">filtering_bcftools_view_nonsomatic</text>
</g>
<!-- 40&#45;&gt;39 -->
<g id="edge70" class="edge">
<title>40&#45;&gt;39</title>
<path fill="none" stroke="#c0c0c0" stroke-width="2" d="M647,-575.7623C647,-551.201 647,-507.2474 647,-478.3541"/>
<polygon fill="#c0c0c0" stroke="#c0c0c0" stroke-width="2" points="650.5001,-478.0896 647,-468.0896 643.5001,-478.0897 650.5001,-478.0896"/>
</g>
<!-- 40&#45;&gt;47 -->
<g id="edge80" class="edge">
<title>40&#45;&gt;47</title>
<path fill="none" stroke="#c0c0c0" stroke-width="2" d="M622.2705,-575.8314C610.0838,-566.8779 595.2177,-555.9558 582.0688,-546.2955"/>
<polygon fill="#c0c0c0" stroke="#c0c0c0" stroke-width="2" points="583.8527,-543.263 573.7216,-540.1628 579.7082,-548.9042 583.8527,-543.263"/>
</g>
<!-- 41 -->
<g id="node42" class="node">
<title>41</title>
<path fill="none" stroke="#56d8a2" stroke-width="2" d="M699,-684C699,-684 597,-684 597,-684 591,-684 585,-678 585,-672 585,-672 585,-660 585,-660 585,-654 591,-648 597,-648 597,-648 699,-648 699,-648 705,-648 711,-654 711,-660 711,-660 711,-672 711,-672 711,-678 705,-684 699,-684"/>
<text text-anchor="middle" x="648" y="-663.5" font-family="sans" font-size="10.00" fill="#000000">bgzip_filtered_vep_vcf</text>
</g>
<!-- 41&#45;&gt;40 -->
<g id="edge71" class="edge">
<title>41&#45;&gt;40</title>
<path fill="none" stroke="#c0c0c0" stroke-width="2" d="M647.7477,-647.8314C647.6407,-640.131 647.5135,-630.9743 647.3947,-622.4166"/>
<polygon fill="#c0c0c0" stroke="#c0c0c0" stroke-width="2" points="650.8944,-622.3637 647.2557,-612.4133 643.8951,-622.4609 650.8944,-622.3637"/>
</g>
<!-- 42&#45;&gt;41 -->
<g id="edge72" class="edge">
<title>42&#45;&gt;41</title>
<path fill="none" stroke="#c0c0c0" stroke-width="2" d="M649.4953,-719.8314C649.2814,-712.131 649.0271,-702.9743 648.7894,-694.4166"/>
<polygon fill="#c0c0c0" stroke="#c0c0c0" stroke-width="2" points="652.2879,-694.3122 648.5115,-684.4133 645.2906,-694.5066 652.2879,-694.3122"/>
</g>
<!-- 43&#45;&gt;42 -->
<g id="edge73" class="edge">
<title>43&#45;&gt;42</title>
<path fill="none" stroke="#c0c0c0" stroke-width="2" d="M703.0837,-791.8314C694.6558,-783.2848 684.459,-772.9443 675.264,-763.6198"/>
<polygon fill="#c0c0c0" stroke="#c0c0c0" stroke-width="2" points="677.6711,-761.0761 668.1575,-756.4133 672.6869,-765.9912 677.6711,-761.0761"/>
</g>
<!-- 44 -->
<g id="node45" class="node">
<title>44</title>
<path fill="none" stroke="#567bd8" stroke-width="2" d="M712.5,-324C712.5,-324 599.5,-324 599.5,-324 593.5,-324 587.5,-318 587.5,-312 587.5,-312 587.5,-300 587.5,-300 587.5,-294 593.5,-288 599.5,-288 599.5,-288 712.5,-288 712.5,-288 718.5,-288 724.5,-294 724.5,-300 724.5,-300 724.5,-312 724.5,-312 724.5,-318 718.5,-324 712.5,-324"/>
<text text-anchor="middle" x="656" y="-303.5" font-family="sans" font-size="10.00" fill="#000000">cnv_sv_bgzip_cnvkit_vcf</text>
</g>
<!-- 44&#45;&gt;34 -->
<g id="edge60" class="edge">
<title>44&#45;&gt;34</title>
<path fill="none" stroke="#c0c0c0" stroke-width="2" d="M617.1393,-287.8314C596.7258,-278.2874 571.5277,-266.5065 549.914,-256.4013"/>
<polygon fill="#c0c0c0" stroke="#c0c0c0" stroke-width="2" points="551.1225,-253.1027 540.5813,-252.038 548.1577,-259.4439 551.1225,-253.1027"/>
</g>
<!-- 52 -->
<g id="node53" class="node">
<title>52</title>
<path fill="none" stroke="#d88d56" stroke-width="2" d="M712,-252C712,-252 600,-252 600,-252 594,-252 588,-246 588,-240 588,-240 588,-228 588,-228 588,-222 594,-216 600,-216 600,-216 712,-216 712,-216 718,-216 724,-222 724,-228 724,-228 724,-240 724,-240 724,-246 718,-252 712,-252"/>
<text text-anchor="middle" x="656" y="-231.5" font-family="sans" font-size="10.00" fill="#000000">cnv_sv_tabix_cnvkit_vcf</text>
</g>
<!-- 44&#45;&gt;52 -->
<g id="edge85" class="edge">
<title>44&#45;&gt;52</title>
<path fill="none" stroke="#c0c0c0" stroke-width="2" d="M656,-287.8314C656,-280.131 656,-270.9743 656,-262.4166"/>
<polygon fill="#c0c0c0" stroke="#c0c0c0" stroke-width="2" points="659.5001,-262.4132 656,-252.4133 652.5001,-262.4133 659.5001,-262.4132"/>
</g>
<!-- 45 -->
<g id="node46" class="node">
<title>45</title>
<path fill="none" stroke="#d8d356" stroke-width="2" d="M751.5,-396C751.5,-396 602.5,-396 602.5,-396 596.5,-396 590.5,-390 590.5,-384 590.5,-384 590.5,-372 590.5,-372 590.5,-366 596.5,-360 602.5,-360 602.5,-360 751.5,-360 751.5,-360 757.5,-360 763.5,-366 763.5,-372 763.5,-372 763.5,-384 763.5,-384 763.5,-390 757.5,-396 751.5,-396"/>
<text text-anchor="middle" x="677" y="-375.5" font-family="sans" font-size="10.00" fill="#000000">annotation_annotate_cnvkit_vcf</text>
</g>
<!-- 45&#45;&gt;44 -->
<g id="edge76" class="edge">
<title>45&#45;&gt;44</title>
<path fill="none" stroke="#c0c0c0" stroke-width="2" d="M671.7008,-359.8314C669.4302,-352.0463 666.7254,-342.7729 664.206,-334.1347"/>
<polygon fill="#c0c0c0" stroke="#c0c0c0" stroke-width="2" points="667.5306,-333.0332 661.3705,-324.4133 660.8106,-334.9933 667.5306,-333.0332"/>
</g>
<!-- 50 -->
<g id="node51" class="node">
<title>50</title>
<path fill="none" stroke="#d85656" stroke-width="2" d="M769.5,-180C769.5,-180 638.5,-180 638.5,-180 632.5,-180 626.5,-174 626.5,-168 626.5,-168 626.5,-156 626.5,-156 626.5,-150 632.5,-144 638.5,-144 638.5,-144 769.5,-144 769.5,-144 775.5,-144 781.5,-150 781.5,-156 781.5,-156 781.5,-168 781.5,-168 781.5,-174 775.5,-180 769.5,-180"/>
<text text-anchor="middle" x="704" y="-159.5" font-family="sans" font-size="10.00" fill="#000000">_copy_annotated_cnvkit_vcf</text>
</g>
<!-- 45&#45;&gt;50 -->
<g id="edge83" class="edge">
<title>45&#45;&gt;50</title>
<path fill="none" stroke="#c0c0c0" stroke-width="2" d="M703.7231,-359.9104C715.0085,-350.6439 726.926,-338.295 733,-324 751.7711,-279.8226 744.7087,-262.55 733,-216 730.6614,-206.7024 726.377,-197.2609 721.8062,-188.9283"/>
<polygon fill="#c0c0c0" stroke="#c0c0c0" stroke-width="2" points="724.6857,-186.9192 716.6122,-180.0585 718.6451,-190.4564 724.6857,-186.9192"/>
</g>
<!-- 45&#45;&gt;56 -->
<g id="edge90" class="edge">
<title>45&#45;&gt;56</title>
<path fill="none" stroke="#c0c0c0" stroke-width="2" d="M722.9263,-359.8314C747.5923,-350.0734 778.1691,-337.977 804.086,-327.7242"/>
<polygon fill="#c0c0c0" stroke="#c0c0c0" stroke-width="2" points="805.3927,-330.9713 813.404,-324.038 802.8176,-324.4621 805.3927,-330.9713"/>
</g>
<!-- 46 -->
<g id="node47" class="node">
<title>46</title>
<path fill="none" stroke="#56b9d8" stroke-width="2" d="M590,-468C590,-468 508,-468 508,-468 502,-468 496,-462 496,-456 496,-456 496,-444 496,-444 496,-438 502,-432 508,-432 508,-432 590,-432 590,-432 596,-432 602,-438 602,-444 602,-444 602,-456 602,-456 602,-462 596,-468 590,-468"/>
<text text-anchor="middle" x="549" y="-447.5" font-family="sans" font-size="10.00" fill="#000000">cnv_sv_cnvkit_vcf</text>
</g>
<!-- 46&#45;&gt;45 -->
<g id="edge77" class="edge">
<title>46&#45;&gt;45</title>
<path fill="none" stroke="#c0c0c0" stroke-width="2" d="M581.2998,-431.8314C597.8234,-422.5368 618.1186,-411.1208 635.7607,-401.1971"/>
<polygon fill="#c0c0c0" stroke="#c0c0c0" stroke-width="2" points="637.7107,-404.116 644.7105,-396.1628 634.2788,-398.015 637.7107,-404.116"/>
</g>
<!-- 47&#45;&gt;46 -->
<g id="edge78" class="edge">
<title>47&#45;&gt;46</title>
<path fill="none" stroke="#c0c0c0" stroke-width="2" d="M549,-503.8314C549,-496.131 549,-486.9743 549,-478.4166"/>
<polygon fill="#c0c0c0" stroke="#c0c0c0" stroke-width="2" points="552.5001,-478.4132 549,-468.4133 545.5001,-478.4133 552.5001,-478.4132"/>
</g>
<!-- 48&#45;&gt;0 -->
<g id="edge8" class="edge">
<title>48&#45;&gt;0</title>
<path fill="none" stroke="#c0c0c0" stroke-width="2" d="M279.7977,-1007.9C230.5369,-986.2239 162,-944.7843 162,-882 162,-882 162,-882 162,-162 162,-101.5425 208.7188,-96.4764 264,-72 344.4203,-36.393 613.0334,-23.0501 712.5195,-19.257"/>
<polygon fill="#c0c0c0" stroke="#c0c0c0" stroke-width="2" points="712.84,-22.7476 722.7036,-18.8798 712.5808,-15.7524 712.84,-22.7476"/>
</g>
<!-- 49&#45;&gt;0 -->
<g id="edge13" class="edge">
<title>49&#45;&gt;0</title>
<path fill="none" stroke="#c0c0c0" stroke-width="2" d="M261.4776,-503.8955C256.4982,-476.6824 248,-423.5642 248,-378 248,-378 248,-378 248,-162 248,-110.775 275.306,-97.0288 320,-72 387.014,-34.4719 620.6368,-22.4565 712.4953,-19.1294"/>
<polygon fill="#c0c0c0" stroke="#c0c0c0" stroke-width="2" points="712.8482,-22.6193 722.7206,-18.774 712.605,-15.6235 712.8482,-22.6193"/>
</g>
<!-- 50&#45;&gt;0 -->
<g id="edge2" class="edge">
<title>50&#45;&gt;0</title>
<path fill="none" stroke="#c0c0c0" stroke-width="2" d="M742.1883,-143.8328C756.0975,-135.0933 770.29,-123.1707 778,-108 788.211,-87.908 779.3301,-63.3845 768.9448,-45.0136"/>
<polygon fill="#c0c0c0" stroke="#c0c0c0" stroke-width="2" points="771.8217,-43.008 763.6371,-36.2802 765.8398,-46.6435 771.8217,-43.008"/>
</g>
<!-- 51 -->
<g id="node52" class="node">
<title>51</title>
<path fill="none" stroke="#d89c56" stroke-width="2" d="M757.5,-108C757.5,-108 648.5,-108 648.5,-108 642.5,-108 636.5,-102 636.5,-96 636.5,-96 636.5,-84 636.5,-84 636.5,-78 642.5,-72 648.5,-72 648.5,-72 757.5,-72 757.5,-72 763.5,-72 769.5,-78 769.5,-84 769.5,-84 769.5,-96 769.5,-96 769.5,-102 763.5,-108 757.5,-108"/>
<text text-anchor="middle" x="703" y="-87.5" font-family="sans" font-size="10.00" fill="#000000">_copy_index_cnvkit_vcf</text>
</g>
<!-- 51&#45;&gt;0 -->
<g id="edge9" class="edge">
<title>51&#45;&gt;0</title>
<path fill="none" stroke="#c0c0c0" stroke-width="2" d="M714.8601,-71.8314C720.1629,-63.7079 726.5237,-53.9637 732.3673,-45.0118"/>
<polygon fill="#c0c0c0" stroke="#c0c0c0" stroke-width="2" points="735.4448,-46.7003 737.9802,-36.4133 729.5831,-42.8739 735.4448,-46.7003"/>
</g>
<!-- 52&#45;&gt;51 -->
<g id="edge84" class="edge">
<title>52&#45;&gt;51</title>
<path fill="none" stroke="#c0c0c0" stroke-width="2" d="M638.3935,-215.9293C622.5798,-197.4048 603.7343,-167.9936 617,-144 624.0695,-131.2134 635.5747,-121.0464 647.9027,-113.1429"/>
<polygon fill="#c0c0c0" stroke="#c0c0c0" stroke-width="2" points="649.7096,-116.1406 656.5246,-108.0285 646.1383,-110.1201 649.7096,-116.1406"/>
</g>
<!-- 53&#45;&gt;0 -->
<g id="edge5" class="edge">
<title>53&#45;&gt;0</title>
<path fill="none" stroke="#c0c0c0" stroke-width="2" d="M321.7804,-287.7794C310.4638,-243.9842 289.0303,-132.0033 346,-72 371.0954,-45.5682 617.4642,-26.7054 712.6944,-20.3482"/>
<polygon fill="#c0c0c0" stroke="#c0c0c0" stroke-width="2" points="712.999,-23.8358 722.7474,-19.6862 712.539,-16.8509 712.999,-23.8358"/>
</g>
<!-- 54&#45;&gt;0 -->
<g id="edge14" class="edge">
<title>54&#45;&gt;0</title>
<path fill="none" stroke="#c0c0c0" stroke-width="2" d="M457.2912,-74.2318C460.2295,-73.4473 463.1476,-72.6971 466,-72 553.7115,-50.5655 658.4011,-32.5887 712.8884,-23.7955"/>
<polygon fill="#c0c0c0" stroke="#c0c0c0" stroke-width="2" points="713.4591,-27.2488 722.7798,-22.2114 712.3521,-20.3369 713.4591,-27.2488"/>
</g>
<!-- 55 -->
<g id="node56" class="node">
<title>55</title>
<path fill="none" stroke="#80d856" stroke-width="2" d="M956.5,-180C956.5,-180 811.5,-180 811.5,-180 805.5,-180 799.5,-174 799.5,-168 799.5,-168 799.5,-156 799.5,-156 799.5,-150 805.5,-144 811.5,-144 811.5,-144 956.5,-144 956.5,-144 962.5,-144 968.5,-150 968.5,-156 968.5,-156 968.5,-168 968.5,-168 968.5,-174 962.5,-180 956.5,-180"/>
<text text-anchor="middle" x="884" y="-159.5" font-family="sans" font-size="10.00" fill="#000000">_copy_combined_variants_xlsx</text>
</g>
<!-- 55&#45;&gt;0 -->
<g id="edge12" class="edge">
<title>55&#45;&gt;0</title>
<path fill="none" stroke="#c0c0c0" stroke-width="2" d="M867.0288,-143.7623C843.4684,-118.4436 800.7322,-72.5182 773.9386,-43.7251"/>
<polygon fill="#c0c0c0" stroke="#c0c0c0" stroke-width="2" points="776.208,-41.026 766.8334,-36.0896 771.0835,-45.7946 776.208,-41.026"/>
</g>
<!-- 56&#45;&gt;55 -->
<g id="edge88" class="edge">
<title>56&#45;&gt;55</title>
<path fill="none" stroke="#c0c0c0" stroke-width="2" d="M862.1663,-287.7623C866.4492,-263.0928 874.1285,-218.8598 879.1436,-189.9731"/>
<polygon fill="#c0c0c0" stroke="#c0c0c0" stroke-width="2" points="882.5973,-190.541 880.8594,-180.0896 875.7004,-189.3435 882.5973,-190.541"/>
</g>
</g>
</svg>
