<?xml version="1.0" encoding="UTF-8" standalone="no"?>
<!DOCTYPE svg PUBLIC "-//W3C//DTD SVG 1.1//EN"
 "http://www.w3.org/Graphics/SVG/1.1/DTD/svg11.dtd">
<!-- Generated by graphviz version 12.2.1 (20241206.2353)
 -->
<!-- Title: snakemake_dag Pages: 1 -->
<svg width="838pt" height="1086pt"
 viewBox="0.00 0.00 837.88 1086.00" xmlns="http://www.w3.org/2000/svg" xmlns:xlink="http://www.w3.org/1999/xlink">
<g id="graph0" class="graph" transform="scale(1 1) rotate(0) translate(4 1082)">
<title>snakemake_dag</title>
<polygon fill="white" stroke="none" points="-4,4 -4,-1082 833.88,-1082 833.88,4 -4,4"/>
<!-- 0 -->
<g id="node1" class="node">
<title>0</title>
<path fill="none" stroke="#56c1d8" stroke-width="2" d="M452.38,-36C452.38,-36 422.38,-36 422.38,-36 416.38,-36 410.38,-30 410.38,-24 410.38,-24 410.38,-12 410.38,-12 410.38,-6 416.38,0 422.38,0 422.38,0 452.38,0 452.38,0 458.38,0 464.38,-6 464.38,-12 464.38,-12 464.38,-24 464.38,-24 464.38,-30 458.38,-36 452.38,-36"/>
<text text-anchor="middle" x="437.38" y="-14.12" font-family="sans" font-size="10.00">all</text>
</g>
<!-- 1 -->
<g id="node2" class="node">
<title>1</title>
<path fill="none" stroke="#56d8c1" stroke-width="2" d="M96.12,-108C96.12,-108 12.62,-108 12.62,-108 6.63,-108 0.62,-102 0.62,-96 0.62,-96 0.62,-84 0.62,-84 0.62,-78 6.62,-72 12.62,-72 12.62,-72 96.12,-72 96.12,-72 102.12,-72 108.12,-78 108.12,-84 108.12,-84 108.12,-96 108.12,-96 108.12,-102 102.12,-108 96.12,-108"/>
<text text-anchor="middle" x="54.38" y="-91.75" font-family="sans" font-size="10.00">_copy_indel_vcf</text>
<text text-anchor="middle" x="54.38" y="-80.5" font-family="sans" font-size="10.00">sample: 2022.MM.16</text>
</g>
<!-- 1&#45;&gt;0 -->
<g id="edge1" class="edge">
<title>1&#45;&gt;0</title>
<path fill="none" stroke="grey" stroke-width="2" d="M108.84,-79.05C186.64,-64.83 327.82,-39.02 396.98,-26.38"/>
<polygon fill="grey" stroke="grey" stroke-width="2" points="397.24,-29.89 406.45,-24.65 395.98,-23.01 397.24,-29.89"/>
</g>
<!-- 2 -->
<g id="node3" class="node">
<title>2</title>
<path fill="none" stroke="#bed856" stroke-width="2" d="M166.75,-545.75C166.75,-545.75 12,-545.75 12,-545.75 6,-545.75 0,-539.75 0,-533.75 0,-533.75 0,-521.75 0,-521.75 0,-515.75 6,-509.75 12,-509.75 12,-509.75 166.75,-509.75 166.75,-509.75 172.75,-509.75 178.75,-515.75 178.75,-521.75 178.75,-521.75 178.75,-533.75 178.75,-533.75 178.75,-539.75 172.75,-545.75 166.75,-545.75"/>
<text text-anchor="middle" x="89.38" y="-529.5" font-family="sans" font-size="10.00">filtering_bcftools_filter_include_region</text>
<text text-anchor="middle" x="89.38" y="-518.25" font-family="sans" font-size="10.00">tag: panel</text>
</g>
<!-- 2&#45;&gt;1 -->
<g id="edge9" class="edge">
<title>2&#45;&gt;1</title>
<path fill="none" stroke="grey" stroke-width="2" d="M73.62,-508.9C52.7,-483.3 18.38,-433.81 18.38,-384.75 18.38,-384.75 18.38,-384.75 18.38,-233 18.38,-193.08 31.91,-148.73 42.38,-120.39"/>
<polygon fill="grey" stroke="grey" stroke-width="2" points="45.52,-121.99 45.83,-111.4 38.98,-119.48 45.52,-121.99"/>
</g>
<!-- 3 -->
<g id="node4" class="node">
<title>3</title>
<path fill="none" stroke="#88d856" stroke-width="2" d="M304.25,-689.75C304.25,-689.75 188.5,-689.75 188.5,-689.75 182.5,-689.75 176.5,-683.75 176.5,-677.75 176.5,-677.75 176.5,-665.75 176.5,-665.75 176.5,-659.75 182.5,-653.75 188.5,-653.75 188.5,-653.75 304.25,-653.75 304.25,-653.75 310.25,-653.75 316.25,-659.75 316.25,-665.75 316.25,-665.75 316.25,-677.75 316.25,-677.75 316.25,-683.75 310.25,-689.75 304.25,-689.75"/>
<text text-anchor="middle" x="246.38" y="-667.88" font-family="sans" font-size="10.00">annotation_whatshap_phase</text>
</g>
<!-- 3&#45;&gt;2 -->
<g id="edge10" class="edge">
<title>3&#45;&gt;2</title>
<path fill="none" stroke="grey" stroke-width="2" d="M175.82,-658.12C151.24,-650.35 125.55,-637.84 108.38,-617.75 94.73,-601.78 90.13,-578.4 88.87,-559.61"/>
<polygon fill="grey" stroke="grey" stroke-width="2" points="92.36,-559.53 88.55,-549.65 85.37,-559.76 92.36,-559.53"/>
</g>
<!-- 10 -->
<g id="node11" class="node">
<title>10</title>
<path fill="none" stroke="#56d0d8" stroke-width="2" d="M363.12,-617.75C363.12,-617.75 129.62,-617.75 129.62,-617.75 123.62,-617.75 117.62,-611.75 117.62,-605.75 117.62,-605.75 117.62,-593.75 117.62,-593.75 117.62,-587.75 123.62,-581.75 129.62,-581.75 129.62,-581.75 363.12,-581.75 363.12,-581.75 369.12,-581.75 375.12,-587.75 375.12,-593.75 375.12,-593.75 375.12,-605.75 375.12,-605.75 375.12,-611.75 369.12,-617.75 363.12,-617.75"/>
<text text-anchor="middle" x="246.38" y="-601.5" font-family="sans" font-size="10.00">cnv_sv_tabix</text>
<text text-anchor="middle" x="246.38" y="-590.25" font-family="sans" font-size="10.00">file: annotation/whatshap_phase/2022.MM.16_T.phased</text>
</g>
<!-- 3&#45;&gt;10 -->
<g id="edge21" class="edge">
<title>3&#45;&gt;10</title>
<path fill="none" stroke="grey" stroke-width="2" d="M246.38,-653.09C246.38,-646.5 246.38,-638.83 246.38,-631.42"/>
<polygon fill="grey" stroke="grey" stroke-width="2" points="249.88,-631.68 246.38,-621.68 242.88,-631.68 249.88,-631.68"/>
</g>
<!-- 15 -->
<g id="node16" class="node">
<title>15</title>
<path fill="none" stroke="#56d86b" stroke-width="2" d="M504.5,-545.75C504.5,-545.75 378.25,-545.75 378.25,-545.75 372.25,-545.75 366.25,-539.75 366.25,-533.75 366.25,-533.75 366.25,-521.75 366.25,-521.75 366.25,-515.75 372.25,-509.75 378.25,-509.75 378.25,-509.75 504.5,-509.75 504.5,-509.75 510.5,-509.75 516.5,-515.75 516.5,-521.75 516.5,-521.75 516.5,-533.75 516.5,-533.75 516.5,-539.75 510.5,-545.75 504.5,-545.75"/>
<text text-anchor="middle" x="441.38" y="-523.88" font-family="sans" font-size="10.00">annotation_whatshap_haplotag</text>
</g>
<!-- 3&#45;&gt;15 -->
<g id="edge30" class="edge">
<title>3&#45;&gt;15</title>
<path fill="none" stroke="grey" stroke-width="2" d="M316.91,-653.26C340.09,-645.13 364.88,-633.64 384.38,-617.75 403.86,-601.87 418.81,-577.5 428.5,-558.27"/>
<polygon fill="grey" stroke="grey" stroke-width="2" points="431.66,-559.79 432.81,-549.25 425.34,-556.77 431.66,-559.79"/>
</g>
<!-- 4 -->
<g id="node5" class="node">
<title>4</title>
<path fill="none" stroke="#9fd856" stroke-width="2" d="M440.25,-833.75C440.25,-833.75 258.5,-833.75 258.5,-833.75 252.5,-833.75 246.5,-827.75 246.5,-821.75 246.5,-821.75 246.5,-809.75 246.5,-809.75 246.5,-803.75 252.5,-797.75 258.5,-797.75 258.5,-797.75 440.25,-797.75 440.25,-797.75 446.25,-797.75 452.25,-803.75 452.25,-809.75 452.25,-809.75 452.25,-821.75 452.25,-821.75 452.25,-827.75 446.25,-833.75 440.25,-833.75"/>
<text text-anchor="middle" x="349.38" y="-817.5" font-family="sans" font-size="10.00">alignment_samtools_index_pbmm2</text>
<text text-anchor="middle" x="349.38" y="-806.25" font-family="sans" font-size="10.00">file: alignment/pbmm2_align/2022.MM.16_T</text>
</g>
<!-- 4&#45;&gt;3 -->
<g id="edge12" class="edge">
<title>4&#45;&gt;3</title>
<path fill="none" stroke="grey" stroke-width="2" d="M350.04,-796.76C349.88,-777.54 347.02,-746.99 332.38,-725.75 324.45,-714.25 313.13,-704.78 301.3,-697.19"/>
<polygon fill="grey" stroke="grey" stroke-width="2" points="303.37,-694.34 292.98,-692.27 299.82,-700.37 303.37,-694.34"/>
</g>
<!-- 9 -->
<g id="node10" class="node">
<title>9</title>
<path fill="none" stroke="#59d856" stroke-width="2" d="M311.75,-761.75C311.75,-761.75 181,-761.75 181,-761.75 175,-761.75 169,-755.75 169,-749.75 169,-749.75 169,-737.75 169,-737.75 169,-731.75 175,-725.75 181,-725.75 181,-725.75 311.75,-725.75 311.75,-725.75 317.75,-725.75 323.75,-731.75 323.75,-737.75 323.75,-737.75 323.75,-749.75 323.75,-749.75 323.75,-755.75 317.75,-761.75 311.75,-761.75"/>
<text text-anchor="middle" x="246.38" y="-739.88" font-family="sans" font-size="10.00">snv_indels_deepsomatic_t_only</text>
</g>
<!-- 4&#45;&gt;9 -->
<g id="edge20" class="edge">
<title>4&#45;&gt;9</title>
<path fill="none" stroke="grey" stroke-width="2" d="M323.12,-796.9C311.01,-788.68 296.43,-778.77 283.25,-769.81"/>
<polygon fill="grey" stroke="grey" stroke-width="2" points="285.33,-766.99 275.09,-764.26 281.39,-772.78 285.33,-766.99"/>
</g>
<!-- 4&#45;&gt;15 -->
<g id="edge28" class="edge">
<title>4&#45;&gt;15</title>
<path fill="none" stroke="grey" stroke-width="2" d="M355.25,-796.84C366.6,-762.26 392.24,-683.86 413.38,-617.75 419.63,-598.17 426.57,-576.14 431.97,-558.9"/>
<polygon fill="grey" stroke="grey" stroke-width="2" points="435.3,-559.97 434.94,-549.38 428.62,-557.88 435.3,-559.97"/>
</g>
<!-- 5 -->
<g id="node6" class="node">
<title>5</title>
<path fill="none" stroke="#d87556" stroke-width="2" d="M335.25,-905.75C335.25,-905.75 231.5,-905.75 231.5,-905.75 225.5,-905.75 219.5,-899.75 219.5,-893.75 219.5,-893.75 219.5,-881.75 219.5,-881.75 219.5,-875.75 225.5,-869.75 231.5,-869.75 231.5,-869.75 335.25,-869.75 335.25,-869.75 341.25,-869.75 347.25,-875.75 347.25,-881.75 347.25,-881.75 347.25,-893.75 347.25,-893.75 347.25,-899.75 341.25,-905.75 335.25,-905.75"/>
<text text-anchor="middle" x="283.38" y="-883.88" font-family="sans" font-size="10.00">alignment_pbmm2_merge</text>
</g>
<!-- 5&#45;&gt;3 -->
<g id="edge13" class="edge">
<title>5&#45;&gt;3</title>
<path fill="none" stroke="grey" stroke-width="2" d="M255.72,-868.85C225.62,-847.52 179.27,-808.79 160.38,-761.75 154.41,-746.9 152.57,-739.72 160.38,-725.75 166.85,-714.15 177.03,-704.77 188.15,-697.31"/>
<polygon fill="grey" stroke="grey" stroke-width="2" points="189.68,-700.48 196.43,-692.31 186.06,-694.49 189.68,-700.48"/>
</g>
<!-- 5&#45;&gt;4 -->
<g id="edge15" class="edge">
<title>5&#45;&gt;4</title>
<path fill="none" stroke="grey" stroke-width="2" d="M300.03,-869.09C307.17,-861.52 315.67,-852.5 323.58,-844.1"/>
<polygon fill="grey" stroke="grey" stroke-width="2" points="326.11,-846.53 330.42,-836.85 321.01,-841.73 326.11,-846.53"/>
</g>
<!-- 5&#45;&gt;9 -->
<g id="edge19" class="edge">
<title>5&#45;&gt;9</title>
<path fill="none" stroke="grey" stroke-width="2" d="M262.07,-868.89C252.57,-859.53 242.4,-847.22 237.38,-833.75 230.4,-815.08 232.68,-792.77 236.69,-775.16"/>
<polygon fill="grey" stroke="grey" stroke-width="2" points="240.02,-776.23 239.19,-765.67 233.26,-774.45 240.02,-776.23"/>
</g>
<!-- 5&#45;&gt;15 -->
<g id="edge29" class="edge">
<title>5&#45;&gt;15</title>
<path fill="none" stroke="grey" stroke-width="2" d="M347.88,-883.5C386.07,-878.13 432.49,-865.01 461.38,-833.75 488.82,-804.04 480.38,-785.2 480.38,-744.75 480.38,-744.75 480.38,-744.75 480.38,-670.75 480.38,-630.84 465.88,-586.81 454.56,-558.52"/>
<polygon fill="grey" stroke="grey" stroke-width="2" points="457.88,-557.38 450.81,-549.49 451.41,-560.07 457.88,-557.38"/>
</g>
<!-- 6 -->
<g id="node7" class="node">
<title>6</title>
<path fill="none" stroke="#56d89a" stroke-width="2" d="M331.88,-977.75C331.88,-977.75 234.88,-977.75 234.88,-977.75 228.88,-977.75 222.88,-971.75 222.88,-965.75 222.88,-965.75 222.88,-953.75 222.88,-953.75 222.88,-947.75 228.88,-941.75 234.88,-941.75 234.88,-941.75 331.88,-941.75 331.88,-941.75 337.88,-941.75 343.88,-947.75 343.88,-953.75 343.88,-953.75 343.88,-965.75 343.88,-965.75 343.88,-971.75 337.88,-977.75 331.88,-977.75"/>
<text text-anchor="middle" x="283.38" y="-955.88" font-family="sans" font-size="10.00">alignment_pbmm2_align</text>
</g>
<!-- 6&#45;&gt;5 -->
<g id="edge16" class="edge">
<title>6&#45;&gt;5</title>
<path fill="none" stroke="grey" stroke-width="2" d="M283.38,-941.09C283.38,-934.5 283.38,-926.83 283.38,-919.42"/>
<polygon fill="grey" stroke="grey" stroke-width="2" points="286.88,-919.68 283.38,-909.68 279.88,-919.68 286.88,-919.68"/>
</g>
<!-- 7 -->
<g id="node8" class="node">
<title>7</title>
<path fill="none" stroke="#56d8d0" stroke-width="2" d="M285.38,-1078C285.38,-1078 95.38,-1078 95.38,-1078 89.38,-1078 83.38,-1072 83.38,-1066 83.38,-1066 83.38,-1025.75 83.38,-1025.75 83.38,-1019.75 89.38,-1013.75 95.38,-1013.75 95.38,-1013.75 285.38,-1013.75 285.38,-1013.75 291.38,-1013.75 297.38,-1019.75 297.38,-1025.75 297.38,-1025.75 297.38,-1066 297.38,-1066 297.38,-1072 291.38,-1078 285.38,-1078"/>
<text text-anchor="middle" x="190.38" y="-1064.5" font-family="sans" font-size="10.00">prealignment_pbmarkdup</text>
<text text-anchor="middle" x="190.38" y="-1053.25" font-family="sans" font-size="10.00">barcode: NAS</text>
<text text-anchor="middle" x="190.38" y="-1042" font-family="sans" font-size="10.00">processing_unit: m84045_231122_151755_s3</text>
<text text-anchor="middle" x="190.38" y="-1030.75" font-family="sans" font-size="10.00">sample: 2022.MM.16</text>
<text text-anchor="middle" x="190.38" y="-1019.5" font-family="sans" font-size="10.00">type: T</text>
</g>
<!-- 7&#45;&gt;6 -->
<g id="edge17" class="edge">
<title>7&#45;&gt;6</title>
<path fill="none" stroke="grey" stroke-width="2" d="M225.8,-1012.83C235.12,-1004.4 245.08,-995.39 254.04,-987.28"/>
<polygon fill="grey" stroke="grey" stroke-width="2" points="256.34,-989.92 261.41,-980.62 251.65,-984.73 256.34,-989.92"/>
</g>
<!-- 8 -->
<g id="node9" class="node">
<title>8</title>
<path fill="none" stroke="#68d856" stroke-width="2" d="M427.38,-1063.88C427.38,-1063.88 327.38,-1063.88 327.38,-1063.88 321.38,-1063.88 315.38,-1057.88 315.38,-1051.88 315.38,-1051.88 315.38,-1039.88 315.38,-1039.88 315.38,-1033.88 321.38,-1027.88 327.38,-1027.88 327.38,-1027.88 427.38,-1027.88 427.38,-1027.88 433.38,-1027.88 439.38,-1033.88 439.38,-1039.88 439.38,-1039.88 439.38,-1051.88 439.38,-1051.88 439.38,-1057.88 433.38,-1063.88 427.38,-1063.88"/>
<text text-anchor="middle" x="377.38" y="-1042" font-family="sans" font-size="10.00">alignment_pbmm2_index</text>
</g>
<!-- 8&#45;&gt;6 -->
<g id="edge18" class="edge">
<title>8&#45;&gt;6</title>
<path fill="none" stroke="grey" stroke-width="2" d="M357.44,-1027.03C344.48,-1015.43 327.35,-1000.11 312.83,-987.11"/>
<polygon fill="grey" stroke="grey" stroke-width="2" points="315.32,-984.64 305.54,-980.58 310.65,-989.86 315.32,-984.64"/>
</g>
<!-- 9&#45;&gt;3 -->
<g id="edge14" class="edge">
<title>9&#45;&gt;3</title>
<path fill="none" stroke="grey" stroke-width="2" d="M246.38,-725.09C246.38,-718.5 246.38,-710.83 246.38,-703.42"/>
<polygon fill="grey" stroke="grey" stroke-width="2" points="249.88,-703.68 246.38,-693.68 242.88,-703.68 249.88,-703.68"/>
</g>
<!-- 10&#45;&gt;2 -->
<g id="edge11" class="edge">
<title>10&#45;&gt;2</title>
<path fill="none" stroke="grey" stroke-width="2" d="M206.35,-580.9C186.59,-572.09 162.51,-561.36 141.34,-551.92"/>
<polygon fill="grey" stroke="grey" stroke-width="2" points="142.92,-548.79 132.36,-547.92 140.07,-555.19 142.92,-548.79"/>
</g>
<!-- 10&#45;&gt;15 -->
<g id="edge27" class="edge">
<title>10&#45;&gt;15</title>
<path fill="none" stroke="grey" stroke-width="2" d="M296.34,-580.81C321.68,-571.72 352.7,-560.58 379.54,-550.95"/>
<polygon fill="grey" stroke="grey" stroke-width="2" points="380.46,-554.33 388.69,-547.66 378.1,-547.75 380.46,-554.33"/>
</g>
<!-- 11 -->
<g id="node12" class="node">
<title>11</title>
<path fill="none" stroke="#569ad8" stroke-width="2" d="M527.12,-180C527.12,-180 443.62,-180 443.62,-180 437.62,-180 431.62,-174 431.62,-168 431.62,-168 431.62,-156 431.62,-156 431.62,-150 437.62,-144 443.62,-144 443.62,-144 527.12,-144 527.12,-144 533.12,-144 539.12,-150 539.12,-156 539.12,-156 539.12,-168 539.12,-168 539.12,-174 533.12,-180 527.12,-180"/>
<text text-anchor="middle" x="485.38" y="-163.75" font-family="sans" font-size="10.00">_copy_pbsv_vcf</text>
<text text-anchor="middle" x="485.38" y="-152.5" font-family="sans" font-size="10.00">sample: 2022.MM.16</text>
</g>
<!-- 11&#45;&gt;0 -->
<g id="edge2" class="edge">
<title>11&#45;&gt;0</title>
<path fill="none" stroke="grey" stroke-width="2" d="M479.3,-143.02C471.29,-119.33 457.1,-77.35 447.47,-48.86"/>
<polygon fill="grey" stroke="grey" stroke-width="2" points="450.89,-48.06 444.37,-39.71 444.26,-50.3 450.89,-48.06"/>
</g>
<!-- 12 -->
<g id="node13" class="node">
<title>12</title>
<path fill="none" stroke="#d89c56" stroke-width="2" d="M580.12,-252C580.12,-252 436.62,-252 436.62,-252 430.62,-252 424.62,-246 424.62,-240 424.62,-240 424.62,-228 424.62,-228 424.62,-222 430.62,-216 436.62,-216 436.62,-216 580.12,-216 580.12,-216 586.12,-216 592.12,-222 592.12,-228 592.12,-228 592.12,-240 592.12,-240 592.12,-246 586.12,-252 580.12,-252"/>
<text text-anchor="middle" x="508.38" y="-235.75" font-family="sans" font-size="10.00">cnv_sv_bgzip</text>
<text text-anchor="middle" x="508.38" y="-224.5" font-family="sans" font-size="10.00">file: cnv_sv/pbsv_call/2022.MM.16</text>
</g>
<!-- 12&#45;&gt;11 -->
<g id="edge22" class="edge">
<title>12&#45;&gt;11</title>
<path fill="none" stroke="grey" stroke-width="2" d="M502.57,-215.34C500.35,-208.59 497.76,-200.69 495.27,-193.11"/>
<polygon fill="grey" stroke="grey" stroke-width="2" points="498.65,-192.19 492.2,-183.78 492,-194.37 498.65,-192.19"/>
</g>
<!-- 13 -->
<g id="node14" class="node">
<title>13</title>
<path fill="none" stroke="#566bd8" stroke-width="2" d="M562.38,-326.88C562.38,-326.88 492.38,-326.88 492.38,-326.88 486.38,-326.88 480.38,-320.88 480.38,-314.88 480.38,-314.88 480.38,-302.88 480.38,-302.88 480.38,-296.88 486.38,-290.88 492.38,-290.88 492.38,-290.88 562.38,-290.88 562.38,-290.88 568.38,-290.88 574.38,-296.88 574.38,-302.88 574.38,-302.88 574.38,-314.88 574.38,-314.88 574.38,-320.88 568.38,-326.88 562.38,-326.88"/>
<text text-anchor="middle" x="527.38" y="-305" font-family="sans" font-size="10.00">cnv_sv_pbsv_call</text>
</g>
<!-- 13&#45;&gt;12 -->
<g id="edge23" class="edge">
<title>13&#45;&gt;12</title>
<path fill="none" stroke="grey" stroke-width="2" d="M522.78,-290.23C520.84,-282.83 518.54,-273.99 516.35,-265.58"/>
<polygon fill="grey" stroke="grey" stroke-width="2" points="519.74,-264.71 513.83,-255.91 512.96,-266.47 519.74,-264.71"/>
</g>
<!-- 14 -->
<g id="node15" class="node">
<title>14</title>
<path fill="none" stroke="#ced856" stroke-width="2" d="M543.25,-401.75C543.25,-401.75 451.5,-401.75 451.5,-401.75 445.5,-401.75 439.5,-395.75 439.5,-389.75 439.5,-389.75 439.5,-377.75 439.5,-377.75 439.5,-371.75 445.5,-365.75 451.5,-365.75 451.5,-365.75 543.25,-365.75 543.25,-365.75 549.25,-365.75 555.25,-371.75 555.25,-377.75 555.25,-377.75 555.25,-389.75 555.25,-389.75 555.25,-395.75 549.25,-401.75 543.25,-401.75"/>
<text text-anchor="middle" x="497.38" y="-379.88" font-family="sans" font-size="10.00">cnv_sv_pbsv_discover</text>
</g>
<!-- 14&#45;&gt;13 -->
<g id="edge24" class="edge">
<title>14&#45;&gt;13</title>
<path fill="none" stroke="grey" stroke-width="2" d="M504.64,-365.11C507.76,-357.52 511.5,-348.44 515.03,-339.86"/>
<polygon fill="grey" stroke="grey" stroke-width="2" points="518.25,-341.24 518.82,-330.66 511.78,-338.57 518.25,-341.24"/>
</g>
<!-- 15&#45;&gt;14 -->
<g id="edge25" class="edge">
<title>15&#45;&gt;14</title>
<path fill="none" stroke="grey" stroke-width="2" d="M388.24,-508.97C372.26,-500.85 356.54,-489.44 347.38,-473.75 339.3,-459.93 338.14,-450.81 347.38,-437.75 365.45,-412.2 396.91,-398.88 426.37,-391.98"/>
<polygon fill="grey" stroke="grey" stroke-width="2" points="426.78,-395.47 435.86,-390.01 425.36,-388.61 426.78,-395.47"/>
</g>
<!-- 16 -->
<g id="node17" class="node">
<title>16</title>
<path fill="none" stroke="#56d8a9" stroke-width="2" d="M632.88,-473.75C632.88,-473.75 367.88,-473.75 367.88,-473.75 361.88,-473.75 355.88,-467.75 355.88,-461.75 355.88,-461.75 355.88,-449.75 355.88,-449.75 355.88,-443.75 361.88,-437.75 367.88,-437.75 367.88,-437.75 632.88,-437.75 632.88,-437.75 638.88,-437.75 644.88,-443.75 644.88,-449.75 644.88,-449.75 644.88,-461.75 644.88,-461.75 644.88,-467.75 638.88,-473.75 632.88,-473.75"/>
<text text-anchor="middle" x="500.38" y="-457.5" font-family="sans" font-size="10.00">alignment_samtools_index_whatshap</text>
<text text-anchor="middle" x="500.38" y="-446.25" font-family="sans" font-size="10.00">file: annotation/whatshap_haplotag/2022.MM.16_T.haplotagged</text>
</g>
<!-- 15&#45;&gt;16 -->
<g id="edge31" class="edge">
<title>15&#45;&gt;16</title>
<path fill="none" stroke="grey" stroke-width="2" d="M456.26,-509.09C462.57,-501.6 470.08,-492.7 477.09,-484.38"/>
<polygon fill="grey" stroke="grey" stroke-width="2" points="479.57,-486.87 483.34,-476.97 474.21,-482.36 479.57,-486.87"/>
</g>
<!-- 18 -->
<g id="node19" class="node">
<title>18</title>
<path fill="none" stroke="#56a9d8" stroke-width="2" d="M643,-401.75C643,-401.75 585.75,-401.75 585.75,-401.75 579.75,-401.75 573.75,-395.75 573.75,-389.75 573.75,-389.75 573.75,-377.75 573.75,-377.75 573.75,-371.75 579.75,-365.75 585.75,-365.75 585.75,-365.75 643,-365.75 643,-365.75 649,-365.75 655,-371.75 655,-377.75 655,-377.75 655,-389.75 655,-389.75 655,-395.75 649,-401.75 643,-401.75"/>
<text text-anchor="middle" x="614.38" y="-379.88" font-family="sans" font-size="10.00">cnv_sv_hificnv</text>
</g>
<!-- 15&#45;&gt;18 -->
<g id="edge33" class="edge">
<title>15&#45;&gt;18</title>
<path fill="none" stroke="grey" stroke-width="2" d="M517.47,-517.73C571.51,-509.58 637.39,-495.48 654.38,-473.75 668.81,-455.28 655.95,-430.78 641.09,-412.15"/>
<polygon fill="grey" stroke="grey" stroke-width="2" points="643.93,-410.09 634.76,-404.79 638.62,-414.65 643.93,-410.09"/>
</g>
<!-- 20 -->
<g id="node21" class="node">
<title>20</title>
<path fill="none" stroke="#56d87b" stroke-width="2" d="M750.12,-401.75C750.12,-401.75 684.62,-401.75 684.62,-401.75 678.62,-401.75 672.62,-395.75 672.62,-389.75 672.62,-389.75 672.62,-377.75 672.62,-377.75 672.62,-371.75 678.62,-365.75 684.62,-365.75 684.62,-365.75 750.12,-365.75 750.12,-365.75 756.12,-365.75 762.12,-371.75 762.12,-377.75 762.12,-377.75 762.12,-389.75 762.12,-389.75 762.12,-395.75 756.12,-401.75 750.12,-401.75"/>
<text text-anchor="middle" x="717.38" y="-379.88" font-family="sans" font-size="10.00">cnv_sv_sniffles2</text>
</g>
<!-- 15&#45;&gt;20 -->
<g id="edge36" class="edge">
<title>15&#45;&gt;20</title>
<path fill="none" stroke="grey" stroke-width="2" d="M517.4,-525.18C565.88,-520.6 627.6,-507.74 671.38,-473.75 690.22,-459.12 702.08,-434.62 709.02,-415.03"/>
<polygon fill="grey" stroke="grey" stroke-width="2" points="712.32,-416.19 712.06,-405.6 705.66,-414.04 712.32,-416.19"/>
</g>
<!-- 23 -->
<g id="node24" class="node">
<title>23</title>
<path fill="none" stroke="#d8ac56" stroke-width="2" d="M331.5,-401.75C331.5,-401.75 247.25,-401.75 247.25,-401.75 241.25,-401.75 235.25,-395.75 235.25,-389.75 235.25,-389.75 235.25,-377.75 235.25,-377.75 235.25,-371.75 241.25,-365.75 247.25,-365.75 247.25,-365.75 331.5,-365.75 331.5,-365.75 337.5,-365.75 343.5,-371.75 343.5,-377.75 343.5,-377.75 343.5,-389.75 343.5,-389.75 343.5,-395.75 337.5,-401.75 331.5,-401.75"/>
<text text-anchor="middle" x="289.38" y="-379.88" font-family="sans" font-size="10.00">cnv_sv_cnvkit_batch</text>
</g>
<!-- 15&#45;&gt;23 -->
<g id="edge40" class="edge">
<title>15&#45;&gt;23</title>
<path fill="none" stroke="grey" stroke-width="2" d="M391.66,-508.83C373.02,-500.32 352.67,-488.69 337.38,-473.75 320.44,-457.2 308.02,-433.39 300.07,-414.56"/>
<polygon fill="grey" stroke="grey" stroke-width="2" points="303.33,-413.28 296.39,-405.28 296.82,-415.86 303.33,-413.28"/>
</g>
<!-- 16&#45;&gt;14 -->
<g id="edge26" class="edge">
<title>16&#45;&gt;14</title>
<path fill="none" stroke="grey" stroke-width="2" d="M499.62,-437.09C499.34,-430.5 499.01,-422.83 498.69,-415.42"/>
<polygon fill="grey" stroke="grey" stroke-width="2" points="502.2,-415.52 498.27,-405.68 495.2,-415.82 502.2,-415.52"/>
</g>
<!-- 16&#45;&gt;18 -->
<g id="edge34" class="edge">
<title>16&#45;&gt;18</title>
<path fill="none" stroke="grey" stroke-width="2" d="M529.44,-436.9C543.1,-428.51 559.62,-418.37 574.44,-409.27"/>
<polygon fill="grey" stroke="grey" stroke-width="2" points="576.1,-412.36 582.79,-404.15 572.43,-406.4 576.1,-412.36"/>
</g>
<!-- 16&#45;&gt;20 -->
<g id="edge37" class="edge">
<title>16&#45;&gt;20</title>
<path fill="none" stroke="grey" stroke-width="2" d="M555.98,-436.81C587.68,-426.59 627.37,-413.79 659.45,-403.44"/>
<polygon fill="grey" stroke="grey" stroke-width="2" points="660.47,-406.79 668.91,-400.38 658.32,-400.12 660.47,-406.79"/>
</g>
<!-- 16&#45;&gt;23 -->
<g id="edge41" class="edge">
<title>16&#45;&gt;23</title>
<path fill="none" stroke="grey" stroke-width="2" d="M446.31,-436.81C418.64,-427.63 384.72,-416.38 355.5,-406.69"/>
<polygon fill="grey" stroke="grey" stroke-width="2" points="356.76,-403.42 346.17,-403.59 354.56,-410.06 356.76,-403.42"/>
</g>
<!-- 17 -->
<g id="node18" class="node">
<title>17</title>
<path fill="none" stroke="#568ad8" stroke-width="2" d="M642.75,-180C642.75,-180 572,-180 572,-180 566,-180 560,-174 560,-168 560,-168 560,-156 560,-156 560,-150 566,-144 572,-144 572,-144 642.75,-144 642.75,-144 648.75,-144 654.75,-150 654.75,-156 654.75,-156 654.75,-168 654.75,-168 654.75,-174 648.75,-180 642.75,-180"/>
<text text-anchor="middle" x="607.38" y="-158.12" font-family="sans" font-size="10.00">_copy_hificnv_vcf</text>
</g>
<!-- 17&#45;&gt;0 -->
<g id="edge3" class="edge">
<title>17&#45;&gt;0</title>
<path fill="none" stroke="grey" stroke-width="2" d="M585.84,-143.02C556.21,-118.26 502.66,-73.53 468.62,-45.1"/>
<polygon fill="grey" stroke="grey" stroke-width="2" points="470.97,-42.5 461.05,-38.78 466.49,-47.88 470.97,-42.5"/>
</g>
<!-- 18&#45;&gt;17 -->
<g id="edge32" class="edge">
<title>18&#45;&gt;17</title>
<path fill="none" stroke="grey" stroke-width="2" d="M613.8,-364.77C612.61,-327.25 609.84,-240.26 608.35,-193.71"/>
<polygon fill="grey" stroke="grey" stroke-width="2" points="611.86,-193.83 608.04,-183.95 604.86,-194.06 611.86,-193.83"/>
</g>
<!-- 19 -->
<g id="node20" class="node">
<title>19</title>
<path fill="none" stroke="#56d88a" stroke-width="2" d="M739.88,-252C739.88,-252 660.88,-252 660.88,-252 654.88,-252 648.88,-246 648.88,-240 648.88,-240 648.88,-228 648.88,-228 648.88,-222 654.88,-216 660.88,-216 660.88,-216 739.88,-216 739.88,-216 745.88,-216 751.88,-222 751.88,-228 751.88,-228 751.88,-240 751.88,-240 751.88,-246 745.88,-252 739.88,-252"/>
<text text-anchor="middle" x="700.38" y="-230.12" font-family="sans" font-size="10.00">_copy_sniffles2_vcf</text>
</g>
<!-- 19&#45;&gt;0 -->
<g id="edge4" class="edge">
<title>19&#45;&gt;0</title>
<path fill="none" stroke="grey" stroke-width="2" d="M696.61,-215.09C691.76,-195.67 681.67,-164.67 663.38,-144 612.12,-86.09 527.33,-49.47 477.47,-31.74"/>
<polygon fill="grey" stroke="grey" stroke-width="2" points="478.75,-28.48 468.15,-28.52 476.46,-35.09 478.75,-28.48"/>
</g>
<!-- 20&#45;&gt;19 -->
<g id="edge35" class="edge">
<title>20&#45;&gt;19</title>
<path fill="none" stroke="grey" stroke-width="2" d="M715.32,-364.93C712.49,-340.3 707.34,-295.51 703.89,-265.51"/>
<polygon fill="grey" stroke="grey" stroke-width="2" points="707.4,-265.43 702.78,-255.89 700.44,-266.23 707.4,-265.43"/>
</g>
<!-- 21 -->
<g id="node22" class="node">
<title>21</title>
<path fill="none" stroke="#afd856" stroke-width="2" d="M817.88,-108C817.88,-108 738.88,-108 738.88,-108 732.88,-108 726.88,-102 726.88,-96 726.88,-96 726.88,-84 726.88,-84 726.88,-78 732.88,-72 738.88,-72 738.88,-72 817.88,-72 817.88,-72 823.88,-72 829.88,-78 829.88,-84 829.88,-84 829.88,-96 829.88,-96 829.88,-102 823.88,-108 817.88,-108"/>
<text text-anchor="middle" x="778.38" y="-86.12" font-family="sans" font-size="10.00">_copy_sniffles2_snf</text>
</g>
<!-- 20&#45;&gt;21 -->
<g id="edge38" class="edge">
<title>20&#45;&gt;21</title>
<path fill="none" stroke="grey" stroke-width="2" d="M724.78,-364.91C734.76,-340.07 752.33,-293.42 761.38,-252 771.18,-207.07 775.4,-153.8 777.16,-121.21"/>
<polygon fill="grey" stroke="grey" stroke-width="2" points="780.64,-121.77 777.63,-111.62 773.65,-121.43 780.64,-121.77"/>
</g>
<!-- 21&#45;&gt;0 -->
<g id="edge5" class="edge">
<title>21&#45;&gt;0</title>
<path fill="none" stroke="grey" stroke-width="2" d="M725.89,-77.78C716.72,-75.84 707.27,-73.85 698.38,-72 620.29,-55.78 528.94,-37.35 477.65,-27.06"/>
<polygon fill="grey" stroke="grey" stroke-width="2" points="478.66,-23.69 468.17,-25.16 477.29,-30.56 478.66,-23.69"/>
</g>
<!-- 22 -->
<g id="node23" class="node">
<title>22</title>
<path fill="none" stroke="#d88d56" stroke-width="2" d="M356.25,-252C356.25,-252 198.5,-252 198.5,-252 192.5,-252 186.5,-246 186.5,-240 186.5,-240 186.5,-228 186.5,-228 186.5,-222 192.5,-216 198.5,-216 198.5,-216 356.25,-216 356.25,-216 362.25,-216 368.25,-222 368.25,-228 368.25,-228 368.25,-240 368.25,-240 368.25,-246 362.25,-252 356.25,-252"/>
<text text-anchor="middle" x="277.38" y="-230.12" font-family="sans" font-size="10.00">_copy_cnvkit_batch_segments_called</text>
</g>
<!-- 22&#45;&gt;0 -->
<g id="edge6" class="edge">
<title>22&#45;&gt;0</title>
<path fill="none" stroke="grey" stroke-width="2" d="M287.2,-215.19C304.51,-184.51 342.4,-120.35 382.38,-72 389.93,-62.87 398.91,-53.65 407.4,-45.52"/>
<polygon fill="grey" stroke="grey" stroke-width="2" points="409.54,-48.32 414.47,-38.94 404.77,-43.2 409.54,-48.32"/>
</g>
<!-- 23&#45;&gt;22 -->
<g id="edge39" class="edge">
<title>23&#45;&gt;22</title>
<path fill="none" stroke="grey" stroke-width="2" d="M283.41,-364.83C280.33,-354.67 276.92,-341.64 275.38,-329.75 272.61,-308.45 273.18,-284.24 274.41,-265.62"/>
<polygon fill="grey" stroke="grey" stroke-width="2" points="277.88,-266.16 275.17,-255.92 270.9,-265.61 277.88,-266.16"/>
</g>
<!-- 24 -->
<g id="node25" class="node">
<title>24</title>
<path fill="none" stroke="#d85656" stroke-width="2" d="M450.38,-326.88C450.38,-326.88 296.38,-326.88 296.38,-326.88 290.38,-326.88 284.38,-320.88 284.38,-314.88 284.38,-314.88 284.38,-302.88 284.38,-302.88 284.38,-296.88 290.38,-290.88 296.38,-290.88 296.38,-290.88 450.38,-290.88 450.38,-290.88 456.38,-290.88 462.38,-296.88 462.38,-302.88 462.38,-302.88 462.38,-314.88 462.38,-314.88 462.38,-320.88 456.38,-326.88 450.38,-326.88"/>
<text text-anchor="middle" x="373.38" y="-305" font-family="sans" font-size="10.00">_copy_cnvkit_batch_target_coverage</text>
</g>
<!-- 23&#45;&gt;24 -->
<g id="edge42" class="edge">
<title>23&#45;&gt;24</title>
<path fill="none" stroke="grey" stroke-width="2" d="M309.71,-365.11C319.67,-356.47 331.87,-345.88 342.92,-336.3"/>
<polygon fill="grey" stroke="grey" stroke-width="2" points="345.1,-339.04 350.36,-329.84 340.51,-333.75 345.1,-339.04"/>
</g>
<!-- 28 -->
<g id="node29" class="node">
<title>28</title>
<path fill="none" stroke="#78d856" stroke-width="2" d="M174.25,-329.75C174.25,-329.75 88.5,-329.75 88.5,-329.75 82.5,-329.75 76.5,-323.75 76.5,-317.75 76.5,-317.75 76.5,-300 76.5,-300 76.5,-294 82.5,-288 88.5,-288 88.5,-288 174.25,-288 174.25,-288 180.25,-288 186.25,-294 186.25,-300 186.25,-300 186.25,-317.75 186.25,-317.75 186.25,-323.75 180.25,-329.75 174.25,-329.75"/>
<text text-anchor="middle" x="131.38" y="-316.25" font-family="sans" font-size="10.00">reports_cnv_json</text>
<text text-anchor="middle" x="131.38" y="-305" font-family="sans" font-size="10.00">caller: cnvkit</text>
<text text-anchor="middle" x="131.38" y="-293.75" font-family="sans" font-size="10.00">tc_method: pathology</text>
</g>
<!-- 23&#45;&gt;28 -->
<g id="edge46" class="edge">
<title>23&#45;&gt;28</title>
<path fill="none" stroke="grey" stroke-width="2" d="M250.72,-364.92C231.93,-356.25 208.96,-345.66 188.21,-336.09"/>
<polygon fill="grey" stroke="grey" stroke-width="2" points="189.93,-333.03 179.38,-332.02 187,-339.38 189.93,-333.03"/>
</g>
<!-- 24&#45;&gt;0 -->
<g id="edge7" class="edge">
<title>24&#45;&gt;0</title>
<path fill="none" stroke="grey" stroke-width="2" d="M377.28,-290.24C387.88,-242.39 417.28,-109.7 430.63,-49.46"/>
<polygon fill="grey" stroke="grey" stroke-width="2" points="434.04,-50.25 432.78,-39.73 427.2,-48.73 434.04,-50.25"/>
</g>
<!-- 25 -->
<g id="node26" class="node">
<title>25</title>
<path fill="none" stroke="#d86656" stroke-width="2" d="M270.5,-108C270.5,-108 222.25,-108 222.25,-108 216.25,-108 210.25,-102 210.25,-96 210.25,-96 210.25,-84 210.25,-84 210.25,-78 216.25,-72 222.25,-72 222.25,-72 270.5,-72 270.5,-72 276.5,-72 282.5,-78 282.5,-84 282.5,-84 282.5,-96 282.5,-96 282.5,-102 276.5,-108 270.5,-108"/>
<text text-anchor="middle" x="246.38" y="-86.12" font-family="sans" font-size="10.00">_copy_report</text>
</g>
<!-- 25&#45;&gt;0 -->
<g id="edge8" class="edge">
<title>25&#45;&gt;0</title>
<path fill="none" stroke="grey" stroke-width="2" d="M283.2,-75.5C315.98,-63.49 363.81,-45.96 397.49,-33.62"/>
<polygon fill="grey" stroke="grey" stroke-width="2" points="398.61,-36.93 406.8,-30.21 396.2,-30.36 398.61,-36.93"/>
</g>
<!-- 26 -->
<g id="node27" class="node">
<title>26</title>
<path fill="none" stroke="#d8bc56" stroke-width="2" d="M218.88,-180C218.88,-180 121.88,-180 121.88,-180 115.88,-180 109.88,-174 109.88,-168 109.88,-168 109.88,-156 109.88,-156 109.88,-150 115.88,-144 121.88,-144 121.88,-144 218.88,-144 218.88,-144 224.88,-144 230.88,-150 230.88,-156 230.88,-156 230.88,-168 230.88,-168 230.88,-174 224.88,-180 218.88,-180"/>
<text text-anchor="middle" x="170.38" y="-158.12" font-family="sans" font-size="10.00">reports_cnv_html_report</text>
</g>
<!-- 26&#45;&gt;25 -->
<g id="edge43" class="edge">
<title>26&#45;&gt;25</title>
<path fill="none" stroke="grey" stroke-width="2" d="M189.55,-143.34C198.04,-135.52 208.2,-126.16 217.57,-117.53"/>
<polygon fill="grey" stroke="grey" stroke-width="2" points="219.73,-120.3 224.71,-110.95 214.99,-115.15 219.73,-120.3"/>
</g>
<!-- 27 -->
<g id="node28" class="node">
<title>27</title>
<path fill="none" stroke="#567bd8" stroke-width="2" d="M156.62,-252C156.62,-252 58.12,-252 58.12,-252 52.13,-252 46.12,-246 46.12,-240 46.12,-240 46.12,-228 46.12,-228 46.12,-222 52.12,-216 58.12,-216 58.12,-216 156.62,-216 156.62,-216 162.62,-216 168.62,-222 168.62,-228 168.62,-228 168.62,-240 168.62,-240 168.62,-246 162.62,-252 156.62,-252"/>
<text text-anchor="middle" x="107.38" y="-230.12" font-family="sans" font-size="10.00">reports_merge_cnv_json</text>
</g>
<!-- 27&#45;&gt;26 -->
<g id="edge44" class="edge">
<title>27&#45;&gt;26</title>
<path fill="none" stroke="grey" stroke-width="2" d="M123.27,-215.34C130.08,-207.77 138.2,-198.75 145.76,-190.35"/>
<polygon fill="grey" stroke="grey" stroke-width="2" points="148.15,-192.93 152.24,-183.15 142.95,-188.24 148.15,-192.93"/>
</g>
<!-- 28&#45;&gt;27 -->
<g id="edge45" class="edge">
<title>28&#45;&gt;27</title>
<path fill="none" stroke="grey" stroke-width="2" d="M124.56,-287.19C122.25,-280.18 119.63,-272.21 117.14,-264.64"/>
<polygon fill="grey" stroke="grey" stroke-width="2" points="120.55,-263.81 114.1,-255.41 113.9,-266 120.55,-263.81"/>
</g>
</g>
</svg>
