<?xml version="1.0" encoding="UTF-8" standalone="no"?>
<!DOCTYPE svg PUBLIC "-//W3C//DTD SVG 1.1//EN"
 "http://www.w3.org/Graphics/SVG/1.1/DTD/svg11.dtd">
<!-- Generated by graphviz version 12.2.1 (20241206.2353)
 -->
<!-- Title: snakemake_dag Pages: 1 -->
<svg width="771pt" height="936pt"
 viewBox="0.00 0.00 770.75 936.25" xmlns="http://www.w3.org/2000/svg" xmlns:xlink="http://www.w3.org/1999/xlink">
<g id="graph0" class="graph" transform="scale(1 1) rotate(0) translate(4 932.25)">
<title>snakemake_dag</title>
<polygon fill="white" stroke="none" points="-4,4 -4,-932.25 766.75,-932.25 766.75,4 -4,4"/>
<!-- 0 -->
<g id="node1" class="node">
<title>0</title>
<path fill="none" stroke="#68d856" stroke-width="2" d="M450.38,-36C450.38,-36 420.38,-36 420.38,-36 414.38,-36 408.38,-30 408.38,-24 408.38,-24 408.38,-12 408.38,-12 408.38,-6 414.38,0 420.38,0 420.38,0 450.38,0 450.38,0 456.38,0 462.38,-6 462.38,-12 462.38,-12 462.38,-24 462.38,-24 462.38,-30 456.38,-36 450.38,-36"/>
<text text-anchor="middle" x="435.38" y="-14.12" font-family="sans" font-size="10.00">all</text>
</g>
<!-- 1 -->
<g id="node2" class="node">
<title>1</title>
<path fill="none" stroke="#d89556" stroke-width="2" d="M114.12,-180C114.12,-180 30.62,-180 30.62,-180 24.63,-180 18.62,-174 18.62,-168 18.62,-168 18.62,-156 18.62,-156 18.62,-150 24.62,-144 30.62,-144 30.62,-144 114.12,-144 114.12,-144 120.12,-144 126.12,-150 126.12,-156 126.12,-156 126.12,-168 126.12,-168 126.12,-174 120.12,-180 114.12,-180"/>
<text text-anchor="middle" x="72.38" y="-163.75" font-family="sans" font-size="10.00">_copy_indel_vcf</text>
<text text-anchor="middle" x="72.38" y="-152.5" font-family="sans" font-size="10.00">sample: 2022.MM.16</text>
</g>
<!-- 1&#45;&gt;0 -->
<g id="edge1" class="edge">
<title>1&#45;&gt;0</title>
<path fill="none" stroke="grey" stroke-width="2" d="M92.04,-143.13C115.43,-122.85 156.49,-90.21 197.38,-72 262.95,-42.8 346.06,-29.03 394.72,-23.06"/>
<polygon fill="grey" stroke="grey" stroke-width="2" points="394.95,-26.56 404.48,-21.93 394.14,-19.6 394.95,-26.56"/>
</g>
<!-- 2 -->
<g id="node3" class="node">
<title>2</title>
<path fill="none" stroke="#5692d8" stroke-width="2" d="M166.75,-396C166.75,-396 12,-396 12,-396 6,-396 0,-390 0,-384 0,-384 0,-372 0,-372 0,-366 6,-360 12,-360 12,-360 166.75,-360 166.75,-360 172.75,-360 178.75,-366 178.75,-372 178.75,-372 178.75,-384 178.75,-384 178.75,-390 172.75,-396 166.75,-396"/>
<text text-anchor="middle" x="89.38" y="-379.75" font-family="sans" font-size="10.00">filtering_bcftools_filter_include_region</text>
<text text-anchor="middle" x="89.38" y="-368.5" font-family="sans" font-size="10.00">tag: panel</text>
</g>
<!-- 2&#45;&gt;1 -->
<g id="edge8" class="edge">
<title>2&#45;&gt;1</title>
<path fill="none" stroke="grey" stroke-width="2" d="M78.29,-359.22C64.35,-335.73 41.19,-292.56 32.38,-252 28.98,-236.36 27.29,-231.17 32.38,-216 35.36,-207.08 40.51,-198.47 46.13,-190.87"/>
<polygon fill="grey" stroke="grey" stroke-width="2" points="48.74,-193.2 52.32,-183.23 43.3,-188.8 48.74,-193.2"/>
</g>
<!-- 3 -->
<g id="node4" class="node">
<title>3</title>
<path fill="none" stroke="#56d86b" stroke-width="2" d="M304.25,-540C304.25,-540 188.5,-540 188.5,-540 182.5,-540 176.5,-534 176.5,-528 176.5,-528 176.5,-516 176.5,-516 176.5,-510 182.5,-504 188.5,-504 188.5,-504 304.25,-504 304.25,-504 310.25,-504 316.25,-510 316.25,-516 316.25,-516 316.25,-528 316.25,-528 316.25,-534 310.25,-540 304.25,-540"/>
<text text-anchor="middle" x="246.38" y="-518.12" font-family="sans" font-size="10.00">annotation_whatshap_phase</text>
</g>
<!-- 3&#45;&gt;2 -->
<g id="edge9" class="edge">
<title>3&#45;&gt;2</title>
<path fill="none" stroke="grey" stroke-width="2" d="M175.82,-508.37C151.24,-500.6 125.55,-488.09 108.38,-468 94.73,-452.03 90.13,-428.65 88.87,-409.86"/>
<polygon fill="grey" stroke="grey" stroke-width="2" points="92.36,-409.78 88.55,-399.9 85.37,-410.01 92.36,-409.78"/>
</g>
<!-- 10 -->
<g id="node11" class="node">
<title>10</title>
<path fill="none" stroke="#56b9d8" stroke-width="2" d="M363.12,-468C363.12,-468 129.62,-468 129.62,-468 123.62,-468 117.62,-462 117.62,-456 117.62,-456 117.62,-444 117.62,-444 117.62,-438 123.62,-432 129.62,-432 129.62,-432 363.12,-432 363.12,-432 369.12,-432 375.12,-438 375.12,-444 375.12,-444 375.12,-456 375.12,-456 375.12,-462 369.12,-468 363.12,-468"/>
<text text-anchor="middle" x="246.38" y="-451.75" font-family="sans" font-size="10.00">cnv_sv_tabix</text>
<text text-anchor="middle" x="246.38" y="-440.5" font-family="sans" font-size="10.00">file: annotation/whatshap_phase/2022.MM.16_T.phased</text>
</g>
<!-- 3&#45;&gt;10 -->
<g id="edge19" class="edge">
<title>3&#45;&gt;10</title>
<path fill="none" stroke="grey" stroke-width="2" d="M246.38,-503.34C246.38,-496.75 246.38,-489.08 246.38,-481.67"/>
<polygon fill="grey" stroke="grey" stroke-width="2" points="249.88,-481.93 246.38,-471.93 242.88,-481.93 249.88,-481.93"/>
</g>
<!-- 15 -->
<g id="node16" class="node">
<title>15</title>
<path fill="none" stroke="#59d856" stroke-width="2" d="M570.5,-468C570.5,-468 444.25,-468 444.25,-468 438.25,-468 432.25,-462 432.25,-456 432.25,-456 432.25,-444 432.25,-444 432.25,-438 438.25,-432 444.25,-432 444.25,-432 570.5,-432 570.5,-432 576.5,-432 582.5,-438 582.5,-444 582.5,-444 582.5,-456 582.5,-456 582.5,-462 576.5,-468 570.5,-468"/>
<text text-anchor="middle" x="507.38" y="-446.12" font-family="sans" font-size="10.00">annotation_whatshap_haplotag</text>
</g>
<!-- 3&#45;&gt;15 -->
<g id="edge25" class="edge">
<title>3&#45;&gt;15</title>
<path fill="none" stroke="grey" stroke-width="2" d="M313.25,-503.06C348.4,-493.64 391.69,-482.03 428.47,-472.16"/>
<polygon fill="grey" stroke="grey" stroke-width="2" points="429,-475.64 437.75,-469.67 427.18,-468.88 429,-475.64"/>
</g>
<!-- 4 -->
<g id="node5" class="node">
<title>4</title>
<path fill="none" stroke="#566bd8" stroke-width="2" d="M403.75,-612C403.75,-612 273,-612 273,-612 267,-612 261,-606 261,-600 261,-600 261,-588 261,-588 261,-582 267,-576 273,-576 273,-576 403.75,-576 403.75,-576 409.75,-576 415.75,-582 415.75,-588 415.75,-588 415.75,-600 415.75,-600 415.75,-606 409.75,-612 403.75,-612"/>
<text text-anchor="middle" x="338.38" y="-590.12" font-family="sans" font-size="10.00">snv_indels_deepsomatic_t_only</text>
</g>
<!-- 4&#45;&gt;3 -->
<g id="edge11" class="edge">
<title>4&#45;&gt;3</title>
<path fill="none" stroke="grey" stroke-width="2" d="M315.16,-575.34C304.56,-567.27 291.81,-557.57 280.18,-548.72"/>
<polygon fill="grey" stroke="grey" stroke-width="2" points="282.39,-546 272.31,-542.73 278.15,-551.58 282.39,-546"/>
</g>
<!-- 5 -->
<g id="node6" class="node">
<title>5</title>
<path fill="none" stroke="#a7d856" stroke-width="2" d="M455.25,-756C455.25,-756 351.5,-756 351.5,-756 345.5,-756 339.5,-750 339.5,-744 339.5,-744 339.5,-732 339.5,-732 339.5,-726 345.5,-720 351.5,-720 351.5,-720 455.25,-720 455.25,-720 461.25,-720 467.25,-726 467.25,-732 467.25,-732 467.25,-744 467.25,-744 467.25,-750 461.25,-756 455.25,-756"/>
<text text-anchor="middle" x="403.38" y="-734.12" font-family="sans" font-size="10.00">alignment_pbmm2_merge</text>
</g>
<!-- 5&#45;&gt;3 -->
<g id="edge12" class="edge">
<title>5&#45;&gt;3</title>
<path fill="none" stroke="grey" stroke-width="2" d="M338.83,-725.99C294.07,-716.88 240.12,-702.46 226.38,-684 197.84,-645.67 215.91,-587.43 231.35,-552.5"/>
<polygon fill="grey" stroke="grey" stroke-width="2" points="234.49,-554.06 235.54,-543.52 228.14,-551.1 234.49,-554.06"/>
</g>
<!-- 5&#45;&gt;4 -->
<g id="edge13" class="edge">
<title>5&#45;&gt;4</title>
<path fill="none" stroke="grey" stroke-width="2" d="M424.21,-719.15C442.95,-700.84 465.42,-671.77 450.38,-648 442.59,-635.7 431.09,-626.2 418.39,-618.88"/>
<polygon fill="grey" stroke="grey" stroke-width="2" points="420.16,-615.85 409.67,-614.38 416.95,-622.07 420.16,-615.85"/>
</g>
<!-- 9 -->
<g id="node10" class="node">
<title>9</title>
<path fill="none" stroke="#8fd856" stroke-width="2" d="M429.25,-684C429.25,-684 247.5,-684 247.5,-684 241.5,-684 235.5,-678 235.5,-672 235.5,-672 235.5,-660 235.5,-660 235.5,-654 241.5,-648 247.5,-648 247.5,-648 429.25,-648 429.25,-648 435.25,-648 441.25,-654 441.25,-660 441.25,-660 441.25,-672 441.25,-672 441.25,-678 435.25,-684 429.25,-684"/>
<text text-anchor="middle" x="338.38" y="-667.75" font-family="sans" font-size="10.00">alignment_samtools_index_pbmm2</text>
<text text-anchor="middle" x="338.38" y="-656.5" font-family="sans" font-size="10.00">file: alignment/pbmm2_align/2022.MM.16_T</text>
</g>
<!-- 5&#45;&gt;9 -->
<g id="edge18" class="edge">
<title>5&#45;&gt;9</title>
<path fill="none" stroke="grey" stroke-width="2" d="M386.97,-719.34C379.94,-711.77 371.57,-702.75 363.77,-694.35"/>
<polygon fill="grey" stroke="grey" stroke-width="2" points="366.43,-692.07 357.06,-687.12 361.3,-696.83 366.43,-692.07"/>
</g>
<!-- 5&#45;&gt;15 -->
<g id="edge26" class="edge">
<title>5&#45;&gt;15</title>
<path fill="none" stroke="grey" stroke-width="2" d="M432.51,-719.2C444.86,-710.17 458.24,-698.12 466.38,-684 503.81,-619.04 508.71,-528.24 508.43,-481.49"/>
<polygon fill="grey" stroke="grey" stroke-width="2" points="511.94,-481.7 508.27,-471.76 504.94,-481.82 511.94,-481.7"/>
</g>
<!-- 6 -->
<g id="node7" class="node">
<title>6</title>
<path fill="none" stroke="#ced856" stroke-width="2" d="M451.88,-828C451.88,-828 354.88,-828 354.88,-828 348.88,-828 342.88,-822 342.88,-816 342.88,-816 342.88,-804 342.88,-804 342.88,-798 348.88,-792 354.88,-792 354.88,-792 451.88,-792 451.88,-792 457.88,-792 463.88,-798 463.88,-804 463.88,-804 463.88,-816 463.88,-816 463.88,-822 457.88,-828 451.88,-828"/>
<text text-anchor="middle" x="403.38" y="-806.12" font-family="sans" font-size="10.00">alignment_pbmm2_align</text>
</g>
<!-- 6&#45;&gt;5 -->
<g id="edge15" class="edge">
<title>6&#45;&gt;5</title>
<path fill="none" stroke="grey" stroke-width="2" d="M403.38,-791.34C403.38,-784.75 403.38,-777.08 403.38,-769.67"/>
<polygon fill="grey" stroke="grey" stroke-width="2" points="406.88,-769.93 403.38,-759.93 399.88,-769.93 406.88,-769.93"/>
</g>
<!-- 7 -->
<g id="node8" class="node">
<title>7</title>
<path fill="none" stroke="#567bd8" stroke-width="2" d="M405.38,-928.25C405.38,-928.25 215.38,-928.25 215.38,-928.25 209.38,-928.25 203.38,-922.25 203.38,-916.25 203.38,-916.25 203.38,-876 203.38,-876 203.38,-870 209.38,-864 215.38,-864 215.38,-864 405.38,-864 405.38,-864 411.38,-864 417.38,-870 417.38,-876 417.38,-876 417.38,-916.25 417.38,-916.25 417.38,-922.25 411.38,-928.25 405.38,-928.25"/>
<text text-anchor="middle" x="310.38" y="-914.75" font-family="sans" font-size="10.00">prealignment_pbmarkdup</text>
<text text-anchor="middle" x="310.38" y="-903.5" font-family="sans" font-size="10.00">barcode: NAS</text>
<text text-anchor="middle" x="310.38" y="-892.25" font-family="sans" font-size="10.00">processing_unit: m84045_231122_151755_s3</text>
<text text-anchor="middle" x="310.38" y="-881" font-family="sans" font-size="10.00">sample: 2022.MM.16</text>
<text text-anchor="middle" x="310.38" y="-869.75" font-family="sans" font-size="10.00">type: T</text>
</g>
<!-- 7&#45;&gt;6 -->
<g id="edge16" class="edge">
<title>7&#45;&gt;6</title>
<path fill="none" stroke="grey" stroke-width="2" d="M345.8,-863.08C355.12,-854.65 365.08,-845.64 374.04,-837.53"/>
<polygon fill="grey" stroke="grey" stroke-width="2" points="376.34,-840.17 381.41,-830.87 371.65,-834.98 376.34,-840.17"/>
</g>
<!-- 8 -->
<g id="node9" class="node">
<title>8</title>
<path fill="none" stroke="#b6d856" stroke-width="2" d="M547.38,-914.12C547.38,-914.12 447.38,-914.12 447.38,-914.12 441.38,-914.12 435.38,-908.12 435.38,-902.12 435.38,-902.12 435.38,-890.12 435.38,-890.12 435.38,-884.12 441.38,-878.12 447.38,-878.12 447.38,-878.12 547.38,-878.12 547.38,-878.12 553.38,-878.12 559.38,-884.12 559.38,-890.12 559.38,-890.12 559.38,-902.12 559.38,-902.12 559.38,-908.12 553.38,-914.12 547.38,-914.12"/>
<text text-anchor="middle" x="497.38" y="-892.25" font-family="sans" font-size="10.00">alignment_pbmm2_index</text>
</g>
<!-- 8&#45;&gt;6 -->
<g id="edge17" class="edge">
<title>8&#45;&gt;6</title>
<path fill="none" stroke="grey" stroke-width="2" d="M477.44,-877.28C464.48,-865.68 447.35,-850.36 432.83,-837.36"/>
<polygon fill="grey" stroke="grey" stroke-width="2" points="435.32,-834.89 425.54,-830.83 430.65,-840.11 435.32,-834.89"/>
</g>
<!-- 9&#45;&gt;4 -->
<g id="edge14" class="edge">
<title>9&#45;&gt;4</title>
<path fill="none" stroke="grey" stroke-width="2" d="M338.38,-647.34C338.38,-640.75 338.38,-633.08 338.38,-625.67"/>
<polygon fill="grey" stroke="grey" stroke-width="2" points="341.88,-625.93 338.38,-615.93 334.88,-625.93 341.88,-625.93"/>
</g>
<!-- 10&#45;&gt;2 -->
<g id="edge10" class="edge">
<title>10&#45;&gt;2</title>
<path fill="none" stroke="grey" stroke-width="2" d="M206.35,-431.15C186.59,-422.34 162.51,-411.61 141.34,-402.17"/>
<polygon fill="grey" stroke="grey" stroke-width="2" points="142.92,-399.04 132.36,-398.17 140.07,-405.44 142.92,-399.04"/>
</g>
<!-- 11 -->
<g id="node12" class="node">
<title>11</title>
<path fill="none" stroke="#d8a456" stroke-width="2" d="M477.12,-108C477.12,-108 393.62,-108 393.62,-108 387.62,-108 381.62,-102 381.62,-96 381.62,-96 381.62,-84 381.62,-84 381.62,-78 387.62,-72 393.62,-72 393.62,-72 477.12,-72 477.12,-72 483.12,-72 489.12,-78 489.12,-84 489.12,-84 489.12,-96 489.12,-96 489.12,-102 483.12,-108 477.12,-108"/>
<text text-anchor="middle" x="435.38" y="-91.75" font-family="sans" font-size="10.00">_copy_pbsv_vcf</text>
<text text-anchor="middle" x="435.38" y="-80.5" font-family="sans" font-size="10.00">sample: 2022.MM.16</text>
</g>
<!-- 11&#45;&gt;0 -->
<g id="edge2" class="edge">
<title>11&#45;&gt;0</title>
<path fill="none" stroke="grey" stroke-width="2" d="M435.38,-71.34C435.38,-64.75 435.38,-57.08 435.38,-49.67"/>
<polygon fill="grey" stroke="grey" stroke-width="2" points="438.88,-49.93 435.38,-39.93 431.88,-49.93 438.88,-49.93"/>
</g>
<!-- 12 -->
<g id="node13" class="node">
<title>12</title>
<path fill="none" stroke="#56d87b" stroke-width="2" d="M516.12,-180C516.12,-180 372.62,-180 372.62,-180 366.62,-180 360.62,-174 360.62,-168 360.62,-168 360.62,-156 360.62,-156 360.62,-150 366.62,-144 372.62,-144 372.62,-144 516.12,-144 516.12,-144 522.12,-144 528.12,-150 528.12,-156 528.12,-156 528.12,-168 528.12,-168 528.12,-174 522.12,-180 516.12,-180"/>
<text text-anchor="middle" x="444.38" y="-163.75" font-family="sans" font-size="10.00">cnv_sv_bgzip</text>
<text text-anchor="middle" x="444.38" y="-152.5" font-family="sans" font-size="10.00">file: cnv_sv/pbsv_call/2022.MM.16</text>
</g>
<!-- 12&#45;&gt;11 -->
<g id="edge20" class="edge">
<title>12&#45;&gt;11</title>
<path fill="none" stroke="grey" stroke-width="2" d="M442.1,-143.34C441.26,-136.75 440.27,-129.08 439.32,-121.67"/>
<polygon fill="grey" stroke="grey" stroke-width="2" points="442.81,-121.38 438.06,-111.9 435.87,-122.27 442.81,-121.38"/>
</g>
<!-- 13 -->
<g id="node14" class="node">
<title>13</title>
<path fill="none" stroke="#56d8b9" stroke-width="2" d="M519.38,-252C519.38,-252 449.38,-252 449.38,-252 443.38,-252 437.38,-246 437.38,-240 437.38,-240 437.38,-228 437.38,-228 437.38,-222 443.38,-216 449.38,-216 449.38,-216 519.38,-216 519.38,-216 525.38,-216 531.38,-222 531.38,-228 531.38,-228 531.38,-240 531.38,-240 531.38,-246 525.38,-252 519.38,-252"/>
<text text-anchor="middle" x="484.38" y="-230.12" font-family="sans" font-size="10.00">cnv_sv_pbsv_call</text>
</g>
<!-- 13&#45;&gt;12 -->
<g id="edge21" class="edge">
<title>13&#45;&gt;12</title>
<path fill="none" stroke="grey" stroke-width="2" d="M474.28,-215.34C470.24,-208.26 465.47,-199.92 460.95,-192"/>
<polygon fill="grey" stroke="grey" stroke-width="2" points="464.11,-190.48 456.11,-183.53 458.03,-193.95 464.11,-190.48"/>
</g>
<!-- 14 -->
<g id="node15" class="node">
<title>14</title>
<path fill="none" stroke="#56d8d0" stroke-width="2" d="M530.25,-324C530.25,-324 438.5,-324 438.5,-324 432.5,-324 426.5,-318 426.5,-312 426.5,-312 426.5,-300 426.5,-300 426.5,-294 432.5,-288 438.5,-288 438.5,-288 530.25,-288 530.25,-288 536.25,-288 542.25,-294 542.25,-300 542.25,-300 542.25,-312 542.25,-312 542.25,-318 536.25,-324 530.25,-324"/>
<text text-anchor="middle" x="484.38" y="-302.12" font-family="sans" font-size="10.00">cnv_sv_pbsv_discover</text>
</g>
<!-- 14&#45;&gt;13 -->
<g id="edge22" class="edge">
<title>14&#45;&gt;13</title>
<path fill="none" stroke="grey" stroke-width="2" d="M484.38,-287.34C484.38,-280.75 484.38,-273.08 484.38,-265.67"/>
<polygon fill="grey" stroke="grey" stroke-width="2" points="487.88,-265.93 484.38,-255.93 480.88,-265.93 487.88,-265.93"/>
</g>
<!-- 15&#45;&gt;14 -->
<g id="edge23" class="edge">
<title>15&#45;&gt;14</title>
<path fill="none" stroke="grey" stroke-width="2" d="M543.16,-431.12C556.44,-422.48 570.05,-410.74 577.38,-396 584.5,-381.67 585.41,-373.83 577.38,-360 570.44,-348.07 559.7,-338.6 547.95,-331.17"/>
<polygon fill="grey" stroke="grey" stroke-width="2" points="550.01,-328.31 539.59,-326.4 546.54,-334.39 550.01,-328.31"/>
</g>
<!-- 16 -->
<g id="node17" class="node">
<title>16</title>
<path fill="none" stroke="#80d856" stroke-width="2" d="M555.88,-396C555.88,-396 290.88,-396 290.88,-396 284.88,-396 278.88,-390 278.88,-384 278.88,-384 278.88,-372 278.88,-372 278.88,-366 284.88,-360 290.88,-360 290.88,-360 555.88,-360 555.88,-360 561.88,-360 567.88,-366 567.88,-372 567.88,-372 567.88,-384 567.88,-384 567.88,-390 561.88,-396 555.88,-396"/>
<text text-anchor="middle" x="423.38" y="-379.75" font-family="sans" font-size="10.00">alignment_samtools_index_whatshap</text>
<text text-anchor="middle" x="423.38" y="-368.5" font-family="sans" font-size="10.00">file: annotation/whatshap_haplotag/2022.MM.16_T.haplotagged</text>
</g>
<!-- 15&#45;&gt;16 -->
<g id="edge27" class="edge">
<title>15&#45;&gt;16</title>
<path fill="none" stroke="grey" stroke-width="2" d="M486.18,-431.34C476.6,-423.36 465.1,-413.77 454.56,-404.99"/>
<polygon fill="grey" stroke="grey" stroke-width="2" points="457.11,-402.55 447.18,-398.84 452.62,-407.93 457.11,-402.55"/>
</g>
<!-- 18 -->
<g id="node19" class="node">
<title>18</title>
<path fill="none" stroke="#56d8a9" stroke-width="2" d="M740,-396C740,-396 682.75,-396 682.75,-396 676.75,-396 670.75,-390 670.75,-384 670.75,-384 670.75,-372 670.75,-372 670.75,-366 676.75,-360 682.75,-360 682.75,-360 740,-360 740,-360 746,-360 752,-366 752,-372 752,-372 752,-384 752,-384 752,-390 746,-396 740,-396"/>
<text text-anchor="middle" x="711.38" y="-374.12" font-family="sans" font-size="10.00">cnv_sv_hificnv</text>
</g>
<!-- 15&#45;&gt;18 -->
<g id="edge29" class="edge">
<title>15&#45;&gt;18</title>
<path fill="none" stroke="grey" stroke-width="2" d="M559.65,-431.06C589.73,-420.74 627.47,-407.79 657.78,-397.39"/>
<polygon fill="grey" stroke="grey" stroke-width="2" points="658.66,-400.79 666.98,-394.23 656.39,-394.17 658.66,-400.79"/>
</g>
<!-- 20 -->
<g id="node21" class="node">
<title>20</title>
<path fill="none" stroke="#56d0d8" stroke-width="2" d="M654.12,-324C654.12,-324 588.62,-324 588.62,-324 582.62,-324 576.62,-318 576.62,-312 576.62,-312 576.62,-300 576.62,-300 576.62,-294 582.62,-288 588.62,-288 588.62,-288 654.12,-288 654.12,-288 660.12,-288 666.12,-294 666.12,-300 666.12,-300 666.12,-312 666.12,-312 666.12,-318 660.12,-324 654.12,-324"/>
<text text-anchor="middle" x="621.38" y="-302.12" font-family="sans" font-size="10.00">cnv_sv_sniffles2</text>
</g>
<!-- 15&#45;&gt;20 -->
<g id="edge31" class="edge">
<title>15&#45;&gt;20</title>
<path fill="none" stroke="grey" stroke-width="2" d="M550.15,-431C566,-422.45 582.89,-410.82 594.38,-396 607.44,-379.13 614.21,-355.97 617.7,-337.5"/>
<polygon fill="grey" stroke="grey" stroke-width="2" points="621.14,-338.18 619.27,-327.75 614.23,-337.07 621.14,-338.18"/>
</g>
<!-- 23 -->
<g id="node24" class="node">
<title>23</title>
<path fill="none" stroke="#56d892" stroke-width="2" d="M345.5,-324C345.5,-324 261.25,-324 261.25,-324 255.25,-324 249.25,-318 249.25,-312 249.25,-312 249.25,-300 249.25,-300 249.25,-294 255.25,-288 261.25,-288 261.25,-288 345.5,-288 345.5,-288 351.5,-288 357.5,-294 357.5,-300 357.5,-300 357.5,-312 357.5,-312 357.5,-318 351.5,-324 345.5,-324"/>
<text text-anchor="middle" x="303.38" y="-302.12" font-family="sans" font-size="10.00">cnv_sv_cnvkit_batch</text>
</g>
<!-- 15&#45;&gt;23 -->
<g id="edge35" class="edge">
<title>15&#45;&gt;23</title>
<path fill="none" stroke="grey" stroke-width="2" d="M431.53,-436.95C365.82,-425.74 279.7,-408.88 269.38,-396 255.1,-378.2 266.08,-353.75 279.24,-334.97"/>
<polygon fill="grey" stroke="grey" stroke-width="2" points="281.98,-337.16 285.24,-327.08 276.4,-332.93 281.98,-337.16"/>
</g>
<!-- 16&#45;&gt;14 -->
<g id="edge24" class="edge">
<title>16&#45;&gt;14</title>
<path fill="none" stroke="grey" stroke-width="2" d="M438.77,-359.34C445.29,-351.85 453.05,-342.95 460.3,-334.63"/>
<polygon fill="grey" stroke="grey" stroke-width="2" points="462.86,-337.02 466.79,-327.18 457.58,-332.42 462.86,-337.02"/>
</g>
<!-- 16&#45;&gt;20 -->
<g id="edge32" class="edge">
<title>16&#45;&gt;20</title>
<path fill="none" stroke="grey" stroke-width="2" d="M474.11,-359.06C501.46,-349.4 535.31,-337.43 563.66,-327.4"/>
<polygon fill="grey" stroke="grey" stroke-width="2" points="564.73,-330.74 572.99,-324.11 562.4,-324.14 564.73,-330.74"/>
</g>
<!-- 16&#45;&gt;23 -->
<g id="edge36" class="edge">
<title>16&#45;&gt;23</title>
<path fill="none" stroke="grey" stroke-width="2" d="M392.78,-359.15C378.26,-350.68 360.67,-340.42 344.95,-331.25"/>
<polygon fill="grey" stroke="grey" stroke-width="2" points="346.93,-328.35 336.53,-326.34 343.4,-334.4 346.93,-328.35"/>
</g>
<!-- 17 -->
<g id="node18" class="node">
<title>17</title>
<path fill="none" stroke="#d87d56" stroke-width="2" d="M750.75,-108C750.75,-108 680,-108 680,-108 674,-108 668,-102 668,-96 668,-96 668,-84 668,-84 668,-78 674,-72 680,-72 680,-72 750.75,-72 750.75,-72 756.75,-72 762.75,-78 762.75,-84 762.75,-84 762.75,-96 762.75,-96 762.75,-102 756.75,-108 750.75,-108"/>
<text text-anchor="middle" x="715.38" y="-86.12" font-family="sans" font-size="10.00">_copy_hificnv_vcf</text>
</g>
<!-- 17&#45;&gt;0 -->
<g id="edge3" class="edge">
<title>17&#45;&gt;0</title>
<path fill="none" stroke="grey" stroke-width="2" d="M667.25,-75.89C662.23,-74.56 657.2,-73.24 652.38,-72 590.93,-56.21 519.41,-38.96 475.78,-28.56"/>
<polygon fill="grey" stroke="grey" stroke-width="2" points="476.66,-25.17 466.12,-26.26 475.04,-31.98 476.66,-25.17"/>
</g>
<!-- 18&#45;&gt;17 -->
<g id="edge28" class="edge">
<title>18&#45;&gt;17</title>
<path fill="none" stroke="grey" stroke-width="2" d="M711.63,-359.11C712.29,-311.56 714.11,-181.6 714.94,-121.83"/>
<polygon fill="grey" stroke="grey" stroke-width="2" points="718.44,-121.96 715.08,-111.91 711.44,-121.86 718.44,-121.96"/>
</g>
<!-- 19 -->
<g id="node20" class="node">
<title>19</title>
<path fill="none" stroke="#d8cb56" stroke-width="2" d="M677.88,-180C677.88,-180 598.88,-180 598.88,-180 592.88,-180 586.88,-174 586.88,-168 586.88,-168 586.88,-156 586.88,-156 586.88,-150 592.88,-144 598.88,-144 598.88,-144 677.88,-144 677.88,-144 683.88,-144 689.88,-150 689.88,-156 689.88,-156 689.88,-168 689.88,-168 689.88,-174 683.88,-180 677.88,-180"/>
<text text-anchor="middle" x="638.38" y="-158.12" font-family="sans" font-size="10.00">_copy_sniffles2_vcf</text>
</g>
<!-- 19&#45;&gt;0 -->
<g id="edge4" class="edge">
<title>19&#45;&gt;0</title>
<path fill="none" stroke="grey" stroke-width="2" d="M639.61,-143.21C639.97,-123.29 637.37,-91.3 619.38,-72 582.45,-32.4 518.03,-21.73 476.05,-19.22"/>
<polygon fill="grey" stroke="grey" stroke-width="2" points="476.44,-15.73 466.3,-18.79 476.13,-22.72 476.44,-15.73"/>
</g>
<!-- 20&#45;&gt;19 -->
<g id="edge30" class="edge">
<title>20&#45;&gt;19</title>
<path fill="none" stroke="grey" stroke-width="2" d="M623.53,-287.02C626.34,-263.54 631.3,-222.11 634.71,-193.64"/>
<polygon fill="grey" stroke="grey" stroke-width="2" points="638.17,-194.19 635.88,-183.84 631.22,-193.36 638.17,-194.19"/>
</g>
<!-- 21 -->
<g id="node22" class="node">
<title>21</title>
<path fill="none" stroke="#d8bc56" stroke-width="2" d="M597.88,-108C597.88,-108 518.88,-108 518.88,-108 512.88,-108 506.88,-102 506.88,-96 506.88,-96 506.88,-84 506.88,-84 506.88,-78 512.88,-72 518.88,-72 518.88,-72 597.88,-72 597.88,-72 603.88,-72 609.88,-78 609.88,-84 609.88,-84 609.88,-96 609.88,-96 609.88,-102 603.88,-108 597.88,-108"/>
<text text-anchor="middle" x="558.38" y="-86.12" font-family="sans" font-size="10.00">_copy_sniffles2_snf</text>
</g>
<!-- 20&#45;&gt;21 -->
<g id="edge33" class="edge">
<title>20&#45;&gt;21</title>
<path fill="none" stroke="grey" stroke-width="2" d="M614.63,-287.39C605.58,-263.37 589.39,-218.86 578.38,-180 572.92,-160.76 567.98,-138.86 564.38,-121.59"/>
<polygon fill="grey" stroke="grey" stroke-width="2" points="567.82,-120.94 562.39,-111.84 560.96,-122.34 567.82,-120.94"/>
</g>
<!-- 21&#45;&gt;0 -->
<g id="edge5" class="edge">
<title>21&#45;&gt;0</title>
<path fill="none" stroke="grey" stroke-width="2" d="M527.02,-71.15C511.06,-62.07 491.5,-50.94 474.55,-41.3"/>
<polygon fill="grey" stroke="grey" stroke-width="2" points="476.37,-38.3 465.95,-36.4 472.91,-44.39 476.37,-38.3"/>
</g>
<!-- 22 -->
<g id="node23" class="node">
<title>22</title>
<path fill="none" stroke="#d85656" stroke-width="2" d="M407.25,-252C407.25,-252 249.5,-252 249.5,-252 243.5,-252 237.5,-246 237.5,-240 237.5,-240 237.5,-228 237.5,-228 237.5,-222 243.5,-216 249.5,-216 249.5,-216 407.25,-216 407.25,-216 413.25,-216 419.25,-222 419.25,-228 419.25,-228 419.25,-240 419.25,-240 419.25,-246 413.25,-252 407.25,-252"/>
<text text-anchor="middle" x="328.38" y="-230.12" font-family="sans" font-size="10.00">_copy_cnvkit_batch_segments_called</text>
</g>
<!-- 22&#45;&gt;0 -->
<g id="edge6" class="edge">
<title>22&#45;&gt;0</title>
<path fill="none" stroke="grey" stroke-width="2" d="M329.69,-215.12C332.74,-183.77 342.47,-117.88 372.38,-72 379.02,-61.8 388.22,-52.52 397.54,-44.68"/>
<polygon fill="grey" stroke="grey" stroke-width="2" points="399.52,-47.57 405.2,-38.63 395.19,-42.07 399.52,-47.57"/>
</g>
<!-- 23&#45;&gt;22 -->
<g id="edge34" class="edge">
<title>23&#45;&gt;22</title>
<path fill="none" stroke="grey" stroke-width="2" d="M309.68,-287.34C312.09,-280.59 314.91,-272.69 317.62,-265.11"/>
<polygon fill="grey" stroke="grey" stroke-width="2" points="320.9,-266.35 320.96,-255.75 314.3,-263.99 320.9,-266.35"/>
</g>
<!-- 24 -->
<g id="node25" class="node">
<title>24</title>
<path fill="none" stroke="#d86e56" stroke-width="2" d="M207.38,-252C207.38,-252 53.37,-252 53.37,-252 47.37,-252 41.38,-246 41.38,-240 41.38,-240 41.38,-228 41.38,-228 41.38,-222 47.38,-216 53.38,-216 53.38,-216 207.38,-216 207.38,-216 213.38,-216 219.38,-222 219.38,-228 219.38,-228 219.38,-240 219.38,-240 219.38,-246 213.38,-252 207.38,-252"/>
<text text-anchor="middle" x="130.38" y="-230.12" font-family="sans" font-size="10.00">_copy_cnvkit_batch_target_coverage</text>
</g>
<!-- 23&#45;&gt;24 -->
<g id="edge37" class="edge">
<title>23&#45;&gt;24</title>
<path fill="none" stroke="grey" stroke-width="2" d="M259.27,-287.15C237.19,-278.22 210.22,-267.31 186.66,-257.77"/>
<polygon fill="grey" stroke="grey" stroke-width="2" points="188.09,-254.58 177.5,-254.07 185.46,-261.06 188.09,-254.58"/>
</g>
<!-- 24&#45;&gt;0 -->
<g id="edge7" class="edge">
<title>24&#45;&gt;0</title>
<path fill="none" stroke="grey" stroke-width="2" d="M153.73,-215.02C193.47,-184.64 277.06,-121.58 350.38,-72 365.3,-61.91 382.06,-51.3 396.73,-42.26"/>
<polygon fill="grey" stroke="grey" stroke-width="2" points="398.2,-45.46 404.9,-37.26 394.54,-39.49 398.2,-45.46"/>
</g>
</g>
</svg>
