<?xml version="1.0" encoding="UTF-8" standalone="no"?>
<!DOCTYPE svg PUBLIC "-//W3C//DTD SVG 1.1//EN"
 "http://www.w3.org/Graphics/SVG/1.1/DTD/svg11.dtd">
<!-- Generated by graphviz version 12.2.1 (20241206.2353)
 -->
<!-- Title: snakemake_dag Pages: 1 -->
<svg width="1125pt" height="349pt"
 viewBox="0.00 0.00 1124.65 349.25" xmlns="http://www.w3.org/2000/svg" xmlns:xlink="http://www.w3.org/1999/xlink">
<g id="graph0" class="graph" transform="scale(1 1) rotate(0) translate(4 345.25)">
<title>snakemake_dag</title>
<polygon fill="white" stroke="none" points="-4,4 -4,-345.25 1120.65,-345.25 1120.65,4 -4,4"/>
<!-- 0 -->
<g id="node1" class="node">
<title>0</title>
<path fill="none" stroke="#d86e56" stroke-width="2" d="M604.65,-36C604.65,-36 574.65,-36 574.65,-36 568.65,-36 562.65,-30 562.65,-24 562.65,-24 562.65,-12 562.65,-12 562.65,-6 568.65,0 574.65,0 574.65,0 604.65,0 604.65,0 610.65,0 616.65,-6 616.65,-12 616.65,-12 616.65,-24 616.65,-24 616.65,-30 610.65,-36 604.65,-36"/>
<text text-anchor="middle" x="589.65" y="-14.12" font-family="sans" font-size="10.00">all</text>
</g>
<!-- 1 -->
<g id="node2" class="node">
<title>1</title>
<path fill="none" stroke="#56c1d8" stroke-width="2" d="M193.4,-108C193.4,-108 109.9,-108 109.9,-108 103.9,-108 97.9,-102 97.9,-96 97.9,-96 97.9,-84 97.9,-84 97.9,-78 103.9,-72 109.9,-72 109.9,-72 193.4,-72 193.4,-72 199.4,-72 205.4,-78 205.4,-84 205.4,-84 205.4,-96 205.4,-96 205.4,-102 199.4,-108 193.4,-108"/>
<text text-anchor="middle" x="151.65" y="-91.75" font-family="sans" font-size="10.00">_copy_indel_vcf</text>
<text text-anchor="middle" x="151.65" y="-80.5" font-family="sans" font-size="10.00">sample: 2022.MM.16</text>
</g>
<!-- 1&#45;&gt;0 -->
<g id="edge1" class="edge">
<title>1&#45;&gt;0</title>
<path fill="none" stroke="grey" stroke-width="2" d="M206.38,-76.74C214.5,-75.06 222.79,-73.43 230.65,-72 345.78,-51.14 482.79,-32.65 549.36,-24.07"/>
<polygon fill="grey" stroke="grey" stroke-width="2" points="549.6,-27.57 559.08,-22.83 548.71,-20.63 549.6,-27.57"/>
</g>
<!-- 2 -->
<g id="node3" class="node">
<title>2</title>
<path fill="none" stroke="#bed856" stroke-width="2" d="M171.4,-182.88C171.4,-182.88 99.9,-182.88 99.9,-182.88 93.9,-182.88 87.9,-176.88 87.9,-170.88 87.9,-170.88 87.9,-158.88 87.9,-158.88 87.9,-152.88 93.9,-146.88 99.9,-146.88 99.9,-146.88 171.4,-146.88 171.4,-146.88 177.4,-146.88 183.4,-152.88 183.4,-158.88 183.4,-158.88 183.4,-170.88 183.4,-170.88 183.4,-176.88 177.4,-182.88 171.4,-182.88"/>
<text text-anchor="middle" x="135.65" y="-166.62" font-family="sans" font-size="10.00">filter_deepsomatic</text>
<text text-anchor="middle" x="135.65" y="-155.38" font-family="sans" font-size="10.00">tag: panel</text>
</g>
<!-- 2&#45;&gt;1 -->
<g id="edge9" class="edge">
<title>2&#45;&gt;1</title>
<path fill="none" stroke="grey" stroke-width="2" d="M139.53,-146.23C141.15,-138.83 143.09,-129.99 144.94,-121.58"/>
<polygon fill="grey" stroke="grey" stroke-width="2" points="148.33,-122.46 147.06,-111.94 141.49,-120.96 148.33,-122.46"/>
</g>
<!-- 3 -->
<g id="node4" class="node">
<title>3</title>
<path fill="none" stroke="#568ad8" stroke-width="2" d="M103.4,-338.38C103.4,-338.38 19.9,-338.38 19.9,-338.38 13.9,-338.38 7.9,-332.38 7.9,-326.38 7.9,-326.38 7.9,-314.38 7.9,-314.38 7.9,-308.38 13.9,-302.38 19.9,-302.38 19.9,-302.38 103.4,-302.38 103.4,-302.38 109.4,-302.38 115.4,-308.38 115.4,-314.38 115.4,-314.38 115.4,-326.38 115.4,-326.38 115.4,-332.38 109.4,-338.38 103.4,-338.38"/>
<text text-anchor="middle" x="61.65" y="-322.12" font-family="sans" font-size="10.00">deepsomatic_t_only</text>
<text text-anchor="middle" x="61.65" y="-310.88" font-family="sans" font-size="10.00">sample: 2022.MM.16</text>
</g>
<!-- 3&#45;&gt;2 -->
<g id="edge10" class="edge">
<title>3&#45;&gt;2</title>
<path fill="none" stroke="grey" stroke-width="2" d="M36.82,-301.62C25.32,-291.84 12.84,-278.62 6.65,-263.5 -0.38,-246.33 -3.53,-237.26 6.65,-221.75 21.91,-198.52 49.11,-184.9 74.62,-176.94"/>
<polygon fill="grey" stroke="grey" stroke-width="2" points="75.36,-180.37 84.03,-174.29 73.46,-173.63 75.36,-180.37"/>
</g>
<!-- 4 -->
<g id="node5" class="node">
<title>4</title>
<path fill="none" stroke="#56d8d8" stroke-width="2" d="M243.4,-260.62C243.4,-260.62 27.9,-260.62 27.9,-260.62 21.9,-260.62 15.9,-254.62 15.9,-248.62 15.9,-248.62 15.9,-236.62 15.9,-236.62 15.9,-230.62 21.9,-224.62 27.9,-224.62 27.9,-224.62 243.4,-224.62 243.4,-224.62 249.4,-224.62 255.4,-230.62 255.4,-236.62 255.4,-236.62 255.4,-248.62 255.4,-248.62 255.4,-254.62 249.4,-260.62 243.4,-260.62"/>
<text text-anchor="middle" x="135.65" y="-244.38" font-family="sans" font-size="10.00">index_deepsomatic</text>
<text text-anchor="middle" x="135.65" y="-233.12" font-family="sans" font-size="10.00">file: snv_indels/deepsomatic_t_only/2022.MM.16_T</text>
</g>
<!-- 3&#45;&gt;4 -->
<g id="edge12" class="edge">
<title>3&#45;&gt;4</title>
<path fill="none" stroke="grey" stroke-width="2" d="M79.19,-301.42C88.13,-292.27 99.19,-280.95 109.14,-270.76"/>
<polygon fill="grey" stroke="grey" stroke-width="2" points="111.64,-273.21 116.13,-263.61 106.64,-268.32 111.64,-273.21"/>
</g>
<!-- 4&#45;&gt;2 -->
<g id="edge11" class="edge">
<title>4&#45;&gt;2</title>
<path fill="none" stroke="grey" stroke-width="2" d="M135.65,-223.67C135.65,-215.56 135.65,-205.74 135.65,-196.52"/>
<polygon fill="grey" stroke="grey" stroke-width="2" points="139.15,-196.72 135.65,-186.72 132.15,-196.72 139.15,-196.72"/>
</g>
<!-- 5 -->
<g id="node6" class="node">
<title>5</title>
<path fill="none" stroke="#59d856" stroke-width="2" d="M335.4,-108C335.4,-108 251.9,-108 251.9,-108 245.9,-108 239.9,-102 239.9,-96 239.9,-96 239.9,-84 239.9,-84 239.9,-78 245.9,-72 251.9,-72 251.9,-72 335.4,-72 335.4,-72 341.4,-72 347.4,-78 347.4,-84 347.4,-84 347.4,-96 347.4,-96 347.4,-102 341.4,-108 335.4,-108"/>
<text text-anchor="middle" x="293.65" y="-91.75" font-family="sans" font-size="10.00">_copy_pbsv_vcf</text>
<text text-anchor="middle" x="293.65" y="-80.5" font-family="sans" font-size="10.00">sample: 2022.MM.16</text>
</g>
<!-- 5&#45;&gt;0 -->
<g id="edge2" class="edge">
<title>5&#45;&gt;0</title>
<path fill="none" stroke="grey" stroke-width="2" d="M348.25,-74.12C351.09,-73.39 353.91,-72.68 356.65,-72 424.04,-55.25 502.91,-37.75 549.44,-27.64"/>
<polygon fill="grey" stroke="grey" stroke-width="2" points="549.96,-31.11 558.99,-25.57 548.48,-24.26 549.96,-31.11"/>
</g>
<!-- 6 -->
<g id="node7" class="node">
<title>6</title>
<path fill="none" stroke="#d8bc56" stroke-width="2" d="M365.4,-182.88C365.4,-182.88 221.9,-182.88 221.9,-182.88 215.9,-182.88 209.9,-176.88 209.9,-170.88 209.9,-170.88 209.9,-158.88 209.9,-158.88 209.9,-152.88 215.9,-146.88 221.9,-146.88 221.9,-146.88 365.4,-146.88 365.4,-146.88 371.4,-146.88 377.4,-152.88 377.4,-158.88 377.4,-158.88 377.4,-170.88 377.4,-170.88 377.4,-176.88 371.4,-182.88 365.4,-182.88"/>
<text text-anchor="middle" x="293.65" y="-166.62" font-family="sans" font-size="10.00">bgzip</text>
<text text-anchor="middle" x="293.65" y="-155.38" font-family="sans" font-size="10.00">file: cnv_sv/pbsv_call/2022.MM.16</text>
</g>
<!-- 6&#45;&gt;5 -->
<g id="edge13" class="edge">
<title>6&#45;&gt;5</title>
<path fill="none" stroke="grey" stroke-width="2" d="M293.65,-146.23C293.65,-138.91 293.65,-130.2 293.65,-121.88"/>
<polygon fill="grey" stroke="grey" stroke-width="2" points="297.15,-122.01 293.65,-112.01 290.15,-122.01 297.15,-122.01"/>
</g>
<!-- 7 -->
<g id="node8" class="node">
<title>7</title>
<path fill="none" stroke="#56d8c1" stroke-width="2" d="M318.28,-260.62C318.28,-260.62 285.03,-260.62 285.03,-260.62 279.03,-260.62 273.03,-254.62 273.03,-248.62 273.03,-248.62 273.03,-236.62 273.03,-236.62 273.03,-230.62 279.03,-224.62 285.03,-224.62 285.03,-224.62 318.28,-224.62 318.28,-224.62 324.28,-224.62 330.28,-230.62 330.28,-236.62 330.28,-236.62 330.28,-248.62 330.28,-248.62 330.28,-254.62 324.28,-260.62 318.28,-260.62"/>
<text text-anchor="middle" x="301.65" y="-238.75" font-family="sans" font-size="10.00">pbsv_call</text>
</g>
<!-- 7&#45;&gt;6 -->
<g id="edge14" class="edge">
<title>7&#45;&gt;6</title>
<path fill="none" stroke="grey" stroke-width="2" d="M299.76,-223.67C298.9,-215.56 297.86,-205.74 296.89,-196.52"/>
<polygon fill="grey" stroke="grey" stroke-width="2" points="300.38,-196.29 295.85,-186.71 293.42,-197.02 300.38,-196.29"/>
</g>
<!-- 8 -->
<g id="node9" class="node">
<title>8</title>
<path fill="none" stroke="#56d8a2" stroke-width="2" d="M343.4,-341.25C343.4,-341.25 259.9,-341.25 259.9,-341.25 253.9,-341.25 247.9,-335.25 247.9,-329.25 247.9,-329.25 247.9,-311.5 247.9,-311.5 247.9,-305.5 253.9,-299.5 259.9,-299.5 259.9,-299.5 343.4,-299.5 343.4,-299.5 349.4,-299.5 355.4,-305.5 355.4,-311.5 355.4,-311.5 355.4,-329.25 355.4,-329.25 355.4,-335.25 349.4,-341.25 343.4,-341.25"/>
<text text-anchor="middle" x="301.65" y="-327.75" font-family="sans" font-size="10.00">pbsv_discover</text>
<text text-anchor="middle" x="301.65" y="-316.5" font-family="sans" font-size="10.00">sample: 2022.MM.16</text>
<text text-anchor="middle" x="301.65" y="-305.25" font-family="sans" font-size="10.00">type: T</text>
</g>
<!-- 8&#45;&gt;7 -->
<g id="edge15" class="edge">
<title>8&#45;&gt;7</title>
<path fill="none" stroke="grey" stroke-width="2" d="M301.65,-298.68C301.65,-291.21 301.65,-282.62 301.65,-274.47"/>
<polygon fill="grey" stroke="grey" stroke-width="2" points="305.15,-274.5 301.65,-264.5 298.15,-274.5 305.15,-274.5"/>
</g>
<!-- 9 -->
<g id="node10" class="node">
<title>9</title>
<path fill="none" stroke="#5673d8" stroke-width="2" d="M448.03,-108C448.03,-108 377.28,-108 377.28,-108 371.28,-108 365.28,-102 365.28,-96 365.28,-96 365.28,-84 365.28,-84 365.28,-78 371.28,-72 377.28,-72 377.28,-72 448.03,-72 448.03,-72 454.03,-72 460.03,-78 460.03,-84 460.03,-84 460.03,-96 460.03,-96 460.03,-102 454.03,-108 448.03,-108"/>
<text text-anchor="middle" x="412.65" y="-86.12" font-family="sans" font-size="10.00">_copy_hificnv_vcf</text>
</g>
<!-- 9&#45;&gt;0 -->
<g id="edge3" class="edge">
<title>9&#45;&gt;0</title>
<path fill="none" stroke="grey" stroke-width="2" d="M457.78,-71.15C486.2,-59.91 522.55,-45.54 549.89,-34.73"/>
<polygon fill="grey" stroke="grey" stroke-width="2" points="550.93,-38.08 558.94,-31.15 548.35,-31.57 550.93,-38.08"/>
</g>
<!-- 10 -->
<g id="node11" class="node">
<title>10</title>
<path fill="none" stroke="#a7d856" stroke-width="2" d="M491.4,-185.75C491.4,-185.75 407.9,-185.75 407.9,-185.75 401.9,-185.75 395.9,-179.75 395.9,-173.75 395.9,-173.75 395.9,-156 395.9,-156 395.9,-150 401.9,-144 407.9,-144 407.9,-144 491.4,-144 491.4,-144 497.4,-144 503.4,-150 503.4,-156 503.4,-156 503.4,-173.75 503.4,-173.75 503.4,-179.75 497.4,-185.75 491.4,-185.75"/>
<text text-anchor="middle" x="449.65" y="-172.25" font-family="sans" font-size="10.00">hificnv</text>
<text text-anchor="middle" x="449.65" y="-161" font-family="sans" font-size="10.00">sample: 2022.MM.16</text>
<text text-anchor="middle" x="449.65" y="-149.75" font-family="sans" font-size="10.00">type: T</text>
</g>
<!-- 10&#45;&gt;9 -->
<g id="edge16" class="edge">
<title>10&#45;&gt;9</title>
<path fill="none" stroke="grey" stroke-width="2" d="M439.15,-143.19C435.5,-136.01 431.35,-127.82 427.42,-120.09"/>
<polygon fill="grey" stroke="grey" stroke-width="2" points="430.57,-118.56 422.92,-111.23 424.33,-121.73 430.57,-118.56"/>
</g>
<!-- 11 -->
<g id="node12" class="node">
<title>11</title>
<path fill="none" stroke="#d8a456" stroke-width="2" d="M569.15,-108C569.15,-108 490.15,-108 490.15,-108 484.15,-108 478.15,-102 478.15,-96 478.15,-96 478.15,-84 478.15,-84 478.15,-78 484.15,-72 490.15,-72 490.15,-72 569.15,-72 569.15,-72 575.15,-72 581.15,-78 581.15,-84 581.15,-84 581.15,-96 581.15,-96 581.15,-102 575.15,-108 569.15,-108"/>
<text text-anchor="middle" x="529.65" y="-86.12" font-family="sans" font-size="10.00">_copy_sniffles2_vcf</text>
</g>
<!-- 11&#45;&gt;0 -->
<g id="edge4" class="edge">
<title>11&#45;&gt;0</title>
<path fill="none" stroke="grey" stroke-width="2" d="M544.79,-71.34C551.21,-63.85 558.84,-54.95 565.97,-46.63"/>
<polygon fill="grey" stroke="grey" stroke-width="2" points="568.49,-49.07 572.34,-39.2 563.17,-44.51 568.49,-49.07"/>
</g>
<!-- 12 -->
<g id="node13" class="node">
<title>12</title>
<path fill="none" stroke="#56d88a" stroke-width="2" d="M655.4,-185.75C655.4,-185.75 571.9,-185.75 571.9,-185.75 565.9,-185.75 559.9,-179.75 559.9,-173.75 559.9,-173.75 559.9,-156 559.9,-156 559.9,-150 565.9,-144 571.9,-144 571.9,-144 655.4,-144 655.4,-144 661.4,-144 667.4,-150 667.4,-156 667.4,-156 667.4,-173.75 667.4,-173.75 667.4,-179.75 661.4,-185.75 655.4,-185.75"/>
<text text-anchor="middle" x="613.65" y="-172.25" font-family="sans" font-size="10.00">sniffles2</text>
<text text-anchor="middle" x="613.65" y="-161" font-family="sans" font-size="10.00">sample: 2022.MM.16</text>
<text text-anchor="middle" x="613.65" y="-149.75" font-family="sans" font-size="10.00">type: T</text>
</g>
<!-- 12&#45;&gt;11 -->
<g id="edge17" class="edge">
<title>12&#45;&gt;11</title>
<path fill="none" stroke="grey" stroke-width="2" d="M589.81,-143.19C580.52,-135.13 569.77,-125.8 559.94,-117.28"/>
<polygon fill="grey" stroke="grey" stroke-width="2" points="562.27,-114.67 552.43,-110.76 557.69,-119.95 562.27,-114.67"/>
</g>
<!-- 13 -->
<g id="node14" class="node">
<title>13</title>
<path fill="none" stroke="#56a2d8" stroke-width="2" d="M690.15,-108C690.15,-108 611.15,-108 611.15,-108 605.15,-108 599.15,-102 599.15,-96 599.15,-96 599.15,-84 599.15,-84 599.15,-78 605.15,-72 611.15,-72 611.15,-72 690.15,-72 690.15,-72 696.15,-72 702.15,-78 702.15,-84 702.15,-84 702.15,-96 702.15,-96 702.15,-102 696.15,-108 690.15,-108"/>
<text text-anchor="middle" x="650.65" y="-86.12" font-family="sans" font-size="10.00">_copy_sniffles2_snf</text>
</g>
<!-- 12&#45;&gt;13 -->
<g id="edge18" class="edge">
<title>12&#45;&gt;13</title>
<path fill="none" stroke="grey" stroke-width="2" d="M624.16,-143.19C627.8,-136.01 631.96,-127.82 635.89,-120.09"/>
<polygon fill="grey" stroke="grey" stroke-width="2" points="638.98,-121.73 640.38,-111.23 632.73,-118.56 638.98,-121.73"/>
</g>
<!-- 13&#45;&gt;0 -->
<g id="edge5" class="edge">
<title>13&#45;&gt;0</title>
<path fill="none" stroke="grey" stroke-width="2" d="M635.26,-71.34C628.74,-63.85 620.98,-54.95 613.73,-46.63"/>
<polygon fill="grey" stroke="grey" stroke-width="2" points="616.45,-44.42 607.24,-39.18 611.17,-49.02 616.45,-44.42"/>
</g>
<!-- 14 -->
<g id="node15" class="node">
<title>14</title>
<path fill="none" stroke="#d85656" stroke-width="2" d="M889.53,-108C889.53,-108 731.78,-108 731.78,-108 725.78,-108 719.78,-102 719.78,-96 719.78,-96 719.78,-84 719.78,-84 719.78,-78 725.78,-72 731.78,-72 731.78,-72 889.53,-72 889.53,-72 895.53,-72 901.53,-78 901.53,-84 901.53,-84 901.53,-96 901.53,-96 901.53,-102 895.53,-108 889.53,-108"/>
<text text-anchor="middle" x="810.65" y="-86.12" font-family="sans" font-size="10.00">_copy_cnvkit_batch_segments_called</text>
</g>
<!-- 14&#45;&gt;0 -->
<g id="edge6" class="edge">
<title>14&#45;&gt;0</title>
<path fill="none" stroke="grey" stroke-width="2" d="M754.03,-71.06C715.07,-58.73 664.29,-42.64 629.54,-31.63"/>
<polygon fill="grey" stroke="grey" stroke-width="2" points="630.99,-28.42 620.4,-28.74 628.88,-35.1 630.99,-28.42"/>
</g>
<!-- 15 -->
<g id="node16" class="node">
<title>15</title>
<path fill="none" stroke="#d6d856" stroke-width="2" d="M969.4,-263.5C969.4,-263.5 885.9,-263.5 885.9,-263.5 879.9,-263.5 873.9,-257.5 873.9,-251.5 873.9,-251.5 873.9,-233.75 873.9,-233.75 873.9,-227.75 879.9,-221.75 885.9,-221.75 885.9,-221.75 969.4,-221.75 969.4,-221.75 975.4,-221.75 981.4,-227.75 981.4,-233.75 981.4,-233.75 981.4,-251.5 981.4,-251.5 981.4,-257.5 975.4,-263.5 969.4,-263.5"/>
<text text-anchor="middle" x="927.65" y="-250" font-family="sans" font-size="10.00">cnvkit_batch</text>
<text text-anchor="middle" x="927.65" y="-238.75" font-family="sans" font-size="10.00">sample: 2022.MM.16</text>
<text text-anchor="middle" x="927.65" y="-227.5" font-family="sans" font-size="10.00">type: T</text>
</g>
<!-- 15&#45;&gt;14 -->
<g id="edge19" class="edge">
<title>15&#45;&gt;14</title>
<path fill="none" stroke="grey" stroke-width="2" d="M873.05,-221.02C856.85,-212.42 840.54,-200.84 829.65,-185.75 816.25,-167.18 811.74,-141.48 810.45,-121.52"/>
<polygon fill="grey" stroke="grey" stroke-width="2" points="813.95,-121.69 810.1,-111.81 806.96,-121.93 813.95,-121.69"/>
</g>
<!-- 16 -->
<g id="node17" class="node">
<title>16</title>
<path fill="none" stroke="#88d856" stroke-width="2" d="M1004.65,-182.88C1004.65,-182.88 850.65,-182.88 850.65,-182.88 844.65,-182.88 838.65,-176.88 838.65,-170.88 838.65,-170.88 838.65,-158.88 838.65,-158.88 838.65,-152.88 844.65,-146.88 850.65,-146.88 850.65,-146.88 1004.65,-146.88 1004.65,-146.88 1010.65,-146.88 1016.65,-152.88 1016.65,-158.88 1016.65,-158.88 1016.65,-170.88 1016.65,-170.88 1016.65,-176.88 1010.65,-182.88 1004.65,-182.88"/>
<text text-anchor="middle" x="927.65" y="-161" font-family="sans" font-size="10.00">_copy_cnvkit_batch_target_coverage</text>
</g>
<!-- 15&#45;&gt;16 -->
<g id="edge20" class="edge">
<title>15&#45;&gt;16</title>
<path fill="none" stroke="grey" stroke-width="2" d="M927.65,-220.93C927.65,-213.46 927.65,-204.87 927.65,-196.72"/>
<polygon fill="grey" stroke="grey" stroke-width="2" points="931.15,-196.75 927.65,-186.75 924.15,-196.75 931.15,-196.75"/>
</g>
<!-- 18 -->
<g id="node19" class="node">
<title>18</title>
<path fill="none" stroke="#d88d56" stroke-width="2" d="M1104.65,-182.88C1104.65,-182.88 1046.65,-182.88 1046.65,-182.88 1040.65,-182.88 1034.65,-176.88 1034.65,-170.88 1034.65,-170.88 1034.65,-158.88 1034.65,-158.88 1034.65,-152.88 1040.65,-146.88 1046.65,-146.88 1046.65,-146.88 1104.65,-146.88 1104.65,-146.88 1110.65,-146.88 1116.65,-152.88 1116.65,-158.88 1116.65,-158.88 1116.65,-170.88 1116.65,-170.88 1116.65,-176.88 1110.65,-182.88 1104.65,-182.88"/>
<text text-anchor="middle" x="1075.65" y="-161" font-family="sans" font-size="10.00">cnvkit_diagram</text>
</g>
<!-- 15&#45;&gt;18 -->
<g id="edge22" class="edge">
<title>15&#45;&gt;18</title>
<path fill="none" stroke="grey" stroke-width="2" d="M968.1,-220.93C987.04,-211.23 1009.7,-199.63 1029.33,-189.58"/>
<polygon fill="grey" stroke="grey" stroke-width="2" points="1030.79,-192.77 1038.1,-185.1 1027.6,-186.54 1030.79,-192.77"/>
</g>
<!-- 16&#45;&gt;0 -->
<g id="edge7" class="edge">
<title>16&#45;&gt;0</title>
<path fill="none" stroke="grey" stroke-width="2" d="M929.88,-145.91C931.36,-125.09 930.22,-91.2 910.65,-72 871.61,-33.71 708,-23.02 630.59,-20.09"/>
<polygon fill="grey" stroke="grey" stroke-width="2" points="630.76,-16.59 620.64,-19.74 630.52,-23.59 630.76,-16.59"/>
</g>
<!-- 17 -->
<g id="node18" class="node">
<title>17</title>
<path fill="none" stroke="#70d856" stroke-width="2" d="M1090.4,-108C1090.4,-108 1000.9,-108 1000.9,-108 994.9,-108 988.9,-102 988.9,-96 988.9,-96 988.9,-84 988.9,-84 988.9,-78 994.9,-72 1000.9,-72 1000.9,-72 1090.4,-72 1090.4,-72 1096.4,-72 1102.4,-78 1102.4,-84 1102.4,-84 1102.4,-96 1102.4,-96 1102.4,-102 1096.4,-108 1090.4,-108"/>
<text text-anchor="middle" x="1045.65" y="-86.12" font-family="sans" font-size="10.00">_copy_cnvkit_diagram</text>
</g>
<!-- 17&#45;&gt;0 -->
<g id="edge8" class="edge">
<title>17&#45;&gt;0</title>
<path fill="none" stroke="grey" stroke-width="2" d="M987.96,-79.21C973.5,-76.81 958.02,-74.27 943.65,-72 829.95,-54.01 695.45,-34.31 629.78,-24.79"/>
<polygon fill="grey" stroke="grey" stroke-width="2" points="630.61,-21.37 620.21,-23.4 629.61,-28.3 630.61,-21.37"/>
</g>
<!-- 18&#45;&gt;17 -->
<g id="edge21" class="edge">
<title>18&#45;&gt;17</title>
<path fill="none" stroke="grey" stroke-width="2" d="M1068.39,-146.23C1065.27,-138.65 1061.53,-129.57 1058,-120.98"/>
<polygon fill="grey" stroke="grey" stroke-width="2" points="1061.25,-119.7 1054.21,-111.78 1054.78,-122.36 1061.25,-119.7"/>
</g>
</g>
</svg>
