<?xml version="1.0" encoding="UTF-8" standalone="no"?>
<!DOCTYPE svg PUBLIC "-//W3C//DTD SVG 1.1//EN"
 "http://www.w3.org/Graphics/SVG/1.1/DTD/svg11.dtd">
<!-- Generated by graphviz version 12.2.1 (20241206.2353)
 -->
<!-- Title: snakemake_dag Pages: 1 -->
<svg width="910pt" height="864pt"
 viewBox="0.00 0.00 909.83 864.25" xmlns="http://www.w3.org/2000/svg" xmlns:xlink="http://www.w3.org/1999/xlink">
<g id="graph0" class="graph" transform="scale(1 1) rotate(0) translate(4 860.25)">
<title>snakemake_dag</title>
<polygon fill="white" stroke="none" points="-4,4 -4,-860.25 905.83,-860.25 905.83,4 -4,4"/>
<!-- 0 -->
<g id="node1" class="node">
<title>0</title>
<path fill="none" stroke="#56d89a" stroke-width="2" d="M401.75,-36C401.75,-36 371.75,-36 371.75,-36 365.75,-36 359.75,-30 359.75,-24 359.75,-24 359.75,-12 359.75,-12 359.75,-6 365.75,0 371.75,0 371.75,0 401.75,0 401.75,0 407.75,0 413.75,-6 413.75,-12 413.75,-12 413.75,-24 413.75,-24 413.75,-30 407.75,-36 401.75,-36"/>
<text text-anchor="middle" x="386.75" y="-14.12" font-family="sans" font-size="10.00">all</text>
</g>
<!-- 1 -->
<g id="node2" class="node">
<title>1</title>
<path fill="none" stroke="#56b9d8" stroke-width="2" d="M95.5,-324C95.5,-324 12,-324 12,-324 6,-324 0,-318 0,-312 0,-312 0,-300 0,-300 0,-294 6,-288 12,-288 12,-288 95.5,-288 95.5,-288 101.5,-288 107.5,-294 107.5,-300 107.5,-300 107.5,-312 107.5,-312 107.5,-318 101.5,-324 95.5,-324"/>
<text text-anchor="middle" x="53.75" y="-307.75" font-family="sans" font-size="10.00">_copy_indel_vcf</text>
<text text-anchor="middle" x="53.75" y="-296.5" font-family="sans" font-size="10.00">sample: 2022.MM.16</text>
</g>
<!-- 1&#45;&gt;0 -->
<g id="edge1" class="edge">
<title>1&#45;&gt;0</title>
<path fill="none" stroke="grey" stroke-width="2" d="M52.08,-287.13C49.02,-242.64 48.02,-126.56 113.75,-72 148.59,-43.08 278.94,-28.08 346.14,-22.14"/>
<polygon fill="grey" stroke="grey" stroke-width="2" points="346.39,-25.63 356.05,-21.29 345.79,-18.65 346.39,-25.63"/>
</g>
<!-- 2 -->
<g id="node3" class="node">
<title>2</title>
<path fill="none" stroke="#56d873" stroke-width="2" d="M94.88,-396C94.88,-396 28.63,-396 28.63,-396 22.63,-396 16.62,-390 16.62,-384 16.62,-384 16.62,-372 16.62,-372 16.62,-366 22.62,-360 28.62,-360 28.62,-360 94.88,-360 94.88,-360 100.88,-360 106.88,-366 106.88,-372 106.88,-372 106.88,-384 106.88,-384 106.88,-390 100.88,-396 94.88,-396"/>
<text text-anchor="middle" x="61.75" y="-379.75" font-family="sans" font-size="10.00">filter_phased_vcf</text>
<text text-anchor="middle" x="61.75" y="-368.5" font-family="sans" font-size="10.00">tag: panel</text>
</g>
<!-- 2&#45;&gt;1 -->
<g id="edge9" class="edge">
<title>2&#45;&gt;1</title>
<path fill="none" stroke="grey" stroke-width="2" d="M59.73,-359.34C58.98,-352.75 58.1,-345.08 57.25,-337.67"/>
<polygon fill="grey" stroke="grey" stroke-width="2" points="60.75,-337.45 56.14,-327.91 53.8,-338.24 60.75,-337.45"/>
</g>
<!-- 3 -->
<g id="node4" class="node">
<title>3</title>
<path fill="none" stroke="#5692d8" stroke-width="2" d="M244.75,-540C244.75,-540 214.75,-540 214.75,-540 208.75,-540 202.75,-534 202.75,-528 202.75,-528 202.75,-516 202.75,-516 202.75,-510 208.75,-504 214.75,-504 214.75,-504 244.75,-504 244.75,-504 250.75,-504 256.75,-510 256.75,-516 256.75,-516 256.75,-528 256.75,-528 256.75,-534 250.75,-540 244.75,-540"/>
<text text-anchor="middle" x="229.75" y="-518.12" font-family="sans" font-size="10.00">phasing</text>
</g>
<!-- 3&#45;&gt;2 -->
<g id="edge10" class="edge">
<title>3&#45;&gt;2</title>
<path fill="none" stroke="grey" stroke-width="2" d="M201.91,-519.06C168.11,-515.16 111.79,-503.41 80.75,-468 66.84,-452.13 62.27,-428.59 61.09,-409.7"/>
<polygon fill="grey" stroke="grey" stroke-width="2" points="64.59,-409.88 60.82,-399.98 57.59,-410.07 64.59,-409.88"/>
</g>
<!-- 9 -->
<g id="node10" class="node">
<title>9</title>
<path fill="none" stroke="#d87d56" stroke-width="2" d="M335.5,-468C335.5,-468 102,-468 102,-468 96,-468 90,-462 90,-456 90,-456 90,-444 90,-444 90,-438 96,-432 102,-432 102,-432 335.5,-432 335.5,-432 341.5,-432 347.5,-438 347.5,-444 347.5,-444 347.5,-456 347.5,-456 347.5,-462 341.5,-468 335.5,-468"/>
<text text-anchor="middle" x="218.75" y="-451.75" font-family="sans" font-size="10.00">index_vcf</text>
<text text-anchor="middle" x="218.75" y="-440.5" font-family="sans" font-size="10.00">file: annotation/whatshap_phase/2022.MM.16_T.phased</text>
</g>
<!-- 3&#45;&gt;9 -->
<g id="edge18" class="edge">
<title>3&#45;&gt;9</title>
<path fill="none" stroke="grey" stroke-width="2" d="M226.97,-503.34C225.94,-496.75 224.73,-489.08 223.57,-481.67"/>
<polygon fill="grey" stroke="grey" stroke-width="2" points="227.04,-481.23 222.03,-471.89 220.13,-482.31 227.04,-481.23"/>
</g>
<!-- 14 -->
<g id="node15" class="node">
<title>14</title>
<path fill="none" stroke="#56d8a9" stroke-width="2" d="M424.12,-468C424.12,-468 377.38,-468 377.38,-468 371.38,-468 365.38,-462 365.38,-456 365.38,-456 365.38,-444 365.38,-444 365.38,-438 371.38,-432 377.38,-432 377.38,-432 424.12,-432 424.12,-432 430.12,-432 436.12,-438 436.12,-444 436.12,-444 436.12,-456 436.12,-456 436.12,-462 430.12,-468 424.12,-468"/>
<text text-anchor="middle" x="400.75" y="-446.12" font-family="sans" font-size="10.00">haplotagging</text>
</g>
<!-- 3&#45;&gt;14 -->
<g id="edge24" class="edge">
<title>3&#45;&gt;14</title>
<path fill="none" stroke="grey" stroke-width="2" d="M257.6,-509.6C283.34,-499.06 322.11,-483.19 352.82,-470.62"/>
<polygon fill="grey" stroke="grey" stroke-width="2" points="353.84,-473.99 361.77,-466.96 351.18,-467.51 353.84,-473.99"/>
</g>
<!-- 4 -->
<g id="node5" class="node">
<title>4</title>
<path fill="none" stroke="#bed856" stroke-width="2" d="M349.25,-612C349.25,-612 270.25,-612 270.25,-612 264.25,-612 258.25,-606 258.25,-600 258.25,-600 258.25,-588 258.25,-588 258.25,-582 264.25,-576 270.25,-576 270.25,-576 349.25,-576 349.25,-576 355.25,-576 361.25,-582 361.25,-588 361.25,-588 361.25,-600 361.25,-600 361.25,-606 355.25,-612 349.25,-612"/>
<text text-anchor="middle" x="309.75" y="-590.12" font-family="sans" font-size="10.00">deepsomatic_t_only</text>
</g>
<!-- 4&#45;&gt;3 -->
<g id="edge12" class="edge">
<title>4&#45;&gt;3</title>
<path fill="none" stroke="grey" stroke-width="2" d="M289.56,-575.34C280.54,-567.44 269.71,-557.96 259.76,-549.26"/>
<polygon fill="grey" stroke="grey" stroke-width="2" points="262.32,-546.85 252.49,-542.9 257.71,-552.11 262.32,-546.85"/>
</g>
<!-- 5 -->
<g id="node6" class="node">
<title>5</title>
<path fill="none" stroke="#56d863" stroke-width="2" d="M361.62,-684C361.62,-684 257.88,-684 257.88,-684 251.88,-684 245.88,-678 245.88,-672 245.88,-672 245.88,-660 245.88,-660 245.88,-654 251.88,-648 257.88,-648 257.88,-648 361.62,-648 361.62,-648 367.62,-648 373.62,-654 373.62,-660 373.62,-660 373.62,-672 373.62,-672 373.62,-678 367.62,-684 361.62,-684"/>
<text text-anchor="middle" x="309.75" y="-662.12" font-family="sans" font-size="10.00">alignment_pbmm2_merge</text>
</g>
<!-- 5&#45;&gt;3 -->
<g id="edge13" class="edge">
<title>5&#45;&gt;3</title>
<path fill="none" stroke="grey" stroke-width="2" d="M282.08,-647.12C270.09,-638 256.95,-625.9 248.75,-612 238.32,-594.32 233.59,-571.67 231.45,-553.65"/>
<polygon fill="grey" stroke="grey" stroke-width="2" points="234.96,-553.57 230.55,-543.93 227.99,-554.21 234.96,-553.57"/>
</g>
<!-- 5&#45;&gt;4 -->
<g id="edge14" class="edge">
<title>5&#45;&gt;4</title>
<path fill="none" stroke="grey" stroke-width="2" d="M309.75,-647.34C309.75,-640.75 309.75,-633.08 309.75,-625.67"/>
<polygon fill="grey" stroke="grey" stroke-width="2" points="313.25,-625.93 309.75,-615.93 306.25,-625.93 313.25,-625.93"/>
</g>
<!-- 5&#45;&gt;14 -->
<g id="edge25" class="edge">
<title>5&#45;&gt;14</title>
<path fill="none" stroke="grey" stroke-width="2" d="M337.59,-647.22C349.61,-638.12 362.74,-626 370.75,-612 394.21,-571.01 399.86,-515.43 400.93,-481.45"/>
<polygon fill="grey" stroke="grey" stroke-width="2" points="404.42,-481.81 401.09,-471.75 397.42,-481.69 404.42,-481.81"/>
</g>
<!-- 6 -->
<g id="node7" class="node">
<title>6</title>
<path fill="none" stroke="#d88d56" stroke-width="2" d="M358.25,-756C358.25,-756 261.25,-756 261.25,-756 255.25,-756 249.25,-750 249.25,-744 249.25,-744 249.25,-732 249.25,-732 249.25,-726 255.25,-720 261.25,-720 261.25,-720 358.25,-720 358.25,-720 364.25,-720 370.25,-726 370.25,-732 370.25,-732 370.25,-744 370.25,-744 370.25,-750 364.25,-756 358.25,-756"/>
<text text-anchor="middle" x="309.75" y="-734.12" font-family="sans" font-size="10.00">alignment_pbmm2_align</text>
</g>
<!-- 6&#45;&gt;5 -->
<g id="edge15" class="edge">
<title>6&#45;&gt;5</title>
<path fill="none" stroke="grey" stroke-width="2" d="M309.75,-719.34C309.75,-712.75 309.75,-705.08 309.75,-697.67"/>
<polygon fill="grey" stroke="grey" stroke-width="2" points="313.25,-697.93 309.75,-687.93 306.25,-697.93 313.25,-697.93"/>
</g>
<!-- 7 -->
<g id="node8" class="node">
<title>7</title>
<path fill="none" stroke="#56a2d8" stroke-width="2" d="M311.75,-856.25C311.75,-856.25 121.75,-856.25 121.75,-856.25 115.75,-856.25 109.75,-850.25 109.75,-844.25 109.75,-844.25 109.75,-804 109.75,-804 109.75,-798 115.75,-792 121.75,-792 121.75,-792 311.75,-792 311.75,-792 317.75,-792 323.75,-798 323.75,-804 323.75,-804 323.75,-844.25 323.75,-844.25 323.75,-850.25 317.75,-856.25 311.75,-856.25"/>
<text text-anchor="middle" x="216.75" y="-842.75" font-family="sans" font-size="10.00">mark_duplicates</text>
<text text-anchor="middle" x="216.75" y="-831.5" font-family="sans" font-size="10.00">barcode: NAS</text>
<text text-anchor="middle" x="216.75" y="-820.25" font-family="sans" font-size="10.00">processing_unit: m84045_231122_151755_s3</text>
<text text-anchor="middle" x="216.75" y="-809" font-family="sans" font-size="10.00">sample: 2022.MM.16</text>
<text text-anchor="middle" x="216.75" y="-797.75" font-family="sans" font-size="10.00">type: T</text>
</g>
<!-- 7&#45;&gt;6 -->
<g id="edge16" class="edge">
<title>7&#45;&gt;6</title>
<path fill="none" stroke="grey" stroke-width="2" d="M252.17,-791.08C261.5,-782.65 271.45,-773.64 280.42,-765.53"/>
<polygon fill="grey" stroke="grey" stroke-width="2" points="282.72,-768.17 287.79,-758.87 278.02,-762.98 282.72,-768.17"/>
</g>
<!-- 8 -->
<g id="node9" class="node">
<title>8</title>
<path fill="none" stroke="#d85656" stroke-width="2" d="M453.75,-842.12C453.75,-842.12 353.75,-842.12 353.75,-842.12 347.75,-842.12 341.75,-836.12 341.75,-830.12 341.75,-830.12 341.75,-818.12 341.75,-818.12 341.75,-812.12 347.75,-806.12 353.75,-806.12 353.75,-806.12 453.75,-806.12 453.75,-806.12 459.75,-806.12 465.75,-812.12 465.75,-818.12 465.75,-818.12 465.75,-830.12 465.75,-830.12 465.75,-836.12 459.75,-842.12 453.75,-842.12"/>
<text text-anchor="middle" x="403.75" y="-820.25" font-family="sans" font-size="10.00">alignment_pbmm2_index</text>
</g>
<!-- 8&#45;&gt;6 -->
<g id="edge17" class="edge">
<title>8&#45;&gt;6</title>
<path fill="none" stroke="grey" stroke-width="2" d="M383.82,-805.28C370.85,-793.68 353.73,-778.36 339.21,-765.36"/>
<polygon fill="grey" stroke="grey" stroke-width="2" points="341.7,-762.89 331.91,-758.83 337.03,-768.11 341.7,-762.89"/>
</g>
<!-- 9&#45;&gt;2 -->
<g id="edge11" class="edge">
<title>9&#45;&gt;2</title>
<path fill="none" stroke="grey" stroke-width="2" d="M178.73,-431.15C158.96,-422.34 134.88,-411.61 113.71,-402.17"/>
<polygon fill="grey" stroke="grey" stroke-width="2" points="115.3,-399.04 104.74,-398.17 112.45,-405.44 115.3,-399.04"/>
</g>
<!-- 10 -->
<g id="node11" class="node">
<title>10</title>
<path fill="none" stroke="#56d88a" stroke-width="2" d="M364.5,-108C364.5,-108 281,-108 281,-108 275,-108 269,-102 269,-96 269,-96 269,-84 269,-84 269,-78 275,-72 281,-72 281,-72 364.5,-72 364.5,-72 370.5,-72 376.5,-78 376.5,-84 376.5,-84 376.5,-96 376.5,-96 376.5,-102 370.5,-108 364.5,-108"/>
<text text-anchor="middle" x="322.75" y="-91.75" font-family="sans" font-size="10.00">_copy_pbsv_vcf</text>
<text text-anchor="middle" x="322.75" y="-80.5" font-family="sans" font-size="10.00">sample: 2022.MM.16</text>
</g>
<!-- 10&#45;&gt;0 -->
<g id="edge2" class="edge">
<title>10&#45;&gt;0</title>
<path fill="none" stroke="grey" stroke-width="2" d="M338.9,-71.34C345.82,-63.77 354.06,-54.75 361.74,-46.35"/>
<polygon fill="grey" stroke="grey" stroke-width="2" points="364.18,-48.88 368.34,-39.14 359.01,-44.15 364.18,-48.88"/>
</g>
<!-- 11 -->
<g id="node12" class="node">
<title>11</title>
<path fill="none" stroke="#566bd8" stroke-width="2" d="M380.5,-180C380.5,-180 237,-180 237,-180 231,-180 225,-174 225,-168 225,-168 225,-156 225,-156 225,-150 231,-144 237,-144 237,-144 380.5,-144 380.5,-144 386.5,-144 392.5,-150 392.5,-156 392.5,-156 392.5,-168 392.5,-168 392.5,-174 386.5,-180 380.5,-180"/>
<text text-anchor="middle" x="308.75" y="-163.75" font-family="sans" font-size="10.00">bgzip</text>
<text text-anchor="middle" x="308.75" y="-152.5" font-family="sans" font-size="10.00">file: cnv_sv/pbsv_call/2022.MM.16</text>
</g>
<!-- 11&#45;&gt;10 -->
<g id="edge19" class="edge">
<title>11&#45;&gt;10</title>
<path fill="none" stroke="grey" stroke-width="2" d="M312.28,-143.34C313.6,-136.75 315.13,-129.08 316.62,-121.67"/>
<polygon fill="grey" stroke="grey" stroke-width="2" points="320.05,-122.36 318.58,-111.87 313.18,-120.99 320.05,-122.36"/>
</g>
<!-- 12 -->
<g id="node13" class="node">
<title>12</title>
<path fill="none" stroke="#56c9d8" stroke-width="2" d="M325.38,-252C325.38,-252 292.12,-252 292.12,-252 286.12,-252 280.12,-246 280.12,-240 280.12,-240 280.12,-228 280.12,-228 280.12,-222 286.12,-216 292.12,-216 292.12,-216 325.38,-216 325.38,-216 331.38,-216 337.38,-222 337.38,-228 337.38,-228 337.38,-240 337.38,-240 337.38,-246 331.38,-252 325.38,-252"/>
<text text-anchor="middle" x="308.75" y="-230.12" font-family="sans" font-size="10.00">pbsv_call</text>
</g>
<!-- 12&#45;&gt;11 -->
<g id="edge20" class="edge">
<title>12&#45;&gt;11</title>
<path fill="none" stroke="grey" stroke-width="2" d="M308.75,-215.34C308.75,-208.75 308.75,-201.08 308.75,-193.67"/>
<polygon fill="grey" stroke="grey" stroke-width="2" points="312.25,-193.93 308.75,-183.93 305.25,-193.93 312.25,-193.93"/>
</g>
<!-- 13 -->
<g id="node14" class="node">
<title>13</title>
<path fill="none" stroke="#afd856" stroke-width="2" d="M336.25,-324C336.25,-324 281.25,-324 281.25,-324 275.25,-324 269.25,-318 269.25,-312 269.25,-312 269.25,-300 269.25,-300 269.25,-294 275.25,-288 281.25,-288 281.25,-288 336.25,-288 336.25,-288 342.25,-288 348.25,-294 348.25,-300 348.25,-300 348.25,-312 348.25,-312 348.25,-318 342.25,-324 336.25,-324"/>
<text text-anchor="middle" x="308.75" y="-302.12" font-family="sans" font-size="10.00">pbsv_discover</text>
</g>
<!-- 13&#45;&gt;12 -->
<g id="edge21" class="edge">
<title>13&#45;&gt;12</title>
<path fill="none" stroke="grey" stroke-width="2" d="M308.75,-287.34C308.75,-280.75 308.75,-273.08 308.75,-265.67"/>
<polygon fill="grey" stroke="grey" stroke-width="2" points="312.25,-265.93 308.75,-255.93 305.25,-265.93 312.25,-265.93"/>
</g>
<!-- 14&#45;&gt;13 -->
<g id="edge22" class="edge">
<title>14&#45;&gt;13</title>
<path fill="none" stroke="grey" stroke-width="2" d="M364.76,-435C362.06,-433.97 359.36,-432.97 356.75,-432 311.66,-415.34 282.52,-435.24 254.75,-396 240.37,-375.68 257.1,-351.46 275.62,-333.42"/>
<polygon fill="grey" stroke="grey" stroke-width="2" points="277.75,-336.22 282.78,-326.9 273.03,-331.05 277.75,-336.22"/>
</g>
<!-- 15 -->
<g id="node16" class="node">
<title>15</title>
<path fill="none" stroke="#97d856" stroke-width="2" d="M541.25,-396C541.25,-396 276.25,-396 276.25,-396 270.25,-396 264.25,-390 264.25,-384 264.25,-384 264.25,-372 264.25,-372 264.25,-366 270.25,-360 276.25,-360 276.25,-360 541.25,-360 541.25,-360 547.25,-360 553.25,-366 553.25,-372 553.25,-372 553.25,-384 553.25,-384 553.25,-390 547.25,-396 541.25,-396"/>
<text text-anchor="middle" x="408.75" y="-379.75" font-family="sans" font-size="10.00">samtools_index</text>
<text text-anchor="middle" x="408.75" y="-368.5" font-family="sans" font-size="10.00">file: annotation/whatshap_haplotag/2022.MM.16_T.haplotagged</text>
</g>
<!-- 14&#45;&gt;15 -->
<g id="edge26" class="edge">
<title>14&#45;&gt;15</title>
<path fill="none" stroke="grey" stroke-width="2" d="M402.77,-431.34C403.52,-424.75 404.4,-417.08 405.25,-409.67"/>
<polygon fill="grey" stroke="grey" stroke-width="2" points="408.7,-410.24 406.36,-399.91 401.75,-409.45 408.7,-410.24"/>
</g>
<!-- 17 -->
<g id="node18" class="node">
<title>17</title>
<path fill="none" stroke="#88d856" stroke-width="2" d="M791.75,-396C791.75,-396 761.75,-396 761.75,-396 755.75,-396 749.75,-390 749.75,-384 749.75,-384 749.75,-372 749.75,-372 749.75,-366 755.75,-360 761.75,-360 761.75,-360 791.75,-360 791.75,-360 797.75,-360 803.75,-366 803.75,-372 803.75,-372 803.75,-384 803.75,-384 803.75,-390 797.75,-396 791.75,-396"/>
<text text-anchor="middle" x="776.75" y="-374.12" font-family="sans" font-size="10.00">hificnv</text>
</g>
<!-- 14&#45;&gt;17 -->
<g id="edge28" class="edge">
<title>14&#45;&gt;17</title>
<path fill="none" stroke="grey" stroke-width="2" d="M436.8,-442.29C507.23,-429.18 662.63,-400.25 736.38,-386.52"/>
<polygon fill="grey" stroke="grey" stroke-width="2" points="736.99,-389.96 746.19,-384.69 735.71,-383.08 736.99,-389.96"/>
</g>
<!-- 19 -->
<g id="node20" class="node">
<title>19</title>
<path fill="none" stroke="#56d8d0" stroke-width="2" d="M212.75,-324C212.75,-324 182.75,-324 182.75,-324 176.75,-324 170.75,-318 170.75,-312 170.75,-312 170.75,-300 170.75,-300 170.75,-294 176.75,-288 182.75,-288 182.75,-288 212.75,-288 212.75,-288 218.75,-288 224.75,-294 224.75,-300 224.75,-300 224.75,-312 224.75,-312 224.75,-318 218.75,-324 212.75,-324"/>
<text text-anchor="middle" x="197.75" y="-302.12" font-family="sans" font-size="10.00">sniffles2</text>
</g>
<!-- 14&#45;&gt;19 -->
<g id="edge30" class="edge">
<title>14&#45;&gt;19</title>
<path fill="none" stroke="grey" stroke-width="2" d="M364.79,-434.92C362.08,-433.92 359.37,-432.93 356.75,-432 307.88,-414.65 285.59,-429.21 245.75,-396 227.37,-380.67 214.95,-356.43 207.36,-337.11"/>
<polygon fill="grey" stroke="grey" stroke-width="2" points="210.69,-336.04 203.99,-327.83 204.11,-338.42 210.69,-336.04"/>
</g>
<!-- 22 -->
<g id="node23" class="node">
<title>22</title>
<path fill="none" stroke="#56d8c1" stroke-width="2" d="M605.5,-252C605.5,-252 558,-252 558,-252 552,-252 546,-246 546,-240 546,-240 546,-228 546,-228 546,-222 552,-216 558,-216 558,-216 605.5,-216 605.5,-216 611.5,-216 617.5,-222 617.5,-228 617.5,-228 617.5,-240 617.5,-240 617.5,-246 611.5,-252 605.5,-252"/>
<text text-anchor="middle" x="581.75" y="-230.12" font-family="sans" font-size="10.00">cnvkit_batch</text>
</g>
<!-- 14&#45;&gt;22 -->
<g id="edge34" class="edge">
<title>14&#45;&gt;22</title>
<path fill="none" stroke="grey" stroke-width="2" d="M436.91,-447.9C474.52,-444.67 532.1,-433.44 562.75,-396 592.81,-359.28 591.52,-301.08 587.13,-265.63"/>
<polygon fill="grey" stroke="grey" stroke-width="2" points="590.6,-265.22 585.72,-255.82 583.68,-266.22 590.6,-265.22"/>
</g>
<!-- 15&#45;&gt;13 -->
<g id="edge23" class="edge">
<title>15&#45;&gt;13</title>
<path fill="none" stroke="grey" stroke-width="2" d="M383.26,-359.15C371.5,-350.93 357.35,-341.02 344.55,-332.06"/>
<polygon fill="grey" stroke="grey" stroke-width="2" points="346.88,-329.42 336.68,-326.55 342.86,-335.15 346.88,-329.42"/>
</g>
<!-- 15&#45;&gt;19 -->
<g id="edge31" class="edge">
<title>15&#45;&gt;19</title>
<path fill="none" stroke="grey" stroke-width="2" d="M354.69,-359.06C318.09,-346.92 270.56,-331.16 237.44,-320.17"/>
<polygon fill="grey" stroke="grey" stroke-width="2" points="238.97,-316.99 228.38,-317.16 236.77,-323.63 238.97,-316.99"/>
</g>
<!-- 15&#45;&gt;22 -->
<g id="edge35" class="edge">
<title>15&#45;&gt;22</title>
<path fill="none" stroke="grey" stroke-width="2" d="M430.66,-359.02C460.82,-334.26 515.31,-289.53 549.95,-261.1"/>
<polygon fill="grey" stroke="grey" stroke-width="2" points="552.17,-263.81 557.68,-254.76 547.73,-258.4 552.17,-263.81"/>
</g>
<!-- 16 -->
<g id="node17" class="node">
<title>16</title>
<path fill="none" stroke="#d8cb56" stroke-width="2" d="M882.12,-108C882.12,-108 811.38,-108 811.38,-108 805.38,-108 799.38,-102 799.38,-96 799.38,-96 799.38,-84 799.38,-84 799.38,-78 805.38,-72 811.38,-72 811.38,-72 882.12,-72 882.12,-72 888.12,-72 894.12,-78 894.12,-84 894.12,-84 894.12,-96 894.12,-96 894.12,-102 888.12,-108 882.12,-108"/>
<text text-anchor="middle" x="846.75" y="-86.12" font-family="sans" font-size="10.00">_copy_hificnv_vcf</text>
</g>
<!-- 16&#45;&gt;0 -->
<g id="edge3" class="edge">
<title>16&#45;&gt;0</title>
<path fill="none" stroke="grey" stroke-width="2" d="M798.39,-81.64C707.4,-67.79 512.27,-38.1 427.48,-25.2"/>
<polygon fill="grey" stroke="grey" stroke-width="2" points="428.02,-21.74 417.61,-23.7 426.97,-28.66 428.02,-21.74"/>
</g>
<!-- 17&#45;&gt;16 -->
<g id="edge27" class="edge">
<title>17&#45;&gt;16</title>
<path fill="none" stroke="grey" stroke-width="2" d="M792.6,-359.1C820.41,-326.36 877.01,-253.39 897.75,-180 902.1,-164.6 903.73,-158.84 897.75,-144 893.86,-134.34 887.27,-125.46 880.1,-117.83"/>
<polygon fill="grey" stroke="grey" stroke-width="2" points="882.65,-115.44 873.03,-110.99 877.78,-120.46 882.65,-115.44"/>
</g>
<!-- 18 -->
<g id="node19" class="node">
<title>18</title>
<path fill="none" stroke="#61d856" stroke-width="2" d="M157.25,-252C157.25,-252 78.25,-252 78.25,-252 72.25,-252 66.25,-246 66.25,-240 66.25,-240 66.25,-228 66.25,-228 66.25,-222 72.25,-216 78.25,-216 78.25,-216 157.25,-216 157.25,-216 163.25,-216 169.25,-222 169.25,-228 169.25,-228 169.25,-240 169.25,-240 169.25,-246 163.25,-252 157.25,-252"/>
<text text-anchor="middle" x="117.75" y="-230.12" font-family="sans" font-size="10.00">_copy_sniffles2_vcf</text>
</g>
<!-- 18&#45;&gt;0 -->
<g id="edge4" class="edge">
<title>18&#45;&gt;0</title>
<path fill="none" stroke="grey" stroke-width="2" d="M113.98,-215.06C108.18,-182.12 101.29,-111.75 137.75,-72 165.36,-41.9 282.93,-27.63 346.14,-22.03"/>
<polygon fill="grey" stroke="grey" stroke-width="2" points="346.07,-25.55 355.74,-21.22 345.48,-18.57 346.07,-25.55"/>
</g>
<!-- 19&#45;&gt;18 -->
<g id="edge29" class="edge">
<title>19&#45;&gt;18</title>
<path fill="none" stroke="grey" stroke-width="2" d="M177.56,-287.34C168.54,-279.44 157.71,-269.96 147.76,-261.26"/>
<polygon fill="grey" stroke="grey" stroke-width="2" points="150.32,-258.85 140.49,-254.9 145.71,-264.11 150.32,-258.85"/>
</g>
<!-- 20 -->
<g id="node21" class="node">
<title>20</title>
<path fill="none" stroke="#d86656" stroke-width="2" d="M238.25,-108C238.25,-108 159.25,-108 159.25,-108 153.25,-108 147.25,-102 147.25,-96 147.25,-96 147.25,-84 147.25,-84 147.25,-78 153.25,-72 159.25,-72 159.25,-72 238.25,-72 238.25,-72 244.25,-72 250.25,-78 250.25,-84 250.25,-84 250.25,-96 250.25,-96 250.25,-102 244.25,-108 238.25,-108"/>
<text text-anchor="middle" x="198.75" y="-86.12" font-family="sans" font-size="10.00">_copy_sniffles2_snf</text>
</g>
<!-- 19&#45;&gt;20 -->
<g id="edge32" class="edge">
<title>19&#45;&gt;20</title>
<path fill="none" stroke="grey" stroke-width="2" d="M197.83,-287.12C198,-250.62 198.39,-167.13 198.61,-121.74"/>
<polygon fill="grey" stroke="grey" stroke-width="2" points="202.1,-122.02 198.65,-112 195.11,-121.99 202.1,-122.02"/>
</g>
<!-- 20&#45;&gt;0 -->
<g id="edge5" class="edge">
<title>20&#45;&gt;0</title>
<path fill="none" stroke="grey" stroke-width="2" d="M246.68,-71.15C277.71,-59.6 317.64,-44.73 346.92,-33.83"/>
<polygon fill="grey" stroke="grey" stroke-width="2" points="347.78,-37.25 355.93,-30.48 345.34,-30.69 347.78,-37.25"/>
</g>
<!-- 21 -->
<g id="node22" class="node">
<title>21</title>
<path fill="none" stroke="#70d856" stroke-width="2" d="M680.62,-180C680.62,-180 522.88,-180 522.88,-180 516.88,-180 510.88,-174 510.88,-168 510.88,-168 510.88,-156 510.88,-156 510.88,-150 516.88,-144 522.88,-144 522.88,-144 680.62,-144 680.62,-144 686.62,-144 692.62,-150 692.62,-156 692.62,-156 692.62,-168 692.62,-168 692.62,-174 686.62,-180 680.62,-180"/>
<text text-anchor="middle" x="601.75" y="-158.12" font-family="sans" font-size="10.00">_copy_cnvkit_batch_segments_called</text>
</g>
<!-- 21&#45;&gt;0 -->
<g id="edge6" class="edge">
<title>21&#45;&gt;0</title>
<path fill="none" stroke="grey" stroke-width="2" d="M588.7,-143.11C573.55,-123.41 546.87,-91.9 517.75,-72 489.77,-52.88 453.85,-38.97 426.7,-30.2"/>
<polygon fill="grey" stroke="grey" stroke-width="2" points="428,-26.94 417.42,-27.32 425.93,-33.63 428,-26.94"/>
</g>
<!-- 22&#45;&gt;21 -->
<g id="edge33" class="edge">
<title>22&#45;&gt;21</title>
<path fill="none" stroke="grey" stroke-width="2" d="M586.8,-215.34C588.7,-208.67 590.93,-200.89 593.07,-193.39"/>
<polygon fill="grey" stroke="grey" stroke-width="2" points="596.42,-194.39 595.8,-183.81 589.69,-192.47 596.42,-194.39"/>
</g>
<!-- 23 -->
<g id="node24" class="node">
<title>23</title>
<path fill="none" stroke="#d8a456" stroke-width="2" d="M876.75,-180C876.75,-180 722.75,-180 722.75,-180 716.75,-180 710.75,-174 710.75,-168 710.75,-168 710.75,-156 710.75,-156 710.75,-150 716.75,-144 722.75,-144 722.75,-144 876.75,-144 876.75,-144 882.75,-144 888.75,-150 888.75,-156 888.75,-156 888.75,-168 888.75,-168 888.75,-174 882.75,-180 876.75,-180"/>
<text text-anchor="middle" x="799.75" y="-158.12" font-family="sans" font-size="10.00">_copy_cnvkit_batch_target_coverage</text>
</g>
<!-- 22&#45;&gt;23 -->
<g id="edge36" class="edge">
<title>22&#45;&gt;23</title>
<path fill="none" stroke="grey" stroke-width="2" d="M618.24,-221.28C649.06,-211.39 694.03,-196.95 731.5,-184.92"/>
<polygon fill="grey" stroke="grey" stroke-width="2" points="732.55,-188.25 741,-181.86 730.41,-181.59 732.55,-188.25"/>
</g>
<!-- 25 -->
<g id="node26" class="node">
<title>25</title>
<path fill="none" stroke="#d6d856" stroke-width="2" d="M480.75,-180C480.75,-180 422.75,-180 422.75,-180 416.75,-180 410.75,-174 410.75,-168 410.75,-168 410.75,-156 410.75,-156 410.75,-150 416.75,-144 422.75,-144 422.75,-144 480.75,-144 480.75,-144 486.75,-144 492.75,-150 492.75,-156 492.75,-156 492.75,-168 492.75,-168 492.75,-174 486.75,-180 480.75,-180"/>
<text text-anchor="middle" x="451.75" y="-158.12" font-family="sans" font-size="10.00">cnvkit_diagram</text>
</g>
<!-- 22&#45;&gt;25 -->
<g id="edge38" class="edge">
<title>22&#45;&gt;25</title>
<path fill="none" stroke="grey" stroke-width="2" d="M548.61,-215.15C532.72,-206.6 513.45,-196.22 496.3,-186.99"/>
<polygon fill="grey" stroke="grey" stroke-width="2" points="497.96,-183.91 487.5,-182.25 494.64,-190.07 497.96,-183.91"/>
</g>
<!-- 23&#45;&gt;0 -->
<g id="edge7" class="edge">
<title>23&#45;&gt;0</title>
<path fill="none" stroke="grey" stroke-width="2" d="M751.45,-143.12C701.59,-124.79 621.48,-95.7 551.75,-72 509.19,-57.53 460.1,-41.9 426.61,-31.39"/>
<polygon fill="grey" stroke="grey" stroke-width="2" points="428.06,-28.17 417.47,-28.53 425.97,-34.85 428.06,-28.17"/>
</g>
<!-- 24 -->
<g id="node25" class="node">
<title>24</title>
<path fill="none" stroke="#567bd8" stroke-width="2" d="M496.5,-108C496.5,-108 407,-108 407,-108 401,-108 395,-102 395,-96 395,-96 395,-84 395,-84 395,-78 401,-72 407,-72 407,-72 496.5,-72 496.5,-72 502.5,-72 508.5,-78 508.5,-84 508.5,-84 508.5,-96 508.5,-96 508.5,-102 502.5,-108 496.5,-108"/>
<text text-anchor="middle" x="451.75" y="-86.12" font-family="sans" font-size="10.00">_copy_cnvkit_diagram</text>
</g>
<!-- 24&#45;&gt;0 -->
<g id="edge8" class="edge">
<title>24&#45;&gt;0</title>
<path fill="none" stroke="grey" stroke-width="2" d="M435.35,-71.34C428.32,-63.77 419.95,-54.75 412.15,-46.35"/>
<polygon fill="grey" stroke="grey" stroke-width="2" points="414.8,-44.07 405.43,-39.12 409.67,-48.83 414.8,-44.07"/>
</g>
<!-- 25&#45;&gt;24 -->
<g id="edge37" class="edge">
<title>25&#45;&gt;24</title>
<path fill="none" stroke="grey" stroke-width="2" d="M451.75,-143.34C451.75,-136.75 451.75,-129.08 451.75,-121.67"/>
<polygon fill="grey" stroke="grey" stroke-width="2" points="455.25,-121.93 451.75,-111.93 448.25,-121.93 455.25,-121.93"/>
</g>
</g>
</svg>
