<?xml version="1.0" encoding="UTF-8" standalone="no"?>
<!DOCTYPE svg PUBLIC "-//W3C//DTD SVG 1.1//EN"
 "http://www.w3.org/Graphics/SVG/1.1/DTD/svg11.dtd">
<!-- Generated by graphviz version 12.2.1 (20241206.2353)
 -->
<!-- Title: snakemake_dag Pages: 1 -->
<svg width="426pt" height="476pt"
 viewBox="0.00 0.00 425.78 476.00" xmlns="http://www.w3.org/2000/svg" xmlns:xlink="http://www.w3.org/1999/xlink">
<g id="graph0" class="graph" transform="scale(1 1) rotate(0) translate(4 472)">
<title>snakemake_dag</title>
<polygon fill="white" stroke="none" points="-4,4 -4,-472 421.78,-472 421.78,4 -4,4"/>
<!-- 0 -->
<g id="node1" class="node">
<title>0</title>
<path fill="none" stroke="#d8a456" stroke-width="2" d="M266.03,-36C266.03,-36 236.03,-36 236.03,-36 230.03,-36 224.03,-30 224.03,-24 224.03,-24 224.03,-12 224.03,-12 224.03,-6 230.03,0 236.03,0 236.03,0 266.03,0 266.03,0 272.03,0 278.03,-6 278.03,-12 278.03,-12 278.03,-24 278.03,-24 278.03,-30 272.03,-36 266.03,-36"/>
<text text-anchor="middle" x="251.03" y="-14.12" font-family="sans" font-size="10.00">all</text>
</g>
<!-- 1 -->
<g id="node2" class="node">
<title>1</title>
<path fill="none" stroke="#d87d56" stroke-width="2" d="M164.78,-108C164.78,-108 81.28,-108 81.28,-108 75.28,-108 69.28,-102 69.28,-96 69.28,-96 69.28,-84 69.28,-84 69.28,-78 75.28,-72 81.28,-72 81.28,-72 164.78,-72 164.78,-72 170.78,-72 176.78,-78 176.78,-84 176.78,-84 176.78,-96 176.78,-96 176.78,-102 170.78,-108 164.78,-108"/>
<text text-anchor="middle" x="123.03" y="-91.75" font-family="sans" font-size="10.00">_copy_indel_vcf</text>
<text text-anchor="middle" x="123.03" y="-80.5" font-family="sans" font-size="10.00">sample: 2022.MM.16</text>
</g>
<!-- 1&#45;&gt;0 -->
<g id="edge1" class="edge">
<title>1&#45;&gt;0</title>
<path fill="none" stroke="grey" stroke-width="2" d="M155.66,-71.15C172.8,-61.78 193.92,-50.23 211.92,-40.39"/>
<polygon fill="grey" stroke="grey" stroke-width="2" points="213.48,-43.52 220.58,-35.66 210.12,-37.38 213.48,-43.52"/>
</g>
<!-- 2 -->
<g id="node3" class="node">
<title>2</title>
<path fill="none" stroke="#68d856" stroke-width="2" d="M155.78,-180C155.78,-180 84.28,-180 84.28,-180 78.28,-180 72.28,-174 72.28,-168 72.28,-168 72.28,-156 72.28,-156 72.28,-150 78.28,-144 84.28,-144 84.28,-144 155.78,-144 155.78,-144 161.78,-144 167.78,-150 167.78,-156 167.78,-156 167.78,-168 167.78,-168 167.78,-174 161.78,-180 155.78,-180"/>
<text text-anchor="middle" x="120.03" y="-163.75" font-family="sans" font-size="10.00">filter_deepsomatic</text>
<text text-anchor="middle" x="120.03" y="-152.5" font-family="sans" font-size="10.00">tag: panel</text>
</g>
<!-- 2&#45;&gt;1 -->
<g id="edge4" class="edge">
<title>2&#45;&gt;1</title>
<path fill="none" stroke="grey" stroke-width="2" d="M120.79,-143.34C121.07,-136.75 121.4,-129.08 121.72,-121.67"/>
<polygon fill="grey" stroke="grey" stroke-width="2" points="125.2,-122.07 122.13,-111.93 118.21,-121.77 125.2,-122.07"/>
</g>
<!-- 3 -->
<g id="node4" class="node">
<title>3</title>
<path fill="none" stroke="#56d86b" stroke-width="2" d="M113.78,-324C113.78,-324 30.28,-324 30.28,-324 24.28,-324 18.28,-318 18.28,-312 18.28,-312 18.28,-300 18.28,-300 18.28,-294 24.28,-288 30.28,-288 30.28,-288 113.78,-288 113.78,-288 119.78,-288 125.78,-294 125.78,-300 125.78,-300 125.78,-312 125.78,-312 125.78,-318 119.78,-324 113.78,-324"/>
<text text-anchor="middle" x="72.03" y="-307.75" font-family="sans" font-size="10.00">deepsomatic_tn</text>
<text text-anchor="middle" x="72.03" y="-296.5" font-family="sans" font-size="10.00">sample: 2022.MM.16</text>
</g>
<!-- 3&#45;&gt;2 -->
<g id="edge5" class="edge">
<title>3&#45;&gt;2</title>
<path fill="none" stroke="grey" stroke-width="2" d="M38.94,-287.17C26.19,-278.41 13.02,-266.58 6.03,-252 -0.89,-237.57 -2.57,-229.49 6.03,-216 18.04,-197.17 38.67,-184.92 59.1,-177.01"/>
<polygon fill="grey" stroke="grey" stroke-width="2" points="60.24,-180.32 68.53,-173.72 57.93,-173.71 60.24,-180.32"/>
</g>
<!-- 4 -->
<g id="node5" class="node">
<title>4</title>
<path fill="none" stroke="#b6d856" stroke-width="2" d="M213.16,-252C213.16,-252 26.91,-252 26.91,-252 20.91,-252 14.91,-246 14.91,-240 14.91,-240 14.91,-228 14.91,-228 14.91,-222 20.91,-216 26.91,-216 26.91,-216 213.16,-216 213.16,-216 219.16,-216 225.16,-222 225.16,-228 225.16,-228 225.16,-240 225.16,-240 225.16,-246 219.16,-252 213.16,-252"/>
<text text-anchor="middle" x="120.03" y="-235.75" font-family="sans" font-size="10.00">index_deepsomatic</text>
<text text-anchor="middle" x="120.03" y="-224.5" font-family="sans" font-size="10.00">file: snv_indels/deepsomatic_tn/2022.MM.16</text>
</g>
<!-- 3&#45;&gt;4 -->
<g id="edge7" class="edge">
<title>3&#45;&gt;4</title>
<path fill="none" stroke="grey" stroke-width="2" d="M84.14,-287.34C89.11,-280.1 94.98,-271.53 100.52,-263.45"/>
<polygon fill="grey" stroke="grey" stroke-width="2" points="103.28,-265.62 106.04,-255.4 97.5,-261.67 103.28,-265.62"/>
</g>
<!-- 4&#45;&gt;2 -->
<g id="edge6" class="edge">
<title>4&#45;&gt;2</title>
<path fill="none" stroke="grey" stroke-width="2" d="M120.03,-215.34C120.03,-208.75 120.03,-201.08 120.03,-193.67"/>
<polygon fill="grey" stroke="grey" stroke-width="2" points="123.53,-193.93 120.03,-183.93 116.53,-193.93 123.53,-193.93"/>
</g>
<!-- 5 -->
<g id="node6" class="node">
<title>5</title>
<path fill="none" stroke="#8fd856" stroke-width="2" d="M292.78,-108C292.78,-108 209.28,-108 209.28,-108 203.28,-108 197.28,-102 197.28,-96 197.28,-96 197.28,-84 197.28,-84 197.28,-78 203.28,-72 209.28,-72 209.28,-72 292.78,-72 292.78,-72 298.78,-72 304.78,-78 304.78,-84 304.78,-84 304.78,-96 304.78,-96 304.78,-102 298.78,-108 292.78,-108"/>
<text text-anchor="middle" x="251.03" y="-91.75" font-family="sans" font-size="10.00">_copy_sv_vcf</text>
<text text-anchor="middle" x="251.03" y="-80.5" font-family="sans" font-size="10.00">sample: 2022.MM.16</text>
</g>
<!-- 5&#45;&gt;0 -->
<g id="edge2" class="edge">
<title>5&#45;&gt;0</title>
<path fill="none" stroke="grey" stroke-width="2" d="M251.03,-71.34C251.03,-64.75 251.03,-57.08 251.03,-49.67"/>
<polygon fill="grey" stroke="grey" stroke-width="2" points="254.53,-49.93 251.03,-39.93 247.53,-49.93 254.53,-49.93"/>
</g>
<!-- 6 -->
<g id="node7" class="node">
<title>6</title>
<path fill="none" stroke="#56d8b9" stroke-width="2" d="M271.53,-180C271.53,-180 234.53,-180 234.53,-180 228.53,-180 222.53,-174 222.53,-168 222.53,-168 222.53,-156 222.53,-156 222.53,-150 228.53,-144 234.53,-144 234.53,-144 271.53,-144 271.53,-144 277.53,-144 283.53,-150 283.53,-156 283.53,-156 283.53,-168 283.53,-168 283.53,-174 277.53,-180 271.53,-180"/>
<text text-anchor="middle" x="253.03" y="-163.75" font-family="sans" font-size="10.00">filter_pbsv</text>
<text text-anchor="middle" x="253.03" y="-152.5" font-family="sans" font-size="10.00">tag: panel</text>
</g>
<!-- 6&#45;&gt;5 -->
<g id="edge8" class="edge">
<title>6&#45;&gt;5</title>
<path fill="none" stroke="grey" stroke-width="2" d="M252.53,-143.34C252.34,-136.75 252.12,-129.08 251.91,-121.67"/>
<polygon fill="grey" stroke="grey" stroke-width="2" points="255.41,-121.82 251.63,-111.93 248.42,-122.02 255.41,-121.82"/>
</g>
<!-- 7 -->
<g id="node8" class="node">
<title>7</title>
<path fill="none" stroke="#56a9d8" stroke-width="2" d="M354.78,-324C354.78,-324 211.28,-324 211.28,-324 205.28,-324 199.28,-318 199.28,-312 199.28,-312 199.28,-300 199.28,-300 199.28,-294 205.28,-288 211.28,-288 211.28,-288 354.78,-288 354.78,-288 360.78,-288 366.78,-294 366.78,-300 366.78,-300 366.78,-312 366.78,-312 366.78,-318 360.78,-324 354.78,-324"/>
<text text-anchor="middle" x="283.03" y="-307.75" font-family="sans" font-size="10.00">bgzip</text>
<text text-anchor="middle" x="283.03" y="-296.5" font-family="sans" font-size="10.00">file: cnv_sv/pbsv_call/2022.MM.16</text>
</g>
<!-- 7&#45;&gt;6 -->
<g id="edge9" class="edge">
<title>7&#45;&gt;6</title>
<path fill="none" stroke="grey" stroke-width="2" d="M279.23,-287.02C274.25,-263.44 265.44,-221.73 259.42,-193.25"/>
<polygon fill="grey" stroke="grey" stroke-width="2" points="262.92,-192.86 257.43,-183.8 256.07,-194.31 262.92,-192.86"/>
</g>
<!-- 10 -->
<g id="node11" class="node">
<title>10</title>
<path fill="none" stroke="#56d0d8" stroke-width="2" d="M334.78,-252C334.78,-252 293.28,-252 293.28,-252 287.28,-252 281.28,-246 281.28,-240 281.28,-240 281.28,-228 281.28,-228 281.28,-222 287.28,-216 293.28,-216 293.28,-216 334.78,-216 334.78,-216 340.78,-216 346.78,-222 346.78,-228 346.78,-228 346.78,-240 346.78,-240 346.78,-246 340.78,-252 334.78,-252"/>
<text text-anchor="middle" x="314.03" y="-230.12" font-family="sans" font-size="10.00">index_pbsv</text>
</g>
<!-- 7&#45;&gt;10 -->
<g id="edge13" class="edge">
<title>7&#45;&gt;10</title>
<path fill="none" stroke="grey" stroke-width="2" d="M290.85,-287.34C293.91,-280.43 297.51,-272.31 300.94,-264.56"/>
<polygon fill="grey" stroke="grey" stroke-width="2" points="304.03,-266.23 304.88,-255.67 297.63,-263.4 304.03,-266.23"/>
</g>
<!-- 8 -->
<g id="node9" class="node">
<title>8</title>
<path fill="none" stroke="#d85656" stroke-width="2" d="M299.66,-396C299.66,-396 266.41,-396 266.41,-396 260.41,-396 254.41,-390 254.41,-384 254.41,-384 254.41,-372 254.41,-372 254.41,-366 260.41,-360 266.41,-360 266.41,-360 299.66,-360 299.66,-360 305.66,-360 311.66,-366 311.66,-372 311.66,-372 311.66,-384 311.66,-384 311.66,-390 305.66,-396 299.66,-396"/>
<text text-anchor="middle" x="283.03" y="-374.12" font-family="sans" font-size="10.00">pbsv_call</text>
</g>
<!-- 8&#45;&gt;7 -->
<g id="edge11" class="edge">
<title>8&#45;&gt;7</title>
<path fill="none" stroke="grey" stroke-width="2" d="M283.03,-359.34C283.03,-352.75 283.03,-345.08 283.03,-337.67"/>
<polygon fill="grey" stroke="grey" stroke-width="2" points="286.53,-337.93 283.03,-327.93 279.53,-337.93 286.53,-337.93"/>
</g>
<!-- 9 -->
<g id="node10" class="node">
<title>9</title>
<path fill="none" stroke="#d8cb56" stroke-width="2" d="M324.78,-468C324.78,-468 241.28,-468 241.28,-468 235.28,-468 229.28,-462 229.28,-456 229.28,-456 229.28,-444 229.28,-444 229.28,-438 235.28,-432 241.28,-432 241.28,-432 324.78,-432 324.78,-432 330.78,-432 336.78,-438 336.78,-444 336.78,-444 336.78,-456 336.78,-456 336.78,-462 330.78,-468 324.78,-468"/>
<text text-anchor="middle" x="283.03" y="-451.75" font-family="sans" font-size="10.00">pbsv_discover</text>
<text text-anchor="middle" x="283.03" y="-440.5" font-family="sans" font-size="10.00">sample: 2022.MM.16</text>
</g>
<!-- 9&#45;&gt;8 -->
<g id="edge12" class="edge">
<title>9&#45;&gt;8</title>
<path fill="none" stroke="grey" stroke-width="2" d="M283.03,-431.34C283.03,-424.75 283.03,-417.08 283.03,-409.67"/>
<polygon fill="grey" stroke="grey" stroke-width="2" points="286.53,-409.93 283.03,-399.93 279.53,-409.93 286.53,-409.93"/>
</g>
<!-- 10&#45;&gt;6 -->
<g id="edge10" class="edge">
<title>10&#45;&gt;6</title>
<path fill="none" stroke="grey" stroke-width="2" d="M298.64,-215.34C292.11,-207.85 284.36,-198.95 277.11,-190.63"/>
<polygon fill="grey" stroke="grey" stroke-width="2" points="279.83,-188.42 270.62,-183.18 274.55,-193.02 279.83,-188.42"/>
</g>
<!-- 11 -->
<g id="node12" class="node">
<title>11</title>
<path fill="none" stroke="#567bd8" stroke-width="2" d="M393.03,-108C393.03,-108 335.03,-108 335.03,-108 329.03,-108 323.03,-102 323.03,-96 323.03,-96 323.03,-84 323.03,-84 323.03,-78 329.03,-72 335.03,-72 335.03,-72 393.03,-72 393.03,-72 399.03,-72 405.03,-78 405.03,-84 405.03,-84 405.03,-96 405.03,-96 405.03,-102 399.03,-108 393.03,-108"/>
<text text-anchor="middle" x="364.03" y="-86.12" font-family="sans" font-size="10.00">_copy_cnv_vcf</text>
</g>
<!-- 11&#45;&gt;0 -->
<g id="edge3" class="edge">
<title>11&#45;&gt;0</title>
<path fill="none" stroke="grey" stroke-width="2" d="M335.22,-71.15C321.47,-62.63 304.8,-52.31 289.94,-43.1"/>
<polygon fill="grey" stroke="grey" stroke-width="2" points="291.92,-40.21 281.58,-37.92 288.24,-46.16 291.92,-40.21"/>
</g>
<!-- 12 -->
<g id="node13" class="node">
<title>12</title>
<path fill="none" stroke="#56d892" stroke-width="2" d="M405.78,-180C405.78,-180 322.28,-180 322.28,-180 316.28,-180 310.28,-174 310.28,-168 310.28,-168 310.28,-156 310.28,-156 310.28,-150 316.28,-144 322.28,-144 322.28,-144 405.78,-144 405.78,-144 411.78,-144 417.78,-150 417.78,-156 417.78,-156 417.78,-168 417.78,-168 417.78,-174 411.78,-180 405.78,-180"/>
<text text-anchor="middle" x="364.03" y="-163.75" font-family="sans" font-size="10.00">hificnv</text>
<text text-anchor="middle" x="364.03" y="-152.5" font-family="sans" font-size="10.00">sample: 2022.MM.16</text>
</g>
<!-- 12&#45;&gt;11 -->
<g id="edge14" class="edge">
<title>12&#45;&gt;11</title>
<path fill="none" stroke="grey" stroke-width="2" d="M364.03,-143.34C364.03,-136.75 364.03,-129.08 364.03,-121.67"/>
<polygon fill="grey" stroke="grey" stroke-width="2" points="367.53,-121.93 364.03,-111.93 360.53,-121.93 367.53,-121.93"/>
</g>
</g>
</svg>
