<?xml version="1.0" encoding="UTF-8" standalone="no"?>
<!DOCTYPE svg PUBLIC "-//W3C//DTD SVG 1.1//EN"
 "http://www.w3.org/Graphics/SVG/1.1/DTD/svg11.dtd">
<!-- Generated by graphviz version 2.40.1 (0)
 -->
<!-- Title: snakemake_dag Pages: 1 -->
<svg width="670pt" height="404pt"
 viewBox="0.00 0.00 669.50 404.00" xmlns="http://www.w3.org/2000/svg" xmlns:xlink="http://www.w3.org/1999/xlink">
<g id="graph0" class="graph" transform="scale(1 1) rotate(0) translate(4 400)">
<title>snakemake_dag</title>
<polygon fill="#ffffff" stroke="transparent" points="-4,4 -4,-400 665.5,-400 665.5,4 -4,4"/>
<!-- 0 -->
<g id="node1" class="node">
<title>0</title>
<path fill="none" stroke="#569ad8" stroke-width="2" d="M326,-36C326,-36 296,-36 296,-36 290,-36 284,-30 284,-24 284,-24 284,-12 284,-12 284,-6 290,0 296,0 296,0 326,0 326,0 332,0 338,-6 338,-12 338,-12 338,-24 338,-24 338,-30 332,-36 326,-36"/>
<text text-anchor="middle" x="311" y="-15.5" font-family="sans" font-size="10.00" fill="#000000">all</text>
</g>
<!-- 1 -->
<g id="node2" class="node">
<title>1</title>
<path fill="none" stroke="#d85656" stroke-width="2" d="M290.5,-108C290.5,-108 197.5,-108 197.5,-108 191.5,-108 185.5,-102 185.5,-96 185.5,-96 185.5,-84 185.5,-84 185.5,-78 191.5,-72 197.5,-72 197.5,-72 290.5,-72 290.5,-72 296.5,-72 302.5,-78 302.5,-84 302.5,-84 302.5,-96 302.5,-96 302.5,-102 296.5,-108 290.5,-108"/>
<text text-anchor="middle" x="244" y="-93" font-family="sans" font-size="10.00" fill="#000000">_copy_vcf</text>
<text text-anchor="middle" x="244" y="-82" font-family="sans" font-size="10.00" fill="#000000">sample: 2022.MM.16</text>
</g>
<!-- 1&#45;&gt;0 -->
<g id="edge1" class="edge">
<title>1&#45;&gt;0</title>
<path fill="none" stroke="#c0c0c0" stroke-width="2" d="M260.9069,-71.8314C268.7813,-63.3694 278.292,-53.1489 286.9013,-43.8971"/>
<polygon fill="#c0c0c0" stroke="#c0c0c0" stroke-width="2" points="289.6153,-46.1183 293.8654,-36.4133 284.4908,-41.3497 289.6153,-46.1183"/>
</g>
<!-- 2 -->
<g id="node3" class="node">
<title>2</title>
<path fill="none" stroke="#59d856" stroke-width="2" d="M259,-180C259,-180 185,-180 185,-180 179,-180 173,-174 173,-168 173,-168 173,-156 173,-156 173,-150 179,-144 185,-144 185,-144 259,-144 259,-144 265,-144 271,-150 271,-156 271,-156 271,-168 271,-168 271,-174 265,-180 259,-180"/>
<text text-anchor="middle" x="222" y="-165" font-family="sans" font-size="10.00" fill="#000000">filtering_bcftools</text>
<text text-anchor="middle" x="222" y="-154" font-family="sans" font-size="10.00" fill="#000000">tag: panel</text>
</g>
<!-- 2&#45;&gt;1 -->
<g id="edge3" class="edge">
<title>2&#45;&gt;1</title>
<path fill="none" stroke="#c0c0c0" stroke-width="2" d="M227.5515,-143.8314C229.9303,-136.0463 232.7638,-126.7729 235.4033,-118.1347"/>
<polygon fill="#c0c0c0" stroke="#c0c0c0" stroke-width="2" points="238.7987,-118.9996 238.3737,-108.4133 232.1042,-116.954 238.7987,-118.9996"/>
</g>
<!-- 3 -->
<g id="node4" class="node">
<title>3</title>
<path fill="none" stroke="#56d89a" stroke-width="2" d="M314,-324C314,-324 12,-324 12,-324 6,-324 0,-318 0,-312 0,-312 0,-300 0,-300 0,-294 6,-288 12,-288 12,-288 314,-288 314,-288 320,-288 326,-294 326,-300 326,-300 326,-312 326,-312 326,-318 320,-324 314,-324"/>
<text text-anchor="middle" x="163" y="-309" font-family="sans" font-size="10.00" fill="#000000">bgzip_vcf</text>
<text text-anchor="middle" x="163" y="-298" font-family="sans" font-size="10.00" fill="#000000">file: variant_calling/deepsomatic_run_deepsomatic/2022.MM.16</text>
</g>
<!-- 3&#45;&gt;2 -->
<g id="edge4" class="edge">
<title>3&#45;&gt;2</title>
<path fill="none" stroke="#c0c0c0" stroke-width="2" d="M164.5492,-287.7034C166.6553,-268.9989 171.4504,-239.4467 182,-216 186.3802,-206.2648 192.7393,-196.5903 199.1031,-188.1767"/>
<polygon fill="#c0c0c0" stroke="#c0c0c0" stroke-width="2" points="201.9328,-190.2409 205.3953,-180.2278 196.4443,-185.8963 201.9328,-190.2409"/>
</g>
<!-- 5 -->
<g id="node6" class="node">
<title>5</title>
<path fill="none" stroke="#d89556" stroke-width="2" d="M241,-252C241,-252 203,-252 203,-252 197,-252 191,-246 191,-240 191,-240 191,-228 191,-228 191,-222 197,-216 203,-216 203,-216 241,-216 241,-216 247,-216 253,-222 253,-228 253,-228 253,-240 253,-240 253,-246 247,-252 241,-252"/>
<text text-anchor="middle" x="222" y="-231.5" font-family="sans" font-size="10.00" fill="#000000">tabix_vcf</text>
</g>
<!-- 3&#45;&gt;5 -->
<g id="edge7" class="edge">
<title>3&#45;&gt;5</title>
<path fill="none" stroke="#c0c0c0" stroke-width="2" d="M177.8882,-287.8314C184.753,-279.454 193.0301,-269.3531 200.5511,-260.1749"/>
<polygon fill="#c0c0c0" stroke="#c0c0c0" stroke-width="2" points="203.2803,-262.3665 206.9114,-252.4133 197.8659,-257.9297 203.2803,-262.3665"/>
</g>
<!-- 4 -->
<g id="node5" class="node">
<title>4</title>
<path fill="none" stroke="#56d8d8" stroke-width="2" d="M235.5,-396C235.5,-396 90.5,-396 90.5,-396 84.5,-396 78.5,-390 78.5,-384 78.5,-384 78.5,-372 78.5,-372 78.5,-366 84.5,-360 90.5,-360 90.5,-360 235.5,-360 235.5,-360 241.5,-360 247.5,-366 247.5,-372 247.5,-372 247.5,-384 247.5,-384 247.5,-390 241.5,-396 235.5,-396"/>
<text text-anchor="middle" x="163" y="-381" font-family="sans" font-size="10.00" fill="#000000">deepsomatic_run_deepsomatic</text>
<text text-anchor="middle" x="163" y="-370" font-family="sans" font-size="10.00" fill="#000000">sample: 2022.MM.16</text>
</g>
<!-- 4&#45;&gt;3 -->
<g id="edge6" class="edge">
<title>4&#45;&gt;3</title>
<path fill="none" stroke="#c0c0c0" stroke-width="2" d="M163,-359.8314C163,-352.131 163,-342.9743 163,-334.4166"/>
<polygon fill="#c0c0c0" stroke="#c0c0c0" stroke-width="2" points="166.5001,-334.4132 163,-324.4133 159.5001,-334.4133 166.5001,-334.4132"/>
</g>
<!-- 5&#45;&gt;2 -->
<g id="edge5" class="edge">
<title>5&#45;&gt;2</title>
<path fill="none" stroke="#c0c0c0" stroke-width="2" d="M222,-215.8314C222,-208.131 222,-198.9743 222,-190.4166"/>
<polygon fill="#c0c0c0" stroke="#c0c0c0" stroke-width="2" points="225.5001,-190.4132 222,-180.4133 218.5001,-190.4133 225.5001,-190.4132"/>
</g>
<!-- 6 -->
<g id="node7" class="node">
<title>6</title>
<path fill="none" stroke="#97d856" stroke-width="2" d="M468.5,-108C468.5,-108 375.5,-108 375.5,-108 369.5,-108 363.5,-102 363.5,-96 363.5,-96 363.5,-84 363.5,-84 363.5,-78 369.5,-72 375.5,-72 375.5,-72 468.5,-72 468.5,-72 474.5,-72 480.5,-78 480.5,-84 480.5,-84 480.5,-96 480.5,-96 480.5,-102 474.5,-108 468.5,-108"/>
<text text-anchor="middle" x="422" y="-93" font-family="sans" font-size="10.00" fill="#000000">_copy_sv_vcf</text>
<text text-anchor="middle" x="422" y="-82" font-family="sans" font-size="10.00" fill="#000000">sample: 2022.MM.16</text>
</g>
<!-- 6&#45;&gt;0 -->
<g id="edge2" class="edge">
<title>6&#45;&gt;0</title>
<path fill="none" stroke="#c0c0c0" stroke-width="2" d="M393.99,-71.8314C379.7091,-62.5681 362.1795,-51.1975 346.9166,-41.2972"/>
<polygon fill="#c0c0c0" stroke="#c0c0c0" stroke-width="2" points="348.5279,-38.1706 338.2336,-35.665 344.7185,-44.0434 348.5279,-38.1706"/>
</g>
<!-- 7 -->
<g id="node8" class="node">
<title>7</title>
<path fill="none" stroke="#59d856" stroke-width="2" d="M481,-180C481,-180 407,-180 407,-180 401,-180 395,-174 395,-168 395,-168 395,-156 395,-156 395,-150 401,-144 407,-144 407,-144 481,-144 481,-144 487,-144 493,-150 493,-156 493,-156 493,-168 493,-168 493,-174 487,-180 481,-180"/>
<text text-anchor="middle" x="444" y="-165" font-family="sans" font-size="10.00" fill="#000000">filtering_bcftools</text>
<text text-anchor="middle" x="444" y="-154" font-family="sans" font-size="10.00" fill="#000000">tag: panel</text>
</g>
<!-- 7&#45;&gt;6 -->
<g id="edge8" class="edge">
<title>7&#45;&gt;6</title>
<path fill="none" stroke="#c0c0c0" stroke-width="2" d="M438.4485,-143.8314C436.0697,-136.0463 433.2362,-126.7729 430.5967,-118.1347"/>
<polygon fill="#c0c0c0" stroke="#c0c0c0" stroke-width="2" points="433.8958,-116.954 427.6263,-108.4133 427.2013,-118.9996 433.8958,-116.954"/>
</g>
<!-- 8 -->
<g id="node9" class="node">
<title>8</title>
<path fill="none" stroke="#56d89a" stroke-width="2" d="M649.5,-324C649.5,-324 356.5,-324 356.5,-324 350.5,-324 344.5,-318 344.5,-312 344.5,-312 344.5,-300 344.5,-300 344.5,-294 350.5,-288 356.5,-288 356.5,-288 649.5,-288 649.5,-288 655.5,-288 661.5,-294 661.5,-300 661.5,-300 661.5,-312 661.5,-312 661.5,-318 655.5,-324 649.5,-324"/>
<text text-anchor="middle" x="503" y="-309" font-family="sans" font-size="10.00" fill="#000000">bgzip_vcf</text>
<text text-anchor="middle" x="503" y="-298" font-family="sans" font-size="10.00" fill="#000000">file: variant_calling/pbsv_call_structural_variants/2022.MM.16</text>
</g>
<!-- 8&#45;&gt;7 -->
<g id="edge9" class="edge">
<title>8&#45;&gt;7</title>
<path fill="none" stroke="#c0c0c0" stroke-width="2" d="M486.3953,-287.7722C478.1985,-277.8527 468.8403,-264.9802 463,-252 454.1812,-232.4 449.3836,-208.5336 446.8165,-190.3038"/>
<polygon fill="#c0c0c0" stroke="#c0c0c0" stroke-width="2" points="450.2779,-189.7777 445.5492,-180.2966 443.3334,-190.6572 450.2779,-189.7777"/>
</g>
<!-- 10 -->
<g id="node11" class="node">
<title>10</title>
<path fill="none" stroke="#d89556" stroke-width="2" d="M522,-252C522,-252 484,-252 484,-252 478,-252 472,-246 472,-240 472,-240 472,-228 472,-228 472,-222 478,-216 484,-216 484,-216 522,-216 522,-216 528,-216 534,-222 534,-228 534,-228 534,-240 534,-240 534,-246 528,-252 522,-252"/>
<text text-anchor="middle" x="503" y="-231.5" font-family="sans" font-size="10.00" fill="#000000">tabix_vcf</text>
</g>
<!-- 8&#45;&gt;10 -->
<g id="edge12" class="edge">
<title>8&#45;&gt;10</title>
<path fill="none" stroke="#c0c0c0" stroke-width="2" d="M503,-287.8314C503,-280.131 503,-270.9743 503,-262.4166"/>
<polygon fill="#c0c0c0" stroke="#c0c0c0" stroke-width="2" points="506.5001,-262.4132 503,-252.4133 499.5001,-262.4133 506.5001,-262.4132"/>
</g>
<!-- 9 -->
<g id="node10" class="node">
<title>9</title>
<path fill="none" stroke="#d6d856" stroke-width="2" d="M570.5,-396C570.5,-396 435.5,-396 435.5,-396 429.5,-396 423.5,-390 423.5,-384 423.5,-384 423.5,-372 423.5,-372 423.5,-366 429.5,-360 435.5,-360 435.5,-360 570.5,-360 570.5,-360 576.5,-360 582.5,-366 582.5,-372 582.5,-372 582.5,-384 582.5,-384 582.5,-390 576.5,-396 570.5,-396"/>
<text text-anchor="middle" x="503" y="-381" font-family="sans" font-size="10.00" fill="#000000">pbsv_call_structural_variants</text>
<text text-anchor="middle" x="503" y="-370" font-family="sans" font-size="10.00" fill="#000000">sample: 2022.MM.16</text>
</g>
<!-- 9&#45;&gt;8 -->
<g id="edge11" class="edge">
<title>9&#45;&gt;8</title>
<path fill="none" stroke="#c0c0c0" stroke-width="2" d="M503,-359.8314C503,-352.131 503,-342.9743 503,-334.4166"/>
<polygon fill="#c0c0c0" stroke="#c0c0c0" stroke-width="2" points="506.5001,-334.4132 503,-324.4133 499.5001,-334.4133 506.5001,-334.4132"/>
</g>
<!-- 10&#45;&gt;7 -->
<g id="edge10" class="edge">
<title>10&#45;&gt;7</title>
<path fill="none" stroke="#c0c0c0" stroke-width="2" d="M488.1118,-215.8314C481.247,-207.454 472.9699,-197.3531 465.4489,-188.1749"/>
<polygon fill="#c0c0c0" stroke="#c0c0c0" stroke-width="2" points="468.1341,-185.9297 459.0886,-180.4133 462.7197,-190.3665 468.1341,-185.9297"/>
</g>
</g>
</svg>
