<?xml version="1.0" encoding="UTF-8" standalone="no"?>
<!DOCTYPE svg PUBLIC "-//W3C//DTD SVG 1.1//EN"
 "http://www.w3.org/Graphics/SVG/1.1/DTD/svg11.dtd">
<!-- Generated by graphviz version 12.2.1 (20241206.2353)
 -->
<!-- Title: snakemake_dag Pages: 1 -->
<svg width="999pt" height="864pt"
 viewBox="0.00 0.00 998.62 864.25" xmlns="http://www.w3.org/2000/svg" xmlns:xlink="http://www.w3.org/1999/xlink">
<g id="graph0" class="graph" transform="scale(1 1) rotate(0) translate(4 860.25)">
<title>snakemake_dag</title>
<polygon fill="white" stroke="none" points="-4,4 -4,-860.25 994.62,-860.25 994.62,4 -4,4"/>
<!-- 0 -->
<g id="node1" class="node">
<title>0</title>
<path fill="none" stroke="#97d856" stroke-width="2" d="M466.38,-36C466.38,-36 436.38,-36 436.38,-36 430.38,-36 424.38,-30 424.38,-24 424.38,-24 424.38,-12 424.38,-12 424.38,-6 430.38,0 436.38,0 436.38,0 466.38,0 466.38,0 472.38,0 478.38,-6 478.38,-12 478.38,-12 478.38,-24 478.38,-24 478.38,-30 472.38,-36 466.38,-36"/>
<text text-anchor="middle" x="451.38" y="-14.12" font-family="sans" font-size="10.00">all</text>
</g>
<!-- 1 -->
<g id="node2" class="node">
<title>1</title>
<path fill="none" stroke="#d87d56" stroke-width="2" d="M131.12,-324C131.12,-324 47.62,-324 47.62,-324 41.63,-324 35.62,-318 35.62,-312 35.62,-312 35.62,-300 35.62,-300 35.62,-294 41.62,-288 47.62,-288 47.62,-288 131.12,-288 131.12,-288 137.12,-288 143.12,-294 143.12,-300 143.12,-300 143.12,-312 143.12,-312 143.12,-318 137.12,-324 131.12,-324"/>
<text text-anchor="middle" x="89.38" y="-307.75" font-family="sans" font-size="10.00">_copy_indel_vcf</text>
<text text-anchor="middle" x="89.38" y="-296.5" font-family="sans" font-size="10.00">sample: 2022.MM.16</text>
</g>
<!-- 1&#45;&gt;0 -->
<g id="edge1" class="edge">
<title>1&#45;&gt;0</title>
<path fill="none" stroke="grey" stroke-width="2" d="M89.44,-287.18C90.65,-242.8 100.49,-126.96 168.38,-72 205.07,-42.29 341.71,-27.57 410.81,-21.89"/>
<polygon fill="grey" stroke="grey" stroke-width="2" points="410.97,-25.39 420.66,-21.11 410.42,-18.41 410.97,-25.39"/>
</g>
<!-- 2 -->
<g id="node3" class="node">
<title>2</title>
<path fill="none" stroke="#56a2d8" stroke-width="2" d="M166.75,-396C166.75,-396 12,-396 12,-396 6,-396 0,-390 0,-384 0,-384 0,-372 0,-372 0,-366 6,-360 12,-360 12,-360 166.75,-360 166.75,-360 172.75,-360 178.75,-366 178.75,-372 178.75,-372 178.75,-384 178.75,-384 178.75,-390 172.75,-396 166.75,-396"/>
<text text-anchor="middle" x="89.38" y="-379.75" font-family="sans" font-size="10.00">filtering_bcftools_filter_include_region</text>
<text text-anchor="middle" x="89.38" y="-368.5" font-family="sans" font-size="10.00">tag: panel</text>
</g>
<!-- 2&#45;&gt;1 -->
<g id="edge9" class="edge">
<title>2&#45;&gt;1</title>
<path fill="none" stroke="grey" stroke-width="2" d="M89.38,-359.34C89.38,-352.75 89.38,-345.08 89.38,-337.67"/>
<polygon fill="grey" stroke="grey" stroke-width="2" points="92.88,-337.93 89.38,-327.93 85.88,-337.93 92.88,-337.93"/>
</g>
<!-- 3 -->
<g id="node4" class="node">
<title>3</title>
<path fill="none" stroke="#d8a456" stroke-width="2" d="M306.25,-540C306.25,-540 190.5,-540 190.5,-540 184.5,-540 178.5,-534 178.5,-528 178.5,-528 178.5,-516 178.5,-516 178.5,-510 184.5,-504 190.5,-504 190.5,-504 306.25,-504 306.25,-504 312.25,-504 318.25,-510 318.25,-516 318.25,-516 318.25,-528 318.25,-528 318.25,-534 312.25,-540 306.25,-540"/>
<text text-anchor="middle" x="248.38" y="-518.12" font-family="sans" font-size="10.00">annotation_whatshap_phase</text>
</g>
<!-- 3&#45;&gt;2 -->
<g id="edge10" class="edge">
<title>3&#45;&gt;2</title>
<path fill="none" stroke="grey" stroke-width="2" d="M177.68,-510.44C150.98,-502.92 122.66,-490.04 104.38,-468 91.08,-451.97 87.54,-428.59 87.22,-409.82"/>
<polygon fill="grey" stroke="grey" stroke-width="2" points="90.72,-409.94 87.42,-399.87 83.72,-409.8 90.72,-409.94"/>
</g>
<!-- 9 -->
<g id="node10" class="node">
<title>9</title>
<path fill="none" stroke="#61d856" stroke-width="2" d="M359.12,-468C359.12,-468 125.62,-468 125.62,-468 119.62,-468 113.62,-462 113.62,-456 113.62,-456 113.62,-444 113.62,-444 113.62,-438 119.62,-432 125.62,-432 125.62,-432 359.12,-432 359.12,-432 365.12,-432 371.12,-438 371.12,-444 371.12,-444 371.12,-456 371.12,-456 371.12,-462 365.12,-468 359.12,-468"/>
<text text-anchor="middle" x="242.38" y="-451.75" font-family="sans" font-size="10.00">cnv_sv_tabix</text>
<text text-anchor="middle" x="242.38" y="-440.5" font-family="sans" font-size="10.00">file: annotation/whatshap_phase/2022.MM.16_T.phased</text>
</g>
<!-- 3&#45;&gt;9 -->
<g id="edge18" class="edge">
<title>3&#45;&gt;9</title>
<path fill="none" stroke="grey" stroke-width="2" d="M246.86,-503.34C246.3,-496.75 245.64,-489.08 245,-481.67"/>
<polygon fill="grey" stroke="grey" stroke-width="2" points="248.51,-481.58 244.17,-471.92 241.53,-482.18 248.51,-481.58"/>
</g>
<!-- 14 -->
<g id="node15" class="node">
<title>14</title>
<path fill="none" stroke="#56d863" stroke-width="2" d="M527.5,-468C527.5,-468 401.25,-468 401.25,-468 395.25,-468 389.25,-462 389.25,-456 389.25,-456 389.25,-444 389.25,-444 389.25,-438 395.25,-432 401.25,-432 401.25,-432 527.5,-432 527.5,-432 533.5,-432 539.5,-438 539.5,-444 539.5,-444 539.5,-456 539.5,-456 539.5,-462 533.5,-468 527.5,-468"/>
<text text-anchor="middle" x="464.38" y="-446.12" font-family="sans" font-size="10.00">annotation_whatshap_haplotag</text>
</g>
<!-- 3&#45;&gt;14 -->
<g id="edge24" class="edge">
<title>3&#45;&gt;14</title>
<path fill="none" stroke="grey" stroke-width="2" d="M303.72,-503.06C332.17,-493.84 367.08,-482.53 397.08,-472.81"/>
<polygon fill="grey" stroke="grey" stroke-width="2" points="397.86,-476.23 406.29,-469.82 395.7,-469.58 397.86,-476.23"/>
</g>
<!-- 4 -->
<g id="node5" class="node">
<title>4</title>
<path fill="none" stroke="#d8b456" stroke-width="2" d="M418.75,-612C418.75,-612 288,-612 288,-612 282,-612 276,-606 276,-600 276,-600 276,-588 276,-588 276,-582 282,-576 288,-576 288,-576 418.75,-576 418.75,-576 424.75,-576 430.75,-582 430.75,-588 430.75,-588 430.75,-600 430.75,-600 430.75,-606 424.75,-612 418.75,-612"/>
<text text-anchor="middle" x="353.38" y="-590.12" font-family="sans" font-size="10.00">snv_indels_deepsomatic_t_only</text>
</g>
<!-- 4&#45;&gt;3 -->
<g id="edge12" class="edge">
<title>4&#45;&gt;3</title>
<path fill="none" stroke="grey" stroke-width="2" d="M326.61,-575.15C314.14,-566.84 299.11,-556.82 285.56,-547.79"/>
<polygon fill="grey" stroke="grey" stroke-width="2" points="287.87,-545.13 277.61,-542.49 283.99,-550.95 287.87,-545.13"/>
</g>
<!-- 5 -->
<g id="node6" class="node">
<title>5</title>
<path fill="none" stroke="#bed856" stroke-width="2" d="M405.25,-684C405.25,-684 301.5,-684 301.5,-684 295.5,-684 289.5,-678 289.5,-672 289.5,-672 289.5,-660 289.5,-660 289.5,-654 295.5,-648 301.5,-648 301.5,-648 405.25,-648 405.25,-648 411.25,-648 417.25,-654 417.25,-660 417.25,-660 417.25,-672 417.25,-672 417.25,-678 411.25,-684 405.25,-684"/>
<text text-anchor="middle" x="353.38" y="-662.12" font-family="sans" font-size="10.00">alignment_pbmm2_merge</text>
</g>
<!-- 5&#45;&gt;3 -->
<g id="edge13" class="edge">
<title>5&#45;&gt;3</title>
<path fill="none" stroke="grey" stroke-width="2" d="M309.99,-647.14C294.37,-638.67 277.99,-627.05 267.38,-612 255.4,-595.03 250.71,-572.01 248.99,-553.64"/>
<polygon fill="grey" stroke="grey" stroke-width="2" points="252.48,-553.45 248.36,-543.69 245.5,-553.89 252.48,-553.45"/>
</g>
<!-- 5&#45;&gt;4 -->
<g id="edge14" class="edge">
<title>5&#45;&gt;4</title>
<path fill="none" stroke="grey" stroke-width="2" d="M353.38,-647.34C353.38,-640.75 353.38,-633.08 353.38,-625.67"/>
<polygon fill="grey" stroke="grey" stroke-width="2" points="356.88,-625.93 353.38,-615.93 349.88,-625.93 356.88,-625.93"/>
</g>
<!-- 5&#45;&gt;14 -->
<g id="edge25" class="edge">
<title>5&#45;&gt;14</title>
<path fill="none" stroke="grey" stroke-width="2" d="M397.65,-647.2C413.2,-638.79 429.28,-627.19 439.38,-612 465.44,-572.76 468.17,-516.43 466.9,-481.86"/>
<polygon fill="grey" stroke="grey" stroke-width="2" points="470.4,-481.73 466.36,-471.93 463.41,-482.11 470.4,-481.73"/>
</g>
<!-- 6 -->
<g id="node7" class="node">
<title>6</title>
<path fill="none" stroke="#56d88a" stroke-width="2" d="M401.88,-756C401.88,-756 304.88,-756 304.88,-756 298.88,-756 292.88,-750 292.88,-744 292.88,-744 292.88,-732 292.88,-732 292.88,-726 298.88,-720 304.88,-720 304.88,-720 401.88,-720 401.88,-720 407.88,-720 413.88,-726 413.88,-732 413.88,-732 413.88,-744 413.88,-744 413.88,-750 407.88,-756 401.88,-756"/>
<text text-anchor="middle" x="353.38" y="-734.12" font-family="sans" font-size="10.00">alignment_pbmm2_align</text>
</g>
<!-- 6&#45;&gt;5 -->
<g id="edge15" class="edge">
<title>6&#45;&gt;5</title>
<path fill="none" stroke="grey" stroke-width="2" d="M353.38,-719.34C353.38,-712.75 353.38,-705.08 353.38,-697.67"/>
<polygon fill="grey" stroke="grey" stroke-width="2" points="356.88,-697.93 353.38,-687.93 349.88,-697.93 356.88,-697.93"/>
</g>
<!-- 7 -->
<g id="node8" class="node">
<title>7</title>
<path fill="none" stroke="#56d8c1" stroke-width="2" d="M355.38,-856.25C355.38,-856.25 165.38,-856.25 165.38,-856.25 159.38,-856.25 153.38,-850.25 153.38,-844.25 153.38,-844.25 153.38,-804 153.38,-804 153.38,-798 159.38,-792 165.38,-792 165.38,-792 355.38,-792 355.38,-792 361.38,-792 367.38,-798 367.38,-804 367.38,-804 367.38,-844.25 367.38,-844.25 367.38,-850.25 361.38,-856.25 355.38,-856.25"/>
<text text-anchor="middle" x="260.38" y="-842.75" font-family="sans" font-size="10.00">prealignment_pbmarkdup</text>
<text text-anchor="middle" x="260.38" y="-831.5" font-family="sans" font-size="10.00">barcode: NAS</text>
<text text-anchor="middle" x="260.38" y="-820.25" font-family="sans" font-size="10.00">processing_unit: m84045_231122_151755_s3</text>
<text text-anchor="middle" x="260.38" y="-809" font-family="sans" font-size="10.00">sample: 2022.MM.16</text>
<text text-anchor="middle" x="260.38" y="-797.75" font-family="sans" font-size="10.00">type: T</text>
</g>
<!-- 7&#45;&gt;6 -->
<g id="edge16" class="edge">
<title>7&#45;&gt;6</title>
<path fill="none" stroke="grey" stroke-width="2" d="M295.8,-791.08C305.12,-782.65 315.08,-773.64 324.04,-765.53"/>
<polygon fill="grey" stroke="grey" stroke-width="2" points="326.34,-768.17 331.41,-758.87 321.65,-762.98 326.34,-768.17"/>
</g>
<!-- 8 -->
<g id="node9" class="node">
<title>8</title>
<path fill="none" stroke="#d86656" stroke-width="2" d="M497.38,-842.12C497.38,-842.12 397.38,-842.12 397.38,-842.12 391.38,-842.12 385.38,-836.12 385.38,-830.12 385.38,-830.12 385.38,-818.12 385.38,-818.12 385.38,-812.12 391.38,-806.12 397.38,-806.12 397.38,-806.12 497.38,-806.12 497.38,-806.12 503.38,-806.12 509.38,-812.12 509.38,-818.12 509.38,-818.12 509.38,-830.12 509.38,-830.12 509.38,-836.12 503.38,-842.12 497.38,-842.12"/>
<text text-anchor="middle" x="447.38" y="-820.25" font-family="sans" font-size="10.00">alignment_pbmm2_index</text>
</g>
<!-- 8&#45;&gt;6 -->
<g id="edge17" class="edge">
<title>8&#45;&gt;6</title>
<path fill="none" stroke="grey" stroke-width="2" d="M427.44,-805.28C414.48,-793.68 397.35,-778.36 382.83,-765.36"/>
<polygon fill="grey" stroke="grey" stroke-width="2" points="385.32,-762.89 375.54,-758.83 380.65,-768.11 385.32,-762.89"/>
</g>
<!-- 9&#45;&gt;2 -->
<g id="edge11" class="edge">
<title>9&#45;&gt;2</title>
<path fill="none" stroke="grey" stroke-width="2" d="M203.37,-431.15C184.2,-422.38 160.86,-411.71 140.3,-402.3"/>
<polygon fill="grey" stroke="grey" stroke-width="2" points="141.88,-399.17 131.33,-398.19 138.96,-405.54 141.88,-399.17"/>
</g>
<!-- 10 -->
<g id="node11" class="node">
<title>10</title>
<path fill="none" stroke="#88d856" stroke-width="2" d="M429.12,-108C429.12,-108 345.62,-108 345.62,-108 339.62,-108 333.62,-102 333.62,-96 333.62,-96 333.62,-84 333.62,-84 333.62,-78 339.62,-72 345.62,-72 345.62,-72 429.12,-72 429.12,-72 435.12,-72 441.12,-78 441.12,-84 441.12,-84 441.12,-96 441.12,-96 441.12,-102 435.12,-108 429.12,-108"/>
<text text-anchor="middle" x="387.38" y="-91.75" font-family="sans" font-size="10.00">_copy_pbsv_vcf</text>
<text text-anchor="middle" x="387.38" y="-80.5" font-family="sans" font-size="10.00">sample: 2022.MM.16</text>
</g>
<!-- 10&#45;&gt;0 -->
<g id="edge2" class="edge">
<title>10&#45;&gt;0</title>
<path fill="none" stroke="grey" stroke-width="2" d="M403.52,-71.34C410.44,-63.77 418.69,-54.75 426.37,-46.35"/>
<polygon fill="grey" stroke="grey" stroke-width="2" points="428.8,-48.88 432.97,-39.14 423.63,-44.15 428.8,-48.88"/>
</g>
<!-- 11 -->
<g id="node12" class="node">
<title>11</title>
<path fill="none" stroke="#56d89a" stroke-width="2" d="M433.12,-180C433.12,-180 289.62,-180 289.62,-180 283.62,-180 277.62,-174 277.62,-168 277.62,-168 277.62,-156 277.62,-156 277.62,-150 283.62,-144 289.62,-144 289.62,-144 433.12,-144 433.12,-144 439.12,-144 445.12,-150 445.12,-156 445.12,-156 445.12,-168 445.12,-168 445.12,-174 439.12,-180 433.12,-180"/>
<text text-anchor="middle" x="361.38" y="-163.75" font-family="sans" font-size="10.00">cnv_sv_bgzip</text>
<text text-anchor="middle" x="361.38" y="-152.5" font-family="sans" font-size="10.00">file: cnv_sv/pbsv_call/2022.MM.16</text>
</g>
<!-- 11&#45;&gt;10 -->
<g id="edge19" class="edge">
<title>11&#45;&gt;10</title>
<path fill="none" stroke="grey" stroke-width="2" d="M367.94,-143.34C370.44,-136.59 373.37,-128.69 376.19,-121.11"/>
<polygon fill="grey" stroke="grey" stroke-width="2" points="379.47,-122.33 379.67,-111.74 372.91,-119.9 379.47,-122.33"/>
</g>
<!-- 12 -->
<g id="node13" class="node">
<title>12</title>
<path fill="none" stroke="#56d873" stroke-width="2" d="M401.38,-252C401.38,-252 331.38,-252 331.38,-252 325.38,-252 319.38,-246 319.38,-240 319.38,-240 319.38,-228 319.38,-228 319.38,-222 325.38,-216 331.38,-216 331.38,-216 401.38,-216 401.38,-216 407.38,-216 413.38,-222 413.38,-228 413.38,-228 413.38,-240 413.38,-240 413.38,-246 407.38,-252 401.38,-252"/>
<text text-anchor="middle" x="366.38" y="-230.12" font-family="sans" font-size="10.00">cnv_sv_pbsv_call</text>
</g>
<!-- 12&#45;&gt;11 -->
<g id="edge20" class="edge">
<title>12&#45;&gt;11</title>
<path fill="none" stroke="grey" stroke-width="2" d="M365.11,-215.34C364.64,-208.75 364.09,-201.08 363.57,-193.67"/>
<polygon fill="grey" stroke="grey" stroke-width="2" points="367.07,-193.65 362.87,-183.92 360.09,-194.15 367.07,-193.65"/>
</g>
<!-- 13 -->
<g id="node14" class="node">
<title>13</title>
<path fill="none" stroke="#56b9d8" stroke-width="2" d="M416.25,-324C416.25,-324 324.5,-324 324.5,-324 318.5,-324 312.5,-318 312.5,-312 312.5,-312 312.5,-300 312.5,-300 312.5,-294 318.5,-288 324.5,-288 324.5,-288 416.25,-288 416.25,-288 422.25,-288 428.25,-294 428.25,-300 428.25,-300 428.25,-312 428.25,-312 428.25,-318 422.25,-324 416.25,-324"/>
<text text-anchor="middle" x="370.38" y="-302.12" font-family="sans" font-size="10.00">cnv_sv_pbsv_discover</text>
</g>
<!-- 13&#45;&gt;12 -->
<g id="edge21" class="edge">
<title>13&#45;&gt;12</title>
<path fill="none" stroke="grey" stroke-width="2" d="M369.37,-287.34C368.99,-280.75 368.55,-273.08 368.13,-265.67"/>
<polygon fill="grey" stroke="grey" stroke-width="2" points="371.64,-265.71 367.57,-255.92 364.65,-266.11 371.64,-265.71"/>
</g>
<!-- 14&#45;&gt;13 -->
<g id="edge22" class="edge">
<title>14&#45;&gt;13</title>
<path fill="none" stroke="grey" stroke-width="2" d="M388.51,-431.71C354.68,-422.32 320.23,-409.81 310.38,-396 301.08,-382.97 303.8,-374.59 310.38,-360 314.97,-349.8 322.61,-340.78 330.93,-333.19"/>
<polygon fill="grey" stroke="grey" stroke-width="2" points="333.05,-335.98 338.52,-326.9 328.59,-330.59 333.05,-335.98"/>
</g>
<!-- 15 -->
<g id="node16" class="node">
<title>15</title>
<path fill="none" stroke="#5692d8" stroke-width="2" d="M596.88,-396C596.88,-396 331.88,-396 331.88,-396 325.88,-396 319.88,-390 319.88,-384 319.88,-384 319.88,-372 319.88,-372 319.88,-366 325.88,-360 331.88,-360 331.88,-360 596.88,-360 596.88,-360 602.88,-360 608.88,-366 608.88,-372 608.88,-372 608.88,-384 608.88,-384 608.88,-390 602.88,-396 596.88,-396"/>
<text text-anchor="middle" x="464.38" y="-379.75" font-family="sans" font-size="10.00">alignment_samtools_index</text>
<text text-anchor="middle" x="464.38" y="-368.5" font-family="sans" font-size="10.00">file: annotation/whatshap_haplotag/2022.MM.16_T.haplotagged</text>
</g>
<!-- 14&#45;&gt;15 -->
<g id="edge26" class="edge">
<title>14&#45;&gt;15</title>
<path fill="none" stroke="grey" stroke-width="2" d="M464.38,-431.34C464.38,-424.75 464.38,-417.08 464.38,-409.67"/>
<polygon fill="grey" stroke="grey" stroke-width="2" points="467.88,-409.93 464.38,-399.93 460.88,-409.93 467.88,-409.93"/>
</g>
<!-- 17 -->
<g id="node18" class="node">
<title>17</title>
<path fill="none" stroke="#566bd8" stroke-width="2" d="M885,-396C885,-396 827.75,-396 827.75,-396 821.75,-396 815.75,-390 815.75,-384 815.75,-384 815.75,-372 815.75,-372 815.75,-366 821.75,-360 827.75,-360 827.75,-360 885,-360 885,-360 891,-360 897,-366 897,-372 897,-372 897,-384 897,-384 897,-390 891,-396 885,-396"/>
<text text-anchor="middle" x="856.38" y="-374.12" font-family="sans" font-size="10.00">cnv_sv_hificnv</text>
</g>
<!-- 14&#45;&gt;17 -->
<g id="edge28" class="edge">
<title>14&#45;&gt;17</title>
<path fill="none" stroke="grey" stroke-width="2" d="M540.42,-435.42C617.39,-421.68 734.47,-400.77 802.4,-388.64"/>
<polygon fill="grey" stroke="grey" stroke-width="2" points="802.69,-392.14 811.92,-386.94 801.46,-385.25 802.69,-392.14"/>
</g>
<!-- 19 -->
<g id="node20" class="node">
<title>19</title>
<path fill="none" stroke="#56c9d8" stroke-width="2" d="M282.12,-324C282.12,-324 216.62,-324 216.62,-324 210.62,-324 204.62,-318 204.62,-312 204.62,-312 204.62,-300 204.62,-300 204.62,-294 210.62,-288 216.62,-288 216.62,-288 282.12,-288 282.12,-288 288.12,-288 294.12,-294 294.12,-300 294.12,-300 294.12,-312 294.12,-312 294.12,-318 288.12,-324 282.12,-324"/>
<text text-anchor="middle" x="249.38" y="-302.12" font-family="sans" font-size="10.00">cnv_sv_sniffles2</text>
</g>
<!-- 14&#45;&gt;19 -->
<g id="edge30" class="edge">
<title>14&#45;&gt;19</title>
<path fill="none" stroke="grey" stroke-width="2" d="M391.78,-431.07C354.97,-420.9 315.02,-407.88 300.38,-396 281.43,-380.63 268.16,-356.22 259.91,-336.85"/>
<polygon fill="grey" stroke="grey" stroke-width="2" points="263.26,-335.82 256.32,-327.81 256.76,-338.4 263.26,-335.82"/>
</g>
<!-- 22 -->
<g id="node23" class="node">
<title>22</title>
<path fill="none" stroke="#d88d56" stroke-width="2" d="M679.5,-252C679.5,-252 595.25,-252 595.25,-252 589.25,-252 583.25,-246 583.25,-240 583.25,-240 583.25,-228 583.25,-228 583.25,-222 589.25,-216 595.25,-216 595.25,-216 679.5,-216 679.5,-216 685.5,-216 691.5,-222 691.5,-228 691.5,-228 691.5,-240 691.5,-240 691.5,-246 685.5,-252 679.5,-252"/>
<text text-anchor="middle" x="637.38" y="-230.12" font-family="sans" font-size="10.00">cnv_sv_cnvkit_batch</text>
</g>
<!-- 14&#45;&gt;22 -->
<g id="edge34" class="edge">
<title>14&#45;&gt;22</title>
<path fill="none" stroke="grey" stroke-width="2" d="M540.46,-440.08C569.09,-432.8 599.3,-419.67 618.38,-396 648.16,-359.05 646.95,-300.93 642.66,-265.55"/>
<polygon fill="grey" stroke="grey" stroke-width="2" points="646.14,-265.18 641.27,-255.77 639.21,-266.16 646.14,-265.18"/>
</g>
<!-- 15&#45;&gt;13 -->
<g id="edge23" class="edge">
<title>15&#45;&gt;13</title>
<path fill="none" stroke="grey" stroke-width="2" d="M440.65,-359.34C429.72,-351.19 416.53,-341.37 404.55,-332.45"/>
<polygon fill="grey" stroke="grey" stroke-width="2" points="406.95,-329.88 396.84,-326.71 402.77,-335.49 406.95,-329.88"/>
</g>
<!-- 15&#45;&gt;19 -->
<g id="edge31" class="edge">
<title>15&#45;&gt;19</title>
<path fill="none" stroke="grey" stroke-width="2" d="M409.29,-359.06C377.98,-348.87 338.83,-336.12 307.1,-325.79"/>
<polygon fill="grey" stroke="grey" stroke-width="2" points="308.36,-322.52 297.77,-322.76 306.2,-329.18 308.36,-322.52"/>
</g>
<!-- 15&#45;&gt;22 -->
<g id="edge35" class="edge">
<title>15&#45;&gt;22</title>
<path fill="none" stroke="grey" stroke-width="2" d="M486.29,-359.02C516.44,-334.26 570.94,-289.53 605.58,-261.1"/>
<polygon fill="grey" stroke="grey" stroke-width="2" points="607.79,-263.81 613.3,-254.76 603.35,-258.4 607.79,-263.81"/>
</g>
<!-- 16 -->
<g id="node17" class="node">
<title>16</title>
<path fill="none" stroke="#567bd8" stroke-width="2" d="M967.75,-108C967.75,-108 897,-108 897,-108 891,-108 885,-102 885,-96 885,-96 885,-84 885,-84 885,-78 891,-72 897,-72 897,-72 967.75,-72 967.75,-72 973.75,-72 979.75,-78 979.75,-84 979.75,-84 979.75,-96 979.75,-96 979.75,-102 973.75,-108 967.75,-108"/>
<text text-anchor="middle" x="932.38" y="-86.12" font-family="sans" font-size="10.00">_copy_hificnv_vcf</text>
</g>
<!-- 16&#45;&gt;0 -->
<g id="edge3" class="edge">
<title>16&#45;&gt;0</title>
<path fill="none" stroke="grey" stroke-width="2" d="M884.05,-81.97C789.2,-68.16 580.24,-37.75 491.98,-24.91"/>
<polygon fill="grey" stroke="grey" stroke-width="2" points="492.53,-21.45 482.13,-23.48 491.52,-28.38 492.53,-21.45"/>
</g>
<!-- 17&#45;&gt;16 -->
<g id="edge27" class="edge">
<title>17&#45;&gt;16</title>
<path fill="none" stroke="grey" stroke-width="2" d="M873.61,-359.08C903.54,-326.58 964.05,-254.37 986.38,-180 990.98,-164.68 992.57,-158.75 986.38,-144 982.22,-134.1 975.21,-125.11 967.59,-117.47"/>
<polygon fill="grey" stroke="grey" stroke-width="2" points="970.13,-115.05 960.39,-110.89 965.41,-120.22 970.13,-115.05"/>
</g>
<!-- 18 -->
<g id="node19" class="node">
<title>18</title>
<path fill="none" stroke="#70d856" stroke-width="2" d="M208.88,-252C208.88,-252 129.88,-252 129.88,-252 123.88,-252 117.88,-246 117.88,-240 117.88,-240 117.88,-228 117.88,-228 117.88,-222 123.88,-216 129.88,-216 129.88,-216 208.88,-216 208.88,-216 214.88,-216 220.88,-222 220.88,-228 220.88,-228 220.88,-240 220.88,-240 220.88,-246 214.88,-252 208.88,-252"/>
<text text-anchor="middle" x="169.38" y="-230.12" font-family="sans" font-size="10.00">_copy_sniffles2_vcf</text>
</g>
<!-- 18&#45;&gt;0 -->
<g id="edge4" class="edge">
<title>18&#45;&gt;0</title>
<path fill="none" stroke="grey" stroke-width="2" d="M166.13,-215.23C161.22,-182.26 156.07,-111.4 193.38,-72 222.65,-41.08 345.89,-27.1 410.88,-21.77"/>
<polygon fill="grey" stroke="grey" stroke-width="2" points="411.09,-25.27 420.79,-21 410.54,-18.29 411.09,-25.27"/>
</g>
<!-- 19&#45;&gt;18 -->
<g id="edge29" class="edge">
<title>19&#45;&gt;18</title>
<path fill="none" stroke="grey" stroke-width="2" d="M229.19,-287.34C220.16,-279.44 209.33,-269.96 199.39,-261.26"/>
<polygon fill="grey" stroke="grey" stroke-width="2" points="201.94,-258.85 192.11,-254.9 197.33,-264.11 201.94,-258.85"/>
</g>
<!-- 20 -->
<g id="node21" class="node">
<title>20</title>
<path fill="none" stroke="#d6d856" stroke-width="2" d="M293.88,-108C293.88,-108 214.88,-108 214.88,-108 208.88,-108 202.88,-102 202.88,-96 202.88,-96 202.88,-84 202.88,-84 202.88,-78 208.88,-72 214.88,-72 214.88,-72 293.88,-72 293.88,-72 299.88,-72 305.88,-78 305.88,-84 305.88,-84 305.88,-96 305.88,-96 305.88,-102 299.88,-108 293.88,-108"/>
<text text-anchor="middle" x="254.38" y="-86.12" font-family="sans" font-size="10.00">_copy_sniffles2_snf</text>
</g>
<!-- 19&#45;&gt;20 -->
<g id="edge32" class="edge">
<title>19&#45;&gt;20</title>
<path fill="none" stroke="grey" stroke-width="2" d="M249.79,-287.12C250.65,-250.62 252.6,-167.13 253.66,-121.74"/>
<polygon fill="grey" stroke="grey" stroke-width="2" points="257.15,-122.08 253.88,-112 250.15,-121.92 257.15,-122.08"/>
</g>
<!-- 20&#45;&gt;0 -->
<g id="edge5" class="edge">
<title>20&#45;&gt;0</title>
<path fill="none" stroke="grey" stroke-width="2" d="M304.85,-71.06C338.02,-59.28 380.8,-44.08 411.56,-33.15"/>
<polygon fill="grey" stroke="grey" stroke-width="2" points="412.43,-36.55 420.68,-29.91 410.09,-29.96 412.43,-36.55"/>
</g>
<!-- 21 -->
<g id="node22" class="node">
<title>21</title>
<path fill="none" stroke="#afd856" stroke-width="2" d="M769.25,-180C769.25,-180 611.5,-180 611.5,-180 605.5,-180 599.5,-174 599.5,-168 599.5,-168 599.5,-156 599.5,-156 599.5,-150 605.5,-144 611.5,-144 611.5,-144 769.25,-144 769.25,-144 775.25,-144 781.25,-150 781.25,-156 781.25,-156 781.25,-168 781.25,-168 781.25,-174 775.25,-180 769.25,-180"/>
<text text-anchor="middle" x="690.38" y="-158.12" font-family="sans" font-size="10.00">_copy_cnvkit_batch_segments_called</text>
</g>
<!-- 21&#45;&gt;0 -->
<g id="edge6" class="edge">
<title>21&#45;&gt;0</title>
<path fill="none" stroke="grey" stroke-width="2" d="M673.6,-143.24C654.31,-123.65 620.98,-92.24 587.38,-72 557.07,-53.75 519.37,-39.64 491.35,-30.58"/>
<polygon fill="grey" stroke="grey" stroke-width="2" points="492.7,-27.34 482.11,-27.69 490.61,-34.02 492.7,-27.34"/>
</g>
<!-- 22&#45;&gt;21 -->
<g id="edge33" class="edge">
<title>22&#45;&gt;21</title>
<path fill="none" stroke="grey" stroke-width="2" d="M650.75,-215.34C656.29,-208.01 662.86,-199.34 669.04,-191.18"/>
<polygon fill="grey" stroke="grey" stroke-width="2" points="671.75,-193.4 674.99,-183.32 666.17,-189.18 671.75,-193.4"/>
</g>
<!-- 23 -->
<g id="node24" class="node">
<title>23</title>
<path fill="none" stroke="#d85656" stroke-width="2" d="M965.38,-180C965.38,-180 811.38,-180 811.38,-180 805.38,-180 799.38,-174 799.38,-168 799.38,-168 799.38,-156 799.38,-156 799.38,-150 805.38,-144 811.38,-144 811.38,-144 965.38,-144 965.38,-144 971.38,-144 977.38,-150 977.38,-156 977.38,-156 977.38,-168 977.38,-168 977.38,-174 971.38,-180 965.38,-180"/>
<text text-anchor="middle" x="888.38" y="-158.12" font-family="sans" font-size="10.00">_copy_cnvkit_batch_target_coverage</text>
</g>
<!-- 22&#45;&gt;23 -->
<g id="edge36" class="edge">
<title>22&#45;&gt;23</title>
<path fill="none" stroke="grey" stroke-width="2" d="M692.46,-217.64C727.41,-207.89 773.14,-195.14 811.62,-184.41"/>
<polygon fill="grey" stroke="grey" stroke-width="2" points="812.5,-187.8 821.19,-181.74 810.62,-181.05 812.5,-187.8"/>
</g>
<!-- 25 -->
<g id="node26" class="node">
<title>25</title>
<path fill="none" stroke="#d8cb56" stroke-width="2" d="M569.75,-180C569.75,-180 475,-180 475,-180 469,-180 463,-174 463,-168 463,-168 463,-156 463,-156 463,-150 469,-144 475,-144 475,-144 569.75,-144 569.75,-144 575.75,-144 581.75,-150 581.75,-156 581.75,-156 581.75,-168 581.75,-168 581.75,-174 575.75,-180 569.75,-180"/>
<text text-anchor="middle" x="522.38" y="-158.12" font-family="sans" font-size="10.00">cnv_sv_cnvkit_diagram</text>
</g>
<!-- 22&#45;&gt;25 -->
<g id="edge38" class="edge">
<title>22&#45;&gt;25</title>
<path fill="none" stroke="grey" stroke-width="2" d="M608.06,-215.15C594.27,-206.76 577.61,-196.62 562.66,-187.52"/>
<polygon fill="grey" stroke="grey" stroke-width="2" points="564.59,-184.6 554.22,-182.39 560.95,-190.58 564.59,-184.6"/>
</g>
<!-- 23&#45;&gt;0 -->
<g id="edge7" class="edge">
<title>23&#45;&gt;0</title>
<path fill="none" stroke="grey" stroke-width="2" d="M837.13,-143.14C784.23,-124.83 699.26,-95.75 625.38,-72 579.59,-57.28 526.7,-41.32 491.36,-30.8"/>
<polygon fill="grey" stroke="grey" stroke-width="2" points="492.67,-27.54 482.08,-28.05 490.67,-34.25 492.67,-27.54"/>
</g>
<!-- 24 -->
<g id="node25" class="node">
<title>24</title>
<path fill="none" stroke="#56d8d0" stroke-width="2" d="M566.12,-108C566.12,-108 476.62,-108 476.62,-108 470.62,-108 464.62,-102 464.62,-96 464.62,-96 464.62,-84 464.62,-84 464.62,-78 470.62,-72 476.62,-72 476.62,-72 566.12,-72 566.12,-72 572.12,-72 578.12,-78 578.12,-84 578.12,-84 578.12,-96 578.12,-96 578.12,-102 572.12,-108 566.12,-108"/>
<text text-anchor="middle" x="521.38" y="-86.12" font-family="sans" font-size="10.00">_copy_cnvkit_diagram</text>
</g>
<!-- 24&#45;&gt;0 -->
<g id="edge8" class="edge">
<title>24&#45;&gt;0</title>
<path fill="none" stroke="grey" stroke-width="2" d="M503.71,-71.34C496.06,-63.69 486.93,-54.56 478.45,-46.08"/>
<polygon fill="grey" stroke="grey" stroke-width="2" points="480.96,-43.64 471.42,-39.04 476.01,-48.59 480.96,-43.64"/>
</g>
<!-- 25&#45;&gt;24 -->
<g id="edge37" class="edge">
<title>25&#45;&gt;24</title>
<path fill="none" stroke="grey" stroke-width="2" d="M522.12,-143.34C522.03,-136.75 521.92,-129.08 521.81,-121.67"/>
<polygon fill="grey" stroke="grey" stroke-width="2" points="525.32,-121.88 521.67,-111.93 518.32,-121.98 525.32,-121.88"/>
</g>
</g>
</svg>
