<?xml version="1.0" encoding="UTF-8" standalone="no"?>
<!DOCTYPE svg PUBLIC "-//W3C//DTD SVG 1.1//EN"
 "http://www.w3.org/Graphics/SVG/1.1/DTD/svg11.dtd">
<!-- Generated by graphviz version 2.40.1 (0)
 -->
<!-- Title: snakemake_dag Pages: 1 -->
<svg width="1044pt" height="1556pt"
 viewBox="0.00 0.00 1043.50 1556.00" xmlns="http://www.w3.org/2000/svg" xmlns:xlink="http://www.w3.org/1999/xlink">
<g id="graph0" class="graph" transform="scale(1 1) rotate(0) translate(4 1552)">
<title>snakemake_dag</title>
<polygon fill="#ffffff" stroke="transparent" points="-4,4 -4,-1552 1039.5,-1552 1039.5,4 -4,4"/>
<!-- 0 -->
<g id="node1" class="node">
<title>0</title>
<path fill="none" stroke="#56d88a" stroke-width="2" d="M693,-36C693,-36 663,-36 663,-36 657,-36 651,-30 651,-24 651,-24 651,-12 651,-12 651,-6 657,0 663,0 663,0 693,0 693,0 699,0 705,-6 705,-12 705,-12 705,-24 705,-24 705,-30 699,-36 693,-36"/>
<text text-anchor="middle" x="678" y="-15.5" font-family="sans" font-size="10.00" fill="#000000">all</text>
</g>
<!-- 1 -->
<g id="node2" class="node">
<title>1</title>
<path fill="none" stroke="#9fd856" stroke-width="2" d="M172,-468C172,-468 12,-468 12,-468 6,-468 0,-462 0,-456 0,-456 0,-444 0,-444 0,-438 6,-432 12,-432 12,-432 172,-432 172,-432 178,-432 184,-438 184,-444 184,-444 184,-456 184,-456 184,-462 178,-468 172,-468"/>
<text text-anchor="middle" x="92" y="-447.5" font-family="sans" font-size="10.00" fill="#000000">_copy_clairs_panel_annotated_vcf</text>
</g>
<!-- 1&#45;&gt;0 -->
<g id="edge6" class="edge">
<title>1&#45;&gt;0</title>
<path fill="none" stroke="#c0c0c0" stroke-width="2" d="M83.517,-431.81C71.7754,-404.9218 52,-352.7039 52,-306 52,-306 52,-306 52,-162 52,-40.5279 505.3263,-21.5164 640.4375,-18.5478"/>
<polygon fill="#c0c0c0" stroke="#c0c0c0" stroke-width="2" points="640.7719,-22.0418 650.699,-18.3402 640.6303,-15.0432 640.7719,-22.0418"/>
</g>
<!-- 2 -->
<g id="node3" class="node">
<title>2</title>
<path fill="none" stroke="#d85656" stroke-width="2" d="M233,-756C233,-756 171,-756 171,-756 165,-756 159,-750 159,-744 159,-744 159,-732 159,-732 159,-726 165,-720 171,-720 171,-720 233,-720 233,-720 239,-720 245,-726 245,-732 245,-732 245,-744 245,-744 245,-750 239,-756 233,-756"/>
<text text-anchor="middle" x="202" y="-735.5" font-family="sans" font-size="10.00" fill="#000000">bgzip_vep_vcf</text>
</g>
<!-- 2&#45;&gt;1 -->
<g id="edge12" class="edge">
<title>2&#45;&gt;1</title>
<path fill="none" stroke="#c0c0c0" stroke-width="2" d="M195.119,-719.9843C176.4834,-671.1929 124.938,-536.2377 102.5771,-477.6927"/>
<polygon fill="#c0c0c0" stroke="#c0c0c0" stroke-width="2" points="105.7161,-476.1018 98.8784,-468.0089 99.1769,-478.5995 105.7161,-476.1018"/>
</g>
<!-- 32 -->
<g id="node33" class="node">
<title>32</title>
<path fill="none" stroke="#d88556" stroke-width="2" d="M337,-612C337,-612 181,-612 181,-612 175,-612 169,-606 169,-600 169,-600 169,-588 169,-588 169,-582 175,-576 181,-576 181,-576 337,-576 337,-576 343,-576 349,-582 349,-588 349,-588 349,-600 349,-600 349,-606 343,-612 337,-612"/>
<text text-anchor="middle" x="259" y="-591.5" font-family="sans" font-size="10.00" fill="#000000">filtering_filter_vep_annotated_vcf</text>
</g>
<!-- 2&#45;&gt;32 -->
<g id="edge55" class="edge">
<title>2&#45;&gt;32</title>
<path fill="none" stroke="#c0c0c0" stroke-width="2" d="M200.618,-719.9317C199.8953,-701.1503 200.7863,-671.2983 211,-648 215.5034,-637.7273 222.7174,-628.0425 230.1988,-619.7882"/>
<polygon fill="#c0c0c0" stroke="#c0c0c0" stroke-width="2" points="232.9566,-621.9703 237.3738,-612.3402 227.9153,-617.1138 232.9566,-621.9703"/>
</g>
<!-- 33 -->
<g id="node34" class="node">
<title>33</title>
<path fill="none" stroke="#88d856" stroke-width="2" d="M292.5,-684C292.5,-684 231.5,-684 231.5,-684 225.5,-684 219.5,-678 219.5,-672 219.5,-672 219.5,-660 219.5,-660 219.5,-654 225.5,-648 231.5,-648 231.5,-648 292.5,-648 292.5,-648 298.5,-648 304.5,-654 304.5,-660 304.5,-660 304.5,-672 304.5,-672 304.5,-678 298.5,-684 292.5,-684"/>
<text text-anchor="middle" x="262" y="-663.5" font-family="sans" font-size="10.00" fill="#000000">tabix_vep_vcf</text>
</g>
<!-- 2&#45;&gt;33 -->
<g id="edge57" class="edge">
<title>2&#45;&gt;33</title>
<path fill="none" stroke="#c0c0c0" stroke-width="2" d="M217.1405,-719.8314C224.1217,-711.454 232.5391,-701.3531 240.1876,-692.1749"/>
<polygon fill="#c0c0c0" stroke="#c0c0c0" stroke-width="2" points="242.9425,-694.3362 246.6556,-684.4133 237.5649,-689.8548 242.9425,-694.3362"/>
</g>
<!-- 3 -->
<g id="node4" class="node">
<title>3</title>
<path fill="none" stroke="#56d8b1" stroke-width="2" d="M258,-828C258,-828 158,-828 158,-828 152,-828 146,-822 146,-816 146,-816 146,-804 146,-804 146,-798 152,-792 158,-792 158,-792 258,-792 258,-792 264,-792 270,-798 270,-804 270,-804 270,-816 270,-816 270,-822 264,-828 258,-828"/>
<text text-anchor="middle" x="208" y="-807.5" font-family="sans" font-size="10.00" fill="#000000">annotation_vep_clairs</text>
</g>
<!-- 3&#45;&gt;2 -->
<g id="edge13" class="edge">
<title>3&#45;&gt;2</title>
<path fill="none" stroke="#c0c0c0" stroke-width="2" d="M206.4859,-791.8314C205.8442,-784.131 205.0812,-774.9743 204.3681,-766.4166"/>
<polygon fill="#c0c0c0" stroke="#c0c0c0" stroke-width="2" points="207.8529,-766.088 203.5344,-756.4133 200.8771,-766.6694 207.8529,-766.088"/>
</g>
<!-- 4 -->
<g id="node5" class="node">
<title>4</title>
<path fill="none" stroke="#56d8c9" stroke-width="2" d="M377.5,-900C377.5,-900 248.5,-900 248.5,-900 242.5,-900 236.5,-894 236.5,-888 236.5,-888 236.5,-876 236.5,-876 236.5,-870 242.5,-864 248.5,-864 248.5,-864 377.5,-864 377.5,-864 383.5,-864 389.5,-870 389.5,-876 389.5,-876 389.5,-888 389.5,-888 389.5,-894 383.5,-900 377.5,-900"/>
<text text-anchor="middle" x="313" y="-879.5" font-family="sans" font-size="10.00" fill="#000000">cnv_sv_tabix_include_panel</text>
</g>
<!-- 4&#45;&gt;3 -->
<g id="edge14" class="edge">
<title>4&#45;&gt;3</title>
<path fill="none" stroke="#c0c0c0" stroke-width="2" d="M286.5041,-863.8314C273.3226,-854.7927 257.2153,-843.7476 243.0289,-834.0198"/>
<polygon fill="#c0c0c0" stroke="#c0c0c0" stroke-width="2" points="244.7141,-830.9316 234.4875,-828.1628 240.7554,-836.7047 244.7141,-830.9316"/>
</g>
<!-- 5 -->
<g id="node6" class="node">
<title>5</title>
<path fill="none" stroke="#56d873" stroke-width="2" d="M422.5,-972C422.5,-972 243.5,-972 243.5,-972 237.5,-972 231.5,-966 231.5,-960 231.5,-960 231.5,-948 231.5,-948 231.5,-942 237.5,-936 243.5,-936 243.5,-936 422.5,-936 422.5,-936 428.5,-936 434.5,-942 434.5,-948 434.5,-948 434.5,-960 434.5,-960 434.5,-966 428.5,-972 422.5,-972"/>
<text text-anchor="middle" x="333" y="-951.5" font-family="sans" font-size="10.00" fill="#000000">filtering_bcftools_filter_include_region</text>
</g>
<!-- 5&#45;&gt;3 -->
<g id="edge15" class="edge">
<title>5&#45;&gt;3</title>
<path fill="none" stroke="#c0c0c0" stroke-width="2" d="M276.6791,-935.983C258.7228,-927.6636 240.3352,-915.9851 228,-900 214.4495,-882.44 209.7086,-857.5196 208.2105,-838.3525"/>
<polygon fill="#c0c0c0" stroke="#c0c0c0" stroke-width="2" points="211.6919,-837.907 207.6686,-828.1058 204.7017,-838.2767 211.6919,-837.907"/>
</g>
<!-- 5&#45;&gt;4 -->
<g id="edge16" class="edge">
<title>5&#45;&gt;4</title>
<path fill="none" stroke="#c0c0c0" stroke-width="2" d="M327.9532,-935.8314C325.7906,-928.0463 323.2147,-918.7729 320.8152,-910.1347"/>
<polygon fill="#c0c0c0" stroke="#c0c0c0" stroke-width="2" points="324.1636,-909.1117 318.1148,-900.4133 317.419,-910.9852 324.1636,-909.1117"/>
</g>
<!-- 6 -->
<g id="node7" class="node">
<title>6</title>
<path fill="none" stroke="#d89c56" stroke-width="2" d="M533.5,-1116C533.5,-1116 402.5,-1116 402.5,-1116 396.5,-1116 390.5,-1110 390.5,-1104 390.5,-1104 390.5,-1092 390.5,-1092 390.5,-1086 396.5,-1080 402.5,-1080 402.5,-1080 533.5,-1080 533.5,-1080 539.5,-1080 545.5,-1086 545.5,-1092 545.5,-1092 545.5,-1104 545.5,-1104 545.5,-1110 539.5,-1116 533.5,-1116"/>
<text text-anchor="middle" x="468" y="-1095.5" font-family="sans" font-size="10.00" fill="#000000">snv_indels_whatshap_phase</text>
</g>
<!-- 6&#45;&gt;5 -->
<g id="edge18" class="edge">
<title>6&#45;&gt;5</title>
<path fill="none" stroke="#c0c0c0" stroke-width="2" d="M450.9022,-1079.7623C427.1659,-1054.4436 384.1108,-1008.5182 357.1173,-979.7251"/>
<polygon fill="#c0c0c0" stroke="#c0c0c0" stroke-width="2" points="359.3518,-976.9912 349.959,-972.0896 354.2451,-981.7788 359.3518,-976.9912"/>
</g>
<!-- 14 -->
<g id="node15" class="node">
<title>14</title>
<path fill="none" stroke="#56d87b" stroke-width="2" d="M496,-1044C496,-1044 440,-1044 440,-1044 434,-1044 428,-1038 428,-1032 428,-1032 428,-1020 428,-1020 428,-1014 434,-1008 440,-1008 440,-1008 496,-1008 496,-1008 502,-1008 508,-1014 508,-1020 508,-1020 508,-1032 508,-1032 508,-1038 502,-1044 496,-1044"/>
<text text-anchor="middle" x="468" y="-1023.5" font-family="sans" font-size="10.00" fill="#000000">cnv_sv_tabix</text>
</g>
<!-- 6&#45;&gt;14 -->
<g id="edge29" class="edge">
<title>6&#45;&gt;14</title>
<path fill="none" stroke="#c0c0c0" stroke-width="2" d="M468,-1079.8314C468,-1072.131 468,-1062.9743 468,-1054.4166"/>
<polygon fill="#c0c0c0" stroke="#c0c0c0" stroke-width="2" points="471.5001,-1054.4132 468,-1044.4133 464.5001,-1054.4133 471.5001,-1054.4132"/>
</g>
<!-- 29 -->
<g id="node30" class="node">
<title>29</title>
<path fill="none" stroke="#568ad8" stroke-width="2" d="M639.5,-972C639.5,-972 494.5,-972 494.5,-972 488.5,-972 482.5,-966 482.5,-960 482.5,-960 482.5,-948 482.5,-948 482.5,-942 488.5,-936 494.5,-936 494.5,-936 639.5,-936 639.5,-936 645.5,-936 651.5,-942 651.5,-948 651.5,-948 651.5,-960 651.5,-960 651.5,-966 645.5,-972 639.5,-972"/>
<text text-anchor="middle" x="567" y="-951.5" font-family="sans" font-size="10.00" fill="#000000">snv_indels_whatshap_haplotag</text>
</g>
<!-- 6&#45;&gt;29 -->
<g id="edge52" class="edge">
<title>6&#45;&gt;29</title>
<path fill="none" stroke="#c0c0c0" stroke-width="2" d="M486.3529,-1079.9104C496.0715,-1069.8258 507.8537,-1056.7577 517,-1044 531.2786,-1024.0835 544.6042,-999.6862 553.9022,-981.3198"/>
<polygon fill="#c0c0c0" stroke="#c0c0c0" stroke-width="2" points="557.0586,-982.8328 558.381,-972.3208 550.7919,-979.7138 557.0586,-982.8328"/>
</g>
<!-- 7 -->
<g id="node8" class="node">
<title>7</title>
<path fill="none" stroke="#56d892" stroke-width="2" d="M534,-1188C534,-1188 406,-1188 406,-1188 400,-1188 394,-1182 394,-1176 394,-1176 394,-1164 394,-1164 394,-1158 400,-1152 406,-1152 406,-1152 534,-1152 534,-1152 540,-1152 546,-1158 546,-1164 546,-1164 546,-1176 546,-1176 546,-1182 540,-1188 534,-1188"/>
<text text-anchor="middle" x="470" y="-1167.5" font-family="sans" font-size="10.00" fill="#000000">snv_indels_clairs_to_concat</text>
</g>
<!-- 7&#45;&gt;6 -->
<g id="edge21" class="edge">
<title>7&#45;&gt;6</title>
<path fill="none" stroke="#c0c0c0" stroke-width="2" d="M469.4953,-1151.8314C469.2814,-1144.131 469.0271,-1134.9743 468.7894,-1126.4166"/>
<polygon fill="#c0c0c0" stroke="#c0c0c0" stroke-width="2" points="472.2879,-1126.3122 468.5115,-1116.4133 465.2906,-1126.5066 472.2879,-1126.3122"/>
</g>
<!-- 8 -->
<g id="node9" class="node">
<title>8</title>
<path fill="none" stroke="#56d0d8" stroke-width="2" d="M533.5,-1260C533.5,-1260 420.5,-1260 420.5,-1260 414.5,-1260 408.5,-1254 408.5,-1248 408.5,-1248 408.5,-1236 408.5,-1236 408.5,-1230 414.5,-1224 420.5,-1224 420.5,-1224 533.5,-1224 533.5,-1224 539.5,-1224 545.5,-1230 545.5,-1236 545.5,-1236 545.5,-1248 545.5,-1248 545.5,-1254 539.5,-1260 533.5,-1260"/>
<text text-anchor="middle" x="477" y="-1239.5" font-family="sans" font-size="10.00" fill="#000000">snv_indels_clairs_to_call</text>
</g>
<!-- 8&#45;&gt;7 -->
<g id="edge22" class="edge">
<title>8&#45;&gt;7</title>
<path fill="none" stroke="#c0c0c0" stroke-width="2" d="M475.2336,-1223.8314C474.485,-1216.131 473.5947,-1206.9743 472.7627,-1198.4166"/>
<polygon fill="#c0c0c0" stroke="#c0c0c0" stroke-width="2" points="476.2415,-1198.0276 471.7902,-1188.4133 469.2744,-1198.7051 476.2415,-1198.0276"/>
</g>
<!-- 9 -->
<g id="node10" class="node">
<title>9</title>
<path fill="none" stroke="#566bd8" stroke-width="2" d="M759,-1404C759,-1404 637,-1404 637,-1404 631,-1404 625,-1398 625,-1392 625,-1392 625,-1380 625,-1380 625,-1374 631,-1368 637,-1368 637,-1368 759,-1368 759,-1368 765,-1368 771,-1374 771,-1380 771,-1380 771,-1392 771,-1392 771,-1398 765,-1404 759,-1404"/>
<text text-anchor="middle" x="698" y="-1383.5" font-family="sans" font-size="10.00" fill="#000000">alignment_pbmm2_merge</text>
</g>
<!-- 9&#45;&gt;6 -->
<g id="edge20" class="edge">
<title>9&#45;&gt;6</title>
<path fill="none" stroke="#c0c0c0" stroke-width="2" d="M624.7203,-1377.1248C554.2853,-1364.3356 451.2073,-1333.5158 400,-1260 372.3018,-1220.235 361.8944,-1194.5978 385,-1152 391.7935,-1139.4754 402.8882,-1129.4004 414.7869,-1121.5017"/>
<polygon fill="#c0c0c0" stroke="#c0c0c0" stroke-width="2" points="416.8488,-1124.343 423.5431,-1116.1309 413.1888,-1118.376 416.8488,-1124.343"/>
</g>
<!-- 9&#45;&gt;8 -->
<g id="edge24" class="edge">
<title>9&#45;&gt;8</title>
<path fill="none" stroke="#c0c0c0" stroke-width="2" d="M634.5776,-1367.9538C610.0465,-1359.2876 582.5167,-1347.3851 560,-1332 534.5091,-1314.5827 511.2248,-1287.9569 495.8492,-1268.1791"/>
<polygon fill="#c0c0c0" stroke="#c0c0c0" stroke-width="2" points="498.5984,-1266.0121 489.7605,-1260.1689 493.0256,-1270.2481 498.5984,-1266.0121"/>
</g>
<!-- 13 -->
<g id="node14" class="node">
<title>13</title>
<path fill="none" stroke="#56c9d8" stroke-width="2" d="M781.5,-1332C781.5,-1332 614.5,-1332 614.5,-1332 608.5,-1332 602.5,-1326 602.5,-1320 602.5,-1320 602.5,-1308 602.5,-1308 602.5,-1302 608.5,-1296 614.5,-1296 614.5,-1296 781.5,-1296 781.5,-1296 787.5,-1296 793.5,-1302 793.5,-1308 793.5,-1308 793.5,-1320 793.5,-1320 793.5,-1326 787.5,-1332 781.5,-1332"/>
<text text-anchor="middle" x="698" y="-1311.5" font-family="sans" font-size="10.00" fill="#000000">alignment_samtools_index_pbmm2</text>
</g>
<!-- 9&#45;&gt;13 -->
<g id="edge28" class="edge">
<title>9&#45;&gt;13</title>
<path fill="none" stroke="#c0c0c0" stroke-width="2" d="M698,-1367.8314C698,-1360.131 698,-1350.9743 698,-1342.4166"/>
<polygon fill="#c0c0c0" stroke="#c0c0c0" stroke-width="2" points="701.5001,-1342.4132 698,-1332.4133 694.5001,-1342.4133 701.5001,-1342.4132"/>
</g>
<!-- 18 -->
<g id="node19" class="node">
<title>18</title>
<path fill="none" stroke="#d8d356" stroke-width="2" d="M791.5,-1260C791.5,-1260 690.5,-1260 690.5,-1260 684.5,-1260 678.5,-1254 678.5,-1248 678.5,-1248 678.5,-1236 678.5,-1236 678.5,-1230 684.5,-1224 690.5,-1224 690.5,-1224 791.5,-1224 791.5,-1224 797.5,-1224 803.5,-1230 803.5,-1236 803.5,-1236 803.5,-1248 803.5,-1248 803.5,-1254 797.5,-1260 791.5,-1260"/>
<text text-anchor="middle" x="741" y="-1239.5" font-family="sans" font-size="10.00" fill="#000000">cnv_sv_pbsv_discover</text>
</g>
<!-- 9&#45;&gt;18 -->
<g id="edge34" class="edge">
<title>9&#45;&gt;18</title>
<path fill="none" stroke="#c0c0c0" stroke-width="2" d="M759.4192,-1367.9938C776.4975,-1359.8495 793.0699,-1348.2732 803,-1332 811.3342,-1318.342 809.6281,-1310.5626 803,-1296 797.826,-1284.6322 788.9457,-1274.7268 779.4972,-1266.6122"/>
<polygon fill="#c0c0c0" stroke="#c0c0c0" stroke-width="2" points="781.4945,-1263.7281 771.4958,-1260.2243 777.1271,-1269.1986 781.4945,-1263.7281"/>
</g>
<!-- 20 -->
<g id="node21" class="node">
<title>20</title>
<path fill="none" stroke="#68d856" stroke-width="2" d="M994,-1332C994,-1332 930,-1332 930,-1332 924,-1332 918,-1326 918,-1320 918,-1320 918,-1308 918,-1308 918,-1302 924,-1296 930,-1296 930,-1296 994,-1296 994,-1296 1000,-1296 1006,-1302 1006,-1308 1006,-1308 1006,-1320 1006,-1320 1006,-1326 1000,-1332 994,-1332"/>
<text text-anchor="middle" x="962" y="-1311.5" font-family="sans" font-size="10.00" fill="#000000">cnv_sv_hificnv</text>
</g>
<!-- 9&#45;&gt;20 -->
<g id="edge36" class="edge">
<title>9&#45;&gt;20</title>
<path fill="none" stroke="#c0c0c0" stroke-width="2" d="M764.2776,-1367.9243C808.6778,-1355.8151 866.3974,-1340.0734 907.9991,-1328.7275"/>
<polygon fill="#c0c0c0" stroke="#c0c0c0" stroke-width="2" points="908.9519,-1332.0956 917.6786,-1326.0876 907.1101,-1325.3422 908.9519,-1332.0956"/>
</g>
<!-- 22 -->
<g id="node23" class="node">
<title>22</title>
<path fill="none" stroke="#d8a456" stroke-width="2" d="M906.5,-1260C906.5,-1260 833.5,-1260 833.5,-1260 827.5,-1260 821.5,-1254 821.5,-1248 821.5,-1248 821.5,-1236 821.5,-1236 821.5,-1230 827.5,-1224 833.5,-1224 833.5,-1224 906.5,-1224 906.5,-1224 912.5,-1224 918.5,-1230 918.5,-1236 918.5,-1236 918.5,-1248 918.5,-1248 918.5,-1254 912.5,-1260 906.5,-1260"/>
<text text-anchor="middle" x="870" y="-1239.5" font-family="sans" font-size="10.00" fill="#000000">cnv_sv_sniffles2</text>
</g>
<!-- 9&#45;&gt;22 -->
<g id="edge39" class="edge">
<title>9&#45;&gt;22</title>
<path fill="none" stroke="#c0c0c0" stroke-width="2" d="M758.136,-1367.8912C779.1192,-1359.4402 801.7182,-1347.7008 819,-1332 837.8765,-1314.8503 851.5041,-1289.033 859.8975,-1269.4414"/>
<polygon fill="#c0c0c0" stroke="#c0c0c0" stroke-width="2" points="863.1651,-1270.6976 863.7036,-1260.1164 856.6841,-1268.0523 863.1651,-1270.6976"/>
</g>
<!-- 9&#45;&gt;29 -->
<g id="edge50" class="edge">
<title>9&#45;&gt;29</title>
<path fill="none" stroke="#c0c0c0" stroke-width="2" d="M642.2083,-1367.8735C624.4225,-1359.5449 606.2115,-1347.8887 594,-1332 569.0303,-1299.5112 574,-1282.9758 574,-1242 574,-1242 574,-1242 574,-1098 574,-1057.8286 571.2486,-1011.4278 569.1958,-982.3979"/>
<polygon fill="#c0c0c0" stroke="#c0c0c0" stroke-width="2" points="572.6682,-981.8907 568.4504,-972.1716 565.6867,-982.3996 572.6682,-981.8907"/>
</g>
<!-- 10 -->
<g id="node11" class="node">
<title>10</title>
<path fill="none" stroke="#8fd856" stroke-width="2" d="M755,-1476C755,-1476 641,-1476 641,-1476 635,-1476 629,-1470 629,-1464 629,-1464 629,-1452 629,-1452 629,-1446 635,-1440 641,-1440 641,-1440 755,-1440 755,-1440 761,-1440 767,-1446 767,-1452 767,-1452 767,-1464 767,-1464 767,-1470 761,-1476 755,-1476"/>
<text text-anchor="middle" x="698" y="-1455.5" font-family="sans" font-size="10.00" fill="#000000">alignment_pbmm2_align</text>
</g>
<!-- 10&#45;&gt;9 -->
<g id="edge25" class="edge">
<title>10&#45;&gt;9</title>
<path fill="none" stroke="#c0c0c0" stroke-width="2" d="M698,-1439.8314C698,-1432.131 698,-1422.9743 698,-1414.4166"/>
<polygon fill="#c0c0c0" stroke="#c0c0c0" stroke-width="2" points="701.5001,-1414.4132 698,-1404.4133 694.5001,-1414.4133 701.5001,-1414.4132"/>
</g>
<!-- 11 -->
<g id="node12" class="node">
<title>11</title>
<path fill="none" stroke="#56a2d8" stroke-width="2" d="M677.5,-1548C677.5,-1548 558.5,-1548 558.5,-1548 552.5,-1548 546.5,-1542 546.5,-1536 546.5,-1536 546.5,-1524 546.5,-1524 546.5,-1518 552.5,-1512 558.5,-1512 558.5,-1512 677.5,-1512 677.5,-1512 683.5,-1512 689.5,-1518 689.5,-1524 689.5,-1524 689.5,-1536 689.5,-1536 689.5,-1542 683.5,-1548 677.5,-1548"/>
<text text-anchor="middle" x="618" y="-1527.5" font-family="sans" font-size="10.00" fill="#000000">prealignment_pbmarkdup</text>
</g>
<!-- 11&#45;&gt;10 -->
<g id="edge27" class="edge">
<title>11&#45;&gt;10</title>
<path fill="none" stroke="#c0c0c0" stroke-width="2" d="M638.1874,-1511.8314C647.8514,-1503.1337 659.5796,-1492.5783 670.0816,-1483.1265"/>
<polygon fill="#c0c0c0" stroke="#c0c0c0" stroke-width="2" points="672.7275,-1485.454 677.8191,-1476.1628 668.0447,-1480.251 672.7275,-1485.454"/>
</g>
<!-- 12 -->
<g id="node13" class="node">
<title>12</title>
<path fill="none" stroke="#d8c356" stroke-width="2" d="M836.5,-1548C836.5,-1548 719.5,-1548 719.5,-1548 713.5,-1548 707.5,-1542 707.5,-1536 707.5,-1536 707.5,-1524 707.5,-1524 707.5,-1518 713.5,-1512 719.5,-1512 719.5,-1512 836.5,-1512 836.5,-1512 842.5,-1512 848.5,-1518 848.5,-1524 848.5,-1524 848.5,-1536 848.5,-1536 848.5,-1542 842.5,-1548 836.5,-1548"/>
<text text-anchor="middle" x="778" y="-1527.5" font-family="sans" font-size="10.00" fill="#000000">alignment_pbmm2_index</text>
</g>
<!-- 12&#45;&gt;10 -->
<g id="edge26" class="edge">
<title>12&#45;&gt;10</title>
<path fill="none" stroke="#c0c0c0" stroke-width="2" d="M757.8126,-1511.8314C748.1486,-1503.1337 736.4204,-1492.5783 725.9184,-1483.1265"/>
<polygon fill="#c0c0c0" stroke="#c0c0c0" stroke-width="2" points="727.9553,-1480.251 718.1809,-1476.1628 723.2725,-1485.454 727.9553,-1480.251"/>
</g>
<!-- 13&#45;&gt;6 -->
<g id="edge19" class="edge">
<title>13&#45;&gt;6</title>
<path fill="none" stroke="#c0c0c0" stroke-width="2" d="M674.8635,-1295.8319C662.7329,-1285.8281 647.9533,-1272.8599 636,-1260 595.151,-1216.0528 599.2517,-1192.519 555,-1152 542.2965,-1140.3681 526.7466,-1129.8057 512.3247,-1121.1696"/>
<polygon fill="#c0c0c0" stroke="#c0c0c0" stroke-width="2" points="513.9296,-1118.0541 503.5262,-1116.0489 510.4085,-1124.104 513.9296,-1118.0541"/>
</g>
<!-- 13&#45;&gt;8 -->
<g id="edge23" class="edge">
<title>13&#45;&gt;8</title>
<path fill="none" stroke="#c0c0c0" stroke-width="2" d="M642.5176,-1295.9243C612.0429,-1285.9959 574.0727,-1273.6255 542.1895,-1263.2382"/>
<polygon fill="#c0c0c0" stroke="#c0c0c0" stroke-width="2" points="543.0975,-1259.853 532.5052,-1260.0831 540.9291,-1266.5087 543.0975,-1259.853"/>
</g>
<!-- 13&#45;&gt;18 -->
<g id="edge33" class="edge">
<title>13&#45;&gt;18</title>
<path fill="none" stroke="#c0c0c0" stroke-width="2" d="M708.8507,-1295.8314C713.7023,-1287.7079 719.5217,-1277.9637 724.868,-1269.0118"/>
<polygon fill="#c0c0c0" stroke="#c0c0c0" stroke-width="2" points="727.8806,-1270.7933 730.0032,-1260.4133 721.8708,-1267.2041 727.8806,-1270.7933"/>
</g>
<!-- 13&#45;&gt;22 -->
<g id="edge38" class="edge">
<title>13&#45;&gt;22</title>
<path fill="none" stroke="#c0c0c0" stroke-width="2" d="M741.4029,-1295.8314C764.5091,-1286.159 793.1038,-1274.1891 817.4577,-1263.9944"/>
<polygon fill="#c0c0c0" stroke="#c0c0c0" stroke-width="2" points="819.0363,-1267.128 826.9092,-1260.038 816.3333,-1260.6709 819.0363,-1267.128"/>
</g>
<!-- 13&#45;&gt;29 -->
<g id="edge49" class="edge">
<title>13&#45;&gt;29</title>
<path fill="none" stroke="#c0c0c0" stroke-width="2" d="M686.9108,-1295.5514C681.1809,-1285.3617 674.4719,-1272.3076 670,-1260 656.0068,-1221.4876 650,-1210.9758 650,-1170 650,-1170 650,-1170 650,-1098 650,-1051.5145 617.1317,-1006.51 592.7624,-979.5311"/>
<polygon fill="#c0c0c0" stroke="#c0c0c0" stroke-width="2" points="595.2082,-977.0215 585.834,-972.0844 590.0833,-981.7898 595.2082,-977.0215"/>
</g>
<!-- 14&#45;&gt;5 -->
<g id="edge17" class="edge">
<title>14&#45;&gt;5</title>
<path fill="none" stroke="#c0c0c0" stroke-width="2" d="M433.9338,-1007.8314C416.3467,-998.4516 394.7084,-986.9112 375.9832,-976.9244"/>
<polygon fill="#c0c0c0" stroke="#c0c0c0" stroke-width="2" points="377.5259,-973.7805 367.0553,-972.1628 374.2318,-979.957 377.5259,-973.7805"/>
</g>
<!-- 14&#45;&gt;29 -->
<g id="edge51" class="edge">
<title>14&#45;&gt;29</title>
<path fill="none" stroke="#c0c0c0" stroke-width="2" d="M492.9819,-1007.8314C505.2928,-998.8779 520.3107,-987.9558 533.5937,-978.2955"/>
<polygon fill="#c0c0c0" stroke="#c0c0c0" stroke-width="2" points="535.9973,-980.8752 542.0261,-972.1628 531.8801,-975.214 535.9973,-980.8752"/>
</g>
<!-- 15 -->
<g id="node16" class="node">
<title>15</title>
<path fill="none" stroke="#56d8a9" stroke-width="2" d="M782,-900C782,-900 712,-900 712,-900 706,-900 700,-894 700,-888 700,-888 700,-876 700,-876 700,-870 706,-864 712,-864 712,-864 782,-864 782,-864 788,-864 794,-870 794,-876 794,-876 794,-888 794,-888 794,-894 788,-900 782,-900"/>
<text text-anchor="middle" x="747" y="-879.5" font-family="sans" font-size="10.00" fill="#000000">_copy_pbsv_vcf</text>
</g>
<!-- 15&#45;&gt;0 -->
<g id="edge7" class="edge">
<title>15&#45;&gt;0</title>
<path fill="none" stroke="#c0c0c0" stroke-width="2" d="M748.4504,-863.8284C750.5007,-836.5296 754,-783.3034 754,-738 754,-738 754,-738 754,-162 754,-116.656 724.1616,-71.5999 701.8774,-44.2735"/>
<polygon fill="#c0c0c0" stroke="#c0c0c0" stroke-width="2" points="704.3585,-41.7856 695.2456,-36.3814 698.9994,-46.2889 704.3585,-41.7856"/>
</g>
<!-- 16 -->
<g id="node17" class="node">
<title>16</title>
<path fill="none" stroke="#56d8d8" stroke-width="2" d="M772,-1116C772,-1116 714,-1116 714,-1116 708,-1116 702,-1110 702,-1104 702,-1104 702,-1092 702,-1092 702,-1086 708,-1080 714,-1080 714,-1080 772,-1080 772,-1080 778,-1080 784,-1086 784,-1092 784,-1092 784,-1104 784,-1104 784,-1110 778,-1116 772,-1116"/>
<text text-anchor="middle" x="743" y="-1095.5" font-family="sans" font-size="10.00" fill="#000000">cnv_sv_bgzip</text>
</g>
<!-- 16&#45;&gt;15 -->
<g id="edge30" class="edge">
<title>16&#45;&gt;15</title>
<path fill="none" stroke="#c0c0c0" stroke-width="2" d="M743.3342,-1079.9555C744.0297,-1042.3938 745.6379,-955.5541 746.4739,-910.4103"/>
<polygon fill="#c0c0c0" stroke="#c0c0c0" stroke-width="2" points="749.9781,-910.2082 746.664,-900.1451 742.9793,-910.0785 749.9781,-910.2082"/>
</g>
<!-- 17 -->
<g id="node18" class="node">
<title>17</title>
<path fill="none" stroke="#d6d856" stroke-width="2" d="M780.5,-1188C780.5,-1188 703.5,-1188 703.5,-1188 697.5,-1188 691.5,-1182 691.5,-1176 691.5,-1176 691.5,-1164 691.5,-1164 691.5,-1158 697.5,-1152 703.5,-1152 703.5,-1152 780.5,-1152 780.5,-1152 786.5,-1152 792.5,-1158 792.5,-1164 792.5,-1164 792.5,-1176 792.5,-1176 792.5,-1182 786.5,-1188 780.5,-1188"/>
<text text-anchor="middle" x="742" y="-1167.5" font-family="sans" font-size="10.00" fill="#000000">cnv_sv_pbsv_call</text>
</g>
<!-- 17&#45;&gt;16 -->
<g id="edge31" class="edge">
<title>17&#45;&gt;16</title>
<path fill="none" stroke="#c0c0c0" stroke-width="2" d="M742.2523,-1151.8314C742.3593,-1144.131 742.4865,-1134.9743 742.6053,-1126.4166"/>
<polygon fill="#c0c0c0" stroke="#c0c0c0" stroke-width="2" points="746.1049,-1126.4609 742.7443,-1116.4133 739.1056,-1126.3637 746.1049,-1126.4609"/>
</g>
<!-- 18&#45;&gt;17 -->
<g id="edge32" class="edge">
<title>18&#45;&gt;17</title>
<path fill="none" stroke="#c0c0c0" stroke-width="2" d="M741.2523,-1223.8314C741.3593,-1216.131 741.4865,-1206.9743 741.6053,-1198.4166"/>
<polygon fill="#c0c0c0" stroke="#c0c0c0" stroke-width="2" points="745.1049,-1198.4609 741.7443,-1188.4133 738.1056,-1198.3637 745.1049,-1198.4609"/>
</g>
<!-- 19 -->
<g id="node20" class="node">
<title>19</title>
<path fill="none" stroke="#d8ac56" stroke-width="2" d="M1023.5,-1188C1023.5,-1188 944.5,-1188 944.5,-1188 938.5,-1188 932.5,-1182 932.5,-1176 932.5,-1176 932.5,-1164 932.5,-1164 932.5,-1158 938.5,-1152 944.5,-1152 944.5,-1152 1023.5,-1152 1023.5,-1152 1029.5,-1152 1035.5,-1158 1035.5,-1164 1035.5,-1164 1035.5,-1176 1035.5,-1176 1035.5,-1182 1029.5,-1188 1023.5,-1188"/>
<text text-anchor="middle" x="984" y="-1167.5" font-family="sans" font-size="10.00" fill="#000000">_copy_hificnv_vcf</text>
</g>
<!-- 19&#45;&gt;0 -->
<g id="edge8" class="edge">
<title>19&#45;&gt;0</title>
<path fill="none" stroke="#c0c0c0" stroke-width="2" d="M985.4504,-1151.8284C987.5007,-1124.5296 991,-1071.3034 991,-1026 991,-1026 991,-1026 991,-162 991,-104.7995 949.0042,-99.7756 899,-72 839.8999,-39.172 761.032,-26.102 715.2515,-21.0448"/>
<polygon fill="#c0c0c0" stroke="#c0c0c0" stroke-width="2" points="715.4877,-17.5506 705.1806,-20.0033 714.7675,-24.5135 715.4877,-17.5506"/>
</g>
<!-- 20&#45;&gt;19 -->
<g id="edge35" class="edge">
<title>20&#45;&gt;19</title>
<path fill="none" stroke="#c0c0c0" stroke-width="2" d="M964.7863,-1295.7623C968.5387,-1271.201 975.2539,-1227.2474 979.6681,-1198.3541"/>
<polygon fill="#c0c0c0" stroke="#c0c0c0" stroke-width="2" points="983.1858,-1198.5035 981.2363,-1188.0896 976.2661,-1197.4463 983.1858,-1198.5035"/>
</g>
<!-- 21 -->
<g id="node22" class="node">
<title>21</title>
<path fill="none" stroke="#d86e56" stroke-width="2" d="M951,-1044C951,-1044 863,-1044 863,-1044 857,-1044 851,-1038 851,-1032 851,-1032 851,-1020 851,-1020 851,-1014 857,-1008 863,-1008 863,-1008 951,-1008 951,-1008 957,-1008 963,-1014 963,-1020 963,-1020 963,-1032 963,-1032 963,-1038 957,-1044 951,-1044"/>
<text text-anchor="middle" x="907" y="-1023.5" font-family="sans" font-size="10.00" fill="#000000">_copy_sniffles2_vcf</text>
</g>
<!-- 21&#45;&gt;0 -->
<g id="edge2" class="edge">
<title>21&#45;&gt;0</title>
<path fill="none" stroke="#c0c0c0" stroke-width="2" d="M910.108,-1007.8777C914.5016,-980.6417 922,-927.4948 922,-882 922,-882 922,-882 922,-162 922,-67.0238 783.1903,-33.3986 714.9651,-22.6077"/>
<polygon fill="#c0c0c0" stroke="#c0c0c0" stroke-width="2" points="715.4528,-19.1418 705.0445,-21.1212 714.4154,-26.0645 715.4528,-19.1418"/>
</g>
<!-- 22&#45;&gt;21 -->
<g id="edge37" class="edge">
<title>22&#45;&gt;21</title>
<path fill="none" stroke="#c0c0c0" stroke-width="2" d="M873.091,-1223.9555C879.5387,-1186.3144 894.4634,-1099.1867 902.1824,-1054.1246"/>
<polygon fill="#c0c0c0" stroke="#c0c0c0" stroke-width="2" points="905.6531,-1054.5925 903.8918,-1044.1451 898.7536,-1053.4105 905.6531,-1054.5925"/>
</g>
<!-- 23 -->
<g id="node24" class="node">
<title>23</title>
<path fill="none" stroke="#567bd8" stroke-width="2" d="M882,-756C882,-756 794,-756 794,-756 788,-756 782,-750 782,-744 782,-744 782,-732 782,-732 782,-726 788,-720 794,-720 794,-720 882,-720 882,-720 888,-720 894,-726 894,-732 894,-732 894,-744 894,-744 894,-750 888,-756 882,-756"/>
<text text-anchor="middle" x="838" y="-735.5" font-family="sans" font-size="10.00" fill="#000000">_copy_sniffles2_snf</text>
</g>
<!-- 22&#45;&gt;23 -->
<g id="edge40" class="edge">
<title>22&#45;&gt;23</title>
<path fill="none" stroke="#c0c0c0" stroke-width="2" d="M860.0325,-1223.9772C846.2361,-1197.2973 823,-1145.3363 823,-1098 823,-1098 823,-1098 823,-882 823,-841.6589 828.8958,-795.3012 833.2947,-766.327"/>
<polygon fill="#c0c0c0" stroke="#c0c0c0" stroke-width="2" points="836.8034,-766.5433 834.892,-756.1223 829.8876,-765.4608 836.8034,-766.5433"/>
</g>
<!-- 23&#45;&gt;0 -->
<g id="edge10" class="edge">
<title>23&#45;&gt;0</title>
<path fill="none" stroke="#c0c0c0" stroke-width="2" d="M833.2344,-719.9623C826.4975,-692.8344 815,-639.8236 815,-594 815,-594 815,-594 815,-162 815,-116.8741 798.9513,-104.8385 768,-72 752.8871,-55.9656 731.971,-43.0307 714.1059,-33.8447"/>
<polygon fill="#c0c0c0" stroke="#c0c0c0" stroke-width="2" points="715.6041,-30.6811 705.0886,-29.3862 712.5015,-36.9559 715.6041,-30.6811"/>
</g>
<!-- 24 -->
<g id="node25" class="node">
<title>24</title>
<path fill="none" stroke="#5663d8" stroke-width="2" d="M486.5,-108C486.5,-108 367.5,-108 367.5,-108 361.5,-108 355.5,-102 355.5,-96 355.5,-96 355.5,-84 355.5,-84 355.5,-78 361.5,-72 367.5,-72 367.5,-72 486.5,-72 486.5,-72 492.5,-72 498.5,-78 498.5,-84 498.5,-84 498.5,-96 498.5,-96 498.5,-102 492.5,-108 486.5,-108"/>
<text text-anchor="middle" x="427" y="-87.5" font-family="sans" font-size="10.00" fill="#000000">_copy_cnvkit_html_report</text>
</g>
<!-- 24&#45;&gt;0 -->
<g id="edge11" class="edge">
<title>24&#45;&gt;0</title>
<path fill="none" stroke="#c0c0c0" stroke-width="2" d="M490.0139,-71.9243C537.7049,-58.244 601.5586,-39.9274 641.2189,-28.5508"/>
<polygon fill="#c0c0c0" stroke="#c0c0c0" stroke-width="2" points="642.3522,-31.8669 650.9994,-25.7452 640.422,-25.1383 642.3522,-31.8669"/>
</g>
<!-- 25 -->
<g id="node26" class="node">
<title>25</title>
<path fill="none" stroke="#bed856" stroke-width="2" d="M548,-180C548,-180 436,-180 436,-180 430,-180 424,-174 424,-168 424,-168 424,-156 424,-156 424,-150 430,-144 436,-144 436,-144 548,-144 548,-144 554,-144 560,-150 560,-156 560,-156 560,-168 560,-168 560,-174 554,-180 548,-180"/>
<text text-anchor="middle" x="492" y="-159.5" font-family="sans" font-size="10.00" fill="#000000">reports_cnv_html_report</text>
</g>
<!-- 25&#45;&gt;24 -->
<g id="edge41" class="edge">
<title>25&#45;&gt;24</title>
<path fill="none" stroke="#c0c0c0" stroke-width="2" d="M475.5978,-143.8314C467.9585,-135.3694 458.7317,-125.1489 450.3793,-115.8971"/>
<polygon fill="#c0c0c0" stroke="#c0c0c0" stroke-width="2" points="452.9221,-113.4906 443.6231,-108.4133 447.7262,-118.1813 452.9221,-113.4906"/>
</g>
<!-- 26 -->
<g id="node27" class="node">
<title>26</title>
<path fill="none" stroke="#a7d856" stroke-width="2" d="M483,-252C483,-252 371,-252 371,-252 365,-252 359,-246 359,-240 359,-240 359,-228 359,-228 359,-222 365,-216 371,-216 371,-216 483,-216 483,-216 489,-216 495,-222 495,-228 495,-228 495,-240 495,-240 495,-246 489,-252 483,-252"/>
<text text-anchor="middle" x="427" y="-231.5" font-family="sans" font-size="10.00" fill="#000000">reports_merge_cnv_json</text>
</g>
<!-- 26&#45;&gt;25 -->
<g id="edge42" class="edge">
<title>26&#45;&gt;25</title>
<path fill="none" stroke="#c0c0c0" stroke-width="2" d="M443.4022,-215.8314C451.0415,-207.3694 460.2683,-197.1489 468.6207,-187.8971"/>
<polygon fill="#c0c0c0" stroke="#c0c0c0" stroke-width="2" points="471.2738,-190.1813 475.3769,-180.4133 466.0779,-185.4906 471.2738,-190.1813"/>
</g>
<!-- 27 -->
<g id="node28" class="node">
<title>27</title>
<path fill="none" stroke="#569ad8" stroke-width="2" d="M561.5,-396C561.5,-396 486.5,-396 486.5,-396 480.5,-396 474.5,-390 474.5,-384 474.5,-384 474.5,-372 474.5,-372 474.5,-366 480.5,-360 486.5,-360 486.5,-360 561.5,-360 561.5,-360 567.5,-360 573.5,-366 573.5,-372 573.5,-372 573.5,-384 573.5,-384 573.5,-390 567.5,-396 561.5,-396"/>
<text text-anchor="middle" x="524" y="-375.5" font-family="sans" font-size="10.00" fill="#000000">reports_cnv_json</text>
</g>
<!-- 27&#45;&gt;26 -->
<g id="edge44" class="edge">
<title>27&#45;&gt;26</title>
<path fill="none" stroke="#c0c0c0" stroke-width="2" d="M524.0194,-359.9344C523.2181,-340.6126 519.4981,-309.8108 505,-288 497.0029,-275.9693 485.3294,-265.8435 473.4375,-257.7296"/>
<polygon fill="#c0c0c0" stroke="#c0c0c0" stroke-width="2" points="475.0954,-254.6348 464.7892,-252.1785 471.3142,-260.5257 475.0954,-254.6348"/>
</g>
<!-- 28 -->
<g id="node29" class="node">
<title>28</title>
<path fill="none" stroke="#56d8c1" stroke-width="2" d="M525,-612C525,-612 403,-612 403,-612 397,-612 391,-606 391,-600 391,-600 391,-588 391,-588 391,-582 397,-576 403,-576 403,-576 525,-576 525,-576 531,-576 537,-582 537,-588 537,-588 537,-600 537,-600 537,-606 531,-612 525,-612"/>
<text text-anchor="middle" x="464" y="-591.5" font-family="sans" font-size="10.00" fill="#000000">cnv_sv_cnvkit_batch_local</text>
</g>
<!-- 28&#45;&gt;27 -->
<g id="edge46" class="edge">
<title>28&#45;&gt;27</title>
<path fill="none" stroke="#c0c0c0" stroke-width="2" d="M469.0124,-575.9555C479.4903,-538.235 503.7725,-450.8188 516.2667,-405.8399"/>
<polygon fill="#c0c0c0" stroke="#c0c0c0" stroke-width="2" points="519.6555,-406.717 518.9597,-396.1451 512.9109,-404.8435 519.6555,-406.717"/>
</g>
<!-- 37 -->
<g id="node38" class="node">
<title>37</title>
<path fill="none" stroke="#d87556" stroke-width="2" d="M428,-540C428,-540 312,-540 312,-540 306,-540 300,-534 300,-528 300,-528 300,-516 300,-516 300,-510 306,-504 312,-504 312,-504 428,-504 428,-504 434,-504 440,-510 440,-516 440,-516 440,-528 440,-528 440,-534 434,-540 428,-540"/>
<text text-anchor="middle" x="370" y="-519.5" font-family="sans" font-size="10.00" fill="#000000">cnvkit_call_new_wrapper</text>
</g>
<!-- 28&#45;&gt;37 -->
<g id="edge62" class="edge">
<title>28&#45;&gt;37</title>
<path fill="none" stroke="#c0c0c0" stroke-width="2" d="M440.2798,-575.8314C428.5906,-566.8779 414.3312,-555.9558 401.7191,-546.2955"/>
<polygon fill="#c0c0c0" stroke="#c0c0c0" stroke-width="2" points="403.7797,-543.4651 393.7126,-540.1628 399.5231,-549.0222 403.7797,-543.4651"/>
</g>
<!-- 29&#45;&gt;28 -->
<g id="edge48" class="edge">
<title>29&#45;&gt;28</title>
<path fill="none" stroke="#c0c0c0" stroke-width="2" d="M525.8907,-935.8743C481.7876,-913.3092 418,-870.2571 418,-810 418,-810 418,-810 418,-738 418,-697.1184 423.5265,-686.5976 437,-648 440.1122,-639.0844 444.378,-629.7559 448.5998,-621.4095"/>
<polygon fill="#c0c0c0" stroke="#c0c0c0" stroke-width="2" points="451.7391,-622.9594 453.284,-612.4778 445.5399,-619.7083 451.7391,-622.9594"/>
</g>
<!-- 30 -->
<g id="node31" class="node">
<title>30</title>
<path fill="none" stroke="#56b1d8" stroke-width="2" d="M676,-684C676,-684 458,-684 458,-684 452,-684 446,-678 446,-672 446,-672 446,-660 446,-660 446,-654 452,-648 458,-648 458,-648 676,-648 676,-648 682,-648 688,-654 688,-660 688,-660 688,-672 688,-672 688,-678 682,-684 676,-684"/>
<text text-anchor="middle" x="567" y="-663.5" font-family="sans" font-size="10.00" fill="#000000">alignment_samtools_index_haplotagged_bam</text>
</g>
<!-- 29&#45;&gt;30 -->
<g id="edge53" class="edge">
<title>29&#45;&gt;30</title>
<path fill="none" stroke="#c0c0c0" stroke-width="2" d="M567,-935.9843C567,-887.2939 567,-752.7961 567,-694.0573"/>
<polygon fill="#c0c0c0" stroke="#c0c0c0" stroke-width="2" points="570.5001,-694.0088 567,-684.0089 563.5001,-694.0089 570.5001,-694.0088"/>
</g>
<!-- 38 -->
<g id="node39" class="node">
<title>38</title>
<path fill="none" stroke="#ced856" stroke-width="2" d="M707.5,-828C707.5,-828 614.5,-828 614.5,-828 608.5,-828 602.5,-822 602.5,-816 602.5,-816 602.5,-804 602.5,-804 602.5,-798 608.5,-792 614.5,-792 614.5,-792 707.5,-792 707.5,-792 713.5,-792 719.5,-798 719.5,-804 719.5,-804 719.5,-816 719.5,-816 719.5,-822 713.5,-828 707.5,-828"/>
<text text-anchor="middle" x="661" y="-807.5" font-family="sans" font-size="10.00" fill="#000000">_copy_mapped_bam</text>
</g>
<!-- 29&#45;&gt;38 -->
<g id="edge63" class="edge">
<title>29&#45;&gt;38</title>
<path fill="none" stroke="#c0c0c0" stroke-width="2" d="M578.9052,-935.7623C595.2914,-910.66 624.9003,-865.3017 643.7229,-836.4671"/>
<polygon fill="#c0c0c0" stroke="#c0c0c0" stroke-width="2" points="646.6561,-838.3766 649.1915,-828.0896 640.7944,-834.5502 646.6561,-838.3766"/>
</g>
<!-- 30&#45;&gt;28 -->
<g id="edge47" class="edge">
<title>30&#45;&gt;28</title>
<path fill="none" stroke="#c0c0c0" stroke-width="2" d="M541.0088,-647.8314C528.0784,-638.7927 512.2778,-627.7476 498.3617,-618.0198"/>
<polygon fill="#c0c0c0" stroke="#c0c0c0" stroke-width="2" points="500.1843,-615.0235 489.9829,-612.1628 496.1737,-620.7608 500.1843,-615.0235"/>
</g>
<!-- 39 -->
<g id="node40" class="node">
<title>39</title>
<path fill="none" stroke="#b6d856" stroke-width="2" d="M665.5,-540C665.5,-540 540.5,-540 540.5,-540 534.5,-540 528.5,-534 528.5,-528 528.5,-528 528.5,-516 528.5,-516 528.5,-510 534.5,-504 540.5,-504 540.5,-504 665.5,-504 665.5,-504 671.5,-504 677.5,-510 677.5,-516 677.5,-516 677.5,-528 677.5,-528 677.5,-534 671.5,-540 665.5,-540"/>
<text text-anchor="middle" x="603" y="-519.5" font-family="sans" font-size="10.00" fill="#000000">_copy_mapped_bam_index</text>
</g>
<!-- 30&#45;&gt;39 -->
<g id="edge64" class="edge">
<title>30&#45;&gt;39</title>
<path fill="none" stroke="#c0c0c0" stroke-width="2" d="M571.5594,-647.7623C577.7268,-623.0928 588.7851,-578.8598 596.0067,-549.9731"/>
<polygon fill="#c0c0c0" stroke="#c0c0c0" stroke-width="2" points="599.4477,-550.6399 598.4776,-540.0896 592.6567,-548.9421 599.4477,-550.6399"/>
</g>
<!-- 31 -->
<g id="node32" class="node">
<title>31</title>
<path fill="none" stroke="#d8bc56" stroke-width="2" d="M270,-324C270,-324 240,-324 240,-324 234,-324 228,-318 228,-312 228,-312 228,-300 228,-300 228,-294 234,-288 240,-288 240,-288 270,-288 270,-288 276,-288 282,-294 282,-300 282,-300 282,-312 282,-312 282,-318 276,-324 270,-324"/>
<text text-anchor="middle" x="255" y="-303.5" font-family="sans" font-size="10.00" fill="#000000">fix_af</text>
</g>
<!-- 31&#45;&gt;26 -->
<g id="edge43" class="edge">
<title>31&#45;&gt;26</title>
<path fill="none" stroke="#c0c0c0" stroke-width="2" d="M282.2539,-294.5914C306.8706,-284.2867 343.7883,-268.8328 374.1779,-256.1116"/>
<polygon fill="#c0c0c0" stroke="#c0c0c0" stroke-width="2" points="375.9185,-259.1773 383.7914,-252.0873 373.2155,-252.7202 375.9185,-259.1773"/>
</g>
<!-- 40 -->
<g id="node41" class="node">
<title>40</title>
<path fill="none" stroke="#5682d8" stroke-width="2" d="M220,-180C220,-180 92,-180 92,-180 86,-180 80,-174 80,-168 80,-168 80,-156 80,-156 80,-150 86,-144 92,-144 92,-144 220,-144 220,-144 226,-144 232,-150 232,-156 232,-156 232,-168 232,-168 232,-174 226,-180 220,-180"/>
<text text-anchor="middle" x="156" y="-159.5" font-family="sans" font-size="10.00" fill="#000000">_copy_germline_claires_vcf</text>
</g>
<!-- 31&#45;&gt;40 -->
<g id="edge65" class="edge">
<title>31&#45;&gt;40</title>
<path fill="none" stroke="#c0c0c0" stroke-width="2" d="M242.4616,-287.7623C225.2038,-262.66 194.0199,-217.3017 174.1961,-188.4671"/>
<polygon fill="#c0c0c0" stroke="#c0c0c0" stroke-width="2" points="176.9861,-186.3472 168.4366,-180.0896 171.2178,-190.3129 176.9861,-186.3472"/>
</g>
<!-- 32&#45;&gt;31 -->
<g id="edge54" class="edge">
<title>32&#45;&gt;31</title>
<path fill="none" stroke="#c0c0c0" stroke-width="2" d="M258.7498,-575.9843C258.0735,-527.2939 256.2055,-392.7961 255.3897,-334.0573"/>
<polygon fill="#c0c0c0" stroke="#c0c0c0" stroke-width="2" points="258.8888,-333.9593 255.2501,-324.0089 251.8894,-334.0566 258.8888,-333.9593"/>
</g>
<!-- 32&#45;&gt;37 -->
<g id="edge61" class="edge">
<title>32&#45;&gt;37</title>
<path fill="none" stroke="#c0c0c0" stroke-width="2" d="M287.01,-575.8314C301.0761,-566.7074 318.294,-555.539 333.3933,-545.7449"/>
<polygon fill="#c0c0c0" stroke="#c0c0c0" stroke-width="2" points="335.514,-548.5412 341.999,-540.1628 331.7047,-542.6684 335.514,-548.5412"/>
</g>
<!-- 33&#45;&gt;32 -->
<g id="edge56" class="edge">
<title>33&#45;&gt;32</title>
<path fill="none" stroke="#c0c0c0" stroke-width="2" d="M261.243,-647.8314C260.9221,-640.131 260.5406,-630.9743 260.184,-622.4166"/>
<polygon fill="#c0c0c0" stroke="#c0c0c0" stroke-width="2" points="263.6806,-622.2589 259.7672,-612.4133 256.6867,-622.5503 263.6806,-622.2589"/>
</g>
<!-- 34 -->
<g id="node35" class="node">
<title>34</title>
<path fill="none" stroke="#70d856" stroke-width="2" d="M483.5,-324C483.5,-324 370.5,-324 370.5,-324 364.5,-324 358.5,-318 358.5,-312 358.5,-312 358.5,-300 358.5,-300 358.5,-294 364.5,-288 370.5,-288 370.5,-288 483.5,-288 483.5,-288 489.5,-288 495.5,-294 495.5,-300 495.5,-300 495.5,-312 495.5,-312 495.5,-318 489.5,-324 483.5,-324"/>
<text text-anchor="middle" x="427" y="-303.5" font-family="sans" font-size="10.00" fill="#000000">cnv_sv_bgzip_cnvkit_vcf</text>
</g>
<!-- 34&#45;&gt;26 -->
<g id="edge45" class="edge">
<title>34&#45;&gt;26</title>
<path fill="none" stroke="#c0c0c0" stroke-width="2" d="M427,-287.8314C427,-280.131 427,-270.9743 427,-262.4166"/>
<polygon fill="#c0c0c0" stroke="#c0c0c0" stroke-width="2" points="430.5001,-262.4132 427,-252.4133 423.5001,-262.4133 430.5001,-262.4132"/>
</g>
<!-- 43 -->
<g id="node44" class="node">
<title>43</title>
<path fill="none" stroke="#d88d56" stroke-width="2" d="M638,-252C638,-252 526,-252 526,-252 520,-252 514,-246 514,-240 514,-240 514,-228 514,-228 514,-222 520,-216 526,-216 526,-216 638,-216 638,-216 644,-216 650,-222 650,-228 650,-228 650,-240 650,-240 650,-246 644,-252 638,-252"/>
<text text-anchor="middle" x="582" y="-231.5" font-family="sans" font-size="10.00" fill="#000000">cnv_sv_tabix_cnvkit_vcf</text>
</g>
<!-- 34&#45;&gt;43 -->
<g id="edge68" class="edge">
<title>34&#45;&gt;43</title>
<path fill="none" stroke="#c0c0c0" stroke-width="2" d="M466.113,-287.8314C486.7512,-278.2446 512.2484,-266.4008 534.0673,-256.2655"/>
<polygon fill="#c0c0c0" stroke="#c0c0c0" stroke-width="2" points="535.5734,-259.4251 543.1682,-252.038 532.6244,-253.0766 535.5734,-259.4251"/>
</g>
<!-- 35 -->
<g id="node36" class="node">
<title>35</title>
<path fill="none" stroke="#56d863" stroke-width="2" d="M444.5,-396C444.5,-396 295.5,-396 295.5,-396 289.5,-396 283.5,-390 283.5,-384 283.5,-384 283.5,-372 283.5,-372 283.5,-366 289.5,-360 295.5,-360 295.5,-360 444.5,-360 444.5,-360 450.5,-360 456.5,-366 456.5,-372 456.5,-372 456.5,-384 456.5,-384 456.5,-390 450.5,-396 444.5,-396"/>
<text text-anchor="middle" x="370" y="-375.5" font-family="sans" font-size="10.00" fill="#000000">annotation_annotate_cnvkit_vcf</text>
</g>
<!-- 35&#45;&gt;34 -->
<g id="edge58" class="edge">
<title>35&#45;&gt;34</title>
<path fill="none" stroke="#c0c0c0" stroke-width="2" d="M384.3835,-359.8314C390.9486,-351.5386 398.8507,-341.557 406.0578,-332.4533"/>
<polygon fill="#c0c0c0" stroke="#c0c0c0" stroke-width="2" points="408.9599,-334.4262 412.4228,-324.4133 403.4716,-330.0813 408.9599,-334.4262"/>
</g>
<!-- 41 -->
<g id="node42" class="node">
<title>41</title>
<path fill="none" stroke="#56d85b" stroke-width="2" d="M393.5,-180C393.5,-180 262.5,-180 262.5,-180 256.5,-180 250.5,-174 250.5,-168 250.5,-168 250.5,-156 250.5,-156 250.5,-150 256.5,-144 262.5,-144 262.5,-144 393.5,-144 393.5,-144 399.5,-144 405.5,-150 405.5,-156 405.5,-156 405.5,-168 405.5,-168 405.5,-174 399.5,-180 393.5,-180"/>
<text text-anchor="middle" x="328" y="-159.5" font-family="sans" font-size="10.00" fill="#000000">_copy_annotated_cnvkit_vcf</text>
</g>
<!-- 35&#45;&gt;41 -->
<g id="edge66" class="edge">
<title>35&#45;&gt;41</title>
<path fill="none" stroke="#c0c0c0" stroke-width="2" d="M362.1279,-359.8216C357.9461,-349.4933 353.0535,-336.221 350,-324 338.5026,-277.9837 332.6411,-223.0138 329.9568,-190.3876"/>
<polygon fill="#c0c0c0" stroke="#c0c0c0" stroke-width="2" points="333.4313,-189.9226 329.1647,-180.2248 326.4524,-190.4666 333.4313,-189.9226"/>
</g>
<!-- 36 -->
<g id="node37" class="node">
<title>36</title>
<path fill="none" stroke="#56d8a2" stroke-width="2" d="M411,-468C411,-468 329,-468 329,-468 323,-468 317,-462 317,-456 317,-456 317,-444 317,-444 317,-438 323,-432 329,-432 329,-432 411,-432 411,-432 417,-432 423,-438 423,-444 423,-444 423,-456 423,-456 423,-462 417,-468 411,-468"/>
<text text-anchor="middle" x="370" y="-447.5" font-family="sans" font-size="10.00" fill="#000000">cnv_sv_cnvkit_vcf</text>
</g>
<!-- 36&#45;&gt;35 -->
<g id="edge59" class="edge">
<title>36&#45;&gt;35</title>
<path fill="none" stroke="#c0c0c0" stroke-width="2" d="M370,-431.8314C370,-424.131 370,-414.9743 370,-406.4166"/>
<polygon fill="#c0c0c0" stroke="#c0c0c0" stroke-width="2" points="373.5001,-406.4132 370,-396.4133 366.5001,-406.4133 373.5001,-406.4132"/>
</g>
<!-- 37&#45;&gt;36 -->
<g id="edge60" class="edge">
<title>37&#45;&gt;36</title>
<path fill="none" stroke="#c0c0c0" stroke-width="2" d="M370,-503.8314C370,-496.131 370,-486.9743 370,-478.4166"/>
<polygon fill="#c0c0c0" stroke="#c0c0c0" stroke-width="2" points="373.5001,-478.4132 370,-468.4133 366.5001,-478.4133 373.5001,-478.4132"/>
</g>
<!-- 38&#45;&gt;0 -->
<g id="edge1" class="edge">
<title>38&#45;&gt;0</title>
<path fill="none" stroke="#c0c0c0" stroke-width="2" d="M672.9342,-791.7554C689.1101,-765.2192 716,-713.903 716,-666 716,-666 716,-666 716,-162 716,-120.3681 700.9672,-74.14 689.8119,-45.567"/>
<polygon fill="#c0c0c0" stroke="#c0c0c0" stroke-width="2" points="693.0368,-44.2055 686.0588,-36.2332 686.5422,-46.817 693.0368,-44.2055"/>
</g>
<!-- 39&#45;&gt;0 -->
<g id="edge5" class="edge">
<title>39&#45;&gt;0</title>
<path fill="none" stroke="#c0c0c0" stroke-width="2" d="M620.0187,-503.5779C642.1468,-477.6309 678,-427.8921 678,-378 678,-378 678,-378 678,-162 678,-121.876 678,-75.4631 678,-46.4177"/>
<polygon fill="#c0c0c0" stroke="#c0c0c0" stroke-width="2" points="681.5001,-46.1853 678,-36.1854 674.5001,-46.1854 681.5001,-46.1853"/>
</g>
<!-- 40&#45;&gt;0 -->
<g id="edge9" class="edge">
<title>40&#45;&gt;0</title>
<path fill="none" stroke="#c0c0c0" stroke-width="2" d="M183.1032,-143.8305C215.4452,-123.0561 271.8417,-89.6498 325,-72 435.9154,-35.1736 574.8866,-23.302 640.456,-19.602"/>
<polygon fill="#c0c0c0" stroke="#c0c0c0" stroke-width="2" points="640.9067,-23.0831 650.7068,-19.0571 640.5351,-16.0929 640.9067,-23.0831"/>
</g>
<!-- 41&#45;&gt;0 -->
<g id="edge3" class="edge">
<title>41&#45;&gt;0</title>
<path fill="none" stroke="#c0c0c0" stroke-width="2" d="M326.3129,-143.9745C325.4764,-123.4964 327.5949,-90.5261 347,-72 388.5797,-32.3037 562.9477,-21.718 640.5165,-18.9524"/>
<polygon fill="#c0c0c0" stroke="#c0c0c0" stroke-width="2" points="640.9169,-22.4412 650.7955,-18.6119 640.685,-15.445 640.9169,-22.4412"/>
</g>
<!-- 42 -->
<g id="node43" class="node">
<title>42</title>
<path fill="none" stroke="#d85e56" stroke-width="2" d="M637.5,-108C637.5,-108 528.5,-108 528.5,-108 522.5,-108 516.5,-102 516.5,-96 516.5,-96 516.5,-84 516.5,-84 516.5,-78 522.5,-72 528.5,-72 528.5,-72 637.5,-72 637.5,-72 643.5,-72 649.5,-78 649.5,-84 649.5,-84 649.5,-96 649.5,-96 649.5,-102 643.5,-108 637.5,-108"/>
<text text-anchor="middle" x="583" y="-87.5" font-family="sans" font-size="10.00" fill="#000000">_copy_index_cnvkit_vcf</text>
</g>
<!-- 42&#45;&gt;0 -->
<g id="edge4" class="edge">
<title>42&#45;&gt;0</title>
<path fill="none" stroke="#c0c0c0" stroke-width="2" d="M606.9725,-71.8314C618.7861,-62.8779 633.1972,-51.9558 645.9435,-42.2955"/>
<polygon fill="#c0c0c0" stroke="#c0c0c0" stroke-width="2" points="648.1795,-44.9925 654.0352,-36.1628 643.9514,-39.4137 648.1795,-44.9925"/>
</g>
<!-- 43&#45;&gt;42 -->
<g id="edge67" class="edge">
<title>43&#45;&gt;42</title>
<path fill="none" stroke="#c0c0c0" stroke-width="2" d="M582.1267,-215.7623C582.2972,-191.201 582.6024,-147.2474 582.8031,-118.3541"/>
<polygon fill="#c0c0c0" stroke="#c0c0c0" stroke-width="2" points="586.3048,-118.1137 582.8744,-108.0896 579.3049,-118.065 586.3048,-118.1137"/>
</g>
</g>
</svg>
