<?xml version="1.0" encoding="UTF-8" standalone="no"?>
<!DOCTYPE svg PUBLIC "-//W3C//DTD SVG 1.1//EN"
 "http://www.w3.org/Graphics/SVG/1.1/DTD/svg11.dtd">
<!-- Generated by graphviz version 12.2.1 (20241206.2353)
 -->
<!-- Title: snakemake_dag Pages: 1 -->
<svg width="534pt" height="404pt"
 viewBox="0.00 0.00 533.50 404.00" xmlns="http://www.w3.org/2000/svg" xmlns:xlink="http://www.w3.org/1999/xlink">
<g id="graph0" class="graph" transform="scale(1 1) rotate(0) translate(4 400)">
<title>snakemake_dag</title>
<polygon fill="white" stroke="none" points="-4,4 -4,-400 529.5,-400 529.5,4 -4,4"/>
<!-- 0 -->
<g id="node1" class="node">
<title>0</title>
<path fill="none" stroke="#b6d856" stroke-width="2" d="M389.75,-36C389.75,-36 359.75,-36 359.75,-36 353.75,-36 347.75,-30 347.75,-24 347.75,-24 347.75,-12 347.75,-12 347.75,-6 353.75,0 359.75,0 359.75,0 389.75,0 389.75,0 395.75,0 401.75,-6 401.75,-12 401.75,-12 401.75,-24 401.75,-24 401.75,-30 395.75,-36 389.75,-36"/>
<text text-anchor="middle" x="374.75" y="-14.12" font-family="sans" font-size="10.00">all</text>
</g>
<!-- 1 -->
<g id="node2" class="node">
<title>1</title>
<path fill="none" stroke="#d8a456" stroke-width="2" d="M296.5,-108C296.5,-108 213,-108 213,-108 207,-108 201,-102 201,-96 201,-96 201,-84 201,-84 201,-78 207,-72 213,-72 213,-72 296.5,-72 296.5,-72 302.5,-72 308.5,-78 308.5,-84 308.5,-84 308.5,-96 308.5,-96 308.5,-102 302.5,-108 296.5,-108"/>
<text text-anchor="middle" x="254.75" y="-91.75" font-family="sans" font-size="10.00">_copy_indel_vcf</text>
<text text-anchor="middle" x="254.75" y="-80.5" font-family="sans" font-size="10.00">sample: 2022.MM.16</text>
</g>
<!-- 1&#45;&gt;0 -->
<g id="edge1" class="edge">
<title>1&#45;&gt;0</title>
<path fill="none" stroke="grey" stroke-width="2" d="M285.34,-71.15C300.8,-62.14 319.72,-51.1 336.17,-41.51"/>
<polygon fill="grey" stroke="grey" stroke-width="2" points="337.6,-44.72 344.47,-36.66 334.07,-38.68 337.6,-44.72"/>
</g>
<!-- 2 -->
<g id="node3" class="node">
<title>2</title>
<path fill="none" stroke="#56d89a" stroke-width="2" d="M275.88,-180C275.88,-180 191.62,-180 191.62,-180 185.62,-180 179.62,-174 179.62,-168 179.62,-168 179.62,-156 179.62,-156 179.62,-150 185.62,-144 191.62,-144 191.62,-144 275.88,-144 275.88,-144 281.88,-144 287.88,-150 287.88,-156 287.88,-156 287.88,-168 287.88,-168 287.88,-174 281.88,-180 275.88,-180"/>
<text text-anchor="middle" x="233.75" y="-163.75" font-family="sans" font-size="10.00">deepsomatic_filtering</text>
<text text-anchor="middle" x="233.75" y="-152.5" font-family="sans" font-size="10.00">tag: panel</text>
</g>
<!-- 2&#45;&gt;1 -->
<g id="edge4" class="edge">
<title>2&#45;&gt;1</title>
<path fill="none" stroke="grey" stroke-width="2" d="M239.05,-143.34C241.07,-136.59 243.44,-128.69 245.72,-121.11"/>
<polygon fill="grey" stroke="grey" stroke-width="2" points="248.99,-122.39 248.51,-111.8 242.28,-120.37 248.99,-122.39"/>
</g>
<!-- 3 -->
<g id="node4" class="node">
<title>3</title>
<path fill="none" stroke="#d8ac56" stroke-width="2" d="M219.5,-324C219.5,-324 136,-324 136,-324 130,-324 124,-318 124,-312 124,-312 124,-300 124,-300 124,-294 130,-288 136,-288 136,-288 219.5,-288 219.5,-288 225.5,-288 231.5,-294 231.5,-300 231.5,-300 231.5,-312 231.5,-312 231.5,-318 225.5,-324 219.5,-324"/>
<text text-anchor="middle" x="177.75" y="-307.75" font-family="sans" font-size="10.00">deepsomatic_tn</text>
<text text-anchor="middle" x="177.75" y="-296.5" font-family="sans" font-size="10.00">sample: 2022.MM.16</text>
</g>
<!-- 3&#45;&gt;2 -->
<g id="edge5" class="edge">
<title>3&#45;&gt;2</title>
<path fill="none" stroke="grey" stroke-width="2" d="M149.5,-287.07C138,-278.08 125.97,-266.1 119.75,-252 113.3,-237.36 111.15,-229.49 119.75,-216 130.58,-199.02 148.42,-187.39 166.8,-179.47"/>
<polygon fill="grey" stroke="grey" stroke-width="2" points="168.02,-182.75 176.07,-175.87 165.48,-176.23 168.02,-182.75"/>
</g>
<!-- 6 -->
<g id="node7" class="node">
<title>6</title>
<path fill="none" stroke="#5692d8" stroke-width="2" d="M326.88,-252C326.88,-252 140.62,-252 140.62,-252 134.62,-252 128.62,-246 128.62,-240 128.62,-240 128.62,-228 128.62,-228 128.62,-222 134.62,-216 140.62,-216 140.62,-216 326.88,-216 326.88,-216 332.88,-216 338.88,-222 338.88,-228 338.88,-228 338.88,-240 338.88,-240 338.88,-246 332.88,-252 326.88,-252"/>
<text text-anchor="middle" x="233.75" y="-235.75" font-family="sans" font-size="10.00">tabix_vcf</text>
<text text-anchor="middle" x="233.75" y="-224.5" font-family="sans" font-size="10.00">file: snv_indels/deepsomatic_tn/2022.MM.16</text>
</g>
<!-- 3&#45;&gt;6 -->
<g id="edge9" class="edge">
<title>3&#45;&gt;6</title>
<path fill="none" stroke="grey" stroke-width="2" d="M191.88,-287.34C197.8,-279.93 204.84,-271.14 211.43,-262.9"/>
<polygon fill="grey" stroke="grey" stroke-width="2" points="214.02,-265.26 217.54,-255.27 208.56,-260.89 214.02,-265.26"/>
</g>
<!-- 4 -->
<g id="node5" class="node">
<title>4</title>
<path fill="none" stroke="#d8bc56" stroke-width="2" stroke-dasharray="5,2" d="M233.5,-396C233.5,-396 12,-396 12,-396 6,-396 0,-390 0,-384 0,-384 0,-372 0,-372 0,-366 6,-360 12,-360 12,-360 233.5,-360 233.5,-360 239.5,-360 245.5,-366 245.5,-372 245.5,-372 245.5,-384 245.5,-384 245.5,-390 239.5,-396 233.5,-396"/>
<text text-anchor="middle" x="122.75" y="-379.75" font-family="sans" font-size="10.00">alignment_samtools_index</text>
<text text-anchor="middle" x="122.75" y="-368.5" font-family="sans" font-size="10.00">file: alignment/samtools_merge_bam/2022.MM.16_N</text>
</g>
<!-- 4&#45;&gt;3 -->
<g id="edge7" class="edge">
<title>4&#45;&gt;3</title>
<path fill="none" stroke="grey" stroke-width="2" d="M136.63,-359.34C142.45,-351.93 149.35,-343.14 155.83,-334.9"/>
<polygon fill="grey" stroke="grey" stroke-width="2" points="158.39,-337.31 161.81,-327.28 152.88,-332.98 158.39,-337.31"/>
</g>
<!-- 5 -->
<g id="node6" class="node">
<title>5</title>
<path fill="none" stroke="#d8bc56" stroke-width="2" stroke-dasharray="5,2" d="M495.75,-396C495.75,-396 275.75,-396 275.75,-396 269.75,-396 263.75,-390 263.75,-384 263.75,-384 263.75,-372 263.75,-372 263.75,-366 269.75,-360 275.75,-360 275.75,-360 495.75,-360 495.75,-360 501.75,-360 507.75,-366 507.75,-372 507.75,-372 507.75,-384 507.75,-384 507.75,-390 501.75,-396 495.75,-396"/>
<text text-anchor="middle" x="385.75" y="-379.75" font-family="sans" font-size="10.00">alignment_samtools_index</text>
<text text-anchor="middle" x="385.75" y="-368.5" font-family="sans" font-size="10.00">file: alignment/samtools_merge_bam/2022.MM.16_T</text>
</g>
<!-- 5&#45;&gt;3 -->
<g id="edge8" class="edge">
<title>5&#45;&gt;3</title>
<path fill="none" stroke="grey" stroke-width="2" d="M332.45,-359.06C305.18,-349.88 271.74,-338.63 242.93,-328.94"/>
<polygon fill="grey" stroke="grey" stroke-width="2" points="244.37,-325.73 233.78,-325.85 242.14,-332.36 244.37,-325.73"/>
</g>
<!-- 9 -->
<g id="node10" class="node">
<title>9</title>
<path fill="none" stroke="#56c1d8" stroke-width="2" d="M427.5,-324C427.5,-324 344,-324 344,-324 338,-324 332,-318 332,-312 332,-312 332,-300 332,-300 332,-294 338,-288 344,-288 344,-288 427.5,-288 427.5,-288 433.5,-288 439.5,-294 439.5,-300 439.5,-300 439.5,-312 439.5,-312 439.5,-318 433.5,-324 427.5,-324"/>
<text text-anchor="middle" x="385.75" y="-307.75" font-family="sans" font-size="10.00">pbsv_discover</text>
<text text-anchor="middle" x="385.75" y="-296.5" font-family="sans" font-size="10.00">sample: 2022.MM.16</text>
</g>
<!-- 5&#45;&gt;9 -->
<g id="edge12" class="edge">
<title>5&#45;&gt;9</title>
<path fill="none" stroke="grey" stroke-width="2" d="M385.75,-359.34C385.75,-352.75 385.75,-345.08 385.75,-337.67"/>
<polygon fill="grey" stroke="grey" stroke-width="2" points="389.25,-337.93 385.75,-327.93 382.25,-337.93 389.25,-337.93"/>
</g>
<!-- 6&#45;&gt;2 -->
<g id="edge6" class="edge">
<title>6&#45;&gt;2</title>
<path fill="none" stroke="grey" stroke-width="2" d="M233.75,-215.34C233.75,-208.75 233.75,-201.08 233.75,-193.67"/>
<polygon fill="grey" stroke="grey" stroke-width="2" points="237.25,-193.93 233.75,-183.93 230.25,-193.93 237.25,-193.93"/>
</g>
<!-- 7 -->
<g id="node8" class="node">
<title>7</title>
<path fill="none" stroke="#97d856" stroke-width="2" d="M401.12,-108C401.12,-108 348.38,-108 348.38,-108 342.38,-108 336.38,-102 336.38,-96 336.38,-96 336.38,-84 336.38,-84 336.38,-78 342.38,-72 348.38,-72 348.38,-72 401.12,-72 401.12,-72 407.12,-72 413.12,-78 413.12,-84 413.12,-84 413.12,-96 413.12,-96 413.12,-102 407.12,-108 401.12,-108"/>
<text text-anchor="middle" x="374.75" y="-86.12" font-family="sans" font-size="10.00">_copy_sv_vcf</text>
</g>
<!-- 7&#45;&gt;0 -->
<g id="edge2" class="edge">
<title>7&#45;&gt;0</title>
<path fill="none" stroke="grey" stroke-width="2" d="M374.75,-71.34C374.75,-64.75 374.75,-57.08 374.75,-49.67"/>
<polygon fill="grey" stroke="grey" stroke-width="2" points="378.25,-49.93 374.75,-39.93 371.25,-49.93 378.25,-49.93"/>
</g>
<!-- 8 -->
<g id="node9" class="node">
<title>8</title>
<path fill="none" stroke="#d88556" stroke-width="2" d="M402.38,-252C402.38,-252 369.12,-252 369.12,-252 363.12,-252 357.12,-246 357.12,-240 357.12,-240 357.12,-228 357.12,-228 357.12,-222 363.12,-216 369.12,-216 369.12,-216 402.38,-216 402.38,-216 408.38,-216 414.38,-222 414.38,-228 414.38,-228 414.38,-240 414.38,-240 414.38,-246 408.38,-252 402.38,-252"/>
<text text-anchor="middle" x="385.75" y="-230.12" font-family="sans" font-size="10.00">pbsv_call</text>
</g>
<!-- 8&#45;&gt;7 -->
<g id="edge10" class="edge">
<title>8&#45;&gt;7</title>
<path fill="none" stroke="grey" stroke-width="2" d="M384.36,-215.02C382.54,-191.54 379.33,-150.11 377.12,-121.64"/>
<polygon fill="grey" stroke="grey" stroke-width="2" points="380.63,-121.56 376.37,-111.86 373.65,-122.1 380.63,-121.56"/>
</g>
<!-- 9&#45;&gt;8 -->
<g id="edge11" class="edge">
<title>9&#45;&gt;8</title>
<path fill="none" stroke="grey" stroke-width="2" d="M385.75,-287.34C385.75,-280.75 385.75,-273.08 385.75,-265.67"/>
<polygon fill="grey" stroke="grey" stroke-width="2" points="389.25,-265.93 385.75,-255.93 382.25,-265.93 389.25,-265.93"/>
</g>
<!-- 10 -->
<g id="node11" class="node">
<title>10</title>
<path fill="none" stroke="#56b1d8" stroke-width="2" d="M500.75,-108C500.75,-108 442.75,-108 442.75,-108 436.75,-108 430.75,-102 430.75,-96 430.75,-96 430.75,-84 430.75,-84 430.75,-78 436.75,-72 442.75,-72 442.75,-72 500.75,-72 500.75,-72 506.75,-72 512.75,-78 512.75,-84 512.75,-84 512.75,-96 512.75,-96 512.75,-102 506.75,-108 500.75,-108"/>
<text text-anchor="middle" x="471.75" y="-86.12" font-family="sans" font-size="10.00">_copy_cnv_vcf</text>
</g>
<!-- 10&#45;&gt;0 -->
<g id="edge3" class="edge">
<title>10&#45;&gt;0</title>
<path fill="none" stroke="grey" stroke-width="2" d="M447.02,-71.15C435.73,-63.01 422.16,-53.22 409.85,-44.33"/>
<polygon fill="grey" stroke="grey" stroke-width="2" points="412.04,-41.6 401.89,-38.58 407.95,-47.27 412.04,-41.6"/>
</g>
<!-- 11 -->
<g id="node12" class="node">
<title>11</title>
<path fill="none" stroke="#61d856" stroke-width="2" d="M513.5,-180C513.5,-180 430,-180 430,-180 424,-180 418,-174 418,-168 418,-168 418,-156 418,-156 418,-150 424,-144 430,-144 430,-144 513.5,-144 513.5,-144 519.5,-144 525.5,-150 525.5,-156 525.5,-156 525.5,-168 525.5,-168 525.5,-174 519.5,-180 513.5,-180"/>
<text text-anchor="middle" x="471.75" y="-163.75" font-family="sans" font-size="10.00">hificnv</text>
<text text-anchor="middle" x="471.75" y="-152.5" font-family="sans" font-size="10.00">sample: 2022.MM.16</text>
</g>
<!-- 11&#45;&gt;10 -->
<g id="edge13" class="edge">
<title>11&#45;&gt;10</title>
<path fill="none" stroke="grey" stroke-width="2" d="M471.75,-143.34C471.75,-136.75 471.75,-129.08 471.75,-121.67"/>
<polygon fill="grey" stroke="grey" stroke-width="2" points="475.25,-121.93 471.75,-111.93 468.25,-121.93 475.25,-121.93"/>
</g>
</g>
</svg>
