<?xml version="1.0" encoding="UTF-8" standalone="no"?>
<!DOCTYPE svg PUBLIC "-//W3C//DTD SVG 1.1//EN"
 "http://www.w3.org/Graphics/SVG/1.1/DTD/svg11.dtd">
<!-- Generated by graphviz version 12.2.1 (20241206.2353)
 -->
<!-- Title: snakemake_dag Pages: 1 -->
<svg width="516pt" height="548pt"
 viewBox="0.00 0.00 515.75 548.00" xmlns="http://www.w3.org/2000/svg" xmlns:xlink="http://www.w3.org/1999/xlink">
<g id="graph0" class="graph" transform="scale(1 1) rotate(0) translate(4 544)">
<title>snakemake_dag</title>
<polygon fill="white" stroke="none" points="-4,4 -4,-544 511.75,-544 511.75,4 -4,4"/>
<!-- 0 -->
<g id="node1" class="node">
<title>0</title>
<path fill="none" stroke="#d87556" stroke-width="2" d="M342.75,-36C342.75,-36 312.75,-36 312.75,-36 306.75,-36 300.75,-30 300.75,-24 300.75,-24 300.75,-12 300.75,-12 300.75,-6 306.75,0 312.75,0 312.75,0 342.75,0 342.75,0 348.75,0 354.75,-6 354.75,-12 354.75,-12 354.75,-24 354.75,-24 354.75,-30 348.75,-36 342.75,-36"/>
<text text-anchor="middle" x="327.75" y="-14.12" font-family="sans" font-size="10.00">all</text>
</g>
<!-- 1 -->
<g id="node2" class="node">
<title>1</title>
<path fill="none" stroke="#56d8b1" stroke-width="2" d="M278.5,-252C278.5,-252 195,-252 195,-252 189,-252 183,-246 183,-240 183,-240 183,-228 183,-228 183,-222 189,-216 195,-216 195,-216 278.5,-216 278.5,-216 284.5,-216 290.5,-222 290.5,-228 290.5,-228 290.5,-240 290.5,-240 290.5,-246 284.5,-252 278.5,-252"/>
<text text-anchor="middle" x="236.75" y="-235.75" font-family="sans" font-size="10.00">_copy_indel_vcf</text>
<text text-anchor="middle" x="236.75" y="-224.5" font-family="sans" font-size="10.00">sample: 2022.MM.16</text>
</g>
<!-- 1&#45;&gt;0 -->
<g id="edge1" class="edge">
<title>1&#45;&gt;0</title>
<path fill="none" stroke="grey" stroke-width="2" d="M236.01,-215.24C235.5,-184.09 238.02,-118.49 264.75,-72 270.92,-61.26 280.14,-51.72 289.62,-43.8"/>
<polygon fill="grey" stroke="grey" stroke-width="2" points="291.73,-46.59 297.5,-37.7 287.45,-41.05 291.73,-46.59"/>
</g>
<!-- 2 -->
<g id="node3" class="node">
<title>2</title>
<path fill="none" stroke="#ced856" stroke-width="2" d="M271.88,-324C271.88,-324 187.62,-324 187.62,-324 181.62,-324 175.62,-318 175.62,-312 175.62,-312 175.62,-300 175.62,-300 175.62,-294 181.62,-288 187.62,-288 187.62,-288 271.88,-288 271.88,-288 277.88,-288 283.88,-294 283.88,-300 283.88,-300 283.88,-312 283.88,-312 283.88,-318 277.88,-324 271.88,-324"/>
<text text-anchor="middle" x="229.75" y="-307.75" font-family="sans" font-size="10.00">deepsomatic_filtering</text>
<text text-anchor="middle" x="229.75" y="-296.5" font-family="sans" font-size="10.00">tag: panel</text>
</g>
<!-- 2&#45;&gt;1 -->
<g id="edge4" class="edge">
<title>2&#45;&gt;1</title>
<path fill="none" stroke="grey" stroke-width="2" d="M231.52,-287.34C232.17,-280.75 232.94,-273.08 233.68,-265.67"/>
<polygon fill="grey" stroke="grey" stroke-width="2" points="237.15,-266.21 234.66,-255.91 230.18,-265.52 237.15,-266.21"/>
</g>
<!-- 3 -->
<g id="node4" class="node">
<title>3</title>
<path fill="none" stroke="#56d8d8" stroke-width="2" d="M219.5,-468C219.5,-468 136,-468 136,-468 130,-468 124,-462 124,-456 124,-456 124,-444 124,-444 124,-438 130,-432 136,-432 136,-432 219.5,-432 219.5,-432 225.5,-432 231.5,-438 231.5,-444 231.5,-444 231.5,-456 231.5,-456 231.5,-462 225.5,-468 219.5,-468"/>
<text text-anchor="middle" x="177.75" y="-451.75" font-family="sans" font-size="10.00">deepsomatic_tn</text>
<text text-anchor="middle" x="177.75" y="-440.5" font-family="sans" font-size="10.00">sample: 2022.MM.16</text>
</g>
<!-- 3&#45;&gt;2 -->
<g id="edge5" class="edge">
<title>3&#45;&gt;2</title>
<path fill="none" stroke="grey" stroke-width="2" d="M148.23,-431.03C136.43,-422.11 124.15,-410.19 117.75,-396 111.17,-381.41 109.19,-373.52 117.75,-360 128.13,-343.6 145.1,-332.18 162.73,-324.26"/>
<polygon fill="grey" stroke="grey" stroke-width="2" points="163.9,-327.57 171.85,-320.57 161.27,-321.08 163.9,-327.57"/>
</g>
<!-- 6 -->
<g id="node7" class="node">
<title>6</title>
<path fill="none" stroke="#a7d856" stroke-width="2" d="M324.88,-396C324.88,-396 138.62,-396 138.62,-396 132.62,-396 126.62,-390 126.62,-384 126.62,-384 126.62,-372 126.62,-372 126.62,-366 132.62,-360 138.62,-360 138.62,-360 324.88,-360 324.88,-360 330.88,-360 336.88,-366 336.88,-372 336.88,-372 336.88,-384 336.88,-384 336.88,-390 330.88,-396 324.88,-396"/>
<text text-anchor="middle" x="231.75" y="-379.75" font-family="sans" font-size="10.00">tabix_vcf</text>
<text text-anchor="middle" x="231.75" y="-368.5" font-family="sans" font-size="10.00">file: snv_indels/deepsomatic_tn/2022.MM.16</text>
</g>
<!-- 3&#45;&gt;6 -->
<g id="edge9" class="edge">
<title>3&#45;&gt;6</title>
<path fill="none" stroke="grey" stroke-width="2" d="M191.38,-431.34C197.02,-424.01 203.72,-415.34 210.01,-407.18"/>
<polygon fill="grey" stroke="grey" stroke-width="2" points="212.75,-409.35 216.09,-399.3 207.21,-405.08 212.75,-409.35"/>
</g>
<!-- 4 -->
<g id="node5" class="node">
<title>4</title>
<path fill="none" stroke="#d8bc56" stroke-width="2" stroke-dasharray="5,2" d="M233.5,-540C233.5,-540 12,-540 12,-540 6,-540 0,-534 0,-528 0,-528 0,-516 0,-516 0,-510 6,-504 12,-504 12,-504 233.5,-504 233.5,-504 239.5,-504 245.5,-510 245.5,-516 245.5,-516 245.5,-528 245.5,-528 245.5,-534 239.5,-540 233.5,-540"/>
<text text-anchor="middle" x="122.75" y="-523.75" font-family="sans" font-size="10.00">alignment_samtools_index</text>
<text text-anchor="middle" x="122.75" y="-512.5" font-family="sans" font-size="10.00">file: alignment/samtools_merge_bam/2022.MM.16_N</text>
</g>
<!-- 4&#45;&gt;3 -->
<g id="edge7" class="edge">
<title>4&#45;&gt;3</title>
<path fill="none" stroke="grey" stroke-width="2" d="M136.63,-503.34C142.45,-495.93 149.35,-487.14 155.83,-478.9"/>
<polygon fill="grey" stroke="grey" stroke-width="2" points="158.39,-481.31 161.81,-471.28 152.88,-476.98 158.39,-481.31"/>
</g>
<!-- 5 -->
<g id="node6" class="node">
<title>5</title>
<path fill="none" stroke="#d8bc56" stroke-width="2" stroke-dasharray="5,2" d="M495.75,-540C495.75,-540 275.75,-540 275.75,-540 269.75,-540 263.75,-534 263.75,-528 263.75,-528 263.75,-516 263.75,-516 263.75,-510 269.75,-504 275.75,-504 275.75,-504 495.75,-504 495.75,-504 501.75,-504 507.75,-510 507.75,-516 507.75,-516 507.75,-528 507.75,-528 507.75,-534 501.75,-540 495.75,-540"/>
<text text-anchor="middle" x="385.75" y="-523.75" font-family="sans" font-size="10.00">alignment_samtools_index</text>
<text text-anchor="middle" x="385.75" y="-512.5" font-family="sans" font-size="10.00">file: alignment/samtools_merge_bam/2022.MM.16_T</text>
</g>
<!-- 5&#45;&gt;3 -->
<g id="edge8" class="edge">
<title>5&#45;&gt;3</title>
<path fill="none" stroke="grey" stroke-width="2" d="M332.45,-503.06C305.18,-493.88 271.74,-482.63 242.93,-472.94"/>
<polygon fill="grey" stroke="grey" stroke-width="2" points="244.37,-469.73 233.78,-469.85 242.14,-476.36 244.37,-469.73"/>
</g>
<!-- 11 -->
<g id="node12" class="node">
<title>11</title>
<path fill="none" stroke="#78d856" stroke-width="2" d="M427.5,-468C427.5,-468 344,-468 344,-468 338,-468 332,-462 332,-456 332,-456 332,-444 332,-444 332,-438 338,-432 344,-432 344,-432 427.5,-432 427.5,-432 433.5,-432 439.5,-438 439.5,-444 439.5,-444 439.5,-456 439.5,-456 439.5,-462 433.5,-468 427.5,-468"/>
<text text-anchor="middle" x="385.75" y="-451.75" font-family="sans" font-size="10.00">pbsv_discover</text>
<text text-anchor="middle" x="385.75" y="-440.5" font-family="sans" font-size="10.00">sample: 2022.MM.16</text>
</g>
<!-- 5&#45;&gt;11 -->
<g id="edge15" class="edge">
<title>5&#45;&gt;11</title>
<path fill="none" stroke="grey" stroke-width="2" d="M385.75,-503.34C385.75,-496.75 385.75,-489.08 385.75,-481.67"/>
<polygon fill="grey" stroke="grey" stroke-width="2" points="389.25,-481.93 385.75,-471.93 382.25,-481.93 389.25,-481.93"/>
</g>
<!-- 6&#45;&gt;2 -->
<g id="edge6" class="edge">
<title>6&#45;&gt;2</title>
<path fill="none" stroke="grey" stroke-width="2" d="M231.25,-359.34C231.06,-352.75 230.84,-345.08 230.63,-337.67"/>
<polygon fill="grey" stroke="grey" stroke-width="2" points="234.13,-337.82 230.35,-327.93 227.14,-338.02 234.13,-337.82"/>
</g>
<!-- 7 -->
<g id="node8" class="node">
<title>7</title>
<path fill="none" stroke="#56d85b" stroke-width="2" d="M369.5,-108C369.5,-108 286,-108 286,-108 280,-108 274,-102 274,-96 274,-96 274,-84 274,-84 274,-78 280,-72 286,-72 286,-72 369.5,-72 369.5,-72 375.5,-72 381.5,-78 381.5,-84 381.5,-84 381.5,-96 381.5,-96 381.5,-102 375.5,-108 369.5,-108"/>
<text text-anchor="middle" x="327.75" y="-91.75" font-family="sans" font-size="10.00">_copy_sv_vcf</text>
<text text-anchor="middle" x="327.75" y="-80.5" font-family="sans" font-size="10.00">sample: 2022.MM.16</text>
</g>
<!-- 7&#45;&gt;0 -->
<g id="edge2" class="edge">
<title>7&#45;&gt;0</title>
<path fill="none" stroke="grey" stroke-width="2" d="M327.75,-71.34C327.75,-64.75 327.75,-57.08 327.75,-49.67"/>
<polygon fill="grey" stroke="grey" stroke-width="2" points="331.25,-49.93 327.75,-39.93 324.25,-49.93 331.25,-49.93"/>
</g>
<!-- 8 -->
<g id="node9" class="node">
<title>8</title>
<path fill="none" stroke="#569ad8" stroke-width="2" d="M354.62,-180C354.62,-180 304.88,-180 304.88,-180 298.88,-180 292.88,-174 292.88,-168 292.88,-168 292.88,-156 292.88,-156 292.88,-150 298.88,-144 304.88,-144 304.88,-144 354.62,-144 354.62,-144 360.62,-144 366.62,-150 366.62,-156 366.62,-156 366.62,-168 366.62,-168 366.62,-174 360.62,-180 354.62,-180"/>
<text text-anchor="middle" x="329.75" y="-163.75" font-family="sans" font-size="10.00">pbsv_filtering</text>
<text text-anchor="middle" x="329.75" y="-152.5" font-family="sans" font-size="10.00">tag: panel</text>
</g>
<!-- 8&#45;&gt;7 -->
<g id="edge10" class="edge">
<title>8&#45;&gt;7</title>
<path fill="none" stroke="grey" stroke-width="2" d="M329.25,-143.34C329.06,-136.75 328.84,-129.08 328.63,-121.67"/>
<polygon fill="grey" stroke="grey" stroke-width="2" points="332.13,-121.82 328.35,-111.93 325.14,-122.02 332.13,-121.82"/>
</g>
<!-- 9 -->
<g id="node10" class="node">
<title>9</title>
<path fill="none" stroke="#61d856" stroke-width="2" d="M457.5,-324C457.5,-324 314,-324 314,-324 308,-324 302,-318 302,-312 302,-312 302,-300 302,-300 302,-294 308,-288 314,-288 314,-288 457.5,-288 457.5,-288 463.5,-288 469.5,-294 469.5,-300 469.5,-300 469.5,-312 469.5,-312 469.5,-318 463.5,-324 457.5,-324"/>
<text text-anchor="middle" x="385.75" y="-307.75" font-family="sans" font-size="10.00">bgzip_vcf</text>
<text text-anchor="middle" x="385.75" y="-296.5" font-family="sans" font-size="10.00">file: cnv_sv/pbsv_call/2022.MM.16</text>
</g>
<!-- 9&#45;&gt;8 -->
<g id="edge11" class="edge">
<title>9&#45;&gt;8</title>
<path fill="none" stroke="grey" stroke-width="2" d="M370.81,-287.44C363.15,-277.6 354.3,-264.76 348.75,-252 340.66,-233.38 335.91,-211.04 333.18,-193.4"/>
<polygon fill="grey" stroke="grey" stroke-width="2" points="336.67,-193.12 331.84,-183.69 329.74,-194.07 336.67,-193.12"/>
</g>
<!-- 12 -->
<g id="node13" class="node">
<title>12</title>
<path fill="none" stroke="#a7d856" stroke-width="2" d="M401.62,-252C401.62,-252 369.88,-252 369.88,-252 363.88,-252 357.88,-246 357.88,-240 357.88,-240 357.88,-228 357.88,-228 357.88,-222 363.88,-216 369.88,-216 369.88,-216 401.62,-216 401.62,-216 407.62,-216 413.62,-222 413.62,-228 413.62,-228 413.62,-240 413.62,-240 413.62,-246 407.62,-252 401.62,-252"/>
<text text-anchor="middle" x="385.75" y="-230.12" font-family="sans" font-size="10.00">tabix_vcf</text>
</g>
<!-- 9&#45;&gt;12 -->
<g id="edge16" class="edge">
<title>9&#45;&gt;12</title>
<path fill="none" stroke="grey" stroke-width="2" d="M385.75,-287.34C385.75,-280.75 385.75,-273.08 385.75,-265.67"/>
<polygon fill="grey" stroke="grey" stroke-width="2" points="389.25,-265.93 385.75,-255.93 382.25,-265.93 389.25,-265.93"/>
</g>
<!-- 10 -->
<g id="node11" class="node">
<title>10</title>
<path fill="none" stroke="#56d86b" stroke-width="2" d="M402.38,-396C402.38,-396 369.12,-396 369.12,-396 363.12,-396 357.12,-390 357.12,-384 357.12,-384 357.12,-372 357.12,-372 357.12,-366 363.12,-360 369.12,-360 369.12,-360 402.38,-360 402.38,-360 408.38,-360 414.38,-366 414.38,-372 414.38,-372 414.38,-384 414.38,-384 414.38,-390 408.38,-396 402.38,-396"/>
<text text-anchor="middle" x="385.75" y="-374.12" font-family="sans" font-size="10.00">pbsv_call</text>
</g>
<!-- 10&#45;&gt;9 -->
<g id="edge13" class="edge">
<title>10&#45;&gt;9</title>
<path fill="none" stroke="grey" stroke-width="2" d="M385.75,-359.34C385.75,-352.75 385.75,-345.08 385.75,-337.67"/>
<polygon fill="grey" stroke="grey" stroke-width="2" points="389.25,-337.93 385.75,-327.93 382.25,-337.93 389.25,-337.93"/>
</g>
<!-- 11&#45;&gt;10 -->
<g id="edge14" class="edge">
<title>11&#45;&gt;10</title>
<path fill="none" stroke="grey" stroke-width="2" d="M385.75,-431.34C385.75,-424.75 385.75,-417.08 385.75,-409.67"/>
<polygon fill="grey" stroke="grey" stroke-width="2" points="389.25,-409.93 385.75,-399.93 382.25,-409.93 389.25,-409.93"/>
</g>
<!-- 12&#45;&gt;8 -->
<g id="edge12" class="edge">
<title>12&#45;&gt;8</title>
<path fill="none" stroke="grey" stroke-width="2" d="M371.62,-215.34C365.7,-207.93 358.66,-199.14 352.07,-190.9"/>
<polygon fill="grey" stroke="grey" stroke-width="2" points="354.94,-188.89 345.96,-183.27 349.48,-193.26 354.94,-188.89"/>
</g>
<!-- 13 -->
<g id="node14" class="node">
<title>13</title>
<path fill="none" stroke="#5663d8" stroke-width="2" d="M469.75,-108C469.75,-108 411.75,-108 411.75,-108 405.75,-108 399.75,-102 399.75,-96 399.75,-96 399.75,-84 399.75,-84 399.75,-78 405.75,-72 411.75,-72 411.75,-72 469.75,-72 469.75,-72 475.75,-72 481.75,-78 481.75,-84 481.75,-84 481.75,-96 481.75,-96 481.75,-102 475.75,-108 469.75,-108"/>
<text text-anchor="middle" x="440.75" y="-86.12" font-family="sans" font-size="10.00">_copy_cnv_vcf</text>
</g>
<!-- 13&#45;&gt;0 -->
<g id="edge3" class="edge">
<title>13&#45;&gt;0</title>
<path fill="none" stroke="grey" stroke-width="2" d="M411.94,-71.15C398.19,-62.63 381.52,-52.31 366.66,-43.1"/>
<polygon fill="grey" stroke="grey" stroke-width="2" points="368.64,-40.21 358.3,-37.92 364.95,-46.16 368.64,-40.21"/>
</g>
<!-- 14 -->
<g id="node15" class="node">
<title>14</title>
<path fill="none" stroke="#d86656" stroke-width="2" d="M482.5,-180C482.5,-180 399,-180 399,-180 393,-180 387,-174 387,-168 387,-168 387,-156 387,-156 387,-150 393,-144 399,-144 399,-144 482.5,-144 482.5,-144 488.5,-144 494.5,-150 494.5,-156 494.5,-156 494.5,-168 494.5,-168 494.5,-174 488.5,-180 482.5,-180"/>
<text text-anchor="middle" x="440.75" y="-163.75" font-family="sans" font-size="10.00">hificnv</text>
<text text-anchor="middle" x="440.75" y="-152.5" font-family="sans" font-size="10.00">sample: 2022.MM.16</text>
</g>
<!-- 14&#45;&gt;13 -->
<g id="edge17" class="edge">
<title>14&#45;&gt;13</title>
<path fill="none" stroke="grey" stroke-width="2" d="M440.75,-143.34C440.75,-136.75 440.75,-129.08 440.75,-121.67"/>
<polygon fill="grey" stroke="grey" stroke-width="2" points="444.25,-121.93 440.75,-111.93 437.25,-121.93 444.25,-121.93"/>
</g>
</g>
</svg>
